G04*
G04 #@! TF.GenerationSoftware,Altium Limited,Altium Designer,20.0.13 (296)*
G04*
G04 Layer_Color=16711935*
%FSLAX42Y42*%
%MOMM*%
G71*
G01*
G75*
%ADD17R,1.90X1.90*%
G04:AMPARAMS|DCode=18|XSize=1.2mm|YSize=0.7mm|CornerRadius=0.11mm|HoleSize=0mm|Usage=FLASHONLY|Rotation=0.000|XOffset=0mm|YOffset=0mm|HoleType=Round|Shape=RoundedRectangle|*
%AMROUNDEDRECTD18*
21,1,1.20,0.48,0,0,0.0*
21,1,0.98,0.70,0,0,0.0*
1,1,0.22,0.49,-0.24*
1,1,0.22,-0.49,-0.24*
1,1,0.22,-0.49,0.24*
1,1,0.22,0.49,0.24*
%
%ADD18ROUNDEDRECTD18*%
%ADD20C,1.10*%
G04:AMPARAMS|DCode=24|XSize=0.6mm|YSize=0.65mm|CornerRadius=0.14mm|HoleSize=0mm|Usage=FLASHONLY|Rotation=270.000|XOffset=0mm|YOffset=0mm|HoleType=Round|Shape=RoundedRectangle|*
%AMROUNDEDRECTD24*
21,1,0.60,0.38,0,0,270.0*
21,1,0.33,0.65,0,0,270.0*
1,1,0.28,-0.19,-0.16*
1,1,0.28,-0.19,0.16*
1,1,0.28,0.19,0.16*
1,1,0.28,0.19,-0.16*
%
%ADD24ROUNDEDRECTD24*%
G04:AMPARAMS|DCode=25|XSize=0.6mm|YSize=0.65mm|CornerRadius=0.14mm|HoleSize=0mm|Usage=FLASHONLY|Rotation=0.000|XOffset=0mm|YOffset=0mm|HoleType=Round|Shape=RoundedRectangle|*
%AMROUNDEDRECTD25*
21,1,0.60,0.38,0,0,0.0*
21,1,0.33,0.65,0,0,0.0*
1,1,0.28,0.16,-0.19*
1,1,0.28,-0.16,-0.19*
1,1,0.28,-0.16,0.19*
1,1,0.28,0.16,0.19*
%
%ADD25ROUNDEDRECTD25*%
G04:AMPARAMS|DCode=26|XSize=1.25mm|YSize=1.55mm|CornerRadius=0.14mm|HoleSize=0mm|Usage=FLASHONLY|Rotation=270.000|XOffset=0mm|YOffset=0mm|HoleType=Round|Shape=RoundedRectangle|*
%AMROUNDEDRECTD26*
21,1,1.25,1.28,0,0,270.0*
21,1,0.98,1.55,0,0,270.0*
1,1,0.27,-0.64,-0.49*
1,1,0.27,-0.64,0.49*
1,1,0.27,0.64,0.49*
1,1,0.27,0.64,-0.49*
%
%ADD26ROUNDEDRECTD26*%
G04:AMPARAMS|DCode=31|XSize=0.9mm|YSize=0.9mm|CornerRadius=0.13mm|HoleSize=0mm|Usage=FLASHONLY|Rotation=270.000|XOffset=0mm|YOffset=0mm|HoleType=Round|Shape=RoundedRectangle|*
%AMROUNDEDRECTD31*
21,1,0.90,0.64,0,0,270.0*
21,1,0.64,0.90,0,0,270.0*
1,1,0.26,-0.32,-0.32*
1,1,0.26,-0.32,0.32*
1,1,0.26,0.32,0.32*
1,1,0.26,0.32,-0.32*
%
%ADD31ROUNDEDRECTD31*%
G04:AMPARAMS|DCode=44|XSize=1.25mm|YSize=1.55mm|CornerRadius=0.14mm|HoleSize=0mm|Usage=FLASHONLY|Rotation=180.000|XOffset=0mm|YOffset=0mm|HoleType=Round|Shape=RoundedRectangle|*
%AMROUNDEDRECTD44*
21,1,1.25,1.28,0,0,180.0*
21,1,0.98,1.55,0,0,180.0*
1,1,0.27,-0.49,0.64*
1,1,0.27,0.49,0.64*
1,1,0.27,0.49,-0.64*
1,1,0.27,-0.49,-0.64*
%
%ADD44ROUNDEDRECTD44*%
G04:AMPARAMS|DCode=46|XSize=0.9mm|YSize=1.09mm|CornerRadius=0.19mm|HoleSize=0mm|Usage=FLASHONLY|Rotation=180.000|XOffset=0mm|YOffset=0mm|HoleType=Round|Shape=RoundedRectangle|*
%AMROUNDEDRECTD46*
21,1,0.90,0.71,0,0,180.0*
21,1,0.52,1.09,0,0,180.0*
1,1,0.38,-0.26,0.36*
1,1,0.38,0.26,0.36*
1,1,0.38,0.26,-0.36*
1,1,0.38,-0.26,-0.36*
%
%ADD46ROUNDEDRECTD46*%
G04:AMPARAMS|DCode=51|XSize=0.4mm|YSize=0.76mm|CornerRadius=0.1mm|HoleSize=0mm|Usage=FLASHONLY|Rotation=180.000|XOffset=0mm|YOffset=0mm|HoleType=Round|Shape=RoundedRectangle|*
%AMROUNDEDRECTD51*
21,1,0.40,0.57,0,0,180.0*
21,1,0.21,0.76,0,0,180.0*
1,1,0.19,-0.11,0.28*
1,1,0.19,0.11,0.28*
1,1,0.19,0.11,-0.28*
1,1,0.19,-0.11,-0.28*
%
%ADD51ROUNDEDRECTD51*%
G04:AMPARAMS|DCode=57|XSize=0.9mm|YSize=1.09mm|CornerRadius=0.19mm|HoleSize=0mm|Usage=FLASHONLY|Rotation=90.000|XOffset=0mm|YOffset=0mm|HoleType=Round|Shape=RoundedRectangle|*
%AMROUNDEDRECTD57*
21,1,0.90,0.71,0,0,90.0*
21,1,0.52,1.09,0,0,90.0*
1,1,0.38,0.36,0.26*
1,1,0.38,0.36,-0.26*
1,1,0.38,-0.36,-0.26*
1,1,0.38,-0.36,0.26*
%
%ADD57ROUNDEDRECTD57*%
%ADD64C,0.95*%
G04:AMPARAMS|DCode=71|XSize=0.6mm|YSize=0.6mm|CornerRadius=0.1mm|HoleSize=0mm|Usage=FLASHONLY|Rotation=270.000|XOffset=0mm|YOffset=0mm|HoleType=Round|Shape=RoundedRectangle|*
%AMROUNDEDRECTD71*
21,1,0.60,0.40,0,0,270.0*
21,1,0.40,0.60,0,0,270.0*
1,1,0.20,-0.20,-0.20*
1,1,0.20,-0.20,0.20*
1,1,0.20,0.20,0.20*
1,1,0.20,0.20,-0.20*
%
%ADD71ROUNDEDRECTD71*%
G04:AMPARAMS|DCode=76|XSize=0.7mm|YSize=0.34mm|CornerRadius=0.09mm|HoleSize=0mm|Usage=FLASHONLY|Rotation=0.000|XOffset=0mm|YOffset=0mm|HoleType=Round|Shape=RoundedRectangle|*
%AMROUNDEDRECTD76*
21,1,0.70,0.17,0,0,0.0*
21,1,0.53,0.34,0,0,0.0*
1,1,0.17,0.26,-0.08*
1,1,0.17,-0.26,-0.08*
1,1,0.17,-0.26,0.08*
1,1,0.17,0.26,0.08*
%
%ADD76ROUNDEDRECTD76*%
G04:AMPARAMS|DCode=77|XSize=0.7mm|YSize=0.34mm|CornerRadius=0.09mm|HoleSize=0mm|Usage=FLASHONLY|Rotation=90.000|XOffset=0mm|YOffset=0mm|HoleType=Round|Shape=RoundedRectangle|*
%AMROUNDEDRECTD77*
21,1,0.70,0.17,0,0,90.0*
21,1,0.53,0.34,0,0,90.0*
1,1,0.17,0.08,0.26*
1,1,0.17,0.08,-0.26*
1,1,0.17,-0.08,-0.26*
1,1,0.17,-0.08,0.26*
%
%ADD77ROUNDEDRECTD77*%
G04:AMPARAMS|DCode=85|XSize=0.7mm|YSize=0.9mm|CornerRadius=0.11mm|HoleSize=0mm|Usage=FLASHONLY|Rotation=180.000|XOffset=0mm|YOffset=0mm|HoleType=Round|Shape=RoundedRectangle|*
%AMROUNDEDRECTD85*
21,1,0.70,0.68,0,0,180.0*
21,1,0.48,0.90,0,0,180.0*
1,1,0.22,-0.24,0.34*
1,1,0.22,0.24,0.34*
1,1,0.22,0.24,-0.34*
1,1,0.22,-0.24,-0.34*
%
%ADD85ROUNDEDRECTD85*%
G04:AMPARAMS|DCode=90|XSize=0.6mm|YSize=0.6mm|CornerRadius=0.1mm|HoleSize=0mm|Usage=FLASHONLY|Rotation=0.000|XOffset=0mm|YOffset=0mm|HoleType=Round|Shape=RoundedRectangle|*
%AMROUNDEDRECTD90*
21,1,0.60,0.40,0,0,0.0*
21,1,0.40,0.60,0,0,0.0*
1,1,0.20,0.20,-0.20*
1,1,0.20,-0.20,-0.20*
1,1,0.20,-0.20,0.20*
1,1,0.20,0.20,0.20*
%
%ADD90ROUNDEDRECTD90*%
%ADD95C,1.60*%
%ADD96O,2.20X1.20*%
%ADD97O,3.70X1.20*%
%ADD98O,3.10X1.30*%
%ADD99C,0.30*%
%ADD100C,1.00*%
%ADD101C,0.45*%
%ADD102C,1.09*%
%ADD193R,1.80X1.80*%
%ADD264R,1.75X2.20*%
%ADD265R,1.80X0.50*%
%ADD266P,0.72X4X180.0*%
%ADD267R,1.10X1.70*%
G04:AMPARAMS|DCode=268|XSize=1.89mm|YSize=0.32mm|CornerRadius=0.08mm|HoleSize=0mm|Usage=FLASHONLY|Rotation=180.000|XOffset=0mm|YOffset=0mm|HoleType=Round|Shape=RoundedRectangle|*
%AMROUNDEDRECTD268*
21,1,1.89,0.15,0,0,180.0*
21,1,1.72,0.32,0,0,180.0*
1,1,0.17,-0.86,0.08*
1,1,0.17,0.86,0.08*
1,1,0.17,0.86,-0.08*
1,1,0.17,-0.86,-0.08*
%
%ADD268ROUNDEDRECTD268*%
G04:AMPARAMS|DCode=269|XSize=1.89mm|YSize=0.34mm|CornerRadius=0.09mm|HoleSize=0mm|Usage=FLASHONLY|Rotation=180.000|XOffset=0mm|YOffset=0mm|HoleType=Round|Shape=RoundedRectangle|*
%AMROUNDEDRECTD269*
21,1,1.89,0.17,0,0,180.0*
21,1,1.72,0.34,0,0,180.0*
1,1,0.17,-0.86,0.08*
1,1,0.17,0.86,0.08*
1,1,0.17,0.86,-0.08*
1,1,0.17,-0.86,-0.08*
%
%ADD269ROUNDEDRECTD269*%
G04:AMPARAMS|DCode=270|XSize=0.5mm|YSize=0.58mm|CornerRadius=0.09mm|HoleSize=0mm|Usage=FLASHONLY|Rotation=0.000|XOffset=0mm|YOffset=0mm|HoleType=Round|Shape=RoundedRectangle|*
%AMROUNDEDRECTD270*
21,1,0.50,0.40,0,0,0.0*
21,1,0.32,0.58,0,0,0.0*
1,1,0.18,0.16,-0.20*
1,1,0.18,-0.16,-0.20*
1,1,0.18,-0.16,0.20*
1,1,0.18,0.16,0.20*
%
%ADD270ROUNDEDRECTD270*%
G04:AMPARAMS|DCode=271|XSize=0.9mm|YSize=0.35mm|CornerRadius=0.18mm|HoleSize=0mm|Usage=FLASHONLY|Rotation=180.000|XOffset=0mm|YOffset=0mm|HoleType=Round|Shape=RoundedRectangle|*
%AMROUNDEDRECTD271*
21,1,0.90,0.00,0,0,180.0*
21,1,0.55,0.35,0,0,180.0*
1,1,0.35,-0.28,0.00*
1,1,0.35,0.28,0.00*
1,1,0.35,0.28,0.00*
1,1,0.35,-0.28,0.00*
%
%ADD271ROUNDEDRECTD271*%
G04:AMPARAMS|DCode=272|XSize=0.48mm|YSize=0.4mm|CornerRadius=0.08mm|HoleSize=0mm|Usage=FLASHONLY|Rotation=90.000|XOffset=0mm|YOffset=0mm|HoleType=Round|Shape=RoundedRectangle|*
%AMROUNDEDRECTD272*
21,1,0.48,0.24,0,0,90.0*
21,1,0.32,0.40,0,0,90.0*
1,1,0.16,0.12,0.16*
1,1,0.16,0.12,-0.16*
1,1,0.16,-0.12,-0.16*
1,1,0.16,-0.12,0.16*
%
%ADD272ROUNDEDRECTD272*%
G04:AMPARAMS|DCode=273|XSize=0.5mm|YSize=0.5mm|CornerRadius=0.09mm|HoleSize=0mm|Usage=FLASHONLY|Rotation=90.000|XOffset=0mm|YOffset=0mm|HoleType=Round|Shape=RoundedRectangle|*
%AMROUNDEDRECTD273*
21,1,0.50,0.32,0,0,90.0*
21,1,0.32,0.50,0,0,90.0*
1,1,0.18,0.16,0.16*
1,1,0.18,0.16,-0.16*
1,1,0.18,-0.16,-0.16*
1,1,0.18,-0.16,0.16*
%
%ADD273ROUNDEDRECTD273*%
G04:AMPARAMS|DCode=274|XSize=0.83mm|YSize=0.62mm|CornerRadius=0.1mm|HoleSize=0mm|Usage=FLASHONLY|Rotation=90.000|XOffset=0mm|YOffset=0mm|HoleType=Round|Shape=RoundedRectangle|*
%AMROUNDEDRECTD274*
21,1,0.83,0.42,0,0,90.0*
21,1,0.62,0.62,0,0,90.0*
1,1,0.20,0.21,0.31*
1,1,0.20,0.21,-0.31*
1,1,0.20,-0.21,-0.31*
1,1,0.20,-0.21,0.31*
%
%ADD274ROUNDEDRECTD274*%
G04:AMPARAMS|DCode=275|XSize=2.78mm|YSize=2.78mm|CornerRadius=0.18mm|HoleSize=0mm|Usage=FLASHONLY|Rotation=90.000|XOffset=0mm|YOffset=0mm|HoleType=Round|Shape=RoundedRectangle|*
%AMROUNDEDRECTD275*
21,1,2.78,2.41,0,0,90.0*
21,1,2.41,2.78,0,0,90.0*
1,1,0.37,1.21,1.21*
1,1,0.37,1.21,-1.21*
1,1,0.37,-1.21,-1.21*
1,1,0.37,-1.21,1.21*
%
%ADD275ROUNDEDRECTD275*%
%ADD276O,0.90X0.35*%
%ADD277O,0.35X0.90*%
G04:AMPARAMS|DCode=278|XSize=0.9mm|YSize=0.6mm|CornerRadius=0.1mm|HoleSize=0mm|Usage=FLASHONLY|Rotation=90.000|XOffset=0mm|YOffset=0mm|HoleType=Round|Shape=RoundedRectangle|*
%AMROUNDEDRECTD278*
21,1,0.90,0.40,0,0,90.0*
21,1,0.70,0.60,0,0,90.0*
1,1,0.20,0.20,0.35*
1,1,0.20,0.20,-0.35*
1,1,0.20,-0.20,-0.35*
1,1,0.20,-0.20,0.35*
%
%ADD278ROUNDEDRECTD278*%
G04:AMPARAMS|DCode=279|XSize=0.4mm|YSize=0.76mm|CornerRadius=0.1mm|HoleSize=0mm|Usage=FLASHONLY|Rotation=90.000|XOffset=0mm|YOffset=0mm|HoleType=Round|Shape=RoundedRectangle|*
%AMROUNDEDRECTD279*
21,1,0.40,0.57,0,0,90.0*
21,1,0.21,0.76,0,0,90.0*
1,1,0.19,0.28,0.11*
1,1,0.19,0.28,-0.11*
1,1,0.19,-0.28,-0.11*
1,1,0.19,-0.28,0.11*
%
%ADD279ROUNDEDRECTD279*%
G04:AMPARAMS|DCode=280|XSize=0.4mm|YSize=0.6mm|CornerRadius=0.08mm|HoleSize=0mm|Usage=FLASHONLY|Rotation=90.000|XOffset=0mm|YOffset=0mm|HoleType=Round|Shape=RoundedRectangle|*
%AMROUNDEDRECTD280*
21,1,0.40,0.44,0,0,90.0*
21,1,0.24,0.60,0,0,90.0*
1,1,0.16,0.22,0.12*
1,1,0.16,0.22,-0.12*
1,1,0.16,-0.22,-0.12*
1,1,0.16,-0.22,0.12*
%
%ADD280ROUNDEDRECTD280*%
G04:AMPARAMS|DCode=281|XSize=0.5mm|YSize=1.5mm|CornerRadius=0.09mm|HoleSize=0mm|Usage=FLASHONLY|Rotation=90.000|XOffset=0mm|YOffset=0mm|HoleType=Round|Shape=RoundedRectangle|*
%AMROUNDEDRECTD281*
21,1,0.50,1.32,0,0,90.0*
21,1,0.32,1.50,0,0,90.0*
1,1,0.18,0.66,0.16*
1,1,0.18,0.66,-0.16*
1,1,0.18,-0.66,-0.16*
1,1,0.18,-0.66,0.16*
%
%ADD281ROUNDEDRECTD281*%
G04:AMPARAMS|DCode=282|XSize=0.35mm|YSize=0.8mm|CornerRadius=0.08mm|HoleSize=0mm|Usage=FLASHONLY|Rotation=270.000|XOffset=0mm|YOffset=0mm|HoleType=Round|Shape=RoundedRectangle|*
%AMROUNDEDRECTD282*
21,1,0.35,0.65,0,0,270.0*
21,1,0.20,0.80,0,0,270.0*
1,1,0.15,-0.33,-0.10*
1,1,0.15,-0.33,0.10*
1,1,0.15,0.33,0.10*
1,1,0.15,0.33,-0.10*
%
%ADD282ROUNDEDRECTD282*%
G04:AMPARAMS|DCode=283|XSize=1.45mm|YSize=1.75mm|CornerRadius=0.19mm|HoleSize=0mm|Usage=FLASHONLY|Rotation=90.000|XOffset=0mm|YOffset=0mm|HoleType=Round|Shape=RoundedRectangle|*
%AMROUNDEDRECTD283*
21,1,1.45,1.38,0,0,90.0*
21,1,1.08,1.75,0,0,90.0*
1,1,0.37,0.69,0.54*
1,1,0.37,0.69,-0.54*
1,1,0.37,-0.69,-0.54*
1,1,0.37,-0.69,0.54*
%
%ADD283ROUNDEDRECTD283*%
G04:AMPARAMS|DCode=284|XSize=1.75mm|YSize=3.78mm|CornerRadius=0.13mm|HoleSize=0mm|Usage=FLASHONLY|Rotation=0.000|XOffset=0mm|YOffset=0mm|HoleType=Round|Shape=RoundedRectangle|*
%AMROUNDEDRECTD284*
21,1,1.75,3.52,0,0,0.0*
21,1,1.49,3.78,0,0,0.0*
1,1,0.27,0.74,-1.76*
1,1,0.27,-0.74,-1.76*
1,1,0.27,-0.74,1.76*
1,1,0.27,0.74,1.76*
%
%ADD284ROUNDEDRECTD284*%
G04:AMPARAMS|DCode=285|XSize=0.4mm|YSize=0.7mm|CornerRadius=0.08mm|HoleSize=0mm|Usage=FLASHONLY|Rotation=270.000|XOffset=0mm|YOffset=0mm|HoleType=Round|Shape=RoundedRectangle|*
%AMROUNDEDRECTD285*
21,1,0.40,0.54,0,0,270.0*
21,1,0.24,0.70,0,0,270.0*
1,1,0.16,-0.27,-0.12*
1,1,0.16,-0.27,0.12*
1,1,0.16,0.27,0.12*
1,1,0.16,0.27,-0.12*
%
%ADD285ROUNDEDRECTD285*%
G04:AMPARAMS|DCode=286|XSize=0.4mm|YSize=0.7mm|CornerRadius=0.08mm|HoleSize=0mm|Usage=FLASHONLY|Rotation=0.000|XOffset=0mm|YOffset=0mm|HoleType=Round|Shape=RoundedRectangle|*
%AMROUNDEDRECTD286*
21,1,0.40,0.54,0,0,0.0*
21,1,0.24,0.70,0,0,0.0*
1,1,0.16,0.12,-0.27*
1,1,0.16,-0.12,-0.27*
1,1,0.16,-0.12,0.27*
1,1,0.16,0.12,0.27*
%
%ADD286ROUNDEDRECTD286*%
G04:AMPARAMS|DCode=287|XSize=0.65mm|YSize=0.9mm|CornerRadius=0.11mm|HoleSize=0mm|Usage=FLASHONLY|Rotation=0.000|XOffset=0mm|YOffset=0mm|HoleType=Round|Shape=RoundedRectangle|*
%AMROUNDEDRECTD287*
21,1,0.65,0.69,0,0,0.0*
21,1,0.44,0.90,0,0,0.0*
1,1,0.21,0.22,-0.35*
1,1,0.21,-0.22,-0.35*
1,1,0.21,-0.22,0.35*
1,1,0.21,0.22,0.35*
%
%ADD287ROUNDEDRECTD287*%
G04:AMPARAMS|DCode=288|XSize=1.75mm|YSize=3.78mm|CornerRadius=0.13mm|HoleSize=0mm|Usage=FLASHONLY|Rotation=270.000|XOffset=0mm|YOffset=0mm|HoleType=Round|Shape=RoundedRectangle|*
%AMROUNDEDRECTD288*
21,1,1.75,3.52,0,0,270.0*
21,1,1.49,3.78,0,0,270.0*
1,1,0.27,-1.76,-0.74*
1,1,0.27,-1.76,0.74*
1,1,0.27,1.76,0.74*
1,1,0.27,1.76,-0.74*
%
%ADD288ROUNDEDRECTD288*%
%ADD289C,0.89*%
G04:AMPARAMS|DCode=290|XSize=1.75mm|YSize=1.4mm|CornerRadius=0.18mm|HoleSize=0mm|Usage=FLASHONLY|Rotation=0.000|XOffset=0mm|YOffset=0mm|HoleType=Round|Shape=RoundedRectangle|*
%AMROUNDEDRECTD290*
21,1,1.75,1.04,0,0,0.0*
21,1,1.39,1.40,0,0,0.0*
1,1,0.36,0.69,-0.52*
1,1,0.36,-0.69,-0.52*
1,1,0.36,-0.69,0.52*
1,1,0.36,0.69,0.52*
%
%ADD290ROUNDEDRECTD290*%
G04:AMPARAMS|DCode=291|XSize=1.5mm|YSize=1.4mm|CornerRadius=0.18mm|HoleSize=0mm|Usage=FLASHONLY|Rotation=180.000|XOffset=0mm|YOffset=0mm|HoleType=Round|Shape=RoundedRectangle|*
%AMROUNDEDRECTD291*
21,1,1.50,1.04,0,0,180.0*
21,1,1.14,1.40,0,0,180.0*
1,1,0.36,-0.57,0.52*
1,1,0.36,0.57,0.52*
1,1,0.36,0.57,-0.52*
1,1,0.36,-0.57,-0.52*
%
%ADD291ROUNDEDRECTD291*%
G04:AMPARAMS|DCode=292|XSize=0.4mm|YSize=1.1mm|CornerRadius=0.08mm|HoleSize=0mm|Usage=FLASHONLY|Rotation=180.000|XOffset=0mm|YOffset=0mm|HoleType=Round|Shape=RoundedRectangle|*
%AMROUNDEDRECTD292*
21,1,0.40,0.94,0,0,180.0*
21,1,0.24,1.10,0,0,180.0*
1,1,0.16,-0.12,0.47*
1,1,0.16,0.12,0.47*
1,1,0.16,0.12,-0.47*
1,1,0.16,-0.12,-0.47*
%
%ADD292ROUNDEDRECTD292*%
G04:AMPARAMS|DCode=293|XSize=0.75mm|YSize=0.8mm|CornerRadius=0.12mm|HoleSize=0mm|Usage=FLASHONLY|Rotation=180.000|XOffset=0mm|YOffset=0mm|HoleType=Round|Shape=RoundedRectangle|*
%AMROUNDEDRECTD293*
21,1,0.75,0.57,0,0,180.0*
21,1,0.52,0.80,0,0,180.0*
1,1,0.23,-0.26,0.28*
1,1,0.23,0.26,0.28*
1,1,0.23,0.26,-0.28*
1,1,0.23,-0.26,-0.28*
%
%ADD293ROUNDEDRECTD293*%
G04:AMPARAMS|DCode=294|XSize=0.55mm|YSize=0.8mm|CornerRadius=0.1mm|HoleSize=0mm|Usage=FLASHONLY|Rotation=180.000|XOffset=0mm|YOffset=0mm|HoleType=Round|Shape=RoundedRectangle|*
%AMROUNDEDRECTD294*
21,1,0.55,0.61,0,0,180.0*
21,1,0.36,0.80,0,0,180.0*
1,1,0.19,-0.18,0.31*
1,1,0.19,0.18,0.31*
1,1,0.19,0.18,-0.31*
1,1,0.19,-0.18,-0.31*
%
%ADD294ROUNDEDRECTD294*%
G04:AMPARAMS|DCode=295|XSize=0.35mm|YSize=0.7mm|CornerRadius=0.08mm|HoleSize=0mm|Usage=FLASHONLY|Rotation=90.000|XOffset=0mm|YOffset=0mm|HoleType=Round|Shape=RoundedRectangle|*
%AMROUNDEDRECTD295*
21,1,0.35,0.55,0,0,90.0*
21,1,0.20,0.70,0,0,90.0*
1,1,0.15,0.28,0.10*
1,1,0.15,0.28,-0.10*
1,1,0.15,-0.28,-0.10*
1,1,0.15,-0.28,0.10*
%
%ADD295ROUNDEDRECTD295*%
G04:AMPARAMS|DCode=296|XSize=0.3mm|YSize=1mm|CornerRadius=0.07mm|HoleSize=0mm|Usage=FLASHONLY|Rotation=0.000|XOffset=0mm|YOffset=0mm|HoleType=Round|Shape=RoundedRectangle|*
%AMROUNDEDRECTD296*
21,1,0.30,0.86,0,0,0.0*
21,1,0.16,1.00,0,0,0.0*
1,1,0.14,0.08,-0.43*
1,1,0.14,-0.08,-0.43*
1,1,0.14,-0.08,0.43*
1,1,0.14,0.08,0.43*
%
%ADD296ROUNDEDRECTD296*%
G04:AMPARAMS|DCode=297|XSize=0.3mm|YSize=0.7mm|CornerRadius=0.07mm|HoleSize=0mm|Usage=FLASHONLY|Rotation=270.000|XOffset=0mm|YOffset=0mm|HoleType=Round|Shape=RoundedRectangle|*
%AMROUNDEDRECTD297*
21,1,0.30,0.56,0,0,270.0*
21,1,0.16,0.70,0,0,270.0*
1,1,0.14,-0.28,-0.08*
1,1,0.14,-0.28,0.08*
1,1,0.14,0.28,0.08*
1,1,0.14,0.28,-0.08*
%
%ADD297ROUNDEDRECTD297*%
G04:AMPARAMS|DCode=298|XSize=0.3mm|YSize=0.7mm|CornerRadius=0.1mm|HoleSize=0mm|Usage=FLASHONLY|Rotation=180.000|XOffset=0mm|YOffset=0mm|HoleType=Round|Shape=RoundedRectangle|*
%AMROUNDEDRECTD298*
21,1,0.30,0.50,0,0,180.0*
21,1,0.10,0.70,0,0,180.0*
1,1,0.20,-0.05,0.25*
1,1,0.20,0.05,0.25*
1,1,0.20,0.05,-0.25*
1,1,0.20,-0.05,-0.25*
%
%ADD298ROUNDEDRECTD298*%
G04:AMPARAMS|DCode=299|XSize=0.3mm|YSize=0.7mm|CornerRadius=0.1mm|HoleSize=0mm|Usage=FLASHONLY|Rotation=270.000|XOffset=0mm|YOffset=0mm|HoleType=Round|Shape=RoundedRectangle|*
%AMROUNDEDRECTD299*
21,1,0.30,0.50,0,0,270.0*
21,1,0.10,0.70,0,0,270.0*
1,1,0.20,-0.25,-0.05*
1,1,0.20,-0.25,0.05*
1,1,0.20,0.25,0.05*
1,1,0.20,0.25,-0.05*
%
%ADD299ROUNDEDRECTD299*%
G04:AMPARAMS|DCode=300|XSize=0.3mm|YSize=0.8mm|CornerRadius=0.1mm|HoleSize=0mm|Usage=FLASHONLY|Rotation=270.000|XOffset=0mm|YOffset=0mm|HoleType=Round|Shape=RoundedRectangle|*
%AMROUNDEDRECTD300*
21,1,0.30,0.60,0,0,270.0*
21,1,0.10,0.80,0,0,270.0*
1,1,0.20,-0.30,-0.05*
1,1,0.20,-0.30,0.05*
1,1,0.20,0.30,0.05*
1,1,0.20,0.30,-0.05*
%
%ADD300ROUNDEDRECTD300*%
G04:AMPARAMS|DCode=301|XSize=1.3mm|YSize=1.2mm|CornerRadius=0.16mm|HoleSize=0mm|Usage=FLASHONLY|Rotation=270.000|XOffset=0mm|YOffset=0mm|HoleType=Round|Shape=RoundedRectangle|*
%AMROUNDEDRECTD301*
21,1,1.30,0.88,0,0,270.0*
21,1,0.98,1.20,0,0,270.0*
1,1,0.32,-0.44,-0.49*
1,1,0.32,-0.44,0.49*
1,1,0.32,0.44,0.49*
1,1,0.32,0.44,-0.49*
%
%ADD301ROUNDEDRECTD301*%
G04:AMPARAMS|DCode=302|XSize=1.35mm|YSize=0.75mm|CornerRadius=0.12mm|HoleSize=0mm|Usage=FLASHONLY|Rotation=180.000|XOffset=0mm|YOffset=0mm|HoleType=Round|Shape=RoundedRectangle|*
%AMROUNDEDRECTD302*
21,1,1.35,0.52,0,0,180.0*
21,1,1.12,0.75,0,0,180.0*
1,1,0.23,-0.56,0.26*
1,1,0.23,0.56,0.26*
1,1,0.23,0.56,-0.26*
1,1,0.23,-0.56,-0.26*
%
%ADD302ROUNDEDRECTD302*%
G04:AMPARAMS|DCode=303|XSize=1.75mm|YSize=3.78mm|CornerRadius=0.22mm|HoleSize=0mm|Usage=FLASHONLY|Rotation=180.000|XOffset=0mm|YOffset=0mm|HoleType=Round|Shape=RoundedRectangle|*
%AMROUNDEDRECTD303*
21,1,1.75,3.35,0,0,180.0*
21,1,1.32,3.78,0,0,180.0*
1,1,0.43,-0.66,1.68*
1,1,0.43,0.66,1.68*
1,1,0.43,0.66,-1.68*
1,1,0.43,-0.66,-1.68*
%
%ADD303ROUNDEDRECTD303*%
G04:AMPARAMS|DCode=304|XSize=0.5mm|YSize=0.58mm|CornerRadius=0.09mm|HoleSize=0mm|Usage=FLASHONLY|Rotation=90.000|XOffset=0mm|YOffset=0mm|HoleType=Round|Shape=RoundedRectangle|*
%AMROUNDEDRECTD304*
21,1,0.50,0.40,0,0,90.0*
21,1,0.32,0.58,0,0,90.0*
1,1,0.18,0.20,0.16*
1,1,0.18,0.20,-0.16*
1,1,0.18,-0.20,-0.16*
1,1,0.18,-0.20,0.16*
%
%ADD304ROUNDEDRECTD304*%
G04:AMPARAMS|DCode=305|XSize=0.95mm|YSize=2.9mm|CornerRadius=0.14mm|HoleSize=0mm|Usage=FLASHONLY|Rotation=180.000|XOffset=0mm|YOffset=0mm|HoleType=Round|Shape=RoundedRectangle|*
%AMROUNDEDRECTD305*
21,1,0.95,2.63,0,0,180.0*
21,1,0.68,2.90,0,0,180.0*
1,1,0.27,-0.34,1.32*
1,1,0.27,0.34,1.32*
1,1,0.27,0.34,-1.32*
1,1,0.27,-0.34,-1.32*
%
%ADD305ROUNDEDRECTD305*%
G04:AMPARAMS|DCode=306|XSize=2.2mm|YSize=1.5mm|CornerRadius=0.19mm|HoleSize=0mm|Usage=FLASHONLY|Rotation=270.000|XOffset=0mm|YOffset=0mm|HoleType=Round|Shape=RoundedRectangle|*
%AMROUNDEDRECTD306*
21,1,2.20,1.12,0,0,270.0*
21,1,1.82,1.50,0,0,270.0*
1,1,0.38,-0.56,-0.91*
1,1,0.38,-0.56,0.91*
1,1,0.38,0.56,0.91*
1,1,0.38,0.56,-0.91*
%
%ADD306ROUNDEDRECTD306*%
G04:AMPARAMS|DCode=307|XSize=0.38mm|YSize=0.95mm|CornerRadius=0.19mm|HoleSize=0mm|Usage=FLASHONLY|Rotation=270.000|XOffset=0mm|YOffset=0mm|HoleType=Round|Shape=RoundedRectangle|*
%AMROUNDEDRECTD307*
21,1,0.38,0.57,0,0,270.0*
21,1,0.00,0.95,0,0,270.0*
1,1,0.38,-0.28,0.00*
1,1,0.38,-0.28,0.00*
1,1,0.38,0.28,0.00*
1,1,0.38,0.28,0.00*
%
%ADD307ROUNDEDRECTD307*%
G04:AMPARAMS|DCode=308|XSize=0.95mm|YSize=0.38mm|CornerRadius=0.19mm|HoleSize=0mm|Usage=FLASHONLY|Rotation=270.000|XOffset=0mm|YOffset=0mm|HoleType=Round|Shape=RoundedRectangle|*
%AMROUNDEDRECTD308*
21,1,0.95,0.00,0,0,270.0*
21,1,0.57,0.38,0,0,270.0*
1,1,0.38,0.00,-0.28*
1,1,0.38,0.00,0.28*
1,1,0.38,0.00,0.28*
1,1,0.38,0.00,-0.28*
%
%ADD308ROUNDEDRECTD308*%
G04:AMPARAMS|DCode=309|XSize=0.28mm|YSize=1.1mm|CornerRadius=0.07mm|HoleSize=0mm|Usage=FLASHONLY|Rotation=270.000|XOffset=0mm|YOffset=0mm|HoleType=Round|Shape=RoundedRectangle|*
%AMROUNDEDRECTD309*
21,1,0.28,0.96,0,0,270.0*
21,1,0.14,1.10,0,0,270.0*
1,1,0.14,-0.48,-0.07*
1,1,0.14,-0.48,0.07*
1,1,0.14,0.48,0.07*
1,1,0.14,0.48,-0.07*
%
%ADD309ROUNDEDRECTD309*%
G04:AMPARAMS|DCode=310|XSize=0.28mm|YSize=1.1mm|CornerRadius=0.07mm|HoleSize=0mm|Usage=FLASHONLY|Rotation=180.000|XOffset=0mm|YOffset=0mm|HoleType=Round|Shape=RoundedRectangle|*
%AMROUNDEDRECTD310*
21,1,0.28,0.96,0,0,180.0*
21,1,0.14,1.10,0,0,180.0*
1,1,0.14,-0.07,0.48*
1,1,0.14,0.07,0.48*
1,1,0.14,0.07,-0.48*
1,1,0.14,-0.07,-0.48*
%
%ADD310ROUNDEDRECTD310*%
G04:AMPARAMS|DCode=311|XSize=1mm|YSize=1.05mm|CornerRadius=0.14mm|HoleSize=0mm|Usage=FLASHONLY|Rotation=0.000|XOffset=0mm|YOffset=0mm|HoleType=Round|Shape=RoundedRectangle|*
%AMROUNDEDRECTD311*
21,1,1.00,0.77,0,0,0.0*
21,1,0.72,1.05,0,0,0.0*
1,1,0.28,0.36,-0.39*
1,1,0.28,-0.36,-0.39*
1,1,0.28,-0.36,0.39*
1,1,0.28,0.36,0.39*
%
%ADD311ROUNDEDRECTD311*%
G04:AMPARAMS|DCode=312|XSize=1mm|YSize=0.5mm|CornerRadius=0.09mm|HoleSize=0mm|Usage=FLASHONLY|Rotation=90.000|XOffset=0mm|YOffset=0mm|HoleType=Round|Shape=RoundedRectangle|*
%AMROUNDEDRECTD312*
21,1,1.00,0.32,0,0,90.0*
21,1,0.82,0.50,0,0,90.0*
1,1,0.18,0.16,0.41*
1,1,0.18,0.16,-0.41*
1,1,0.18,-0.16,-0.41*
1,1,0.18,-0.16,0.41*
%
%ADD312ROUNDEDRECTD312*%
G04:AMPARAMS|DCode=313|XSize=0.4mm|YSize=0.8mm|CornerRadius=0.08mm|HoleSize=0mm|Usage=FLASHONLY|Rotation=270.000|XOffset=0mm|YOffset=0mm|HoleType=Round|Shape=RoundedRectangle|*
%AMROUNDEDRECTD313*
21,1,0.40,0.64,0,0,270.0*
21,1,0.24,0.80,0,0,270.0*
1,1,0.16,-0.32,-0.12*
1,1,0.16,-0.32,0.12*
1,1,0.16,0.32,0.12*
1,1,0.16,0.32,-0.12*
%
%ADD313ROUNDEDRECTD313*%
G04:AMPARAMS|DCode=314|XSize=1.45mm|YSize=1.1mm|CornerRadius=0.15mm|HoleSize=0mm|Usage=FLASHONLY|Rotation=0.000|XOffset=0mm|YOffset=0mm|HoleType=Round|Shape=RoundedRectangle|*
%AMROUNDEDRECTD314*
21,1,1.45,0.80,0,0,0.0*
21,1,1.15,1.10,0,0,0.0*
1,1,0.30,0.58,-0.40*
1,1,0.30,-0.58,-0.40*
1,1,0.30,-0.58,0.40*
1,1,0.30,0.58,0.40*
%
%ADD314ROUNDEDRECTD314*%
G04:AMPARAMS|DCode=315|XSize=0.9mm|YSize=1.1mm|CornerRadius=0.19mm|HoleSize=0mm|Usage=FLASHONLY|Rotation=270.000|XOffset=0mm|YOffset=0mm|HoleType=Round|Shape=RoundedRectangle|*
%AMROUNDEDRECTD315*
21,1,0.90,0.72,0,0,270.0*
21,1,0.52,1.10,0,0,270.0*
1,1,0.38,-0.36,-0.26*
1,1,0.38,-0.36,0.26*
1,1,0.38,0.36,0.26*
1,1,0.38,0.36,-0.26*
%
%ADD315ROUNDEDRECTD315*%
G04:AMPARAMS|DCode=316|XSize=0.8mm|YSize=1.05mm|CornerRadius=0.12mm|HoleSize=0mm|Usage=FLASHONLY|Rotation=270.000|XOffset=0mm|YOffset=0mm|HoleType=Round|Shape=RoundedRectangle|*
%AMROUNDEDRECTD316*
21,1,0.80,0.81,0,0,270.0*
21,1,0.56,1.05,0,0,270.0*
1,1,0.24,-0.41,-0.28*
1,1,0.24,-0.41,0.28*
1,1,0.24,0.41,0.28*
1,1,0.24,0.41,-0.28*
%
%ADD316ROUNDEDRECTD316*%
G04:AMPARAMS|DCode=317|XSize=1.05mm|YSize=0.75mm|CornerRadius=0.12mm|HoleSize=0mm|Usage=FLASHONLY|Rotation=270.000|XOffset=0mm|YOffset=0mm|HoleType=Round|Shape=RoundedRectangle|*
%AMROUNDEDRECTD317*
21,1,1.05,0.52,0,0,270.0*
21,1,0.82,0.75,0,0,270.0*
1,1,0.23,-0.26,-0.41*
1,1,0.23,-0.26,0.41*
1,1,0.23,0.26,0.41*
1,1,0.23,0.26,-0.41*
%
%ADD317ROUNDEDRECTD317*%
G04:AMPARAMS|DCode=318|XSize=2.1mm|YSize=2.05mm|CornerRadius=0.25mm|HoleSize=0mm|Usage=FLASHONLY|Rotation=270.000|XOffset=0mm|YOffset=0mm|HoleType=Round|Shape=RoundedRectangle|*
%AMROUNDEDRECTD318*
21,1,2.10,1.56,0,0,270.0*
21,1,1.61,2.05,0,0,270.0*
1,1,0.49,-0.78,-0.81*
1,1,0.49,-0.78,0.81*
1,1,0.49,0.78,0.81*
1,1,0.49,0.78,-0.81*
%
%ADD318ROUNDEDRECTD318*%
G04:AMPARAMS|DCode=319|XSize=0.77mm|YSize=0.4mm|CornerRadius=0.08mm|HoleSize=0mm|Usage=FLASHONLY|Rotation=0.000|XOffset=0mm|YOffset=0mm|HoleType=Round|Shape=RoundedRectangle|*
%AMROUNDEDRECTD319*
21,1,0.77,0.24,0,0,0.0*
21,1,0.61,0.40,0,0,0.0*
1,1,0.16,0.31,-0.12*
1,1,0.16,-0.31,-0.12*
1,1,0.16,-0.31,0.12*
1,1,0.16,0.31,0.12*
%
%ADD319ROUNDEDRECTD319*%
G04:AMPARAMS|DCode=320|XSize=1.75mm|YSize=3.78mm|CornerRadius=0.38mm|HoleSize=0mm|Usage=FLASHONLY|Rotation=180.000|XOffset=0mm|YOffset=0mm|HoleType=Round|Shape=RoundedRectangle|*
%AMROUNDEDRECTD320*
21,1,1.75,3.02,0,0,180.0*
21,1,0.99,3.78,0,0,180.0*
1,1,0.76,-0.50,1.51*
1,1,0.76,0.50,1.51*
1,1,0.76,0.50,-1.51*
1,1,0.76,-0.50,-1.51*
%
%ADD320ROUNDEDRECTD320*%
G36*
X4956Y750D02*
Y750D01*
X4956D01*
X4956Y750D01*
D02*
G37*
G36*
X4903Y830D02*
X4923Y819D01*
X4939Y803D01*
X4950Y783D01*
X4956Y761D01*
Y750D01*
X4916Y750D01*
X4916Y759D01*
X4909Y776D01*
X4896Y789D01*
X4879Y797D01*
X4861Y797D01*
X4844Y789D01*
X4831Y776D01*
X4824Y759D01*
X4824Y750D01*
X4784Y750D01*
X4784Y761D01*
X4790Y783D01*
X4801Y803D01*
X4817Y819D01*
X4837Y830D01*
X4859Y836D01*
X4881Y836D01*
X4903Y830D01*
D02*
G37*
G36*
X4956Y739D02*
X4950Y717D01*
X4939Y697D01*
X4923Y681D01*
X4903Y670D01*
X4881Y664D01*
X4859Y664D01*
X4837Y670D01*
X4817Y681D01*
X4801Y697D01*
X4790Y717D01*
X4784Y739D01*
Y750D01*
X4784D01*
X4824Y750D01*
X4824Y741D01*
X4831Y724D01*
X4844Y711D01*
X4861Y703D01*
X4879Y703D01*
X4896Y711D01*
X4909Y724D01*
X4916Y741D01*
X4916Y750D01*
X4916Y750D01*
X4956Y750D01*
X4956Y739D01*
D02*
G37*
G36*
X4129Y762D02*
X4151Y749D01*
X4170Y731D01*
X4183Y708D01*
X4190Y682D01*
Y669D01*
Y656D01*
X4183Y631D01*
X4170Y608D01*
X4151Y589D01*
X4129Y576D01*
X4103Y569D01*
X4077D01*
X4051Y576D01*
X4029Y589D01*
X4010Y608D01*
X3997Y631D01*
X3990Y656D01*
Y669D01*
Y682D01*
X3997Y708D01*
X4010Y731D01*
X4029Y749D01*
X4051Y762D01*
X4077Y769D01*
X4103D01*
X4129Y762D01*
D02*
G37*
G36*
X2002Y298D02*
X1974Y298D01*
X1956Y316D01*
X1956Y333D01*
X2002Y333D01*
Y298D01*
D02*
G37*
G36*
X1924Y333D02*
X1924Y316D01*
X1906Y298D01*
X1877Y298D01*
Y333D01*
X1924Y333D01*
D02*
G37*
G36*
X2002Y262D02*
Y227D01*
X1956Y227D01*
X1956Y244D01*
X1974Y262D01*
X2002Y262D01*
D02*
G37*
G36*
X1924Y244D02*
X1924Y227D01*
X1877Y227D01*
Y262D01*
X1906Y262D01*
X1924Y244D01*
D02*
G37*
G36*
X1450Y1919D02*
Y1932D01*
X1443Y1958D01*
X1430Y1981D01*
X1411Y1999D01*
X1389Y2012D01*
X1363Y2019D01*
X1337D01*
X1311Y2012D01*
X1289Y1999D01*
X1270Y1981D01*
X1257Y1958D01*
X1250Y1932D01*
Y1919D01*
Y1906D01*
X1257Y1881D01*
X1270Y1858D01*
X1289Y1839D01*
X1311Y1826D01*
X1337Y1819D01*
X1363D01*
X1389Y1826D01*
X1411Y1839D01*
X1430Y1858D01*
X1443Y1881D01*
X1450Y1906D01*
Y1919D01*
D01*
D02*
G37*
G36*
X985Y3275D02*
X547Y3275D01*
X545D01*
X540Y3277D01*
X537Y3280D01*
X535Y3285D01*
X535Y3287D01*
X535Y3287D01*
X535Y3345D01*
X535Y3347D01*
X537Y3352D01*
X540Y3356D01*
X545Y3357D01*
X547Y3357D01*
X547Y3357D01*
X587Y3357D01*
X588Y3358D01*
X590Y3358D01*
X592Y3360D01*
X592Y3362D01*
X592Y3362D01*
X592Y3362D01*
X592Y3405D01*
X592Y3406D01*
X592Y3408D01*
X590Y3409D01*
X588Y3410D01*
X588Y3410D01*
X588Y3410D01*
X548Y3410D01*
X545Y3410D01*
X540Y3412D01*
X537Y3415D01*
X535Y3420D01*
X535Y3423D01*
X535Y3423D01*
X535Y3482D01*
X535Y3485D01*
X537Y3490D01*
X540Y3493D01*
X545Y3495D01*
X548Y3495D01*
Y3495D01*
X985Y3495D01*
X987Y3495D01*
X991Y3493D01*
X993Y3491D01*
X995Y3487D01*
X995Y3485D01*
X995Y3485D01*
X995Y3285D01*
X995Y3283D01*
X993Y3279D01*
X991Y3277D01*
X987Y3275D01*
X985Y3275D01*
X985Y3275D01*
D02*
G37*
G36*
Y3745D02*
X547Y3745D01*
X545D01*
X540Y3743D01*
X537Y3740D01*
X535Y3735D01*
X535Y3733D01*
X535Y3733D01*
X535Y3675D01*
X535Y3673D01*
X537Y3668D01*
X540Y3664D01*
X545Y3663D01*
X547Y3663D01*
X547Y3663D01*
X587Y3663D01*
X588Y3662D01*
X590Y3662D01*
X592Y3660D01*
X592Y3658D01*
X592Y3658D01*
X592Y3658D01*
X592Y3615D01*
X592Y3614D01*
X592Y3612D01*
X590Y3611D01*
X588Y3610D01*
X588Y3610D01*
X588D01*
X548Y3610D01*
X545Y3610D01*
X540Y3608D01*
X537Y3605D01*
X535Y3600D01*
X535Y3597D01*
X535Y3597D01*
X535Y3538D01*
X535Y3535D01*
X537Y3530D01*
X540Y3527D01*
X545Y3525D01*
X548Y3525D01*
D01*
X985Y3525D01*
X987Y3525D01*
X991Y3527D01*
X993Y3529D01*
X995Y3533D01*
X995Y3535D01*
X995Y3535D01*
X995Y3735D01*
X995Y3737D01*
X993Y3741D01*
X991Y3743D01*
X987Y3745D01*
X985Y3745D01*
X985Y3745D01*
D02*
G37*
G36*
Y3835D02*
X547Y3835D01*
X545D01*
X540Y3837D01*
X537Y3840D01*
X535Y3845D01*
X535Y3847D01*
X535Y3847D01*
X535Y3905D01*
X535Y3907D01*
X537Y3912D01*
X540Y3916D01*
X545Y3917D01*
X547Y3917D01*
X547Y3917D01*
X587Y3917D01*
X588Y3918D01*
X590Y3918D01*
X592Y3920D01*
X592Y3922D01*
X592Y3922D01*
X592Y3922D01*
X592Y3965D01*
X592Y3966D01*
X592Y3968D01*
X590Y3969D01*
X588Y3970D01*
X588Y3970D01*
X588Y3970D01*
X548Y3970D01*
X545Y3970D01*
X540Y3972D01*
X537Y3975D01*
X535Y3980D01*
X535Y3983D01*
X535Y3983D01*
X535Y4042D01*
X535Y4045D01*
X537Y4050D01*
X540Y4053D01*
X545Y4055D01*
X548Y4055D01*
Y4055D01*
X985Y4055D01*
X987Y4055D01*
X991Y4053D01*
X993Y4051D01*
X995Y4047D01*
X995Y4045D01*
X995Y4045D01*
X995Y3845D01*
X995Y3843D01*
X993Y3839D01*
X991Y3837D01*
X987Y3835D01*
X985Y3835D01*
X985Y3835D01*
D02*
G37*
G36*
Y4865D02*
X985Y4865D01*
X987Y4865D01*
X991Y4863D01*
X993Y4861D01*
X995Y4857D01*
X995Y4855D01*
X995Y4655D01*
X995Y4655D01*
X995Y4653D01*
X993Y4649D01*
X991Y4647D01*
X987Y4645D01*
X985Y4645D01*
X548Y4645D01*
X545Y4645D01*
X540Y4647D01*
X537Y4650D01*
X535Y4655D01*
X535Y4658D01*
X535Y4717D01*
X535Y4717D01*
X535Y4720D01*
X537Y4725D01*
X540Y4728D01*
X545Y4730D01*
X548Y4730D01*
X588Y4730D01*
X588D01*
X588Y4730D01*
X590Y4731D01*
X592Y4732D01*
X592Y4734D01*
X592Y4735D01*
X592Y4778D01*
X592Y4778D01*
X592Y4778D01*
X592Y4780D01*
X590Y4782D01*
X588Y4782D01*
X587Y4783D01*
X547Y4783D01*
X547Y4783D01*
X545Y4783D01*
X540Y4784D01*
X537Y4788D01*
X535Y4793D01*
X535Y4795D01*
X535Y4853D01*
X535Y4853D01*
X535Y4855D01*
X537Y4860D01*
X540Y4863D01*
X545Y4865D01*
X547D01*
X985Y4865D01*
D02*
G37*
G36*
X3099Y4842D02*
X3121Y4829D01*
X3140Y4811D01*
X3153Y4788D01*
X3160Y4762D01*
Y4749D01*
Y4736D01*
X3153Y4711D01*
X3140Y4688D01*
X3121Y4669D01*
X3099Y4656D01*
X3073Y4649D01*
X3047D01*
X3021Y4656D01*
X2999Y4669D01*
X2980Y4688D01*
X2967Y4711D01*
X2960Y4736D01*
Y4749D01*
Y4762D01*
X2967Y4788D01*
X2980Y4811D01*
X2999Y4829D01*
X3021Y4842D01*
X3047Y4849D01*
X3073D01*
X3099Y4842D01*
D02*
G37*
G36*
X548Y4615D02*
Y4615D01*
X985Y4615D01*
X987Y4615D01*
X991Y4613D01*
X993Y4611D01*
X995Y4607D01*
X995Y4605D01*
X995Y4605D01*
X995Y4405D01*
X995Y4403D01*
X993Y4399D01*
X991Y4397D01*
X987Y4395D01*
X985Y4395D01*
X985Y4395D01*
X547Y4395D01*
X545D01*
X540Y4397D01*
X537Y4400D01*
X535Y4405D01*
X535Y4407D01*
X535Y4407D01*
X535Y4465D01*
X535Y4467D01*
X537Y4472D01*
X540Y4476D01*
X545Y4477D01*
X547Y4477D01*
X547Y4477D01*
X587Y4477D01*
X588Y4478D01*
X590Y4478D01*
X592Y4480D01*
X592Y4482D01*
X592Y4482D01*
X592Y4482D01*
X592Y4525D01*
X592Y4526D01*
X592Y4528D01*
X590Y4529D01*
X588Y4530D01*
X588Y4530D01*
X588Y4530D01*
X548Y4530D01*
X545Y4530D01*
X540Y4532D01*
X537Y4535D01*
X535Y4540D01*
X535Y4543D01*
X535Y4542D01*
X535Y4602D01*
X535Y4605D01*
X537Y4610D01*
X540Y4613D01*
X545Y4615D01*
X548Y4615D01*
D02*
G37*
G36*
X985Y4305D02*
X985Y4305D01*
X987Y4305D01*
X991Y4303D01*
X993Y4301D01*
X995Y4297D01*
X995Y4295D01*
X995Y4095D01*
X995Y4095D01*
X995Y4093D01*
X993Y4089D01*
X991Y4087D01*
X987Y4085D01*
X985Y4085D01*
X548Y4085D01*
X545Y4085D01*
X540Y4087D01*
X537Y4090D01*
X535Y4095D01*
X535Y4098D01*
X535Y4157D01*
X535Y4157D01*
X535Y4160D01*
X537Y4165D01*
X540Y4168D01*
X545Y4170D01*
X548Y4170D01*
X588Y4170D01*
X588D01*
X588Y4170D01*
X590Y4171D01*
X592Y4172D01*
X592Y4174D01*
X592Y4175D01*
X592Y4218D01*
X592Y4218D01*
X592Y4218D01*
X592Y4220D01*
X590Y4222D01*
X588Y4222D01*
X587Y4223D01*
X547Y4223D01*
X547Y4223D01*
X545Y4223D01*
X540Y4224D01*
X537Y4228D01*
X535Y4233D01*
X535Y4235D01*
X535Y4293D01*
X535Y4293D01*
X535Y4295D01*
X537Y4300D01*
X540Y4303D01*
X545Y4305D01*
X547D01*
X985Y4305D01*
D02*
G37*
G36*
X14171Y468D02*
X14174Y468D01*
X14178Y467D01*
X14181Y466D01*
X14183Y465D01*
X14185Y464D01*
X14187Y464D01*
X14187Y463D01*
X14190Y461D01*
X14193Y459D01*
X14196Y457D01*
X14198Y454D01*
X14199Y453D01*
X14201Y451D01*
X14201Y450D01*
X14202Y449D01*
Y466D01*
X14219D01*
Y350D01*
X14199D01*
Y410D01*
X14199Y416D01*
X14199Y421D01*
X14199Y425D01*
X14198Y428D01*
X14197Y431D01*
X14197Y433D01*
X14196Y434D01*
X14196Y434D01*
X14195Y437D01*
X14193Y440D01*
X14192Y442D01*
X14190Y444D01*
X14188Y445D01*
X14187Y446D01*
X14186Y447D01*
X14186Y447D01*
X14183Y449D01*
X14181Y450D01*
X14178Y450D01*
X14176Y451D01*
X14174Y451D01*
X14172Y452D01*
X14171D01*
X14167Y451D01*
X14164Y451D01*
X14161Y449D01*
X14159Y448D01*
X14157Y447D01*
X14156Y446D01*
X14155Y445D01*
X14155Y445D01*
X14153Y442D01*
X14152Y439D01*
X14151Y436D01*
X14151Y433D01*
X14150Y430D01*
X14150Y427D01*
Y426D01*
Y426D01*
Y425D01*
Y425D01*
Y350D01*
X14131D01*
Y417D01*
X14130Y424D01*
X14129Y429D01*
X14128Y433D01*
X14126Y437D01*
X14125Y440D01*
X14124Y442D01*
X14123Y443D01*
X14122Y443D01*
X14119Y446D01*
X14116Y448D01*
X14112Y449D01*
X14109Y451D01*
X14106Y451D01*
X14104Y451D01*
X14103Y452D01*
X14102D01*
X14099Y451D01*
X14097Y451D01*
X14095Y451D01*
X14093Y450D01*
X14092Y449D01*
X14091Y449D01*
X14090Y449D01*
X14090Y448D01*
X14088Y447D01*
X14087Y446D01*
X14086Y444D01*
X14085Y443D01*
X14084Y442D01*
X14084Y441D01*
X14083Y440D01*
Y440D01*
X14082Y438D01*
X14082Y435D01*
X14082Y432D01*
X14081Y429D01*
X14081Y427D01*
Y425D01*
Y423D01*
Y423D01*
Y423D01*
Y350D01*
X14062D01*
Y430D01*
Y433D01*
X14062Y437D01*
X14062Y440D01*
X14063Y443D01*
X14064Y445D01*
X14065Y448D01*
X14065Y450D01*
X14066Y452D01*
X14067Y453D01*
X14068Y455D01*
X14069Y457D01*
X14070Y459D01*
X14071Y459D01*
X14075Y462D01*
X14079Y465D01*
X14083Y466D01*
X14087Y468D01*
X14091Y468D01*
X14093Y468D01*
X14095D01*
X14096Y469D01*
X14097D01*
X14102Y468D01*
X14105Y468D01*
X14109Y467D01*
X14112Y465D01*
X14116Y464D01*
X14119Y462D01*
X14121Y460D01*
X14124Y459D01*
X14126Y456D01*
X14128Y455D01*
X14130Y453D01*
X14131Y451D01*
X14132Y450D01*
X14133Y449D01*
X14133Y448D01*
X14134Y448D01*
X14135Y452D01*
X14137Y455D01*
X14139Y457D01*
X14141Y459D01*
X14143Y461D01*
X14144Y462D01*
X14145Y463D01*
X14145Y463D01*
X14149Y465D01*
X14152Y466D01*
X14155Y467D01*
X14159Y468D01*
X14162Y468D01*
X14164Y469D01*
X14166D01*
X14171Y468D01*
D02*
G37*
G36*
X14465Y495D02*
Y466D01*
X14479D01*
Y451D01*
X14465D01*
Y384D01*
Y381D01*
Y378D01*
X14464Y375D01*
X14464Y373D01*
Y371D01*
X14464Y369D01*
X14463Y366D01*
X14463Y363D01*
X14463Y362D01*
X14462Y361D01*
Y361D01*
X14461Y359D01*
X14460Y357D01*
X14459Y355D01*
X14457Y354D01*
X14456Y353D01*
X14455Y352D01*
X14454Y352D01*
X14454Y352D01*
X14452Y350D01*
X14449Y350D01*
X14446Y349D01*
X14444Y349D01*
X14441Y349D01*
X14439Y348D01*
X14438D01*
X14432Y349D01*
X14430Y349D01*
X14428Y349D01*
X14426Y350D01*
X14424Y350D01*
X14423Y350D01*
X14423D01*
X14425Y367D01*
X14427Y367D01*
X14429Y367D01*
X14430D01*
X14432Y367D01*
X14434D01*
X14437Y367D01*
X14439Y367D01*
X14440Y368D01*
X14441Y368D01*
X14442Y369D01*
X14443Y370D01*
X14444Y371D01*
X14444Y372D01*
X14444Y373D01*
X14445Y375D01*
X14445Y378D01*
X14445Y380D01*
Y381D01*
Y382D01*
Y383D01*
Y451D01*
X14425D01*
Y466D01*
X14445D01*
Y507D01*
X14465Y495D01*
D02*
G37*
G36*
X14402D02*
Y466D01*
X14417D01*
Y451D01*
X14402D01*
Y384D01*
Y381D01*
Y378D01*
X14402Y375D01*
X14402Y373D01*
Y371D01*
X14402Y369D01*
X14401Y366D01*
X14401Y363D01*
X14401Y362D01*
X14400Y361D01*
Y361D01*
X14399Y359D01*
X14398Y357D01*
X14396Y355D01*
X14395Y354D01*
X14394Y353D01*
X14393Y352D01*
X14392Y352D01*
X14392Y352D01*
X14389Y350D01*
X14387Y350D01*
X14384Y349D01*
X14381Y349D01*
X14379Y349D01*
X14377Y348D01*
X14375D01*
X14370Y349D01*
X14368Y349D01*
X14365Y349D01*
X14363Y350D01*
X14362Y350D01*
X14361Y350D01*
X14360D01*
X14363Y367D01*
X14365Y367D01*
X14367Y367D01*
X14368D01*
X14369Y367D01*
X14372D01*
X14375Y367D01*
X14377Y367D01*
X14378Y368D01*
X14378Y368D01*
X14380Y369D01*
X14381Y370D01*
X14382Y371D01*
X14382Y372D01*
X14382Y373D01*
X14382Y375D01*
X14382Y378D01*
X14383Y380D01*
Y381D01*
Y382D01*
Y383D01*
Y451D01*
X14363D01*
Y466D01*
X14383D01*
Y507D01*
X14402Y495D01*
D02*
G37*
G36*
X13479Y468D02*
X13483Y468D01*
X13487Y467D01*
X13491Y466D01*
X13494Y465D01*
X13498Y464D01*
X13501Y462D01*
X13503Y461D01*
X13506Y459D01*
X13508Y458D01*
X13510Y456D01*
X13511Y455D01*
X13512Y454D01*
X13513Y453D01*
X13514Y453D01*
X13514Y453D01*
X13516Y449D01*
X13519Y446D01*
X13521Y442D01*
X13523Y439D01*
X13524Y435D01*
X13525Y431D01*
X13527Y424D01*
X13528Y420D01*
X13528Y417D01*
X13528Y414D01*
X13529Y412D01*
X13529Y410D01*
Y408D01*
Y407D01*
Y407D01*
X13529Y402D01*
X13528Y397D01*
X13527Y392D01*
X13527Y388D01*
X13525Y384D01*
X13524Y381D01*
X13523Y377D01*
X13521Y374D01*
X13520Y372D01*
X13519Y369D01*
X13518Y368D01*
X13516Y366D01*
X13515Y365D01*
X13515Y364D01*
X13514Y363D01*
X13514Y363D01*
X13511Y360D01*
X13508Y358D01*
X13505Y356D01*
X13501Y354D01*
X13498Y353D01*
X13495Y351D01*
X13488Y349D01*
X13485Y349D01*
X13482Y348D01*
X13480Y348D01*
X13478Y348D01*
X13476Y347D01*
X13474D01*
X13466Y348D01*
X13460Y349D01*
X13454Y350D01*
X13452Y351D01*
X13450Y352D01*
X13447Y353D01*
X13446Y354D01*
X13444Y355D01*
X13443Y356D01*
X13442Y356D01*
X13441Y357D01*
X13441Y357D01*
X13440D01*
X13436Y361D01*
X13432Y366D01*
X13429Y370D01*
X13427Y375D01*
X13425Y379D01*
X13424Y381D01*
X13423Y382D01*
X13423Y383D01*
X13423Y384D01*
X13422Y385D01*
Y385D01*
X13443Y387D01*
X13445Y383D01*
X13447Y379D01*
X13449Y376D01*
X13451Y374D01*
X13452Y372D01*
X13454Y370D01*
X13455Y369D01*
X13455Y369D01*
X13458Y367D01*
X13461Y366D01*
X13464Y365D01*
X13467Y364D01*
X13470Y364D01*
X13472Y364D01*
X13474D01*
X13476Y364D01*
X13479Y364D01*
X13484Y365D01*
X13488Y367D01*
X13491Y369D01*
X13494Y370D01*
X13496Y372D01*
X13498Y373D01*
X13498Y374D01*
X13498D01*
X13501Y378D01*
X13504Y382D01*
X13506Y387D01*
X13507Y392D01*
X13508Y396D01*
X13508Y398D01*
X13509Y400D01*
Y401D01*
X13509Y402D01*
Y403D01*
Y403D01*
X13422D01*
X13422Y405D01*
Y407D01*
Y408D01*
Y408D01*
X13422Y413D01*
X13422Y418D01*
X13423Y423D01*
X13424Y427D01*
X13425Y431D01*
X13426Y435D01*
X13428Y438D01*
X13429Y441D01*
X13431Y444D01*
X13432Y446D01*
X13433Y448D01*
X13434Y450D01*
X13435Y451D01*
X13436Y452D01*
X13436Y453D01*
X13437Y453D01*
X13439Y456D01*
X13442Y458D01*
X13446Y460D01*
X13449Y462D01*
X13452Y464D01*
X13455Y465D01*
X13458Y466D01*
X13461Y467D01*
X13464Y467D01*
X13467Y468D01*
X13469Y468D01*
X13471Y468D01*
X13472Y469D01*
X13475D01*
X13479Y468D01*
D02*
G37*
G36*
X14740Y350D02*
X14679D01*
X14673Y350D01*
X14668Y350D01*
X14664Y351D01*
X14660Y351D01*
X14657Y352D01*
X14655Y352D01*
X14654Y353D01*
X14653D01*
X14649Y354D01*
X14646Y355D01*
X14643Y356D01*
X14641Y358D01*
X14638Y359D01*
X14637Y359D01*
X14636Y360D01*
X14636Y360D01*
X14633Y362D01*
X14631Y365D01*
X14629Y368D01*
X14627Y370D01*
X14626Y372D01*
X14625Y374D01*
X14624Y375D01*
X14624Y375D01*
X14622Y379D01*
X14621Y383D01*
X14620Y386D01*
X14620Y390D01*
X14619Y392D01*
X14619Y395D01*
Y396D01*
Y396D01*
Y397D01*
X14619Y402D01*
X14620Y406D01*
X14622Y410D01*
X14623Y414D01*
X14624Y417D01*
X14626Y419D01*
X14627Y420D01*
X14627Y421D01*
X14630Y424D01*
X14634Y427D01*
X14637Y430D01*
X14641Y432D01*
X14644Y434D01*
X14647Y434D01*
X14648Y435D01*
X14649Y435D01*
X14649Y435D01*
X14649D01*
X14645Y438D01*
X14642Y440D01*
X14639Y443D01*
X14637Y445D01*
X14635Y447D01*
X14634Y449D01*
X14633Y449D01*
X14633Y450D01*
X14631Y453D01*
X14629Y457D01*
X14628Y460D01*
X14628Y463D01*
X14627Y465D01*
X14627Y468D01*
Y469D01*
Y469D01*
X14627Y473D01*
X14628Y477D01*
X14629Y481D01*
X14630Y484D01*
X14631Y487D01*
X14632Y488D01*
X14633Y490D01*
X14633Y490D01*
X14636Y494D01*
X14639Y497D01*
X14642Y499D01*
X14644Y502D01*
X14647Y503D01*
X14649Y504D01*
X14650Y505D01*
X14650Y505D01*
X14651D01*
X14655Y507D01*
X14660Y508D01*
X14665Y509D01*
X14669Y509D01*
X14674Y510D01*
X14675D01*
X14677Y510D01*
X14740D01*
Y350D01*
D02*
G37*
G36*
X13697D02*
X13677D01*
Y510D01*
X13697D01*
Y350D01*
D02*
G37*
G36*
X13358Y468D02*
X13360Y468D01*
X13362Y467D01*
X13364Y467D01*
X13366Y466D01*
X13367Y465D01*
X13368Y465D01*
X13368Y465D01*
X13370Y463D01*
X13372Y460D01*
X13374Y458D01*
X13376Y455D01*
X13378Y453D01*
X13379Y450D01*
X13380Y449D01*
X13380Y449D01*
Y466D01*
X13398D01*
Y350D01*
X13378D01*
Y411D01*
X13378Y415D01*
X13378Y419D01*
X13377Y423D01*
X13377Y427D01*
X13376Y430D01*
X13375Y432D01*
X13375Y433D01*
X13375Y434D01*
X13374Y436D01*
X13373Y438D01*
X13372Y440D01*
X13371Y442D01*
X13369Y443D01*
X13369Y444D01*
X13368Y444D01*
X13368Y444D01*
X13366Y446D01*
X13364Y447D01*
X13362Y447D01*
X13360Y448D01*
X13359Y448D01*
X13357Y448D01*
X13356D01*
X13354Y448D01*
X13351Y448D01*
X13349Y447D01*
X13347Y446D01*
X13345Y446D01*
X13343Y445D01*
X13342Y444D01*
X13342Y444D01*
X13335Y462D01*
X13339Y464D01*
X13343Y466D01*
X13346Y467D01*
X13349Y468D01*
X13351Y468D01*
X13353Y469D01*
X13355D01*
X13358Y468D01*
D02*
G37*
G36*
X14549D02*
X14553Y468D01*
X14560Y467D01*
X14566Y465D01*
X14569Y463D01*
X14572Y462D01*
X14574Y461D01*
X14576Y460D01*
X14578Y459D01*
X14579Y458D01*
X14580Y457D01*
X14581Y456D01*
X14582Y456D01*
X14582Y456D01*
X14585Y453D01*
X14588Y449D01*
X14590Y446D01*
X14592Y442D01*
X14594Y438D01*
X14595Y434D01*
X14597Y430D01*
X14597Y426D01*
X14598Y422D01*
X14599Y419D01*
X14599Y416D01*
X14600Y413D01*
Y411D01*
X14600Y409D01*
Y409D01*
Y408D01*
X14600Y403D01*
X14599Y398D01*
X14598Y393D01*
X14597Y389D01*
X14596Y385D01*
X14595Y381D01*
X14594Y378D01*
X14592Y375D01*
X14591Y372D01*
X14590Y369D01*
X14588Y368D01*
X14587Y366D01*
X14586Y365D01*
X14586Y364D01*
X14585Y363D01*
X14585Y363D01*
X14582Y360D01*
X14579Y358D01*
X14576Y356D01*
X14572Y354D01*
X14569Y353D01*
X14566Y351D01*
X14560Y349D01*
X14557Y349D01*
X14554Y348D01*
X14552Y348D01*
X14550Y348D01*
X14548Y347D01*
X14545D01*
X14540Y348D01*
X14535Y349D01*
X14530Y350D01*
X14526Y351D01*
X14522Y352D01*
X14521Y353D01*
X14520Y353D01*
X14519Y354D01*
X14518Y354D01*
X14518Y354D01*
X14518D01*
X14513Y357D01*
X14509Y361D01*
X14506Y364D01*
X14503Y367D01*
X14501Y370D01*
X14499Y372D01*
X14499Y373D01*
X14498Y374D01*
X14498Y374D01*
Y374D01*
X14496Y380D01*
X14494Y385D01*
X14493Y391D01*
X14492Y397D01*
X14491Y400D01*
Y402D01*
X14491Y404D01*
X14491Y406D01*
Y408D01*
Y409D01*
Y409D01*
Y410D01*
X14491Y415D01*
X14492Y419D01*
X14492Y424D01*
X14493Y428D01*
X14494Y432D01*
X14496Y435D01*
X14497Y439D01*
X14499Y442D01*
X14500Y444D01*
X14501Y446D01*
X14503Y449D01*
X14504Y450D01*
X14505Y451D01*
X14506Y452D01*
X14506Y453D01*
X14506Y453D01*
X14509Y456D01*
X14512Y458D01*
X14516Y460D01*
X14519Y462D01*
X14522Y464D01*
X14525Y465D01*
X14532Y467D01*
X14535Y467D01*
X14537Y468D01*
X14539Y468D01*
X14541Y468D01*
X14543Y469D01*
X14545D01*
X14549Y468D01*
D02*
G37*
G36*
X14300D02*
X14304Y468D01*
X14311Y467D01*
X14317Y465D01*
X14320Y463D01*
X14323Y462D01*
X14325Y461D01*
X14327Y460D01*
X14329Y459D01*
X14330Y458D01*
X14331Y457D01*
X14332Y456D01*
X14333Y456D01*
X14333Y456D01*
X14336Y453D01*
X14339Y449D01*
X14341Y446D01*
X14343Y442D01*
X14345Y438D01*
X14346Y434D01*
X14348Y430D01*
X14348Y426D01*
X14349Y422D01*
X14350Y419D01*
X14350Y416D01*
X14351Y413D01*
Y411D01*
X14351Y409D01*
Y409D01*
Y408D01*
X14351Y403D01*
X14350Y398D01*
X14349Y393D01*
X14348Y389D01*
X14347Y385D01*
X14346Y381D01*
X14345Y378D01*
X14343Y375D01*
X14342Y372D01*
X14341Y369D01*
X14339Y368D01*
X14338Y366D01*
X14337Y365D01*
X14337Y364D01*
X14336Y363D01*
X14336Y363D01*
X14333Y360D01*
X14330Y358D01*
X14327Y356D01*
X14323Y354D01*
X14320Y353D01*
X14317Y351D01*
X14311Y349D01*
X14308Y349D01*
X14305Y348D01*
X14303Y348D01*
X14301Y348D01*
X14299Y347D01*
X14296D01*
X14291Y348D01*
X14286Y349D01*
X14281Y350D01*
X14277Y351D01*
X14274Y352D01*
X14272Y353D01*
X14271Y353D01*
X14270Y354D01*
X14269Y354D01*
X14269Y354D01*
X14269D01*
X14264Y357D01*
X14260Y361D01*
X14257Y364D01*
X14254Y367D01*
X14252Y370D01*
X14250Y372D01*
X14250Y373D01*
X14249Y374D01*
X14249Y374D01*
Y374D01*
X14247Y380D01*
X14245Y385D01*
X14244Y391D01*
X14243Y397D01*
X14243Y400D01*
Y402D01*
X14242Y404D01*
X14242Y406D01*
Y408D01*
Y409D01*
Y409D01*
Y410D01*
X14242Y415D01*
X14243Y419D01*
X14243Y424D01*
X14244Y428D01*
X14246Y432D01*
X14247Y435D01*
X14248Y439D01*
X14250Y442D01*
X14251Y444D01*
X14252Y446D01*
X14254Y449D01*
X14255Y450D01*
X14256Y451D01*
X14257Y452D01*
X14257Y453D01*
X14257Y453D01*
X14260Y456D01*
X14263Y458D01*
X14267Y460D01*
X14270Y462D01*
X14273Y464D01*
X14276Y465D01*
X14283Y467D01*
X14286Y467D01*
X14288Y468D01*
X14290Y468D01*
X14292Y468D01*
X14294Y469D01*
X14296D01*
X14300Y468D01*
D02*
G37*
G36*
X13778D02*
X13782Y468D01*
X13789Y467D01*
X13795Y465D01*
X13798Y463D01*
X13800Y462D01*
X13803Y461D01*
X13804Y460D01*
X13806Y459D01*
X13808Y458D01*
X13809Y457D01*
X13810Y456D01*
X13810Y456D01*
X13810Y456D01*
X13814Y453D01*
X13816Y449D01*
X13819Y446D01*
X13821Y442D01*
X13823Y438D01*
X13824Y434D01*
X13825Y430D01*
X13826Y426D01*
X13827Y422D01*
X13827Y419D01*
X13828Y416D01*
X13828Y413D01*
Y411D01*
X13828Y409D01*
Y409D01*
Y408D01*
X13828Y403D01*
X13828Y398D01*
X13827Y393D01*
X13826Y389D01*
X13825Y385D01*
X13824Y381D01*
X13822Y378D01*
X13821Y375D01*
X13820Y372D01*
X13818Y369D01*
X13817Y368D01*
X13816Y366D01*
X13815Y365D01*
X13814Y364D01*
X13814Y363D01*
X13813Y363D01*
X13810Y360D01*
X13807Y358D01*
X13804Y356D01*
X13801Y354D01*
X13798Y353D01*
X13794Y351D01*
X13788Y349D01*
X13785Y349D01*
X13782Y348D01*
X13780Y348D01*
X13778Y348D01*
X13776Y347D01*
X13774D01*
X13768Y348D01*
X13763Y349D01*
X13758Y350D01*
X13754Y351D01*
X13751Y352D01*
X13750Y353D01*
X13748Y353D01*
X13747Y354D01*
X13747Y354D01*
X13746Y354D01*
X13746D01*
X13742Y357D01*
X13738Y361D01*
X13734Y364D01*
X13731Y367D01*
X13729Y370D01*
X13728Y372D01*
X13727Y373D01*
X13727Y374D01*
X13726Y374D01*
Y374D01*
X13724Y380D01*
X13723Y385D01*
X13721Y391D01*
X13720Y397D01*
X13720Y400D01*
Y402D01*
X13720Y404D01*
X13720Y406D01*
Y408D01*
Y409D01*
Y409D01*
Y410D01*
X13720Y415D01*
X13720Y419D01*
X13721Y424D01*
X13722Y428D01*
X13723Y432D01*
X13724Y435D01*
X13726Y439D01*
X13727Y442D01*
X13729Y444D01*
X13730Y446D01*
X13731Y449D01*
X13733Y450D01*
X13733Y451D01*
X13734Y452D01*
X13735Y453D01*
X13735Y453D01*
X13738Y456D01*
X13741Y458D01*
X13744Y460D01*
X13747Y462D01*
X13751Y464D01*
X13754Y465D01*
X13760Y467D01*
X13763Y467D01*
X13766Y468D01*
X13768Y468D01*
X13770Y468D01*
X13772Y469D01*
X13774D01*
X13778Y468D01*
D02*
G37*
G36*
X13573Y453D02*
X13575Y455D01*
X13577Y457D01*
X13580Y459D01*
X13582Y461D01*
X13584Y462D01*
X13585Y463D01*
X13586Y464D01*
X13587Y464D01*
X13590Y466D01*
X13593Y467D01*
X13596Y468D01*
X13599Y468D01*
X13602Y468D01*
X13603Y469D01*
X13605D01*
X13610Y468D01*
X13615Y468D01*
X13620Y466D01*
X13623Y465D01*
X13627Y463D01*
X13629Y462D01*
X13630Y462D01*
X13630Y461D01*
X13631Y461D01*
X13631D01*
X13635Y458D01*
X13639Y454D01*
X13642Y451D01*
X13644Y447D01*
X13646Y444D01*
X13647Y442D01*
X13648Y441D01*
X13648Y440D01*
X13648Y440D01*
Y439D01*
X13650Y434D01*
X13652Y428D01*
X13653Y423D01*
X13653Y418D01*
X13654Y414D01*
Y412D01*
X13654Y411D01*
Y409D01*
Y409D01*
Y408D01*
Y408D01*
X13654Y401D01*
X13653Y395D01*
X13652Y390D01*
X13651Y385D01*
X13650Y383D01*
X13650Y382D01*
X13649Y380D01*
X13649Y379D01*
X13648Y378D01*
X13648Y377D01*
X13648Y377D01*
Y376D01*
X13645Y372D01*
X13642Y367D01*
X13639Y364D01*
X13636Y361D01*
X13634Y358D01*
X13632Y356D01*
X13630Y356D01*
X13630Y355D01*
X13630D01*
X13625Y353D01*
X13621Y351D01*
X13617Y349D01*
X13613Y348D01*
X13609Y348D01*
X13607Y348D01*
X13606Y347D01*
X13604D01*
X13600Y348D01*
X13597Y348D01*
X13593Y349D01*
X13590Y350D01*
X13587Y351D01*
X13584Y353D01*
X13582Y354D01*
X13580Y356D01*
X13578Y358D01*
X13576Y359D01*
X13575Y361D01*
X13574Y362D01*
X13573Y363D01*
X13572Y364D01*
X13572Y364D01*
X13572Y365D01*
Y350D01*
X13553D01*
Y510D01*
X13573D01*
Y453D01*
D02*
G37*
G36*
X13919Y513D02*
X13924Y512D01*
X13929Y511D01*
X13933Y510D01*
X13937Y509D01*
X13938Y509D01*
X13940Y508D01*
X13941Y508D01*
X13941Y508D01*
X13942Y507D01*
X13942D01*
X13947Y505D01*
X13951Y502D01*
X13954Y500D01*
X13957Y497D01*
X13959Y495D01*
X13961Y493D01*
X13962Y492D01*
X13962Y491D01*
Y491D01*
X13964Y487D01*
X13966Y483D01*
X13967Y479D01*
X13968Y476D01*
X13968Y473D01*
X13969Y471D01*
Y470D01*
Y469D01*
Y469D01*
Y468D01*
X13969Y465D01*
X13968Y461D01*
X13967Y457D01*
X13966Y454D01*
X13965Y452D01*
X13964Y450D01*
X13963Y449D01*
X13963Y449D01*
X13961Y445D01*
X13958Y442D01*
X13955Y440D01*
X13953Y438D01*
X13950Y436D01*
X13948Y435D01*
X13947Y434D01*
X13947Y434D01*
X13946D01*
X13944Y433D01*
X13942Y432D01*
X13938Y430D01*
X13932Y428D01*
X13927Y427D01*
X13923Y425D01*
X13921Y425D01*
X13919Y425D01*
X13917Y424D01*
X13916Y424D01*
X13916Y424D01*
X13915D01*
X13911Y423D01*
X13908Y422D01*
X13904Y421D01*
X13902Y420D01*
X13899Y419D01*
X13897Y419D01*
X13894Y418D01*
X13893Y418D01*
X13891Y417D01*
X13890Y417D01*
X13888Y416D01*
X13887Y416D01*
X13887Y416D01*
X13883Y414D01*
X13880Y413D01*
X13878Y411D01*
X13876Y410D01*
X13874Y408D01*
X13873Y407D01*
X13873Y407D01*
X13873Y406D01*
X13871Y404D01*
X13870Y402D01*
X13869Y400D01*
X13868Y398D01*
X13868Y396D01*
X13868Y395D01*
Y394D01*
Y393D01*
X13868Y390D01*
X13869Y388D01*
X13869Y386D01*
X13870Y384D01*
X13871Y382D01*
X13872Y381D01*
X13872Y380D01*
X13873Y380D01*
X13874Y377D01*
X13877Y375D01*
X13879Y374D01*
X13881Y372D01*
X13883Y371D01*
X13885Y370D01*
X13886Y370D01*
X13886Y370D01*
X13890Y369D01*
X13894Y368D01*
X13897Y367D01*
X13901Y367D01*
X13903Y366D01*
X13906Y366D01*
X13908D01*
X13913Y366D01*
X13917Y367D01*
X13922Y368D01*
X13925Y369D01*
X13928Y369D01*
X13931Y370D01*
X13931Y370D01*
X13932Y371D01*
X13932Y371D01*
X13932D01*
X13936Y373D01*
X13940Y375D01*
X13942Y377D01*
X13944Y379D01*
X13946Y381D01*
X13947Y382D01*
X13948Y383D01*
X13948Y383D01*
X13950Y386D01*
X13952Y390D01*
X13953Y393D01*
X13953Y396D01*
X13954Y399D01*
X13955Y401D01*
Y402D01*
X13955Y403D01*
Y403D01*
Y403D01*
X13975Y401D01*
X13974Y396D01*
X13973Y390D01*
X13972Y385D01*
X13970Y381D01*
X13969Y377D01*
X13968Y376D01*
X13968Y375D01*
X13967Y374D01*
X13967Y373D01*
X13966Y373D01*
Y372D01*
X13963Y368D01*
X13959Y364D01*
X13955Y361D01*
X13951Y358D01*
X13948Y356D01*
X13945Y355D01*
X13944Y354D01*
X13944Y354D01*
X13943Y353D01*
X13943D01*
X13937Y351D01*
X13931Y350D01*
X13925Y349D01*
X13919Y348D01*
X13917Y348D01*
X13914Y347D01*
X13912D01*
X13910Y347D01*
X13907D01*
X13901Y347D01*
X13895Y348D01*
X13889Y349D01*
X13885Y350D01*
X13881Y351D01*
X13880Y352D01*
X13878Y353D01*
X13877Y353D01*
X13877Y353D01*
X13876Y353D01*
X13876D01*
X13871Y356D01*
X13867Y359D01*
X13863Y362D01*
X13860Y365D01*
X13858Y367D01*
X13856Y369D01*
X13855Y370D01*
X13855Y371D01*
Y371D01*
X13852Y375D01*
X13851Y379D01*
X13849Y383D01*
X13848Y387D01*
X13848Y390D01*
X13848Y393D01*
Y394D01*
Y394D01*
Y395D01*
Y395D01*
X13848Y400D01*
X13848Y404D01*
X13850Y408D01*
X13851Y411D01*
X13852Y414D01*
X13853Y416D01*
X13854Y417D01*
X13854Y418D01*
X13857Y421D01*
X13860Y424D01*
X13864Y427D01*
X13867Y430D01*
X13870Y431D01*
X13873Y433D01*
X13874Y433D01*
X13874Y434D01*
X13875Y434D01*
X13875D01*
X13877Y435D01*
X13879Y436D01*
X13882Y437D01*
X13885Y437D01*
X13890Y439D01*
X13896Y441D01*
X13899Y441D01*
X13902Y442D01*
X13904Y443D01*
X13906Y443D01*
X13908Y444D01*
X13909Y444D01*
X13910Y444D01*
X13910D01*
X13915Y445D01*
X13919Y446D01*
X13923Y447D01*
X13926Y448D01*
X13929Y449D01*
X13932Y450D01*
X13934Y451D01*
X13936Y452D01*
X13938Y453D01*
X13939Y454D01*
X13940Y454D01*
X13941Y455D01*
X13942Y456D01*
X13942Y456D01*
X13944Y458D01*
X13946Y460D01*
X13947Y463D01*
X13948Y465D01*
X13948Y467D01*
X13948Y468D01*
Y469D01*
Y470D01*
X13948Y474D01*
X13947Y477D01*
X13946Y480D01*
X13944Y482D01*
X13943Y484D01*
X13941Y486D01*
X13940Y487D01*
X13940Y487D01*
X13938Y488D01*
X13936Y489D01*
X13932Y491D01*
X13927Y492D01*
X13922Y493D01*
X13918Y493D01*
X13916Y494D01*
X13915Y494D01*
X13912D01*
X13905Y494D01*
X13900Y493D01*
X13895Y491D01*
X13891Y490D01*
X13888Y489D01*
X13886Y487D01*
X13885Y486D01*
X13884Y486D01*
X13881Y483D01*
X13878Y479D01*
X13876Y476D01*
X13875Y472D01*
X13874Y468D01*
X13873Y466D01*
X13873Y465D01*
X13873Y464D01*
Y464D01*
Y463D01*
X13852Y465D01*
X13853Y470D01*
X13854Y475D01*
X13855Y479D01*
X13857Y483D01*
X13858Y486D01*
X13859Y488D01*
X13860Y489D01*
X13860Y490D01*
X13860Y490D01*
Y490D01*
X13863Y494D01*
X13867Y497D01*
X13870Y500D01*
X13874Y503D01*
X13877Y505D01*
X13879Y506D01*
X13880Y506D01*
X13881Y507D01*
X13881Y507D01*
X13881D01*
X13886Y509D01*
X13892Y510D01*
X13897Y512D01*
X13902Y512D01*
X13906Y513D01*
X13908D01*
X13910Y513D01*
X13913D01*
X13919Y513D01*
D02*
G37*
%LPC*%
G36*
X13476Y453D02*
X13475D01*
X13472Y452D01*
X13469Y452D01*
X13464Y451D01*
X13460Y449D01*
X13457Y447D01*
X13454Y445D01*
X13452Y443D01*
X13451Y441D01*
X13450Y441D01*
Y441D01*
X13448Y438D01*
X13446Y434D01*
X13445Y431D01*
X13444Y427D01*
X13443Y424D01*
X13443Y422D01*
Y421D01*
X13443Y420D01*
Y419D01*
Y419D01*
X13508D01*
X13507Y425D01*
X13506Y429D01*
X13504Y434D01*
X13502Y437D01*
X13500Y440D01*
X13499Y442D01*
X13498Y443D01*
X13497Y443D01*
X13494Y446D01*
X13490Y449D01*
X13486Y450D01*
X13482Y451D01*
X13479Y452D01*
X13477Y452D01*
X13476Y453D01*
D02*
G37*
G36*
X14719Y491D02*
X14681D01*
X14676Y491D01*
X14672Y490D01*
X14668Y490D01*
X14666Y490D01*
X14664Y489D01*
X14663Y489D01*
X14663D01*
X14660Y488D01*
X14658Y487D01*
X14656Y485D01*
X14654Y484D01*
X14653Y483D01*
X14652Y481D01*
X14652Y481D01*
X14652Y481D01*
X14650Y478D01*
X14649Y476D01*
X14649Y474D01*
X14648Y471D01*
X14648Y469D01*
X14648Y468D01*
Y467D01*
Y467D01*
X14648Y464D01*
X14648Y461D01*
X14649Y459D01*
X14650Y457D01*
X14650Y455D01*
X14651Y454D01*
X14652Y453D01*
X14652Y453D01*
X14653Y451D01*
X14656Y449D01*
X14658Y448D01*
X14659Y447D01*
X14661Y446D01*
X14663Y445D01*
X14664Y445D01*
X14664Y445D01*
X14667Y444D01*
X14670Y444D01*
X14673Y443D01*
X14676Y443D01*
X14679Y443D01*
X14719D01*
Y491D01*
D02*
G37*
G36*
Y424D02*
X14677D01*
X14672Y424D01*
X14668Y423D01*
X14665Y423D01*
X14662Y422D01*
X14660Y422D01*
X14659Y422D01*
X14659Y421D01*
X14656Y420D01*
X14653Y419D01*
X14651Y417D01*
X14649Y415D01*
X14647Y414D01*
X14647Y413D01*
X14646Y412D01*
X14646Y412D01*
X14644Y409D01*
X14643Y407D01*
X14642Y404D01*
X14641Y402D01*
X14641Y400D01*
X14641Y398D01*
Y397D01*
Y397D01*
X14641Y394D01*
X14641Y391D01*
X14642Y389D01*
X14642Y387D01*
X14643Y385D01*
X14644Y384D01*
X14644Y383D01*
X14644Y383D01*
X14645Y381D01*
X14647Y379D01*
X14648Y378D01*
X14649Y376D01*
X14650Y375D01*
X14651Y375D01*
X14652Y374D01*
X14652Y374D01*
X14656Y372D01*
X14660Y371D01*
X14662Y370D01*
X14663Y370D01*
X14664Y370D01*
X14664D01*
X14666Y369D01*
X14668Y369D01*
X14673Y369D01*
X14719D01*
Y424D01*
D02*
G37*
G36*
X14547Y453D02*
X14545D01*
X14543Y452D01*
X14540Y452D01*
X14535Y451D01*
X14531Y449D01*
X14528Y447D01*
X14525Y445D01*
X14523Y443D01*
X14522Y442D01*
X14521Y442D01*
Y441D01*
X14519Y439D01*
X14518Y437D01*
X14515Y432D01*
X14513Y426D01*
X14512Y421D01*
X14512Y416D01*
X14511Y414D01*
Y412D01*
X14511Y411D01*
Y410D01*
Y409D01*
Y409D01*
Y405D01*
X14512Y401D01*
X14512Y397D01*
X14513Y394D01*
X14513Y391D01*
X14514Y388D01*
X14515Y385D01*
X14516Y383D01*
X14517Y381D01*
X14518Y379D01*
X14519Y378D01*
X14519Y377D01*
X14520Y376D01*
X14521Y375D01*
X14521Y375D01*
X14521Y375D01*
X14523Y373D01*
X14525Y371D01*
X14529Y368D01*
X14533Y366D01*
X14537Y365D01*
X14540Y364D01*
X14543Y364D01*
X14544Y364D01*
X14545D01*
X14548Y364D01*
X14551Y364D01*
X14556Y365D01*
X14560Y367D01*
X14563Y369D01*
X14566Y371D01*
X14568Y373D01*
X14569Y374D01*
X14570Y375D01*
X14570D01*
X14572Y377D01*
X14573Y379D01*
X14575Y384D01*
X14577Y390D01*
X14578Y396D01*
X14579Y400D01*
X14579Y403D01*
Y404D01*
X14580Y406D01*
Y407D01*
Y408D01*
Y408D01*
X14579Y412D01*
X14579Y416D01*
X14579Y419D01*
X14578Y423D01*
X14577Y426D01*
X14577Y428D01*
X14576Y431D01*
X14575Y433D01*
X14574Y435D01*
X14573Y437D01*
X14572Y438D01*
X14572Y439D01*
X14571Y440D01*
X14570Y441D01*
X14570Y441D01*
Y441D01*
X14568Y443D01*
X14566Y445D01*
X14562Y448D01*
X14558Y450D01*
X14554Y451D01*
X14550Y452D01*
X14548Y452D01*
X14547Y453D01*
D02*
G37*
G36*
X14298D02*
X14296D01*
X14294Y452D01*
X14291Y452D01*
X14286Y451D01*
X14282Y449D01*
X14279Y447D01*
X14276Y445D01*
X14274Y443D01*
X14273Y442D01*
X14272Y442D01*
Y441D01*
X14270Y439D01*
X14269Y437D01*
X14266Y432D01*
X14264Y426D01*
X14263Y421D01*
X14263Y416D01*
X14262Y414D01*
Y412D01*
X14262Y411D01*
Y410D01*
Y409D01*
Y409D01*
Y405D01*
X14263Y401D01*
X14263Y397D01*
X14264Y394D01*
X14264Y391D01*
X14265Y388D01*
X14266Y385D01*
X14267Y383D01*
X14268Y381D01*
X14269Y379D01*
X14270Y378D01*
X14271Y377D01*
X14271Y376D01*
X14272Y375D01*
X14272Y375D01*
X14272Y375D01*
X14274Y373D01*
X14276Y371D01*
X14280Y368D01*
X14284Y366D01*
X14288Y365D01*
X14291Y364D01*
X14294Y364D01*
X14295Y364D01*
X14296D01*
X14299Y364D01*
X14302Y364D01*
X14307Y365D01*
X14311Y367D01*
X14314Y369D01*
X14317Y371D01*
X14319Y373D01*
X14320Y374D01*
X14321Y375D01*
X14321D01*
X14323Y377D01*
X14324Y379D01*
X14326Y384D01*
X14328Y390D01*
X14330Y396D01*
X14330Y400D01*
X14330Y403D01*
Y404D01*
X14331Y406D01*
Y407D01*
Y408D01*
Y408D01*
X14330Y412D01*
X14330Y416D01*
X14330Y419D01*
X14329Y423D01*
X14328Y426D01*
X14328Y428D01*
X14327Y431D01*
X14326Y433D01*
X14325Y435D01*
X14324Y437D01*
X14323Y438D01*
X14323Y439D01*
X14322Y440D01*
X14321Y441D01*
X14321Y441D01*
Y441D01*
X14319Y443D01*
X14317Y445D01*
X14313Y448D01*
X14309Y450D01*
X14305Y451D01*
X14302Y452D01*
X14299Y452D01*
X14298Y453D01*
D02*
G37*
G36*
X13775D02*
X13774D01*
X13771Y452D01*
X13769Y452D01*
X13764Y451D01*
X13760Y449D01*
X13756Y447D01*
X13754Y445D01*
X13751Y443D01*
X13750Y442D01*
X13750Y442D01*
Y441D01*
X13748Y439D01*
X13746Y437D01*
X13744Y432D01*
X13742Y426D01*
X13741Y421D01*
X13740Y416D01*
X13740Y414D01*
Y412D01*
X13740Y411D01*
Y410D01*
Y409D01*
Y409D01*
Y405D01*
X13740Y401D01*
X13741Y397D01*
X13741Y394D01*
X13742Y391D01*
X13743Y388D01*
X13744Y385D01*
X13745Y383D01*
X13745Y381D01*
X13746Y379D01*
X13747Y378D01*
X13748Y377D01*
X13749Y376D01*
X13749Y375D01*
X13749Y375D01*
X13750Y375D01*
X13751Y373D01*
X13754Y371D01*
X13758Y368D01*
X13762Y366D01*
X13765Y365D01*
X13769Y364D01*
X13771Y364D01*
X13773Y364D01*
X13774D01*
X13777Y364D01*
X13779Y364D01*
X13784Y365D01*
X13788Y367D01*
X13792Y369D01*
X13795Y371D01*
X13797Y373D01*
X13798Y374D01*
X13798Y375D01*
X13798D01*
X13800Y377D01*
X13802Y379D01*
X13804Y384D01*
X13806Y390D01*
X13807Y396D01*
X13808Y400D01*
X13808Y403D01*
Y404D01*
X13808Y406D01*
Y407D01*
Y408D01*
Y408D01*
X13808Y412D01*
X13808Y416D01*
X13807Y419D01*
X13807Y423D01*
X13806Y426D01*
X13805Y428D01*
X13804Y431D01*
X13803Y433D01*
X13802Y435D01*
X13801Y437D01*
X13801Y438D01*
X13800Y439D01*
X13799Y440D01*
X13799Y441D01*
X13798Y441D01*
Y441D01*
X13797Y443D01*
X13795Y445D01*
X13791Y448D01*
X13786Y450D01*
X13782Y451D01*
X13779Y452D01*
X13776Y452D01*
X13775Y453D01*
D02*
G37*
G36*
X13604D02*
X13603D01*
X13601Y452D01*
X13598Y452D01*
X13594Y451D01*
X13590Y449D01*
X13587Y447D01*
X13584Y445D01*
X13582Y443D01*
X13581Y442D01*
X13580Y441D01*
Y441D01*
X13579Y439D01*
X13577Y437D01*
X13575Y431D01*
X13574Y425D01*
X13572Y420D01*
X13572Y417D01*
X13572Y414D01*
X13571Y412D01*
Y410D01*
X13571Y409D01*
Y407D01*
Y406D01*
Y406D01*
Y402D01*
X13572Y399D01*
X13572Y395D01*
X13573Y392D01*
X13573Y389D01*
X13574Y387D01*
X13575Y384D01*
X13576Y382D01*
X13577Y380D01*
X13577Y378D01*
X13578Y377D01*
X13579Y376D01*
X13580Y375D01*
X13580Y375D01*
X13580Y374D01*
Y374D01*
X13582Y372D01*
X13584Y371D01*
X13588Y368D01*
X13591Y366D01*
X13595Y365D01*
X13598Y364D01*
X13600Y364D01*
X13601Y364D01*
X13602D01*
X13605Y364D01*
X13607Y364D01*
X13611Y365D01*
X13615Y367D01*
X13618Y369D01*
X13621Y371D01*
X13623Y373D01*
X13624Y374D01*
X13624Y375D01*
X13625D01*
X13626Y377D01*
X13628Y379D01*
X13630Y384D01*
X13632Y390D01*
X13633Y395D01*
X13633Y400D01*
X13634Y402D01*
Y404D01*
X13634Y406D01*
Y407D01*
Y408D01*
Y408D01*
Y412D01*
X13633Y416D01*
X13633Y420D01*
X13633Y423D01*
X13632Y426D01*
X13631Y429D01*
X13630Y431D01*
X13630Y434D01*
X13629Y435D01*
X13628Y437D01*
X13627Y438D01*
X13627Y440D01*
X13626Y440D01*
X13626Y441D01*
X13625Y441D01*
Y442D01*
X13624Y443D01*
X13622Y445D01*
X13618Y448D01*
X13614Y450D01*
X13611Y451D01*
X13608Y452D01*
X13605Y452D01*
X13604Y453D01*
D02*
G37*
%LPD*%
D17*
X1200Y630D02*
D03*
D18*
X4600Y3785D02*
D03*
X4340D02*
D03*
Y3880D02*
D03*
Y3975D02*
D03*
X4600D02*
D03*
D20*
X1350Y1920D02*
D03*
X3060Y4750D02*
D03*
X4090Y670D02*
D03*
D24*
X790Y1230D02*
D03*
Y1330D02*
D03*
X690Y1230D02*
D03*
Y1330D02*
D03*
X3450Y800D02*
D03*
Y700D02*
D03*
X4150Y1480D02*
D03*
Y1580D02*
D03*
Y2100D02*
D03*
Y2200D02*
D03*
X3400Y1120D02*
D03*
Y1020D02*
D03*
X4540Y550D02*
D03*
Y650D02*
D03*
X560Y670D02*
D03*
Y570D02*
D03*
X1120Y980D02*
D03*
Y880D02*
D03*
X1020D02*
D03*
Y980D02*
D03*
X890D02*
D03*
Y880D02*
D03*
X790D02*
D03*
Y980D02*
D03*
X690D02*
D03*
Y880D02*
D03*
X1290Y1120D02*
D03*
Y1220D02*
D03*
X1190Y1120D02*
D03*
Y1220D02*
D03*
X1250Y1580D02*
D03*
Y1680D02*
D03*
X1990Y520D02*
D03*
Y420D02*
D03*
X1890Y520D02*
D03*
Y420D02*
D03*
X1990Y720D02*
D03*
Y620D02*
D03*
X1890Y720D02*
D03*
Y620D02*
D03*
X2420Y820D02*
D03*
Y720D02*
D03*
X2320Y820D02*
D03*
Y720D02*
D03*
X2520Y820D02*
D03*
Y720D02*
D03*
X3060Y770D02*
D03*
Y870D02*
D03*
X3160D02*
D03*
Y770D02*
D03*
X3260Y870D02*
D03*
Y770D02*
D03*
X3100Y970D02*
D03*
Y1070D02*
D03*
X2990Y1170D02*
D03*
Y1070D02*
D03*
X3290D02*
D03*
Y1170D02*
D03*
X4540Y850D02*
D03*
Y750D02*
D03*
X1700Y1760D02*
D03*
Y1660D02*
D03*
X2330Y1750D02*
D03*
Y1850D02*
D03*
X2230Y1750D02*
D03*
Y1850D02*
D03*
X2330Y2040D02*
D03*
Y1940D02*
D03*
X2230Y2040D02*
D03*
Y1940D02*
D03*
X1700Y1400D02*
D03*
Y1500D02*
D03*
X2240Y2490D02*
D03*
Y2390D02*
D03*
X2330Y2730D02*
D03*
Y2630D02*
D03*
X2190Y2610D02*
D03*
Y2710D02*
D03*
X2380Y3060D02*
D03*
Y2960D02*
D03*
X2260D02*
D03*
Y3060D02*
D03*
X2110Y2790D02*
D03*
Y2890D02*
D03*
X2010D02*
D03*
Y2790D02*
D03*
X1700Y3280D02*
D03*
Y3180D02*
D03*
X1600Y3280D02*
D03*
Y3180D02*
D03*
X2010Y3090D02*
D03*
Y2990D02*
D03*
X2110D02*
D03*
Y3090D02*
D03*
X1940Y3520D02*
D03*
Y3620D02*
D03*
X1710Y3520D02*
D03*
Y3620D02*
D03*
X1810Y3520D02*
D03*
Y3620D02*
D03*
X2040D02*
D03*
Y3520D02*
D03*
X2380Y3550D02*
D03*
Y3450D02*
D03*
X2780Y2980D02*
D03*
Y3080D02*
D03*
X2890Y2980D02*
D03*
Y3080D02*
D03*
X2450Y3940D02*
D03*
Y3840D02*
D03*
X2350Y3940D02*
D03*
Y3840D02*
D03*
X2500Y4060D02*
D03*
Y4160D02*
D03*
X2600Y4060D02*
D03*
Y4160D02*
D03*
X2700Y4110D02*
D03*
Y4210D02*
D03*
X3250Y3200D02*
D03*
Y3300D02*
D03*
Y3390D02*
D03*
Y3490D02*
D03*
X4210Y4860D02*
D03*
Y4760D02*
D03*
X4790Y3790D02*
D03*
Y3890D02*
D03*
X4430Y2970D02*
D03*
Y2870D02*
D03*
X3990Y3110D02*
D03*
Y3010D02*
D03*
X3000Y4460D02*
D03*
Y4560D02*
D03*
X3100Y4210D02*
D03*
Y4110D02*
D03*
X3200D02*
D03*
Y4210D02*
D03*
X3340Y4560D02*
D03*
Y4460D02*
D03*
D25*
X990Y1110D02*
D03*
X890D02*
D03*
X690D02*
D03*
X790D02*
D03*
X930Y1590D02*
D03*
X1030D02*
D03*
X930Y1690D02*
D03*
X1030D02*
D03*
X4640Y530D02*
D03*
X4740D02*
D03*
X2980Y680D02*
D03*
X2880D02*
D03*
X3650Y870D02*
D03*
X3550D02*
D03*
Y680D02*
D03*
X3650D02*
D03*
X4280Y340D02*
D03*
X4380D02*
D03*
X4280Y440D02*
D03*
X4380D02*
D03*
X4730Y1720D02*
D03*
X4630D02*
D03*
X4430D02*
D03*
X4530D02*
D03*
X4470Y2770D02*
D03*
X4570D02*
D03*
X4250Y1720D02*
D03*
X4150D02*
D03*
X4250Y1880D02*
D03*
X4150D02*
D03*
Y1980D02*
D03*
X4250D02*
D03*
X4150Y2330D02*
D03*
X4250D02*
D03*
X4150Y2430D02*
D03*
X4250D02*
D03*
Y2530D02*
D03*
X4150D02*
D03*
X3830Y910D02*
D03*
X3930D02*
D03*
X590Y780D02*
D03*
X690D02*
D03*
X990Y1210D02*
D03*
X1090D02*
D03*
X990Y1310D02*
D03*
X1090D02*
D03*
X1210Y1350D02*
D03*
X1310D02*
D03*
X690Y1550D02*
D03*
X790D02*
D03*
X690Y1650D02*
D03*
X790D02*
D03*
X1430Y1250D02*
D03*
X1530D02*
D03*
X1890Y130D02*
D03*
X1990D02*
D03*
X2590Y970D02*
D03*
X2490D02*
D03*
X2730D02*
D03*
X2830D02*
D03*
X2730Y1170D02*
D03*
X2630D02*
D03*
X2440D02*
D03*
X2540D02*
D03*
X3190Y970D02*
D03*
X3290D02*
D03*
X3100Y1170D02*
D03*
X3200D02*
D03*
X3780Y1070D02*
D03*
X3680D02*
D03*
X3780Y1170D02*
D03*
X3680D02*
D03*
X4000Y1070D02*
D03*
X3900D02*
D03*
Y1170D02*
D03*
X4000D02*
D03*
X4350Y650D02*
D03*
X4450D02*
D03*
X4300Y770D02*
D03*
X4400D02*
D03*
X4300Y870D02*
D03*
X4400D02*
D03*
X4110D02*
D03*
X4210D02*
D03*
X4110Y970D02*
D03*
X4210D02*
D03*
X4120Y1170D02*
D03*
X4220D02*
D03*
X4110Y1280D02*
D03*
X4010D02*
D03*
X2330Y1540D02*
D03*
X2230D02*
D03*
X2100Y1600D02*
D03*
X2000D02*
D03*
X2100Y1750D02*
D03*
X2000D02*
D03*
X2230Y2150D02*
D03*
X2330D02*
D03*
X1520Y2710D02*
D03*
X1620D02*
D03*
X1810Y2990D02*
D03*
X1910D02*
D03*
X1810Y2890D02*
D03*
X1910D02*
D03*
X2280Y3210D02*
D03*
X2380D02*
D03*
Y3310D02*
D03*
X2280D02*
D03*
X2080Y3210D02*
D03*
X2180D02*
D03*
X2080Y3310D02*
D03*
X2180D02*
D03*
X1480Y3280D02*
D03*
X1380D02*
D03*
X1480Y3380D02*
D03*
X1380D02*
D03*
X1480Y3480D02*
D03*
X1380D02*
D03*
X1480Y3580D02*
D03*
X1380D02*
D03*
X1810Y3420D02*
D03*
X1710D02*
D03*
X2040D02*
D03*
X1940D02*
D03*
X2250Y3550D02*
D03*
X2150D02*
D03*
X3160Y2980D02*
D03*
X3060D02*
D03*
X3350D02*
D03*
X3250D02*
D03*
X3250Y3590D02*
D03*
X3150D02*
D03*
X3050D02*
D03*
X2950D02*
D03*
X3850Y2980D02*
D03*
X3750D02*
D03*
X4790Y4500D02*
D03*
X4890D02*
D03*
X4790Y4400D02*
D03*
X4890D02*
D03*
X4610Y3670D02*
D03*
X4510D02*
D03*
X3850Y3800D02*
D03*
X3750D02*
D03*
X4420Y4090D02*
D03*
X4320D02*
D03*
X4310Y3670D02*
D03*
X4410D02*
D03*
X4320Y4190D02*
D03*
X4420D02*
D03*
X4680Y4500D02*
D03*
X4580D02*
D03*
X4680Y4390D02*
D03*
X4580D02*
D03*
Y4290D02*
D03*
X4680D02*
D03*
Y4090D02*
D03*
X4580D02*
D03*
Y4190D02*
D03*
X4680D02*
D03*
Y4600D02*
D03*
X4580D02*
D03*
X3230Y4320D02*
D03*
X3130D02*
D03*
X2940D02*
D03*
X3040D02*
D03*
D26*
X2000Y1900D02*
D03*
Y2080D02*
D03*
X3860Y4250D02*
D03*
Y4070D02*
D03*
D31*
X1600Y2859D02*
D03*
Y3082D02*
D03*
D44*
X130Y930D02*
D03*
X310D02*
D03*
X130Y1120D02*
D03*
X310D02*
D03*
X130Y1300D02*
D03*
X310D02*
D03*
X1290Y180D02*
D03*
X1110D02*
D03*
X900Y2500D02*
D03*
X1080D02*
D03*
X4050Y4810D02*
D03*
X3870D02*
D03*
X3660Y4540D02*
D03*
X3480D02*
D03*
X3660Y4350D02*
D03*
X3480D02*
D03*
X3660Y4160D02*
D03*
X3480D02*
D03*
D46*
X4645Y1570D02*
D03*
X4815D02*
D03*
X1285Y350D02*
D03*
X1115D02*
D03*
X1105Y1450D02*
D03*
X935D02*
D03*
X2365Y3670D02*
D03*
X2535D02*
D03*
X3875Y3240D02*
D03*
X3705D02*
D03*
X4165Y3760D02*
D03*
X3995D02*
D03*
D51*
X2215Y918D02*
D03*
X2150D02*
D03*
X2085D02*
D03*
X2215Y1102D02*
D03*
X2150D02*
D03*
X2085D02*
D03*
D57*
X3770Y615D02*
D03*
Y785D02*
D03*
X1830Y1525D02*
D03*
Y1355D02*
D03*
Y1645D02*
D03*
Y1815D02*
D03*
X2220Y3845D02*
D03*
Y3675D02*
D03*
X3080Y3245D02*
D03*
Y3415D02*
D03*
X4300Y3275D02*
D03*
Y3445D02*
D03*
X4120Y3275D02*
D03*
Y3445D02*
D03*
X3600Y3675D02*
D03*
Y3845D02*
D03*
X3450D02*
D03*
Y3675D02*
D03*
X3920Y615D02*
D03*
Y785D02*
D03*
D64*
X4340Y230D02*
D03*
Y100D02*
D03*
X4110Y2770D02*
D03*
X2310Y130D02*
D03*
X2160D02*
D03*
X1510Y1980D02*
D03*
Y1840D02*
D03*
X630Y2570D02*
D03*
X760D02*
D03*
X4470Y3420D02*
D03*
Y3550D02*
D03*
X3610Y2970D02*
D03*
X3660Y4020D02*
D03*
X3480D02*
D03*
D71*
X4240Y4440D02*
D03*
X4210Y3060D02*
D03*
D76*
X1360Y1530D02*
D03*
Y1580D02*
D03*
Y1630D02*
D03*
D77*
X1399Y1440D02*
D03*
Y1720D02*
D03*
X1449D02*
D03*
X1549Y1440D02*
D03*
X1499D02*
D03*
X1449D02*
D03*
X1499Y1720D02*
D03*
X1549D02*
D03*
D85*
X4915Y4110D02*
D03*
X4785D02*
D03*
X4850Y4290D02*
D03*
D90*
X4640Y260D02*
D03*
X1200Y630D02*
D03*
X578Y3319D02*
D03*
Y3574D02*
D03*
Y4133D02*
D03*
Y3879D02*
D03*
Y4440D02*
D03*
Y4694D02*
D03*
D95*
X170Y4120D02*
D03*
X170Y3920D02*
D03*
X170Y3720D02*
D03*
Y3520D02*
D03*
Y4320D02*
D03*
D96*
X1186Y2932D02*
D03*
Y2068D02*
D03*
D97*
X700Y2962D02*
D03*
D98*
X670Y2038D02*
D03*
D99*
X4805Y1700D02*
D03*
Y3300D02*
D03*
D100*
X4925Y1002D02*
D03*
Y1198D02*
D03*
D101*
X4870Y750D02*
D03*
D102*
X1406Y1010D02*
D03*
X1914Y908D02*
D03*
Y1112D02*
D03*
X4914Y4810D02*
D03*
X4406Y4912D02*
D03*
Y4708D02*
D03*
X4790Y3614D02*
D03*
X4688Y3106D02*
D03*
X4892D02*
D03*
X3254Y3840D02*
D03*
X2746Y3942D02*
D03*
Y3738D02*
D03*
D193*
X4240Y4440D02*
D03*
D264*
X4640Y260D02*
D03*
D265*
X2700Y770D02*
D03*
X2330Y4110D02*
D03*
D266*
X1940Y280D02*
D03*
D267*
X4210Y3060D02*
D03*
D268*
X1530Y1629D02*
D03*
Y1531D02*
D03*
D269*
Y1580D02*
D03*
D270*
X460Y996D02*
D03*
Y864D02*
D03*
D271*
X4490Y185D02*
D03*
Y235D02*
D03*
Y285D02*
D03*
Y335D02*
D03*
X4790Y185D02*
D03*
Y235D02*
D03*
Y285D02*
D03*
Y335D02*
D03*
D272*
X2775Y709D02*
D03*
X2725D02*
D03*
X2675D02*
D03*
X2625D02*
D03*
Y831D02*
D03*
X2675D02*
D03*
X2725D02*
D03*
X2775D02*
D03*
X2255Y4171D02*
D03*
X2305D02*
D03*
X2355D02*
D03*
X2405D02*
D03*
Y4049D02*
D03*
X2355D02*
D03*
X2305D02*
D03*
X2255D02*
D03*
D273*
X2700Y770D02*
D03*
X2330Y4110D02*
D03*
D274*
X4745Y666D02*
D03*
X4663D02*
D03*
Y834D02*
D03*
X4745D02*
D03*
D275*
X4550Y1225D02*
D03*
D276*
X4742Y1100D02*
D03*
Y1150D02*
D03*
Y1200D02*
D03*
Y1250D02*
D03*
Y1300D02*
D03*
Y1350D02*
D03*
X4358D02*
D03*
Y1300D02*
D03*
Y1250D02*
D03*
Y1200D02*
D03*
Y1150D02*
D03*
Y1100D02*
D03*
D277*
X4675Y1418D02*
D03*
X4625D02*
D03*
X4575D02*
D03*
X4525D02*
D03*
X4475D02*
D03*
X4425D02*
D03*
Y1032D02*
D03*
X4475D02*
D03*
X4525D02*
D03*
X4575D02*
D03*
X4625D02*
D03*
X4675D02*
D03*
D278*
X4821Y2650D02*
D03*
X4694D02*
D03*
X4567D02*
D03*
X4440D02*
D03*
X4821Y1850D02*
D03*
X4694D02*
D03*
X4567D02*
D03*
X4440D02*
D03*
D279*
X4882Y2945D02*
D03*
Y2880D02*
D03*
Y2815D02*
D03*
X4698Y2945D02*
D03*
Y2880D02*
D03*
Y2815D02*
D03*
X2818Y4095D02*
D03*
Y4160D02*
D03*
Y4225D02*
D03*
X3002Y4095D02*
D03*
Y4160D02*
D03*
Y4225D02*
D03*
D280*
X3575Y1071D02*
D03*
X3485Y1050D02*
D03*
D281*
X3530Y1140D02*
D03*
Y980D02*
D03*
D282*
X165Y670D02*
D03*
Y620D02*
D03*
Y570D02*
D03*
X455D02*
D03*
Y620D02*
D03*
Y670D02*
D03*
D283*
X310Y620D02*
D03*
D284*
X310Y280D02*
D03*
X890D02*
D03*
D285*
X1339Y705D02*
D03*
Y655D02*
D03*
Y605D02*
D03*
Y555D02*
D03*
X1061D02*
D03*
Y605D02*
D03*
Y655D02*
D03*
Y705D02*
D03*
D286*
X1275Y491D02*
D03*
X1225D02*
D03*
X1175D02*
D03*
X1125D02*
D03*
Y768D02*
D03*
X1175D02*
D03*
X1225D02*
D03*
X1275D02*
D03*
D287*
X805Y1440D02*
D03*
X675D02*
D03*
D288*
X1640Y710D02*
D03*
Y130D02*
D03*
D289*
X1533Y1073D02*
D03*
Y947D02*
D03*
X1660Y1073D02*
D03*
Y947D02*
D03*
X1787Y1073D02*
D03*
Y947D02*
D03*
X4787Y4747D02*
D03*
Y4874D02*
D03*
X4660Y4747D02*
D03*
Y4874D02*
D03*
X4533Y4747D02*
D03*
Y4874D02*
D03*
X4853Y3487D02*
D03*
X4726D02*
D03*
X4853Y3360D02*
D03*
X4726D02*
D03*
X4853Y3233D02*
D03*
X4726D02*
D03*
X3127Y3776D02*
D03*
Y3903D02*
D03*
X3000Y3776D02*
D03*
Y3903D02*
D03*
X2873Y3776D02*
D03*
Y3903D02*
D03*
D290*
X2173Y390D02*
D03*
X2827Y4510D02*
D03*
X2173D02*
D03*
D291*
X2812Y390D02*
D03*
D292*
X2400Y580D02*
D03*
X2450D02*
D03*
X2500D02*
D03*
X2550D02*
D03*
X2600D02*
D03*
Y4320D02*
D03*
X2550D02*
D03*
X2500D02*
D03*
X2450D02*
D03*
X2400D02*
D03*
D293*
X753Y2430D02*
D03*
D294*
X657D02*
D03*
D295*
X1413Y2425D02*
D03*
Y2475D02*
D03*
Y2525D02*
D03*
X1543Y2425D02*
D03*
Y2475D02*
D03*
Y2525D02*
D03*
D296*
X1690Y2435D02*
D03*
X1730D02*
D03*
Y2565D02*
D03*
X1690D02*
D03*
D297*
X1630Y2560D02*
D03*
Y2520D02*
D03*
Y2480D02*
D03*
Y2440D02*
D03*
X1790D02*
D03*
Y2480D02*
D03*
Y2520D02*
D03*
Y2560D02*
D03*
D298*
X2080Y2560D02*
D03*
X2040D02*
D03*
X2000D02*
D03*
X1960D02*
D03*
Y2320D02*
D03*
X2000D02*
D03*
X2040D02*
D03*
X2080D02*
D03*
D299*
X1940Y2500D02*
D03*
Y2460D02*
D03*
Y2420D02*
D03*
Y2380D02*
D03*
X2100D02*
D03*
Y2420D02*
D03*
Y2460D02*
D03*
D300*
X2095Y2500D02*
D03*
D301*
X2550Y3345D02*
D03*
Y3015D02*
D03*
D302*
X1137Y3319D02*
D03*
Y3447D02*
D03*
Y3574D02*
D03*
Y3701D02*
D03*
Y4260D02*
D03*
Y4133D02*
D03*
Y4006D02*
D03*
Y3879D02*
D03*
Y4440D02*
D03*
Y4567D02*
D03*
Y4694D02*
D03*
Y4821D02*
D03*
D303*
X1980Y3890D02*
D03*
X1400D02*
D03*
X1980Y4300D02*
D03*
X1400D02*
D03*
X1980Y4710D02*
D03*
D304*
X2124Y3430D02*
D03*
X2256D02*
D03*
D305*
X2938Y3340D02*
D03*
X2702D02*
D03*
D306*
X3260Y4800D02*
D03*
X3700D02*
D03*
D307*
X4092Y4515D02*
D03*
Y4465D02*
D03*
Y4415D02*
D03*
Y4365D02*
D03*
X4388D02*
D03*
Y4415D02*
D03*
Y4465D02*
D03*
Y4515D02*
D03*
D308*
X4165Y4292D02*
D03*
X4215D02*
D03*
X4265D02*
D03*
X4315D02*
D03*
Y4588D02*
D03*
X4265D02*
D03*
X4215D02*
D03*
X4165D02*
D03*
D309*
X3990Y1460D02*
D03*
Y1500D02*
D03*
Y1540D02*
D03*
Y1580D02*
D03*
Y1620D02*
D03*
Y1660D02*
D03*
Y1700D02*
D03*
Y1740D02*
D03*
Y1780D02*
D03*
Y1820D02*
D03*
Y1860D02*
D03*
Y1900D02*
D03*
Y1940D02*
D03*
Y1980D02*
D03*
Y2020D02*
D03*
Y2060D02*
D03*
Y2100D02*
D03*
Y2140D02*
D03*
Y2180D02*
D03*
Y2220D02*
D03*
Y2260D02*
D03*
Y2300D02*
D03*
Y2340D02*
D03*
Y2380D02*
D03*
Y2420D02*
D03*
Y2460D02*
D03*
Y2500D02*
D03*
Y2540D02*
D03*
Y2580D02*
D03*
Y2620D02*
D03*
Y2660D02*
D03*
Y2700D02*
D03*
X2490D02*
D03*
Y2660D02*
D03*
Y2620D02*
D03*
Y2580D02*
D03*
Y2540D02*
D03*
Y2500D02*
D03*
Y2460D02*
D03*
Y2420D02*
D03*
Y2380D02*
D03*
Y2340D02*
D03*
Y2300D02*
D03*
Y2260D02*
D03*
Y2220D02*
D03*
Y2180D02*
D03*
Y2140D02*
D03*
Y2100D02*
D03*
Y2060D02*
D03*
Y2020D02*
D03*
Y1980D02*
D03*
Y1940D02*
D03*
Y1900D02*
D03*
Y1860D02*
D03*
Y1820D02*
D03*
Y1780D02*
D03*
Y1740D02*
D03*
Y1700D02*
D03*
Y1660D02*
D03*
Y1620D02*
D03*
Y1580D02*
D03*
Y1540D02*
D03*
Y1500D02*
D03*
Y1460D02*
D03*
D310*
X3860Y2830D02*
D03*
X3820D02*
D03*
X3780D02*
D03*
X3740D02*
D03*
X3700D02*
D03*
X3660D02*
D03*
X3620D02*
D03*
X3580D02*
D03*
X3540D02*
D03*
X3500D02*
D03*
X3460D02*
D03*
X3420D02*
D03*
X3380D02*
D03*
X3340D02*
D03*
X3300D02*
D03*
X3260D02*
D03*
X3220D02*
D03*
X3180D02*
D03*
X3140D02*
D03*
X3100D02*
D03*
X3060D02*
D03*
X3020D02*
D03*
X2980D02*
D03*
X2940D02*
D03*
X2900D02*
D03*
X2860D02*
D03*
X2820D02*
D03*
X2780D02*
D03*
X2740D02*
D03*
X2700D02*
D03*
X2660D02*
D03*
X2620D02*
D03*
Y1330D02*
D03*
X2660D02*
D03*
X2700D02*
D03*
X2740D02*
D03*
X2780D02*
D03*
X2820D02*
D03*
X2860D02*
D03*
X2900D02*
D03*
X2940D02*
D03*
X2980D02*
D03*
X3020D02*
D03*
X3060D02*
D03*
X3100D02*
D03*
X3140D02*
D03*
X3180D02*
D03*
X3220D02*
D03*
X3260D02*
D03*
X3300D02*
D03*
X3340D02*
D03*
X3380D02*
D03*
X3420D02*
D03*
X3460D02*
D03*
X3500D02*
D03*
X3540D02*
D03*
X3580D02*
D03*
X3620D02*
D03*
X3660D02*
D03*
X3700D02*
D03*
X3740D02*
D03*
X3780D02*
D03*
X3820D02*
D03*
X3860D02*
D03*
D311*
X3360Y3100D02*
D03*
X3680D02*
D03*
D312*
X3845Y3650D02*
D03*
X3715D02*
D03*
Y3430D02*
D03*
X3780D02*
D03*
X3845D02*
D03*
D313*
X4315Y3125D02*
D03*
Y3060D02*
D03*
Y2995D02*
D03*
X4105D02*
D03*
Y3060D02*
D03*
Y3125D02*
D03*
D314*
X4470Y3090D02*
D03*
Y3270D02*
D03*
D315*
X4080Y4075D02*
D03*
Y3905D02*
D03*
D316*
X3520Y3572D02*
D03*
D317*
Y3227D02*
D03*
D318*
Y3440D02*
D03*
D319*
X3106Y4460D02*
D03*
Y4510D02*
D03*
Y4560D02*
D03*
X3234D02*
D03*
Y4510D02*
D03*
Y4460D02*
D03*
D320*
X1400Y4710D02*
D03*
M02*
