G04*
G04 #@! TF.GenerationSoftware,Altium Limited,Altium Designer,20.0.13 (296)*
G04*
G04 Layer_Physical_Order=8*
G04 Layer_Color=65280*
%FSLAX42Y42*%
%MOMM*%
G71*
G01*
G75*
%ADD10C,0.20*%
%ADD12C,0.15*%
%ADD99C,0.30*%
%ADD101C,0.45*%
G04:AMPARAMS|DCode=103|XSize=1.1mm|YSize=0.6mm|CornerRadius=0.06mm|HoleSize=0mm|Usage=FLASHONLY|Rotation=0.000|XOffset=0mm|YOffset=0mm|HoleType=Round|Shape=RoundedRectangle|*
%AMROUNDEDRECTD103*
21,1,1.10,0.48,0,0,0.0*
21,1,0.98,0.60,0,0,0.0*
1,1,0.12,0.49,-0.24*
1,1,0.12,-0.49,-0.24*
1,1,0.12,-0.49,0.24*
1,1,0.12,0.49,0.24*
%
%ADD103ROUNDEDRECTD103*%
%ADD105C,1.00*%
G04:AMPARAMS|DCode=109|XSize=0.5mm|YSize=0.55mm|CornerRadius=0.09mm|HoleSize=0mm|Usage=FLASHONLY|Rotation=270.000|XOffset=0mm|YOffset=0mm|HoleType=Round|Shape=RoundedRectangle|*
%AMROUNDEDRECTD109*
21,1,0.50,0.38,0,0,270.0*
21,1,0.33,0.55,0,0,270.0*
1,1,0.18,-0.19,-0.16*
1,1,0.18,-0.19,0.16*
1,1,0.18,0.19,0.16*
1,1,0.18,0.19,-0.16*
%
%ADD109ROUNDEDRECTD109*%
G04:AMPARAMS|DCode=110|XSize=0.5mm|YSize=0.55mm|CornerRadius=0.09mm|HoleSize=0mm|Usage=FLASHONLY|Rotation=0.000|XOffset=0mm|YOffset=0mm|HoleType=Round|Shape=RoundedRectangle|*
%AMROUNDEDRECTD110*
21,1,0.50,0.38,0,0,0.0*
21,1,0.33,0.55,0,0,0.0*
1,1,0.18,0.16,-0.19*
1,1,0.18,-0.16,-0.19*
1,1,0.18,-0.16,0.19*
1,1,0.18,0.16,0.19*
%
%ADD110ROUNDEDRECTD110*%
G04:AMPARAMS|DCode=111|XSize=1.15mm|YSize=1.45mm|CornerRadius=0.09mm|HoleSize=0mm|Usage=FLASHONLY|Rotation=270.000|XOffset=0mm|YOffset=0mm|HoleType=Round|Shape=RoundedRectangle|*
%AMROUNDEDRECTD111*
21,1,1.15,1.28,0,0,270.0*
21,1,0.98,1.45,0,0,270.0*
1,1,0.17,-0.64,-0.49*
1,1,0.17,-0.64,0.49*
1,1,0.17,0.64,0.49*
1,1,0.17,0.64,-0.49*
%
%ADD111ROUNDEDRECTD111*%
G04:AMPARAMS|DCode=116|XSize=0.8mm|YSize=0.8mm|CornerRadius=0.08mm|HoleSize=0mm|Usage=FLASHONLY|Rotation=270.000|XOffset=0mm|YOffset=0mm|HoleType=Round|Shape=RoundedRectangle|*
%AMROUNDEDRECTD116*
21,1,0.80,0.64,0,0,270.0*
21,1,0.64,0.80,0,0,270.0*
1,1,0.16,-0.32,-0.32*
1,1,0.16,-0.32,0.32*
1,1,0.16,0.32,0.32*
1,1,0.16,0.32,-0.32*
%
%ADD116ROUNDEDRECTD116*%
G04:AMPARAMS|DCode=118|XSize=0.3mm|YSize=0.7mm|CornerRadius=0.03mm|HoleSize=0mm|Usage=FLASHONLY|Rotation=270.000|XOffset=0mm|YOffset=0mm|HoleType=Round|Shape=RoundedRectangle|*
%AMROUNDEDRECTD118*
21,1,0.30,0.64,0,0,270.0*
21,1,0.24,0.70,0,0,270.0*
1,1,0.06,-0.32,-0.12*
1,1,0.06,-0.32,0.12*
1,1,0.06,0.32,0.12*
1,1,0.06,0.32,-0.12*
%
%ADD118ROUNDEDRECTD118*%
G04:AMPARAMS|DCode=125|XSize=0.41mm|YSize=0.15mm|CornerRadius=0.02mm|HoleSize=0mm|Usage=FLASHONLY|Rotation=90.000|XOffset=0mm|YOffset=0mm|HoleType=Round|Shape=RoundedRectangle|*
%AMROUNDEDRECTD125*
21,1,0.41,0.12,0,0,90.0*
21,1,0.38,0.15,0,0,90.0*
1,1,0.03,0.06,0.19*
1,1,0.03,0.06,-0.19*
1,1,0.03,-0.06,-0.19*
1,1,0.03,-0.06,0.19*
%
%ADD125ROUNDEDRECTD125*%
G04:AMPARAMS|DCode=132|XSize=1.15mm|YSize=1.45mm|CornerRadius=0.09mm|HoleSize=0mm|Usage=FLASHONLY|Rotation=180.000|XOffset=0mm|YOffset=0mm|HoleType=Round|Shape=RoundedRectangle|*
%AMROUNDEDRECTD132*
21,1,1.15,1.28,0,0,180.0*
21,1,0.98,1.45,0,0,180.0*
1,1,0.17,-0.49,0.64*
1,1,0.17,0.49,0.64*
1,1,0.17,0.49,-0.64*
1,1,0.17,-0.49,-0.64*
%
%ADD132ROUNDEDRECTD132*%
G04:AMPARAMS|DCode=134|XSize=0.8mm|YSize=0.99mm|CornerRadius=0.14mm|HoleSize=0mm|Usage=FLASHONLY|Rotation=180.000|XOffset=0mm|YOffset=0mm|HoleType=Round|Shape=RoundedRectangle|*
%AMROUNDEDRECTD134*
21,1,0.80,0.71,0,0,180.0*
21,1,0.52,0.99,0,0,180.0*
1,1,0.28,-0.26,0.36*
1,1,0.28,0.26,0.36*
1,1,0.28,0.26,-0.36*
1,1,0.28,-0.26,-0.36*
%
%ADD134ROUNDEDRECTD134*%
G04:AMPARAMS|DCode=139|XSize=0.3mm|YSize=0.66mm|CornerRadius=0.05mm|HoleSize=0mm|Usage=FLASHONLY|Rotation=180.000|XOffset=0mm|YOffset=0mm|HoleType=Round|Shape=RoundedRectangle|*
%AMROUNDEDRECTD139*
21,1,0.30,0.57,0,0,180.0*
21,1,0.21,0.66,0,0,180.0*
1,1,0.09,-0.11,0.28*
1,1,0.09,0.11,0.28*
1,1,0.09,0.11,-0.28*
1,1,0.09,-0.11,-0.28*
%
%ADD139ROUNDEDRECTD139*%
G04:AMPARAMS|DCode=145|XSize=0.8mm|YSize=0.99mm|CornerRadius=0.14mm|HoleSize=0mm|Usage=FLASHONLY|Rotation=90.000|XOffset=0mm|YOffset=0mm|HoleType=Round|Shape=RoundedRectangle|*
%AMROUNDEDRECTD145*
21,1,0.80,0.71,0,0,90.0*
21,1,0.52,0.99,0,0,90.0*
1,1,0.28,0.36,0.26*
1,1,0.28,0.36,-0.26*
1,1,0.28,-0.36,-0.26*
1,1,0.28,-0.36,0.26*
%
%ADD145ROUNDEDRECTD145*%
G04:AMPARAMS|DCode=146|XSize=0.41mm|YSize=0.15mm|CornerRadius=0.02mm|HoleSize=0mm|Usage=FLASHONLY|Rotation=180.000|XOffset=0mm|YOffset=0mm|HoleType=Round|Shape=RoundedRectangle|*
%AMROUNDEDRECTD146*
21,1,0.41,0.12,0,0,180.0*
21,1,0.38,0.15,0,0,180.0*
1,1,0.03,-0.19,0.06*
1,1,0.03,0.19,0.06*
1,1,0.03,0.19,-0.06*
1,1,0.03,-0.19,-0.06*
%
%ADD146ROUNDEDRECTD146*%
G04:AMPARAMS|DCode=158|XSize=0.5mm|YSize=0.5mm|CornerRadius=0.05mm|HoleSize=0mm|Usage=FLASHONLY|Rotation=270.000|XOffset=0mm|YOffset=0mm|HoleType=Round|Shape=RoundedRectangle|*
%AMROUNDEDRECTD158*
21,1,0.50,0.40,0,0,270.0*
21,1,0.40,0.50,0,0,270.0*
1,1,0.10,-0.20,-0.20*
1,1,0.10,-0.20,0.20*
1,1,0.10,0.20,0.20*
1,1,0.10,0.20,-0.20*
%
%ADD158ROUNDEDRECTD158*%
G04:AMPARAMS|DCode=163|XSize=0.6mm|YSize=0.24mm|CornerRadius=0.04mm|HoleSize=0mm|Usage=FLASHONLY|Rotation=0.000|XOffset=0mm|YOffset=0mm|HoleType=Round|Shape=RoundedRectangle|*
%AMROUNDEDRECTD163*
21,1,0.60,0.17,0,0,0.0*
21,1,0.53,0.24,0,0,0.0*
1,1,0.07,0.26,-0.08*
1,1,0.07,-0.26,-0.08*
1,1,0.07,-0.26,0.08*
1,1,0.07,0.26,0.08*
%
%ADD163ROUNDEDRECTD163*%
G04:AMPARAMS|DCode=164|XSize=0.6mm|YSize=0.24mm|CornerRadius=0.04mm|HoleSize=0mm|Usage=FLASHONLY|Rotation=90.000|XOffset=0mm|YOffset=0mm|HoleType=Round|Shape=RoundedRectangle|*
%AMROUNDEDRECTD164*
21,1,0.60,0.17,0,0,90.0*
21,1,0.53,0.24,0,0,90.0*
1,1,0.07,0.08,0.26*
1,1,0.07,0.08,-0.26*
1,1,0.07,-0.08,-0.26*
1,1,0.07,-0.08,0.26*
%
%ADD164ROUNDEDRECTD164*%
G04:AMPARAMS|DCode=172|XSize=0.6mm|YSize=0.8mm|CornerRadius=0.06mm|HoleSize=0mm|Usage=FLASHONLY|Rotation=180.000|XOffset=0mm|YOffset=0mm|HoleType=Round|Shape=RoundedRectangle|*
%AMROUNDEDRECTD172*
21,1,0.60,0.68,0,0,180.0*
21,1,0.48,0.80,0,0,180.0*
1,1,0.12,-0.24,0.34*
1,1,0.12,0.24,0.34*
1,1,0.12,0.24,-0.34*
1,1,0.12,-0.24,-0.34*
%
%ADD172ROUNDEDRECTD172*%
G04:AMPARAMS|DCode=177|XSize=0.5mm|YSize=0.5mm|CornerRadius=0.05mm|HoleSize=0mm|Usage=FLASHONLY|Rotation=0.000|XOffset=0mm|YOffset=0mm|HoleType=Round|Shape=RoundedRectangle|*
%AMROUNDEDRECTD177*
21,1,0.50,0.40,0,0,0.0*
21,1,0.40,0.50,0,0,0.0*
1,1,0.10,0.20,-0.20*
1,1,0.10,-0.20,-0.20*
1,1,0.10,-0.20,0.20*
1,1,0.10,0.20,0.20*
%
%ADD177ROUNDEDRECTD177*%
%ADD182C,0.15*%
%ADD183C,0.30*%
%ADD184C,0.40*%
%ADD186C,0.25*%
%ADD187C,0.60*%
%ADD188C,0.20*%
%ADD189C,0.50*%
%ADD193R,1.80X1.80*%
%ADD194C,1.50*%
%ADD195O,2.10X1.10*%
%ADD196O,3.60X1.10*%
%ADD197O,3.00X1.20*%
%ADD198C,0.90*%
%ADD199C,0.35*%
%ADD200C,0.99*%
%ADD201C,0.50*%
%ADD202C,0.60*%
G04:AMPARAMS|DCode=203|XSize=1.79mm|YSize=0.22mm|CornerRadius=0.03mm|HoleSize=0mm|Usage=FLASHONLY|Rotation=180.000|XOffset=0mm|YOffset=0mm|HoleType=Round|Shape=RoundedRectangle|*
%AMROUNDEDRECTD203*
21,1,1.79,0.15,0,0,180.0*
21,1,1.72,0.22,0,0,180.0*
1,1,0.07,-0.86,0.08*
1,1,0.07,0.86,0.08*
1,1,0.07,0.86,-0.08*
1,1,0.07,-0.86,-0.08*
%
%ADD203ROUNDEDRECTD203*%
G04:AMPARAMS|DCode=204|XSize=1.79mm|YSize=0.24mm|CornerRadius=0.04mm|HoleSize=0mm|Usage=FLASHONLY|Rotation=180.000|XOffset=0mm|YOffset=0mm|HoleType=Round|Shape=RoundedRectangle|*
%AMROUNDEDRECTD204*
21,1,1.79,0.17,0,0,180.0*
21,1,1.72,0.24,0,0,180.0*
1,1,0.07,-0.86,0.08*
1,1,0.07,0.86,0.08*
1,1,0.07,0.86,-0.08*
1,1,0.07,-0.86,-0.08*
%
%ADD204ROUNDEDRECTD204*%
G04:AMPARAMS|DCode=205|XSize=0.4mm|YSize=0.48mm|CornerRadius=0.04mm|HoleSize=0mm|Usage=FLASHONLY|Rotation=0.000|XOffset=0mm|YOffset=0mm|HoleType=Round|Shape=RoundedRectangle|*
%AMROUNDEDRECTD205*
21,1,0.40,0.40,0,0,0.0*
21,1,0.32,0.48,0,0,0.0*
1,1,0.08,0.16,-0.20*
1,1,0.08,-0.16,-0.20*
1,1,0.08,-0.16,0.20*
1,1,0.08,0.16,0.20*
%
%ADD205ROUNDEDRECTD205*%
G04:AMPARAMS|DCode=206|XSize=0.8mm|YSize=0.25mm|CornerRadius=0.13mm|HoleSize=0mm|Usage=FLASHONLY|Rotation=180.000|XOffset=0mm|YOffset=0mm|HoleType=Round|Shape=RoundedRectangle|*
%AMROUNDEDRECTD206*
21,1,0.80,0.00,0,0,180.0*
21,1,0.55,0.25,0,0,180.0*
1,1,0.25,-0.28,0.00*
1,1,0.25,0.28,0.00*
1,1,0.25,0.28,0.00*
1,1,0.25,-0.28,0.00*
%
%ADD206ROUNDEDRECTD206*%
G04:AMPARAMS|DCode=207|XSize=0.38mm|YSize=0.3mm|CornerRadius=0.03mm|HoleSize=0mm|Usage=FLASHONLY|Rotation=90.000|XOffset=0mm|YOffset=0mm|HoleType=Round|Shape=RoundedRectangle|*
%AMROUNDEDRECTD207*
21,1,0.38,0.24,0,0,90.0*
21,1,0.32,0.30,0,0,90.0*
1,1,0.06,0.12,0.16*
1,1,0.06,0.12,-0.16*
1,1,0.06,-0.12,-0.16*
1,1,0.06,-0.12,0.16*
%
%ADD207ROUNDEDRECTD207*%
G04:AMPARAMS|DCode=208|XSize=0.4mm|YSize=0.4mm|CornerRadius=0.04mm|HoleSize=0mm|Usage=FLASHONLY|Rotation=90.000|XOffset=0mm|YOffset=0mm|HoleType=Round|Shape=RoundedRectangle|*
%AMROUNDEDRECTD208*
21,1,0.40,0.32,0,0,90.0*
21,1,0.32,0.40,0,0,90.0*
1,1,0.08,0.16,0.16*
1,1,0.08,0.16,-0.16*
1,1,0.08,-0.16,-0.16*
1,1,0.08,-0.16,0.16*
%
%ADD208ROUNDEDRECTD208*%
G04:AMPARAMS|DCode=209|XSize=0.73mm|YSize=0.52mm|CornerRadius=0.05mm|HoleSize=0mm|Usage=FLASHONLY|Rotation=90.000|XOffset=0mm|YOffset=0mm|HoleType=Round|Shape=RoundedRectangle|*
%AMROUNDEDRECTD209*
21,1,0.73,0.42,0,0,90.0*
21,1,0.62,0.52,0,0,90.0*
1,1,0.10,0.21,0.31*
1,1,0.10,0.21,-0.31*
1,1,0.10,-0.21,-0.31*
1,1,0.10,-0.21,0.31*
%
%ADD209ROUNDEDRECTD209*%
G04:AMPARAMS|DCode=210|XSize=0.1mm|YSize=0.1mm|CornerRadius=0.01mm|HoleSize=0mm|Usage=FLASHONLY|Rotation=270.000|XOffset=0mm|YOffset=0mm|HoleType=Round|Shape=RoundedRectangle|*
%AMROUNDEDRECTD210*
21,1,0.10,0.08,0,0,270.0*
21,1,0.08,0.10,0,0,270.0*
1,1,0.02,-0.04,-0.04*
1,1,0.02,-0.04,0.04*
1,1,0.02,0.04,0.04*
1,1,0.02,0.04,-0.04*
%
%ADD210ROUNDEDRECTD210*%
G04:AMPARAMS|DCode=211|XSize=2.68mm|YSize=2.68mm|CornerRadius=0.13mm|HoleSize=0mm|Usage=FLASHONLY|Rotation=90.000|XOffset=0mm|YOffset=0mm|HoleType=Round|Shape=RoundedRectangle|*
%AMROUNDEDRECTD211*
21,1,2.68,2.41,0,0,90.0*
21,1,2.41,2.68,0,0,90.0*
1,1,0.27,1.21,1.21*
1,1,0.27,1.21,-1.21*
1,1,0.27,-1.21,-1.21*
1,1,0.27,-1.21,1.21*
%
%ADD211ROUNDEDRECTD211*%
%ADD212O,0.80X0.25*%
%ADD213O,0.25X0.80*%
G04:AMPARAMS|DCode=214|XSize=0.8mm|YSize=0.5mm|CornerRadius=0.05mm|HoleSize=0mm|Usage=FLASHONLY|Rotation=90.000|XOffset=0mm|YOffset=0mm|HoleType=Round|Shape=RoundedRectangle|*
%AMROUNDEDRECTD214*
21,1,0.80,0.40,0,0,90.0*
21,1,0.70,0.50,0,0,90.0*
1,1,0.10,0.20,0.35*
1,1,0.10,0.20,-0.35*
1,1,0.10,-0.20,-0.35*
1,1,0.10,-0.20,0.35*
%
%ADD214ROUNDEDRECTD214*%
G04:AMPARAMS|DCode=215|XSize=0.3mm|YSize=0.66mm|CornerRadius=0.05mm|HoleSize=0mm|Usage=FLASHONLY|Rotation=90.000|XOffset=0mm|YOffset=0mm|HoleType=Round|Shape=RoundedRectangle|*
%AMROUNDEDRECTD215*
21,1,0.30,0.57,0,0,90.0*
21,1,0.21,0.66,0,0,90.0*
1,1,0.09,0.28,0.11*
1,1,0.09,0.28,-0.11*
1,1,0.09,-0.28,-0.11*
1,1,0.09,-0.28,0.11*
%
%ADD215ROUNDEDRECTD215*%
G04:AMPARAMS|DCode=216|XSize=0.3mm|YSize=0.5mm|CornerRadius=0.03mm|HoleSize=0mm|Usage=FLASHONLY|Rotation=90.000|XOffset=0mm|YOffset=0mm|HoleType=Round|Shape=RoundedRectangle|*
%AMROUNDEDRECTD216*
21,1,0.30,0.44,0,0,90.0*
21,1,0.24,0.50,0,0,90.0*
1,1,0.06,0.22,0.12*
1,1,0.06,0.22,-0.12*
1,1,0.06,-0.22,-0.12*
1,1,0.06,-0.22,0.12*
%
%ADD216ROUNDEDRECTD216*%
G04:AMPARAMS|DCode=217|XSize=0.4mm|YSize=1.4mm|CornerRadius=0.04mm|HoleSize=0mm|Usage=FLASHONLY|Rotation=90.000|XOffset=0mm|YOffset=0mm|HoleType=Round|Shape=RoundedRectangle|*
%AMROUNDEDRECTD217*
21,1,0.40,1.32,0,0,90.0*
21,1,0.32,1.40,0,0,90.0*
1,1,0.08,0.66,0.16*
1,1,0.08,0.66,-0.16*
1,1,0.08,-0.66,-0.16*
1,1,0.08,-0.66,0.16*
%
%ADD217ROUNDEDRECTD217*%
G04:AMPARAMS|DCode=218|XSize=0.25mm|YSize=0.7mm|CornerRadius=0.03mm|HoleSize=0mm|Usage=FLASHONLY|Rotation=270.000|XOffset=0mm|YOffset=0mm|HoleType=Round|Shape=RoundedRectangle|*
%AMROUNDEDRECTD218*
21,1,0.25,0.65,0,0,270.0*
21,1,0.20,0.70,0,0,270.0*
1,1,0.05,-0.33,-0.10*
1,1,0.05,-0.33,0.10*
1,1,0.05,0.33,0.10*
1,1,0.05,0.33,-0.10*
%
%ADD218ROUNDEDRECTD218*%
G04:AMPARAMS|DCode=219|XSize=1.35mm|YSize=1.65mm|CornerRadius=0.14mm|HoleSize=0mm|Usage=FLASHONLY|Rotation=90.000|XOffset=0mm|YOffset=0mm|HoleType=Round|Shape=RoundedRectangle|*
%AMROUNDEDRECTD219*
21,1,1.35,1.38,0,0,90.0*
21,1,1.08,1.65,0,0,90.0*
1,1,0.27,0.69,0.54*
1,1,0.27,0.69,-0.54*
1,1,0.27,-0.69,-0.54*
1,1,0.27,-0.69,0.54*
%
%ADD219ROUNDEDRECTD219*%
G04:AMPARAMS|DCode=220|XSize=1.65mm|YSize=3.68mm|CornerRadius=0.08mm|HoleSize=0mm|Usage=FLASHONLY|Rotation=0.000|XOffset=0mm|YOffset=0mm|HoleType=Round|Shape=RoundedRectangle|*
%AMROUNDEDRECTD220*
21,1,1.65,3.52,0,0,0.0*
21,1,1.49,3.68,0,0,0.0*
1,1,0.17,0.74,-1.76*
1,1,0.17,-0.74,-1.76*
1,1,0.17,-0.74,1.76*
1,1,0.17,0.74,1.76*
%
%ADD220ROUNDEDRECTD220*%
G04:AMPARAMS|DCode=221|XSize=0.3mm|YSize=0.6mm|CornerRadius=0.03mm|HoleSize=0mm|Usage=FLASHONLY|Rotation=270.000|XOffset=0mm|YOffset=0mm|HoleType=Round|Shape=RoundedRectangle|*
%AMROUNDEDRECTD221*
21,1,0.30,0.54,0,0,270.0*
21,1,0.24,0.60,0,0,270.0*
1,1,0.06,-0.27,-0.12*
1,1,0.06,-0.27,0.12*
1,1,0.06,0.27,0.12*
1,1,0.06,0.27,-0.12*
%
%ADD221ROUNDEDRECTD221*%
G04:AMPARAMS|DCode=222|XSize=0.3mm|YSize=0.6mm|CornerRadius=0.03mm|HoleSize=0mm|Usage=FLASHONLY|Rotation=0.000|XOffset=0mm|YOffset=0mm|HoleType=Round|Shape=RoundedRectangle|*
%AMROUNDEDRECTD222*
21,1,0.30,0.54,0,0,0.0*
21,1,0.24,0.60,0,0,0.0*
1,1,0.06,0.12,-0.27*
1,1,0.06,-0.12,-0.27*
1,1,0.06,-0.12,0.27*
1,1,0.06,0.12,0.27*
%
%ADD222ROUNDEDRECTD222*%
G04:AMPARAMS|DCode=223|XSize=0.55mm|YSize=0.8mm|CornerRadius=0.06mm|HoleSize=0mm|Usage=FLASHONLY|Rotation=0.000|XOffset=0mm|YOffset=0mm|HoleType=Round|Shape=RoundedRectangle|*
%AMROUNDEDRECTD223*
21,1,0.55,0.69,0,0,0.0*
21,1,0.44,0.80,0,0,0.0*
1,1,0.11,0.22,-0.35*
1,1,0.11,-0.22,-0.35*
1,1,0.11,-0.22,0.35*
1,1,0.11,0.22,0.35*
%
%ADD223ROUNDEDRECTD223*%
G04:AMPARAMS|DCode=224|XSize=1.65mm|YSize=3.68mm|CornerRadius=0.08mm|HoleSize=0mm|Usage=FLASHONLY|Rotation=270.000|XOffset=0mm|YOffset=0mm|HoleType=Round|Shape=RoundedRectangle|*
%AMROUNDEDRECTD224*
21,1,1.65,3.52,0,0,270.0*
21,1,1.49,3.68,0,0,270.0*
1,1,0.17,-1.76,-0.74*
1,1,0.17,-1.76,0.74*
1,1,0.17,1.76,0.74*
1,1,0.17,1.76,-0.74*
%
%ADD224ROUNDEDRECTD224*%
%ADD225C,0.79*%
G04:AMPARAMS|DCode=226|XSize=1.65mm|YSize=1.3mm|CornerRadius=0.13mm|HoleSize=0mm|Usage=FLASHONLY|Rotation=0.000|XOffset=0mm|YOffset=0mm|HoleType=Round|Shape=RoundedRectangle|*
%AMROUNDEDRECTD226*
21,1,1.65,1.04,0,0,0.0*
21,1,1.39,1.30,0,0,0.0*
1,1,0.26,0.69,-0.52*
1,1,0.26,-0.69,-0.52*
1,1,0.26,-0.69,0.52*
1,1,0.26,0.69,0.52*
%
%ADD226ROUNDEDRECTD226*%
G04:AMPARAMS|DCode=227|XSize=1.4mm|YSize=1.3mm|CornerRadius=0.13mm|HoleSize=0mm|Usage=FLASHONLY|Rotation=180.000|XOffset=0mm|YOffset=0mm|HoleType=Round|Shape=RoundedRectangle|*
%AMROUNDEDRECTD227*
21,1,1.40,1.04,0,0,180.0*
21,1,1.14,1.30,0,0,180.0*
1,1,0.26,-0.57,0.52*
1,1,0.26,0.57,0.52*
1,1,0.26,0.57,-0.52*
1,1,0.26,-0.57,-0.52*
%
%ADD227ROUNDEDRECTD227*%
G04:AMPARAMS|DCode=228|XSize=0.3mm|YSize=1mm|CornerRadius=0.03mm|HoleSize=0mm|Usage=FLASHONLY|Rotation=180.000|XOffset=0mm|YOffset=0mm|HoleType=Round|Shape=RoundedRectangle|*
%AMROUNDEDRECTD228*
21,1,0.30,0.94,0,0,180.0*
21,1,0.24,1.00,0,0,180.0*
1,1,0.06,-0.12,0.47*
1,1,0.06,0.12,0.47*
1,1,0.06,0.12,-0.47*
1,1,0.06,-0.12,-0.47*
%
%ADD228ROUNDEDRECTD228*%
G04:AMPARAMS|DCode=229|XSize=0.65mm|YSize=0.7mm|CornerRadius=0.07mm|HoleSize=0mm|Usage=FLASHONLY|Rotation=180.000|XOffset=0mm|YOffset=0mm|HoleType=Round|Shape=RoundedRectangle|*
%AMROUNDEDRECTD229*
21,1,0.65,0.57,0,0,180.0*
21,1,0.52,0.70,0,0,180.0*
1,1,0.13,-0.26,0.28*
1,1,0.13,0.26,0.28*
1,1,0.13,0.26,-0.28*
1,1,0.13,-0.26,-0.28*
%
%ADD229ROUNDEDRECTD229*%
G04:AMPARAMS|DCode=230|XSize=0.45mm|YSize=0.7mm|CornerRadius=0.05mm|HoleSize=0mm|Usage=FLASHONLY|Rotation=180.000|XOffset=0mm|YOffset=0mm|HoleType=Round|Shape=RoundedRectangle|*
%AMROUNDEDRECTD230*
21,1,0.45,0.61,0,0,180.0*
21,1,0.36,0.70,0,0,180.0*
1,1,0.09,-0.18,0.31*
1,1,0.09,0.18,0.31*
1,1,0.09,0.18,-0.31*
1,1,0.09,-0.18,-0.31*
%
%ADD230ROUNDEDRECTD230*%
G04:AMPARAMS|DCode=231|XSize=0.25mm|YSize=0.6mm|CornerRadius=0.03mm|HoleSize=0mm|Usage=FLASHONLY|Rotation=90.000|XOffset=0mm|YOffset=0mm|HoleType=Round|Shape=RoundedRectangle|*
%AMROUNDEDRECTD231*
21,1,0.25,0.55,0,0,90.0*
21,1,0.20,0.60,0,0,90.0*
1,1,0.05,0.28,0.10*
1,1,0.05,0.28,-0.10*
1,1,0.05,-0.28,-0.10*
1,1,0.05,-0.28,0.10*
%
%ADD231ROUNDEDRECTD231*%
G04:AMPARAMS|DCode=232|XSize=0.2mm|YSize=0.9mm|CornerRadius=0.02mm|HoleSize=0mm|Usage=FLASHONLY|Rotation=0.000|XOffset=0mm|YOffset=0mm|HoleType=Round|Shape=RoundedRectangle|*
%AMROUNDEDRECTD232*
21,1,0.20,0.86,0,0,0.0*
21,1,0.16,0.90,0,0,0.0*
1,1,0.04,0.08,-0.43*
1,1,0.04,-0.08,-0.43*
1,1,0.04,-0.08,0.43*
1,1,0.04,0.08,0.43*
%
%ADD232ROUNDEDRECTD232*%
G04:AMPARAMS|DCode=233|XSize=0.2mm|YSize=0.6mm|CornerRadius=0.02mm|HoleSize=0mm|Usage=FLASHONLY|Rotation=270.000|XOffset=0mm|YOffset=0mm|HoleType=Round|Shape=RoundedRectangle|*
%AMROUNDEDRECTD233*
21,1,0.20,0.56,0,0,270.0*
21,1,0.16,0.60,0,0,270.0*
1,1,0.04,-0.28,-0.08*
1,1,0.04,-0.28,0.08*
1,1,0.04,0.28,0.08*
1,1,0.04,0.28,-0.08*
%
%ADD233ROUNDEDRECTD233*%
G04:AMPARAMS|DCode=234|XSize=0.2mm|YSize=0.6mm|CornerRadius=0.05mm|HoleSize=0mm|Usage=FLASHONLY|Rotation=180.000|XOffset=0mm|YOffset=0mm|HoleType=Round|Shape=RoundedRectangle|*
%AMROUNDEDRECTD234*
21,1,0.20,0.50,0,0,180.0*
21,1,0.10,0.60,0,0,180.0*
1,1,0.10,-0.05,0.25*
1,1,0.10,0.05,0.25*
1,1,0.10,0.05,-0.25*
1,1,0.10,-0.05,-0.25*
%
%ADD234ROUNDEDRECTD234*%
G04:AMPARAMS|DCode=235|XSize=0.2mm|YSize=0.6mm|CornerRadius=0.05mm|HoleSize=0mm|Usage=FLASHONLY|Rotation=270.000|XOffset=0mm|YOffset=0mm|HoleType=Round|Shape=RoundedRectangle|*
%AMROUNDEDRECTD235*
21,1,0.20,0.50,0,0,270.0*
21,1,0.10,0.60,0,0,270.0*
1,1,0.10,-0.25,-0.05*
1,1,0.10,-0.25,0.05*
1,1,0.10,0.25,0.05*
1,1,0.10,0.25,-0.05*
%
%ADD235ROUNDEDRECTD235*%
G04:AMPARAMS|DCode=236|XSize=0.2mm|YSize=0.7mm|CornerRadius=0.05mm|HoleSize=0mm|Usage=FLASHONLY|Rotation=270.000|XOffset=0mm|YOffset=0mm|HoleType=Round|Shape=RoundedRectangle|*
%AMROUNDEDRECTD236*
21,1,0.20,0.60,0,0,270.0*
21,1,0.10,0.70,0,0,270.0*
1,1,0.10,-0.30,-0.05*
1,1,0.10,-0.30,0.05*
1,1,0.10,0.30,0.05*
1,1,0.10,0.30,-0.05*
%
%ADD236ROUNDEDRECTD236*%
G04:AMPARAMS|DCode=237|XSize=1.2mm|YSize=1.1mm|CornerRadius=0.11mm|HoleSize=0mm|Usage=FLASHONLY|Rotation=270.000|XOffset=0mm|YOffset=0mm|HoleType=Round|Shape=RoundedRectangle|*
%AMROUNDEDRECTD237*
21,1,1.20,0.88,0,0,270.0*
21,1,0.98,1.10,0,0,270.0*
1,1,0.22,-0.44,-0.49*
1,1,0.22,-0.44,0.49*
1,1,0.22,0.44,0.49*
1,1,0.22,0.44,-0.49*
%
%ADD237ROUNDEDRECTD237*%
G04:AMPARAMS|DCode=238|XSize=1.25mm|YSize=0.65mm|CornerRadius=0.07mm|HoleSize=0mm|Usage=FLASHONLY|Rotation=180.000|XOffset=0mm|YOffset=0mm|HoleType=Round|Shape=RoundedRectangle|*
%AMROUNDEDRECTD238*
21,1,1.25,0.52,0,0,180.0*
21,1,1.12,0.65,0,0,180.0*
1,1,0.13,-0.56,0.26*
1,1,0.13,0.56,0.26*
1,1,0.13,0.56,-0.26*
1,1,0.13,-0.56,-0.26*
%
%ADD238ROUNDEDRECTD238*%
G04:AMPARAMS|DCode=239|XSize=1.65mm|YSize=3.68mm|CornerRadius=0.17mm|HoleSize=0mm|Usage=FLASHONLY|Rotation=180.000|XOffset=0mm|YOffset=0mm|HoleType=Round|Shape=RoundedRectangle|*
%AMROUNDEDRECTD239*
21,1,1.65,3.35,0,0,180.0*
21,1,1.32,3.68,0,0,180.0*
1,1,0.33,-0.66,1.68*
1,1,0.33,0.66,1.68*
1,1,0.33,0.66,-1.68*
1,1,0.33,-0.66,-1.68*
%
%ADD239ROUNDEDRECTD239*%
G04:AMPARAMS|DCode=240|XSize=0.4mm|YSize=0.48mm|CornerRadius=0.04mm|HoleSize=0mm|Usage=FLASHONLY|Rotation=90.000|XOffset=0mm|YOffset=0mm|HoleType=Round|Shape=RoundedRectangle|*
%AMROUNDEDRECTD240*
21,1,0.40,0.40,0,0,90.0*
21,1,0.32,0.48,0,0,90.0*
1,1,0.08,0.20,0.16*
1,1,0.08,0.20,-0.16*
1,1,0.08,-0.20,-0.16*
1,1,0.08,-0.20,0.16*
%
%ADD240ROUNDEDRECTD240*%
G04:AMPARAMS|DCode=241|XSize=0.85mm|YSize=2.8mm|CornerRadius=0.09mm|HoleSize=0mm|Usage=FLASHONLY|Rotation=180.000|XOffset=0mm|YOffset=0mm|HoleType=Round|Shape=RoundedRectangle|*
%AMROUNDEDRECTD241*
21,1,0.85,2.63,0,0,180.0*
21,1,0.68,2.80,0,0,180.0*
1,1,0.17,-0.34,1.32*
1,1,0.17,0.34,1.32*
1,1,0.17,0.34,-1.32*
1,1,0.17,-0.34,-1.32*
%
%ADD241ROUNDEDRECTD241*%
G04:AMPARAMS|DCode=242|XSize=2.1mm|YSize=1.4mm|CornerRadius=0.14mm|HoleSize=0mm|Usage=FLASHONLY|Rotation=270.000|XOffset=0mm|YOffset=0mm|HoleType=Round|Shape=RoundedRectangle|*
%AMROUNDEDRECTD242*
21,1,2.10,1.12,0,0,270.0*
21,1,1.82,1.40,0,0,270.0*
1,1,0.28,-0.56,-0.91*
1,1,0.28,-0.56,0.91*
1,1,0.28,0.56,0.91*
1,1,0.28,0.56,-0.91*
%
%ADD242ROUNDEDRECTD242*%
G04:AMPARAMS|DCode=243|XSize=0.28mm|YSize=0.85mm|CornerRadius=0.14mm|HoleSize=0mm|Usage=FLASHONLY|Rotation=270.000|XOffset=0mm|YOffset=0mm|HoleType=Round|Shape=RoundedRectangle|*
%AMROUNDEDRECTD243*
21,1,0.28,0.57,0,0,270.0*
21,1,0.00,0.85,0,0,270.0*
1,1,0.28,-0.28,0.00*
1,1,0.28,-0.28,0.00*
1,1,0.28,0.28,0.00*
1,1,0.28,0.28,0.00*
%
%ADD243ROUNDEDRECTD243*%
G04:AMPARAMS|DCode=244|XSize=0.85mm|YSize=0.28mm|CornerRadius=0.14mm|HoleSize=0mm|Usage=FLASHONLY|Rotation=270.000|XOffset=0mm|YOffset=0mm|HoleType=Round|Shape=RoundedRectangle|*
%AMROUNDEDRECTD244*
21,1,0.85,0.00,0,0,270.0*
21,1,0.57,0.28,0,0,270.0*
1,1,0.28,0.00,-0.28*
1,1,0.28,0.00,0.28*
1,1,0.28,0.00,0.28*
1,1,0.28,0.00,-0.28*
%
%ADD244ROUNDEDRECTD244*%
G04:AMPARAMS|DCode=245|XSize=0.18mm|YSize=1mm|CornerRadius=0.02mm|HoleSize=0mm|Usage=FLASHONLY|Rotation=270.000|XOffset=0mm|YOffset=0mm|HoleType=Round|Shape=RoundedRectangle|*
%AMROUNDEDRECTD245*
21,1,0.18,0.96,0,0,270.0*
21,1,0.14,1.00,0,0,270.0*
1,1,0.04,-0.48,-0.07*
1,1,0.04,-0.48,0.07*
1,1,0.04,0.48,0.07*
1,1,0.04,0.48,-0.07*
%
%ADD245ROUNDEDRECTD245*%
G04:AMPARAMS|DCode=246|XSize=0.18mm|YSize=1mm|CornerRadius=0.02mm|HoleSize=0mm|Usage=FLASHONLY|Rotation=180.000|XOffset=0mm|YOffset=0mm|HoleType=Round|Shape=RoundedRectangle|*
%AMROUNDEDRECTD246*
21,1,0.18,0.96,0,0,180.0*
21,1,0.14,1.00,0,0,180.0*
1,1,0.04,-0.07,0.48*
1,1,0.04,0.07,0.48*
1,1,0.04,0.07,-0.48*
1,1,0.04,-0.07,-0.48*
%
%ADD246ROUNDEDRECTD246*%
G04:AMPARAMS|DCode=247|XSize=0.9mm|YSize=0.95mm|CornerRadius=0.09mm|HoleSize=0mm|Usage=FLASHONLY|Rotation=0.000|XOffset=0mm|YOffset=0mm|HoleType=Round|Shape=RoundedRectangle|*
%AMROUNDEDRECTD247*
21,1,0.90,0.77,0,0,0.0*
21,1,0.72,0.95,0,0,0.0*
1,1,0.18,0.36,-0.39*
1,1,0.18,-0.36,-0.39*
1,1,0.18,-0.36,0.39*
1,1,0.18,0.36,0.39*
%
%ADD247ROUNDEDRECTD247*%
G04:AMPARAMS|DCode=248|XSize=0.9mm|YSize=0.4mm|CornerRadius=0.04mm|HoleSize=0mm|Usage=FLASHONLY|Rotation=90.000|XOffset=0mm|YOffset=0mm|HoleType=Round|Shape=RoundedRectangle|*
%AMROUNDEDRECTD248*
21,1,0.90,0.32,0,0,90.0*
21,1,0.82,0.40,0,0,90.0*
1,1,0.08,0.16,0.41*
1,1,0.08,0.16,-0.41*
1,1,0.08,-0.16,-0.41*
1,1,0.08,-0.16,0.41*
%
%ADD248ROUNDEDRECTD248*%
G04:AMPARAMS|DCode=249|XSize=1.35mm|YSize=1mm|CornerRadius=0.1mm|HoleSize=0mm|Usage=FLASHONLY|Rotation=0.000|XOffset=0mm|YOffset=0mm|HoleType=Round|Shape=RoundedRectangle|*
%AMROUNDEDRECTD249*
21,1,1.35,0.80,0,0,0.0*
21,1,1.15,1.00,0,0,0.0*
1,1,0.20,0.58,-0.40*
1,1,0.20,-0.58,-0.40*
1,1,0.20,-0.58,0.40*
1,1,0.20,0.58,0.40*
%
%ADD249ROUNDEDRECTD249*%
G04:AMPARAMS|DCode=250|XSize=0.8mm|YSize=1mm|CornerRadius=0.14mm|HoleSize=0mm|Usage=FLASHONLY|Rotation=270.000|XOffset=0mm|YOffset=0mm|HoleType=Round|Shape=RoundedRectangle|*
%AMROUNDEDRECTD250*
21,1,0.80,0.72,0,0,270.0*
21,1,0.52,1.00,0,0,270.0*
1,1,0.28,-0.36,-0.26*
1,1,0.28,-0.36,0.26*
1,1,0.28,0.36,0.26*
1,1,0.28,0.36,-0.26*
%
%ADD250ROUNDEDRECTD250*%
G04:AMPARAMS|DCode=251|XSize=0.7mm|YSize=0.95mm|CornerRadius=0.07mm|HoleSize=0mm|Usage=FLASHONLY|Rotation=270.000|XOffset=0mm|YOffset=0mm|HoleType=Round|Shape=RoundedRectangle|*
%AMROUNDEDRECTD251*
21,1,0.70,0.81,0,0,270.0*
21,1,0.56,0.95,0,0,270.0*
1,1,0.14,-0.41,-0.28*
1,1,0.14,-0.41,0.28*
1,1,0.14,0.41,0.28*
1,1,0.14,0.41,-0.28*
%
%ADD251ROUNDEDRECTD251*%
G04:AMPARAMS|DCode=252|XSize=0.95mm|YSize=0.65mm|CornerRadius=0.07mm|HoleSize=0mm|Usage=FLASHONLY|Rotation=270.000|XOffset=0mm|YOffset=0mm|HoleType=Round|Shape=RoundedRectangle|*
%AMROUNDEDRECTD252*
21,1,0.95,0.52,0,0,270.0*
21,1,0.82,0.65,0,0,270.0*
1,1,0.13,-0.26,-0.41*
1,1,0.13,-0.26,0.41*
1,1,0.13,0.26,0.41*
1,1,0.13,0.26,-0.41*
%
%ADD252ROUNDEDRECTD252*%
G04:AMPARAMS|DCode=253|XSize=2mm|YSize=1.95mm|CornerRadius=0.2mm|HoleSize=0mm|Usage=FLASHONLY|Rotation=270.000|XOffset=0mm|YOffset=0mm|HoleType=Round|Shape=RoundedRectangle|*
%AMROUNDEDRECTD253*
21,1,2.00,1.56,0,0,270.0*
21,1,1.61,1.95,0,0,270.0*
1,1,0.39,-0.78,-0.81*
1,1,0.39,-0.78,0.81*
1,1,0.39,0.78,0.81*
1,1,0.39,0.78,-0.81*
%
%ADD253ROUNDEDRECTD253*%
G04:AMPARAMS|DCode=254|XSize=0.67mm|YSize=0.3mm|CornerRadius=0.03mm|HoleSize=0mm|Usage=FLASHONLY|Rotation=0.000|XOffset=0mm|YOffset=0mm|HoleType=Round|Shape=RoundedRectangle|*
%AMROUNDEDRECTD254*
21,1,0.67,0.24,0,0,0.0*
21,1,0.61,0.30,0,0,0.0*
1,1,0.06,0.31,-0.12*
1,1,0.06,-0.31,-0.12*
1,1,0.06,-0.31,0.12*
1,1,0.06,0.31,0.12*
%
%ADD254ROUNDEDRECTD254*%
G04:AMPARAMS|DCode=255|XSize=1.65mm|YSize=3.68mm|CornerRadius=0.33mm|HoleSize=0mm|Usage=FLASHONLY|Rotation=180.000|XOffset=0mm|YOffset=0mm|HoleType=Round|Shape=RoundedRectangle|*
%AMROUNDEDRECTD255*
21,1,1.65,3.02,0,0,180.0*
21,1,0.99,3.68,0,0,180.0*
1,1,0.66,-0.50,1.51*
1,1,0.66,0.50,1.51*
1,1,0.66,0.50,-1.51*
1,1,0.66,-0.50,-1.51*
%
%ADD255ROUNDEDRECTD255*%
%ADD256C,0.18*%
%ADD257C,0.35*%
%ADD258C,0.25*%
%ADD259R,1.65X2.10*%
%ADD260R,1.70X0.40*%
%ADD261P,0.65X4X180.0*%
%ADD262R,1.70X1.70*%
%ADD263R,1.00X1.60*%
G36*
X3186Y4950D02*
X3188Y4930D01*
X3182Y4929D01*
X3176Y4924D01*
X3176Y4924D01*
X3166Y4914D01*
X3161Y4908D01*
X3160Y4900D01*
Y4853D01*
X3141Y4846D01*
X3137Y4850D01*
X3108Y4866D01*
X3076Y4875D01*
X3044Y4875D01*
X3012Y4866D01*
X2983Y4850D01*
X2960Y4827D01*
X2944Y4798D01*
X2935Y4766D01*
Y4750D01*
X2935Y4734D01*
X2944Y4702D01*
X2960Y4673D01*
X2965Y4668D01*
X2962Y4655D01*
X2957Y4648D01*
X2949Y4646D01*
X2940Y4640D01*
X2920Y4620D01*
X2914Y4611D01*
X2904Y4604D01*
X2897Y4606D01*
X2848D01*
Y4510D01*
Y4414D01*
X2872D01*
X2884Y4400D01*
X2888Y4382D01*
X2898Y4368D01*
X2902Y4365D01*
Y4358D01*
X2897Y4350D01*
X2894Y4339D01*
Y4301D01*
X2897Y4290D01*
X2903Y4281D01*
X2910Y4276D01*
X2911Y4265D01*
X2910Y4254D01*
X2902Y4248D01*
X2891Y4238D01*
X2870Y4245D01*
X2870Y4245D01*
X2864Y4253D01*
X2856Y4259D01*
X2847Y4260D01*
X2790D01*
X2780Y4259D01*
X2772Y4253D01*
X2750Y4248D01*
X2747Y4249D01*
X2741Y4254D01*
Y4260D01*
X2742Y4262D01*
X2746Y4280D01*
X2742Y4298D01*
X2741Y4300D01*
Y4310D01*
X2742Y4312D01*
X2746Y4330D01*
X2742Y4348D01*
X2732Y4362D01*
X2718Y4372D01*
X2700Y4376D01*
X2682Y4372D01*
X2668Y4362D01*
X2658Y4348D01*
X2655Y4337D01*
X2635Y4339D01*
Y4367D01*
X2634Y4376D01*
X2629Y4384D01*
X2621Y4389D01*
X2612Y4390D01*
X2588D01*
X2579Y4389D01*
X2575Y4386D01*
X2571Y4389D01*
X2562Y4390D01*
X2538D01*
X2536Y4390D01*
X2536Y4391D01*
X2525Y4398D01*
X2520Y4399D01*
Y4381D01*
X2516Y4376D01*
X2515Y4367D01*
Y4320D01*
X2485D01*
Y4367D01*
X2484Y4376D01*
X2480Y4381D01*
Y4399D01*
X2479Y4399D01*
X2476Y4401D01*
X2470Y4410D01*
X2439Y4440D01*
X2430Y4446D01*
X2420Y4449D01*
X2317D01*
X2307Y4446D01*
X2304Y4444D01*
X2285Y4456D01*
X2286Y4458D01*
Y4490D01*
X2173D01*
Y4530D01*
X2286D01*
Y4562D01*
X2283Y4579D01*
X2273Y4593D01*
X2259Y4603D01*
X2242Y4606D01*
X2210D01*
X2210Y4910D01*
X2250Y4950D01*
X3186Y4950D01*
D02*
G37*
G36*
X4325Y4950D02*
X4338Y4930D01*
X4338Y4930D01*
X4336Y4912D01*
X4338Y4893D01*
X4345Y4877D01*
X4356Y4862D01*
X4371Y4851D01*
X4388Y4844D01*
X4406Y4841D01*
X4424Y4844D01*
X4441Y4851D01*
X4455Y4861D01*
X4460Y4861D01*
X4476Y4856D01*
X4477Y4850D01*
X4490Y4831D01*
X4495Y4827D01*
X4496Y4819D01*
X4494Y4804D01*
X4484Y4796D01*
X4472Y4781D01*
X4469Y4772D01*
X4450Y4766D01*
X4445Y4766D01*
X4441Y4769D01*
X4424Y4776D01*
X4406Y4779D01*
X4388Y4776D01*
X4383Y4774D01*
X4364Y4777D01*
X4358Y4784D01*
X4352Y4792D01*
X4338Y4802D01*
X4320Y4806D01*
X4302Y4802D01*
X4300Y4801D01*
X4290D01*
X4288Y4802D01*
X4274Y4805D01*
X4266Y4817D01*
X4263Y4825D01*
X4265Y4829D01*
X4268Y4840D01*
X4210D01*
Y4860D01*
X4190D01*
Y4916D01*
X4176Y4913D01*
X4163Y4904D01*
X4141Y4907D01*
X4134Y4914D01*
X4128Y4919D01*
X4120Y4920D01*
X4000D01*
X4000Y4920D01*
X3992Y4919D01*
X3986Y4914D01*
X3986Y4914D01*
X3973Y4902D01*
X3960Y4897D01*
X3947Y4902D01*
X3924Y4924D01*
X3918Y4929D01*
X3912Y4930D01*
X3914Y4950D01*
X4325Y4950D01*
D02*
G37*
G36*
X4879Y4749D02*
X4896Y4742D01*
X4914Y4740D01*
X4927Y4742D01*
X4942Y4706D01*
X4954Y4660D01*
X4960Y4614D01*
X4960Y4590D01*
X4960D01*
X4960Y4590D01*
X4960Y4185D01*
X4958Y4182D01*
X4940Y4170D01*
X4939Y4171D01*
X4891D01*
X4881Y4168D01*
X4872Y4163D01*
X4867Y4154D01*
X4865Y4144D01*
Y4076D01*
X4867Y4066D01*
X4871Y4059D01*
X4867Y4050D01*
X4861Y4041D01*
X4839D01*
X4834Y4048D01*
X4830Y4061D01*
X4834Y4066D01*
X4836Y4076D01*
Y4144D01*
X4834Y4154D01*
X4828Y4163D01*
X4819Y4168D01*
X4809Y4171D01*
X4761D01*
X4751Y4168D01*
X4745Y4164D01*
X4733Y4168D01*
X4726Y4174D01*
Y4209D01*
X4723Y4220D01*
X4717Y4229D01*
X4717Y4230D01*
Y4242D01*
X4733Y4259D01*
X4800D01*
Y4256D01*
X4802Y4246D01*
X4807Y4237D01*
X4816Y4232D01*
X4826Y4229D01*
X4874D01*
X4884Y4232D01*
X4893Y4237D01*
X4899Y4246D01*
X4901Y4256D01*
Y4324D01*
X4899Y4332D01*
X4900Y4338D01*
X4910Y4353D01*
X4917Y4354D01*
X4927Y4361D01*
X4933Y4370D01*
X4936Y4381D01*
Y4419D01*
X4933Y4430D01*
X4927Y4439D01*
Y4461D01*
X4933Y4470D01*
X4936Y4481D01*
Y4519D01*
X4933Y4530D01*
X4927Y4539D01*
X4917Y4546D01*
X4906Y4548D01*
X4874D01*
X4863Y4546D01*
X4853Y4539D01*
X4851Y4537D01*
X4850Y4536D01*
X4830D01*
X4829Y4537D01*
X4827Y4539D01*
X4817Y4546D01*
X4806Y4548D01*
X4774D01*
X4763Y4546D01*
X4758Y4542D01*
X4736Y4546D01*
X4735Y4546D01*
X4729Y4557D01*
X4732Y4565D01*
X4733Y4566D01*
X4736Y4580D01*
X4680D01*
Y4620D01*
X4736D01*
X4733Y4634D01*
X4724Y4647D01*
X4721Y4649D01*
X4726Y4670D01*
X4727Y4670D01*
X4741Y4679D01*
X4750Y4693D01*
X4764Y4691D01*
X4764Y4691D01*
X4787Y4686D01*
X4810Y4691D01*
X4830Y4704D01*
X4843Y4723D01*
X4848Y4747D01*
X4847Y4748D01*
X4863Y4759D01*
X4865Y4760D01*
X4879Y4749D01*
D02*
G37*
G36*
X840Y4860D02*
X980Y4860D01*
X980Y4860D01*
X982Y4860D01*
X986Y4858D01*
X988Y4856D01*
X990Y4852D01*
X990Y4850D01*
X990Y4660D01*
X990Y4660D01*
X990Y4658D01*
X988Y4654D01*
X986Y4652D01*
X982Y4650D01*
X980D01*
X840Y4650D01*
Y4650D01*
X813D01*
X550Y4650D01*
X548Y4650D01*
X548Y4650D01*
X540D01*
X500Y4610D01*
Y4350D01*
X380Y4230D01*
X380Y3950D01*
X270Y3840D01*
X100Y3840D01*
X80Y3860D01*
Y3980D01*
X100Y4000D01*
X220Y4000D01*
X280Y4060D01*
Y4710D01*
X430Y4860D01*
X840D01*
Y4860D01*
D02*
G37*
G36*
X550Y4650D02*
X550D01*
X550D01*
D01*
D02*
G37*
G36*
X1490Y4900D02*
X1510Y4880D01*
X1510Y4540D01*
X1490Y4520D01*
X1320Y4520D01*
X1300Y4540D01*
X1300Y4710D01*
X1250Y4760D01*
X1080Y4760D01*
X1060Y4780D01*
Y4880D01*
X1080Y4900D01*
X1490Y4900D01*
D02*
G37*
G36*
X2140Y4880D02*
X2140Y4610D01*
X2120Y4590D01*
X2090Y4590D01*
X2070Y4570D01*
X2070Y4540D01*
X2050Y4520D01*
X1840Y4520D01*
X1820Y4540D01*
X1820Y4880D01*
X1840Y4900D01*
X2120Y4900D01*
X2140Y4880D01*
D02*
G37*
G36*
X3940Y4880D02*
Y4700D01*
X3900Y4660D01*
Y4460D01*
X3890Y4450D01*
X3790D01*
X3780Y4460D01*
Y4640D01*
X3760Y4660D01*
X3580D01*
X3560Y4680D01*
Y4890D01*
X3580Y4910D01*
X3910D01*
X3940Y4880D01*
D02*
G37*
G36*
X4140D02*
Y4730D01*
X4180Y4690D01*
X4180Y4552D01*
X4172Y4545D01*
X4145Y4545D01*
X4135Y4535D01*
X4135Y4458D01*
X4127Y4450D01*
X3940Y4450D01*
X3930Y4460D01*
Y4650D01*
X3980Y4700D01*
Y4880D01*
X4000Y4900D01*
X4120D01*
X4140Y4880D01*
D02*
G37*
G36*
X990Y4604D02*
Y4602D01*
X990Y4602D01*
X990Y4601D01*
Y4600D01*
X990Y4600D01*
X990Y4563D01*
X990Y4350D01*
X970Y4330D01*
X550D01*
X530Y4350D01*
X530Y4600D01*
X550Y4620D01*
X974Y4620D01*
X990Y4604D01*
D02*
G37*
G36*
X1510Y4470D02*
Y4310D01*
X1510Y4110D01*
X1280Y4110D01*
X1200Y4190D01*
X1080Y4190D01*
X1060Y4210D01*
X1060Y4310D01*
X1080Y4330D01*
X1260Y4330D01*
X1300Y4370D01*
X1300Y4470D01*
X1320Y4490D01*
X1490Y4490D01*
X1510Y4470D01*
D02*
G37*
G36*
X2070Y4470D02*
Y4440D01*
X2090Y4420D01*
X2120Y4420D01*
X2140Y4400D01*
X2140Y4130D01*
X2120Y4110D01*
X1840D01*
X1820Y4130D01*
X1820Y4470D01*
X1840Y4490D01*
X2050Y4490D01*
X2070Y4470D01*
D02*
G37*
G36*
X890Y4300D02*
X980Y4300D01*
X980Y4300D01*
X982Y4300D01*
X986Y4298D01*
X988Y4296D01*
X990Y4292D01*
X990Y4290D01*
X990Y4100D01*
X990Y4100D01*
X990Y4098D01*
X988Y4094D01*
X986Y4092D01*
X982Y4090D01*
X980D01*
X890Y4090D01*
Y4090D01*
X811Y4090D01*
X550Y4090D01*
X548Y4090D01*
X548Y4090D01*
X530D01*
X500Y4060D01*
Y3750D01*
X390Y3640D01*
X100Y3640D01*
X80Y3660D01*
X80Y3780D01*
X100Y3800D01*
X280Y3800D01*
X410Y3930D01*
X410Y4210D01*
X500Y4300D01*
X890D01*
Y4300D01*
D02*
G37*
G36*
X550Y4090D02*
X550D01*
X550D01*
D01*
D02*
G37*
G36*
X3740Y4640D02*
X3760Y4620D01*
X3760Y4450D01*
X3768Y4442D01*
X3770Y4441D01*
X3776Y4436D01*
X3782Y4431D01*
X3788Y4430D01*
X3892D01*
X3898Y4431D01*
X3904Y4436D01*
X3915Y4437D01*
X3926Y4436D01*
X3932Y4431D01*
X3938Y4430D01*
X4280D01*
X4300Y4410D01*
Y4360D01*
X4280Y4340D01*
Y4230D01*
X4266Y4216D01*
X4274Y4201D01*
Y4171D01*
X4277Y4160D01*
X4282Y4151D01*
X4283Y4150D01*
Y4130D01*
X4282Y4129D01*
X4277Y4120D01*
X4274Y4109D01*
Y4071D01*
X4277Y4060D01*
X4283Y4051D01*
X4280Y4047D01*
X4277Y4030D01*
X4278Y4024D01*
X4271Y4018D01*
X4250Y4018D01*
X4246Y4021D01*
Y4075D01*
X4242Y4095D01*
X4231Y4111D01*
X4215Y4122D01*
X4195Y4126D01*
X4140D01*
X4129Y4133D01*
X4116Y4136D01*
X4044D01*
X4031Y4133D01*
X4020Y4126D01*
X4007Y4129D01*
X4000Y4132D01*
X3999Y4138D01*
X3994Y4144D01*
X3994Y4144D01*
X3964Y4174D01*
X3964Y4174D01*
X3962Y4180D01*
X3760D01*
X3720Y4140D01*
X3720Y3980D01*
X3720Y3980D01*
Y3971D01*
X3717Y3971D01*
X3707Y3963D01*
X3696Y3953D01*
X3578D01*
X3560Y3973D01*
Y3980D01*
X3560Y3980D01*
Y4620D01*
X3580Y4640D01*
X3740Y4640D01*
D02*
G37*
G36*
X4960Y4022D02*
X4960Y3164D01*
X4945Y3157D01*
X4940Y3157D01*
X4927Y3167D01*
X4910Y3174D01*
X4908Y3174D01*
X4904Y3179D01*
X4900Y3195D01*
X4909Y3210D01*
X4914Y3233D01*
X4909Y3256D01*
X4896Y3276D01*
X4882Y3285D01*
X4881Y3289D01*
Y3304D01*
X4882Y3308D01*
X4896Y3317D01*
X4909Y3337D01*
X4914Y3360D01*
X4909Y3383D01*
X4896Y3403D01*
X4882Y3412D01*
X4881Y3416D01*
Y3431D01*
X4882Y3435D01*
X4896Y3444D01*
X4909Y3464D01*
X4914Y3487D01*
X4909Y3510D01*
X4896Y3530D01*
X4877Y3543D01*
X4853Y3548D01*
X4852Y3547D01*
X4841Y3563D01*
X4840Y3565D01*
X4851Y3579D01*
X4858Y3596D01*
X4860Y3614D01*
X4858Y3632D01*
X4854Y3642D01*
X4851Y3649D01*
X4860Y3669D01*
X4861Y3669D01*
X4870Y3683D01*
X4873Y3700D01*
X4870Y3717D01*
X4861Y3731D01*
X4847Y3740D01*
X4843Y3741D01*
X4836Y3763D01*
X4838Y3774D01*
Y3806D01*
X4836Y3817D01*
X4833Y3821D01*
X4830Y3827D01*
X4837Y3846D01*
X4837Y3846D01*
X4845Y3859D01*
X4848Y3870D01*
X4790D01*
Y3910D01*
X4848D01*
X4845Y3921D01*
X4837Y3934D01*
X4824Y3943D01*
X4809Y3946D01*
X4788D01*
X4779Y3966D01*
X4793Y3979D01*
X4880D01*
X4880Y3979D01*
X4892Y3982D01*
X4902Y3988D01*
X4937Y4023D01*
X4940Y4028D01*
X4960Y4022D01*
D02*
G37*
G36*
X3540Y4890D02*
X3540Y3960D01*
X3380D01*
X3280Y4060D01*
Y4370D01*
X3310Y4400D01*
X3370Y4400D01*
X3400Y4430D01*
X3400Y4660D01*
X3380Y4680D01*
X3190D01*
X3180Y4690D01*
Y4900D01*
X3190Y4910D01*
X3520D01*
X3540Y4890D01*
D02*
G37*
G36*
X3980Y4130D02*
X3980Y3930D01*
X3950Y3900D01*
X3770Y3900D01*
X3740Y3930D01*
X3740Y4130D01*
X3770Y4160D01*
X3950Y4160D01*
X3980Y4130D01*
D02*
G37*
G36*
X4511Y4161D02*
X4511Y4161D01*
X4524Y4152D01*
X4528Y4148D01*
X4528Y4147D01*
X4532Y4130D01*
X4527Y4124D01*
X4524Y4110D01*
X4580D01*
Y4070D01*
X4524D01*
X4527Y4056D01*
X4536Y4043D01*
X4537Y4043D01*
X4538Y4038D01*
X4535Y4020D01*
X4532Y4018D01*
X4527Y4009D01*
X4524Y3999D01*
Y3951D01*
X4527Y3941D01*
X4532Y3932D01*
X4541Y3926D01*
X4551Y3924D01*
X4623D01*
X4631Y3904D01*
X4607Y3881D01*
X4510D01*
X4510Y3881D01*
X4498Y3878D01*
X4488Y3872D01*
X4488Y3872D01*
X4444Y3827D01*
X4438Y3828D01*
X4423Y3842D01*
X4426Y3856D01*
Y3860D01*
X4340D01*
Y3900D01*
X4426D01*
Y3904D01*
X4423Y3918D01*
X4415Y3930D01*
X4409Y3934D01*
X4413Y3941D01*
X4416Y3951D01*
Y3999D01*
X4413Y4009D01*
X4412Y4012D01*
X4420Y4031D01*
X4421Y4032D01*
X4436D01*
X4451Y4035D01*
X4464Y4043D01*
X4473Y4056D01*
X4476Y4070D01*
X4420D01*
Y4110D01*
X4476D01*
X4473Y4124D01*
X4472Y4125D01*
X4466Y4140D01*
X4472Y4155D01*
X4473Y4156D01*
X4475Y4169D01*
X4488Y4176D01*
X4494Y4179D01*
X4511Y4161D01*
D02*
G37*
G36*
X1510Y4060D02*
X1510Y3780D01*
Y3720D01*
X1430Y3640D01*
X1280Y3640D01*
X1080Y3640D01*
X1060Y3660D01*
X1060Y3760D01*
X1080Y3780D01*
X1250Y3780D01*
X1300Y3830D01*
X1300Y4060D01*
X1320Y4080D01*
X1490Y4080D01*
X1510Y4060D01*
D02*
G37*
G36*
X990Y4044D02*
Y4042D01*
X990Y4042D01*
X990Y4041D01*
Y4040D01*
X990Y4040D01*
X990Y4003D01*
X990Y3790D01*
X970Y3770D01*
X550D01*
X530Y3790D01*
X530Y4040D01*
X550Y4060D01*
X974Y4060D01*
X990Y4044D01*
D02*
G37*
G36*
X2140Y4060D02*
X2140Y3720D01*
X2120Y3700D01*
X1840D01*
X1820Y3720D01*
X1820Y4060D01*
X1840Y4080D01*
X2120Y4080D01*
X2140Y4060D01*
D02*
G37*
G36*
X960Y3740D02*
X980D01*
X980Y3740D01*
X982Y3740D01*
X986Y3738D01*
X988Y3736D01*
X990Y3732D01*
X990Y3730D01*
X990Y3540D01*
X990Y3540D01*
X990Y3538D01*
X988Y3534D01*
X986Y3532D01*
X982Y3530D01*
X980D01*
X960Y3530D01*
Y3530D01*
X802D01*
X550Y3530D01*
X548Y3530D01*
X548Y3530D01*
X530D01*
X500Y3500D01*
X500Y3300D01*
X480Y3280D01*
X100Y3280D01*
X80Y3300D01*
X80Y3580D01*
X100Y3600D01*
X400Y3600D01*
X540Y3740D01*
X960D01*
Y3740D01*
D02*
G37*
G36*
X4140Y3940D02*
Y3860D01*
X4050Y3770D01*
Y3640D01*
X3990Y3580D01*
X3840Y3580D01*
X3820Y3600D01*
X3820Y3830D01*
X3850Y3860D01*
X3940Y3860D01*
X4040Y3960D01*
X4120D01*
X4140Y3940D01*
D02*
G37*
G36*
X550Y3530D02*
X550D01*
X550D01*
D01*
D02*
G37*
G36*
X3800Y3840D02*
Y3715D01*
X3800Y3600D01*
X3800Y3600D01*
X3801Y3592D01*
X3801Y3592D01*
X3806Y3586D01*
X3806Y3586D01*
X3826Y3566D01*
X3826Y3566D01*
X3832Y3561D01*
X3832Y3561D01*
X3836Y3560D01*
X3840Y3560D01*
X3990Y3560D01*
X3998Y3561D01*
X4004Y3566D01*
X4004Y3566D01*
X4064Y3626D01*
X4064Y3626D01*
X4069Y3632D01*
X4070Y3640D01*
Y3747D01*
X4074Y3750D01*
X4094Y3739D01*
Y3724D01*
X4098Y3707D01*
X4107Y3693D01*
X4122Y3683D01*
X4139Y3680D01*
X4145D01*
Y3760D01*
X4185D01*
Y3680D01*
X4191D01*
X4208Y3683D01*
X4209Y3684D01*
X4215Y3675D01*
X4238Y3652D01*
X4239Y3648D01*
X4237Y3630D01*
X4235Y3627D01*
X4228Y3622D01*
X4218Y3608D01*
X4214Y3590D01*
X4218Y3572D01*
X4228Y3558D01*
X4242Y3548D01*
X4260Y3544D01*
X4278Y3548D01*
X4285Y3553D01*
X4292Y3548D01*
X4310Y3544D01*
X4328Y3548D01*
X4342Y3558D01*
X4362Y3551D01*
X4363Y3550D01*
X4380Y3547D01*
X4397Y3550D01*
X4411Y3559D01*
X4420Y3573D01*
X4423Y3590D01*
X4421Y3602D01*
X4423Y3611D01*
X4433Y3623D01*
X4437Y3624D01*
X4447Y3631D01*
X4449Y3633D01*
X4450Y3634D01*
X4470D01*
X4471Y3633D01*
X4473Y3631D01*
X4483Y3624D01*
X4494Y3622D01*
X4506D01*
X4511Y3617D01*
X4519Y3602D01*
X4517Y3590D01*
X4520Y3573D01*
X4529Y3559D01*
X4543Y3550D01*
X4560Y3547D01*
X4577Y3550D01*
X4591Y3559D01*
X4600Y3573D01*
X4603Y3590D01*
X4603Y3592D01*
X4619Y3612D01*
X4626D01*
X4629Y3612D01*
X4649Y3598D01*
Y3524D01*
X4649Y3524D01*
X4652Y3508D01*
X4659Y3499D01*
X4644Y3484D01*
X4644Y3484D01*
X4638Y3489D01*
X4630Y3490D01*
X4472Y3490D01*
X4470Y3491D01*
X4468Y3490D01*
X4440D01*
X4432Y3489D01*
X4426Y3484D01*
X4426Y3484D01*
X4400Y3459D01*
X4400Y3460D01*
X4340Y3400D01*
X3998D01*
X3992Y3399D01*
X3986Y3394D01*
X3986Y3394D01*
X3957Y3366D01*
X3952Y3365D01*
X3934Y3365D01*
X3932Y3367D01*
X3918Y3377D01*
X3900Y3381D01*
X3886Y3393D01*
Y3430D01*
X3886Y3430D01*
X3885Y3432D01*
Y3471D01*
X3884Y3480D01*
X3878Y3488D01*
X3870Y3494D01*
X3861Y3495D01*
X3829D01*
X3822Y3494D01*
X3821Y3496D01*
X3809Y3503D01*
X3800Y3505D01*
Y3430D01*
X3760D01*
Y3470D01*
Y3470D01*
X3760Y3472D01*
Y3505D01*
X3751Y3503D01*
X3741Y3497D01*
X3738Y3499D01*
X3730Y3500D01*
X3707Y3500D01*
X3704Y3510D01*
X3706Y3513D01*
X3719Y3527D01*
X3732Y3530D01*
X3746Y3539D01*
X3755Y3553D01*
X3758Y3570D01*
X3755Y3587D01*
X3750Y3594D01*
X3754Y3600D01*
X3755Y3609D01*
Y3691D01*
X3754Y3700D01*
X3748Y3708D01*
X3740Y3714D01*
X3731Y3715D01*
X3699D01*
X3690Y3714D01*
X3689Y3718D01*
X3684Y3724D01*
X3664Y3744D01*
X3658Y3749D01*
X3650Y3750D01*
X3410Y3750D01*
X3410Y3750D01*
X3402Y3749D01*
X3396Y3744D01*
X3376Y3724D01*
X3376Y3724D01*
X3371Y3718D01*
X3370Y3710D01*
X3370Y3362D01*
X3328Y3320D01*
X3313Y3322D01*
X3306Y3326D01*
X3305Y3331D01*
X3297Y3344D01*
X3296Y3345D01*
X3289Y3353D01*
X3296Y3363D01*
X3298Y3374D01*
Y3406D01*
X3296Y3417D01*
X3289Y3427D01*
X3287Y3429D01*
X3286Y3430D01*
Y3450D01*
X3287Y3451D01*
X3289Y3453D01*
X3296Y3463D01*
X3298Y3474D01*
Y3506D01*
X3296Y3517D01*
X3289Y3527D01*
X3288Y3528D01*
X3287Y3550D01*
X3287Y3551D01*
X3293Y3560D01*
X3296Y3571D01*
Y3609D01*
X3293Y3620D01*
X3287Y3629D01*
X3278Y3635D01*
Y3742D01*
X3276Y3752D01*
X3276Y3753D01*
X3275Y3755D01*
X3281Y3774D01*
X3283Y3777D01*
X3289Y3779D01*
X3304Y3790D01*
X3315Y3805D01*
X3322Y3822D01*
X3324Y3840D01*
X3322Y3858D01*
X3317Y3869D01*
X3327Y3885D01*
X3330Y3887D01*
X3753D01*
X3800Y3840D01*
D02*
G37*
G36*
X4630Y3470D02*
X4660Y3440D01*
X4660Y3240D01*
X4630Y3210D01*
X4390Y3210D01*
X4360Y3180D01*
X4360Y3120D01*
X4350Y3110D01*
X4280Y3110D01*
Y3180D01*
X4240Y3220D01*
X4240Y3300D01*
X4270Y3330D01*
X4370Y3330D01*
X4400Y3360D01*
X4400Y3430D01*
X4440Y3470D01*
X4630Y3470D01*
D02*
G37*
G36*
X3670Y3710D02*
Y3500D01*
X3660Y3490D01*
Y3350D01*
X3640Y3330D01*
X3410D01*
X3390Y3350D01*
X3390Y3710D01*
X3410Y3730D01*
X3650Y3730D01*
X3670Y3710D01*
D02*
G37*
G36*
X2780Y3490D02*
Y3210D01*
X2760Y3190D01*
X2500D01*
X2480Y3210D01*
X2480Y3430D01*
X2560Y3510D01*
X2760Y3510D01*
X2780Y3490D01*
D02*
G37*
G36*
X3590Y3270D02*
Y3180D01*
X3560Y3150D01*
X3440D01*
X3420Y3170D01*
X3420Y3270D01*
X3450Y3300D01*
X3560Y3300D01*
X3590Y3270D01*
D02*
G37*
G36*
X4180Y3350D02*
X4180Y3220D01*
X4140Y3180D01*
X4140Y3110D01*
X4070Y3110D01*
X3970Y3210D01*
X3970Y3350D01*
X4000Y3380D01*
X4150Y3380D01*
X4180Y3350D01*
D02*
G37*
G36*
X990Y3484D02*
Y3482D01*
X990Y3482D01*
X990Y3481D01*
Y3480D01*
X990Y3480D01*
X990Y3448D01*
Y3300D01*
X990Y3110D01*
X960Y3080D01*
X590Y3080D01*
X560Y3110D01*
X560Y3180D01*
X530Y3210D01*
X530Y3480D01*
X550Y3500D01*
X974Y3500D01*
X990Y3484D01*
D02*
G37*
G36*
X3950Y3200D02*
X4020Y3130D01*
Y3080D01*
X4020D01*
X4000Y3060D01*
X3920D01*
X3780Y3200D01*
Y3290D01*
X3950D01*
Y3200D01*
D02*
G37*
G36*
X3730Y3480D02*
X3740Y3470D01*
X3740Y3310D01*
X3760Y3290D01*
X3760Y3190D01*
X3830Y3120D01*
X3850Y3100D01*
X3850Y3060D01*
X3840Y3050D01*
X3630Y3050D01*
X3610Y3070D01*
X3610Y3270D01*
X3680Y3340D01*
X3680Y3470D01*
X3690Y3480D01*
X3730Y3480D01*
D02*
G37*
G36*
X1539Y3050D02*
X1542Y3039D01*
X1548Y3029D01*
X1557Y3023D01*
X1568Y3021D01*
X1605D01*
X1613Y3002D01*
X1587Y2977D01*
X1565Y2977D01*
X1562Y2979D01*
X1561Y2981D01*
X1547Y2990D01*
X1530Y2993D01*
X1513Y2990D01*
X1499Y2981D01*
X1490Y2967D01*
X1487Y2950D01*
X1490Y2933D01*
X1499Y2920D01*
X1498Y2917D01*
X1490Y2901D01*
X1480Y2903D01*
X1463Y2900D01*
X1449Y2891D01*
X1440Y2877D01*
X1437Y2860D01*
X1440Y2843D01*
X1449Y2829D01*
X1463Y2820D01*
X1480Y2817D01*
X1497Y2820D01*
X1511Y2829D01*
X1519Y2843D01*
X1521Y2843D01*
X1539Y2837D01*
Y2827D01*
X1542Y2816D01*
X1548Y2806D01*
X1557Y2800D01*
X1557Y2800D01*
X1558Y2780D01*
X1540Y2768D01*
Y2710D01*
Y2652D01*
X1551Y2655D01*
X1559Y2660D01*
X1576Y2654D01*
X1579Y2651D01*
Y2576D01*
X1571Y2559D01*
X1560Y2558D01*
X1515D01*
X1506Y2556D01*
X1499Y2551D01*
X1494Y2544D01*
X1492Y2535D01*
Y2515D01*
X1494Y2506D01*
X1498Y2500D01*
X1494Y2494D01*
X1492Y2485D01*
Y2465D01*
X1493Y2459D01*
X1492Y2458D01*
X1484Y2448D01*
X1484Y2447D01*
X1463Y2445D01*
X1459Y2454D01*
X1461Y2456D01*
X1463Y2465D01*
Y2485D01*
X1461Y2494D01*
X1457Y2500D01*
X1461Y2506D01*
X1463Y2515D01*
Y2535D01*
X1461Y2544D01*
X1456Y2551D01*
X1458Y2558D01*
X1462Y2571D01*
X1470Y2583D01*
X1473Y2600D01*
X1470Y2617D01*
X1461Y2631D01*
X1447Y2640D01*
X1430Y2643D01*
X1429Y2643D01*
X1429Y2644D01*
X1420Y2657D01*
X1418Y2661D01*
X1419Y2662D01*
X1420Y2670D01*
X1420Y2750D01*
X1420Y2750D01*
X1419Y2758D01*
X1414Y2764D01*
X1384Y2794D01*
X1384Y2794D01*
X1378Y2799D01*
X1370Y2800D01*
X760Y2800D01*
X760Y2800D01*
X752Y2799D01*
X746Y2794D01*
X746Y2794D01*
X696Y2744D01*
X691Y2738D01*
X690Y2730D01*
Y2720D01*
X690D01*
Y2250D01*
X690D01*
Y2230D01*
X691Y2222D01*
X696Y2216D01*
X696Y2216D01*
X763Y2149D01*
X762Y2143D01*
X754Y2129D01*
X690D01*
Y2038D01*
Y1947D01*
X760D01*
X783Y1950D01*
X802Y1958D01*
X807Y1959D01*
X826Y1956D01*
X948Y1833D01*
X944Y1811D01*
X932Y1805D01*
X915Y1808D01*
X898Y1805D01*
X884Y1796D01*
X861Y1797D01*
X857Y1800D01*
X840Y1803D01*
X824Y1800D01*
X823Y1800D01*
X810Y1797D01*
X801Y1811D01*
X787Y1820D01*
X770Y1823D01*
X753Y1820D01*
X739Y1811D01*
X730Y1797D01*
X727Y1780D01*
X720Y1763D01*
X703Y1760D01*
X689Y1751D01*
X680Y1737D01*
X677Y1720D01*
X677Y1718D01*
X674Y1701D01*
X663Y1696D01*
X663Y1696D01*
X663Y1696D01*
X653Y1689D01*
X641Y1701D01*
X627Y1710D01*
X610Y1713D01*
X593Y1710D01*
X579Y1701D01*
X570Y1687D01*
X567Y1670D01*
X568Y1663D01*
X553Y1660D01*
X539Y1651D01*
X530Y1637D01*
X527Y1620D01*
X510Y1613D01*
X493Y1610D01*
X479Y1601D01*
X470Y1587D01*
X467Y1570D01*
X470Y1553D01*
X479Y1539D01*
X493Y1530D01*
X508Y1527D01*
X507Y1520D01*
X510Y1503D01*
X515Y1496D01*
X507Y1476D01*
X506Y1476D01*
X470D01*
X456Y1473D01*
X445Y1465D01*
X415Y1435D01*
X407Y1424D01*
X404Y1410D01*
Y1398D01*
X400Y1390D01*
X388Y1387D01*
X377Y1386D01*
X370Y1391D01*
X359Y1393D01*
X328D01*
X316Y1409D01*
X316Y1410D01*
X312Y1428D01*
X302Y1442D01*
X288Y1452D01*
X270Y1456D01*
X252Y1452D01*
X238Y1442D01*
X228Y1428D01*
X224Y1410D01*
X226Y1398D01*
X208Y1390D01*
X207Y1392D01*
X194Y1400D01*
X179Y1403D01*
X150D01*
Y1300D01*
X110D01*
Y1403D01*
X81D01*
X70Y1401D01*
X56Y1408D01*
X50Y1414D01*
Y1670D01*
X50Y1680D01*
X58Y1698D01*
X72Y1712D01*
X90Y1720D01*
X100Y1720D01*
X100Y1720D01*
X410Y1720D01*
X425Y1721D01*
X454Y1726D01*
X481Y1738D01*
X505Y1754D01*
X526Y1775D01*
X542Y1799D01*
X554Y1826D01*
X559Y1855D01*
X560Y1870D01*
X560Y1870D01*
Y1935D01*
X575Y1948D01*
X580Y1947D01*
X650D01*
Y2038D01*
Y2129D01*
X580D01*
X575Y2128D01*
X560Y2141D01*
Y2863D01*
X575Y2876D01*
X680D01*
Y2962D01*
X700D01*
Y2982D01*
X908D01*
X908Y2984D01*
X899Y3005D01*
X886Y3023D01*
X876Y3030D01*
X883Y3050D01*
X1427D01*
X1430Y3033D01*
X1439Y3019D01*
X1453Y3010D01*
X1470Y3007D01*
X1487Y3010D01*
X1501Y3019D01*
X1510Y3033D01*
X1513Y3050D01*
X1539D01*
Y3050D01*
D02*
G37*
G36*
X4960Y2833D02*
X4960Y1275D01*
X4943Y1262D01*
X4940Y1261D01*
X4925Y1263D01*
X4908Y1261D01*
X4892Y1254D01*
X4879Y1244D01*
X4868Y1230D01*
X4862Y1214D01*
X4859Y1198D01*
X4862Y1181D01*
X4868Y1165D01*
X4872Y1160D01*
X4858Y1146D01*
X4848Y1152D01*
X4830Y1156D01*
X4828Y1155D01*
X4820Y1163D01*
X4813Y1175D01*
X4820Y1190D01*
X4820Y1190D01*
X4826Y1199D01*
X4828Y1210D01*
Y1238D01*
X4915Y1325D01*
X4921Y1335D01*
X4924Y1345D01*
Y1459D01*
X4921Y1470D01*
X4915Y1479D01*
X4907Y1487D01*
Y1508D01*
X4910Y1510D01*
X4916Y1519D01*
X4918Y1530D01*
Y1554D01*
X4919Y1554D01*
X4926Y1564D01*
X4928Y1577D01*
Y1614D01*
X4926Y1627D01*
X4919Y1637D01*
X4908Y1644D01*
X4896Y1646D01*
X4884D01*
X4872Y1644D01*
X4863Y1639D01*
X4852Y1642D01*
X4843Y1646D01*
X4843Y1647D01*
X4837Y1657D01*
X4837Y1675D01*
X4843Y1684D01*
X4846Y1700D01*
X4843Y1716D01*
X4834Y1729D01*
X4821Y1738D01*
X4814Y1739D01*
X4810Y1760D01*
X4830Y1780D01*
X4836Y1789D01*
X4836Y1790D01*
X4840D01*
X4850Y1791D01*
X4859Y1797D01*
X4864Y1805D01*
X4866Y1815D01*
Y1885D01*
X4864Y1895D01*
X4859Y1903D01*
X4850Y1909D01*
X4849Y1909D01*
Y1919D01*
X4847Y1930D01*
X4840Y1939D01*
X4788Y1992D01*
Y2062D01*
X4840D01*
X4851Y2064D01*
X4860Y2070D01*
X4890Y2100D01*
X4896Y2109D01*
X4898Y2120D01*
Y2150D01*
X4896Y2161D01*
X4895Y2163D01*
X4897Y2184D01*
X4900Y2189D01*
X4901Y2189D01*
X4910Y2203D01*
X4913Y2220D01*
X4910Y2237D01*
X4901Y2251D01*
Y2259D01*
X4910Y2273D01*
X4913Y2290D01*
X4910Y2307D01*
X4901Y2321D01*
X4887Y2330D01*
X4870Y2333D01*
X4853Y2330D01*
X4839Y2321D01*
X4830Y2307D01*
X4829Y2300D01*
X4817Y2294D01*
X4808Y2292D01*
X4801Y2296D01*
X4790Y2298D01*
X4730D01*
X4719Y2296D01*
X4710Y2290D01*
X4701Y2281D01*
X4682Y2272D01*
X4668Y2282D01*
X4650Y2286D01*
X4632Y2282D01*
X4630Y2281D01*
X4609D01*
X4598Y2301D01*
X4600Y2303D01*
X4603Y2320D01*
X4600Y2337D01*
X4591Y2351D01*
Y2359D01*
X4600Y2373D01*
X4603Y2390D01*
X4600Y2407D01*
X4597Y2412D01*
X4607Y2432D01*
X4648D01*
X4649Y2429D01*
X4663Y2420D01*
X4680Y2417D01*
X4697Y2420D01*
X4711Y2429D01*
X4712Y2432D01*
X4740D01*
X4751Y2434D01*
X4760Y2440D01*
X4780Y2460D01*
X4786Y2469D01*
X4788Y2480D01*
Y2540D01*
X4786Y2551D01*
X4780Y2560D01*
X4760Y2580D01*
X4751Y2586D01*
X4749Y2586D01*
X4738Y2603D01*
X4738Y2603D01*
X4738Y2608D01*
X4739Y2615D01*
Y2685D01*
X4756Y2696D01*
X4760Y2697D01*
X4761Y2696D01*
X4775Y2683D01*
Y2615D01*
X4777Y2605D01*
X4782Y2597D01*
X4791Y2591D01*
X4801Y2590D01*
X4840D01*
X4850Y2591D01*
X4859Y2597D01*
X4864Y2605D01*
X4866Y2615D01*
Y2685D01*
X4864Y2695D01*
X4861Y2699D01*
Y2699D01*
X4861Y2700D01*
X4858Y2715D01*
X4849Y2728D01*
X4849Y2728D01*
X4799Y2779D01*
X4786Y2788D01*
X4770Y2791D01*
X4762Y2807D01*
Y2818D01*
X4763Y2821D01*
X4775Y2828D01*
X4781Y2829D01*
X4815Y2795D01*
X4824Y2789D01*
X4835Y2787D01*
X4836D01*
X4836Y2787D01*
X4844Y2781D01*
X4853Y2780D01*
X4910D01*
X4920Y2781D01*
X4928Y2787D01*
X4934Y2795D01*
X4935Y2805D01*
Y2825D01*
X4934Y2833D01*
X4939Y2841D01*
X4940Y2842D01*
X4960Y2833D01*
D02*
G37*
G36*
X3272Y2735D02*
Y2690D01*
X3274Y2679D01*
X3280Y2670D01*
X3288Y2662D01*
X3288Y2662D01*
X3288Y2662D01*
X3289Y2661D01*
X3289Y2661D01*
X3280Y2647D01*
X3277Y2630D01*
X3280Y2613D01*
X3289Y2599D01*
X3303Y2590D01*
X3320Y2587D01*
X3337Y2590D01*
X3351Y2599D01*
X3360Y2613D01*
X3363Y2630D01*
X3360Y2647D01*
X3351Y2661D01*
X3352Y2675D01*
X3369Y2688D01*
X3376Y2687D01*
X3393Y2690D01*
X3409Y2679D01*
X3423Y2670D01*
X3440Y2667D01*
X3452Y2669D01*
X3467Y2661D01*
X3472Y2656D01*
Y2534D01*
X3467Y2529D01*
X3452Y2521D01*
X3440Y2523D01*
X3423Y2520D01*
X3409Y2511D01*
X3400Y2497D01*
X3397Y2480D01*
X3400Y2463D01*
X3409Y2449D01*
X3413Y2447D01*
Y2423D01*
X3409Y2421D01*
X3400Y2407D01*
X3397Y2390D01*
X3400Y2373D01*
X3409Y2359D01*
X3423Y2350D01*
X3421Y2330D01*
X3419Y2320D01*
X3423Y2300D01*
X3434Y2284D01*
X3450Y2273D01*
X3470Y2269D01*
X3490Y2273D01*
X3506Y2284D01*
X3515Y2297D01*
X3537Y2304D01*
X3602Y2238D01*
Y2075D01*
X3600Y2073D01*
X3583Y2070D01*
X3569Y2061D01*
X3560Y2047D01*
X3557Y2030D01*
X3560Y2013D01*
X3569Y1999D01*
X3583Y1990D01*
X3600Y1987D01*
X3617Y1990D01*
X3631Y1999D01*
X3639D01*
X3653Y1990D01*
X3660Y1989D01*
X3668Y1967D01*
X3512Y1812D01*
X3506Y1803D01*
X3504Y1792D01*
Y1684D01*
X3501Y1683D01*
X3492Y1669D01*
X3489Y1652D01*
X3490Y1648D01*
X3475Y1628D01*
X2860D01*
X2849Y1626D01*
X2840Y1620D01*
X2757Y1536D01*
X2738Y1544D01*
Y1550D01*
X2736Y1561D01*
X2730Y1570D01*
X2703Y1597D01*
X2703Y1600D01*
X2700Y1617D01*
X2691Y1631D01*
X2689Y1632D01*
X2698Y1645D01*
X2699Y1649D01*
X2703Y1660D01*
X2720Y1657D01*
X2737Y1660D01*
X2751Y1669D01*
X2760Y1683D01*
X2780Y1687D01*
X2797Y1690D01*
X2811Y1699D01*
X2820Y1713D01*
X2823Y1730D01*
X2823Y1734D01*
X2826Y1739D01*
X2828Y1750D01*
Y1820D01*
X2826Y1831D01*
X2820Y1840D01*
X2790Y1870D01*
X2789Y1871D01*
X2783Y1885D01*
X2785Y1896D01*
X2790Y1903D01*
X2793Y1920D01*
X2790Y1937D01*
X2781Y1951D01*
X2767Y1960D01*
X2750Y1963D01*
X2733Y1960D01*
X2719Y1951D01*
X2710Y1937D01*
X2709Y1932D01*
X2709Y1932D01*
X2689Y1934D01*
Y2032D01*
X2687Y2043D01*
X2703Y2055D01*
X2710Y2060D01*
X2720Y2053D01*
X2740Y2049D01*
X2760Y2053D01*
X2776Y2064D01*
X2780Y2070D01*
X2786Y2071D01*
X2803Y2069D01*
X2809Y2059D01*
X2823Y2050D01*
X2840Y2047D01*
X2857Y2050D01*
X2871Y2059D01*
X2880Y2073D01*
X2883Y2090D01*
X2890Y2097D01*
X2907Y2100D01*
X2921Y2109D01*
X2930Y2123D01*
X2933Y2140D01*
X2930Y2157D01*
X2921Y2171D01*
X2907Y2180D01*
X2890Y2183D01*
X2887Y2183D01*
X2850Y2220D01*
X2841Y2226D01*
X2836Y2233D01*
X2831Y2247D01*
X2831Y2248D01*
X2833Y2260D01*
X2830Y2277D01*
X2821Y2291D01*
Y2299D01*
X2830Y2313D01*
X2833Y2330D01*
X2830Y2347D01*
X2821Y2361D01*
X2819Y2362D01*
X2828Y2375D01*
X2831Y2392D01*
X2828Y2409D01*
X2819Y2423D01*
X2805Y2432D01*
X2799Y2433D01*
X2799Y2454D01*
X2801Y2454D01*
X2810Y2460D01*
X2870Y2520D01*
X2876Y2529D01*
X2878Y2540D01*
Y2590D01*
X2876Y2601D01*
X2870Y2610D01*
X2856Y2623D01*
X2864Y2642D01*
X2984D01*
X2995Y2644D01*
X3004Y2650D01*
X3049Y2695D01*
X3051Y2696D01*
X3073Y2697D01*
X3083Y2690D01*
X3100Y2687D01*
X3117Y2690D01*
X3120Y2692D01*
X3135Y2698D01*
X3150Y2692D01*
X3153Y2690D01*
X3170Y2687D01*
X3187Y2690D01*
X3201Y2699D01*
X3202Y2702D01*
X3204D01*
X3215Y2704D01*
X3224Y2710D01*
X3240Y2726D01*
X3246Y2735D01*
X3247Y2740D01*
X3250Y2752D01*
X3252Y2752D01*
X3272Y2735D01*
D02*
G37*
G36*
X1370Y2780D02*
X1400Y2750D01*
X1400Y2670D01*
X1370Y2640D01*
X1070Y2640D01*
X990Y2560D01*
Y2440D01*
X1070Y2360D01*
X1370Y2360D01*
X1400Y2330D01*
X1400Y2250D01*
X1370Y2220D01*
X1090Y2220D01*
X1060Y2190D01*
X1060Y2040D01*
X1110Y1990D01*
X1200D01*
X1230Y1960D01*
Y1810D01*
X1200Y1780D01*
X1030D01*
X840Y1970D01*
Y2100D01*
X710Y2230D01*
X710Y2730D01*
X760Y2780D01*
X1370Y2780D01*
D02*
G37*
G36*
X4383Y2826D02*
X4396Y2817D01*
X4401Y2816D01*
X4413Y2807D01*
X4415Y2794D01*
X4414Y2790D01*
X4470D01*
Y2750D01*
X4414D01*
X4417Y2736D01*
X4421Y2730D01*
X4421Y2725D01*
X4414Y2710D01*
X4413Y2709D01*
X4410Y2709D01*
X4401Y2703D01*
X4396Y2695D01*
X4394Y2685D01*
Y2615D01*
X4396Y2605D01*
X4401Y2597D01*
X4410Y2591D01*
X4408Y2572D01*
X4400Y2558D01*
X4294D01*
X4293Y2560D01*
X4287Y2569D01*
X4277Y2576D01*
X4266Y2578D01*
X4249D01*
X4243Y2585D01*
X4240Y2602D01*
X4231Y2616D01*
X4228Y2617D01*
X4225Y2642D01*
X4350Y2767D01*
X4356Y2777D01*
X4359Y2787D01*
Y2827D01*
X4379Y2833D01*
X4383Y2826D01*
D02*
G37*
G36*
X2374Y2420D02*
X2390Y2417D01*
X2400Y2419D01*
X2405Y2417D01*
X2411Y2413D01*
X2421Y2396D01*
X2420Y2387D01*
Y2373D01*
X2421Y2364D01*
X2424Y2360D01*
X2421Y2356D01*
X2420Y2347D01*
Y2345D01*
X2416Y2341D01*
X2400Y2331D01*
X2390Y2333D01*
X2373Y2330D01*
X2359Y2321D01*
X2350Y2307D01*
X2349Y2300D01*
X2327Y2293D01*
X2320Y2300D01*
X2311Y2306D01*
X2300Y2308D01*
X2152D01*
X2148Y2312D01*
Y2341D01*
X2165Y2355D01*
X2169Y2356D01*
X2188Y2354D01*
X2193Y2346D01*
X2206Y2337D01*
X2220Y2334D01*
Y2390D01*
X2240D01*
Y2410D01*
X2302D01*
X2306Y2413D01*
X2316Y2419D01*
X2330Y2417D01*
X2347Y2420D01*
X2360Y2429D01*
X2374Y2420D01*
D02*
G37*
G36*
X1562Y2363D02*
X1563Y2362D01*
X1553Y2360D01*
X1539Y2351D01*
X1530Y2337D01*
X1527Y2320D01*
X1530Y2303D01*
X1539Y2289D01*
X1553Y2280D01*
X1570Y2277D01*
X1577Y2260D01*
X1580Y2243D01*
X1589Y2230D01*
X1588Y2227D01*
X1580Y2211D01*
X1570Y2213D01*
X1553Y2210D01*
X1539Y2201D01*
X1530Y2187D01*
X1527Y2170D01*
X1530Y2153D01*
X1538Y2142D01*
X1539Y2139D01*
X1539Y2120D01*
X1538Y2118D01*
X1530Y2106D01*
X1527Y2090D01*
X1530Y2073D01*
X1539Y2059D01*
X1553Y2050D01*
X1570Y2046D01*
X1587Y2050D01*
X1601Y2059D01*
X1610Y2072D01*
X1613Y2074D01*
X1626Y2076D01*
X1639Y2061D01*
X1637Y2050D01*
X1640Y2033D01*
X1649Y2019D01*
Y2001D01*
X1641Y1988D01*
X1640Y1987D01*
X1629Y1972D01*
X1620Y1973D01*
X1620Y1973D01*
X1618Y1973D01*
X1603Y1970D01*
X1589Y1961D01*
X1580Y1947D01*
X1577Y1930D01*
X1560Y1910D01*
X1512Y1910D01*
X1510Y1911D01*
X1508Y1910D01*
X1491D01*
X1476Y1928D01*
X1475Y1930D01*
Y1936D01*
X1466Y1968D01*
X1450Y1997D01*
X1427Y2020D01*
X1398Y2036D01*
X1366Y2045D01*
X1339Y2045D01*
X1335Y2048D01*
X1186D01*
Y2068D01*
X1166D01*
Y2154D01*
X1136D01*
X1114Y2151D01*
X1100Y2145D01*
X1080Y2156D01*
Y2182D01*
X1098Y2200D01*
X1370Y2200D01*
X1378Y2201D01*
X1384Y2206D01*
X1384Y2206D01*
X1414Y2236D01*
X1414Y2236D01*
X1419Y2242D01*
X1420Y2250D01*
X1420Y2330D01*
X1420Y2330D01*
X1419Y2338D01*
X1414Y2344D01*
X1414Y2344D01*
X1387Y2372D01*
X1388Y2382D01*
X1394Y2392D01*
X1417D01*
X1427Y2380D01*
X1430Y2363D01*
X1439Y2349D01*
X1453Y2340D01*
X1470Y2337D01*
X1487Y2340D01*
X1501Y2349D01*
X1510Y2363D01*
X1515Y2380D01*
X1523Y2381D01*
Y2425D01*
X1562D01*
Y2363D01*
D02*
G37*
G36*
X3637Y2490D02*
X3646Y2484D01*
X3652Y2463D01*
X3649Y2450D01*
X3653Y2430D01*
X3660Y2420D01*
X3653Y2410D01*
X3649Y2390D01*
X3653Y2370D01*
X3664Y2354D01*
X3680Y2343D01*
X3700Y2339D01*
X3709Y2320D01*
X3710Y2313D01*
X3719Y2299D01*
X3733Y2290D01*
X3750Y2287D01*
X3767Y2290D01*
X3781Y2299D01*
X3782Y2302D01*
X3868D01*
X3890Y2280D01*
X3899Y2274D01*
X3900Y2274D01*
X3920Y2267D01*
Y2253D01*
X3921Y2244D01*
X3905Y2232D01*
X3900Y2231D01*
X3898Y2232D01*
X3880Y2236D01*
X3862Y2232D01*
X3848Y2222D01*
X3838Y2208D01*
X3834Y2190D01*
X3838Y2172D01*
X3848Y2158D01*
X3862Y2148D01*
X3880Y2144D01*
X3898Y2148D01*
X3900Y2149D01*
X3901Y2149D01*
X3919Y2139D01*
X3920Y2136D01*
Y2133D01*
X3921Y2124D01*
X3923Y2122D01*
X3923Y2119D01*
X3921Y2116D01*
X3920Y2107D01*
Y2093D01*
X3916Y2088D01*
X3800D01*
X3789Y2086D01*
X3780Y2080D01*
X3733Y2032D01*
X3711Y2040D01*
X3710Y2047D01*
X3701Y2061D01*
X3698Y2062D01*
Y2270D01*
X3696Y2281D01*
X3690Y2290D01*
X3568Y2412D01*
Y2533D01*
X3587Y2540D01*
X3637Y2490D01*
D02*
G37*
G36*
X4211Y2293D02*
X4213Y2291D01*
X4223Y2284D01*
X4234Y2282D01*
X4266D01*
X4277Y2284D01*
X4285Y2289D01*
X4303D01*
X4381Y2211D01*
X4381Y2211D01*
X4394Y2202D01*
X4410Y2199D01*
X4483D01*
X4491Y2181D01*
X4378Y2068D01*
X4266D01*
X4260Y2088D01*
X4269Y2094D01*
X4280Y2110D01*
X4284Y2130D01*
X4280Y2150D01*
X4269Y2166D01*
X4252Y2177D01*
X4233Y2181D01*
X4228Y2180D01*
X4226Y2180D01*
X4208Y2196D01*
Y2216D01*
X4205Y2231D01*
X4197Y2244D01*
X4184Y2253D01*
X4173Y2271D01*
X4175Y2280D01*
X4177Y2284D01*
X4187Y2291D01*
X4189Y2293D01*
X4190Y2294D01*
X4210D01*
X4211Y2293D01*
D02*
G37*
G36*
X2170Y1970D02*
X2170Y1890D01*
X2140Y1860D01*
X2100Y1860D01*
X2040Y1800D01*
X2040Y1730D01*
X2030Y1720D01*
X1960Y1720D01*
X1667Y1720D01*
X1642Y1745D01*
X1575D01*
X1562Y1733D01*
Y1692D01*
X1560Y1690D01*
X1440Y1690D01*
X1435Y1695D01*
X1435Y1845D01*
X1480Y1890D01*
X1730Y1890D01*
X1840Y2000D01*
X2140Y2000D01*
X2170Y1970D01*
D02*
G37*
G36*
X1640Y1715D02*
Y1635D01*
X1623Y1617D01*
X1443Y1617D01*
X1435Y1625D01*
X1435Y1662D01*
X1445Y1672D01*
X1570Y1673D01*
X1580Y1683D01*
X1580Y1715D01*
X1590Y1725D01*
X1630D01*
X1640Y1715D01*
D02*
G37*
G36*
X4384Y1886D02*
X4384Y1885D01*
Y1870D01*
X4440D01*
Y1830D01*
X4384D01*
Y1815D01*
X4387Y1801D01*
X4394Y1790D01*
X4401Y1776D01*
X4400Y1766D01*
X4400Y1764D01*
X4393Y1759D01*
X4387Y1750D01*
X4384Y1739D01*
Y1701D01*
X4387Y1690D01*
X4393Y1681D01*
X4403Y1674D01*
X4414Y1672D01*
X4446D01*
X4457Y1674D01*
X4467Y1681D01*
X4469Y1683D01*
X4470Y1684D01*
X4490D01*
X4491Y1683D01*
X4493Y1681D01*
X4503Y1674D01*
X4514Y1672D01*
X4520D01*
X4522Y1670D01*
X4529Y1652D01*
X4523Y1643D01*
X4519Y1625D01*
X4523Y1607D01*
X4528Y1599D01*
X4521Y1582D01*
X4502Y1578D01*
X4489Y1590D01*
X4480Y1596D01*
X4470Y1599D01*
X4299D01*
X4283Y1610D01*
X4280Y1627D01*
X4271Y1641D01*
X4257Y1650D01*
X4247Y1652D01*
X4249Y1672D01*
X4266D01*
X4277Y1674D01*
X4287Y1681D01*
X4293Y1690D01*
X4296Y1701D01*
Y1739D01*
X4293Y1750D01*
X4287Y1759D01*
X4278Y1765D01*
Y1780D01*
X4276Y1791D01*
X4270Y1800D01*
X4258Y1812D01*
X4266Y1832D01*
X4266D01*
X4277Y1834D01*
X4287Y1841D01*
X4293Y1850D01*
X4294Y1852D01*
X4310D01*
X4321Y1854D01*
X4330Y1860D01*
X4366Y1896D01*
X4384Y1886D01*
D02*
G37*
G36*
X1899Y1700D02*
Y1545D01*
X1910D01*
Y1551D01*
X1907Y1568D01*
X1908Y1571D01*
X1909Y1573D01*
X1935Y1575D01*
X1935Y1575D01*
X1946Y1567D01*
X1960Y1564D01*
X1960D01*
X1963Y1561D01*
X1973Y1554D01*
X1984Y1552D01*
X2016D01*
X2027Y1554D01*
X2037Y1561D01*
X2039Y1563D01*
X2040Y1564D01*
X2060D01*
X2061Y1563D01*
X2063Y1561D01*
X2065Y1559D01*
X2067Y1537D01*
X2060Y1530D01*
X2054Y1521D01*
X2052Y1510D01*
Y1452D01*
X2052Y1452D01*
X2032Y1446D01*
X2028Y1449D01*
X2020Y1450D01*
X1908D01*
X1903Y1458D01*
X1899Y1470D01*
X1907Y1482D01*
X1910Y1499D01*
Y1505D01*
X1899D01*
Y1450D01*
X1660Y1450D01*
X1660Y1535D01*
X1635Y1560D01*
X1443D01*
X1432Y1570D01*
Y1590D01*
X1443Y1600D01*
X1635D01*
X1660Y1625D01*
X1660Y1700D01*
X1899Y1700D01*
D02*
G37*
G36*
X1640Y1525D02*
Y1445D01*
X1630Y1435D01*
X1590D01*
X1580Y1445D01*
X1580Y1477D01*
X1570Y1488D01*
X1445Y1488D01*
X1435Y1498D01*
X1435Y1535D01*
X1443Y1543D01*
X1623Y1543D01*
X1640Y1525D01*
D02*
G37*
G36*
X2163Y1567D02*
X2173Y1560D01*
X2230D01*
Y1520D01*
X2174D01*
X2177Y1506D01*
X2186Y1493D01*
X2199Y1485D01*
X2214Y1482D01*
X2233D01*
X2243Y1462D01*
X2240Y1457D01*
X2237Y1440D01*
X2240Y1423D01*
X2246Y1415D01*
X2240Y1407D01*
X2237Y1390D01*
X2240Y1373D01*
X2246Y1365D01*
X2240Y1357D01*
X2237Y1340D01*
X2240Y1323D01*
X2246Y1315D01*
X2240Y1307D01*
X2237Y1290D01*
X2240Y1273D01*
X2249Y1259D01*
X2250Y1259D01*
X2253Y1254D01*
X2255Y1233D01*
X2254Y1231D01*
X2252Y1220D01*
Y1179D01*
X2252Y1178D01*
X2249Y1175D01*
X2232Y1164D01*
X2225Y1166D01*
X2205D01*
X2191Y1163D01*
X2190Y1162D01*
X2182Y1166D01*
X2173Y1178D01*
X2173Y1180D01*
X2170Y1197D01*
X2161Y1211D01*
X2147Y1220D01*
X2140Y1221D01*
X2126Y1240D01*
X2125Y1243D01*
X2126Y1248D01*
X2128Y1249D01*
X2140Y1247D01*
X2157Y1250D01*
X2171Y1259D01*
X2180Y1273D01*
X2183Y1290D01*
X2180Y1307D01*
X2174Y1315D01*
X2180Y1323D01*
X2183Y1340D01*
X2180Y1357D01*
X2174Y1365D01*
X2180Y1373D01*
X2183Y1390D01*
X2180Y1407D01*
X2174Y1415D01*
X2180Y1423D01*
X2183Y1440D01*
X2180Y1457D01*
X2171Y1471D01*
X2157Y1480D01*
X2140Y1483D01*
X2128Y1481D01*
X2122Y1484D01*
X2118Y1504D01*
X2119Y1510D01*
X2120Y1510D01*
X2126Y1519D01*
X2128Y1530D01*
Y1555D01*
X2137Y1561D01*
X2139Y1564D01*
X2159Y1568D01*
X2163Y1567D01*
D02*
G37*
G36*
X1560Y1470D02*
X1562Y1468D01*
Y1427D01*
X1575Y1415D01*
X1642D01*
X1658Y1430D01*
X2020Y1430D01*
X2050Y1400D01*
X2050Y1250D01*
X2020Y1220D01*
X1670Y1220D01*
X1590Y1300D01*
X1457D01*
X1435Y1323D01*
X1435Y1465D01*
X1440Y1470D01*
X1560Y1470D01*
D02*
G37*
G36*
X1149Y1374D02*
X1164Y1361D01*
Y1331D01*
X1167Y1320D01*
X1173Y1311D01*
X1183Y1304D01*
X1194Y1302D01*
X1226D01*
X1237Y1304D01*
X1247Y1311D01*
X1249Y1313D01*
X1250Y1314D01*
X1270D01*
X1271Y1313D01*
X1273Y1311D01*
X1283Y1304D01*
X1294Y1302D01*
X1326D01*
X1337Y1304D01*
X1347Y1311D01*
X1350Y1314D01*
X1376D01*
X1382Y1305D01*
X1384Y1294D01*
X1377Y1284D01*
X1374Y1270D01*
X1430D01*
Y1250D01*
X1450D01*
Y1192D01*
X1461Y1195D01*
X1472Y1202D01*
X1481Y1200D01*
X1492Y1194D01*
Y1118D01*
X1490Y1116D01*
X1477Y1097D01*
X1472Y1073D01*
X1473Y1072D01*
X1457Y1061D01*
X1455Y1060D01*
X1441Y1071D01*
X1424Y1078D01*
X1406Y1080D01*
X1388Y1078D01*
X1382Y1075D01*
X1374Y1080D01*
X1364Y1094D01*
X1350Y1104D01*
X1338Y1106D01*
Y1120D01*
X1338Y1120D01*
Y1136D01*
X1336Y1147D01*
X1333Y1151D01*
X1330Y1157D01*
X1337Y1176D01*
X1337Y1176D01*
X1345Y1189D01*
X1348Y1200D01*
X1290D01*
Y1220D01*
X1270D01*
Y1276D01*
X1256Y1273D01*
X1243Y1264D01*
X1237D01*
X1224Y1273D01*
X1210Y1276D01*
Y1220D01*
X1170D01*
Y1276D01*
X1156Y1273D01*
X1150Y1268D01*
X1138Y1277D01*
X1134Y1282D01*
X1136Y1291D01*
Y1329D01*
X1133Y1340D01*
X1127Y1349D01*
X1126Y1357D01*
X1134Y1369D01*
X1135Y1371D01*
X1138Y1373D01*
X1145Y1375D01*
X1149Y1374D01*
D02*
G37*
G36*
X490Y1066D02*
X488Y1040D01*
X485Y1039D01*
X476Y1040D01*
X444D01*
X435Y1039D01*
X427Y1033D01*
X421Y1025D01*
X420Y1016D01*
Y976D01*
X421Y967D01*
X427Y959D01*
X435Y953D01*
X444Y952D01*
X476D01*
X485Y953D01*
X493Y959D01*
X513Y957D01*
X515Y954D01*
X518Y942D01*
X528Y928D01*
X542Y918D01*
X556Y915D01*
X562Y903D01*
X564Y895D01*
X557Y884D01*
X554Y870D01*
Y820D01*
X553Y819D01*
X547Y810D01*
X544Y799D01*
Y761D01*
X547Y750D01*
X553Y741D01*
X549Y719D01*
X546Y716D01*
X541D01*
X530Y713D01*
X521Y707D01*
X516Y701D01*
X497D01*
X496Y701D01*
X488Y703D01*
X457D01*
X452Y712D01*
X452Y712D01*
X412Y752D01*
X402Y758D01*
X390Y761D01*
X390Y761D01*
X381D01*
X381Y761D01*
X367Y770D01*
X350Y773D01*
X333Y770D01*
X323Y763D01*
X310Y762D01*
X297Y763D01*
X287Y770D01*
X270Y773D01*
X253Y770D01*
X239Y761D01*
X239Y761D01*
X230D01*
X230Y761D01*
X218Y758D01*
X208Y752D01*
X208Y752D01*
X168Y712D01*
X163Y703D01*
X133D01*
X124Y701D01*
X116Y696D01*
X111Y689D01*
X110Y680D01*
Y660D01*
X109Y646D01*
X100Y640D01*
X70Y610D01*
X50Y618D01*
X50Y816D01*
X56Y822D01*
X70Y829D01*
X81Y827D01*
X110D01*
Y930D01*
X150D01*
Y827D01*
X179D01*
X194Y830D01*
X207Y838D01*
X215Y851D01*
X225Y853D01*
X236Y852D01*
X240Y845D01*
X250Y839D01*
X261Y837D01*
X359D01*
X370Y839D01*
X378Y844D01*
X385D01*
X391Y839D01*
X402Y831D01*
X416Y828D01*
X426D01*
X427Y827D01*
X435Y821D01*
X444Y820D01*
X476D01*
X485Y821D01*
X493Y827D01*
X499Y835D01*
X500Y844D01*
Y884D01*
X499Y893D01*
X493Y901D01*
X485Y907D01*
X476Y908D01*
X444D01*
X435Y907D01*
X428Y902D01*
X425Y905D01*
X414Y913D01*
X400Y916D01*
X388D01*
Y994D01*
X386Y1005D01*
X380Y1014D01*
X380Y1015D01*
Y1035D01*
X380Y1036D01*
X386Y1045D01*
X388Y1056D01*
Y1140D01*
X408Y1148D01*
X490Y1066D01*
D02*
G37*
G36*
X4075Y1225D02*
X4079Y1218D01*
X4079Y1204D01*
X4077Y1200D01*
X4074Y1189D01*
Y1151D01*
X4077Y1140D01*
X4083Y1131D01*
X4087Y1128D01*
Y1127D01*
X4090Y1114D01*
X4098Y1102D01*
X4125Y1075D01*
X4136Y1067D01*
X4150Y1064D01*
X4212D01*
X4224Y1050D01*
X4227Y1038D01*
X4217Y1022D01*
X4213Y1018D01*
X4194D01*
X4183Y1016D01*
X4179Y1013D01*
X4173Y1010D01*
X4154Y1017D01*
X4154Y1017D01*
X4141Y1025D01*
X4130Y1028D01*
Y970D01*
X4090D01*
Y1028D01*
X4079Y1025D01*
X4066Y1017D01*
X4057Y1004D01*
X4054Y989D01*
Y976D01*
X4034Y960D01*
X4030Y961D01*
X4010Y957D01*
X4001Y951D01*
X3979D01*
X3971Y968D01*
X3970Y971D01*
X3971Y971D01*
X3976Y979D01*
X3978Y990D01*
Y1017D01*
X3984Y1022D01*
X4016D01*
X4027Y1024D01*
X4037Y1031D01*
X4043Y1040D01*
X4046Y1051D01*
Y1089D01*
X4043Y1100D01*
X4037Y1109D01*
Y1131D01*
X4043Y1140D01*
X4046Y1151D01*
Y1189D01*
X4043Y1200D01*
X4039Y1206D01*
X4045Y1226D01*
X4056Y1232D01*
X4075Y1225D01*
D02*
G37*
G36*
X4748Y1012D02*
X4758Y998D01*
X4772Y988D01*
X4775Y987D01*
X4787Y975D01*
X4788Y972D01*
X4798Y958D01*
X4812Y948D01*
X4830Y944D01*
X4848Y948D01*
X4862Y958D01*
X4883Y953D01*
X4892Y946D01*
X4908Y939D01*
X4925Y937D01*
X4940Y939D01*
X4943Y938D01*
X4960Y925D01*
X4960Y540D01*
X4948Y534D01*
X4940Y533D01*
X4891Y582D01*
X4892Y588D01*
X4888Y606D01*
X4879Y621D01*
X4864Y631D01*
X4846Y634D01*
X4829Y631D01*
X4814Y621D01*
X4804Y606D01*
X4800Y588D01*
X4804Y571D01*
X4814Y556D01*
X4829Y546D01*
X4844Y543D01*
X4878Y509D01*
X4879Y502D01*
X4878Y501D01*
X4858Y492D01*
X4840Y496D01*
X4822Y492D01*
X4808Y482D01*
X4798Y468D01*
X4794Y450D01*
X4795Y446D01*
X4792Y442D01*
X4789Y430D01*
X4789Y430D01*
Y368D01*
X4767D01*
X4759Y379D01*
X4756Y387D01*
X4760Y393D01*
X4763Y410D01*
X4760Y426D01*
X4750Y440D01*
X4736Y450D01*
X4720Y453D01*
X4703Y450D01*
X4689Y440D01*
X4680Y426D01*
X4676Y410D01*
X4680Y393D01*
X4689Y379D01*
X4703Y370D01*
X4720Y366D01*
X4720Y366D01*
X4732Y348D01*
X4732Y348D01*
X4729Y335D01*
X4732Y322D01*
X4738Y310D01*
X4732Y298D01*
X4729Y285D01*
X4732Y272D01*
X4739Y262D01*
Y258D01*
X4732Y248D01*
X4729Y235D01*
X4732Y222D01*
X4738Y210D01*
X4732Y198D01*
X4729Y185D01*
X4732Y172D01*
X4737Y165D01*
X4724Y156D01*
X4713Y140D01*
X4709Y120D01*
X4713Y100D01*
X4722Y86D01*
X4721Y74D01*
X4718Y64D01*
X4686Y56D01*
X4642Y50D01*
X4620Y50D01*
X4620Y50D01*
X4620Y50D01*
X4415Y50D01*
X4410Y55D01*
X4403Y70D01*
X4408Y82D01*
X4411Y100D01*
X4408Y118D01*
X4405Y125D01*
X4420Y140D01*
X4520D01*
X4523Y143D01*
X4534Y145D01*
X4548Y154D01*
X4558Y168D01*
X4561Y185D01*
X4558Y202D01*
X4548Y216D01*
X4545Y218D01*
X4548Y222D01*
X4551Y235D01*
X4548Y248D01*
X4541Y258D01*
Y262D01*
X4548Y272D01*
X4551Y285D01*
X4548Y298D01*
X4542Y310D01*
X4548Y322D01*
X4551Y335D01*
X4548Y348D01*
X4541Y358D01*
X4530Y366D01*
X4517Y368D01*
X4502D01*
X4486Y388D01*
X4486Y390D01*
X4482Y408D01*
X4481Y410D01*
Y420D01*
X4482Y422D01*
X4486Y440D01*
X4482Y458D01*
X4472Y472D01*
X4458Y482D01*
X4440Y486D01*
X4422Y482D01*
X4420Y481D01*
X4415D01*
X4407Y486D01*
X4396Y488D01*
X4364D01*
X4353Y486D01*
X4349Y483D01*
X4343Y480D01*
X4324Y487D01*
X4324Y487D01*
X4311Y495D01*
X4300Y498D01*
Y440D01*
X4260D01*
Y498D01*
X4249Y495D01*
X4236Y498D01*
X4228Y509D01*
X4209Y528D01*
X4186Y543D01*
X4177Y547D01*
X4173Y568D01*
X4186Y580D01*
X4189Y579D01*
X4203Y570D01*
X4220Y567D01*
X4237Y570D01*
X4251Y579D01*
X4260Y593D01*
X4263Y610D01*
X4261Y620D01*
X4280Y629D01*
X4285Y625D01*
X4296Y617D01*
X4310Y614D01*
X4310D01*
X4313Y611D01*
X4323Y604D01*
X4334Y602D01*
X4363D01*
X4370Y594D01*
X4374Y583D01*
X4370Y577D01*
X4367Y560D01*
X4370Y543D01*
X4379Y529D01*
X4393Y520D01*
X4410Y517D01*
X4427Y520D01*
X4435Y526D01*
X4443Y520D01*
X4460Y517D01*
X4465Y518D01*
X4479Y518D01*
X4493Y507D01*
X4493Y506D01*
X4506Y497D01*
X4520Y494D01*
Y550D01*
X4560D01*
Y494D01*
X4574Y497D01*
X4576Y499D01*
X4581Y499D01*
X4601Y494D01*
X4601Y493D01*
X4603Y491D01*
X4613Y484D01*
X4624Y482D01*
X4656D01*
X4667Y484D01*
X4677Y491D01*
X4679Y493D01*
X4680Y494D01*
X4700D01*
X4701Y493D01*
X4703Y491D01*
X4713Y484D01*
X4724Y482D01*
X4756D01*
X4767Y484D01*
X4777Y491D01*
X4783Y500D01*
X4786Y511D01*
Y549D01*
X4783Y560D01*
X4777Y569D01*
X4767Y576D01*
X4761Y577D01*
Y610D01*
X4766D01*
X4776Y612D01*
X4784Y617D01*
X4789Y625D01*
X4791Y635D01*
Y696D01*
X4792Y698D01*
X4793Y701D01*
X4800Y708D01*
X4794Y719D01*
X4789Y739D01*
X4789Y750D01*
X4819Y750D01*
X4819Y750D01*
X4820Y740D01*
X4827Y721D01*
X4827Y721D01*
X4831Y724D01*
X4851Y717D01*
X4855Y715D01*
X4870Y712D01*
X4885Y715D01*
X4897Y723D01*
X4905Y735D01*
X4908Y750D01*
X4905Y765D01*
X4897Y777D01*
X4885Y785D01*
X4870Y788D01*
X4855Y785D01*
X4851Y783D01*
X4831Y776D01*
X4827Y779D01*
X4827Y779D01*
X4820Y760D01*
X4819Y750D01*
X4819Y750D01*
X4789D01*
X4789Y761D01*
X4794Y781D01*
X4800Y792D01*
X4793Y799D01*
X4792Y802D01*
X4791Y804D01*
Y832D01*
X4844D01*
X4844Y831D01*
X4848Y828D01*
X4859Y831D01*
X4881Y831D01*
X4901Y826D01*
X4907Y822D01*
X4917Y824D01*
X4927Y831D01*
X4934Y842D01*
X4936Y854D01*
Y866D01*
X4934Y878D01*
X4927Y889D01*
X4917Y896D01*
X4904Y898D01*
X4867D01*
X4854Y896D01*
X4844Y889D01*
X4844Y888D01*
X4809D01*
X4793Y908D01*
X4793Y910D01*
X4790Y927D01*
X4781Y941D01*
X4767Y950D01*
X4750Y953D01*
X4733Y950D01*
X4719Y941D01*
X4710Y927D01*
X4707Y910D01*
X4708Y903D01*
X4700Y895D01*
X4691Y889D01*
X4683Y890D01*
X4654D01*
X4646Y900D01*
X4642Y918D01*
X4641Y920D01*
Y930D01*
X4642Y932D01*
X4646Y950D01*
X4645Y952D01*
X4647Y953D01*
X4647Y953D01*
X4650Y959D01*
X4654Y964D01*
X4675Y972D01*
X4688Y974D01*
X4698Y982D01*
X4706Y992D01*
X4708Y1005D01*
Y1029D01*
X4744D01*
X4748Y1012D01*
D02*
G37*
G36*
X760Y837D02*
X771Y834D01*
X793D01*
X797Y814D01*
X784Y806D01*
X773Y790D01*
X769Y770D01*
X773Y750D01*
X780Y740D01*
X773Y730D01*
X769Y710D01*
X773Y690D01*
X780Y680D01*
X773Y670D01*
X769Y650D01*
X773Y630D01*
X780Y620D01*
X773Y610D01*
X769Y590D01*
X773Y570D01*
X775Y568D01*
X774Y564D01*
X767Y543D01*
X761Y539D01*
X761Y539D01*
X721Y499D01*
X712Y486D01*
X709Y470D01*
X709Y470D01*
Y263D01*
X691Y253D01*
X688Y253D01*
X686Y256D01*
X670Y267D01*
X650Y271D01*
X630Y267D01*
X614Y256D01*
X603Y240D01*
X599Y220D01*
X603Y200D01*
X604Y199D01*
Y181D01*
X603Y180D01*
X599Y160D01*
X603Y140D01*
X609Y131D01*
Y100D01*
X609Y100D01*
X612Y84D01*
X621Y71D01*
X624Y68D01*
X616Y50D01*
X500D01*
X471Y50D01*
X418Y57D01*
X412Y75D01*
X413Y78D01*
X420Y89D01*
X423Y104D01*
Y213D01*
X443Y219D01*
X449Y209D01*
X463Y200D01*
X480Y197D01*
X497Y200D01*
X511Y209D01*
X520Y223D01*
X523Y240D01*
X520Y257D01*
X511Y271D01*
X497Y280D01*
X480Y283D01*
X463Y280D01*
X449Y271D01*
X443Y261D01*
X423Y267D01*
Y456D01*
X432Y469D01*
X437Y470D01*
X451Y479D01*
X460Y493D01*
X463Y510D01*
X463Y514D01*
X466Y519D01*
X468Y530D01*
Y537D01*
X488D01*
X505Y539D01*
X513Y526D01*
X526Y517D01*
X540Y514D01*
Y570D01*
X560D01*
Y590D01*
X618D01*
X615Y601D01*
X607Y614D01*
X607Y614D01*
X600Y633D01*
X603Y639D01*
X606Y643D01*
X608Y654D01*
Y686D01*
X606Y697D01*
X599Y707D01*
X603Y728D01*
X606Y732D01*
X606D01*
X617Y734D01*
X627Y741D01*
X629Y743D01*
X630Y744D01*
X650D01*
X651Y743D01*
X653Y741D01*
X663Y734D01*
X674Y732D01*
X706D01*
X717Y734D01*
X727Y741D01*
X733Y750D01*
X736Y761D01*
Y799D01*
X733Y810D01*
X727Y819D01*
X727Y820D01*
X728Y842D01*
X729Y843D01*
X751D01*
X760Y837D01*
D02*
G37*
G36*
X2886Y923D02*
X2889Y918D01*
X2972Y835D01*
Y750D01*
X2972Y748D01*
X2966Y733D01*
X2958Y727D01*
X2953Y726D01*
X2943Y719D01*
X2941Y717D01*
X2940Y716D01*
X2920D01*
X2919Y717D01*
X2917Y719D01*
X2907Y726D01*
X2896Y728D01*
X2864D01*
X2853Y726D01*
X2843Y719D01*
X2837Y710D01*
X2834Y699D01*
Y661D01*
X2837Y650D01*
X2843Y641D01*
X2844Y634D01*
X2822Y611D01*
X2803Y619D01*
Y676D01*
X2804Y676D01*
X2809Y684D01*
X2810Y693D01*
Y725D01*
X2809Y734D01*
X2804Y742D01*
X2796Y747D01*
X2787Y748D01*
X2770D01*
X2765Y750D01*
X2700D01*
Y790D01*
X2765D01*
X2770Y792D01*
X2787D01*
X2796Y793D01*
X2804Y798D01*
X2809Y806D01*
X2810Y815D01*
Y820D01*
X2830Y837D01*
X2847Y840D01*
X2861Y849D01*
X2870Y863D01*
X2873Y880D01*
X2870Y897D01*
X2877Y919D01*
X2885Y923D01*
X2886Y923D01*
D02*
G37*
G36*
X3670Y630D02*
X3980Y630D01*
X4013Y597D01*
X4013Y583D01*
X3990Y560D01*
X3640Y560D01*
Y560D01*
X2970Y560D01*
X2957Y559D01*
X2932Y554D01*
X2909Y545D01*
X2888Y530D01*
X2870Y512D01*
X2855Y491D01*
X2853Y486D01*
X2802D01*
X2794Y504D01*
X2900Y610D01*
X2906Y619D01*
X2908Y630D01*
Y635D01*
X2917Y641D01*
X2919Y643D01*
X2920Y644D01*
X2940D01*
X2941Y643D01*
X2943Y641D01*
X2953Y634D01*
X2964Y632D01*
X2996D01*
X3007Y634D01*
X3017Y641D01*
X3026Y641D01*
X3047Y620D01*
X3056Y614D01*
X3067Y612D01*
X3430D01*
X3441Y614D01*
X3450Y620D01*
X3470Y640D01*
X3475Y647D01*
X3478Y650D01*
X3487Y653D01*
X3507Y650D01*
X3513Y641D01*
X3523Y634D01*
X3534Y632D01*
X3566D01*
X3577Y634D01*
X3581Y637D01*
X3587Y640D01*
X3606Y633D01*
X3606Y633D01*
X3619Y625D01*
X3630Y622D01*
Y680D01*
X3670D01*
Y630D01*
D02*
G37*
G36*
X2515Y533D02*
X2516Y524D01*
X2520Y519D01*
Y501D01*
X2521Y501D01*
X2524Y499D01*
X2530Y490D01*
X2570Y450D01*
X2579Y444D01*
X2590Y442D01*
X2626D01*
X2634Y423D01*
X2600Y390D01*
X2594Y381D01*
X2592Y370D01*
Y210D01*
X2594Y199D01*
X2600Y190D01*
X2607Y183D01*
X2607Y180D01*
X2610Y163D01*
X2619Y149D01*
X2633Y140D01*
X2650Y137D01*
X2667Y140D01*
X2681Y149D01*
X2690Y163D01*
X2693Y180D01*
X2690Y197D01*
X2681Y211D01*
X2667Y220D01*
X2650Y223D01*
X2648Y225D01*
Y261D01*
X2668Y277D01*
X2670Y277D01*
X2687Y280D01*
X2701Y289D01*
X2706Y298D01*
X2717Y303D01*
X2730Y303D01*
X2739Y297D01*
X2756Y294D01*
X2792D01*
Y390D01*
X2833D01*
Y294D01*
X2840D01*
X2840Y100D01*
X2840Y90D01*
X2832Y72D01*
X2818Y58D01*
X2809Y54D01*
X2790Y50D01*
Y50D01*
X2209D01*
X2197Y68D01*
X2197Y70D01*
X2210Y80D01*
X2221Y95D01*
X2228Y112D01*
X2231Y130D01*
X2228Y148D01*
X2221Y165D01*
X2210Y180D01*
X2196Y191D01*
Y223D01*
X2200Y227D01*
X2217Y230D01*
X2223Y234D01*
X2227D01*
X2233Y230D01*
X2250Y227D01*
X2267Y230D01*
X2281Y239D01*
X2290Y253D01*
X2293Y270D01*
X2290Y287D01*
X2281Y301D01*
X2283Y321D01*
X2286Y338D01*
Y370D01*
X2173D01*
Y410D01*
X2286D01*
Y432D01*
X2288Y444D01*
X2304Y454D01*
X2307Y455D01*
X2321Y464D01*
X2330Y478D01*
X2330Y478D01*
X2340Y497D01*
X2357Y500D01*
X2371Y509D01*
X2374Y515D01*
X2379Y511D01*
X2388Y510D01*
X2412D01*
X2421Y511D01*
X2425Y514D01*
X2429Y511D01*
X2438Y510D01*
X2462D01*
X2464Y510D01*
X2464Y509D01*
X2475Y502D01*
X2480Y501D01*
Y519D01*
X2484Y524D01*
X2485Y533D01*
Y580D01*
X2515D01*
Y533D01*
D02*
G37*
G36*
X1660Y597D02*
X1816D01*
X1835Y589D01*
X1838Y584D01*
X1843Y564D01*
X1835Y551D01*
X1832Y540D01*
X1890D01*
Y500D01*
X1832D01*
X1818Y480D01*
X1810D01*
X1810Y480D01*
X1802Y479D01*
X1796Y474D01*
X1796Y474D01*
X1766Y444D01*
X1761Y438D01*
X1760Y430D01*
Y310D01*
X1760Y310D01*
X1761Y302D01*
X1766Y296D01*
X1766Y296D01*
X1796Y266D01*
X1802Y261D01*
X1810Y260D01*
X1819D01*
Y236D01*
X1816Y233D01*
X1531D01*
Y298D01*
X1551Y309D01*
X1552Y308D01*
X1570Y304D01*
X1588Y308D01*
X1602Y318D01*
X1612Y332D01*
X1616Y349D01*
X1630Y347D01*
X1647Y350D01*
X1661Y359D01*
X1670Y373D01*
X1673Y390D01*
X1670Y407D01*
X1661Y421D01*
X1647Y430D01*
X1630Y433D01*
X1613Y430D01*
X1599Y421D01*
X1590Y407D01*
X1587Y392D01*
X1570Y396D01*
X1552Y392D01*
X1551Y391D01*
X1531Y402D01*
Y440D01*
X1548Y454D01*
X1559D01*
X1560Y453D01*
X1580Y449D01*
X1600Y453D01*
X1616Y464D01*
X1627Y480D01*
X1631Y500D01*
X1627Y520D01*
X1616Y536D01*
X1600Y547D01*
X1580Y551D01*
X1560Y547D01*
X1559Y546D01*
X1541D01*
X1540Y547D01*
X1520Y551D01*
X1520Y551D01*
X1492Y578D01*
X1500Y597D01*
X1620D01*
Y710D01*
X1660D01*
Y597D01*
D02*
G37*
G36*
X133Y537D02*
X162D01*
X164Y529D01*
X170Y520D01*
X200Y490D01*
X202Y489D01*
X208Y483D01*
X200Y471D01*
X197Y456D01*
Y300D01*
X310D01*
Y260D01*
X197D01*
Y193D01*
X178Y185D01*
X161Y203D01*
X125Y249D01*
X96Y301D01*
X73Y355D01*
X61Y400D01*
X77Y417D01*
X77Y417D01*
X80Y417D01*
X97Y420D01*
X111Y429D01*
X120Y443D01*
X123Y460D01*
X120Y477D01*
X111Y491D01*
X108Y492D01*
Y525D01*
X114Y530D01*
X128Y538D01*
X133Y537D01*
D02*
G37*
G36*
X2050Y460D02*
X2070Y440D01*
X2070Y300D01*
X2060Y290D01*
X1984Y290D01*
X1950Y324D01*
X1950Y440D01*
X1970Y460D01*
X2050Y460D01*
D02*
G37*
G36*
X1930Y440D02*
X1930Y324D01*
X1886Y280D01*
X1810Y280D01*
X1780Y310D01*
Y430D01*
X1810Y460D01*
X1910Y460D01*
X1930Y440D01*
D02*
G37*
G36*
X1922Y244D02*
X1922Y230D01*
X1880D01*
Y260D01*
X1907D01*
X1922Y244D01*
D02*
G37*
G36*
X1400Y270D02*
X1400Y110D01*
X1390Y100D01*
X1200Y100D01*
X1190Y110D01*
X1190Y270D01*
X1200Y280D01*
X1390Y280D01*
X1400Y270D01*
D02*
G37*
G36*
X1992Y260D02*
X2042Y260D01*
X2043Y261D01*
X2057Y262D01*
X2075Y245D01*
X2086Y237D01*
X2100Y234D01*
X2124D01*
Y191D01*
X2110Y180D01*
X2099Y165D01*
X2092Y148D01*
X2089Y130D01*
X2092Y112D01*
X2099Y95D01*
X2110Y80D01*
X2123Y70D01*
X2123Y68D01*
X2111Y50D01*
X1874D01*
X1859Y67D01*
X1874Y82D01*
X1906D01*
X1917Y84D01*
X1927Y91D01*
X1929Y93D01*
X1930Y94D01*
X1950D01*
X1951Y93D01*
X1953Y91D01*
X1963Y84D01*
X1974Y82D01*
X2006D01*
X2017Y84D01*
X2027Y91D01*
X2033Y100D01*
X2036Y111D01*
Y149D01*
X2033Y160D01*
X2027Y169D01*
X2017Y176D01*
X2014Y181D01*
X2013Y185D01*
X2017Y200D01*
X1988Y200D01*
X1908Y280D01*
X1940Y312D01*
X1992Y260D01*
D02*
G37*
G36*
X13874Y4228D02*
X13878Y4228D01*
X13882Y4227D01*
X13885Y4226D01*
X13887Y4225D01*
X13889Y4224D01*
X13890Y4224D01*
X13891Y4223D01*
X13894Y4221D01*
X13897Y4219D01*
X13899Y4217D01*
X13901Y4214D01*
X13903Y4213D01*
X13904Y4211D01*
X13905Y4210D01*
X13905Y4209D01*
Y4226D01*
X13923D01*
Y4110D01*
X13903D01*
Y4170D01*
X13903Y4176D01*
X13903Y4181D01*
X13902Y4185D01*
X13901Y4188D01*
X13901Y4191D01*
X13900Y4193D01*
X13900Y4194D01*
X13900Y4194D01*
X13898Y4197D01*
X13897Y4200D01*
X13895Y4202D01*
X13894Y4204D01*
X13892Y4205D01*
X13891Y4206D01*
X13890Y4207D01*
X13890Y4207D01*
X13887Y4209D01*
X13884Y4210D01*
X13882Y4210D01*
X13879Y4211D01*
X13877Y4211D01*
X13876Y4212D01*
X13874D01*
X13870Y4211D01*
X13867Y4211D01*
X13864Y4209D01*
X13862Y4208D01*
X13861Y4207D01*
X13860Y4206D01*
X13859Y4205D01*
X13859Y4205D01*
X13857Y4202D01*
X13856Y4199D01*
X13855Y4196D01*
X13854Y4193D01*
X13854Y4190D01*
X13854Y4187D01*
Y4186D01*
Y4186D01*
Y4185D01*
Y4185D01*
Y4110D01*
X13834D01*
Y4177D01*
X13834Y4184D01*
X13833Y4189D01*
X13832Y4193D01*
X13830Y4197D01*
X13829Y4200D01*
X13827Y4202D01*
X13826Y4203D01*
X13826Y4203D01*
X13823Y4206D01*
X13819Y4208D01*
X13816Y4209D01*
X13813Y4211D01*
X13810Y4211D01*
X13807Y4211D01*
X13807Y4212D01*
X13805D01*
X13803Y4211D01*
X13801Y4211D01*
X13799Y4211D01*
X13797Y4210D01*
X13795Y4209D01*
X13795Y4209D01*
X13794Y4209D01*
X13794Y4208D01*
X13792Y4207D01*
X13790Y4206D01*
X13789Y4204D01*
X13788Y4203D01*
X13788Y4202D01*
X13787Y4201D01*
X13787Y4200D01*
Y4200D01*
X13786Y4198D01*
X13786Y4195D01*
X13785Y4192D01*
X13785Y4189D01*
X13785Y4187D01*
Y4185D01*
Y4183D01*
Y4183D01*
Y4183D01*
Y4110D01*
X13765D01*
Y4190D01*
Y4193D01*
X13766Y4197D01*
X13766Y4200D01*
X13767Y4203D01*
X13767Y4205D01*
X13768Y4208D01*
X13769Y4210D01*
X13770Y4212D01*
X13771Y4213D01*
X13771Y4215D01*
X13773Y4217D01*
X13774Y4219D01*
X13774Y4219D01*
X13778Y4222D01*
X13783Y4225D01*
X13787Y4226D01*
X13791Y4228D01*
X13795Y4228D01*
X13797Y4228D01*
X13798D01*
X13799Y4229D01*
X13801D01*
X13805Y4228D01*
X13809Y4228D01*
X13813Y4227D01*
X13816Y4225D01*
X13819Y4224D01*
X13822Y4222D01*
X13825Y4220D01*
X13827Y4219D01*
X13830Y4216D01*
X13832Y4215D01*
X13833Y4213D01*
X13835Y4211D01*
X13836Y4210D01*
X13836Y4209D01*
X13837Y4208D01*
X13837Y4208D01*
X13839Y4212D01*
X13840Y4215D01*
X13842Y4217D01*
X13844Y4219D01*
X13846Y4221D01*
X13848Y4222D01*
X13848Y4223D01*
X13849Y4223D01*
X13852Y4225D01*
X13856Y4226D01*
X13859Y4227D01*
X13863Y4228D01*
X13865Y4228D01*
X13868Y4229D01*
X13870D01*
X13874Y4228D01*
D02*
G37*
G36*
X14528Y4158D02*
X14467D01*
Y4178D01*
X14528D01*
Y4158D01*
D02*
G37*
G36*
X14168Y4255D02*
Y4226D01*
X14183D01*
Y4211D01*
X14168D01*
Y4144D01*
Y4141D01*
Y4138D01*
X14168Y4135D01*
X14168Y4133D01*
Y4131D01*
X14168Y4129D01*
X14167Y4126D01*
X14167Y4123D01*
X14166Y4122D01*
X14166Y4121D01*
Y4121D01*
X14165Y4119D01*
X14164Y4117D01*
X14162Y4115D01*
X14161Y4114D01*
X14160Y4113D01*
X14159Y4112D01*
X14158Y4112D01*
X14158Y4112D01*
X14155Y4110D01*
X14153Y4110D01*
X14150Y4109D01*
X14147Y4109D01*
X14145Y4109D01*
X14143Y4108D01*
X14141D01*
X14136Y4109D01*
X14134Y4109D01*
X14131Y4109D01*
X14129Y4110D01*
X14128Y4110D01*
X14127Y4110D01*
X14126D01*
X14129Y4127D01*
X14131Y4127D01*
X14132Y4127D01*
X14134D01*
X14135Y4127D01*
X14137D01*
X14140Y4127D01*
X14143Y4127D01*
X14144Y4128D01*
X14144Y4128D01*
X14146Y4129D01*
X14147Y4130D01*
X14147Y4131D01*
X14148Y4132D01*
X14148Y4133D01*
X14148Y4135D01*
X14148Y4138D01*
X14149Y4140D01*
Y4141D01*
Y4142D01*
Y4143D01*
Y4211D01*
X14129D01*
Y4226D01*
X14149D01*
Y4267D01*
X14168Y4255D01*
D02*
G37*
G36*
X14106D02*
Y4226D01*
X14121D01*
Y4211D01*
X14106D01*
Y4144D01*
Y4141D01*
Y4138D01*
X14106Y4135D01*
X14106Y4133D01*
Y4131D01*
X14105Y4129D01*
X14105Y4126D01*
X14104Y4123D01*
X14104Y4122D01*
X14104Y4121D01*
Y4121D01*
X14103Y4119D01*
X14101Y4117D01*
X14100Y4115D01*
X14099Y4114D01*
X14097Y4113D01*
X14097Y4112D01*
X14096Y4112D01*
X14096Y4112D01*
X14093Y4110D01*
X14090Y4110D01*
X14088Y4109D01*
X14085Y4109D01*
X14083Y4109D01*
X14081Y4108D01*
X14079D01*
X14074Y4109D01*
X14071Y4109D01*
X14069Y4109D01*
X14067Y4110D01*
X14065Y4110D01*
X14064Y4110D01*
X14064D01*
X14066Y4127D01*
X14068Y4127D01*
X14070Y4127D01*
X14072D01*
X14073Y4127D01*
X14075D01*
X14078Y4127D01*
X14080Y4127D01*
X14081Y4128D01*
X14082Y4128D01*
X14084Y4129D01*
X14084Y4130D01*
X14085Y4131D01*
X14085Y4132D01*
X14086Y4133D01*
X14086Y4135D01*
X14086Y4138D01*
X14086Y4140D01*
Y4141D01*
Y4142D01*
Y4143D01*
Y4211D01*
X14066D01*
Y4226D01*
X14086D01*
Y4267D01*
X14106Y4255D01*
D02*
G37*
G36*
X14444Y4110D02*
X14383D01*
X14377Y4110D01*
X14372Y4110D01*
X14368Y4111D01*
X14364Y4111D01*
X14361Y4112D01*
X14359Y4112D01*
X14357Y4113D01*
X14357D01*
X14353Y4114D01*
X14350Y4115D01*
X14347Y4116D01*
X14344Y4118D01*
X14342Y4119D01*
X14340Y4119D01*
X14339Y4120D01*
X14339Y4120D01*
X14337Y4122D01*
X14334Y4125D01*
X14333Y4128D01*
X14331Y4130D01*
X14329Y4132D01*
X14328Y4134D01*
X14328Y4135D01*
X14327Y4135D01*
X14326Y4139D01*
X14325Y4143D01*
X14324Y4146D01*
X14323Y4150D01*
X14323Y4152D01*
X14323Y4155D01*
Y4156D01*
Y4156D01*
Y4157D01*
X14323Y4162D01*
X14324Y4166D01*
X14325Y4170D01*
X14327Y4174D01*
X14328Y4177D01*
X14329Y4179D01*
X14330Y4180D01*
X14330Y4181D01*
X14334Y4184D01*
X14337Y4187D01*
X14341Y4190D01*
X14345Y4192D01*
X14348Y4194D01*
X14351Y4194D01*
X14352Y4195D01*
X14352Y4195D01*
X14353Y4195D01*
X14353D01*
X14349Y4198D01*
X14345Y4200D01*
X14343Y4203D01*
X14340Y4205D01*
X14339Y4207D01*
X14337Y4209D01*
X14336Y4209D01*
X14336Y4210D01*
X14334Y4213D01*
X14333Y4217D01*
X14332Y4220D01*
X14331Y4223D01*
X14331Y4225D01*
X14330Y4228D01*
Y4229D01*
Y4229D01*
X14331Y4233D01*
X14331Y4237D01*
X14333Y4241D01*
X14334Y4244D01*
X14335Y4247D01*
X14336Y4248D01*
X14337Y4250D01*
X14337Y4250D01*
X14339Y4254D01*
X14342Y4257D01*
X14345Y4259D01*
X14348Y4262D01*
X14350Y4263D01*
X14352Y4264D01*
X14354Y4265D01*
X14354Y4265D01*
X14354D01*
X14359Y4267D01*
X14364Y4268D01*
X14368Y4269D01*
X14373Y4269D01*
X14377Y4270D01*
X14379D01*
X14381Y4270D01*
X14444D01*
Y4110D01*
D02*
G37*
G36*
X14253Y4228D02*
X14257Y4228D01*
X14264Y4227D01*
X14270Y4225D01*
X14273Y4223D01*
X14275Y4222D01*
X14278Y4221D01*
X14280Y4220D01*
X14281Y4219D01*
X14283Y4218D01*
X14284Y4217D01*
X14285Y4216D01*
X14285Y4216D01*
X14286Y4216D01*
X14289Y4213D01*
X14291Y4209D01*
X14294Y4206D01*
X14296Y4202D01*
X14298Y4198D01*
X14299Y4194D01*
X14300Y4190D01*
X14301Y4186D01*
X14302Y4182D01*
X14302Y4179D01*
X14303Y4176D01*
X14303Y4173D01*
Y4171D01*
X14303Y4169D01*
Y4169D01*
Y4168D01*
X14303Y4163D01*
X14303Y4158D01*
X14302Y4153D01*
X14301Y4149D01*
X14300Y4145D01*
X14299Y4141D01*
X14297Y4138D01*
X14296Y4135D01*
X14295Y4132D01*
X14293Y4129D01*
X14292Y4128D01*
X14291Y4126D01*
X14290Y4125D01*
X14289Y4124D01*
X14289Y4123D01*
X14289Y4123D01*
X14286Y4120D01*
X14283Y4118D01*
X14279Y4116D01*
X14276Y4114D01*
X14273Y4113D01*
X14269Y4111D01*
X14263Y4109D01*
X14260Y4109D01*
X14258Y4108D01*
X14255Y4108D01*
X14253Y4108D01*
X14251Y4107D01*
X14249D01*
X14243Y4108D01*
X14238Y4109D01*
X14233Y4110D01*
X14230Y4111D01*
X14226Y4112D01*
X14225Y4113D01*
X14224Y4113D01*
X14222Y4114D01*
X14222Y4114D01*
X14221Y4114D01*
X14221D01*
X14217Y4117D01*
X14213Y4121D01*
X14209Y4124D01*
X14206Y4127D01*
X14204Y4130D01*
X14203Y4132D01*
X14202Y4133D01*
X14202Y4134D01*
X14202Y4134D01*
Y4134D01*
X14199Y4140D01*
X14198Y4145D01*
X14196Y4151D01*
X14196Y4157D01*
X14195Y4160D01*
Y4162D01*
X14195Y4164D01*
X14195Y4166D01*
Y4168D01*
Y4169D01*
Y4169D01*
Y4170D01*
X14195Y4175D01*
X14195Y4179D01*
X14196Y4184D01*
X14197Y4188D01*
X14198Y4192D01*
X14199Y4195D01*
X14201Y4199D01*
X14202Y4202D01*
X14204Y4204D01*
X14205Y4206D01*
X14206Y4209D01*
X14208Y4210D01*
X14209Y4211D01*
X14209Y4212D01*
X14210Y4213D01*
X14210Y4213D01*
X14213Y4216D01*
X14216Y4218D01*
X14219Y4220D01*
X14222Y4222D01*
X14226Y4224D01*
X14229Y4225D01*
X14235Y4227D01*
X14238Y4227D01*
X14241Y4228D01*
X14243Y4228D01*
X14245Y4228D01*
X14247Y4229D01*
X14249D01*
X14253Y4228D01*
D02*
G37*
G36*
X14004D02*
X14008Y4228D01*
X14015Y4227D01*
X14021Y4225D01*
X14024Y4223D01*
X14026Y4222D01*
X14029Y4221D01*
X14031Y4220D01*
X14032Y4219D01*
X14034Y4218D01*
X14035Y4217D01*
X14036Y4216D01*
X14036Y4216D01*
X14037Y4216D01*
X14040Y4213D01*
X14042Y4209D01*
X14045Y4206D01*
X14047Y4202D01*
X14049Y4198D01*
X14050Y4194D01*
X14051Y4190D01*
X14052Y4186D01*
X14053Y4182D01*
X14053Y4179D01*
X14054Y4176D01*
X14054Y4173D01*
Y4171D01*
X14054Y4169D01*
Y4169D01*
Y4168D01*
X14054Y4163D01*
X14054Y4158D01*
X14053Y4153D01*
X14052Y4149D01*
X14051Y4145D01*
X14050Y4141D01*
X14048Y4138D01*
X14047Y4135D01*
X14046Y4132D01*
X14044Y4129D01*
X14043Y4128D01*
X14042Y4126D01*
X14041Y4125D01*
X14040Y4124D01*
X14040Y4123D01*
X14040Y4123D01*
X14037Y4120D01*
X14034Y4118D01*
X14030Y4116D01*
X14027Y4114D01*
X14024Y4113D01*
X14020Y4111D01*
X14014Y4109D01*
X14011Y4109D01*
X14009Y4108D01*
X14006Y4108D01*
X14004Y4108D01*
X14002Y4107D01*
X14000D01*
X13994Y4108D01*
X13989Y4109D01*
X13985Y4110D01*
X13981Y4111D01*
X13977Y4112D01*
X13976Y4113D01*
X13975Y4113D01*
X13973Y4114D01*
X13973Y4114D01*
X13972Y4114D01*
X13972D01*
X13968Y4117D01*
X13964Y4121D01*
X13960Y4124D01*
X13957Y4127D01*
X13955Y4130D01*
X13954Y4132D01*
X13953Y4133D01*
X13953Y4134D01*
X13953Y4134D01*
Y4134D01*
X13950Y4140D01*
X13949Y4145D01*
X13947Y4151D01*
X13947Y4157D01*
X13946Y4160D01*
Y4162D01*
X13946Y4164D01*
X13946Y4166D01*
Y4168D01*
Y4169D01*
Y4169D01*
Y4170D01*
X13946Y4175D01*
X13946Y4179D01*
X13947Y4184D01*
X13948Y4188D01*
X13949Y4192D01*
X13950Y4195D01*
X13952Y4199D01*
X13953Y4202D01*
X13955Y4204D01*
X13956Y4206D01*
X13957Y4209D01*
X13959Y4210D01*
X13960Y4211D01*
X13960Y4212D01*
X13961Y4213D01*
X13961Y4213D01*
X13964Y4216D01*
X13967Y4218D01*
X13970Y4220D01*
X13973Y4222D01*
X13977Y4224D01*
X13980Y4225D01*
X13986Y4227D01*
X13989Y4227D01*
X13992Y4228D01*
X13994Y4228D01*
X13996Y4228D01*
X13998Y4229D01*
X14000D01*
X14004Y4228D01*
D02*
G37*
G36*
X14601Y4271D02*
X14605Y4270D01*
X14612Y4269D01*
X14615Y4268D01*
X14617Y4267D01*
X14620Y4266D01*
X14622Y4265D01*
X14624Y4264D01*
X14626Y4262D01*
X14628Y4262D01*
X14629Y4261D01*
X14630Y4260D01*
X14630Y4259D01*
X14631Y4259D01*
X14631Y4259D01*
X14633Y4256D01*
X14635Y4254D01*
X14637Y4252D01*
X14638Y4249D01*
X14641Y4244D01*
X14642Y4240D01*
X14643Y4236D01*
X14643Y4234D01*
X14643Y4232D01*
X14644Y4231D01*
Y4230D01*
Y4230D01*
Y4229D01*
X14643Y4225D01*
X14643Y4221D01*
X14642Y4218D01*
X14641Y4215D01*
X14640Y4213D01*
X14639Y4211D01*
X14638Y4210D01*
X14638Y4209D01*
X14635Y4206D01*
X14632Y4204D01*
X14629Y4202D01*
X14626Y4200D01*
X14624Y4198D01*
X14622Y4197D01*
X14621Y4197D01*
X14620Y4197D01*
X14620Y4197D01*
X14619D01*
X14625Y4195D01*
X14629Y4193D01*
X14633Y4190D01*
X14636Y4188D01*
X14639Y4186D01*
X14641Y4184D01*
X14642Y4183D01*
X14642Y4182D01*
Y4182D01*
X14645Y4178D01*
X14647Y4174D01*
X14648Y4169D01*
X14649Y4165D01*
X14650Y4162D01*
X14650Y4160D01*
Y4159D01*
X14650Y4158D01*
Y4157D01*
Y4156D01*
Y4156D01*
X14650Y4152D01*
X14649Y4149D01*
X14649Y4145D01*
X14648Y4142D01*
X14645Y4136D01*
X14644Y4133D01*
X14643Y4131D01*
X14641Y4129D01*
X14640Y4127D01*
X14639Y4125D01*
X14638Y4124D01*
X14637Y4122D01*
X14636Y4122D01*
X14636Y4121D01*
X14636Y4121D01*
X14633Y4119D01*
X14630Y4116D01*
X14627Y4115D01*
X14623Y4113D01*
X14620Y4112D01*
X14617Y4111D01*
X14611Y4109D01*
X14608Y4108D01*
X14606Y4108D01*
X14603Y4108D01*
X14601Y4107D01*
X14600Y4107D01*
X14597D01*
X14593Y4107D01*
X14589Y4108D01*
X14585Y4109D01*
X14581Y4109D01*
X14578Y4110D01*
X14575Y4112D01*
X14572Y4113D01*
X14569Y4114D01*
X14567Y4116D01*
X14565Y4117D01*
X14563Y4118D01*
X14562Y4119D01*
X14560Y4120D01*
X14560Y4120D01*
X14559Y4121D01*
X14559Y4121D01*
X14557Y4124D01*
X14554Y4127D01*
X14552Y4129D01*
X14551Y4132D01*
X14549Y4135D01*
X14548Y4138D01*
X14546Y4144D01*
X14546Y4146D01*
X14545Y4148D01*
X14545Y4150D01*
X14545Y4152D01*
X14544Y4154D01*
Y4155D01*
Y4155D01*
Y4156D01*
X14545Y4161D01*
X14546Y4166D01*
X14547Y4170D01*
X14548Y4174D01*
X14550Y4177D01*
X14551Y4179D01*
X14552Y4181D01*
X14552Y4181D01*
Y4181D01*
X14556Y4185D01*
X14559Y4188D01*
X14563Y4191D01*
X14566Y4193D01*
X14569Y4194D01*
X14572Y4196D01*
X14573Y4196D01*
X14574Y4196D01*
X14574Y4197D01*
X14575D01*
X14570Y4198D01*
X14567Y4200D01*
X14564Y4203D01*
X14561Y4205D01*
X14560Y4206D01*
X14558Y4208D01*
X14557Y4209D01*
X14557Y4209D01*
X14555Y4213D01*
X14554Y4216D01*
X14552Y4219D01*
X14552Y4222D01*
X14551Y4225D01*
X14551Y4227D01*
Y4228D01*
Y4228D01*
Y4229D01*
X14551Y4232D01*
X14551Y4235D01*
X14553Y4241D01*
X14555Y4246D01*
X14557Y4250D01*
X14560Y4254D01*
X14561Y4255D01*
X14562Y4256D01*
X14563Y4257D01*
X14563Y4258D01*
X14564Y4258D01*
X14564Y4259D01*
X14566Y4261D01*
X14569Y4263D01*
X14572Y4264D01*
X14575Y4266D01*
X14580Y4268D01*
X14586Y4269D01*
X14588Y4270D01*
X14590Y4270D01*
X14592Y4270D01*
X14594Y4271D01*
X14596Y4271D01*
X14598D01*
X14601Y4271D01*
D02*
G37*
%LPC*%
G36*
X2808Y4606D02*
X2758D01*
X2741Y4603D01*
X2727Y4593D01*
X2717Y4579D01*
X2714Y4562D01*
Y4530D01*
X2808D01*
Y4606D01*
D02*
G37*
G36*
Y4490D02*
X2714D01*
Y4458D01*
X2717Y4441D01*
X2727Y4427D01*
X2741Y4417D01*
X2758Y4414D01*
X2808D01*
Y4490D01*
D02*
G37*
G36*
X4230Y4916D02*
Y4880D01*
X4268D01*
X4265Y4891D01*
X4257Y4904D01*
X4244Y4913D01*
X4230Y4916D01*
D02*
G37*
G36*
X1236Y3018D02*
X1206D01*
Y2952D01*
X1319D01*
X1319Y2954D01*
X1310Y2975D01*
X1297Y2993D01*
X1279Y3006D01*
X1258Y3015D01*
X1236Y3018D01*
D02*
G37*
G36*
X1166D02*
X1136D01*
X1114Y3015D01*
X1093Y3006D01*
X1075Y2993D01*
X1062Y2975D01*
X1053Y2954D01*
X1053Y2952D01*
X1166D01*
Y3018D01*
D02*
G37*
G36*
X908Y2942D02*
X720D01*
Y2876D01*
X825D01*
X847Y2879D01*
X868Y2888D01*
X886Y2901D01*
X899Y2919D01*
X908Y2940D01*
X908Y2942D01*
D02*
G37*
G36*
X1319Y2912D02*
X1206D01*
Y2846D01*
X1236D01*
X1258Y2849D01*
X1279Y2858D01*
X1297Y2871D01*
X1310Y2889D01*
X1319Y2910D01*
X1319Y2912D01*
D02*
G37*
G36*
X1166D02*
X1053D01*
X1053Y2910D01*
X1062Y2889D01*
X1075Y2871D01*
X1093Y2858D01*
X1114Y2849D01*
X1136Y2846D01*
X1166D01*
Y2912D01*
D02*
G37*
G36*
X1500Y2768D02*
X1489Y2765D01*
X1476Y2757D01*
X1467Y2744D01*
X1464Y2730D01*
X1500D01*
Y2768D01*
D02*
G37*
G36*
Y2690D02*
X1464D01*
X1467Y2676D01*
X1476Y2663D01*
X1489Y2655D01*
X1500Y2652D01*
Y2690D01*
D02*
G37*
G36*
X3180Y2133D02*
X3163Y2130D01*
X3149Y2121D01*
X3141D01*
X3127Y2130D01*
X3110Y2133D01*
X3093Y2130D01*
X3079Y2121D01*
X3070Y2107D01*
X3067Y2090D01*
X3070Y2073D01*
X3079Y2059D01*
X3093Y2050D01*
X3110Y2047D01*
X3127Y2050D01*
X3141Y2059D01*
X3149D01*
X3163Y2050D01*
X3180Y2047D01*
X3197Y2050D01*
X3211Y2059D01*
X3220Y2073D01*
X3223Y2090D01*
X3220Y2107D01*
X3211Y2121D01*
X3197Y2130D01*
X3180Y2133D01*
D02*
G37*
G36*
X3330Y2013D02*
X3313Y2010D01*
X3299Y2001D01*
X3290Y1987D01*
X3287Y1970D01*
X3290Y1953D01*
X3299Y1939D01*
X3313Y1930D01*
X3330Y1927D01*
X3347Y1930D01*
X3361Y1939D01*
X3370Y1953D01*
X3373Y1970D01*
X3370Y1987D01*
X3361Y2001D01*
X3347Y2010D01*
X3330Y2013D01*
D02*
G37*
G36*
X3020Y1773D02*
X3003Y1770D01*
X2989Y1761D01*
X2980Y1747D01*
X2977Y1730D01*
X2980Y1713D01*
X2989Y1699D01*
X3003Y1690D01*
X3020Y1687D01*
X3037Y1690D01*
X3051Y1699D01*
X3060Y1713D01*
X3063Y1730D01*
X3060Y1747D01*
X3051Y1761D01*
X3037Y1770D01*
X3020Y1773D01*
D02*
G37*
G36*
X2298Y2370D02*
X2260D01*
Y2334D01*
X2274Y2337D01*
X2287Y2346D01*
X2295Y2359D01*
X2298Y2370D01*
D02*
G37*
G36*
X1236Y2154D02*
X1206D01*
Y2088D01*
X1319D01*
X1319Y2090D01*
X1310Y2111D01*
X1297Y2129D01*
X1279Y2142D01*
X1258Y2151D01*
X1236Y2154D01*
D02*
G37*
G36*
X1310Y1276D02*
Y1240D01*
X1348D01*
X1345Y1251D01*
X1337Y1264D01*
X1324Y1273D01*
X1310Y1276D01*
D02*
G37*
G36*
X1410Y1230D02*
X1374D01*
X1377Y1216D01*
X1386Y1203D01*
X1399Y1195D01*
X1410Y1192D01*
Y1230D01*
D02*
G37*
G36*
X4660Y316D02*
X4660D01*
Y280D01*
X4696D01*
X4693Y294D01*
X4685Y305D01*
X4674Y313D01*
X4660Y316D01*
D02*
G37*
G36*
X4620Y316D02*
X4606Y313D01*
X4595Y305D01*
X4587Y294D01*
X4584Y280D01*
X4620D01*
Y316D01*
D02*
G37*
G36*
Y240D02*
X4584D01*
Y240D01*
X4587Y226D01*
X4595Y215D01*
X4606Y207D01*
X4620Y204D01*
Y240D01*
D02*
G37*
G36*
X4696D02*
X4660D01*
Y204D01*
X4660D01*
X4674Y207D01*
X4685Y215D01*
X4693Y226D01*
X4696Y240D01*
Y240D01*
D02*
G37*
G36*
X618Y550D02*
X580D01*
Y514D01*
X594Y517D01*
X607Y526D01*
X615Y539D01*
X618Y550D01*
D02*
G37*
G36*
X560Y383D02*
X543Y380D01*
X529Y371D01*
X520Y357D01*
X517Y340D01*
X520Y323D01*
X529Y309D01*
X543Y300D01*
X560Y297D01*
X577Y300D01*
X591Y309D01*
X600Y323D01*
X603Y340D01*
X600Y357D01*
X591Y371D01*
X577Y380D01*
X560Y383D01*
D02*
G37*
G36*
X2470Y473D02*
X2453Y470D01*
X2439Y461D01*
X2430Y447D01*
X2427Y430D01*
X2430Y413D01*
X2439Y399D01*
X2453Y390D01*
X2470Y387D01*
X2487Y390D01*
X2501Y399D01*
X2510Y413D01*
X2513Y430D01*
X2510Y447D01*
X2501Y461D01*
X2487Y470D01*
X2470Y473D01*
D02*
G37*
G36*
X14422Y4251D02*
X14384D01*
X14379Y4251D01*
X14375Y4250D01*
X14372Y4250D01*
X14369Y4250D01*
X14368Y4249D01*
X14367Y4249D01*
X14366D01*
X14364Y4248D01*
X14361Y4247D01*
X14360Y4245D01*
X14358Y4244D01*
X14357Y4243D01*
X14356Y4241D01*
X14355Y4241D01*
X14355Y4241D01*
X14354Y4238D01*
X14353Y4236D01*
X14352Y4234D01*
X14352Y4231D01*
X14352Y4229D01*
X14351Y4228D01*
Y4227D01*
Y4227D01*
X14352Y4224D01*
X14352Y4221D01*
X14353Y4219D01*
X14353Y4217D01*
X14354Y4215D01*
X14355Y4214D01*
X14355Y4213D01*
X14355Y4213D01*
X14357Y4211D01*
X14359Y4209D01*
X14361Y4208D01*
X14363Y4207D01*
X14365Y4206D01*
X14366Y4205D01*
X14367Y4205D01*
X14368Y4205D01*
X14370Y4204D01*
X14373Y4204D01*
X14377Y4203D01*
X14380Y4203D01*
X14383Y4203D01*
X14422D01*
Y4251D01*
D02*
G37*
G36*
Y4184D02*
X14380D01*
X14375Y4184D01*
X14371Y4183D01*
X14368Y4183D01*
X14366Y4182D01*
X14364Y4182D01*
X14363Y4182D01*
X14362Y4181D01*
X14359Y4180D01*
X14357Y4179D01*
X14354Y4177D01*
X14352Y4175D01*
X14351Y4174D01*
X14350Y4173D01*
X14349Y4172D01*
X14349Y4172D01*
X14348Y4169D01*
X14346Y4167D01*
X14345Y4164D01*
X14345Y4162D01*
X14345Y4160D01*
X14344Y4158D01*
Y4157D01*
Y4157D01*
X14345Y4154D01*
X14345Y4151D01*
X14345Y4149D01*
X14346Y4147D01*
X14347Y4145D01*
X14347Y4144D01*
X14347Y4143D01*
X14348Y4143D01*
X14349Y4141D01*
X14350Y4139D01*
X14352Y4138D01*
X14353Y4136D01*
X14354Y4135D01*
X14355Y4135D01*
X14356Y4134D01*
X14356Y4134D01*
X14360Y4132D01*
X14364Y4131D01*
X14365Y4130D01*
X14367Y4130D01*
X14368Y4130D01*
X14368D01*
X14370Y4129D01*
X14372Y4129D01*
X14377Y4129D01*
X14422D01*
Y4184D01*
D02*
G37*
G36*
X14250Y4213D02*
X14249D01*
X14246Y4212D01*
X14244Y4212D01*
X14239Y4211D01*
X14235Y4209D01*
X14231Y4207D01*
X14229Y4205D01*
X14227Y4203D01*
X14225Y4202D01*
X14225Y4202D01*
Y4201D01*
X14223Y4199D01*
X14221Y4197D01*
X14219Y4192D01*
X14217Y4186D01*
X14216Y4181D01*
X14215Y4176D01*
X14215Y4174D01*
Y4172D01*
X14215Y4171D01*
Y4170D01*
Y4169D01*
Y4169D01*
Y4165D01*
X14215Y4161D01*
X14216Y4157D01*
X14216Y4154D01*
X14217Y4151D01*
X14218Y4148D01*
X14219Y4145D01*
X14220Y4143D01*
X14221Y4141D01*
X14221Y4139D01*
X14222Y4138D01*
X14223Y4137D01*
X14224Y4136D01*
X14224Y4135D01*
X14224Y4135D01*
X14225Y4135D01*
X14227Y4133D01*
X14229Y4131D01*
X14233Y4128D01*
X14237Y4126D01*
X14240Y4125D01*
X14244Y4124D01*
X14246Y4124D01*
X14248Y4124D01*
X14249D01*
X14252Y4124D01*
X14254Y4124D01*
X14259Y4125D01*
X14263Y4127D01*
X14267Y4129D01*
X14270Y4131D01*
X14272Y4133D01*
X14273Y4134D01*
X14273Y4135D01*
X14274D01*
X14275Y4137D01*
X14277Y4139D01*
X14279Y4144D01*
X14281Y4150D01*
X14282Y4156D01*
X14283Y4160D01*
X14283Y4163D01*
Y4164D01*
X14283Y4166D01*
Y4167D01*
Y4168D01*
Y4168D01*
X14283Y4172D01*
X14283Y4176D01*
X14282Y4179D01*
X14282Y4183D01*
X14281Y4186D01*
X14280Y4188D01*
X14279Y4191D01*
X14278Y4193D01*
X14277Y4195D01*
X14277Y4197D01*
X14276Y4198D01*
X14275Y4199D01*
X14274Y4200D01*
X14274Y4201D01*
X14274Y4201D01*
Y4201D01*
X14272Y4203D01*
X14270Y4205D01*
X14266Y4208D01*
X14261Y4210D01*
X14258Y4211D01*
X14254Y4212D01*
X14252Y4212D01*
X14250Y4213D01*
D02*
G37*
G36*
X14001D02*
X14000D01*
X13997Y4212D01*
X13995Y4212D01*
X13990Y4211D01*
X13986Y4209D01*
X13982Y4207D01*
X13980Y4205D01*
X13978Y4203D01*
X13976Y4202D01*
X13976Y4202D01*
Y4201D01*
X13974Y4199D01*
X13972Y4197D01*
X13970Y4192D01*
X13968Y4186D01*
X13967Y4181D01*
X13966Y4176D01*
X13966Y4174D01*
Y4172D01*
X13966Y4171D01*
Y4170D01*
Y4169D01*
Y4169D01*
Y4165D01*
X13966Y4161D01*
X13967Y4157D01*
X13967Y4154D01*
X13968Y4151D01*
X13969Y4148D01*
X13970Y4145D01*
X13971Y4143D01*
X13972Y4141D01*
X13972Y4139D01*
X13973Y4138D01*
X13974Y4137D01*
X13975Y4136D01*
X13975Y4135D01*
X13975Y4135D01*
X13976Y4135D01*
X13978Y4133D01*
X13980Y4131D01*
X13984Y4128D01*
X13988Y4126D01*
X13991Y4125D01*
X13995Y4124D01*
X13997Y4124D01*
X13999Y4124D01*
X14000D01*
X14003Y4124D01*
X14005Y4124D01*
X14010Y4125D01*
X14014Y4127D01*
X14018Y4129D01*
X14021Y4131D01*
X14023Y4133D01*
X14024Y4134D01*
X14024Y4135D01*
X14025D01*
X14026Y4137D01*
X14028Y4139D01*
X14030Y4144D01*
X14032Y4150D01*
X14033Y4156D01*
X14034Y4160D01*
X14034Y4163D01*
Y4164D01*
X14034Y4166D01*
Y4167D01*
Y4168D01*
Y4168D01*
X14034Y4172D01*
X14034Y4176D01*
X14033Y4179D01*
X14033Y4183D01*
X14032Y4186D01*
X14031Y4188D01*
X14030Y4191D01*
X14029Y4193D01*
X14028Y4195D01*
X14028Y4197D01*
X14027Y4198D01*
X14026Y4199D01*
X14025Y4200D01*
X14025Y4201D01*
X14025Y4201D01*
Y4201D01*
X14023Y4203D01*
X14021Y4205D01*
X14017Y4208D01*
X14013Y4210D01*
X14009Y4211D01*
X14005Y4212D01*
X14003Y4212D01*
X14001Y4213D01*
D02*
G37*
G36*
X14599Y4255D02*
X14597D01*
X14593Y4254D01*
X14590Y4253D01*
X14587Y4252D01*
X14584Y4251D01*
X14582Y4250D01*
X14580Y4248D01*
X14579Y4247D01*
X14579Y4247D01*
X14576Y4244D01*
X14574Y4241D01*
X14573Y4238D01*
X14572Y4235D01*
X14572Y4233D01*
X14571Y4231D01*
Y4229D01*
Y4229D01*
Y4229D01*
X14571Y4225D01*
X14572Y4222D01*
X14573Y4219D01*
X14575Y4216D01*
X14576Y4214D01*
X14577Y4213D01*
X14578Y4212D01*
X14578Y4211D01*
X14581Y4209D01*
X14585Y4207D01*
X14588Y4206D01*
X14591Y4205D01*
X14593Y4205D01*
X14595Y4204D01*
X14597Y4204D01*
X14597D01*
X14601Y4204D01*
X14605Y4205D01*
X14608Y4206D01*
X14611Y4208D01*
X14613Y4209D01*
X14615Y4210D01*
X14616Y4211D01*
X14616Y4211D01*
X14619Y4214D01*
X14620Y4217D01*
X14622Y4220D01*
X14622Y4223D01*
X14623Y4226D01*
X14623Y4228D01*
X14623Y4229D01*
Y4230D01*
Y4230D01*
X14623Y4234D01*
X14622Y4237D01*
X14621Y4240D01*
X14620Y4242D01*
X14619Y4244D01*
X14617Y4246D01*
X14616Y4247D01*
X14616Y4247D01*
X14613Y4250D01*
X14610Y4252D01*
X14607Y4253D01*
X14604Y4254D01*
X14601Y4254D01*
X14599Y4255D01*
D02*
G37*
G36*
X14599Y4188D02*
X14598D01*
X14593Y4188D01*
X14588Y4187D01*
X14584Y4185D01*
X14581Y4184D01*
X14578Y4182D01*
X14576Y4180D01*
X14575Y4179D01*
X14574Y4179D01*
X14571Y4175D01*
X14569Y4171D01*
X14567Y4167D01*
X14566Y4164D01*
X14565Y4160D01*
X14565Y4158D01*
X14565Y4157D01*
Y4156D01*
Y4156D01*
Y4155D01*
X14565Y4150D01*
X14566Y4146D01*
X14568Y4142D01*
X14569Y4139D01*
X14571Y4136D01*
X14572Y4134D01*
X14573Y4133D01*
X14574Y4132D01*
X14578Y4129D01*
X14581Y4127D01*
X14585Y4126D01*
X14589Y4125D01*
X14592Y4124D01*
X14595Y4124D01*
X14596Y4123D01*
X14597D01*
X14600Y4124D01*
X14604Y4124D01*
X14607Y4125D01*
X14609Y4126D01*
X14611Y4126D01*
X14613Y4127D01*
X14614Y4127D01*
X14614Y4128D01*
X14617Y4129D01*
X14619Y4131D01*
X14622Y4133D01*
X14623Y4135D01*
X14625Y4137D01*
X14625Y4138D01*
X14626Y4140D01*
X14626Y4140D01*
X14627Y4143D01*
X14628Y4146D01*
X14629Y4148D01*
X14629Y4151D01*
X14630Y4153D01*
X14630Y4155D01*
Y4156D01*
Y4156D01*
X14629Y4161D01*
X14628Y4165D01*
X14627Y4169D01*
X14625Y4173D01*
X14624Y4175D01*
X14622Y4177D01*
X14621Y4178D01*
X14621Y4179D01*
X14617Y4182D01*
X14613Y4184D01*
X14610Y4186D01*
X14606Y4187D01*
X14603Y4188D01*
X14600Y4188D01*
X14599Y4188D01*
D02*
G37*
%LPD*%
D10*
X590Y1380D02*
X640Y1330D01*
X4920Y289D02*
Y510D01*
X4790Y235D02*
X4866D01*
X4920Y289D01*
X4846Y584D02*
X4920Y510D01*
X4770Y235D02*
X4790D01*
X4845Y285D02*
X4870Y310D01*
X4790Y285D02*
X4845D01*
X4820Y335D02*
Y430D01*
X4790Y335D02*
X4820D01*
Y430D02*
X4840Y450D01*
X4770Y335D02*
X4790D01*
X1885Y2585D02*
X1920Y2620D01*
X1885Y2565D02*
Y2585D01*
X1840Y2520D02*
X1885Y2565D01*
X1850Y2580D02*
Y2620D01*
X1790Y2520D02*
X1840D01*
X1830Y2560D02*
X1850Y2580D01*
X1790Y2560D02*
X1830D01*
X1810Y2400D02*
Y2440D01*
X1835Y2083D02*
Y2375D01*
X1800Y2098D02*
Y2390D01*
X1845Y2385D02*
Y2465D01*
X1830Y2480D02*
X1845Y2465D01*
X1835Y2375D02*
X1845Y2385D01*
X1790Y2480D02*
X1830D01*
X1800Y2390D02*
X1810Y2400D01*
X1745Y1992D02*
X1835Y2083D01*
X1702Y1992D02*
X1745D01*
X1730Y2028D02*
X1800Y2098D01*
X1702Y2028D02*
X1730D01*
X1680Y2050D02*
X1702Y2028D01*
X1680Y1970D02*
X1702Y1992D01*
X1728Y2187D02*
Y2378D01*
X1692Y2202D02*
Y2378D01*
X1730Y2380D02*
Y2435D01*
X1728Y2378D02*
X1730Y2380D01*
X1690D02*
X1692Y2378D01*
X1690Y2380D02*
Y2435D01*
X1653Y2112D02*
X1728Y2187D01*
X1592Y2112D02*
X1653D01*
X1638Y2148D02*
X1692Y2202D01*
X1592Y2148D02*
X1638D01*
X1570Y2170D02*
X1592Y2148D01*
X1570Y2090D02*
X1592Y2112D01*
X4790Y1150D02*
X4830Y1110D01*
X4742Y1150D02*
X4790D01*
X4846Y584D02*
Y588D01*
X430Y670D02*
Y690D01*
X1480Y2440D02*
Y2480D01*
Y2440D02*
X1495Y2425D01*
X1543D01*
X4570Y185D02*
Y210D01*
X4470Y185D02*
X4570D01*
X3610Y2970D02*
X3660Y2920D01*
X3660D01*
X1610Y2560D02*
Y2700D01*
X1620Y2710D01*
X1340Y2550D02*
X1365Y2525D01*
X2000Y2560D02*
Y2620D01*
X1300Y1580D02*
X1360D01*
X1250D02*
X1300D01*
Y1620D01*
X1310Y1630D01*
X1360D01*
X1250Y1580D02*
X1250Y1580D01*
X1360D02*
X1530D01*
X1920Y2340D02*
Y2380D01*
X1920Y2380D01*
X1940D01*
X4565Y1625D02*
X4590Y1650D01*
X4400Y770D02*
Y870D01*
X4460D02*
X4525Y935D01*
X4400Y870D02*
X4460D01*
X4440Y930D02*
X4475Y965D01*
X4210Y920D02*
Y970D01*
Y870D02*
Y920D01*
X4260Y930D02*
X4440D01*
X4250Y920D02*
X4260Y930D01*
X4210Y920D02*
X4250D01*
X4390Y2970D02*
X4430D01*
X4365Y2995D02*
X4390Y2970D01*
X4315Y2995D02*
X4365D01*
X1399Y1351D02*
X1400Y1350D01*
X1399Y1351D02*
Y1440D01*
X1100Y1040D02*
X1110Y1030D01*
Y990D02*
X1120Y980D01*
X1030Y1030D02*
X1040Y1040D01*
X1020Y980D02*
X1030Y990D01*
X1137Y3879D02*
X1210D01*
X1230Y3860D01*
Y3830D02*
Y3860D01*
X1170Y3250D02*
Y3319D01*
Y3250D02*
X1200Y3220D01*
X1153Y3590D02*
X1280D01*
X3047Y4523D02*
Y4546D01*
X3047Y4546D02*
X3047Y4546D01*
X3047Y4546D02*
Y4550D01*
X3037Y4560D02*
X3047Y4550D01*
X3000Y4560D02*
X3037D01*
X3047Y4523D02*
X3060Y4510D01*
X3170D02*
X3234D01*
X3106D02*
X3170D01*
X3060D02*
X3106D01*
X3234D02*
X3280D01*
X3293Y4497D01*
Y4470D02*
Y4497D01*
Y4470D02*
X3303Y4460D01*
X3340D01*
X4210Y4760D02*
X4215Y4755D01*
X4210Y4760D02*
X4210Y4760D01*
X4215Y4588D02*
Y4755D01*
X4290Y4490D02*
X4315Y4515D01*
X4388D01*
X3679Y1071D02*
X3680Y1070D01*
X3585Y1071D02*
X3679D01*
X4675Y1060D02*
X4760D01*
X4625Y975D02*
Y1032D01*
X4600Y950D02*
X4625Y975D01*
X4270Y1100D02*
X4358D01*
X4730Y651D02*
X4745Y666D01*
X4730Y540D02*
X4740Y530D01*
X4475Y965D02*
Y1032D01*
X4640Y1555D02*
X4645Y1560D01*
X4565Y1555D02*
X4640D01*
X4675Y1032D02*
Y1060D01*
X4760D02*
X4790Y1030D01*
X4525Y935D02*
Y1032D01*
X4590Y1650D02*
X4800D01*
X4815Y1635D01*
Y1550D02*
Y1635D01*
X4315Y4195D02*
Y4292D01*
Y4195D02*
X4320Y4190D01*
X4730Y540D02*
X4730Y540D01*
Y603D01*
X4730Y651D02*
X4730Y651D01*
Y603D02*
Y651D01*
X1137Y4133D02*
X1150Y4120D01*
X1137Y3574D02*
X1153Y3590D01*
X1137Y4694D02*
X1140Y4690D01*
X1250D01*
X1137Y3319D02*
X1170D01*
X190Y690D02*
X230Y730D01*
X270D01*
X350D02*
X390D01*
X430Y690D01*
X190Y670D02*
Y690D01*
X455Y620D02*
Y620D01*
Y620D02*
X550D01*
X560Y610D01*
Y570D02*
Y610D01*
X455Y670D02*
X560D01*
X690Y1330D02*
Y1425D01*
X675Y1440D02*
X690Y1425D01*
X640Y1330D02*
X690D01*
X790D01*
X1585Y2525D02*
X1590Y2520D01*
X1543Y2525D02*
X1585D01*
X1590Y2520D02*
X1640D01*
X1585Y2475D02*
X1590Y2480D01*
X1543Y2475D02*
X1585D01*
X1590Y2480D02*
X1640D01*
X1180Y2525D02*
X1255Y2450D01*
X1340D01*
X1365Y2525D02*
X1413D01*
X1365Y2475D02*
X1413D01*
X1340Y2450D02*
X1365Y2475D01*
X1890Y130D02*
Y170D01*
X1850Y210D02*
X1890Y170D01*
X1850Y210D02*
Y280D01*
X1610Y2560D02*
X1630D01*
X1543Y2425D02*
X1577D01*
X1593Y2440D01*
X1630D01*
X1630Y2440D01*
Y2390D02*
Y2440D01*
X1980Y2640D02*
X2000Y2620D01*
X1890Y2310D02*
X1920Y2340D01*
X4270Y1100D02*
Y1130D01*
X4290Y1150D01*
X4358D01*
X1150Y4120D02*
X1202D01*
X1251Y4071D01*
D12*
X220Y510D02*
X320D01*
X190Y540D02*
X220Y510D01*
X440Y530D02*
Y570D01*
X420Y510D02*
X440Y530D01*
X500Y1290D02*
X540D01*
X620Y1520D02*
X650Y1550D01*
X550Y1520D02*
X620D01*
X3000Y750D02*
X3080Y670D01*
X3285D02*
X3380Y766D01*
X3080Y670D02*
X3285D01*
X3430Y640D02*
X3450Y660D01*
X3067Y640D02*
X3430D01*
X3027Y680D02*
X3067Y640D01*
X2080Y670D02*
X2255Y495D01*
X2290D01*
X2253Y540D02*
X2340D01*
X2073Y720D02*
X2253Y540D01*
X3540Y1400D02*
X3560Y1420D01*
X3740Y2660D02*
X3760Y2640D01*
X3740Y2660D02*
Y2694D01*
X3700Y2660D02*
Y2694D01*
X3680Y2640D02*
X3700Y2660D01*
X1790Y2440D02*
Y2440D01*
X4895Y1345D02*
Y1459D01*
X4800Y1250D02*
X4895Y1345D01*
X4879Y1475D02*
X4895Y1459D01*
X4790Y2270D02*
X4840Y2220D01*
X4870D01*
Y2120D02*
Y2150D01*
X4760Y2220D02*
X4810Y2170D01*
X4850D02*
X4870Y2150D01*
X4810Y2170D02*
X4850D01*
X4760Y1980D02*
Y2080D01*
X4770Y2090D01*
X4840D01*
X4870Y2120D01*
X4730Y2270D02*
X4790D01*
X4710Y2250D02*
X4730Y2270D01*
X4470Y2460D02*
X4680D01*
X4740D01*
X4675Y1418D02*
X4678Y1420D01*
X4720D01*
X4790Y1440D02*
X4790Y1440D01*
X4336Y1350D02*
Y1374D01*
X4316Y1394D02*
X4336Y1374D01*
X4207Y1394D02*
X4316D01*
X4240Y1300D02*
X4357D01*
X4288Y1250D02*
X4358D01*
X4280Y1200D02*
X4358D01*
X4260Y1180D02*
X4280Y1200D01*
X4336Y1350D02*
X4358D01*
X4143Y1330D02*
X4207Y1394D01*
X4195Y1425D02*
X4285D01*
X4131Y1361D02*
X4195Y1425D01*
X4285D02*
X4339Y1479D01*
X4357Y1300D02*
X4358Y1300D01*
X3969Y1330D02*
X4143D01*
X3981Y1361D02*
X4131D01*
X4810Y2990D02*
Y3190D01*
X4800Y2980D02*
X4810Y2990D01*
Y3190D02*
X4853Y3233D01*
X4754Y2980D02*
X4780Y3005D01*
Y3180D01*
X4726Y3233D02*
X4780Y3180D01*
X4800Y2950D02*
Y2980D01*
X4754Y2926D02*
Y2980D01*
X4800Y2950D02*
X4877D01*
X4770Y2880D02*
Y2910D01*
X4754Y2926D02*
X4770Y2910D01*
X4877Y2950D02*
X4882Y2945D01*
X4770Y2880D02*
X4835Y2815D01*
X4770Y2880D02*
Y2880D01*
X4660Y4747D02*
X4710Y4710D01*
X4855Y3492D02*
X4859D01*
X4860Y3493D01*
X3430Y870D02*
X3550D01*
X3380Y820D02*
X3430Y870D01*
X3380Y766D02*
Y820D01*
X3160Y1410D02*
Y1460D01*
X3140Y1390D02*
X3160Y1410D01*
X3140Y1330D02*
Y1390D01*
X3100Y1330D02*
Y1420D01*
X2873Y1570D02*
X3650D01*
X2740Y1437D02*
X2873Y1570D01*
X2740Y1330D02*
Y1437D01*
X2860Y1600D02*
X3637D01*
X2664Y1404D02*
X2860Y1600D01*
X2630Y1404D02*
X2664D01*
X2725Y568D02*
Y709D01*
X2657Y500D02*
X2725Y568D01*
X2610Y500D02*
X2657D01*
X2775Y575D02*
Y709D01*
X2670Y470D02*
X2775Y575D01*
X2590Y470D02*
X2670D01*
X3450Y660D02*
Y700D01*
X3440Y710D02*
X3450Y700D01*
X3390Y710D02*
X3440D01*
X3510Y680D02*
X3550D01*
X3490Y700D02*
X3510Y680D01*
X3450Y700D02*
X3490D01*
X3720Y930D02*
X3750Y960D01*
X3670Y930D02*
X3720D01*
X3650Y910D02*
X3670Y930D01*
X3650Y870D02*
Y910D01*
X3750Y960D02*
X3859D01*
X3330Y780D02*
Y890D01*
X2980Y680D02*
X3027D01*
X3000Y750D02*
Y847D01*
X3300Y920D02*
X3330Y890D01*
X1990Y720D02*
X2073D01*
X2317Y4420D02*
X2420D01*
X2255Y4171D02*
Y4358D01*
X2317Y4420D01*
X2330Y4390D02*
X2390D01*
X2305Y4365D02*
X2330Y4390D01*
X2305Y4171D02*
Y4365D01*
X80Y460D02*
Y580D01*
X1700Y3821D02*
X1785Y3736D01*
X1700Y3821D02*
Y3890D01*
X1735Y3680D02*
Y3715D01*
X1650Y3800D02*
X1735Y3715D01*
X1650Y3800D02*
Y3890D01*
X1785Y3680D02*
Y3736D01*
Y3680D02*
X1810Y3655D01*
Y3620D02*
Y3655D01*
X1710D02*
X1735Y3680D01*
X1710Y3620D02*
Y3655D01*
X4650Y2880D02*
X4698D01*
X4698Y2880D01*
X4648Y2945D02*
X4698D01*
X3920Y960D02*
X3950Y990D01*
X3901Y960D02*
X3920D01*
X3900Y960D02*
X3901Y960D01*
X3860Y960D02*
X3900D01*
X3950Y990D02*
Y1170D01*
X3859Y960D02*
X3860Y960D01*
X4340Y100D02*
X4420Y180D01*
Y220D01*
X4435Y235D01*
X4490D01*
X4340Y230D02*
X4395Y285D01*
X4490D01*
X1990Y1160D02*
X2000D01*
X2045Y1115D01*
X1990Y1160D02*
Y1170D01*
X1973Y1187D02*
X1990Y1170D01*
Y1160D02*
X2000D01*
X2080Y1240D01*
X2563Y2300D02*
X2694Y2170D01*
X2760D01*
X2840Y2090D01*
X2830Y2200D02*
X2890Y2140D01*
X2710Y2200D02*
X2830D01*
X2570Y2340D02*
X2710Y2200D01*
X3150Y1240D02*
X3180Y1270D01*
X3150Y1050D02*
Y1240D01*
Y1050D02*
X3190Y1010D01*
X3803Y2020D02*
X3990D01*
X3800Y2060D02*
X3990D01*
X1853Y860D02*
X1893Y820D01*
X1390Y813D02*
X1437Y860D01*
X1853D01*
X1840Y830D02*
X1890Y780D01*
X1450Y830D02*
X1840D01*
X1420Y800D02*
X1450Y830D01*
X1533Y947D02*
X1580Y994D01*
X2590Y2670D02*
X2984D01*
X3030Y2716D01*
Y2760D01*
X3020Y2770D02*
X3030Y2760D01*
X3020Y2770D02*
Y2830D01*
X3460Y2940D02*
Y2975D01*
Y2940D02*
X3500Y2900D01*
X3520Y2950D02*
X3540Y2931D01*
Y2830D02*
Y2931D01*
X1670Y2640D02*
X1690Y2620D01*
X3170Y4400D02*
X3210D01*
X3230Y4380D01*
Y4320D02*
Y4380D01*
X4850Y1350D02*
Y1440D01*
X4790Y1400D02*
Y1440D01*
Y1400D02*
X4800Y1390D01*
Y1360D02*
Y1390D01*
X2570Y2690D02*
Y2740D01*
X2450Y2860D02*
Y2960D01*
Y2860D02*
X2570Y2740D01*
X2180Y3170D02*
X2240Y3110D01*
Y3060D02*
Y3110D01*
X2380Y3070D02*
X2390D01*
X2320Y3060D02*
X2380D01*
X2260D02*
X2320D01*
X2240D02*
X2260D01*
X2340Y3151D02*
X2369D01*
X2370Y3150D01*
X2660Y2750D02*
X2685Y2725D01*
X2660Y2750D02*
Y2830D01*
X2570Y2690D02*
X2590Y2670D01*
X2620Y2725D02*
Y2830D01*
Y2725D02*
X2620Y2725D01*
X2750Y2730D02*
X2780Y2760D01*
X2080Y1240D02*
Y1510D01*
X1774Y1187D02*
X1973D01*
X2045Y1115D02*
X2072D01*
X2085Y1102D01*
X2060Y2180D02*
X2060Y2180D01*
X2428Y2260D02*
X2490D01*
X2398Y2290D02*
X2428Y2260D01*
X2390Y2290D02*
X2398D01*
X2300Y2280D02*
X2344Y2236D01*
X2409D01*
X2424Y2221D01*
X3500Y1410D02*
X3510Y1420D01*
Y1460D01*
X3500Y1330D02*
Y1410D01*
X3452Y1400D02*
Y1428D01*
Y1400D02*
X3460Y1392D01*
Y1330D02*
Y1392D01*
X3450Y1430D02*
X3452Y1428D01*
X3380Y1460D02*
X3430Y1510D01*
X3340Y1330D02*
Y1410D01*
X3340Y1410D02*
X3340Y1410D01*
X2572Y1410D02*
X2596Y1435D01*
X2420Y1410D02*
X2572D01*
X2370Y1360D02*
X2420Y1410D01*
X2800Y1750D02*
Y1820D01*
X2780Y1730D02*
X2800Y1750D01*
X2600Y1740D02*
X2620Y1760D01*
X2590Y1800D02*
Y1830D01*
X2570Y1780D02*
X2590Y1800D01*
X2490Y1780D02*
X2570D01*
X2661Y1912D02*
Y2032D01*
X2490Y1740D02*
X2600D01*
X2490Y1700D02*
X2560D01*
X2570Y1690D01*
X2600D01*
X2610Y1620D02*
X2630Y1600D01*
X2590Y1620D02*
X2610D01*
X2550Y1660D02*
X2590Y1620D01*
X2490Y1660D02*
X2550D01*
X2630Y1600D02*
X2660D01*
X2490Y1580D02*
X2608D01*
X2657Y1530D01*
X2553Y2140D02*
X2661Y2032D01*
X2490Y2140D02*
X2553D01*
X2794Y880D02*
X2830D01*
X2120Y2300D02*
Y2380D01*
Y2300D02*
X2140Y2280D01*
X2300D01*
X2030Y2460D02*
X2031Y2459D01*
X2650Y2936D02*
X2700Y2886D01*
X3657Y2510D02*
X3720D01*
X3580Y2587D02*
Y2713D01*
Y2587D02*
X3657Y2510D01*
X3670Y2540D02*
X3740D01*
X3610Y2600D02*
X3670Y2540D01*
X3610Y2600D02*
Y2700D01*
X3350Y2980D02*
X3400D01*
X3600Y2030D02*
X3630Y2060D01*
X3460Y2730D02*
Y2830D01*
X3440Y2710D02*
X3460Y2730D01*
X3420Y2774D02*
Y2830D01*
X3290Y3030D02*
Y3090D01*
X3250Y3130D02*
X3290Y3090D01*
X3250Y3130D02*
Y3200D01*
X3300Y2690D02*
X3320Y2670D01*
X3300Y2690D02*
Y2830D01*
X4320Y4030D02*
Y4090D01*
Y3995D02*
Y4030D01*
X4110Y2710D02*
Y2770D01*
X4100Y2700D02*
X4110Y2710D01*
X3990Y2700D02*
X4100D01*
X3860Y2850D02*
X4180D01*
X3860Y2790D02*
Y2850D01*
X2760Y2630D02*
X2810D01*
X2750Y2620D02*
X2760Y2630D01*
X2490Y2620D02*
X2750D01*
X2810Y2630D02*
X2850Y2590D01*
Y2540D02*
Y2590D01*
X2790Y2480D02*
X2850Y2540D01*
X2730Y2480D02*
X2790D01*
X2720Y2490D02*
X2730Y2480D01*
X2680Y2490D02*
X2720D01*
X2781Y2385D02*
X2788Y2392D01*
X2596Y2460D02*
X2671Y2385D01*
X2599Y2500D02*
X2669Y2430D01*
X2671Y2385D02*
X2781D01*
X2669Y2430D02*
X2730D01*
X2490Y2500D02*
X2599D01*
X2683Y2330D02*
X2790D01*
X2593Y2420D02*
X2683Y2330D01*
X2590Y2380D02*
X2710Y2260D01*
X2790D01*
X3050Y980D02*
Y1150D01*
X3060Y970D02*
X3100D01*
X3050Y980D02*
X3060Y970D01*
X4610Y590D02*
X4630Y570D01*
Y540D02*
Y570D01*
Y540D02*
X4640Y530D01*
X3260Y2900D02*
X3300Y2940D01*
Y3020D01*
X3290Y3030D02*
X3300Y3020D01*
X2879Y1110D02*
Y1207D01*
X2849Y1080D02*
X2879Y1110D01*
X2780Y1240D02*
Y1330D01*
X2780Y1330D02*
X2780Y1330D01*
X2820Y1266D02*
X2879Y1207D01*
X2860Y1269D02*
Y1330D01*
Y1269D02*
X2909Y1220D01*
Y938D02*
Y1220D01*
X2940Y950D02*
Y1330D01*
X2820Y1266D02*
Y1330D01*
X2830Y990D02*
Y1030D01*
X2820Y980D02*
X2830Y990D01*
X2620Y1394D02*
X2630Y1404D01*
X2620Y1330D02*
Y1394D01*
X2596Y1435D02*
X2639D01*
X2710Y1506D01*
Y1550D01*
X2590Y1480D02*
X2620D01*
X2570Y1460D02*
X2590Y1480D01*
X2490Y1460D02*
X2570D01*
X2260Y880D02*
Y940D01*
X2230Y850D02*
X2260Y880D01*
X2160Y850D02*
X2230D01*
X2550Y1500D02*
X2580Y1530D01*
X2775Y831D02*
Y861D01*
X2794Y880D01*
X1275Y836D02*
X1334Y894D01*
X2660Y1600D02*
X2710Y1550D01*
X2150Y860D02*
X2160Y850D01*
X2150Y860D02*
Y918D01*
X2027Y1010D02*
X2190D01*
X1984Y1054D02*
X2027Y1010D01*
X2190D02*
X2215Y985D01*
X2140Y980D02*
X2150Y970D01*
X1993Y980D02*
X2140D01*
X1953Y1020D02*
X1993Y980D01*
X2490Y1580D02*
X2490Y1580D01*
X2490Y1500D02*
X2550D01*
X3500Y2830D02*
Y2900D01*
X2700Y2830D02*
Y2886D01*
Y2990D02*
X2770D01*
X2670Y3020D02*
X2700Y2990D01*
X2770D02*
X2780Y2980D01*
X2820Y2830D02*
Y2900D01*
X2790Y2930D02*
X2820Y2900D01*
X2790Y2930D02*
Y2970D01*
X2780Y2980D02*
X2790Y2970D01*
X2490Y2340D02*
X2570D01*
X2490Y2300D02*
X2563D01*
X190Y540D02*
Y570D01*
X190Y570D02*
X190Y570D01*
X165Y570D02*
X190D01*
X440D02*
X455D01*
X2000Y2180D02*
Y2207D01*
X2080Y2240D02*
Y2320D01*
X2060Y2220D02*
X2080Y2240D01*
X2060Y2180D02*
Y2220D01*
X1720Y2910D02*
X1750D01*
X1720Y2970D02*
X1750D01*
X2725Y831D02*
Y875D01*
X2750Y900D01*
X2550Y660D02*
X2660D01*
X2530Y680D02*
X2550Y660D01*
X2675Y675D02*
Y709D01*
X2660Y660D02*
X2675Y675D01*
X2080Y1510D02*
X2100Y1530D01*
X3560Y1418D02*
X3560Y1418D01*
X3740Y1330D02*
Y1460D01*
X3740Y1460D02*
X3740Y1460D01*
X3692Y1390D02*
Y1418D01*
Y1390D02*
X3700Y1382D01*
Y1330D02*
Y1382D01*
X3690Y1420D02*
X3692Y1418D01*
X3860Y1330D02*
Y1370D01*
X3780Y1390D02*
X3800Y1410D01*
X3990Y1070D02*
X4000Y1080D01*
X3560Y1418D02*
Y1420D01*
X3540Y1330D02*
Y1400D01*
X4120Y2270D02*
X4140Y2290D01*
Y2320D01*
X4150Y2330D01*
X4070Y2220D02*
X4120Y2270D01*
X3900Y2700D02*
X3990D01*
X3870Y2730D02*
X3900Y2700D01*
X3580Y2713D02*
X3620Y2753D01*
Y2830D01*
X3610Y2700D02*
X3660Y2750D01*
Y2830D01*
X2780Y2760D02*
Y2830D01*
X2490Y2580D02*
X2790D01*
X2490Y1740D02*
Y1740D01*
X1660Y1073D02*
X1774Y1187D01*
X2100Y1530D02*
Y1600D01*
X2170D02*
X2190Y1620D01*
X2100Y1600D02*
X2170D01*
X2190Y1620D02*
X2490D01*
X2600Y580D02*
Y610D01*
X2530Y680D02*
Y720D01*
X2430D02*
X2530D01*
X2430Y680D02*
Y720D01*
Y680D02*
X2450Y660D01*
Y580D02*
Y660D01*
X80Y580D02*
X120Y620D01*
X165D01*
X1350Y1720D02*
X1350Y1720D01*
X1399D01*
X1310Y1680D02*
X1350Y1720D01*
X1250Y1680D02*
X1310D01*
X2040Y2247D02*
Y2320D01*
X2000Y2207D02*
X2040Y2247D01*
X1930Y2180D02*
X2000Y2250D01*
Y2320D01*
X1930Y2250D02*
X1960Y2280D01*
Y2320D01*
X3830Y1240D02*
X3860D01*
X3820Y1250D02*
X3830Y1240D01*
X3820Y1250D02*
Y1330D01*
X4625Y1463D02*
X4658Y1495D01*
X4000Y1230D02*
Y1260D01*
X4010Y1270D01*
X4000Y1080D02*
Y1230D01*
X3780Y1330D02*
Y1390D01*
X4227Y1183D02*
X4230Y1180D01*
X4220Y1170D02*
X4230Y1180D01*
X4260D01*
X2215Y918D02*
Y985D01*
X1867Y1020D02*
X1953D01*
X1857Y1010D02*
X1867Y1020D01*
X1836Y947D02*
X1880Y990D01*
X1940D01*
X2012Y918D01*
X2150D02*
Y970D01*
X2012Y918D02*
X2085D01*
X1660Y947D02*
X1724Y1010D01*
X1857D01*
X1270Y1050D02*
X1296Y1024D01*
Y900D02*
Y1024D01*
X1265Y912D02*
Y989D01*
X1234Y1020D02*
X1265Y989D01*
X1339Y655D02*
X1385D01*
X1893Y820D02*
X1960D01*
X1787Y947D02*
X1836D01*
X1270Y1050D02*
X1270Y1050D01*
X1200Y1020D02*
X1234D01*
X1090Y1130D02*
X1200Y1020D01*
X1220Y1050D02*
X1270D01*
X1339Y705D02*
X1375D01*
X1190Y1080D02*
X1220Y1050D01*
X1190Y1080D02*
Y1120D01*
X1090Y1130D02*
Y1210D01*
X1218Y908D02*
Y972D01*
X1190Y880D02*
X1218Y908D01*
X1275Y768D02*
Y836D01*
X1225Y829D02*
X1296Y900D01*
X1175Y822D02*
X1265Y912D01*
X1225Y768D02*
Y829D01*
X1090Y1210D02*
Y1310D01*
X1175Y768D02*
Y822D01*
X1120Y880D02*
X1190D01*
X1120D02*
X1125Y875D01*
Y768D02*
Y875D01*
X790Y1110D02*
X890D01*
Y730D02*
Y880D01*
X1901Y214D02*
Y239D01*
X1480Y3480D02*
X1560D01*
X1600Y3520D01*
Y3594D01*
X1610Y3604D01*
Y3630D01*
X1480Y3480D02*
Y3580D01*
Y3380D02*
Y3480D01*
Y3280D02*
Y3380D01*
X1380Y3580D02*
Y3680D01*
X1700Y3050D02*
Y3180D01*
X1600Y2950D02*
X1700Y3050D01*
X1600Y2839D02*
Y2950D01*
X1600Y3062D02*
X1600Y3062D01*
X1600Y3062D02*
Y3180D01*
X2150Y3000D02*
X2190Y3040D01*
X2120Y3000D02*
X2150D01*
X2110Y2990D02*
X2120Y3000D01*
X1910Y2890D02*
X2110D01*
X2110Y2890D02*
X2120Y2880D01*
X2205D01*
X2110Y2890D02*
X2110Y2890D01*
X2150Y3090D02*
X2170Y3110D01*
X2110Y3090D02*
X2150D01*
X2010D02*
X2110D01*
X2010Y2990D02*
X2110D01*
X1910D02*
X2010D01*
X2180Y3170D02*
Y3210D01*
X2380Y3160D02*
Y3210D01*
X2370Y3150D02*
X2380Y3160D01*
X2280Y3140D02*
Y3210D01*
X2380D02*
Y3310D01*
X2280Y3210D02*
Y3310D01*
X2180D02*
X2280D01*
X1710Y3483D02*
Y3520D01*
Y3483D02*
X1722Y3470D01*
X1797D01*
X1810Y3458D01*
Y3420D02*
Y3458D01*
Y3420D02*
X1870D01*
X1940D01*
X1895Y3520D02*
X1940D01*
X1870Y3495D02*
X1895Y3520D01*
X1810D02*
X1845D01*
X1870Y3495D01*
Y3560D02*
Y3600D01*
X1890Y3620D01*
X1940D01*
X2040D01*
X1940Y3520D02*
X2040D01*
X2930Y4340D02*
Y4400D01*
Y4340D02*
X2950Y4320D01*
X3170Y4400D02*
Y4440D01*
X3080Y4560D02*
Y4600D01*
X3060Y4620D02*
X3080Y4600D01*
X2960Y4620D02*
X3060D01*
X3080Y4560D02*
X3106D01*
X2940Y4600D02*
X2960Y4620D01*
X2940Y4440D02*
Y4600D01*
X2930Y4430D02*
X2940Y4440D01*
X2930Y4400D02*
Y4430D01*
X3095Y4400D02*
X3170D01*
X3190Y4460D02*
X3234D01*
X3170Y4440D02*
X3190Y4460D01*
X3000Y4390D02*
Y4460D01*
X3106D01*
X3340Y4560D02*
Y4620D01*
X3234Y4560D02*
X3340D01*
X2255Y3960D02*
Y4049D01*
X2305Y4000D02*
Y4049D01*
X2350Y3930D02*
X2355Y3935D01*
Y4049D01*
X2420Y4420D02*
X2450Y4390D01*
Y4320D02*
Y4390D01*
X2390Y4390D02*
X2400Y4380D01*
Y4320D02*
Y4380D01*
X2600Y4160D02*
Y4200D01*
X2550Y4250D02*
X2600Y4200D01*
X2550Y4250D02*
Y4320D01*
X2500Y4160D02*
X2600D01*
X2500D02*
Y4200D01*
X2480Y4220D02*
X2500Y4200D01*
X2370Y4220D02*
X2480D01*
X2355Y4205D02*
X2370Y4220D01*
X2355Y4171D02*
Y4205D01*
X4890Y4400D02*
Y4500D01*
X4780Y4490D02*
X4790Y4500D01*
X4750Y4490D02*
X4780D01*
X4710Y4450D02*
X4750Y4490D01*
X4590Y4450D02*
X4710D01*
X4580Y4460D02*
X4590Y4450D01*
X4580Y4460D02*
Y4500D01*
X4540D02*
X4580D01*
X4455Y4415D02*
X4540Y4500D01*
X4388Y4415D02*
X4455D01*
X3580Y1140D02*
Y1330D01*
X3540Y1140D02*
X3580D01*
X3680Y1170D02*
Y1220D01*
X3660Y1240D02*
X3680Y1220D01*
X3660Y1240D02*
Y1330D01*
X4740Y860D02*
X4850D01*
X4625Y1418D02*
Y1463D01*
X4475Y1418D02*
Y1479D01*
X4525Y1418D02*
Y1472D01*
X4457Y1540D02*
X4525Y1472D01*
X4575Y1418D02*
Y1465D01*
X4470Y1570D02*
X4575Y1465D01*
X4646Y850D02*
X4663Y834D01*
X4540Y850D02*
X4646D01*
X4835Y2815D02*
X4882D01*
X4265Y4588D02*
Y4670D01*
X4388Y4365D02*
X4495D01*
X4520Y4390D01*
X4580D01*
Y4290D02*
Y4390D01*
X4510Y3680D02*
X4520Y3670D01*
X4510Y3680D02*
Y3760D01*
X4530Y3780D01*
X4595D01*
X4600Y3785D01*
X4410Y3670D02*
X4520D01*
X4320Y3995D02*
X4340Y3975D01*
X2225Y3670D02*
X2365D01*
X2220Y3675D02*
X2225Y3670D01*
X2155Y3675D02*
X2220D01*
X2140Y3660D02*
X2155Y3675D01*
X2124Y3494D02*
X2140Y3510D01*
X2124Y3430D02*
Y3494D01*
X2096Y3565D02*
X2135D01*
X2140Y3510D02*
Y3560D01*
Y3660D01*
X2135Y3565D02*
X2140Y3560D01*
X2150Y3550D01*
X965Y655D02*
X1061D01*
X890Y730D02*
X965Y655D01*
X690Y880D02*
X790D01*
X890D01*
X1334Y894D02*
Y1064D01*
X1310Y1087D02*
X1334Y1064D01*
X1310Y1087D02*
Y1120D01*
X1375Y705D02*
X1390Y720D01*
Y813D01*
X1420Y690D02*
Y800D01*
X1385Y655D02*
X1420Y690D01*
X690Y780D02*
Y880D01*
X650Y1550D02*
X690D01*
Y1610D02*
Y1650D01*
X680Y1600D02*
X690Y1610D01*
X640Y1600D02*
X680D01*
X610Y1570D02*
X640Y1600D01*
X1380Y3870D02*
X1400Y3890D01*
X1410Y3900D01*
X1640D01*
X1650Y3890D01*
X1710Y3900D02*
X1794D01*
X1700Y3890D02*
X1710Y3900D01*
X1320Y3460D02*
X1340Y3480D01*
X1320Y3430D02*
Y3460D01*
X1340Y3480D02*
X1380D01*
X1320Y3360D02*
X1340Y3380D01*
X1380D01*
X1410Y4710D02*
X1640D01*
X1710D02*
X1790D01*
X1750Y2970D02*
X1770Y2990D01*
X1810D01*
X1750Y2910D02*
X1770Y2890D01*
X1810D01*
X3990Y2220D02*
X4070D01*
X3340Y2830D02*
Y2980D01*
X4280Y1570D02*
X4470D01*
X4742Y1300D02*
X4800D01*
X4850Y1350D01*
X4742Y1350D02*
X4790D01*
X4800Y1360D01*
X4490Y750D02*
X4540D01*
X4455Y715D02*
X4490Y750D01*
X4742Y1250D02*
X4800D01*
X4742Y1200D02*
X4790D01*
X4800Y1210D01*
Y1250D01*
X4879Y1475D02*
Y1495D01*
X4658D02*
X4879D01*
Y1519D01*
X4890Y1530D01*
Y1560D01*
X3740Y2738D02*
Y2830D01*
X3700Y2730D02*
Y2830D01*
X3020Y870D02*
X3060D01*
X3160D01*
X3260D01*
X2600Y510D02*
X2610Y500D01*
X2600Y510D02*
Y580D01*
X2550Y510D02*
Y580D01*
Y510D02*
X2590Y470D01*
X2330Y1540D02*
X2490D01*
X3170Y2730D02*
X3204D01*
X3220Y2746D01*
Y2830D01*
X3260D02*
Y2900D01*
X3540Y1270D02*
Y1330D01*
X3500Y1230D02*
X3540Y1270D01*
X3180Y1270D02*
Y1330D01*
X1890Y720D02*
Y780D01*
X1990Y720D02*
Y790D01*
X1960Y820D02*
X1990Y790D01*
X1890Y680D02*
Y720D01*
X1975Y145D02*
X1990Y130D01*
X1975Y145D02*
Y165D01*
X1730Y2565D02*
Y2620D01*
X1750Y2640D01*
X1690Y2565D02*
Y2620D01*
X890Y1690D02*
X930D01*
X875Y1705D02*
X890Y1690D01*
X875Y1705D02*
Y1725D01*
X840Y1760D02*
X875Y1725D01*
X3465Y1230D02*
X3500D01*
X3400Y1165D02*
X3465Y1230D01*
X3400Y1120D02*
Y1165D01*
X3060Y1270D02*
Y1330D01*
X3000Y1210D02*
X3060Y1270D01*
X3030Y1170D02*
X3050Y1150D01*
X2990Y1170D02*
X3000D01*
X3030D01*
X3000D02*
Y1210D01*
X2940Y1330D02*
X2940Y1330D01*
X2940Y950D02*
X3020Y870D01*
X2820Y980D02*
X2830Y970D01*
X3100Y1070D02*
Y1170D01*
X3100Y1070D02*
X3100Y1070D01*
Y1170D02*
Y1230D01*
X3190Y970D02*
Y1010D01*
Y930D02*
Y970D01*
Y930D02*
X3200Y920D01*
X3300D01*
X2080Y2560D02*
X2080Y2560D01*
Y2620D01*
X2090Y2630D01*
Y2690D01*
X4694Y1850D02*
Y1920D01*
X4567Y2593D02*
Y2650D01*
Y2593D02*
X4584Y2576D01*
X4630D01*
X4440Y2550D02*
Y2650D01*
Y2550D02*
X4470Y2520D01*
X4570D01*
X2490Y2540D02*
X2705D01*
X2715Y2530D01*
X2750D01*
X2490Y2380D02*
X2590D01*
X2490Y2460D02*
X2596D01*
X2490Y2420D02*
X2593D01*
X3340Y2980D02*
X3350D01*
X1940Y2460D02*
X2030D01*
X1955Y2720D02*
X2060D01*
X2090Y2690D01*
X2040Y2560D02*
Y2670D01*
X1940Y2420D02*
X1980D01*
X2001Y2399D01*
X2032D01*
X2490Y2220D02*
Y2221D01*
X2424D02*
X2490D01*
X3990Y1940D02*
X4070D01*
X1700Y3050D02*
X1800D01*
X1820Y3070D01*
X4530Y2180D02*
X4685D01*
X4710Y2205D01*
Y2250D01*
X3990Y1660D02*
X4065D01*
X4390Y2040D02*
X4530Y2180D01*
X4339Y1479D02*
X4411D01*
X4425Y1465D01*
Y1418D02*
Y1465D01*
X4445Y1509D02*
X4475Y1479D01*
X4279Y1509D02*
X4445D01*
X4227Y1183D02*
Y1230D01*
X4240Y1470D02*
X4279Y1509D01*
X4240Y1610D02*
X4280Y1570D01*
X4250Y1740D02*
Y1780D01*
X4220Y1810D02*
X4250Y1780D01*
X4100Y1720D02*
X4150D01*
X4080Y1740D02*
X4100Y1720D01*
X3990Y1740D02*
X4080D01*
X4150Y2020D02*
X4170Y2040D01*
X4390D01*
X4070Y1940D02*
X4110Y1980D01*
X4150D01*
Y2020D01*
X4100Y1870D02*
X4150D01*
X3990Y1820D02*
X4050D01*
X4100Y1870D01*
X4240Y1540D02*
X4457D01*
X3920Y1820D02*
X3990D01*
X3903Y1837D02*
X3920Y1820D01*
X3900Y1940D02*
X3903Y1937D01*
Y1837D02*
Y1937D01*
X4190Y1810D02*
X4220D01*
X4150Y1720D02*
Y1780D01*
X4120Y1810D02*
X4150Y1780D01*
X3900Y1170D02*
X3950D01*
Y1220D01*
X3930Y1240D02*
X3950Y1220D01*
X3929Y1370D02*
X3969Y1330D01*
X3860Y1370D02*
X3929D01*
X3800Y1410D02*
X3932D01*
X3981Y1361D01*
X4250Y1880D02*
X4310D01*
X4510Y2080D01*
X4600D01*
X3376Y2730D02*
X3420Y2774D01*
X3320Y2630D02*
Y2670D01*
X3720Y2510D02*
X3753Y2477D01*
Y2417D02*
Y2477D01*
Y2417D02*
X3780Y2390D01*
X3740Y2540D02*
X3800Y2480D01*
X4821Y1850D02*
Y1919D01*
X4640Y2130D02*
X4670Y2100D01*
X4567Y1850D02*
Y1926D01*
X4760Y1980D02*
X4821Y1919D01*
X4670Y2050D02*
Y2100D01*
X4650Y2030D02*
X4670Y2050D01*
X4503Y2030D02*
X4650D01*
X4553Y1940D02*
X4567Y1926D01*
X4600Y1980D02*
X4620Y2000D01*
X4600Y1950D02*
Y1980D01*
Y1950D02*
X4620Y1930D01*
X4683D01*
X4694Y1920D01*
X4620Y2000D02*
X4690D01*
X4710Y2020D01*
Y2130D01*
X4730Y1720D02*
Y1760D01*
X4750Y1780D01*
X4790D01*
X4810Y1800D01*
Y1840D01*
X4821Y1850D01*
X4430Y1720D02*
Y1760D01*
X4450Y1780D01*
X4550D01*
X4567Y1797D01*
Y1850D01*
X4480Y1960D02*
Y2007D01*
Y1960D02*
X4500Y1940D01*
X4480Y2007D02*
X4503Y2030D01*
X4500Y1940D02*
X4553D01*
X4400Y2530D02*
X4470Y2460D01*
X4250Y2530D02*
X4400D01*
X2900Y1330D02*
Y1400D01*
X2880Y1420D02*
X2900Y1400D01*
X2880Y1490D02*
X2980Y1390D01*
Y1330D02*
Y1390D01*
X2260Y1020D02*
X2280Y1041D01*
Y1220D01*
X2330Y1270D01*
Y1540D01*
X2310Y1207D02*
X2370Y1267D01*
X2310Y990D02*
Y1207D01*
X2260Y940D02*
X2310Y990D01*
X2370Y1267D02*
Y1360D01*
X1490Y4130D02*
X1550Y4070D01*
Y3980D02*
Y4070D01*
X1410Y4380D02*
X1640D01*
X1870Y3220D02*
X1905D01*
X1920Y3235D02*
X2023D01*
X2047Y3210D02*
X2080D01*
X1905Y3220D02*
X1920Y3235D01*
X2023D02*
X2047Y3210D01*
X1710Y4380D02*
X1790D01*
X1905Y3300D02*
X1920Y3285D01*
X2023D01*
X2047Y3310D01*
X1870Y3300D02*
X1905D01*
X2047Y3310D02*
X2080D01*
X1890Y680D02*
X1900Y670D01*
X2080D01*
X1901Y214D02*
X1935Y180D01*
X1960D01*
X1975Y165D01*
X2909Y938D02*
X3000Y847D01*
X2384Y1143D02*
Y1174D01*
X2390Y1180D01*
X2430D01*
X2440Y1170D01*
X2750Y1040D02*
X2790Y1080D01*
X2849D01*
X2661Y1912D02*
X2723Y1850D01*
X2770D01*
X2800Y1820D01*
X4694Y2580D02*
X4713Y2560D01*
X4740D01*
X4760Y2540D01*
Y2480D02*
Y2540D01*
X4740Y2460D02*
X4760Y2480D01*
X4694Y2580D02*
Y2650D01*
X3540Y2400D02*
X3670Y2270D01*
X3540Y2400D02*
Y2830D01*
X3670Y2030D02*
Y2270D01*
X3500Y2380D02*
Y2830D01*
Y2380D02*
X3630Y2250D01*
Y2060D02*
Y2250D01*
X3532Y1792D02*
X3800Y2060D01*
X3532Y1652D02*
Y1792D01*
X3600Y1650D02*
Y1817D01*
X3803Y2020D01*
X3650Y1570D02*
X3740Y1660D01*
X3637Y1600D02*
X3670Y1633D01*
Y1660D01*
X3880Y1460D02*
X3900Y1480D01*
Y1510D01*
X3930Y1540D01*
X3990D01*
X3927Y1580D02*
X3990D01*
X3810Y1463D02*
X3927Y1580D01*
X3924Y1620D02*
X3990D01*
X3814Y1510D02*
X3924Y1620D01*
X3430Y1510D02*
X3814D01*
X3910Y1780D02*
X3990D01*
X3840Y1660D02*
X3840Y1660D01*
Y1710D01*
X3910Y1780D01*
X670Y1050D02*
X690Y1030D01*
Y980D02*
Y1030D01*
X610Y1050D02*
X670D01*
X470Y1190D02*
X610Y1050D01*
X470Y1190D02*
Y1260D01*
X500Y1290D01*
D99*
X4805Y1700D02*
D03*
Y3300D02*
D03*
D101*
X540Y1290D02*
D03*
X520Y1380D02*
D03*
X590D02*
D03*
X550Y1520D02*
D03*
X4533Y4874D02*
D03*
X2290Y495D02*
D03*
X2340Y540D02*
D03*
X3620Y1418D02*
D03*
X2470Y430D02*
D03*
X2250Y270D02*
D03*
X2200D02*
D03*
X3760Y2640D02*
D03*
X3680D02*
D03*
X1920Y2620D02*
D03*
X1850D02*
D03*
X980Y1770D02*
D03*
X915Y1765D02*
D03*
X1680Y1970D02*
D03*
Y2050D02*
D03*
X3440Y2390D02*
D03*
Y2480D02*
D03*
X1570Y2090D02*
D03*
X1570Y2170D02*
D03*
X4870Y3570D02*
D03*
Y2220D02*
D03*
X4680Y2460D02*
D03*
X4720Y1420D02*
D03*
X4790Y1440D02*
D03*
X4288Y1250D02*
D03*
X4240Y1300D02*
D03*
X4870Y3010D02*
D03*
X4800Y2950D02*
D03*
X4770Y2880D02*
D03*
X4710Y4710D02*
D03*
X4853Y3355D02*
D03*
X4855Y3492D02*
D03*
X4830Y3700D02*
D03*
X2650Y180D02*
D03*
X480Y240D02*
D03*
X3210Y1070D02*
D03*
X3160Y1460D02*
D03*
X3210Y1500D02*
D03*
Y1420D02*
D03*
X3320Y1470D02*
D03*
X3100Y1420D02*
D03*
X3390Y710D02*
D03*
X3330Y780D02*
D03*
X3260Y720D02*
D03*
X320Y510D02*
D03*
X420D02*
D03*
X80Y460D02*
D03*
X2880Y4095D02*
D03*
X2940Y4160D02*
D03*
X1420Y3140D02*
D03*
X1470Y3050D02*
D03*
X1890Y3360D02*
D03*
X4695Y3810D02*
D03*
X4650Y2880D02*
D03*
X4648Y2945D02*
D03*
X4560Y3590D02*
D03*
X4630Y2680D02*
D03*
X4410Y560D02*
D03*
X4460D02*
D03*
X4340Y100D02*
D03*
Y230D02*
D03*
X1990Y1160D02*
D03*
X2130Y1180D02*
D03*
X3830Y1960D02*
D03*
X1580Y994D02*
D03*
X2840Y2730D02*
D03*
X2910Y2730D02*
D03*
X2980Y2730D02*
D03*
X3460Y2975D02*
D03*
X3520Y2950D02*
D03*
X3660Y2920D02*
D03*
X4870Y2290D02*
D03*
X2650Y3800D02*
D03*
X2700Y3820D02*
D03*
X1260Y4860D02*
D03*
X1360Y4550D02*
D03*
X1620Y1930D02*
D03*
X610Y1670D02*
D03*
X1670Y2640D02*
D03*
X1430Y2600D02*
D03*
X1340Y2550D02*
D03*
X4720Y410D02*
D03*
X4750Y910D02*
D03*
X4850Y1440D02*
D03*
X2450Y3690D02*
D03*
X2510Y3580D02*
D03*
X2450Y3620D02*
D03*
X570Y1620D02*
D03*
X2450Y2960D02*
D03*
X2340Y3151D02*
D03*
X2320Y3060D02*
D03*
X2620Y2725D02*
D03*
X2685D02*
D03*
X2750Y2730D02*
D03*
X2060Y2180D02*
D03*
X2390Y2460D02*
D03*
X2390Y2290D02*
D03*
X2390Y2190D02*
D03*
X2330Y2460D02*
D03*
X3450Y1430D02*
D03*
X3510Y1460D02*
D03*
X3340Y1410D02*
D03*
X2750Y1790D02*
D03*
X2780Y1730D02*
D03*
X2620Y1760D02*
D03*
X2750Y1920D02*
D03*
X3020Y1730D02*
D03*
X2600Y1690D02*
D03*
X2840Y2090D02*
D03*
X2830Y880D02*
D03*
X2658Y1662D02*
D03*
X2170Y2400D02*
D03*
X2031Y2459D02*
D03*
X2590Y1830D02*
D03*
X2820Y3150D02*
D03*
X2830Y3080D02*
D03*
X2650Y2936D02*
D03*
X2720Y2940D02*
D03*
X3400Y2980D02*
D03*
X4560Y2390D02*
D03*
Y2320D02*
D03*
X4380Y3590D02*
D03*
X3440Y2710D02*
D03*
X3250Y3130D02*
D03*
X4030Y2930D02*
D03*
X2890Y2140D02*
D03*
X4320Y4030D02*
D03*
X4110Y2930D02*
D03*
X2590Y3840D02*
D03*
X3890Y2625D02*
D03*
X4180Y2850D02*
D03*
X2680Y2490D02*
D03*
X2730Y2430D02*
D03*
X2788Y2392D02*
D03*
X2790Y2330D02*
D03*
Y2260D02*
D03*
X4610Y590D02*
D03*
X3170Y3420D02*
D03*
X1860Y2800D02*
D03*
Y2710D02*
D03*
X1910Y2760D02*
D03*
X1530Y2950D02*
D03*
X2780Y1240D02*
D03*
X2830Y1030D02*
D03*
X2620Y1480D02*
D03*
X2580Y1530D02*
D03*
X2660Y1600D02*
D03*
X2657Y1530D02*
D03*
X2670Y3020D02*
D03*
X3110Y2090D02*
D03*
X3330Y1970D02*
D03*
X560Y340D02*
D03*
X2000Y2180D02*
D03*
X1955Y2720D02*
D03*
X1720Y2910D02*
D03*
Y2970D02*
D03*
X1820Y3070D02*
D03*
X1810Y3175D02*
D03*
X1820Y3350D02*
D03*
X770Y1780D02*
D03*
X720Y1720D02*
D03*
X2577Y770D02*
D03*
X2750Y900D02*
D03*
X2660Y570D02*
D03*
X3670Y2030D02*
D03*
X3380Y1460D02*
D03*
X3560Y1418D02*
D03*
X3880Y1460D02*
D03*
X3740Y1460D02*
D03*
X3690Y1420D02*
D03*
X4120Y2270D02*
D03*
X4240Y2850D02*
D03*
X3820Y2670D02*
D03*
X3870Y2730D02*
D03*
X2790Y2580D02*
D03*
X1350Y1720D02*
D03*
X1930Y2180D02*
D03*
Y2250D02*
D03*
X3600Y2030D02*
D03*
X3860Y1240D02*
D03*
X4220Y610D02*
D03*
Y660D02*
D03*
X3180Y2090D02*
D03*
X2280Y1290D02*
D03*
Y1340D02*
D03*
Y1390D02*
D03*
Y1440D02*
D03*
X2140D02*
D03*
Y1390D02*
D03*
Y1340D02*
D03*
Y1290D02*
D03*
X2390Y1680D02*
D03*
X2340D02*
D03*
X2290D02*
D03*
X2240D02*
D03*
X2160D02*
D03*
X2110D02*
D03*
X2060D02*
D03*
X2010D02*
D03*
X1610Y1460D02*
D03*
Y1700D02*
D03*
Y1510D02*
D03*
X1560D02*
D03*
X1510D02*
D03*
X1460D02*
D03*
X1610Y1650D02*
D03*
X1560D02*
D03*
X1510D02*
D03*
X1460D02*
D03*
X1270Y1050D02*
D03*
X1218Y972D02*
D03*
X840Y1760D02*
D03*
X1480Y3150D02*
D03*
X1310Y3280D02*
D03*
X1520Y3670D02*
D03*
X1550Y3600D02*
D03*
X1610Y3630D02*
D03*
X1290Y3780D02*
D03*
X1645Y3575D02*
D03*
X1660Y3680D02*
D03*
X1270Y3140D02*
D03*
X1480Y2860D02*
D03*
X1647Y3425D02*
D03*
X1200Y3140D02*
D03*
X1030Y3160D02*
D03*
X2190Y3040D02*
D03*
X2205Y2880D02*
D03*
X2170Y3110D02*
D03*
X2280Y3140D02*
D03*
X1870Y3420D02*
D03*
Y3495D02*
D03*
Y3560D02*
D03*
X3000Y4390D02*
D03*
X3340Y4620D02*
D03*
X2255Y3960D02*
D03*
X2305Y4000D02*
D03*
X4660Y4874D02*
D03*
X4787D02*
D03*
X4265Y4670D02*
D03*
X2340Y3380D02*
D03*
X2305Y3770D02*
D03*
X2180Y3480D02*
D03*
X2096Y3565D02*
D03*
X2250Y3480D02*
D03*
X2310Y3485D02*
D03*
X2500Y4000D02*
D03*
X3715Y3570D02*
D03*
X270Y730D02*
D03*
X350D02*
D03*
X1334Y1064D02*
D03*
X510Y1570D02*
D03*
X1160Y1660D02*
D03*
X1320Y3430D02*
D03*
Y3360D02*
D03*
X1710Y4710D02*
D03*
X1640D02*
D03*
X1340Y2450D02*
D03*
X1180Y2600D02*
D03*
Y2400D02*
D03*
Y2525D02*
D03*
X4455Y715D02*
D03*
X1620Y2260D02*
D03*
X1570Y2320D02*
D03*
X1470Y2380D02*
D03*
X1984Y1054D02*
D03*
X3170Y2730D02*
D03*
X1750Y2640D02*
D03*
X2100Y847D02*
D03*
X2200Y790D02*
D03*
X2310Y920D02*
D03*
X2260Y1020D02*
D03*
X3100Y1230D02*
D03*
X4630Y2576D02*
D03*
X4200Y2585D02*
D03*
X4570Y2520D02*
D03*
X4760Y2220D02*
D03*
X2400Y2605D02*
D03*
X2750Y2530D02*
D03*
X2230Y640D02*
D03*
X2040Y2670D02*
D03*
X1980Y2640D02*
D03*
X2032Y2399D02*
D03*
X3740Y1660D02*
D03*
X4065D02*
D03*
X3900D02*
D03*
X4660Y3010D02*
D03*
X4227Y1230D02*
D03*
X4240Y1470D02*
D03*
Y1610D02*
D03*
Y1540D02*
D03*
X3900Y1940D02*
D03*
X4190Y1810D02*
D03*
X4120D02*
D03*
X3930Y1240D02*
D03*
X4000Y1230D02*
D03*
X4630Y1810D02*
D03*
X4710Y2130D02*
D03*
X4640D02*
D03*
X4600Y2080D02*
D03*
X3376Y2730D02*
D03*
X3320Y2630D02*
D03*
X3750Y2330D02*
D03*
X3780Y2390D02*
D03*
X3800Y2480D02*
D03*
X3870Y2410D02*
D03*
X2880Y1420D02*
D03*
Y1490D02*
D03*
X2720Y1700D02*
D03*
X2384Y1143D02*
D03*
X1550Y3980D02*
D03*
X1870Y3220D02*
D03*
X1640Y4380D02*
D03*
X1710D02*
D03*
X1870Y3300D02*
D03*
X4500Y4310D02*
D03*
X2750Y1040D02*
D03*
X3100Y2730D02*
D03*
X4080Y2460D02*
D03*
X2670Y320D02*
D03*
X1730Y2110D02*
D03*
X3532Y1652D02*
D03*
X3600Y1650D02*
D03*
X3670Y1660D02*
D03*
X3810Y1463D02*
D03*
X3840Y1660D02*
D03*
X1630Y390D02*
D03*
X1830Y430D02*
D03*
Y380D02*
D03*
X517Y1230D02*
D03*
D103*
X4600Y3785D02*
D03*
X4340D02*
D03*
Y3880D02*
D03*
Y3975D02*
D03*
X4600D02*
D03*
D105*
X4340Y230D02*
D03*
Y100D02*
D03*
X4110Y2770D02*
D03*
X2310Y130D02*
D03*
X2160D02*
D03*
X1510Y1980D02*
D03*
Y1840D02*
D03*
X630Y2570D02*
D03*
X760D02*
D03*
X4470Y3420D02*
D03*
Y3550D02*
D03*
X3610Y2970D02*
D03*
X3660Y4020D02*
D03*
X3480D02*
D03*
X1350Y1920D02*
D03*
X3060Y4750D02*
D03*
X4090Y670D02*
D03*
D109*
X790Y1230D02*
D03*
Y1330D02*
D03*
X690Y1230D02*
D03*
Y1330D02*
D03*
X3450Y800D02*
D03*
Y700D02*
D03*
X4150Y1480D02*
D03*
Y1580D02*
D03*
Y2100D02*
D03*
Y2200D02*
D03*
X3400Y1120D02*
D03*
Y1020D02*
D03*
X4540Y550D02*
D03*
Y650D02*
D03*
X560Y670D02*
D03*
Y570D02*
D03*
X1120Y980D02*
D03*
Y880D02*
D03*
X1020D02*
D03*
Y980D02*
D03*
X890D02*
D03*
Y880D02*
D03*
X790D02*
D03*
Y980D02*
D03*
X690D02*
D03*
Y880D02*
D03*
X1290Y1120D02*
D03*
Y1220D02*
D03*
X1190Y1120D02*
D03*
Y1220D02*
D03*
X1250Y1580D02*
D03*
Y1680D02*
D03*
X1990Y520D02*
D03*
Y420D02*
D03*
X1890Y520D02*
D03*
Y420D02*
D03*
X1990Y720D02*
D03*
Y620D02*
D03*
X1890Y720D02*
D03*
Y620D02*
D03*
X2420Y820D02*
D03*
Y720D02*
D03*
X2320Y820D02*
D03*
Y720D02*
D03*
X2520Y820D02*
D03*
Y720D02*
D03*
X3060Y770D02*
D03*
Y870D02*
D03*
X3160D02*
D03*
Y770D02*
D03*
X3260Y870D02*
D03*
Y770D02*
D03*
X3100Y970D02*
D03*
Y1070D02*
D03*
X2990Y1170D02*
D03*
Y1070D02*
D03*
X3290D02*
D03*
Y1170D02*
D03*
X4540Y850D02*
D03*
Y750D02*
D03*
X1700Y1760D02*
D03*
Y1660D02*
D03*
X2330Y1750D02*
D03*
Y1850D02*
D03*
X2230Y1750D02*
D03*
Y1850D02*
D03*
X2330Y2040D02*
D03*
Y1940D02*
D03*
X2230Y2040D02*
D03*
Y1940D02*
D03*
X1700Y1400D02*
D03*
Y1500D02*
D03*
X2240Y2490D02*
D03*
Y2390D02*
D03*
X2330Y2730D02*
D03*
Y2630D02*
D03*
X2190Y2610D02*
D03*
Y2710D02*
D03*
X2380Y3060D02*
D03*
Y2960D02*
D03*
X2260D02*
D03*
Y3060D02*
D03*
X2110Y2790D02*
D03*
Y2890D02*
D03*
X2010D02*
D03*
Y2790D02*
D03*
X1700Y3280D02*
D03*
Y3180D02*
D03*
X1600Y3280D02*
D03*
Y3180D02*
D03*
X2010Y3090D02*
D03*
Y2990D02*
D03*
X2110D02*
D03*
Y3090D02*
D03*
X1940Y3520D02*
D03*
Y3620D02*
D03*
X1710Y3520D02*
D03*
Y3620D02*
D03*
X1810Y3520D02*
D03*
Y3620D02*
D03*
X2040D02*
D03*
Y3520D02*
D03*
X2380Y3550D02*
D03*
Y3450D02*
D03*
X2780Y2980D02*
D03*
Y3080D02*
D03*
X2890Y2980D02*
D03*
Y3080D02*
D03*
X2450Y3940D02*
D03*
Y3840D02*
D03*
X2350Y3940D02*
D03*
Y3840D02*
D03*
X2500Y4060D02*
D03*
Y4160D02*
D03*
X2600Y4060D02*
D03*
Y4160D02*
D03*
X2700Y4110D02*
D03*
Y4210D02*
D03*
X3250Y3200D02*
D03*
Y3300D02*
D03*
Y3390D02*
D03*
Y3490D02*
D03*
X4210Y4860D02*
D03*
Y4760D02*
D03*
X4790Y3790D02*
D03*
Y3890D02*
D03*
X4430Y2970D02*
D03*
Y2870D02*
D03*
X3990Y3110D02*
D03*
Y3010D02*
D03*
X3000Y4460D02*
D03*
Y4560D02*
D03*
X3100Y4210D02*
D03*
Y4110D02*
D03*
X3200D02*
D03*
Y4210D02*
D03*
X3340Y4560D02*
D03*
Y4460D02*
D03*
D110*
X990Y1110D02*
D03*
X890D02*
D03*
X690D02*
D03*
X790D02*
D03*
X930Y1590D02*
D03*
X1030D02*
D03*
X930Y1690D02*
D03*
X1030D02*
D03*
X4640Y530D02*
D03*
X4740D02*
D03*
X2980Y680D02*
D03*
X2880D02*
D03*
X3650Y870D02*
D03*
X3550D02*
D03*
Y680D02*
D03*
X3650D02*
D03*
X4280Y340D02*
D03*
X4380D02*
D03*
X4280Y440D02*
D03*
X4380D02*
D03*
X4730Y1720D02*
D03*
X4630D02*
D03*
X4430D02*
D03*
X4530D02*
D03*
X4470Y2770D02*
D03*
X4570D02*
D03*
X4250Y1720D02*
D03*
X4150D02*
D03*
X4250Y1880D02*
D03*
X4150D02*
D03*
Y1980D02*
D03*
X4250D02*
D03*
X4150Y2330D02*
D03*
X4250D02*
D03*
X4150Y2430D02*
D03*
X4250D02*
D03*
Y2530D02*
D03*
X4150D02*
D03*
X3830Y910D02*
D03*
X3930D02*
D03*
X590Y780D02*
D03*
X690D02*
D03*
X990Y1210D02*
D03*
X1090D02*
D03*
X990Y1310D02*
D03*
X1090D02*
D03*
X1210Y1350D02*
D03*
X1310D02*
D03*
X690Y1550D02*
D03*
X790D02*
D03*
X690Y1650D02*
D03*
X790D02*
D03*
X1430Y1250D02*
D03*
X1530D02*
D03*
X1890Y130D02*
D03*
X1990D02*
D03*
X2590Y970D02*
D03*
X2490D02*
D03*
X2730D02*
D03*
X2830D02*
D03*
X2730Y1170D02*
D03*
X2630D02*
D03*
X2440D02*
D03*
X2540D02*
D03*
X3190Y970D02*
D03*
X3290D02*
D03*
X3100Y1170D02*
D03*
X3200D02*
D03*
X3780Y1070D02*
D03*
X3680D02*
D03*
X3780Y1170D02*
D03*
X3680D02*
D03*
X4000Y1070D02*
D03*
X3900D02*
D03*
Y1170D02*
D03*
X4000D02*
D03*
X4350Y650D02*
D03*
X4450D02*
D03*
X4300Y770D02*
D03*
X4400D02*
D03*
X4300Y870D02*
D03*
X4400D02*
D03*
X4110D02*
D03*
X4210D02*
D03*
X4110Y970D02*
D03*
X4210D02*
D03*
X4120Y1170D02*
D03*
X4220D02*
D03*
X4110Y1280D02*
D03*
X4010D02*
D03*
X2330Y1540D02*
D03*
X2230D02*
D03*
X2100Y1600D02*
D03*
X2000D02*
D03*
X2100Y1750D02*
D03*
X2000D02*
D03*
X2230Y2150D02*
D03*
X2330D02*
D03*
X1520Y2710D02*
D03*
X1620D02*
D03*
X1810Y2990D02*
D03*
X1910D02*
D03*
X1810Y2890D02*
D03*
X1910D02*
D03*
X2280Y3210D02*
D03*
X2380D02*
D03*
Y3310D02*
D03*
X2280D02*
D03*
X2080Y3210D02*
D03*
X2180D02*
D03*
X2080Y3310D02*
D03*
X2180D02*
D03*
X1480Y3280D02*
D03*
X1380D02*
D03*
X1480Y3380D02*
D03*
X1380D02*
D03*
X1480Y3480D02*
D03*
X1380D02*
D03*
X1480Y3580D02*
D03*
X1380D02*
D03*
X1810Y3420D02*
D03*
X1710D02*
D03*
X2040D02*
D03*
X1940D02*
D03*
X2250Y3550D02*
D03*
X2150D02*
D03*
X3160Y2980D02*
D03*
X3060D02*
D03*
X3350D02*
D03*
X3250D02*
D03*
X3250Y3590D02*
D03*
X3150D02*
D03*
X3050D02*
D03*
X2950D02*
D03*
X3850Y2980D02*
D03*
X3750D02*
D03*
X4790Y4500D02*
D03*
X4890D02*
D03*
X4790Y4400D02*
D03*
X4890D02*
D03*
X4610Y3670D02*
D03*
X4510D02*
D03*
X3850Y3800D02*
D03*
X3750D02*
D03*
X4420Y4090D02*
D03*
X4320D02*
D03*
X4310Y3670D02*
D03*
X4410D02*
D03*
X4320Y4190D02*
D03*
X4420D02*
D03*
X4680Y4500D02*
D03*
X4580D02*
D03*
X4680Y4390D02*
D03*
X4580D02*
D03*
Y4290D02*
D03*
X4680D02*
D03*
Y4090D02*
D03*
X4580D02*
D03*
Y4190D02*
D03*
X4680D02*
D03*
Y4600D02*
D03*
X4580D02*
D03*
X3230Y4320D02*
D03*
X3130D02*
D03*
X2940D02*
D03*
X3040D02*
D03*
D111*
X2000Y1900D02*
D03*
Y2080D02*
D03*
X3860Y4250D02*
D03*
Y4070D02*
D03*
D116*
X1600Y2859D02*
D03*
Y3082D02*
D03*
D118*
X4315Y3125D02*
D03*
Y3060D02*
D03*
Y2995D02*
D03*
X4105D02*
D03*
Y3060D02*
D03*
Y3125D02*
D03*
D125*
X4890Y1596D02*
D03*
Y1560D02*
D03*
X2950Y3076D02*
D03*
Y3040D02*
D03*
X3700Y2730D02*
D03*
Y2694D02*
D03*
X3740Y2730D02*
D03*
Y2694D02*
D03*
D132*
X130Y930D02*
D03*
X310D02*
D03*
X130Y1120D02*
D03*
X310D02*
D03*
X130Y1300D02*
D03*
X310D02*
D03*
X1290Y180D02*
D03*
X1110D02*
D03*
X900Y2500D02*
D03*
X1080D02*
D03*
X4050Y4810D02*
D03*
X3870D02*
D03*
X3660Y4540D02*
D03*
X3480D02*
D03*
X3660Y4350D02*
D03*
X3480D02*
D03*
X3660Y4160D02*
D03*
X3480D02*
D03*
D134*
X4645Y1570D02*
D03*
X4815D02*
D03*
X1285Y350D02*
D03*
X1115D02*
D03*
X1105Y1450D02*
D03*
X935D02*
D03*
X2365Y3670D02*
D03*
X2535D02*
D03*
X3875Y3240D02*
D03*
X3705D02*
D03*
X4165Y3760D02*
D03*
X3995D02*
D03*
D139*
X2215Y918D02*
D03*
X2150D02*
D03*
X2085D02*
D03*
X2215Y1102D02*
D03*
X2150D02*
D03*
X2085D02*
D03*
D145*
X3770Y615D02*
D03*
Y785D02*
D03*
X1830Y1525D02*
D03*
Y1355D02*
D03*
Y1645D02*
D03*
Y1815D02*
D03*
X2220Y3845D02*
D03*
Y3675D02*
D03*
X3080Y3245D02*
D03*
Y3415D02*
D03*
X4300Y3275D02*
D03*
Y3445D02*
D03*
X4120Y3275D02*
D03*
Y3445D02*
D03*
X3600Y3675D02*
D03*
Y3845D02*
D03*
X3450D02*
D03*
Y3675D02*
D03*
X3920Y615D02*
D03*
Y785D02*
D03*
D146*
X4886Y860D02*
D03*
X4850D02*
D03*
X1990Y2500D02*
D03*
X1954D02*
D03*
X1830Y3900D02*
D03*
X1794D02*
D03*
X1826Y4380D02*
D03*
X1790D02*
D03*
X1826Y4710D02*
D03*
X1790D02*
D03*
D158*
X4240Y4440D02*
D03*
X4210Y3060D02*
D03*
D163*
X1360Y1530D02*
D03*
Y1580D02*
D03*
Y1630D02*
D03*
D164*
X1399Y1440D02*
D03*
Y1720D02*
D03*
X1449D02*
D03*
X1549Y1440D02*
D03*
X1499D02*
D03*
X1449D02*
D03*
X1499Y1720D02*
D03*
X1549D02*
D03*
D172*
X4915Y4110D02*
D03*
X4785D02*
D03*
X4850Y4290D02*
D03*
D177*
X4640Y260D02*
D03*
X1200Y630D02*
D03*
X578Y3319D02*
D03*
Y3574D02*
D03*
Y4133D02*
D03*
Y3879D02*
D03*
Y4440D02*
D03*
Y4694D02*
D03*
D182*
X577Y1170D02*
X820D01*
X3620Y1330D02*
Y1418D01*
X4860Y1670D02*
X4890Y1640D01*
Y1596D02*
Y1640D01*
X2620Y210D02*
X2650Y180D01*
X2620Y210D02*
Y370D01*
X3290Y1440D02*
X3320Y1470D01*
X3290Y1396D02*
Y1440D01*
X2620Y370D02*
X2880Y630D01*
Y680D01*
X4886Y860D02*
X4950D01*
X2910Y3994D02*
Y4065D01*
Y3994D02*
X3000Y3903D01*
X2880Y4095D02*
X2910Y4065D01*
X2940Y4063D02*
Y4160D01*
Y4063D02*
X3053Y3950D01*
X2818Y4095D02*
X2880D01*
X2940Y4160D02*
X3002D01*
X3193Y3170D02*
Y3370D01*
X3133Y3110D02*
X3193Y3170D01*
X3120Y3140D02*
X3163Y3183D01*
X2770Y3550D02*
X2858Y3638D01*
X2908D01*
X2930Y3660D01*
X3290Y1396D02*
X3300Y1386D01*
X3830Y1960D02*
Y1976D01*
X3844Y1990D01*
X2940Y2770D02*
X2980Y2730D01*
X2940Y2770D02*
Y2830D01*
X3600Y2960D02*
X3610Y2970D01*
X3600Y2910D02*
Y2960D01*
X3580Y2890D02*
X3600Y2910D01*
X3580Y2830D02*
Y2890D01*
X3980Y2900D02*
Y3010D01*
X4050Y3050D02*
X4060Y3060D01*
X3980Y3010D02*
X3985Y3015D01*
X4050Y3021D02*
Y3050D01*
X4039Y3010D02*
X4050Y3021D01*
X3990Y3010D02*
X4039D01*
X4060Y3060D02*
X4105D01*
X2930Y3660D02*
Y3706D01*
X2560Y3550D02*
X2770D01*
X2460Y3450D02*
X2560Y3550D01*
X2380Y3450D02*
X2460D01*
X2530Y3780D02*
X2590Y3840D01*
X2370Y3780D02*
X2530D01*
X2350Y3800D02*
X2370Y3780D01*
X2390Y2190D02*
X2420D01*
X2095Y2500D02*
X2230D01*
X3300Y1330D02*
Y1386D01*
X2600Y1887D02*
X2665Y1822D01*
Y1741D02*
Y1822D01*
X2630Y1900D02*
X2696Y1834D01*
X2658Y1662D02*
Y1734D01*
X2665Y1741D01*
X2600Y1887D02*
Y2007D01*
X2547Y2060D02*
X2600Y2007D01*
X2490Y2060D02*
X2547D01*
X2630Y1900D02*
Y2020D01*
X2550Y2100D02*
X2630Y2020D01*
X2490Y2100D02*
X2550D01*
X2950Y3083D02*
Y3120D01*
X2920Y3150D02*
X2950Y3120D01*
X2820Y3150D02*
X2920D01*
X2890Y2930D02*
Y2980D01*
X2860Y2900D02*
X2890Y2930D01*
X2860Y2830D02*
Y2900D01*
X2890Y2980D02*
X2930D01*
X2950Y3000D01*
Y3040D01*
X3043Y3110D02*
X3133D01*
X3011Y3078D02*
X3043Y3110D01*
X3030Y3140D02*
X3120D01*
X2980Y3090D02*
X3030Y3140D01*
X3011Y2939D02*
Y3078D01*
X2980Y2830D02*
Y3090D01*
X3011Y2939D02*
X3060Y2890D01*
X2980Y2830D02*
X2980Y2830D01*
X2720Y2940D02*
X2740Y2919D01*
X3930Y2420D02*
X3990D01*
X3890Y2460D02*
X3930Y2420D01*
X3890Y2460D02*
Y2625D01*
X3980Y2900D02*
X4000Y2880D01*
X4130D01*
X4150Y2900D01*
X4270D01*
X4110Y2930D02*
X4283D01*
X4330Y2883D01*
Y2787D02*
Y2883D01*
X4117Y2660D02*
X4240Y2783D01*
X3990Y2660D02*
X4117D01*
X4120Y2620D02*
X4300Y2800D01*
X3990Y2620D02*
X4120D01*
X4240Y2783D02*
Y2850D01*
X4300Y2800D02*
Y2870D01*
X4140Y2420D02*
X4150Y2430D01*
X4110Y2420D02*
X4140D01*
X4100Y2410D02*
X4110Y2420D01*
X4060Y2410D02*
X4100D01*
X4050Y2420D02*
X4060Y2410D01*
X3990Y2420D02*
X4050D01*
X4270Y2900D02*
X4300Y2870D01*
X3300Y1330D02*
X3300Y1330D01*
X3213Y3390D02*
X3250D01*
X3060Y2830D02*
Y2890D01*
X2740Y2830D02*
Y2919D01*
X2675Y831D02*
Y889D01*
X2720Y934D01*
X3100Y2730D02*
Y2830D01*
X1340Y1440D02*
Y1530D01*
X1320Y1420D02*
X1340Y1440D01*
X1230Y1420D02*
X1320D01*
X1210Y1350D02*
Y1400D01*
X1230Y1420D01*
X1340Y1530D02*
X1360D01*
X960Y900D02*
Y1050D01*
Y900D02*
X980Y880D01*
X960Y1050D02*
X980Y1070D01*
Y1100D02*
X990Y1110D01*
X980Y1070D02*
Y1100D01*
Y880D02*
X1020D01*
Y830D02*
Y880D01*
Y830D02*
X1040Y810D01*
Y710D02*
Y810D01*
Y710D02*
X1045Y705D01*
X1061D01*
X3250Y3590D02*
X3250Y3590D01*
Y3490D02*
Y3590D01*
X3180Y3840D02*
Y3869D01*
Y3812D02*
Y3840D01*
X3180Y3840D02*
X3180Y3840D01*
X3250Y3590D02*
Y3742D01*
X3180Y3812D02*
X3250Y3742D01*
X3180Y3869D02*
X3190Y3879D01*
X3140Y3990D02*
X3190Y3940D01*
X3084Y3990D02*
X3140D01*
X3020Y4054D02*
X3084Y3990D01*
X3081Y3950D02*
X3127Y3903D01*
X3053Y3950D02*
X3081D01*
X3020Y4054D02*
Y4090D01*
X3190Y3879D02*
Y3940D01*
X3064Y3840D02*
X3180D01*
X3000Y3776D02*
X3064Y3840D01*
X3015Y4095D02*
X3020Y4090D01*
X3002Y4095D02*
X3015D01*
X4312Y4600D02*
X4580D01*
X2370Y3440D02*
X2380Y3450D01*
X2370Y3410D02*
Y3440D01*
X2340Y3380D02*
X2370Y3410D01*
X2930Y3706D02*
X3000Y3776D01*
X2350Y3800D02*
Y3840D01*
X3715Y3570D02*
Y3650D01*
X980Y1300D02*
X990Y1310D01*
X950Y1300D02*
X980D01*
X820Y1170D02*
X950Y1300D01*
X510Y1570D02*
X610D01*
X2430Y2180D02*
X2490D01*
X930Y1550D02*
Y1590D01*
Y1550D02*
X950Y1530D01*
X1120Y1620D02*
X1160Y1660D01*
X950Y1530D02*
X1090D01*
X1120Y1560D01*
Y1620D01*
X2720Y960D02*
X2730Y970D01*
X2720Y934D02*
Y960D01*
X1998Y2500D02*
X2007D01*
X2012Y2505D01*
X2050D01*
X2055Y2500D01*
X2095D01*
X2420Y2190D02*
X2430Y2180D01*
X3920Y1990D02*
X3930Y1980D01*
X3844Y1990D02*
X3920D01*
X3930Y1980D02*
X3990D01*
X3910Y2300D02*
X3990D01*
X3880Y2330D02*
X3910Y2300D01*
X3750Y2330D02*
X3880D01*
X2696Y1724D02*
X2720Y1700D01*
X2696Y1724D02*
Y1834D01*
X3193Y3370D02*
X3213Y3390D01*
X3163Y3183D02*
Y3383D01*
X3170Y3390D01*
Y3420D01*
X3990Y2580D02*
X4120D01*
X4121Y2580D01*
X4123D01*
X4330Y2787D01*
X4080Y2460D02*
Y2460D01*
X4059Y2481D02*
X4080Y2460D01*
X4059Y2481D02*
Y2491D01*
X4050Y2500D02*
X4059Y2491D01*
X3990Y2500D02*
X4050D01*
X3620Y1330D02*
X3620Y1330D01*
X517Y1230D02*
X577Y1170D01*
D183*
X2200Y270D02*
X2250D01*
X2160Y130D02*
Y270D01*
X2200D01*
X2100D02*
X2160D01*
X2044Y326D02*
X2100Y270D01*
X1995Y326D02*
X2044D01*
X3440Y800D02*
X3510D01*
X4740Y4390D02*
X4780D01*
X4680D02*
X4740D01*
X4780D02*
X4790Y4400D01*
X4680Y4500D02*
Y4600D01*
X4533Y4747D02*
X4610Y4670D01*
X4460Y4820D02*
X4533Y4747D01*
X4310Y650D02*
X4350D01*
X4230Y730D02*
X4310Y650D01*
X3900Y1013D02*
Y1070D01*
X4195Y4005D02*
X4240Y3960D01*
Y3700D02*
Y3960D01*
Y3700D02*
X4270Y3670D01*
X4310D01*
X2130Y1960D02*
Y2170D01*
X2180Y2220D01*
X2320Y2160D02*
X2330Y2150D01*
X2230Y2500D02*
Y2530D01*
Y2500D02*
Y2500D01*
Y2500D02*
X2240Y2490D01*
X2190Y2570D02*
X2230Y2530D01*
X2190Y2570D02*
Y2610D01*
X2250D01*
X2280Y820D02*
X2320D01*
X1940Y1620D02*
Y1760D01*
Y1620D02*
X1960Y1600D01*
X2000D01*
X2320Y680D02*
Y720D01*
Y680D02*
X2340Y660D01*
X4150Y1100D02*
X4270D01*
X4123Y1127D02*
X4150Y1100D01*
X4123Y1127D02*
Y1167D01*
X4120Y1170D02*
X4123Y1167D01*
X2400Y580D02*
Y640D01*
X2380Y660D02*
X2400Y640D01*
X2340Y660D02*
X2380D01*
X4120Y1410D02*
X4150Y1440D01*
Y1480D01*
X2380Y1850D02*
X2410Y1880D01*
X2330Y1850D02*
X2380D01*
X1400Y1350D02*
X1470D01*
X1310D02*
X1400D01*
X1415Y605D02*
X1520Y500D01*
X1339Y605D02*
X1415D01*
X1110Y990D02*
Y1030D01*
X1030Y990D02*
Y1030D01*
X1375Y555D02*
X1490Y440D01*
Y130D02*
X1640D01*
X1275Y491D02*
X1328D01*
X1339Y555D02*
X1375D01*
X3200Y4110D02*
X3320D01*
X4540Y650D02*
X4600D01*
X4616Y666D01*
X4663D01*
X4450Y650D02*
X4540D01*
X4310Y3590D02*
X4310Y3590D01*
X1072Y491D02*
X1125D01*
X1175Y445D02*
Y491D01*
X1140Y410D02*
X1175Y445D01*
X1140Y365D02*
Y410D01*
X1175Y491D02*
Y615D01*
X1225Y445D02*
Y491D01*
Y445D02*
X1260Y410D01*
Y365D02*
Y410D01*
Y365D02*
X1285Y340D01*
X890Y280D02*
X950Y340D01*
Y480D01*
X1025Y555D01*
X1061D01*
X900Y510D02*
X995Y605D01*
X1061D01*
X2500Y500D02*
Y580D01*
X1030Y1590D02*
Y1690D01*
X1090D01*
X1140Y1740D01*
X1260D01*
X1310Y1790D01*
X1470D01*
X2990Y1010D02*
Y1070D01*
X2270Y2730D02*
X2330D01*
X2250Y2710D02*
X2270Y2730D01*
X2250Y2660D02*
Y2710D01*
X1940Y2820D02*
X1940D01*
X1970Y2790D01*
X2010D01*
X2180Y2220D02*
X2290D01*
X2320Y2190D01*
Y2160D02*
Y2190D01*
X2250Y2610D02*
Y2660D01*
X4530Y1720D02*
X4630D01*
X4050Y1410D02*
X4120D01*
X4000D02*
X4050D01*
X4090Y1580D02*
X4150D01*
X4630Y1720D02*
Y1810D01*
X2540Y1170D02*
X2630D01*
X2680Y1040D02*
Y1060D01*
X2730Y1110D01*
X4610Y3621D02*
Y3670D01*
Y3621D02*
X4620Y3611D01*
Y3570D02*
Y3611D01*
X3250Y3300D02*
X3281D01*
X3330Y3349D01*
Y3380D01*
X4140Y2530D02*
X4150Y2520D01*
X4100Y2530D02*
X4140D01*
X460Y996D02*
X524D01*
X560Y960D01*
X416Y864D02*
X460D01*
X400Y880D02*
X416Y864D01*
X360Y880D02*
X400D01*
X310Y930D02*
X360Y880D01*
X310Y930D02*
Y1120D01*
Y1300D01*
X590Y780D02*
Y870D01*
X620Y900D01*
Y986D01*
X420Y1186D02*
X620Y986D01*
X420Y1186D02*
X420Y1186D01*
X420Y1186D02*
X420Y1186D01*
X420Y1186D02*
Y1220D01*
X440Y1370D02*
Y1410D01*
X470Y1440D01*
X675D01*
X270Y1340D02*
X310Y1300D01*
X270Y1340D02*
Y1410D01*
D184*
X630Y1230D02*
X690D01*
X1760Y560D02*
X1790D01*
X2827Y390D02*
X2830Y392D01*
X2827Y390D02*
X2827Y390D01*
X2720Y390D02*
X2827D01*
X4830Y1110D02*
X4870Y1070D01*
X4790Y3890D02*
Y3940D01*
X4821Y2650D02*
Y2700D01*
X4770Y2750D02*
X4821Y2700D01*
X4640Y2750D02*
X4770D01*
X4690Y3650D02*
X4790Y3750D01*
X4690Y3524D02*
Y3650D01*
X4790Y3750D02*
Y3790D01*
X4740D02*
X4790D01*
X4690Y3524D02*
X4726Y3487D01*
X3290Y970D02*
X3340D01*
X3060Y770D02*
X3160D01*
X4420Y4090D02*
Y4190D01*
X830Y1550D02*
X850Y1530D01*
X790Y1550D02*
X830D01*
X3100Y3260D02*
X3110Y3270D01*
X2950Y3530D02*
Y3590D01*
X2890D02*
X2950D01*
X4720Y3810D02*
X4740Y3790D01*
X4695Y3810D02*
X4720D01*
X4570Y2960D02*
X4590Y2980D01*
X4570Y2770D02*
Y2960D01*
Y2770D02*
X4620D01*
X4640Y2750D01*
X4590Y3090D02*
Y3150D01*
Y3030D02*
Y3090D01*
Y2980D02*
Y3030D01*
X4440Y390D02*
Y440D01*
X4380D02*
X4440D01*
X4380Y340D02*
Y440D01*
X4280Y300D02*
Y490D01*
X1533Y1073D02*
Y1247D01*
X1530Y1250D02*
X1533Y1247D01*
X3700Y2980D02*
X3750D01*
X3700Y2980D02*
X3700Y2980D01*
X3890D02*
X3920Y2950D01*
X3850Y2980D02*
X3890D01*
X2450Y3940D02*
X2570D01*
X3100Y3415D02*
Y3500D01*
X4210Y4760D02*
X4320D01*
X1620Y2710D02*
X1780D01*
X2380Y3550D02*
X2440D01*
X2300Y2810D02*
Y2880D01*
X2260Y2920D02*
X2300Y2880D01*
X2260Y2920D02*
Y2960D01*
X2380Y2900D02*
Y2960D01*
X2240Y2330D02*
Y2390D01*
X2780Y3080D02*
X2890D01*
X3060Y2990D02*
Y3040D01*
X3160Y2980D02*
X3240D01*
X2730Y1110D02*
Y1170D01*
X2520Y820D02*
Y870D01*
X2490Y910D02*
Y970D01*
X2110Y2790D02*
X2160D01*
X2180Y2810D01*
X2300D01*
X2590Y970D02*
X2650D01*
X4540Y480D02*
Y550D01*
X4110Y810D02*
Y870D01*
X4110Y870D01*
Y970D01*
X3160Y720D02*
Y770D01*
X3400Y920D02*
Y970D01*
Y1020D01*
X3650Y990D02*
X3680Y1020D01*
Y1070D01*
X3780Y910D02*
X3830D01*
X3780Y1170D02*
X3830D01*
X3780Y1070D02*
X3830D01*
X4250Y2330D02*
Y2430D01*
X560Y500D02*
Y570D01*
X4150Y1580D02*
Y1630D01*
X4120Y1280D02*
X4170D01*
X2330Y1750D02*
X2390D01*
X2330Y1750D02*
X2330Y1750D01*
X2230Y1940D02*
X2330D01*
X2230Y1850D02*
Y1940D01*
Y1850D02*
X2330D01*
X790Y980D02*
Y1040D01*
X890Y980D02*
Y1040D01*
X1490Y130D02*
Y440D01*
X1328Y491D02*
X1410Y410D01*
X3100Y3500D02*
X3160D01*
X3050Y3550D02*
X3100Y3500D01*
X3050Y3550D02*
Y3590D01*
X3150D01*
X3050Y3699D02*
X3127Y3776D01*
X3050Y3590D02*
Y3699D01*
X1310Y3280D02*
X1380D01*
X1710Y3350D02*
Y3420D01*
X1710Y3420D01*
X3680Y1070D02*
Y1170D01*
X4030Y850D02*
Y910D01*
Y790D02*
Y850D01*
X4030Y850D02*
X4030Y850D01*
X4600Y900D02*
Y950D01*
X4270Y1050D02*
Y1100D01*
X4790Y1030D02*
X4830Y990D01*
X2220Y3770D02*
Y3845D01*
X2450Y3840D02*
X2450Y3840D01*
X2520D01*
X2260Y3550D02*
X2310D01*
X2550Y3015D02*
X2580Y3045D01*
X2520Y3045D02*
X2550Y3015D01*
X2520Y3045D02*
Y3110D01*
X2580Y3045D02*
Y3110D01*
X2600Y4020D02*
Y4060D01*
Y4020D02*
X2630Y3990D01*
X2700Y4040D02*
Y4110D01*
Y4210D02*
Y4210D01*
Y4280D01*
Y4330D01*
X3680Y3100D02*
X3690Y3090D01*
X3845Y3430D02*
X3845Y3430D01*
X3845Y3335D02*
Y3430D01*
X3790Y3335D02*
X3845D01*
X3900D01*
X1080Y140D02*
X1110Y170D01*
X1080Y60D02*
Y140D01*
X1110Y170D02*
X1140Y140D01*
Y60D02*
Y140D01*
X650Y100D02*
Y160D01*
Y100D02*
X690Y60D01*
X1010Y430D02*
X1072Y491D01*
X690Y60D02*
X990D01*
X1010Y80D01*
Y430D01*
X750Y220D02*
Y470D01*
X790Y510D01*
X900D01*
X930Y1210D02*
X990D01*
X1190Y1220D02*
Y1280D01*
X1290Y1220D02*
Y1280D01*
X630Y1110D02*
X690D01*
X1370Y1250D02*
X1430D01*
X790Y1650D02*
X850D01*
X3930Y910D02*
X4030D01*
X3930Y785D02*
Y910D01*
X2100Y1750D02*
Y1800D01*
X2170Y1750D02*
X2230D01*
X2330D01*
X2100Y1800D02*
X2120Y1820D01*
X2160D01*
X2190Y1850D01*
X2230D01*
Y2040D02*
Y2090D01*
Y2150D01*
Y2040D02*
X2330D01*
X4300Y770D02*
Y820D01*
Y870D01*
X2630Y1100D02*
Y1170D01*
X2200Y4110D02*
X2330D01*
X2260Y720D02*
X2320D01*
X2210D02*
X2260D01*
X1250Y1580D02*
X1250Y1580D01*
X1180Y1580D02*
X1250D01*
X1900Y2110D02*
X1970D01*
X2000Y2080D01*
X1900Y2050D02*
X1970D01*
X2000Y2080D01*
X3200Y1170D02*
X3290D01*
Y1210D01*
X3270Y1230D02*
X3290Y1210D01*
X3230Y1230D02*
X3270D01*
X2330Y2570D02*
Y2630D01*
X4250Y1980D02*
X4310D01*
X4540Y4190D02*
X4580D01*
X4500Y4230D02*
X4540Y4190D01*
X4500Y4230D02*
Y4310D01*
X1890Y520D02*
X1990D01*
X1890Y520D02*
Y620D01*
X1890Y520D02*
X1890Y520D01*
X1990D02*
Y620D01*
X1990Y520D02*
X1990Y520D01*
X1990Y520D02*
X2140D01*
X2173Y488D01*
Y390D02*
Y488D01*
X1830Y520D02*
X1890D01*
X1790Y560D02*
X1830Y520D01*
X4250Y2330D02*
X4320D01*
X4410Y2240D01*
X4650D01*
X1640Y710D02*
X1710D01*
X1760Y660D01*
Y560D02*
Y660D01*
X2140Y2710D02*
X2190D01*
X4430Y2870D02*
X4490D01*
X3060Y3040D02*
X3110D01*
X3230Y2990D02*
Y3060D01*
Y2990D02*
X3240Y2980D01*
X2330Y2570D02*
X2370Y2530D01*
X4150Y2100D02*
X4203D01*
X4233Y2130D01*
X4150Y2200D02*
X4200D01*
X4220Y2220D02*
X4280D01*
X4200Y2200D02*
X4220Y2220D01*
X3290Y970D02*
Y1070D01*
X3740Y870D02*
X3780Y910D01*
D186*
X4943Y2788D02*
Y2867D01*
X4930Y2880D02*
X4943Y2867D01*
X4882Y2880D02*
X4930D01*
X3260Y720D02*
Y770D01*
X3260Y770D01*
X2757Y4063D02*
X2780Y4040D01*
X2790D01*
X2840Y3990D01*
X2757Y4063D02*
Y4147D01*
X2770Y4160D01*
X2818D01*
X2860D01*
X2925Y4225D01*
X3002D01*
X2780Y3640D02*
X2830Y3690D01*
X2880D01*
X2150Y1120D02*
X2215D01*
X2150Y1102D02*
Y1120D01*
X2215Y1102D02*
Y1175D01*
X4185Y2995D02*
X4210Y3020D01*
X4105Y2995D02*
X4185D01*
X2250Y3390D02*
Y3480D01*
X3330Y3920D02*
X3710D01*
X3220Y4030D02*
X3330Y3920D01*
X3120Y4030D02*
X3220D01*
X3085Y4320D02*
X3130D01*
X3040D02*
X3085D01*
Y4225D02*
X3100Y4210D01*
X3085Y4225D02*
Y4320D01*
X2590Y925D02*
Y970D01*
Y925D02*
X2625Y890D01*
Y831D02*
Y890D01*
X3400Y1020D02*
X3410Y1030D01*
X3430D01*
X3450Y1050D01*
X3485D01*
X4440Y3060D02*
X4470Y3090D01*
X4315Y3060D02*
X4440D01*
X3710Y3920D02*
X3730Y3940D01*
X3780D01*
X3100Y4050D02*
X3120Y4030D01*
X2640Y4210D02*
X2700D01*
X2600Y4250D02*
X2640Y4210D01*
X3100Y4050D02*
Y4110D01*
Y4210D02*
X3200D01*
X2600Y4250D02*
Y4320D01*
X4290Y4490D02*
X4315Y4465D01*
X4388D01*
X4405Y335D02*
X4470D01*
X4698Y2815D02*
X4760D01*
X2569Y3479D02*
Y3481D01*
X2440Y3950D02*
X2450Y3940D01*
X2440Y3950D02*
Y3980D01*
X2405Y4015D02*
X2440Y3980D01*
X2405Y4015D02*
Y4049D01*
X2040Y3380D02*
Y3420D01*
Y3380D02*
X2050Y3370D01*
X2230D01*
X2250Y3390D01*
X2535Y3670D02*
X2565Y3640D01*
X2780D01*
X790Y1230D02*
X800Y1240D01*
X830D02*
X960Y1370D01*
X800Y1240D02*
X830D01*
X960Y1370D02*
X1090D01*
X1105Y1385D01*
Y1450D01*
Y1475D01*
X1110Y1480D01*
X1270D01*
X1543Y2383D02*
Y2425D01*
D187*
X4080Y4075D02*
X4195D01*
Y4005D02*
Y4075D01*
X1285Y175D02*
X1290Y170D01*
X1285Y175D02*
Y340D01*
X3715Y785D02*
X3930D01*
X3630Y760D02*
X3690D01*
X3570D02*
X3630D01*
X4470Y3270D02*
Y3420D01*
X3360Y3100D02*
Y3280D01*
X3520Y3440D01*
X3690Y760D02*
X3715Y785D01*
D188*
X1420Y3140D02*
X1420Y3140D01*
Y3180D01*
X1440Y3200D01*
X1520D01*
X1540Y3220D01*
Y3260D01*
X1560Y3280D01*
X1600D01*
X1700D01*
X4680Y4190D02*
Y4290D01*
X4850D01*
X4600Y3975D02*
X4675D01*
X4690Y3990D01*
Y4080D01*
X4680Y4090D02*
X4690Y4080D01*
X4680Y4090D02*
X4765D01*
X4785Y4110D01*
X4510Y3850D02*
X4620D01*
X4445Y3785D02*
X4510Y3850D01*
X4340Y3785D02*
X4445D01*
X1147Y4450D02*
X1250D01*
X1137Y4440D02*
X1147Y4450D01*
X4915Y4045D02*
Y4110D01*
X4620Y3850D02*
X4780Y4010D01*
X4880D01*
X4915Y4045D01*
D189*
X2060Y150D02*
Y210D01*
X2040Y230D02*
X2060Y210D01*
X2830Y392D02*
Y490D01*
X935Y1450D02*
X1000D01*
X860D02*
X935D01*
X815D02*
X860D01*
X805Y1440D02*
X815Y1450D01*
X2930Y3400D02*
X2945Y3415D01*
X3100D01*
X1115Y350D02*
X1190D01*
X1110Y170D02*
X1115Y175D01*
Y275D01*
Y350D01*
X1410Y350D02*
Y410D01*
X1520Y500D02*
X1580D01*
X1035Y4590D02*
Y4640D01*
Y4590D02*
X1059Y4567D01*
X1137D01*
X1000Y4675D02*
X1035Y4640D01*
X940Y4675D02*
X1000D01*
X940Y4115D02*
X1000D01*
X1035Y4080D01*
X1059Y4006D02*
X1137D01*
X1035Y4030D02*
X1059Y4006D01*
X1035Y4030D02*
Y4080D01*
X940Y3555D02*
X1000D01*
X1035Y3520D01*
X1059Y3447D02*
X1137D01*
X1035Y3470D02*
X1059Y3447D01*
X1035Y3470D02*
Y3520D01*
X1137Y4567D02*
X1138Y4567D01*
X1137Y4006D02*
X1138Y4008D01*
Y3447D02*
X1248D01*
X1137Y3447D02*
X1138Y3447D01*
X1248D02*
Y3510D01*
X1250Y3920D02*
Y3980D01*
X1223Y4006D02*
X1250Y3980D01*
X1137Y4006D02*
X1223D01*
X750Y160D02*
Y220D01*
X650Y160D02*
Y220D01*
X1250Y4610D02*
X1250Y4610D01*
Y4540D02*
Y4610D01*
X1137Y4567D02*
X1250D01*
X130Y930D02*
Y1120D01*
Y1300D01*
D193*
X1200Y630D02*
D03*
D194*
X170Y4120D02*
D03*
X170Y3920D02*
D03*
X170Y3720D02*
D03*
Y3520D02*
D03*
Y4320D02*
D03*
D195*
X1186Y2932D02*
D03*
Y2068D02*
D03*
D196*
X700Y2962D02*
D03*
D197*
X670Y2038D02*
D03*
D198*
X4925Y1002D02*
D03*
Y1198D02*
D03*
D199*
X4870Y750D02*
D03*
D200*
X1406Y1010D02*
D03*
X1914Y908D02*
D03*
Y1112D02*
D03*
X4914Y4810D02*
D03*
X4406Y4912D02*
D03*
Y4708D02*
D03*
X4790Y3614D02*
D03*
X4688Y3106D02*
D03*
X4892D02*
D03*
X3254Y3840D02*
D03*
X2746Y3942D02*
D03*
Y3738D02*
D03*
D201*
X80Y1510D02*
D03*
X100Y1690D02*
D03*
X270D02*
D03*
X630Y1230D02*
D03*
X4890Y4710D02*
D03*
X4870Y310D02*
D03*
X2060Y170D02*
D03*
X2065Y520D02*
D03*
X1890Y570D02*
D03*
X1990D02*
D03*
X2720Y390D02*
D03*
X4640Y2350D02*
D03*
X4870Y3810D02*
D03*
X4860Y1670D02*
D03*
X4870Y1070D02*
D03*
X4830Y1110D02*
D03*
X4870Y2750D02*
D03*
X4840Y450D02*
D03*
X4846Y588D02*
D03*
X3340Y970D02*
D03*
X3330Y1070D02*
D03*
X3340Y2040D02*
D03*
X3510Y800D02*
D03*
X4740Y4390D02*
D03*
X850Y1530D02*
D03*
X1000Y1450D02*
D03*
X860D02*
D03*
X2950Y3530D02*
D03*
X2880Y3690D02*
D03*
X2890Y3590D02*
D03*
X3900Y1013D02*
D03*
X4440Y390D02*
D03*
Y440D02*
D03*
X4280Y490D02*
D03*
Y300D02*
D03*
X2215Y1175D02*
D03*
X1533Y1073D02*
D03*
X3700Y2980D02*
D03*
X3800Y2740D02*
D03*
X4040Y3200D02*
D03*
X4000Y3240D02*
D03*
X4100Y3200D02*
D03*
X4090Y3350D02*
D03*
X4630Y3310D02*
D03*
X4580D02*
D03*
X4630Y3370D02*
D03*
X4580D02*
D03*
X4270Y4760D02*
D03*
X2440Y3550D02*
D03*
X2330Y2080D02*
D03*
X2240Y2330D02*
D03*
X3060Y3040D02*
D03*
X2730Y1110D02*
D03*
X2280Y820D02*
D03*
X2520Y870D02*
D03*
X2490Y910D02*
D03*
X2590Y1040D02*
D03*
X4540Y480D02*
D03*
X4110Y810D02*
D03*
X4110Y920D02*
D03*
X3160Y720D02*
D03*
X3400Y920D02*
D03*
Y970D02*
D03*
X3780Y910D02*
D03*
X3830Y1170D02*
D03*
Y1070D02*
D03*
X4650Y2240D02*
D03*
X4565Y1625D02*
D03*
X4000Y1410D02*
D03*
X4170Y1280D02*
D03*
X4150Y1630D02*
D03*
X4470Y3550D02*
D03*
X2390Y1750D02*
D03*
X790Y1040D02*
D03*
X890D02*
D03*
X1190Y350D02*
D03*
X1115Y275D02*
D03*
X3590Y4450D02*
D03*
Y4250D02*
D03*
Y4530D02*
D03*
Y4350D02*
D03*
Y4160D02*
D03*
X2190Y4000D02*
D03*
X1230Y3830D02*
D03*
X1200Y3220D02*
D03*
X1710Y3350D02*
D03*
X1280Y3590D02*
D03*
X2100Y4620D02*
D03*
X1860Y4560D02*
D03*
Y4860D02*
D03*
Y4800D02*
D03*
Y4740D02*
D03*
Y4680D02*
D03*
Y4620D02*
D03*
X2100Y4680D02*
D03*
Y4740D02*
D03*
Y4800D02*
D03*
Y4860D02*
D03*
X1860Y4150D02*
D03*
Y4450D02*
D03*
Y4390D02*
D03*
Y4330D02*
D03*
Y4270D02*
D03*
Y4210D02*
D03*
X2100D02*
D03*
Y4270D02*
D03*
Y4330D02*
D03*
Y4390D02*
D03*
Y4150D02*
D03*
Y3740D02*
D03*
Y4040D02*
D03*
Y3980D02*
D03*
Y3920D02*
D03*
Y3860D02*
D03*
Y3800D02*
D03*
X1860D02*
D03*
Y3860D02*
D03*
Y3920D02*
D03*
Y3980D02*
D03*
Y4040D02*
D03*
Y3740D02*
D03*
X2930Y4400D02*
D03*
X3170Y4510D02*
D03*
X3075Y4400D02*
D03*
X4320Y4760D02*
D03*
X4787Y4747D02*
D03*
X4600Y950D02*
D03*
X4330Y980D02*
D03*
X4600Y900D02*
D03*
X4280Y980D02*
D03*
X4270Y1100D02*
D03*
Y1050D02*
D03*
X4565Y1555D02*
D03*
X4790Y1030D02*
D03*
X4830Y990D02*
D03*
X4726Y3360D02*
D03*
X4760Y2815D02*
D03*
X1250Y4690D02*
D03*
X880Y4810D02*
D03*
Y4700D02*
D03*
X760D02*
D03*
Y4810D02*
D03*
X630Y4760D02*
D03*
X560D02*
D03*
Y4200D02*
D03*
X630D02*
D03*
X760Y4250D02*
D03*
Y4140D02*
D03*
X880D02*
D03*
Y4250D02*
D03*
X560Y3640D02*
D03*
X630D02*
D03*
X760Y3690D02*
D03*
Y3580D02*
D03*
X880D02*
D03*
Y3690D02*
D03*
X290Y3920D02*
D03*
X330Y3980D02*
D03*
Y4130D02*
D03*
Y4280D02*
D03*
Y4430D02*
D03*
Y4580D02*
D03*
X450D02*
D03*
Y4430D02*
D03*
Y4810D02*
D03*
X330Y4690D02*
D03*
X490Y4670D02*
D03*
X390Y4360D02*
D03*
Y4750D02*
D03*
X370Y3690D02*
D03*
X450Y3780D02*
D03*
Y3930D02*
D03*
Y4080D02*
D03*
Y4200D02*
D03*
X510Y4260D02*
D03*
Y4140D02*
D03*
X330Y3790D02*
D03*
X290Y3720D02*
D03*
X390Y3850D02*
D03*
X460Y3320D02*
D03*
X120D02*
D03*
X230D02*
D03*
X350D02*
D03*
X120Y3420D02*
D03*
X230D02*
D03*
X350Y3560D02*
D03*
Y3440D02*
D03*
X460D02*
D03*
Y3560D02*
D03*
X490Y3640D02*
D03*
X290Y3520D02*
D03*
X2530Y3440D02*
D03*
X2569Y3481D02*
D03*
X2220Y3770D02*
D03*
X2520Y3840D02*
D03*
X2310Y3550D02*
D03*
X2520Y3110D02*
D03*
X2580D02*
D03*
X2380Y2900D02*
D03*
X2630Y3990D02*
D03*
X2700Y4040D02*
D03*
Y4280D02*
D03*
Y4330D02*
D03*
X2873Y3776D02*
D03*
X4804Y750D02*
D03*
X3845Y3335D02*
D03*
X3790D02*
D03*
X3900D02*
D03*
X4260Y3590D02*
D03*
X4310Y3590D02*
D03*
X1080Y60D02*
D03*
X1140D02*
D03*
X930Y1210D02*
D03*
X1190Y1280D02*
D03*
X1290D02*
D03*
X630Y1110D02*
D03*
X1370Y1250D02*
D03*
X850Y1650D02*
D03*
X1270Y1480D02*
D03*
X1060Y2570D02*
D03*
X1110D02*
D03*
X1060Y2430D02*
D03*
X1110D02*
D03*
X2170Y1750D02*
D03*
X2230Y2090D02*
D03*
X2530Y1350D02*
D03*
X2480D02*
D03*
Y1300D02*
D03*
X2530D02*
D03*
X4300Y820D02*
D03*
X2650Y770D02*
D03*
X2750D02*
D03*
X2380Y4110D02*
D03*
X2260Y720D02*
D03*
X2210D02*
D03*
X2500Y500D02*
D03*
X1180Y1580D02*
D03*
X1900Y2110D02*
D03*
Y2050D02*
D03*
X1543Y2383D02*
D03*
X1630Y2390D02*
D03*
X2990Y1010D02*
D03*
X2250Y2660D02*
D03*
X1940Y2820D02*
D03*
X2330Y2570D02*
D03*
X1890Y2310D02*
D03*
X2250Y2610D02*
D03*
X4050Y1410D02*
D03*
X4090Y1580D02*
D03*
X4310Y1980D02*
D03*
X3880Y2190D02*
D03*
X2570Y1110D02*
D03*
X1250Y4450D02*
D03*
X1251Y4071D02*
D03*
X4280Y2220D02*
D03*
X500Y750D02*
D03*
X100D02*
D03*
X660Y570D02*
D03*
X560Y100D02*
D03*
X1430Y1120D02*
D03*
X1640Y560D02*
D03*
X1760D02*
D03*
X2173Y488D02*
D03*
X2040Y230D02*
D03*
X2380Y430D02*
D03*
X1570Y270D02*
D03*
X1740D02*
D03*
X1787Y1073D02*
D03*
X2160Y1540D02*
D03*
X2680Y1040D02*
D03*
X1770Y1660D02*
D03*
X1830Y1580D02*
D03*
X1770Y1490D02*
D03*
X1670Y1580D02*
D03*
X1990Y1510D02*
D03*
X880Y1840D02*
D03*
X1540Y2250D02*
D03*
X1510Y1980D02*
D03*
X1520Y2610D02*
D03*
Y2790D02*
D03*
X2140Y2710D02*
D03*
X3360Y3840D02*
D03*
X3530D02*
D03*
X3690D02*
D03*
X3340Y3510D02*
D03*
X3780Y3540D02*
D03*
X3960Y4920D02*
D03*
X4210D02*
D03*
X4310D02*
D03*
X2820Y4300D02*
D03*
X2830Y4640D02*
D03*
X4160Y3660D02*
D03*
X4220Y3440D02*
D03*
X4370Y3499D02*
D03*
X4620Y3530D02*
D03*
X3940D02*
D03*
Y3410D02*
D03*
X3810Y3240D02*
D03*
X3880Y3160D02*
D03*
X4790Y3940D02*
D03*
X4760Y4220D02*
D03*
Y4600D02*
D03*
X4610Y4670D02*
D03*
X4460Y4820D02*
D03*
X4450Y3880D02*
D03*
X4490Y2870D02*
D03*
X4390Y2770D02*
D03*
X4320Y2600D02*
D03*
X3110Y3040D02*
D03*
X2370Y2530D02*
D03*
X4220Y2220D02*
D03*
X4360Y1850D02*
D03*
X4320Y1650D02*
D03*
X4480Y1640D02*
D03*
X4680Y930D02*
D03*
X4660Y80D02*
D03*
X4440D02*
D03*
X4560D02*
D03*
X3740Y870D02*
D03*
X3990Y590D02*
D03*
X3830D02*
D03*
X3670D02*
D03*
X3510D02*
D03*
X3350D02*
D03*
X3190D02*
D03*
X3030D02*
D03*
X2830Y490D02*
D03*
X2750Y1610D02*
D03*
Y2000D02*
D03*
X3170Y1670D02*
D03*
X3600Y1950D02*
D03*
X3460Y1740D02*
D03*
X3540Y2210D02*
D03*
X3420Y2630D02*
D03*
X3240Y2670D02*
D03*
X2920Y2600D02*
D03*
X2860Y2450D02*
D03*
X2990Y2120D02*
D03*
X3270Y2050D02*
D03*
X3350Y2410D02*
D03*
X2900Y1780D02*
D03*
X170Y340D02*
D03*
X110D02*
D03*
X90Y4220D02*
D03*
Y4430D02*
D03*
X110Y4610D02*
D03*
X190Y4770D02*
D03*
X337Y4875D02*
D03*
X500Y4910D02*
D03*
X660D02*
D03*
X800D02*
D03*
X230Y4610D02*
D03*
X3330Y3380D02*
D03*
X1200Y630D02*
D03*
X1150Y580D02*
D03*
X1250D02*
D03*
X1150Y680D02*
D03*
X1250D02*
D03*
X4210Y3100D02*
D03*
X3600Y2470D02*
D03*
X3740Y2100D02*
D03*
X3820Y2250D02*
D03*
X4100Y2530D02*
D03*
X1570Y350D02*
D03*
X560Y960D02*
D03*
X100Y1300D02*
D03*
X420Y1220D02*
D03*
X440Y1370D02*
D03*
X270Y1410D02*
D03*
X100Y1120D02*
D03*
X430Y1080D02*
D03*
D202*
X4640Y260D02*
D03*
X4690Y310D02*
D03*
X4590D02*
D03*
Y210D02*
D03*
X4690D02*
D03*
X4760Y120D02*
D03*
X410Y100D02*
D03*
X160Y270D02*
D03*
X2840Y3990D02*
D03*
X2880Y3520D02*
D03*
X1880Y3130D02*
D03*
X3110Y3320D02*
D03*
X3050D02*
D03*
X4230Y730D02*
D03*
X4590Y3030D02*
D03*
Y3090D02*
D03*
Y3150D02*
D03*
X1980Y1250D02*
D03*
Y1310D02*
D03*
Y1370D02*
D03*
X1920D02*
D03*
Y1310D02*
D03*
Y1250D02*
D03*
X2740Y2100D02*
D03*
X2680D02*
D03*
X3550Y3060D02*
D03*
X3460D02*
D03*
X3920Y2950D02*
D03*
X2570Y3940D02*
D03*
X1370Y130D02*
D03*
Y190D02*
D03*
X1220Y130D02*
D03*
X1370Y250D02*
D03*
X1220Y190D02*
D03*
Y250D02*
D03*
X1610Y4790D02*
D03*
X720Y3130D02*
D03*
X780D02*
D03*
X3380Y4360D02*
D03*
X3320D02*
D03*
X3380Y4300D02*
D03*
X3320D02*
D03*
X1780Y2710D02*
D03*
X1070Y1820D02*
D03*
X1870Y1280D02*
D03*
X3450Y3250D02*
D03*
Y3190D02*
D03*
X3230Y3060D02*
D03*
X2650Y970D02*
D03*
X3470Y2320D02*
D03*
X3650Y990D02*
D03*
X560Y500D02*
D03*
X1410Y350D02*
D03*
Y410D02*
D03*
X1580Y500D02*
D03*
X1520D02*
D03*
X3160Y3500D02*
D03*
X3100D02*
D03*
X3660Y4020D02*
D03*
X4120Y4210D02*
D03*
X4050D02*
D03*
X4100Y4300D02*
D03*
X3980Y4350D02*
D03*
X3760D02*
D03*
X3750Y4250D02*
D03*
X3860Y4350D02*
D03*
X3980Y4250D02*
D03*
X4190Y4210D02*
D03*
X3940Y4120D02*
D03*
Y4060D02*
D03*
Y4000D02*
D03*
X3780Y4120D02*
D03*
Y4060D02*
D03*
Y4000D02*
D03*
Y3940D02*
D03*
X3940D02*
D03*
X3380Y4120D02*
D03*
X3320D02*
D03*
X3380Y4180D02*
D03*
X3320D02*
D03*
X3380Y4240D02*
D03*
X3320D02*
D03*
X780Y3270D02*
D03*
Y3200D02*
D03*
X720D02*
D03*
X660D02*
D03*
Y3130D02*
D03*
X600D02*
D03*
Y3200D02*
D03*
X3590Y4830D02*
D03*
Y4770D02*
D03*
Y4710D02*
D03*
X3810Y4660D02*
D03*
X3870D02*
D03*
X3810Y4600D02*
D03*
X3870D02*
D03*
Y4540D02*
D03*
X3810D02*
D03*
Y4480D02*
D03*
X3870D02*
D03*
X3960D02*
D03*
Y4540D02*
D03*
X4110Y4590D02*
D03*
Y4650D02*
D03*
X4020Y4480D02*
D03*
X4050Y4590D02*
D03*
Y4650D02*
D03*
X3990D02*
D03*
X4020Y4540D02*
D03*
X3990Y4590D02*
D03*
X4030Y790D02*
D03*
Y910D02*
D03*
Y850D02*
D03*
X1248Y3447D02*
D03*
Y3510D02*
D03*
X560Y4370D02*
D03*
X800D02*
D03*
X740D02*
D03*
X680D02*
D03*
X620D02*
D03*
X1250Y3920D02*
D03*
Y3980D02*
D03*
X560Y4500D02*
D03*
X620D02*
D03*
X560Y3940D02*
D03*
X620D02*
D03*
X690Y3810D02*
D03*
X750D02*
D03*
X810D02*
D03*
X870D02*
D03*
X930D02*
D03*
X680Y4500D02*
D03*
X860Y4370D02*
D03*
X680Y3940D02*
D03*
X770D02*
D03*
X3920Y3780D02*
D03*
Y3720D02*
D03*
X4195Y4075D02*
D03*
Y4005D02*
D03*
X3630Y3540D02*
D03*
Y3600D02*
D03*
X1040Y1040D02*
D03*
X1100D02*
D03*
X750Y220D02*
D03*
Y160D02*
D03*
X650D02*
D03*
Y220D02*
D03*
X820Y710D02*
D03*
Y650D02*
D03*
X880D02*
D03*
Y590D02*
D03*
X820D02*
D03*
Y770D02*
D03*
X960Y800D02*
D03*
Y740D02*
D03*
X1190Y1880D02*
D03*
Y1940D02*
D03*
Y1820D02*
D03*
X1130D02*
D03*
Y1880D02*
D03*
Y1940D02*
D03*
X1070Y1980D02*
D03*
X1004Y2685D02*
D03*
Y2625D02*
D03*
Y2315D02*
D03*
Y2375D02*
D03*
X945Y2625D02*
D03*
Y2375D02*
D03*
X1360Y2320D02*
D03*
Y2260D02*
D03*
Y2740D02*
D03*
Y2680D02*
D03*
X1180Y2680D02*
D03*
Y2320D02*
D03*
X3690Y760D02*
D03*
X3630D02*
D03*
X3570D02*
D03*
X2130Y1960D02*
D03*
Y1900D02*
D03*
X1890Y1890D02*
D03*
X1830Y1930D02*
D03*
X1720Y1860D02*
D03*
X1790Y1880D02*
D03*
X1890Y1960D02*
D03*
X2630Y1100D02*
D03*
X2200Y4110D02*
D03*
X3230Y1230D02*
D03*
X2300Y2810D02*
D03*
X3790Y1890D02*
D03*
X3850D02*
D03*
X3700Y2450D02*
D03*
Y2390D02*
D03*
X1250Y4610D02*
D03*
X1250Y4540D02*
D03*
X1710Y4030D02*
D03*
X1650D02*
D03*
X1710Y4090D02*
D03*
Y4150D02*
D03*
X1650Y4090D02*
D03*
Y4150D02*
D03*
Y4210D02*
D03*
X1590D02*
D03*
Y4150D02*
D03*
Y4270D02*
D03*
X1710Y3970D02*
D03*
X600Y2840D02*
D03*
Y2590D02*
D03*
Y2340D02*
D03*
Y2180D02*
D03*
X590Y1910D02*
D03*
X2790Y100D02*
D03*
Y250D02*
D03*
X2620Y90D02*
D03*
X2570Y4910D02*
D03*
X3130D02*
D03*
X2850D02*
D03*
X2280D02*
D03*
X2500Y4420D02*
D03*
X2280Y4630D02*
D03*
X3340Y3660D02*
D03*
X3590Y3780D02*
D03*
X4080Y3590D02*
D03*
X4490Y3970D02*
D03*
Y4090D02*
D03*
X4860Y4200D02*
D03*
X4233Y2130D02*
D03*
X4495Y1280D02*
D03*
Y1170D02*
D03*
X4605Y1280D02*
D03*
Y1170D02*
D03*
X4240Y4440D02*
D03*
X4190Y4490D02*
D03*
Y4390D02*
D03*
X4290Y4490D02*
D03*
Y4390D02*
D03*
X4210Y3020D02*
D03*
D203*
X1530Y1629D02*
D03*
Y1531D02*
D03*
D204*
Y1580D02*
D03*
D205*
X460Y996D02*
D03*
Y864D02*
D03*
D206*
X4490Y185D02*
D03*
Y235D02*
D03*
Y285D02*
D03*
Y335D02*
D03*
X4790Y185D02*
D03*
Y235D02*
D03*
Y285D02*
D03*
Y335D02*
D03*
D207*
X2775Y709D02*
D03*
X2725D02*
D03*
X2675D02*
D03*
X2625D02*
D03*
Y831D02*
D03*
X2675D02*
D03*
X2725D02*
D03*
X2775D02*
D03*
X2255Y4171D02*
D03*
X2305D02*
D03*
X2355D02*
D03*
X2405D02*
D03*
Y4049D02*
D03*
X2355D02*
D03*
X2305D02*
D03*
X2255D02*
D03*
D208*
X2700Y770D02*
D03*
X2330Y4110D02*
D03*
D209*
X4745Y666D02*
D03*
X4663D02*
D03*
Y834D02*
D03*
X4745D02*
D03*
D210*
X4805Y750D02*
D03*
X1940Y280D02*
D03*
X1885Y326D02*
D03*
Y235D02*
D03*
X1995Y326D02*
D03*
Y235D02*
D03*
D211*
X4550Y1225D02*
D03*
D212*
X4742Y1100D02*
D03*
Y1150D02*
D03*
Y1200D02*
D03*
Y1250D02*
D03*
Y1300D02*
D03*
Y1350D02*
D03*
X4358D02*
D03*
Y1300D02*
D03*
Y1250D02*
D03*
Y1200D02*
D03*
Y1150D02*
D03*
Y1100D02*
D03*
D213*
X4675Y1418D02*
D03*
X4625D02*
D03*
X4575D02*
D03*
X4525D02*
D03*
X4475D02*
D03*
X4425D02*
D03*
Y1032D02*
D03*
X4475D02*
D03*
X4525D02*
D03*
X4575D02*
D03*
X4625D02*
D03*
X4675D02*
D03*
D214*
X4821Y2650D02*
D03*
X4694D02*
D03*
X4567D02*
D03*
X4440D02*
D03*
X4821Y1850D02*
D03*
X4694D02*
D03*
X4567D02*
D03*
X4440D02*
D03*
D215*
X4882Y2945D02*
D03*
Y2880D02*
D03*
Y2815D02*
D03*
X4698Y2945D02*
D03*
Y2880D02*
D03*
Y2815D02*
D03*
X2818Y4095D02*
D03*
Y4160D02*
D03*
Y4225D02*
D03*
X3002Y4095D02*
D03*
Y4160D02*
D03*
Y4225D02*
D03*
D216*
X3575Y1071D02*
D03*
X3485Y1050D02*
D03*
D217*
X3530Y1140D02*
D03*
Y980D02*
D03*
D218*
X165Y670D02*
D03*
Y620D02*
D03*
Y570D02*
D03*
X455D02*
D03*
Y620D02*
D03*
Y670D02*
D03*
D219*
X310Y620D02*
D03*
D220*
X310Y280D02*
D03*
X890D02*
D03*
D221*
X1339Y705D02*
D03*
Y655D02*
D03*
Y605D02*
D03*
Y555D02*
D03*
X1061D02*
D03*
Y605D02*
D03*
Y655D02*
D03*
Y705D02*
D03*
D222*
X1275Y491D02*
D03*
X1225D02*
D03*
X1175D02*
D03*
X1125D02*
D03*
Y768D02*
D03*
X1175D02*
D03*
X1225D02*
D03*
X1275D02*
D03*
D223*
X805Y1440D02*
D03*
X675D02*
D03*
D224*
X1640Y710D02*
D03*
Y130D02*
D03*
D225*
X1533Y1073D02*
D03*
Y947D02*
D03*
X1660Y1073D02*
D03*
Y947D02*
D03*
X1787Y1073D02*
D03*
Y947D02*
D03*
X4787Y4747D02*
D03*
Y4874D02*
D03*
X4660Y4747D02*
D03*
Y4874D02*
D03*
X4533Y4747D02*
D03*
Y4874D02*
D03*
X4853Y3487D02*
D03*
X4726D02*
D03*
X4853Y3360D02*
D03*
X4726D02*
D03*
X4853Y3233D02*
D03*
X4726D02*
D03*
X3127Y3776D02*
D03*
Y3903D02*
D03*
X3000Y3776D02*
D03*
Y3903D02*
D03*
X2873Y3776D02*
D03*
Y3903D02*
D03*
D226*
X2173Y390D02*
D03*
X2827Y4510D02*
D03*
X2173D02*
D03*
D227*
X2812Y390D02*
D03*
D228*
X2400Y580D02*
D03*
X2450D02*
D03*
X2500D02*
D03*
X2550D02*
D03*
X2600D02*
D03*
Y4320D02*
D03*
X2550D02*
D03*
X2500D02*
D03*
X2450D02*
D03*
X2400D02*
D03*
D229*
X753Y2430D02*
D03*
D230*
X657D02*
D03*
D231*
X1413Y2425D02*
D03*
Y2475D02*
D03*
Y2525D02*
D03*
X1543Y2425D02*
D03*
Y2475D02*
D03*
Y2525D02*
D03*
D232*
X1690Y2435D02*
D03*
X1730D02*
D03*
Y2565D02*
D03*
X1690D02*
D03*
D233*
X1630Y2560D02*
D03*
Y2520D02*
D03*
Y2480D02*
D03*
Y2440D02*
D03*
X1790D02*
D03*
Y2480D02*
D03*
Y2520D02*
D03*
Y2560D02*
D03*
D234*
X2080Y2560D02*
D03*
X2040D02*
D03*
X2000D02*
D03*
X1960D02*
D03*
Y2320D02*
D03*
X2000D02*
D03*
X2040D02*
D03*
X2080D02*
D03*
D235*
X1940Y2500D02*
D03*
Y2460D02*
D03*
Y2420D02*
D03*
Y2380D02*
D03*
X2100D02*
D03*
Y2420D02*
D03*
Y2460D02*
D03*
D236*
X2095Y2500D02*
D03*
D237*
X2550Y3345D02*
D03*
Y3015D02*
D03*
D238*
X1137Y3319D02*
D03*
Y3447D02*
D03*
Y3574D02*
D03*
Y3701D02*
D03*
Y4260D02*
D03*
Y4133D02*
D03*
Y4006D02*
D03*
Y3879D02*
D03*
Y4440D02*
D03*
Y4567D02*
D03*
Y4694D02*
D03*
Y4821D02*
D03*
D239*
X1980Y3890D02*
D03*
X1400D02*
D03*
X1980Y4300D02*
D03*
X1400D02*
D03*
X1980Y4710D02*
D03*
D240*
X2124Y3430D02*
D03*
X2256D02*
D03*
D241*
X2938Y3340D02*
D03*
X2702D02*
D03*
D242*
X3260Y4800D02*
D03*
X3700D02*
D03*
D243*
X4092Y4515D02*
D03*
Y4465D02*
D03*
Y4415D02*
D03*
Y4365D02*
D03*
X4388D02*
D03*
Y4415D02*
D03*
Y4465D02*
D03*
Y4515D02*
D03*
D244*
X4165Y4292D02*
D03*
X4215D02*
D03*
X4265D02*
D03*
X4315D02*
D03*
Y4588D02*
D03*
X4265D02*
D03*
X4215D02*
D03*
X4165D02*
D03*
D245*
X3990Y1460D02*
D03*
Y1500D02*
D03*
Y1540D02*
D03*
Y1580D02*
D03*
Y1620D02*
D03*
Y1660D02*
D03*
Y1700D02*
D03*
Y1740D02*
D03*
Y1780D02*
D03*
Y1820D02*
D03*
Y1860D02*
D03*
Y1900D02*
D03*
Y1940D02*
D03*
Y1980D02*
D03*
Y2020D02*
D03*
Y2060D02*
D03*
Y2100D02*
D03*
Y2140D02*
D03*
Y2180D02*
D03*
Y2220D02*
D03*
Y2260D02*
D03*
Y2300D02*
D03*
Y2340D02*
D03*
Y2380D02*
D03*
Y2420D02*
D03*
Y2460D02*
D03*
Y2500D02*
D03*
Y2540D02*
D03*
Y2580D02*
D03*
Y2620D02*
D03*
Y2660D02*
D03*
Y2700D02*
D03*
X2490D02*
D03*
Y2660D02*
D03*
Y2620D02*
D03*
Y2580D02*
D03*
Y2540D02*
D03*
Y2500D02*
D03*
Y2460D02*
D03*
Y2420D02*
D03*
Y2380D02*
D03*
Y2340D02*
D03*
Y2300D02*
D03*
Y2260D02*
D03*
Y2220D02*
D03*
Y2180D02*
D03*
Y2140D02*
D03*
Y2100D02*
D03*
Y2060D02*
D03*
Y2020D02*
D03*
Y1980D02*
D03*
Y1940D02*
D03*
Y1900D02*
D03*
Y1860D02*
D03*
Y1820D02*
D03*
Y1780D02*
D03*
Y1740D02*
D03*
Y1700D02*
D03*
Y1660D02*
D03*
Y1620D02*
D03*
Y1580D02*
D03*
Y1540D02*
D03*
Y1500D02*
D03*
Y1460D02*
D03*
D246*
X3860Y2830D02*
D03*
X3820D02*
D03*
X3780D02*
D03*
X3740D02*
D03*
X3700D02*
D03*
X3660D02*
D03*
X3620D02*
D03*
X3580D02*
D03*
X3540D02*
D03*
X3500D02*
D03*
X3460D02*
D03*
X3420D02*
D03*
X3380D02*
D03*
X3340D02*
D03*
X3300D02*
D03*
X3260D02*
D03*
X3220D02*
D03*
X3180D02*
D03*
X3140D02*
D03*
X3100D02*
D03*
X3060D02*
D03*
X3020D02*
D03*
X2980D02*
D03*
X2940D02*
D03*
X2900D02*
D03*
X2860D02*
D03*
X2820D02*
D03*
X2780D02*
D03*
X2740D02*
D03*
X2700D02*
D03*
X2660D02*
D03*
X2620D02*
D03*
Y1330D02*
D03*
X2660D02*
D03*
X2700D02*
D03*
X2740D02*
D03*
X2780D02*
D03*
X2820D02*
D03*
X2860D02*
D03*
X2900D02*
D03*
X2940D02*
D03*
X2980D02*
D03*
X3020D02*
D03*
X3060D02*
D03*
X3100D02*
D03*
X3140D02*
D03*
X3180D02*
D03*
X3220D02*
D03*
X3260D02*
D03*
X3300D02*
D03*
X3340D02*
D03*
X3380D02*
D03*
X3420D02*
D03*
X3460D02*
D03*
X3500D02*
D03*
X3540D02*
D03*
X3580D02*
D03*
X3620D02*
D03*
X3660D02*
D03*
X3700D02*
D03*
X3740D02*
D03*
X3780D02*
D03*
X3820D02*
D03*
X3860D02*
D03*
D247*
X3360Y3100D02*
D03*
X3680D02*
D03*
D248*
X3845Y3650D02*
D03*
X3715D02*
D03*
Y3430D02*
D03*
X3780D02*
D03*
X3845D02*
D03*
D249*
X4470Y3090D02*
D03*
Y3270D02*
D03*
D250*
X4080Y4075D02*
D03*
Y3905D02*
D03*
D251*
X3520Y3572D02*
D03*
D252*
Y3227D02*
D03*
D253*
Y3440D02*
D03*
D254*
X3106Y4460D02*
D03*
Y4510D02*
D03*
Y4560D02*
D03*
X3234D02*
D03*
Y4510D02*
D03*
Y4460D02*
D03*
D255*
X1400Y4710D02*
D03*
D256*
X3348Y1128D02*
Y1158D01*
X3330Y1110D02*
X3348Y1128D01*
X3330Y1070D02*
Y1110D01*
X3348Y1158D02*
X3420Y1230D01*
X3290Y1070D02*
X3330D01*
X3330Y1070D01*
X3330Y1070D02*
X3330Y1070D01*
X3750Y2940D02*
Y2980D01*
X3780Y2760D02*
X3800Y2740D01*
X3780Y2760D02*
Y2830D01*
X3800Y2740D02*
Y2740D01*
Y2740D02*
X3810Y2730D01*
X3810Y2730D01*
X3850Y2940D02*
Y2980D01*
X2370Y2140D02*
X2400Y2110D01*
X2330Y2140D02*
X2370D01*
X2400Y2050D02*
Y2110D01*
X3080Y2920D02*
X3120D01*
X3060Y2940D02*
X3080Y2920D01*
X3060Y2940D02*
Y2980D01*
X3150Y2940D02*
Y2980D01*
X2730Y1170D02*
Y1220D01*
X2700Y1250D02*
X2730Y1220D01*
X2700Y1250D02*
Y1330D01*
X4110Y2110D02*
X4150D01*
X4080Y2140D02*
X4110Y2110D01*
X4080Y2180D02*
X4100Y2200D01*
X4150D01*
X3990Y1500D02*
X4060D01*
X4100Y1480D02*
X4150D01*
X4080Y1460D02*
X4100Y1480D01*
X3990Y1460D02*
X4080D01*
X2363Y2040D02*
X2423Y1980D01*
X2330Y2040D02*
X2363D01*
X2390Y1750D02*
Y1790D01*
X2420Y1820D01*
X2490D01*
X2410Y1880D02*
X2430Y1900D01*
X2490D01*
X2410Y1880D02*
X2430Y1860D01*
X2490D01*
X2330Y1940D02*
X2330Y1940D01*
X2490D01*
X2423Y1980D02*
X2490D01*
X2430Y2020D02*
X2490D01*
X2400Y2050D02*
X2430Y2020D01*
X4605Y1170D02*
X4675Y1100D01*
X4550Y1225D02*
X4605Y1170D01*
X4675Y1100D02*
X4742D01*
X3990Y2140D02*
X4080D01*
X3990Y2180D02*
X4080D01*
X3780Y2830D02*
Y2910D01*
X3750Y2940D02*
X3780Y2910D01*
X3820Y2830D02*
Y2910D01*
X3850Y2940D01*
X3180Y2830D02*
Y2910D01*
X3150Y2940D02*
X3180Y2910D01*
X3140Y2830D02*
Y2900D01*
X3120Y2920D02*
X3140Y2900D01*
X2410Y2700D02*
X2490D01*
X2380Y2730D02*
X2410Y2700D01*
X2330Y2730D02*
X2380D01*
X2630Y1170D02*
Y1220D01*
X2660Y1250D01*
Y1330D01*
X3290Y1170D02*
X3304Y1184D01*
X3420Y1230D02*
Y1330D01*
X3380Y1237D02*
Y1330D01*
X3304Y1184D02*
X3326D01*
X3380Y1237D01*
X2385Y2660D02*
X2490D01*
X2366Y2640D02*
X2385Y2660D01*
X2340Y2640D02*
X2366D01*
X2330Y2630D02*
X2340Y2640D01*
X4090Y1530D02*
Y1580D01*
X4060Y1500D02*
X4090Y1530D01*
D257*
X3110Y3270D02*
Y3320D01*
X3050Y3260D02*
Y3320D01*
D258*
X2420Y820D02*
Y1000D01*
X2460Y1040D02*
X2590D01*
X2420Y1000D02*
X2460Y1040D01*
X2500Y4000D02*
Y4060D01*
D259*
X4640Y260D02*
D03*
D260*
X2700Y770D02*
D03*
X2330Y4110D02*
D03*
D261*
X1940Y280D02*
D03*
D262*
X4240Y4440D02*
D03*
D263*
X4210Y3060D02*
D03*
M02*
