G04*
G04 #@! TF.GenerationSoftware,Altium Limited,Altium Designer,20.0.13 (296)*
G04*
G04 Layer_Physical_Order=4*
G04 Layer_Color=6736896*
%FSLAX42Y42*%
%MOMM*%
G71*
G01*
G75*
%ADD12C,0.15*%
%ADD99C,0.30*%
%ADD101C,0.45*%
%ADD184C,0.40*%
%ADD186C,0.25*%
%ADD187C,0.60*%
%ADD189C,0.50*%
%ADD194C,1.50*%
%ADD195O,2.10X1.10*%
%ADD196O,3.60X1.10*%
%ADD197O,3.00X1.20*%
%ADD198C,0.90*%
%ADD199C,0.35*%
%ADD200C,0.99*%
%ADD201C,0.50*%
%ADD202C,0.60*%
G36*
X4420Y4210D02*
X4420Y3700D01*
X4380Y3660D01*
X3956Y3660D01*
X3950Y3680D01*
X3956Y3684D01*
X3967Y3700D01*
X3971Y3720D01*
X3967Y3740D01*
X3960Y3750D01*
X3967Y3760D01*
X3971Y3780D01*
X3967Y3800D01*
X3956Y3816D01*
X3940Y3827D01*
X3920Y3831D01*
X3900Y3827D01*
X3884Y3816D01*
X3873Y3800D01*
X3869Y3780D01*
X3873Y3760D01*
X3880Y3750D01*
X3873Y3740D01*
X3869Y3720D01*
X3873Y3700D01*
X3884Y3684D01*
X3890Y3680D01*
X3884Y3660D01*
X3600D01*
X3130Y3190D01*
X2837Y3190D01*
X2837Y3190D01*
X2820Y3193D01*
X2803Y3190D01*
X2803Y3190D01*
X2358Y3190D01*
X2357Y3191D01*
X2340Y3194D01*
X2324Y3191D01*
X2323Y3190D01*
X2170Y3190D01*
X1736Y2756D01*
X1640D01*
X1622Y2752D01*
X1608Y2742D01*
X1568Y2702D01*
X1558Y2688D01*
X1554Y2670D01*
Y2609D01*
X1558Y2592D01*
X1568Y2577D01*
X1580Y2564D01*
X1580Y2372D01*
X1570Y2363D01*
X1553Y2360D01*
X1539Y2351D01*
X1530Y2337D01*
X1527Y2320D01*
X1530Y2303D01*
X1539Y2289D01*
X1553Y2280D01*
X1570Y2277D01*
X1577Y2258D01*
X1580Y2243D01*
X1580Y2243D01*
Y2222D01*
X1570Y2213D01*
X1553Y2210D01*
X1539Y2201D01*
X1530Y2187D01*
X1527Y2170D01*
X1530Y2153D01*
X1538Y2142D01*
X1539Y2139D01*
X1539Y2120D01*
X1538Y2118D01*
X1530Y2106D01*
X1527Y2090D01*
X1530Y2073D01*
X1539Y2059D01*
X1553Y2050D01*
X1570Y2046D01*
X1580Y2038D01*
X1580Y1947D01*
X1580Y1947D01*
X1577Y1930D01*
X1580Y1913D01*
X1580Y1913D01*
Y1900D01*
X2014Y1466D01*
Y1217D01*
X1994Y1203D01*
X1990Y1203D01*
X1973Y1200D01*
X1959Y1191D01*
X1950Y1177D01*
X1932Y1179D01*
X1914Y1182D01*
X1896Y1179D01*
X1879Y1172D01*
X1864Y1161D01*
X1853Y1147D01*
X1846Y1130D01*
X1844Y1112D01*
X1845Y1104D01*
X1826Y1097D01*
X1819Y1106D01*
X1805Y1116D01*
X1787Y1119D01*
X1769Y1116D01*
X1755Y1106D01*
X1745Y1091D01*
X1741Y1073D01*
X1738Y1070D01*
X1700D01*
X1700Y1070D01*
Y1070D01*
X1686Y1082D01*
X1665Y1102D01*
X1652Y1111D01*
X1636Y1114D01*
X1636Y1114D01*
X1553D01*
X1551Y1116D01*
X1533Y1119D01*
X1515Y1116D01*
X1501Y1106D01*
X1491Y1091D01*
X1487Y1073D01*
X1491Y1056D01*
X1501Y1041D01*
X1515Y1031D01*
X1528Y1029D01*
X1540Y1011D01*
X1540Y1010D01*
X1537Y994D01*
X1540Y977D01*
X1549Y963D01*
X1563Y953D01*
X1580Y950D01*
X1597Y953D01*
X1611Y963D01*
X1620Y977D01*
X1623Y994D01*
X1622Y1002D01*
X1640Y1012D01*
X1679Y973D01*
Y429D01*
X1667Y423D01*
X1659Y422D01*
X1647Y430D01*
X1630Y433D01*
X1613Y430D01*
X1599Y421D01*
X1590Y407D01*
X1587Y392D01*
X1570Y396D01*
X1552Y392D01*
X1538Y382D01*
X1528Y368D01*
X1524Y350D01*
X1528Y332D01*
X1538Y318D01*
X1552Y308D01*
X1569Y304D01*
X1677Y196D01*
X1688Y189D01*
X1700Y187D01*
Y100D01*
X1650Y50D01*
X500Y50D01*
X470Y50D01*
X460Y51D01*
X452Y73D01*
X457Y80D01*
X461Y100D01*
X457Y120D01*
X446Y136D01*
X430Y147D01*
X410Y151D01*
X390Y147D01*
X374Y136D01*
X363Y120D01*
X359Y100D01*
X361Y92D01*
X343Y78D01*
X301Y96D01*
X249Y125D01*
X203Y161D01*
X164Y199D01*
X165Y210D01*
X172Y221D01*
X180Y223D01*
X196Y234D01*
X207Y250D01*
X211Y270D01*
X207Y290D01*
X201Y299D01*
X202Y308D01*
X212Y322D01*
X216Y340D01*
X212Y358D01*
X202Y372D01*
X188Y382D01*
X170Y386D01*
X152Y382D01*
X140Y374D01*
X128Y382D01*
X110Y386D01*
X92Y382D01*
X89Y380D01*
X70Y387D01*
X66Y402D01*
X80Y417D01*
X80Y417D01*
X97Y420D01*
X111Y429D01*
X120Y443D01*
X123Y460D01*
X120Y477D01*
X111Y491D01*
X97Y500D01*
X80Y503D01*
X70Y501D01*
X53Y511D01*
X50Y515D01*
Y1078D01*
X60Y1083D01*
X70Y1086D01*
X82Y1078D01*
X100Y1074D01*
X118Y1078D01*
X132Y1088D01*
X142Y1102D01*
X146Y1120D01*
X142Y1138D01*
X132Y1152D01*
X118Y1162D01*
X100Y1166D01*
X82Y1162D01*
X70Y1154D01*
X60Y1157D01*
X50Y1162D01*
Y1258D01*
X60Y1263D01*
X70Y1266D01*
X82Y1258D01*
X100Y1254D01*
X118Y1258D01*
X132Y1268D01*
X142Y1282D01*
X146Y1300D01*
X142Y1318D01*
X132Y1332D01*
X118Y1342D01*
X100Y1346D01*
X82Y1342D01*
X70Y1334D01*
X60Y1337D01*
X50Y1342D01*
Y1454D01*
X70Y1466D01*
X80Y1464D01*
X98Y1468D01*
X112Y1478D01*
X122Y1492D01*
X126Y1510D01*
X122Y1528D01*
X112Y1542D01*
X98Y1552D01*
X80Y1556D01*
X70Y1554D01*
X50Y1566D01*
Y1648D01*
X60Y1653D01*
X70Y1656D01*
X82Y1648D01*
X100Y1644D01*
X118Y1648D01*
X132Y1658D01*
X142Y1672D01*
X146Y1690D01*
X144Y1700D01*
X156Y1720D01*
X214D01*
X226Y1700D01*
X224Y1690D01*
X228Y1672D01*
X238Y1658D01*
X252Y1648D01*
X270Y1644D01*
X288Y1648D01*
X302Y1658D01*
X312Y1672D01*
X316Y1690D01*
X314Y1700D01*
X326Y1720D01*
X391Y1720D01*
X410Y1720D01*
X410Y1720D01*
X425Y1721D01*
X429Y1722D01*
X454Y1726D01*
X481Y1738D01*
X505Y1754D01*
X526Y1775D01*
X542Y1799D01*
X554Y1826D01*
X558Y1847D01*
X560Y1851D01*
X573Y1859D01*
X580Y1861D01*
X590Y1859D01*
X610Y1863D01*
X626Y1874D01*
X637Y1890D01*
X641Y1910D01*
X637Y1930D01*
X632Y1937D01*
X642Y1957D01*
X760D01*
X781Y1960D01*
X800Y1968D01*
X817Y1981D01*
X830Y1998D01*
X838Y2017D01*
X841Y2038D01*
X838Y2059D01*
X830Y2078D01*
X817Y2095D01*
X800Y2108D01*
X781Y2116D01*
X760Y2119D01*
X634D01*
X628Y2139D01*
X636Y2144D01*
X647Y2160D01*
X651Y2180D01*
X647Y2200D01*
X636Y2216D01*
X620Y2227D01*
X600Y2231D01*
X580Y2227D01*
X580Y2227D01*
X560Y2237D01*
Y2283D01*
X580Y2293D01*
X580Y2293D01*
X600Y2289D01*
X620Y2293D01*
X636Y2304D01*
X647Y2320D01*
X651Y2340D01*
X647Y2360D01*
X636Y2376D01*
X620Y2387D01*
X600Y2391D01*
X580Y2387D01*
X580Y2387D01*
X560Y2397D01*
Y2533D01*
X580Y2543D01*
X580Y2543D01*
X600Y2539D01*
X620Y2543D01*
X636Y2554D01*
X647Y2570D01*
X651Y2590D01*
X647Y2610D01*
X636Y2626D01*
X620Y2637D01*
X600Y2641D01*
X580Y2637D01*
X580Y2637D01*
X560Y2647D01*
Y2783D01*
X580Y2793D01*
X580Y2793D01*
X600Y2789D01*
X620Y2793D01*
X636Y2804D01*
X647Y2820D01*
X651Y2840D01*
X647Y2860D01*
X643Y2866D01*
X653Y2886D01*
X825D01*
X845Y2889D01*
X863Y2896D01*
X878Y2909D01*
X891Y2924D01*
X898Y2942D01*
X901Y2962D01*
X898Y2982D01*
X891Y3000D01*
X878Y3015D01*
X863Y3028D01*
X845Y3035D01*
X840Y3036D01*
Y3410D01*
X1217Y3787D01*
X1230Y3784D01*
X1249Y3768D01*
X1250Y3763D01*
X1259Y3749D01*
X1273Y3740D01*
X1290Y3737D01*
X1307Y3740D01*
X1321Y3749D01*
X1330Y3763D01*
X1333Y3780D01*
X1330Y3797D01*
X1321Y3811D01*
X1307Y3820D01*
X1295Y3822D01*
X1283Y3827D01*
X1279Y3849D01*
X1330Y3900D01*
X2540Y3900D01*
X2550Y3893D01*
X2555Y3892D01*
X2559Y3871D01*
X2559Y3871D01*
X2550Y3857D01*
X2547Y3840D01*
X2550Y3823D01*
X2559Y3809D01*
X2573Y3800D01*
X2588Y3797D01*
X2590Y3797D01*
X2590Y3797D01*
X2599Y3798D01*
X2610Y3783D01*
X2611Y3782D01*
X2619Y3769D01*
X2633Y3760D01*
X2650Y3757D01*
X2658Y3758D01*
X2675Y3746D01*
X2676Y3743D01*
X2676Y3738D01*
X2678Y3720D01*
X2685Y3703D01*
X2696Y3689D01*
X2711Y3678D01*
X2728Y3671D01*
X2746Y3668D01*
X2764Y3671D01*
X2781Y3678D01*
X2796Y3689D01*
X2807Y3703D01*
X2814Y3720D01*
X2815Y3732D01*
X2830Y3741D01*
X2836Y3742D01*
X2840Y3740D01*
X2845Y3718D01*
X2838Y3708D01*
X2834Y3690D01*
X2838Y3672D01*
X2848Y3658D01*
X2862Y3648D01*
X2880Y3644D01*
X2898Y3648D01*
X2912Y3658D01*
X2922Y3672D01*
X2926Y3690D01*
X2922Y3708D01*
X2912Y3722D01*
X2911Y3724D01*
X2905Y3744D01*
X2915Y3759D01*
X2919Y3776D01*
X2915Y3794D01*
X2905Y3809D01*
X2891Y3819D01*
X2873Y3822D01*
X2855Y3819D01*
X2841Y3809D01*
X2831Y3794D01*
X2827Y3776D01*
X2808Y3771D01*
X2807Y3773D01*
X2796Y3788D01*
X2781Y3799D01*
X2764Y3806D01*
X2761Y3807D01*
X2743Y3820D01*
X2740Y3837D01*
X2731Y3851D01*
X2726Y3854D01*
X2733Y3873D01*
X2746Y3871D01*
X2764Y3874D01*
X2781Y3881D01*
X2796Y3892D01*
X2802Y3900D01*
X2830D01*
X2980Y4050D01*
X3410Y4050D01*
X3525Y4165D01*
X3534Y4162D01*
X3545Y4157D01*
X3548Y4142D01*
X3558Y4128D01*
X3572Y4118D01*
X3590Y4114D01*
X3608Y4118D01*
X3622Y4128D01*
X3632Y4142D01*
X3636Y4160D01*
X3632Y4178D01*
X3622Y4192D01*
X3622Y4193D01*
Y4217D01*
X3622Y4218D01*
X3632Y4232D01*
X3634Y4240D01*
X3701D01*
X3703Y4230D01*
X3714Y4214D01*
X3730Y4203D01*
X3750Y4199D01*
X3770Y4203D01*
X3786Y4214D01*
X3797Y4230D01*
X3799Y4240D01*
X3931D01*
X3933Y4230D01*
X3944Y4214D01*
X3960Y4203D01*
X3980Y4199D01*
X3981Y4199D01*
X4003Y4190D01*
X4006Y4185D01*
X4014Y4174D01*
X4030Y4163D01*
X4050Y4159D01*
X4070Y4163D01*
X4085Y4173D01*
X4100Y4163D01*
X4120Y4159D01*
X4140Y4163D01*
X4155Y4173D01*
X4170Y4163D01*
X4190Y4159D01*
X4210Y4163D01*
X4226Y4174D01*
X4237Y4190D01*
X4241Y4210D01*
X4239Y4220D01*
X4252Y4240D01*
X4390D01*
X4420Y4210D01*
D02*
G37*
G36*
X3400Y4790D02*
X3440Y4750D01*
X3440Y4130D01*
X3390Y4080D01*
X2936D01*
X2923Y4095D01*
X2922Y4100D01*
X2939Y4117D01*
X2940Y4117D01*
X2957Y4120D01*
X2971Y4129D01*
X2980Y4143D01*
X2983Y4160D01*
X2980Y4177D01*
X2971Y4191D01*
X2957Y4200D01*
X2940Y4203D01*
X2923Y4200D01*
X2909Y4191D01*
X2900Y4177D01*
X2897Y4160D01*
X2898Y4155D01*
X2881Y4138D01*
X2880Y4138D01*
X2863Y4135D01*
X2849Y4126D01*
X2840Y4112D01*
X2837Y4095D01*
X2824Y4080D01*
X2721Y4080D01*
X2718Y4082D01*
X2700Y4086D01*
X2682Y4082D01*
X2679Y4080D01*
X2262D01*
X2249Y4100D01*
X2251Y4110D01*
X2247Y4130D01*
X2236Y4146D01*
X2220Y4157D01*
X2200Y4161D01*
X2180Y4157D01*
X2164Y4146D01*
X2153Y4130D01*
X2149Y4110D01*
X2153Y4090D01*
X2164Y4074D01*
X2165Y4065D01*
X2040Y3940D01*
X1660Y3940D01*
X1520Y4080D01*
Y4450D01*
X1860Y4790D01*
X3400Y4790D01*
D02*
G37*
G36*
X4950Y3174D02*
X4930Y3164D01*
X4927Y3167D01*
X4910Y3174D01*
X4892Y3176D01*
X4873Y3174D01*
X4857Y3167D01*
X4842Y3156D01*
X4831Y3141D01*
X4824Y3124D01*
X4821Y3106D01*
X4824Y3088D01*
X4831Y3071D01*
X4837Y3063D01*
X4839Y3041D01*
X4830Y3027D01*
X4827Y3010D01*
X4827Y3007D01*
X4825Y3002D01*
X4810Y2991D01*
X4800Y2993D01*
X4783Y2990D01*
X4769Y2981D01*
X4760Y2967D01*
X4757Y2950D01*
X4759Y2938D01*
X4753Y2920D01*
X4739Y2911D01*
X4730Y2897D01*
X4727Y2880D01*
X4730Y2863D01*
X4739Y2849D01*
X4753Y2840D01*
X4770Y2837D01*
X4787Y2840D01*
X4801Y2849D01*
X4810Y2863D01*
X4813Y2880D01*
X4811Y2892D01*
X4817Y2910D01*
X4831Y2919D01*
X4840Y2933D01*
X4843Y2950D01*
X4843Y2953D01*
X4845Y2958D01*
X4860Y2969D01*
X4870Y2967D01*
X4887Y2970D01*
X4901Y2979D01*
X4910Y2993D01*
X4913Y3010D01*
X4912Y3018D01*
X4911Y3028D01*
X4923Y3044D01*
X4927Y3045D01*
X4930Y3048D01*
X4950Y3038D01*
X4950Y1278D01*
X4930Y1262D01*
X4925Y1263D01*
X4908Y1261D01*
X4892Y1254D01*
X4879Y1244D01*
X4868Y1230D01*
X4862Y1214D01*
X4859Y1198D01*
X4862Y1181D01*
X4868Y1165D01*
X4872Y1160D01*
X4858Y1146D01*
X4848Y1152D01*
X4830Y1156D01*
X4812Y1152D01*
X4798Y1142D01*
X4788Y1128D01*
X4784Y1110D01*
X4787Y1094D01*
X4788Y1092D01*
X4776Y1073D01*
X4772Y1072D01*
X4758Y1062D01*
X4748Y1048D01*
X4744Y1030D01*
X4748Y1012D01*
X4758Y998D01*
X4772Y988D01*
X4785Y985D01*
X4788Y972D01*
X4798Y958D01*
X4812Y948D01*
X4830Y944D01*
X4848Y948D01*
X4862Y958D01*
X4883Y953D01*
X4892Y946D01*
X4908Y939D01*
X4925Y937D01*
X4930Y938D01*
X4950Y922D01*
X4950Y400D01*
X4950Y400D01*
X4950Y377D01*
X4944Y332D01*
X4932Y287D01*
X4915Y245D01*
X4892Y205D01*
X4864Y169D01*
X4831Y136D01*
X4795Y108D01*
X4755Y85D01*
X4725Y73D01*
X4720Y75D01*
X4705Y86D01*
X4705Y86D01*
X4702Y98D01*
X4692Y112D01*
X4678Y122D01*
X4660Y126D01*
X4642Y122D01*
X4628Y112D01*
X4621Y103D01*
X4617Y102D01*
X4603D01*
X4599Y103D01*
X4592Y112D01*
X4578Y122D01*
X4560Y126D01*
X4542Y122D01*
X4528Y112D01*
X4518Y98D01*
X4514Y80D01*
X4500Y65D01*
X4486Y80D01*
X4482Y98D01*
X4472Y112D01*
X4458Y122D01*
X4440Y126D01*
X4422Y122D01*
X4408Y112D01*
X4403Y105D01*
X4381Y109D01*
X4380Y117D01*
X4371Y131D01*
X4357Y140D01*
X4340Y143D01*
X4323Y140D01*
X4309Y131D01*
X4300Y117D01*
X4297Y100D01*
X4300Y83D01*
X4298Y76D01*
X4289Y64D01*
X4281Y64D01*
X4269Y76D01*
X4260Y98D01*
X4260Y110D01*
X4260Y420D01*
X4260D01*
X4260Y420D01*
X4260Y420D01*
X4259Y435D01*
X4259Y438D01*
X4254Y464D01*
X4242Y491D01*
X4226Y515D01*
X4205Y536D01*
X4181Y552D01*
X4154Y564D01*
X4125Y569D01*
X4110Y570D01*
X4052D01*
X4036Y590D01*
X4036Y590D01*
X4032Y608D01*
X4022Y622D01*
X4008Y632D01*
X3990Y636D01*
X3972Y632D01*
X3958Y622D01*
X3948Y608D01*
X3944Y590D01*
X3944Y590D01*
X3928Y570D01*
X3892D01*
X3876Y590D01*
X3876Y590D01*
X3872Y608D01*
X3862Y622D01*
X3848Y632D01*
X3830Y636D01*
X3812Y632D01*
X3798Y622D01*
X3788Y608D01*
X3784Y590D01*
X3784Y590D01*
X3768Y570D01*
X3732D01*
X3716Y590D01*
X3716Y590D01*
X3712Y608D01*
X3702Y622D01*
X3688Y632D01*
X3670Y636D01*
X3652Y632D01*
X3638Y622D01*
X3628Y608D01*
X3624Y590D01*
X3624Y590D01*
X3608Y570D01*
X3572D01*
X3556Y590D01*
X3556Y590D01*
X3552Y608D01*
X3542Y622D01*
X3528Y632D01*
X3510Y636D01*
X3492Y632D01*
X3478Y622D01*
X3468Y608D01*
X3464Y590D01*
X3464Y590D01*
X3448Y570D01*
X3412D01*
X3396Y590D01*
X3396Y590D01*
X3392Y608D01*
X3382Y622D01*
X3368Y632D01*
X3350Y636D01*
X3332Y632D01*
X3318Y622D01*
X3308Y608D01*
X3304Y590D01*
X3304Y590D01*
X3288Y570D01*
X3252D01*
X3236Y590D01*
X3236Y590D01*
X3232Y608D01*
X3222Y622D01*
X3208Y632D01*
X3190Y636D01*
X3179Y634D01*
X3169Y652D01*
X3204Y687D01*
X3233D01*
X3243Y680D01*
X3260Y677D01*
X3277Y680D01*
X3291Y689D01*
X3300Y703D01*
X3303Y720D01*
X3303Y723D01*
X3305Y728D01*
X3318Y737D01*
X3336Y734D01*
X3348Y717D01*
X3347Y710D01*
X3350Y693D01*
X3359Y679D01*
X3373Y670D01*
X3390Y667D01*
X3407Y670D01*
X3421Y679D01*
X3430Y693D01*
X3433Y710D01*
X3430Y727D01*
X3421Y741D01*
X3407Y750D01*
X3390Y753D01*
X3387Y753D01*
X3382Y755D01*
X3371Y770D01*
X3373Y780D01*
X3370Y797D01*
X3361Y811D01*
X3347Y820D01*
X3330Y823D01*
X3313Y820D01*
X3299Y811D01*
X3290Y797D01*
X3287Y780D01*
X3287Y777D01*
X3285Y772D01*
X3270Y761D01*
X3260Y763D01*
X3243Y760D01*
X3233Y753D01*
X3190D01*
X3177Y751D01*
X3167Y743D01*
X3056Y633D01*
X2860D01*
X2847Y631D01*
X2837Y623D01*
X2783Y570D01*
X2703D01*
X2703Y570D01*
X2700Y587D01*
X2691Y601D01*
X2677Y610D01*
X2660Y613D01*
X2643Y610D01*
X2629Y601D01*
X2620Y587D01*
X2617Y570D01*
X2617Y570D01*
X2490D01*
X2106Y954D01*
Y1123D01*
X2126Y1137D01*
X2130Y1137D01*
X2147Y1140D01*
X2161Y1149D01*
X2170Y1163D01*
X2173Y1180D01*
X2170Y1197D01*
X2161Y1211D01*
X2147Y1220D01*
X2130Y1223D01*
X2125Y1233D01*
X2139Y1247D01*
X2140Y1247D01*
X2157Y1250D01*
X2171Y1259D01*
X2180Y1273D01*
X2183Y1290D01*
X2180Y1307D01*
X2174Y1315D01*
X2180Y1323D01*
X2183Y1340D01*
X2180Y1357D01*
X2174Y1365D01*
X2180Y1373D01*
X2183Y1390D01*
X2180Y1407D01*
X2174Y1415D01*
X2180Y1423D01*
X2183Y1440D01*
X2180Y1457D01*
X2171Y1471D01*
X2157Y1480D01*
X2140Y1483D01*
X2126Y1481D01*
X2120Y1482D01*
X2106Y1492D01*
Y1500D01*
X2102Y1518D01*
X2092Y1532D01*
X2008Y1617D01*
X2008Y1623D01*
X2015Y1638D01*
X2027Y1640D01*
X2035Y1646D01*
X2043Y1640D01*
X2060Y1637D01*
X2077Y1640D01*
X2085Y1646D01*
X2093Y1640D01*
X2110Y1637D01*
X2127Y1640D01*
X2135Y1646D01*
X2143Y1640D01*
X2160Y1637D01*
X2177Y1640D01*
X2187Y1647D01*
X2200Y1648D01*
X2213Y1647D01*
X2223Y1640D01*
X2240Y1637D01*
X2257Y1640D01*
X2265Y1646D01*
X2273Y1640D01*
X2290Y1637D01*
X2307Y1640D01*
X2315Y1646D01*
X2323Y1640D01*
X2340Y1637D01*
X2357Y1640D01*
X2365Y1646D01*
X2373Y1640D01*
X2390Y1637D01*
X2407Y1640D01*
X2421Y1649D01*
X2430Y1663D01*
X2433Y1680D01*
X2430Y1697D01*
X2421Y1711D01*
X2407Y1720D01*
X2390Y1723D01*
X2373Y1720D01*
X2365Y1714D01*
X2357Y1720D01*
X2340Y1723D01*
X2334Y1722D01*
X2329Y1725D01*
X2326Y1751D01*
X2629Y2054D01*
X2659D01*
X2660Y2053D01*
X2680Y2049D01*
X2700Y2053D01*
X2701Y2054D01*
X2719D01*
X2720Y2053D01*
X2740Y2049D01*
X2760Y2053D01*
X2776Y2064D01*
X2780Y2070D01*
X2786Y2071D01*
X2803Y2069D01*
X2809Y2059D01*
X2823Y2050D01*
X2840Y2047D01*
X2857Y2050D01*
X2871Y2059D01*
X2880Y2073D01*
X2883Y2090D01*
X2890Y2097D01*
X2907Y2100D01*
X2921Y2109D01*
X2930Y2123D01*
X2933Y2140D01*
X2930Y2157D01*
X2921Y2171D01*
X2907Y2180D01*
X2890Y2183D01*
X2873Y2180D01*
X2859Y2171D01*
X2850Y2157D01*
X2847Y2140D01*
X2828Y2131D01*
X2823Y2130D01*
X2809Y2121D01*
X2808Y2118D01*
X2796Y2119D01*
X2786Y2121D01*
X2776Y2136D01*
X2760Y2147D01*
X2740Y2151D01*
X2720Y2147D01*
X2719Y2146D01*
X2701D01*
X2700Y2147D01*
X2680Y2151D01*
X2660Y2147D01*
X2659Y2146D01*
X2610D01*
X2592Y2142D01*
X2578Y2132D01*
X2261Y1816D01*
X1990D01*
X1972Y1812D01*
X1958Y1802D01*
X1908Y1752D01*
X1898Y1738D01*
X1894Y1720D01*
Y1662D01*
X1876Y1654D01*
X1649Y1881D01*
X1651Y1899D01*
X1659Y1912D01*
X1660Y1913D01*
X1671Y1928D01*
X1680Y1927D01*
X1680Y1927D01*
X1682Y1927D01*
X1697Y1930D01*
X1711Y1939D01*
X1720Y1953D01*
X1723Y1970D01*
X1720Y1987D01*
X1711Y2001D01*
Y2019D01*
X1720Y2033D01*
X1723Y2050D01*
X1730Y2067D01*
X1747Y2070D01*
X1761Y2079D01*
X1770Y2093D01*
X1773Y2110D01*
X1770Y2127D01*
X1761Y2141D01*
X1747Y2150D01*
X1730Y2153D01*
X1713Y2150D01*
X1699Y2141D01*
X1690Y2127D01*
X1687Y2110D01*
X1680Y2093D01*
X1663Y2090D01*
X1649Y2081D01*
X1640Y2067D01*
X1620Y2069D01*
Y2217D01*
X1637Y2220D01*
X1651Y2229D01*
X1660Y2243D01*
X1663Y2260D01*
X1660Y2277D01*
X1651Y2291D01*
X1637Y2300D01*
X1620Y2303D01*
Y2602D01*
X1636Y2608D01*
X1640Y2609D01*
X1653Y2600D01*
X1670Y2597D01*
X1687Y2600D01*
X1697Y2607D01*
X1710Y2608D01*
X1723Y2607D01*
X1733Y2600D01*
X1750Y2597D01*
X1767Y2600D01*
X1781Y2609D01*
X1788Y2620D01*
X1788Y2620D01*
X1807Y2616D01*
X1810Y2603D01*
X1819Y2589D01*
X1833Y2580D01*
X1850Y2577D01*
X1867Y2580D01*
X1881Y2589D01*
X1889D01*
X1903Y2580D01*
X1920Y2577D01*
X1937Y2580D01*
X1951Y2589D01*
X1960Y2603D01*
X1964Y2600D01*
X1980Y2597D01*
X1997Y2600D01*
X2011Y2609D01*
X2020Y2623D01*
X2040Y2627D01*
X2057Y2630D01*
X2071Y2639D01*
X2080Y2653D01*
X2083Y2670D01*
X2080Y2687D01*
X2071Y2701D01*
X2057Y2710D01*
X2040Y2713D01*
X2023Y2710D01*
X2016Y2705D01*
X1998Y2716D01*
X1998Y2720D01*
X1995Y2737D01*
X1986Y2751D01*
X1972Y2760D01*
X1955Y2763D01*
X1952Y2763D01*
X1950Y2777D01*
X1940Y2791D01*
X1926Y2800D01*
X1910Y2803D01*
X1903Y2802D01*
X1900Y2817D01*
X1891Y2831D01*
X1884Y2835D01*
X1878Y2858D01*
X2112Y3092D01*
X2135Y3086D01*
X2139Y3079D01*
X2141Y3079D01*
X2150Y3057D01*
X2147Y3040D01*
X2150Y3023D01*
X2159Y3009D01*
X2173Y3000D01*
X2190Y2997D01*
X2207Y3000D01*
X2221Y3009D01*
X2230Y3023D01*
X2233Y3040D01*
X2230Y3057D01*
X2221Y3071D01*
X2219Y3071D01*
X2210Y3093D01*
X2213Y3110D01*
X2210Y3127D01*
X2208Y3130D01*
X2217Y3152D01*
X2226Y3153D01*
X2237Y3140D01*
X2240Y3123D01*
X2249Y3109D01*
X2263Y3100D01*
X2271Y3099D01*
X2281Y3078D01*
X2281Y3078D01*
X2280Y3077D01*
X2277Y3060D01*
X2280Y3043D01*
X2289Y3029D01*
X2303Y3020D01*
X2320Y3017D01*
X2337Y3020D01*
X2351Y3029D01*
X2360Y3043D01*
X2363Y3060D01*
X2360Y3077D01*
X2352Y3089D01*
X2353Y3098D01*
X2357Y3111D01*
X2357Y3111D01*
X2371Y3120D01*
X2380Y3134D01*
X2384Y3151D01*
X2391Y3160D01*
X2768D01*
X2777Y3150D01*
X2780Y3133D01*
X2789Y3119D01*
X2803Y3110D01*
X2820Y3107D01*
X2837Y3110D01*
X2851Y3119D01*
X2860Y3133D01*
X2863Y3150D01*
X2872Y3160D01*
X3140D01*
X3380Y3400D01*
X3784D01*
X3786Y3380D01*
X3772Y3377D01*
X3758Y3367D01*
X3748Y3353D01*
X3744Y3335D01*
X3748Y3317D01*
X3758Y3303D01*
X3772Y3293D01*
X3790Y3289D01*
X3808Y3293D01*
X3817Y3299D01*
X3827Y3293D01*
X3845Y3289D01*
X3863Y3293D01*
X3872Y3299D01*
X3882Y3293D01*
X3900Y3289D01*
X3918Y3293D01*
X3932Y3303D01*
X3942Y3317D01*
X3946Y3335D01*
X3942Y3353D01*
X3932Y3367D01*
X3918Y3377D01*
X3904Y3380D01*
X3906Y3400D01*
X4524D01*
X4536Y3380D01*
X4534Y3370D01*
X4538Y3352D01*
X4546Y3340D01*
X4538Y3328D01*
X4534Y3310D01*
X4538Y3292D01*
X4548Y3278D01*
X4562Y3268D01*
X4580Y3264D01*
X4598Y3268D01*
X4605Y3273D01*
X4612Y3268D01*
X4630Y3264D01*
X4648Y3268D01*
X4662Y3278D01*
X4672Y3292D01*
X4676Y3310D01*
X4672Y3328D01*
X4664Y3340D01*
X4672Y3352D01*
X4676Y3370D01*
X4674Y3380D01*
X4686Y3400D01*
X4809D01*
X4811Y3398D01*
X4818Y3380D01*
X4812Y3372D01*
X4809Y3355D01*
X4792Y3338D01*
X4789Y3338D01*
X4776Y3329D01*
X4767Y3316D01*
X4764Y3300D01*
X4767Y3284D01*
X4776Y3271D01*
X4789Y3262D01*
X4805Y3259D01*
X4821Y3262D01*
X4834Y3271D01*
X4843Y3284D01*
X4844Y3293D01*
X4853Y3312D01*
X4869Y3315D01*
X4883Y3324D01*
X4893Y3338D01*
X4896Y3355D01*
X4893Y3372D01*
X4887Y3380D01*
X4894Y3398D01*
X4896Y3400D01*
X4950D01*
X4950Y3174D01*
D02*
G37*
G36*
X13440Y5148D02*
X13379D01*
Y5168D01*
X13440D01*
Y5148D01*
D02*
G37*
G36*
X13760Y5100D02*
X13740D01*
X13706Y5222D01*
Y5222D01*
X13706Y5223D01*
X13706Y5223D01*
X13705Y5224D01*
X13705Y5227D01*
X13704Y5230D01*
X13703Y5233D01*
X13702Y5236D01*
X13701Y5239D01*
X13701Y5240D01*
X13701Y5241D01*
Y5240D01*
X13701Y5240D01*
X13701Y5239D01*
X13700Y5237D01*
X13699Y5234D01*
X13699Y5231D01*
X13698Y5228D01*
X13697Y5225D01*
X13696Y5222D01*
X13662Y5100D01*
X13640D01*
X13598Y5260D01*
X13620D01*
X13644Y5155D01*
Y5155D01*
X13644Y5154D01*
X13645Y5153D01*
X13645Y5152D01*
X13645Y5151D01*
X13645Y5149D01*
X13646Y5147D01*
X13646Y5145D01*
X13648Y5140D01*
X13649Y5134D01*
X13650Y5128D01*
X13651Y5122D01*
Y5122D01*
X13651Y5123D01*
X13652Y5125D01*
X13652Y5126D01*
X13652Y5128D01*
X13653Y5131D01*
X13654Y5136D01*
X13656Y5141D01*
X13656Y5143D01*
X13657Y5146D01*
X13657Y5148D01*
X13658Y5150D01*
X13658Y5151D01*
X13658Y5152D01*
X13689Y5260D01*
X13714D01*
X13737Y5179D01*
Y5179D01*
X13738Y5178D01*
X13738Y5176D01*
X13738Y5174D01*
X13739Y5171D01*
X13740Y5168D01*
X13741Y5165D01*
X13742Y5161D01*
X13743Y5156D01*
X13744Y5152D01*
X13746Y5142D01*
X13748Y5132D01*
X13750Y5122D01*
Y5122D01*
X13750Y5123D01*
Y5124D01*
X13751Y5125D01*
X13751Y5126D01*
X13751Y5128D01*
X13751Y5130D01*
X13752Y5132D01*
X13753Y5137D01*
X13755Y5144D01*
X13756Y5150D01*
X13758Y5157D01*
X13783Y5260D01*
X13804D01*
X13760Y5100D01*
D02*
G37*
G36*
X13901Y5260D02*
X13903D01*
X13908Y5260D01*
X13913Y5259D01*
X13918Y5258D01*
X13923Y5257D01*
X13926Y5256D01*
X13928Y5256D01*
X13928D01*
X13928Y5255D01*
X13930Y5255D01*
X13932Y5254D01*
X13934Y5252D01*
X13937Y5250D01*
X13940Y5247D01*
X13943Y5244D01*
X13946Y5240D01*
Y5240D01*
X13946Y5240D01*
X13947Y5239D01*
X13948Y5236D01*
X13949Y5233D01*
X13950Y5230D01*
X13952Y5226D01*
X13952Y5221D01*
X13953Y5216D01*
Y5216D01*
Y5216D01*
Y5215D01*
X13952Y5214D01*
Y5212D01*
X13952Y5210D01*
X13951Y5206D01*
X13950Y5202D01*
X13948Y5197D01*
X13945Y5192D01*
X13943Y5190D01*
X13941Y5187D01*
X13941Y5187D01*
X13941Y5187D01*
X13940Y5186D01*
X13939Y5186D01*
X13938Y5185D01*
X13937Y5184D01*
X13935Y5183D01*
X13933Y5181D01*
X13931Y5180D01*
X13928Y5179D01*
X13925Y5178D01*
X13922Y5176D01*
X13919Y5175D01*
X13915Y5174D01*
X13912Y5174D01*
X13907Y5173D01*
X13908Y5173D01*
X13909Y5172D01*
X13910Y5171D01*
X13912Y5170D01*
X13916Y5168D01*
X13918Y5166D01*
X13920Y5165D01*
X13921Y5164D01*
X13922Y5163D01*
X13924Y5161D01*
X13926Y5159D01*
X13928Y5156D01*
X13931Y5152D01*
X13934Y5148D01*
X13938Y5144D01*
X13965Y5100D01*
X13939D01*
X13918Y5133D01*
Y5134D01*
X13917Y5134D01*
X13917Y5135D01*
X13916Y5136D01*
X13915Y5138D01*
X13912Y5141D01*
X13910Y5145D01*
X13907Y5149D01*
X13905Y5152D01*
X13903Y5155D01*
X13902Y5156D01*
X13902Y5156D01*
X13900Y5158D01*
X13899Y5159D01*
X13895Y5163D01*
X13894Y5165D01*
X13892Y5166D01*
X13891Y5166D01*
X13891Y5166D01*
X13890Y5167D01*
X13889Y5168D01*
X13887Y5168D01*
X13886Y5169D01*
X13882Y5170D01*
X13882D01*
X13881Y5170D01*
X13880D01*
X13879Y5171D01*
X13878Y5171D01*
X13876D01*
X13873Y5171D01*
X13846D01*
Y5100D01*
X13825D01*
Y5260D01*
X13899D01*
X13901Y5260D01*
D02*
G37*
G36*
X13533D02*
X13537Y5260D01*
X13541Y5259D01*
X13545Y5259D01*
X13548Y5259D01*
X13549D01*
X13551Y5258D01*
X13553Y5258D01*
X13555Y5257D01*
X13558Y5256D01*
X13562Y5254D01*
X13565Y5253D01*
X13568Y5251D01*
X13569Y5251D01*
X13570Y5250D01*
X13571Y5249D01*
X13573Y5247D01*
X13575Y5245D01*
X13577Y5242D01*
X13579Y5239D01*
X13581Y5236D01*
X13581Y5235D01*
X13582Y5234D01*
X13583Y5232D01*
X13584Y5229D01*
X13584Y5226D01*
X13585Y5222D01*
X13586Y5218D01*
X13586Y5214D01*
Y5213D01*
Y5213D01*
Y5212D01*
X13586Y5210D01*
X13586Y5209D01*
X13585Y5206D01*
X13585Y5204D01*
X13584Y5202D01*
X13583Y5196D01*
X13582Y5193D01*
X13580Y5190D01*
X13579Y5187D01*
X13577Y5185D01*
X13575Y5182D01*
X13573Y5179D01*
X13573Y5179D01*
X13572Y5178D01*
X13571Y5178D01*
X13570Y5177D01*
X13569Y5176D01*
X13567Y5175D01*
X13565Y5173D01*
X13562Y5172D01*
X13559Y5171D01*
X13556Y5169D01*
X13552Y5168D01*
X13548Y5167D01*
X13543Y5166D01*
X13538Y5166D01*
X13532Y5165D01*
X13526Y5165D01*
X13485D01*
Y5100D01*
X13464D01*
Y5260D01*
X13530D01*
X13533Y5260D01*
D02*
G37*
G36*
X13339Y5156D02*
X13361D01*
Y5138D01*
X13339D01*
Y5100D01*
X13320D01*
Y5138D01*
X13250D01*
Y5156D01*
X13323Y5260D01*
X13339D01*
Y5156D01*
D02*
G37*
%LPC*%
G36*
X4320Y4073D02*
X4303Y4070D01*
X4289Y4061D01*
X4280Y4047D01*
X4277Y4030D01*
X4280Y4013D01*
X4289Y3999D01*
X4303Y3990D01*
X4320Y3987D01*
X4337Y3990D01*
X4351Y3999D01*
X4360Y4013D01*
X4363Y4030D01*
X4360Y4047D01*
X4351Y4061D01*
X4337Y4070D01*
X4320Y4073D01*
D02*
G37*
G36*
X3660Y4071D02*
X3640Y4067D01*
X3624Y4056D01*
X3613Y4040D01*
X3609Y4020D01*
X3613Y4000D01*
X3624Y3984D01*
X3640Y3973D01*
X3660Y3969D01*
X3680Y3973D01*
X3696Y3984D01*
X3707Y4000D01*
X3711Y4020D01*
X3707Y4040D01*
X3696Y4056D01*
X3680Y4067D01*
X3660Y4071D01*
D02*
G37*
G36*
X3254Y3910D02*
X3236Y3908D01*
X3219Y3901D01*
X3204Y3890D01*
X3193Y3875D01*
X3186Y3858D01*
X3184Y3840D01*
X3186Y3822D01*
X3193Y3805D01*
X3204Y3790D01*
X3219Y3779D01*
X3236Y3772D01*
X3254Y3770D01*
X3272Y3772D01*
X3289Y3779D01*
X3304Y3790D01*
X3315Y3805D01*
X3322Y3822D01*
X3324Y3840D01*
X3322Y3858D01*
X3315Y3875D01*
X3304Y3890D01*
X3289Y3901D01*
X3272Y3908D01*
X3254Y3910D01*
D02*
G37*
G36*
X3590Y3831D02*
X3570Y3827D01*
X3554Y3816D01*
X3543Y3800D01*
X3539Y3780D01*
X3543Y3760D01*
X3554Y3744D01*
X3570Y3733D01*
X3590Y3729D01*
X3610Y3733D01*
X3626Y3744D01*
X3637Y3760D01*
X3641Y3780D01*
X3637Y3800D01*
X3626Y3816D01*
X3610Y3827D01*
X3590Y3831D01*
D02*
G37*
G36*
X2305Y3813D02*
X2288Y3810D01*
X2274Y3801D01*
X2265Y3787D01*
X2262Y3770D01*
X2265Y3753D01*
X2274Y3739D01*
X2288Y3730D01*
X2305Y3727D01*
X2322Y3730D01*
X2336Y3739D01*
X2345Y3753D01*
X2348Y3770D01*
X2345Y3787D01*
X2336Y3801D01*
X2322Y3810D01*
X2305Y3813D01*
D02*
G37*
G36*
X1660Y3723D02*
X1643Y3720D01*
X1629Y3711D01*
X1620Y3697D01*
X1619Y3692D01*
X1610Y3673D01*
X1593Y3670D01*
X1582Y3663D01*
X1569Y3668D01*
X1563Y3672D01*
X1560Y3687D01*
X1551Y3701D01*
X1537Y3710D01*
X1520Y3713D01*
X1503Y3710D01*
X1489Y3701D01*
X1480Y3687D01*
X1477Y3670D01*
X1480Y3653D01*
X1489Y3639D01*
X1503Y3630D01*
X1508Y3609D01*
X1507Y3600D01*
X1510Y3583D01*
X1519Y3569D01*
X1533Y3560D01*
X1550Y3557D01*
X1567Y3560D01*
X1581Y3569D01*
X1582Y3572D01*
X1603Y3567D01*
X1605Y3558D01*
X1615Y3544D01*
X1629Y3535D01*
X1645Y3532D01*
X1662Y3535D01*
X1676Y3544D01*
X1685Y3558D01*
X1689Y3575D01*
X1685Y3592D01*
X1676Y3606D01*
X1662Y3615D01*
X1660Y3636D01*
X1660Y3637D01*
X1677Y3640D01*
X1691Y3649D01*
X1700Y3663D01*
X1703Y3680D01*
X1700Y3697D01*
X1691Y3711D01*
X1677Y3720D01*
X1660Y3723D01*
D02*
G37*
G36*
X3340Y3711D02*
X3320Y3707D01*
X3304Y3696D01*
X3293Y3680D01*
X3289Y3660D01*
X3293Y3640D01*
X3304Y3624D01*
X3320Y3613D01*
X3340Y3609D01*
X3360Y3613D01*
X3376Y3624D01*
X3387Y3640D01*
X3391Y3660D01*
X3387Y3680D01*
X3376Y3696D01*
X3360Y3707D01*
X3340Y3711D01*
D02*
G37*
G36*
X3160Y3551D02*
X3140Y3547D01*
X3130Y3540D01*
X3120Y3547D01*
X3100Y3551D01*
X3080Y3547D01*
X3064Y3536D01*
X3053Y3520D01*
X3049Y3500D01*
X3053Y3480D01*
X3064Y3464D01*
X3080Y3453D01*
X3100Y3449D01*
X3116Y3452D01*
X3125Y3445D01*
X3130Y3436D01*
X3127Y3420D01*
X3130Y3403D01*
X3139Y3389D01*
X3153Y3380D01*
X3170Y3377D01*
X3187Y3380D01*
X3201Y3389D01*
X3210Y3403D01*
X3213Y3420D01*
X3210Y3437D01*
X3204Y3445D01*
X3196Y3464D01*
X3207Y3480D01*
X3211Y3500D01*
X3207Y3520D01*
X3196Y3536D01*
X3180Y3547D01*
X3160Y3551D01*
D02*
G37*
G36*
X2450Y3733D02*
X2433Y3730D01*
X2419Y3721D01*
X2410Y3707D01*
X2407Y3690D01*
X2410Y3673D01*
X2412Y3670D01*
X2418Y3655D01*
X2412Y3640D01*
X2410Y3637D01*
X2407Y3620D01*
X2410Y3603D01*
X2419Y3589D01*
X2433Y3580D01*
X2448Y3577D01*
X2450Y3577D01*
X2450Y3577D01*
X2467Y3580D01*
X2470Y3563D01*
X2479Y3549D01*
X2493Y3540D01*
X2510Y3537D01*
X2527Y3540D01*
X2541Y3549D01*
X2550Y3563D01*
X2553Y3580D01*
X2550Y3597D01*
X2541Y3611D01*
X2527Y3620D01*
X2512Y3623D01*
X2510Y3623D01*
X2510Y3623D01*
X2493Y3620D01*
X2490Y3637D01*
X2488Y3640D01*
X2482Y3655D01*
X2488Y3670D01*
X2490Y3673D01*
X2493Y3690D01*
X2490Y3707D01*
X2481Y3721D01*
X2467Y3730D01*
X2450Y3733D01*
D02*
G37*
G36*
X2096Y3608D02*
X2079Y3605D01*
X2065Y3595D01*
X2056Y3581D01*
X2053Y3565D01*
X2056Y3548D01*
X2065Y3534D01*
X2079Y3525D01*
X2096Y3521D01*
X2113Y3525D01*
X2127Y3534D01*
X2136Y3548D01*
X2139Y3565D01*
X2136Y3581D01*
X2127Y3595D01*
X2113Y3605D01*
X2096Y3608D01*
D02*
G37*
G36*
X2310Y3528D02*
X2294Y3525D01*
X2280Y3516D01*
X2278Y3513D01*
X2267Y3520D01*
X2250Y3523D01*
X2233Y3520D01*
X2219Y3511D01*
X2211D01*
X2197Y3520D01*
X2180Y3523D01*
X2163Y3520D01*
X2149Y3511D01*
X2140Y3497D01*
X2137Y3480D01*
X2140Y3463D01*
X2149Y3449D01*
X2163Y3440D01*
X2180Y3437D01*
X2197Y3440D01*
X2211Y3449D01*
X2219D01*
X2233Y3440D01*
X2250Y3437D01*
X2267Y3440D01*
X2281Y3449D01*
X2283Y3452D01*
X2294Y3445D01*
X2310Y3442D01*
X2327Y3445D01*
X2341Y3454D01*
X2350Y3468D01*
X2354Y3485D01*
X2350Y3502D01*
X2341Y3516D01*
X2327Y3525D01*
X2310Y3528D01*
D02*
G37*
G36*
X2880Y3571D02*
X2860Y3567D01*
X2844Y3556D01*
X2833Y3540D01*
X2829Y3520D01*
X2833Y3500D01*
X2844Y3484D01*
X2860Y3473D01*
X2880Y3469D01*
X2900Y3473D01*
X2916Y3484D01*
X2927Y3500D01*
X2931Y3520D01*
X2927Y3540D01*
X2916Y3556D01*
X2900Y3567D01*
X2880Y3571D01*
D02*
G37*
G36*
X2569Y3527D02*
X2552Y3523D01*
X2537Y3513D01*
X2527Y3498D01*
X2524Y3485D01*
X2512Y3482D01*
X2498Y3472D01*
X2488Y3458D01*
X2484Y3440D01*
X2488Y3422D01*
X2498Y3408D01*
X2512Y3398D01*
X2530Y3394D01*
X2548Y3398D01*
X2562Y3408D01*
X2572Y3422D01*
X2575Y3436D01*
X2587Y3439D01*
X2602Y3448D01*
X2611Y3463D01*
X2615Y3481D01*
X2611Y3498D01*
X2602Y3513D01*
X2587Y3523D01*
X2569Y3527D01*
D02*
G37*
G36*
X1647Y3468D02*
X1631Y3465D01*
X1617Y3456D01*
X1607Y3442D01*
X1604Y3425D01*
X1607Y3408D01*
X1617Y3394D01*
X1631Y3385D01*
X1647Y3382D01*
X1664Y3385D01*
X1678Y3394D01*
X1687Y3408D01*
X1691Y3425D01*
X1687Y3442D01*
X1678Y3456D01*
X1664Y3465D01*
X1647Y3468D01*
D02*
G37*
G36*
X3110Y3371D02*
X3090Y3367D01*
X3080Y3360D01*
X3070Y3367D01*
X3050Y3371D01*
X3030Y3367D01*
X3014Y3356D01*
X3003Y3340D01*
X2999Y3320D01*
X3003Y3300D01*
X3014Y3284D01*
X3030Y3273D01*
X3050Y3269D01*
X3070Y3273D01*
X3080Y3280D01*
X3090Y3273D01*
X3110Y3269D01*
X3130Y3273D01*
X3146Y3284D01*
X3157Y3300D01*
X3161Y3320D01*
X3157Y3340D01*
X3146Y3356D01*
X3130Y3367D01*
X3110Y3371D01*
D02*
G37*
G36*
X2340Y3423D02*
X2323Y3420D01*
X2309Y3411D01*
X2300Y3397D01*
X2297Y3380D01*
X2300Y3363D01*
X2309Y3349D01*
X2323Y3340D01*
X2340Y3337D01*
X2357Y3340D01*
X2371Y3349D01*
X2380Y3363D01*
X2383Y3380D01*
X2380Y3397D01*
X2371Y3411D01*
X2357Y3420D01*
X2340Y3423D01*
D02*
G37*
G36*
X1280Y3636D02*
X1262Y3632D01*
X1248Y3622D01*
X1238Y3608D01*
X1234Y3590D01*
X1238Y3572D01*
X1232Y3558D01*
X1228Y3557D01*
X1211Y3546D01*
X1200Y3530D01*
X1197Y3510D01*
X1200Y3490D01*
X1208Y3479D01*
X1200Y3467D01*
X1197Y3447D01*
X1200Y3428D01*
X1211Y3411D01*
X1228Y3400D01*
X1248Y3397D01*
X1267Y3400D01*
X1271Y3399D01*
X1280Y3377D01*
X1277Y3360D01*
X1280Y3343D01*
X1285Y3336D01*
X1289Y3328D01*
X1280Y3311D01*
X1279Y3311D01*
X1270Y3297D01*
X1267Y3280D01*
X1270Y3263D01*
X1279Y3249D01*
X1293Y3240D01*
X1310Y3237D01*
X1327Y3240D01*
X1341Y3249D01*
X1350Y3263D01*
X1353Y3280D01*
X1350Y3297D01*
X1345Y3304D01*
X1341Y3312D01*
X1350Y3329D01*
X1351Y3329D01*
X1360Y3343D01*
X1363Y3360D01*
X1360Y3377D01*
X1351Y3391D01*
Y3399D01*
X1360Y3413D01*
X1363Y3430D01*
X1360Y3447D01*
X1351Y3461D01*
X1337Y3470D01*
X1320Y3473D01*
X1305Y3470D01*
X1300Y3474D01*
X1292Y3486D01*
X1295Y3490D01*
X1298Y3510D01*
X1295Y3527D01*
X1296Y3532D01*
X1304Y3552D01*
X1312Y3558D01*
X1322Y3572D01*
X1326Y3590D01*
X1322Y3608D01*
X1312Y3622D01*
X1298Y3632D01*
X1280Y3636D01*
D02*
G37*
G36*
X1480Y3193D02*
X1463Y3190D01*
X1449Y3181D01*
X1445Y3174D01*
X1436Y3180D01*
X1420Y3183D01*
X1403Y3180D01*
X1389Y3171D01*
X1380Y3157D01*
X1376Y3140D01*
X1380Y3123D01*
X1389Y3109D01*
X1403Y3100D01*
X1420Y3097D01*
X1431Y3099D01*
X1438Y3083D01*
X1439Y3080D01*
X1430Y3067D01*
X1427Y3050D01*
X1430Y3033D01*
X1439Y3019D01*
X1453Y3010D01*
X1470Y3007D01*
X1487Y3010D01*
X1501Y3019D01*
X1510Y3033D01*
X1513Y3050D01*
X1510Y3067D01*
X1501Y3081D01*
X1489Y3088D01*
X1489Y3100D01*
X1492Y3109D01*
X1497Y3110D01*
X1511Y3119D01*
X1520Y3133D01*
X1523Y3150D01*
X1520Y3167D01*
X1511Y3181D01*
X1497Y3190D01*
X1480Y3193D01*
D02*
G37*
G36*
X1030Y3203D02*
X1013Y3200D01*
X999Y3191D01*
X990Y3177D01*
X987Y3160D01*
X990Y3143D01*
X999Y3129D01*
X1013Y3120D01*
X1030Y3117D01*
X1047Y3120D01*
X1061Y3129D01*
X1070Y3143D01*
X1073Y3160D01*
X1070Y3177D01*
X1061Y3191D01*
X1047Y3200D01*
X1030Y3203D01*
D02*
G37*
G36*
X1200Y3266D02*
X1182Y3262D01*
X1168Y3252D01*
X1158Y3238D01*
X1154Y3220D01*
X1158Y3202D01*
X1168Y3188D01*
X1166Y3165D01*
X1160Y3157D01*
X1157Y3140D01*
X1160Y3123D01*
X1169Y3109D01*
X1183Y3100D01*
X1200Y3097D01*
X1217Y3100D01*
X1231Y3109D01*
X1239D01*
X1253Y3100D01*
X1270Y3097D01*
X1287Y3100D01*
X1301Y3109D01*
X1310Y3123D01*
X1313Y3140D01*
X1310Y3157D01*
X1301Y3171D01*
X1287Y3180D01*
X1270Y3183D01*
X1253Y3180D01*
X1250Y3178D01*
X1235Y3192D01*
X1242Y3202D01*
X1246Y3220D01*
X1242Y3238D01*
X1232Y3252D01*
X1218Y3262D01*
X1200Y3266D01*
D02*
G37*
G36*
X1870Y3603D02*
X1853Y3600D01*
X1839Y3591D01*
X1830Y3577D01*
X1827Y3560D01*
X1830Y3543D01*
X1839Y3529D01*
Y3526D01*
X1830Y3512D01*
X1827Y3495D01*
X1830Y3478D01*
X1839Y3464D01*
Y3451D01*
X1830Y3437D01*
X1827Y3420D01*
X1828Y3412D01*
X1822Y3398D01*
X1814Y3392D01*
X1803Y3390D01*
X1789Y3381D01*
X1780Y3367D01*
X1777Y3350D01*
X1780Y3333D01*
X1789Y3319D01*
X1803Y3310D01*
X1808Y3309D01*
X1827Y3300D01*
X1830Y3283D01*
X1837Y3273D01*
X1838Y3260D01*
X1837Y3247D01*
X1830Y3237D01*
X1827Y3220D01*
X1810Y3218D01*
X1793Y3215D01*
X1779Y3206D01*
X1770Y3192D01*
X1767Y3175D01*
X1770Y3158D01*
X1779Y3144D01*
X1793Y3135D01*
X1810Y3132D01*
X1814Y3113D01*
X1812Y3112D01*
X1803Y3110D01*
X1789Y3101D01*
X1780Y3087D01*
X1777Y3070D01*
X1780Y3053D01*
X1789Y3039D01*
X1803Y3030D01*
X1820Y3027D01*
X1837Y3030D01*
X1851Y3039D01*
X1860Y3053D01*
X1862Y3062D01*
X1880Y3079D01*
X1900Y3083D01*
X1916Y3094D01*
X1927Y3110D01*
X1931Y3130D01*
X1927Y3150D01*
X1916Y3166D01*
X1909Y3171D01*
X1907Y3175D01*
X1904Y3194D01*
X1905Y3196D01*
X1910Y3203D01*
X1913Y3220D01*
X1910Y3237D01*
X1903Y3247D01*
X1902Y3260D01*
X1903Y3273D01*
X1910Y3283D01*
X1913Y3300D01*
X1910Y3317D01*
X1907Y3321D01*
X1921Y3329D01*
X1930Y3343D01*
X1933Y3360D01*
X1930Y3377D01*
X1921Y3391D01*
X1907Y3399D01*
X1910Y3403D01*
X1913Y3420D01*
X1910Y3437D01*
X1901Y3451D01*
Y3464D01*
X1910Y3478D01*
X1913Y3495D01*
X1910Y3512D01*
X1901Y3526D01*
Y3529D01*
X1910Y3543D01*
X1913Y3560D01*
X1910Y3577D01*
X1901Y3591D01*
X1887Y3600D01*
X1870Y3603D01*
D02*
G37*
G36*
X1530Y2993D02*
X1513Y2990D01*
X1499Y2981D01*
X1490Y2967D01*
X1487Y2950D01*
X1490Y2933D01*
X1499Y2920D01*
X1498Y2917D01*
X1490Y2901D01*
X1480Y2903D01*
X1463Y2900D01*
X1449Y2891D01*
X1440Y2877D01*
X1437Y2860D01*
X1440Y2843D01*
X1449Y2829D01*
X1463Y2820D01*
X1480Y2817D01*
X1497Y2820D01*
X1511Y2829D01*
X1520Y2843D01*
X1523Y2860D01*
X1520Y2877D01*
X1511Y2890D01*
X1512Y2893D01*
X1520Y2909D01*
X1530Y2907D01*
X1547Y2910D01*
X1561Y2919D01*
X1570Y2933D01*
X1573Y2950D01*
X1570Y2967D01*
X1561Y2981D01*
X1547Y2990D01*
X1530Y2993D01*
D02*
G37*
G36*
X1720Y3013D02*
X1703Y3010D01*
X1689Y3001D01*
X1680Y2987D01*
X1677Y2970D01*
X1680Y2954D01*
X1689Y2940D01*
X1680Y2926D01*
X1677Y2910D01*
X1680Y2893D01*
X1689Y2879D01*
X1703Y2870D01*
X1720Y2867D01*
X1737Y2870D01*
X1751Y2879D01*
X1760Y2893D01*
X1763Y2910D01*
X1760Y2926D01*
X1751Y2940D01*
X1760Y2954D01*
X1763Y2970D01*
X1760Y2987D01*
X1751Y3001D01*
X1737Y3010D01*
X1720Y3013D01*
D02*
G37*
G36*
X1236Y3008D02*
X1136D01*
X1116Y3005D01*
X1098Y2998D01*
X1083Y2985D01*
X1070Y2970D01*
X1063Y2952D01*
X1060Y2932D01*
X1063Y2912D01*
X1070Y2894D01*
X1083Y2879D01*
X1098Y2866D01*
X1116Y2859D01*
X1136Y2856D01*
X1236D01*
X1256Y2859D01*
X1274Y2866D01*
X1289Y2879D01*
X1302Y2894D01*
X1309Y2912D01*
X1312Y2932D01*
X1309Y2952D01*
X1302Y2970D01*
X1289Y2985D01*
X1274Y2998D01*
X1256Y3005D01*
X1236Y3008D01*
D02*
G37*
G36*
X1360Y2791D02*
X1340Y2787D01*
X1324Y2776D01*
X1313Y2760D01*
X1309Y2740D01*
X1313Y2720D01*
X1320Y2710D01*
X1313Y2700D01*
X1309Y2680D01*
X1313Y2660D01*
X1324Y2644D01*
X1340Y2633D01*
X1360Y2629D01*
X1376Y2632D01*
X1385Y2625D01*
X1390Y2616D01*
X1387Y2600D01*
X1389Y2590D01*
X1373Y2582D01*
X1370Y2581D01*
X1357Y2590D01*
X1340Y2593D01*
X1323Y2590D01*
X1309Y2581D01*
X1300Y2567D01*
X1297Y2550D01*
X1300Y2533D01*
X1309Y2519D01*
X1323Y2510D01*
X1323Y2507D01*
Y2493D01*
X1323Y2490D01*
X1309Y2481D01*
X1300Y2467D01*
X1297Y2450D01*
X1300Y2433D01*
X1309Y2419D01*
X1323Y2410D01*
X1340Y2407D01*
X1357Y2410D01*
X1371Y2419D01*
X1380Y2433D01*
X1383Y2450D01*
X1380Y2467D01*
X1371Y2481D01*
X1357Y2490D01*
X1357Y2493D01*
Y2507D01*
X1357Y2510D01*
X1371Y2519D01*
X1380Y2533D01*
X1383Y2550D01*
X1381Y2560D01*
X1397Y2568D01*
X1400Y2569D01*
X1413Y2560D01*
X1430Y2557D01*
X1447Y2560D01*
X1461Y2569D01*
X1470Y2583D01*
X1473Y2600D01*
X1470Y2617D01*
X1461Y2631D01*
X1447Y2640D01*
X1430Y2643D01*
X1418Y2641D01*
X1407Y2653D01*
X1405Y2657D01*
X1407Y2660D01*
X1411Y2680D01*
X1407Y2700D01*
X1400Y2710D01*
X1407Y2720D01*
X1411Y2740D01*
X1407Y2760D01*
X1396Y2776D01*
X1380Y2787D01*
X1360Y2791D01*
D02*
G37*
G36*
X1004Y2736D02*
X984Y2732D01*
X968Y2721D01*
X957Y2705D01*
X955Y2694D01*
X945Y2676D01*
X925Y2672D01*
X909Y2661D01*
X898Y2645D01*
X894Y2625D01*
X898Y2605D01*
X909Y2589D01*
X925Y2578D01*
X945Y2574D01*
X965Y2578D01*
X974Y2585D01*
X984Y2578D01*
X1004Y2574D01*
X1024Y2578D01*
X1040Y2589D01*
X1051Y2605D01*
X1055Y2625D01*
X1051Y2645D01*
X1044Y2655D01*
X1051Y2665D01*
X1055Y2685D01*
X1051Y2705D01*
X1040Y2721D01*
X1024Y2732D01*
X1004Y2736D01*
D02*
G37*
G36*
X1180Y2731D02*
X1160Y2727D01*
X1144Y2716D01*
X1133Y2700D01*
X1129Y2680D01*
X1133Y2660D01*
X1144Y2644D01*
X1143Y2621D01*
X1140Y2617D01*
X1137Y2600D01*
X1140Y2583D01*
X1145Y2577D01*
X1148Y2562D01*
X1145Y2548D01*
X1140Y2542D01*
X1137Y2525D01*
X1140Y2508D01*
X1149Y2494D01*
X1163Y2485D01*
X1180Y2482D01*
X1197Y2485D01*
X1211Y2494D01*
X1220Y2508D01*
X1223Y2525D01*
X1220Y2542D01*
X1215Y2548D01*
X1212Y2562D01*
X1215Y2577D01*
X1220Y2583D01*
X1223Y2600D01*
X1220Y2617D01*
X1217Y2621D01*
X1216Y2644D01*
X1227Y2660D01*
X1231Y2680D01*
X1227Y2700D01*
X1216Y2716D01*
X1200Y2727D01*
X1180Y2731D01*
D02*
G37*
G36*
X1004Y2426D02*
X984Y2422D01*
X974Y2415D01*
X965Y2422D01*
X945Y2426D01*
X925Y2422D01*
X909Y2411D01*
X898Y2395D01*
X894Y2375D01*
X898Y2355D01*
X909Y2339D01*
X925Y2328D01*
X945Y2324D01*
X955Y2306D01*
X957Y2295D01*
X968Y2279D01*
X984Y2268D01*
X1004Y2264D01*
X1024Y2268D01*
X1040Y2279D01*
X1051Y2295D01*
X1055Y2315D01*
X1051Y2335D01*
X1044Y2345D01*
X1051Y2355D01*
X1055Y2375D01*
X1051Y2395D01*
X1040Y2411D01*
X1024Y2422D01*
X1004Y2426D01*
D02*
G37*
G36*
X1470Y2423D02*
X1453Y2420D01*
X1439Y2411D01*
X1430Y2397D01*
X1427Y2380D01*
X1430Y2363D01*
X1439Y2349D01*
X1453Y2340D01*
X1470Y2337D01*
X1487Y2340D01*
X1501Y2349D01*
X1510Y2363D01*
X1513Y2380D01*
X1510Y2397D01*
X1501Y2411D01*
X1487Y2420D01*
X1470Y2423D01*
D02*
G37*
G36*
X1180Y2443D02*
X1163Y2440D01*
X1149Y2431D01*
X1140Y2417D01*
X1137Y2400D01*
X1140Y2383D01*
X1143Y2379D01*
X1144Y2356D01*
X1133Y2340D01*
X1129Y2320D01*
X1133Y2300D01*
X1144Y2284D01*
X1160Y2273D01*
X1180Y2269D01*
X1200Y2273D01*
X1216Y2284D01*
X1227Y2300D01*
X1231Y2320D01*
X1227Y2340D01*
X1216Y2356D01*
X1217Y2379D01*
X1220Y2383D01*
X1223Y2400D01*
X1220Y2417D01*
X1211Y2431D01*
X1197Y2440D01*
X1180Y2443D01*
D02*
G37*
G36*
X1360Y2371D02*
X1340Y2367D01*
X1324Y2356D01*
X1313Y2340D01*
X1309Y2320D01*
X1313Y2300D01*
X1320Y2290D01*
X1313Y2280D01*
X1309Y2260D01*
X1313Y2240D01*
X1324Y2224D01*
X1340Y2213D01*
X1360Y2209D01*
X1380Y2213D01*
X1396Y2224D01*
X1407Y2240D01*
X1411Y2260D01*
X1407Y2280D01*
X1400Y2290D01*
X1407Y2300D01*
X1411Y2320D01*
X1407Y2340D01*
X1396Y2356D01*
X1380Y2367D01*
X1360Y2371D01*
D02*
G37*
G36*
X1236Y2144D02*
X1136D01*
X1116Y2141D01*
X1098Y2134D01*
X1083Y2121D01*
X1070Y2106D01*
X1063Y2088D01*
X1060Y2068D01*
X1063Y2048D01*
X1050Y2027D01*
X1034Y2016D01*
X1023Y2000D01*
X1019Y1980D01*
X1023Y1960D01*
X1034Y1944D01*
X1050Y1933D01*
X1070Y1929D01*
X1081Y1931D01*
X1083Y1920D01*
X1090Y1910D01*
X1083Y1900D01*
X1079Y1880D01*
X1061Y1869D01*
X1050Y1867D01*
X1034Y1856D01*
X1023Y1840D01*
X1019Y1820D01*
X1019Y1819D01*
X1001Y1807D01*
X997Y1810D01*
X980Y1813D01*
X963Y1810D01*
X949Y1801D01*
X946Y1796D01*
X946D01*
X932Y1805D01*
X915Y1808D01*
X898Y1805D01*
X884Y1796D01*
X861Y1797D01*
X857Y1800D01*
X840Y1803D01*
X824Y1800D01*
X823Y1800D01*
X810Y1797D01*
X801Y1811D01*
X787Y1820D01*
X770Y1823D01*
X753Y1820D01*
X739Y1811D01*
X730Y1797D01*
X727Y1780D01*
X720Y1763D01*
X703Y1760D01*
X689Y1751D01*
X680Y1737D01*
X677Y1720D01*
X680Y1703D01*
X689Y1689D01*
X703Y1680D01*
X720Y1677D01*
X737Y1680D01*
X751Y1689D01*
X760Y1703D01*
X763Y1720D01*
X768Y1732D01*
X788Y1739D01*
X809Y1731D01*
X809Y1729D01*
X824Y1720D01*
X840Y1717D01*
X857Y1720D01*
X871Y1729D01*
X894Y1728D01*
X898Y1725D01*
X915Y1722D01*
X932Y1725D01*
X946Y1734D01*
X963Y1730D01*
X980Y1727D01*
X997Y1730D01*
X1011Y1739D01*
X1020Y1753D01*
X1023Y1767D01*
X1032Y1774D01*
X1042Y1779D01*
X1050Y1773D01*
X1070Y1769D01*
X1090Y1773D01*
X1100Y1780D01*
X1110Y1773D01*
X1130Y1769D01*
X1150Y1773D01*
X1160Y1780D01*
X1170Y1773D01*
X1190Y1769D01*
X1210Y1773D01*
X1226Y1784D01*
X1237Y1800D01*
X1241Y1820D01*
X1237Y1840D01*
X1230Y1850D01*
X1237Y1860D01*
X1241Y1880D01*
X1237Y1900D01*
X1230Y1910D01*
X1237Y1920D01*
X1241Y1940D01*
X1237Y1960D01*
X1229Y1972D01*
X1233Y1986D01*
X1237Y1993D01*
X1256Y1995D01*
X1274Y2002D01*
X1289Y2015D01*
X1302Y2030D01*
X1309Y2048D01*
X1312Y2068D01*
X1309Y2088D01*
X1302Y2106D01*
X1289Y2121D01*
X1274Y2134D01*
X1256Y2141D01*
X1236Y2144D01*
D02*
G37*
G36*
X1610Y1743D02*
X1593Y1740D01*
X1579Y1731D01*
X1570Y1717D01*
X1567Y1700D01*
X1548Y1691D01*
X1543Y1690D01*
X1535Y1684D01*
X1527Y1690D01*
X1510Y1693D01*
X1493Y1690D01*
X1485Y1684D01*
X1477Y1690D01*
X1460Y1693D01*
X1443Y1690D01*
X1429Y1681D01*
X1420Y1667D01*
X1417Y1650D01*
X1420Y1633D01*
X1429Y1619D01*
X1443Y1610D01*
X1460Y1607D01*
X1477Y1610D01*
X1485Y1616D01*
X1493Y1610D01*
X1510Y1607D01*
X1527Y1610D01*
X1535Y1616D01*
X1543Y1610D01*
X1560Y1607D01*
X1577Y1610D01*
X1585Y1616D01*
X1593Y1610D01*
X1610Y1607D01*
X1627Y1610D01*
X1641Y1619D01*
X1650Y1633D01*
X1653Y1650D01*
X1650Y1667D01*
X1644Y1675D01*
X1650Y1683D01*
X1653Y1700D01*
X1650Y1717D01*
X1641Y1731D01*
X1627Y1740D01*
X1610Y1743D01*
D02*
G37*
G36*
X1350Y1763D02*
X1333Y1760D01*
X1319Y1751D01*
X1310Y1737D01*
X1307Y1720D01*
X1310Y1703D01*
X1319Y1689D01*
X1333Y1680D01*
X1350Y1677D01*
X1367Y1680D01*
X1381Y1689D01*
X1390Y1703D01*
X1393Y1720D01*
X1390Y1737D01*
X1381Y1751D01*
X1367Y1760D01*
X1350Y1763D01*
D02*
G37*
G36*
X1160Y1703D02*
X1143Y1700D01*
X1129Y1691D01*
X1120Y1677D01*
X1117Y1660D01*
X1120Y1643D01*
X1129Y1629D01*
X1143Y1620D01*
X1160Y1617D01*
X1177Y1620D01*
X1191Y1629D01*
X1200Y1643D01*
X1203Y1660D01*
X1200Y1677D01*
X1191Y1691D01*
X1177Y1700D01*
X1160Y1703D01*
D02*
G37*
G36*
X1610Y1553D02*
X1593Y1550D01*
X1585Y1544D01*
X1577Y1550D01*
X1560Y1553D01*
X1543Y1550D01*
X1535Y1544D01*
X1527Y1550D01*
X1510Y1553D01*
X1493Y1550D01*
X1485Y1544D01*
X1477Y1550D01*
X1460Y1553D01*
X1443Y1550D01*
X1429Y1541D01*
X1420Y1527D01*
X1417Y1510D01*
X1420Y1493D01*
X1429Y1479D01*
X1443Y1470D01*
X1460Y1467D01*
X1477Y1470D01*
X1485Y1476D01*
X1493Y1470D01*
X1510Y1467D01*
X1527Y1470D01*
X1535Y1476D01*
X1543Y1470D01*
X1548Y1469D01*
X1567Y1460D01*
X1570Y1443D01*
X1579Y1429D01*
X1593Y1420D01*
X1610Y1417D01*
X1627Y1420D01*
X1641Y1429D01*
X1650Y1443D01*
X1653Y1460D01*
X1650Y1477D01*
X1644Y1485D01*
X1650Y1493D01*
X1653Y1510D01*
X1650Y1527D01*
X1641Y1541D01*
X1627Y1550D01*
X1610Y1553D01*
D02*
G37*
G36*
X610Y1713D02*
X593Y1710D01*
X579Y1701D01*
X570Y1687D01*
X567Y1670D01*
X568Y1663D01*
X553Y1660D01*
X539Y1651D01*
X530Y1637D01*
X527Y1620D01*
X510Y1613D01*
X493Y1610D01*
X479Y1601D01*
X470Y1587D01*
X467Y1570D01*
X470Y1553D01*
X479Y1539D01*
X493Y1530D01*
X508Y1527D01*
X507Y1520D01*
X510Y1503D01*
X519Y1489D01*
X533Y1480D01*
X550Y1477D01*
X567Y1480D01*
X581Y1489D01*
X590Y1503D01*
X593Y1520D01*
X590Y1537D01*
X581Y1551D01*
X570Y1558D01*
X570Y1558D01*
X574Y1577D01*
X587Y1580D01*
X601Y1589D01*
X610Y1603D01*
X613Y1620D01*
X612Y1627D01*
X627Y1630D01*
X641Y1639D01*
X650Y1653D01*
X653Y1670D01*
X650Y1687D01*
X641Y1701D01*
X627Y1710D01*
X610Y1713D01*
D02*
G37*
G36*
X1270Y1526D02*
X1252Y1522D01*
X1238Y1512D01*
X1228Y1498D01*
X1224Y1480D01*
X1228Y1462D01*
X1238Y1448D01*
X1252Y1438D01*
X1270Y1434D01*
X1288Y1438D01*
X1302Y1448D01*
X1312Y1462D01*
X1316Y1480D01*
X1312Y1498D01*
X1302Y1512D01*
X1288Y1522D01*
X1270Y1526D01*
D02*
G37*
G36*
X590Y1423D02*
X573Y1420D01*
X559Y1411D01*
X551D01*
X537Y1420D01*
X520Y1423D01*
X503Y1420D01*
X491Y1411D01*
X472Y1402D01*
X458Y1412D01*
X440Y1416D01*
X422Y1412D01*
X408Y1402D01*
X398Y1388D01*
X394Y1370D01*
X398Y1352D01*
X408Y1338D01*
X422Y1328D01*
X440Y1324D01*
X458Y1328D01*
X472Y1338D01*
X473Y1338D01*
X475Y1340D01*
X499Y1343D01*
X503Y1340D01*
X505Y1334D01*
X508Y1319D01*
X500Y1307D01*
X497Y1290D01*
X500Y1274D01*
X486Y1261D01*
X479Y1249D01*
X466Y1247D01*
X457Y1247D01*
X452Y1253D01*
X438Y1263D01*
X420Y1266D01*
X402Y1263D01*
X388Y1253D01*
X378Y1238D01*
X374Y1220D01*
X378Y1203D01*
X388Y1188D01*
X402Y1178D01*
X420Y1174D01*
X438Y1178D01*
X452Y1188D01*
X461Y1201D01*
X471Y1203D01*
X483Y1204D01*
X486Y1199D01*
X500Y1190D01*
X517Y1187D01*
X534Y1190D01*
X548Y1199D01*
X557Y1213D01*
X560Y1230D01*
X557Y1247D01*
X571Y1260D01*
X580Y1274D01*
X583Y1290D01*
X580Y1307D01*
X571Y1320D01*
X572Y1324D01*
X580Y1339D01*
X590Y1337D01*
X607Y1340D01*
X621Y1349D01*
X630Y1363D01*
X633Y1380D01*
X630Y1397D01*
X621Y1411D01*
X607Y1420D01*
X590Y1423D01*
D02*
G37*
G36*
X1000Y1496D02*
X982Y1492D01*
X968Y1482D01*
X958Y1468D01*
X954Y1450D01*
X958Y1432D01*
X968Y1418D01*
X982Y1408D01*
X1000Y1404D01*
X1018Y1408D01*
X1032Y1418D01*
X1042Y1432D01*
X1046Y1450D01*
X1042Y1468D01*
X1032Y1482D01*
X1018Y1492D01*
X1000Y1496D01*
D02*
G37*
G36*
X850Y1576D02*
X832Y1572D01*
X818Y1562D01*
X808Y1548D01*
X804Y1530D01*
X808Y1512D01*
X817Y1499D01*
X828Y1482D01*
X818Y1468D01*
X814Y1450D01*
X818Y1432D01*
X828Y1418D01*
X842Y1408D01*
X860Y1404D01*
X878Y1408D01*
X892Y1418D01*
X902Y1432D01*
X906Y1450D01*
X902Y1468D01*
X893Y1481D01*
X882Y1498D01*
X892Y1512D01*
X896Y1530D01*
X892Y1548D01*
X882Y1562D01*
X868Y1572D01*
X850Y1576D01*
D02*
G37*
G36*
X270Y1456D02*
X252Y1452D01*
X238Y1442D01*
X228Y1428D01*
X224Y1410D01*
X228Y1392D01*
X238Y1378D01*
X252Y1368D01*
X270Y1364D01*
X288Y1368D01*
X302Y1378D01*
X312Y1392D01*
X316Y1410D01*
X312Y1428D01*
X302Y1442D01*
X288Y1452D01*
X270Y1456D01*
D02*
G37*
G36*
X1334Y1107D02*
X1317Y1104D01*
X1303Y1094D01*
X1296Y1084D01*
X1287Y1090D01*
X1270Y1093D01*
X1253Y1090D01*
X1239Y1081D01*
X1230Y1067D01*
X1227Y1050D01*
X1230Y1033D01*
X1230Y1033D01*
X1218Y1015D01*
X1202Y1012D01*
X1188Y1002D01*
X1178Y988D01*
X1175Y972D01*
X1178Y955D01*
X1188Y941D01*
X1202Y932D01*
X1218Y928D01*
X1235Y932D01*
X1249Y941D01*
X1258Y955D01*
X1262Y972D01*
X1258Y988D01*
X1258Y989D01*
X1270Y1007D01*
X1287Y1010D01*
X1301Y1019D01*
X1308Y1030D01*
X1317Y1024D01*
X1334Y1020D01*
X1337Y1001D01*
X1338Y992D01*
X1345Y975D01*
X1356Y960D01*
X1371Y949D01*
X1388Y942D01*
X1406Y940D01*
X1424Y942D01*
X1441Y949D01*
X1456Y960D01*
X1467Y975D01*
X1474Y992D01*
X1476Y1010D01*
X1474Y1028D01*
X1467Y1045D01*
X1456Y1060D01*
X1441Y1071D01*
X1424Y1078D01*
X1406Y1080D01*
X1388Y1078D01*
X1382Y1075D01*
X1374Y1080D01*
X1364Y1094D01*
X1350Y1104D01*
X1334Y1107D01*
D02*
G37*
G36*
X1100Y1091D02*
X1080Y1087D01*
X1070Y1080D01*
X1060Y1087D01*
X1040Y1091D01*
X1020Y1087D01*
X1004Y1076D01*
X993Y1060D01*
X989Y1040D01*
X993Y1020D01*
X1004Y1004D01*
X1020Y993D01*
X1040Y989D01*
X1060Y993D01*
X1070Y1000D01*
X1080Y993D01*
X1100Y989D01*
X1120Y993D01*
X1136Y1004D01*
X1147Y1020D01*
X1151Y1040D01*
X1147Y1060D01*
X1136Y1076D01*
X1120Y1087D01*
X1100Y1091D01*
D02*
G37*
G36*
X560Y1006D02*
X542Y1002D01*
X528Y992D01*
X518Y978D01*
X514Y960D01*
X518Y942D01*
X528Y928D01*
X542Y918D01*
X560Y914D01*
X578Y918D01*
X592Y928D01*
X602Y942D01*
X606Y960D01*
X602Y978D01*
X592Y992D01*
X578Y1002D01*
X560Y1006D01*
D02*
G37*
G36*
X350Y773D02*
X333Y770D01*
X323Y763D01*
X310Y762D01*
X297Y763D01*
X287Y770D01*
X270Y773D01*
X253Y770D01*
X239Y761D01*
X230Y747D01*
X227Y730D01*
X230Y713D01*
X239Y699D01*
X253Y690D01*
X270Y687D01*
X287Y690D01*
X297Y697D01*
X310Y698D01*
X323Y697D01*
X333Y690D01*
X350Y687D01*
X367Y690D01*
X381Y699D01*
X390Y713D01*
X393Y730D01*
X390Y747D01*
X381Y761D01*
X367Y770D01*
X350Y773D01*
D02*
G37*
G36*
X1580Y551D02*
X1560Y547D01*
X1550Y540D01*
X1540Y547D01*
X1520Y551D01*
X1500Y547D01*
X1484Y536D01*
X1473Y520D01*
X1469Y500D01*
X1473Y480D01*
X1484Y464D01*
X1500Y453D01*
X1520Y449D01*
X1540Y453D01*
X1550Y460D01*
X1560Y453D01*
X1580Y449D01*
X1600Y453D01*
X1616Y464D01*
X1627Y480D01*
X1631Y500D01*
X1627Y520D01*
X1616Y536D01*
X1600Y547D01*
X1580Y551D01*
D02*
G37*
G36*
X420Y553D02*
X403Y550D01*
X389Y541D01*
X380Y527D01*
X377Y527D01*
X363D01*
X360Y527D01*
X351Y541D01*
X337Y550D01*
X320Y553D01*
X303Y550D01*
X289Y541D01*
X280Y527D01*
X277Y510D01*
X280Y493D01*
X289Y479D01*
X303Y470D01*
X320Y467D01*
X337Y470D01*
X351Y479D01*
X360Y493D01*
X363Y493D01*
X377D01*
X380Y493D01*
X389Y479D01*
X403Y470D01*
X420Y467D01*
X437Y470D01*
X451Y479D01*
X460Y493D01*
X463Y510D01*
X460Y527D01*
X451Y541D01*
X437Y550D01*
X420Y553D01*
D02*
G37*
G36*
X560Y551D02*
X540Y547D01*
X524Y536D01*
X513Y520D01*
X509Y500D01*
X513Y480D01*
X524Y464D01*
X540Y453D01*
X560Y449D01*
X580Y453D01*
X596Y464D01*
X607Y480D01*
X611Y500D01*
X607Y520D01*
X596Y536D01*
X580Y547D01*
X560Y551D01*
D02*
G37*
G36*
X1410Y461D02*
X1390Y457D01*
X1374Y446D01*
X1363Y430D01*
X1359Y410D01*
X1363Y390D01*
X1370Y380D01*
X1363Y370D01*
X1359Y350D01*
X1363Y330D01*
X1374Y314D01*
X1390Y303D01*
X1410Y299D01*
X1430Y303D01*
X1446Y314D01*
X1457Y330D01*
X1461Y350D01*
X1457Y370D01*
X1450Y380D01*
X1457Y390D01*
X1461Y410D01*
X1457Y430D01*
X1446Y446D01*
X1430Y457D01*
X1410Y461D01*
D02*
G37*
G36*
X560Y383D02*
X543Y380D01*
X529Y371D01*
X520Y357D01*
X517Y340D01*
X520Y323D01*
X529Y309D01*
X543Y300D01*
X560Y297D01*
X577Y300D01*
X591Y309D01*
X600Y323D01*
X603Y340D01*
X600Y357D01*
X591Y371D01*
X577Y380D01*
X560Y383D01*
D02*
G37*
G36*
X750Y271D02*
X730Y267D01*
X714Y256D01*
X712Y253D01*
X688D01*
X686Y256D01*
X670Y267D01*
X650Y271D01*
X630Y267D01*
X614Y256D01*
X603Y240D01*
X599Y220D01*
X603Y200D01*
X610Y190D01*
X603Y180D01*
X599Y160D01*
X603Y140D01*
X614Y124D01*
X630Y113D01*
X650Y109D01*
X670Y113D01*
X686Y124D01*
X688Y127D01*
X712D01*
X714Y124D01*
X730Y113D01*
X750Y109D01*
X770Y113D01*
X786Y124D01*
X797Y140D01*
X801Y160D01*
X797Y180D01*
X790Y190D01*
X797Y200D01*
X801Y220D01*
X797Y240D01*
X786Y256D01*
X770Y267D01*
X750Y271D01*
D02*
G37*
G36*
X480Y283D02*
X463Y280D01*
X449Y271D01*
X440Y257D01*
X437Y240D01*
X440Y223D01*
X449Y209D01*
X463Y200D01*
X480Y197D01*
X497Y200D01*
X511Y209D01*
X520Y223D01*
X523Y240D01*
X520Y257D01*
X511Y271D01*
X497Y280D01*
X480Y283D01*
D02*
G37*
G36*
X2280Y4681D02*
X2260Y4677D01*
X2244Y4666D01*
X2233Y4650D01*
X2229Y4630D01*
X2233Y4610D01*
X2244Y4594D01*
X2260Y4583D01*
X2280Y4579D01*
X2300Y4583D01*
X2316Y4594D01*
X2327Y4610D01*
X2331Y4630D01*
X2327Y4650D01*
X2316Y4666D01*
X2300Y4677D01*
X2280Y4681D01*
D02*
G37*
G36*
X3340Y4663D02*
X3323Y4660D01*
X3309Y4651D01*
X3300Y4637D01*
X3297Y4620D01*
X3300Y4603D01*
X3309Y4589D01*
X3323Y4580D01*
X3340Y4577D01*
X3357Y4580D01*
X3371Y4589D01*
X3380Y4603D01*
X3383Y4620D01*
X3380Y4637D01*
X3371Y4651D01*
X3357Y4660D01*
X3340Y4663D01*
D02*
G37*
G36*
X3170Y4556D02*
X3152Y4552D01*
X3138Y4542D01*
X3128Y4528D01*
X3124Y4510D01*
X3128Y4492D01*
X3138Y4478D01*
X3152Y4468D01*
X3170Y4464D01*
X3188Y4468D01*
X3202Y4478D01*
X3212Y4492D01*
X3216Y4510D01*
X3212Y4528D01*
X3202Y4542D01*
X3188Y4552D01*
X3170Y4556D01*
D02*
G37*
G36*
X3075Y4446D02*
X3057Y4442D01*
X3043Y4432D01*
X3017Y4430D01*
X3017Y4430D01*
X3000Y4433D01*
X2983Y4430D01*
X2981Y4429D01*
X2962Y4432D01*
X2948Y4442D01*
X2930Y4446D01*
X2912Y4442D01*
X2898Y4432D01*
X2888Y4418D01*
X2884Y4400D01*
X2888Y4382D01*
X2898Y4368D01*
X2912Y4358D01*
X2930Y4354D01*
X2948Y4358D01*
X2949Y4358D01*
X2966Y4364D01*
X2969Y4359D01*
X2983Y4350D01*
X3000Y4347D01*
X3017Y4350D01*
X3031Y4359D01*
X3031Y4359D01*
X3043Y4368D01*
X3057Y4358D01*
X3075Y4354D01*
X3093Y4358D01*
X3107Y4368D01*
X3117Y4382D01*
X3121Y4400D01*
X3117Y4418D01*
X3107Y4432D01*
X3093Y4442D01*
X3075Y4446D01*
D02*
G37*
G36*
X1710Y4423D02*
X1693Y4420D01*
X1679Y4411D01*
X1671D01*
X1657Y4420D01*
X1640Y4423D01*
X1623Y4420D01*
X1609Y4411D01*
X1600Y4397D01*
X1597Y4380D01*
X1600Y4363D01*
X1609Y4349D01*
X1623Y4340D01*
X1640Y4337D01*
X1657Y4340D01*
X1671Y4349D01*
X1679D01*
X1693Y4340D01*
X1710Y4337D01*
X1727Y4340D01*
X1741Y4349D01*
X1750Y4363D01*
X1753Y4380D01*
X1750Y4397D01*
X1741Y4411D01*
X1727Y4420D01*
X1710Y4423D01*
D02*
G37*
G36*
X2500Y4471D02*
X2480Y4467D01*
X2464Y4456D01*
X2453Y4440D01*
X2449Y4420D01*
X2453Y4400D01*
X2464Y4384D01*
X2480Y4373D01*
X2500Y4369D01*
X2520Y4373D01*
X2536Y4384D01*
X2547Y4400D01*
X2551Y4420D01*
X2547Y4440D01*
X2536Y4456D01*
X2520Y4467D01*
X2500Y4471D01*
D02*
G37*
G36*
X2700Y4376D02*
X2682Y4372D01*
X2668Y4362D01*
X2658Y4348D01*
X2654Y4330D01*
X2658Y4312D01*
X2663Y4305D01*
X2658Y4298D01*
X2654Y4280D01*
X2658Y4262D01*
X2668Y4248D01*
X2682Y4238D01*
X2700Y4234D01*
X2718Y4238D01*
X2732Y4248D01*
X2742Y4262D01*
X2746Y4280D01*
X2742Y4298D01*
X2737Y4305D01*
X2742Y4312D01*
X2746Y4330D01*
X2742Y4348D01*
X2732Y4362D01*
X2718Y4372D01*
X2700Y4376D01*
D02*
G37*
G36*
X3450Y3301D02*
X3430Y3297D01*
X3414Y3286D01*
X3403Y3270D01*
X3399Y3250D01*
X3403Y3230D01*
X3410Y3220D01*
X3403Y3210D01*
X3399Y3190D01*
X3403Y3170D01*
X3414Y3154D01*
X3430Y3143D01*
X3450Y3139D01*
X3470Y3143D01*
X3486Y3154D01*
X3497Y3170D01*
X3501Y3190D01*
X3497Y3210D01*
X3490Y3220D01*
X3497Y3230D01*
X3501Y3250D01*
X3497Y3270D01*
X3486Y3286D01*
X3470Y3297D01*
X3450Y3301D01*
D02*
G37*
G36*
X3250Y3173D02*
X3233Y3170D01*
X3219Y3161D01*
X3210Y3147D01*
X3207Y3130D01*
X3210Y3113D01*
X3219Y3099D01*
X3233Y3090D01*
X3250Y3087D01*
X3267Y3090D01*
X3281Y3099D01*
X3290Y3113D01*
X3293Y3130D01*
X3290Y3147D01*
X3281Y3161D01*
X3267Y3170D01*
X3250Y3173D01*
D02*
G37*
G36*
X3550Y3111D02*
X3530Y3107D01*
X3514Y3096D01*
X3503Y3080D01*
X3499Y3060D01*
X3503Y3040D01*
X3514Y3024D01*
X3530Y3013D01*
X3550Y3009D01*
X3570Y3013D01*
X3586Y3024D01*
X3597Y3040D01*
X3601Y3060D01*
X3597Y3080D01*
X3586Y3096D01*
X3570Y3107D01*
X3550Y3111D01*
D02*
G37*
G36*
X4210Y3071D02*
X4190Y3067D01*
X4174Y3056D01*
X4163Y3040D01*
X4159Y3020D01*
X4163Y3000D01*
X4174Y2984D01*
X4190Y2973D01*
X4210Y2969D01*
X4230Y2973D01*
X4246Y2984D01*
X4257Y3000D01*
X4261Y3020D01*
X4257Y3040D01*
X4246Y3056D01*
X4230Y3067D01*
X4210Y3071D01*
D02*
G37*
G36*
X2450Y3003D02*
X2433Y3000D01*
X2419Y2991D01*
X2410Y2977D01*
X2407Y2960D01*
X2410Y2943D01*
X2419Y2929D01*
X2433Y2920D01*
X2450Y2917D01*
X2467Y2920D01*
X2481Y2929D01*
X2490Y2943D01*
X2493Y2960D01*
X2490Y2977D01*
X2481Y2991D01*
X2467Y3000D01*
X2450Y3003D01*
D02*
G37*
G36*
X2670Y3063D02*
X2653Y3060D01*
X2639Y3051D01*
X2630Y3037D01*
X2627Y3020D01*
X2630Y3003D01*
X2635Y2997D01*
X2634Y2981D01*
X2628Y2973D01*
X2619Y2966D01*
X2610Y2952D01*
X2607Y2936D01*
X2610Y2919D01*
X2619Y2905D01*
X2633Y2896D01*
X2650Y2893D01*
X2667Y2896D01*
X2681Y2905D01*
X2700Y2901D01*
X2703Y2900D01*
X2720Y2896D01*
X2736Y2900D01*
X2750Y2909D01*
X2760Y2923D01*
X2763Y2940D01*
X2760Y2956D01*
X2750Y2970D01*
X2736Y2980D01*
X2720Y2983D01*
X2709Y3001D01*
X2710Y3003D01*
X2713Y3020D01*
X2710Y3037D01*
X2701Y3051D01*
X2687Y3060D01*
X2670Y3063D01*
D02*
G37*
G36*
X2205Y2923D02*
X2188Y2920D01*
X2174Y2911D01*
X2165Y2897D01*
X2162Y2880D01*
X2165Y2863D01*
X2174Y2849D01*
X2188Y2840D01*
X2205Y2837D01*
X2222Y2840D01*
X2236Y2849D01*
X2245Y2863D01*
X2248Y2880D01*
X2245Y2897D01*
X2236Y2911D01*
X2222Y2920D01*
X2205Y2923D01*
D02*
G37*
G36*
X4688Y3176D02*
X4670Y3174D01*
X4653Y3167D01*
X4639Y3156D01*
X4628Y3141D01*
X4621Y3124D01*
X4618Y3106D01*
X4621Y3088D01*
X4628Y3071D01*
X4631Y3066D01*
X4629Y3041D01*
X4620Y3027D01*
X4618Y3016D01*
X4609Y3010D01*
X4582Y2984D01*
X4576Y2975D01*
X4574Y2964D01*
Y2853D01*
X4554Y2833D01*
X4300D01*
X4283Y2850D01*
X4280Y2867D01*
X4271Y2881D01*
X4257Y2890D01*
X4240Y2893D01*
X4223Y2890D01*
X4210Y2881D01*
X4196Y2890D01*
X4180Y2893D01*
X4163Y2890D01*
X4149Y2895D01*
X4146Y2907D01*
X4150Y2914D01*
X4154Y2930D01*
X4150Y2947D01*
X4141Y2961D01*
X4127Y2970D01*
X4110Y2974D01*
X4094Y2970D01*
X4082Y2962D01*
X4080Y2961D01*
X4061Y2961D01*
X4058Y2962D01*
X4047Y2970D01*
X4030Y2973D01*
X4013Y2970D01*
X3999Y2961D01*
X3990Y2947D01*
X3987Y2930D01*
X3990Y2913D01*
X3999Y2899D01*
X4013Y2890D01*
X4022Y2888D01*
X4021Y2868D01*
X3695D01*
X3689Y2888D01*
X3691Y2889D01*
X3700Y2903D01*
X3703Y2920D01*
X3700Y2937D01*
X3691Y2951D01*
X3677Y2960D01*
X3660Y2963D01*
X3643Y2960D01*
X3629Y2951D01*
X3620Y2937D01*
X3617Y2920D01*
X3620Y2903D01*
X3629Y2889D01*
X3631Y2888D01*
X3625Y2868D01*
X3462D01*
X3428Y2902D01*
Y2922D01*
X3434Y2927D01*
X3448Y2935D01*
X3460Y2932D01*
X3477Y2935D01*
X3490Y2920D01*
X3490Y2920D01*
X3504Y2910D01*
X3520Y2907D01*
X3537Y2910D01*
X3551Y2920D01*
X3560Y2934D01*
X3564Y2950D01*
X3560Y2967D01*
X3551Y2981D01*
X3537Y2990D01*
X3520Y2994D01*
X3504Y2990D01*
X3491Y3006D01*
X3491Y3006D01*
X3477Y3015D01*
X3460Y3019D01*
X3444Y3015D01*
X3432Y3008D01*
X3431Y3011D01*
X3417Y3020D01*
X3400Y3023D01*
X3383Y3020D01*
X3369Y3011D01*
X3360Y2997D01*
X3357Y2980D01*
X3360Y2963D01*
X3369Y2949D01*
X3372Y2948D01*
Y2890D01*
X3374Y2879D01*
X3380Y2870D01*
X3430Y2820D01*
X3439Y2814D01*
X3450Y2812D01*
X4048D01*
X4214Y2646D01*
X4204Y2627D01*
X4200Y2628D01*
X4183Y2625D01*
X4169Y2616D01*
X4160Y2602D01*
X4157Y2585D01*
X4160Y2568D01*
X4169Y2554D01*
X4183Y2545D01*
X4200Y2542D01*
X4217Y2545D01*
X4231Y2554D01*
X4240Y2568D01*
X4243Y2585D01*
X4242Y2589D01*
X4261Y2599D01*
X4390Y2470D01*
X4399Y2464D01*
X4410Y2462D01*
X4448D01*
X4517Y2393D01*
X4517Y2390D01*
X4520Y2373D01*
X4529Y2359D01*
Y2351D01*
X4520Y2337D01*
X4517Y2320D01*
X4518Y2311D01*
X4506Y2291D01*
X4200D01*
X4180Y2287D01*
X4180Y2287D01*
X4160Y2287D01*
X4151Y2301D01*
X4137Y2310D01*
X4120Y2313D01*
X4103Y2310D01*
X4089Y2301D01*
X4080Y2287D01*
X4077Y2270D01*
X4078Y2261D01*
X4066Y2241D01*
X3621D01*
X3506Y2356D01*
X3490Y2367D01*
X3489Y2367D01*
X3480Y2373D01*
X3483Y2390D01*
X3480Y2407D01*
X3471Y2421D01*
X3467Y2423D01*
Y2447D01*
X3471Y2449D01*
X3480Y2463D01*
X3483Y2480D01*
X3480Y2497D01*
X3471Y2511D01*
X3457Y2520D01*
X3440Y2523D01*
X3423Y2520D01*
X3409Y2511D01*
X3400Y2497D01*
X3397Y2480D01*
X3400Y2463D01*
X3409Y2449D01*
X3413Y2447D01*
Y2423D01*
X3409Y2421D01*
X3400Y2407D01*
X3397Y2390D01*
X3400Y2373D01*
X3409Y2359D01*
X3423Y2350D01*
X3421Y2330D01*
X3419Y2320D01*
X3423Y2300D01*
X3434Y2284D01*
X3564Y2154D01*
X3580Y2143D01*
X3600Y2139D01*
X4150D01*
X4170Y2143D01*
X4186Y2154D01*
X4221Y2189D01*
X4610D01*
X4622Y2170D01*
X4622Y2169D01*
X4609Y2161D01*
X4600Y2147D01*
X4597Y2130D01*
X4598Y2123D01*
X4583Y2120D01*
X4569Y2111D01*
X4560Y2097D01*
X4557Y2080D01*
X4560Y2063D01*
X4569Y2049D01*
X4583Y2040D01*
X4600Y2037D01*
X4617Y2040D01*
X4631Y2049D01*
X4640Y2063D01*
X4643Y2080D01*
X4642Y2087D01*
X4657Y2090D01*
X4671Y2099D01*
X4679D01*
X4693Y2090D01*
X4710Y2087D01*
X4727Y2090D01*
X4741Y2099D01*
X4750Y2113D01*
X4753Y2130D01*
X4750Y2147D01*
X4741Y2160D01*
X4742Y2163D01*
X4750Y2179D01*
X4760Y2177D01*
X4777Y2180D01*
X4791Y2189D01*
X4800Y2203D01*
X4803Y2220D01*
X4800Y2237D01*
X4791Y2251D01*
X4777Y2260D01*
X4760Y2263D01*
X4743Y2260D01*
X4729Y2251D01*
X4721Y2239D01*
X4720Y2237D01*
X4701Y2240D01*
X4701Y2242D01*
X4697Y2260D01*
X4686Y2276D01*
X4670Y2287D01*
X4650Y2291D01*
X4614D01*
X4602Y2311D01*
X4603Y2320D01*
X4600Y2337D01*
X4591Y2351D01*
Y2359D01*
X4600Y2373D01*
X4603Y2390D01*
X4600Y2407D01*
X4591Y2421D01*
X4577Y2430D01*
X4560Y2433D01*
X4557Y2433D01*
X4480Y2510D01*
X4471Y2516D01*
X4460Y2518D01*
X4422D01*
X4182Y2758D01*
X4189Y2776D01*
X4566D01*
X4577Y2779D01*
X4586Y2785D01*
X4622Y2821D01*
X4628Y2830D01*
X4650Y2837D01*
X4667Y2840D01*
X4681Y2849D01*
X4690Y2863D01*
X4693Y2880D01*
X4690Y2897D01*
X4681Y2911D01*
X4688Y2928D01*
X4691Y2945D01*
X4688Y2962D01*
X4680Y2973D01*
X4691Y2979D01*
X4700Y2993D01*
X4703Y3010D01*
X4702Y3017D01*
X4705Y3032D01*
X4714Y3041D01*
X4723Y3045D01*
X4738Y3056D01*
X4749Y3071D01*
X4756Y3088D01*
X4759Y3106D01*
X4756Y3124D01*
X4749Y3141D01*
X4738Y3156D01*
X4723Y3167D01*
X4707Y3174D01*
X4688Y3176D01*
D02*
G37*
G36*
X2980Y2773D02*
X2963Y2770D01*
X2960Y2768D01*
X2945Y2762D01*
X2930Y2768D01*
X2927Y2770D01*
X2910Y2773D01*
X2893Y2770D01*
X2890Y2768D01*
X2875Y2762D01*
X2860Y2768D01*
X2857Y2770D01*
X2840Y2773D01*
X2823Y2770D01*
X2809Y2761D01*
X2807Y2757D01*
X2783D01*
X2781Y2761D01*
X2767Y2770D01*
X2750Y2773D01*
X2733Y2770D01*
X2719Y2761D01*
X2702Y2765D01*
X2685Y2768D01*
X2668Y2765D01*
X2654Y2756D01*
X2651D01*
X2637Y2765D01*
X2620Y2768D01*
X2603Y2765D01*
X2589Y2756D01*
X2580Y2742D01*
X2577Y2725D01*
X2580Y2708D01*
X2589Y2694D01*
X2603Y2685D01*
X2620Y2682D01*
X2637Y2685D01*
X2651Y2694D01*
X2654D01*
X2668Y2685D01*
X2685Y2682D01*
X2702Y2685D01*
X2716Y2694D01*
X2733Y2690D01*
X2750Y2687D01*
X2767Y2690D01*
X2781Y2699D01*
X2783Y2703D01*
X2807D01*
X2809Y2699D01*
X2823Y2690D01*
X2840Y2687D01*
X2857Y2690D01*
X2860Y2692D01*
X2875Y2698D01*
X2890Y2692D01*
X2893Y2690D01*
X2910Y2687D01*
X2927Y2690D01*
X2930Y2692D01*
X2945Y2698D01*
X2960Y2692D01*
X2963Y2690D01*
X2980Y2687D01*
X2997Y2690D01*
X3011Y2699D01*
X3020Y2713D01*
X3023Y2730D01*
X3020Y2747D01*
X3011Y2761D01*
X2997Y2770D01*
X2980Y2773D01*
D02*
G37*
G36*
X2300Y2861D02*
X2280Y2857D01*
X2264Y2846D01*
X2253Y2830D01*
X2249Y2810D01*
X2253Y2790D01*
X2264Y2774D01*
X2280Y2763D01*
X2300Y2759D01*
X2320Y2763D01*
X2336Y2774D01*
X2347Y2790D01*
X2351Y2810D01*
X2347Y2830D01*
X2336Y2846D01*
X2320Y2857D01*
X2300Y2861D01*
D02*
G37*
G36*
X3100Y2774D02*
X3083Y2770D01*
X3069Y2761D01*
X3060Y2747D01*
X3057Y2730D01*
X3060Y2714D01*
X3069Y2700D01*
X3083Y2690D01*
X3100Y2687D01*
X3117Y2690D01*
X3131Y2700D01*
X3139D01*
X3139Y2699D01*
X3153Y2690D01*
X3170Y2687D01*
X3187Y2690D01*
X3201Y2699D01*
X3210Y2713D01*
X3213Y2730D01*
X3210Y2747D01*
X3201Y2761D01*
X3187Y2770D01*
X3170Y2773D01*
X3153Y2770D01*
X3139Y2761D01*
X3131D01*
X3131Y2761D01*
X3117Y2770D01*
X3100Y2774D01*
D02*
G37*
G36*
X3870Y2773D02*
X3853Y2770D01*
X3839Y2761D01*
X3830Y2747D01*
X3827Y2732D01*
X3820Y2713D01*
X3803Y2710D01*
X3789Y2701D01*
X3780Y2687D01*
X3779Y2681D01*
X3777Y2680D01*
X3760Y2683D01*
X3743Y2680D01*
X3729Y2671D01*
X3711D01*
X3697Y2680D01*
X3680Y2683D01*
X3663Y2680D01*
X3649Y2671D01*
X3640Y2657D01*
X3637Y2640D01*
X3640Y2623D01*
X3649Y2609D01*
X3663Y2600D01*
X3680Y2597D01*
X3697Y2600D01*
X3711Y2609D01*
X3729D01*
X3743Y2600D01*
X3760Y2597D01*
X3777Y2600D01*
X3791Y2609D01*
X3800Y2623D01*
X3801Y2629D01*
X3803Y2630D01*
X3820Y2627D01*
X3827Y2628D01*
X3840Y2626D01*
X3849Y2614D01*
X3850Y2608D01*
X3859Y2594D01*
X3873Y2585D01*
X3890Y2581D01*
X3907Y2585D01*
X3921Y2594D01*
X3930Y2608D01*
X3933Y2625D01*
X3930Y2641D01*
X3921Y2655D01*
X3907Y2665D01*
X3890Y2668D01*
X3883Y2676D01*
X3887Y2690D01*
X3901Y2699D01*
X3910Y2713D01*
X3913Y2730D01*
X3910Y2747D01*
X3901Y2761D01*
X3887Y2770D01*
X3870Y2773D01*
D02*
G37*
G36*
X3376Y2773D02*
X3360Y2770D01*
X3345Y2761D01*
X3336Y2747D01*
X3333Y2730D01*
X3336Y2713D01*
X3345Y2699D01*
X3360Y2690D01*
X3376Y2687D01*
X3393Y2690D01*
X3409Y2679D01*
X3423Y2670D01*
X3440Y2667D01*
X3457Y2670D01*
X3471Y2679D01*
X3480Y2693D01*
X3483Y2710D01*
X3480Y2727D01*
X3471Y2741D01*
X3457Y2750D01*
X3440Y2753D01*
X3423Y2750D01*
X3407Y2761D01*
X3407Y2761D01*
X3406Y2761D01*
X3393Y2770D01*
X3376Y2773D01*
D02*
G37*
G36*
X3320Y2673D02*
X3303Y2670D01*
X3289Y2661D01*
X3280Y2647D01*
X3277Y2630D01*
X3280Y2613D01*
X3289Y2599D01*
X3303Y2590D01*
X3320Y2587D01*
X3337Y2590D01*
X3351Y2599D01*
X3360Y2613D01*
X3363Y2630D01*
X3360Y2647D01*
X3351Y2661D01*
X3337Y2670D01*
X3320Y2673D01*
D02*
G37*
G36*
X2400Y2649D02*
X2383Y2645D01*
X2369Y2636D01*
X2360Y2622D01*
X2357Y2605D01*
X2360Y2589D01*
X2369Y2575D01*
X2383Y2565D01*
X2400Y2562D01*
X2417Y2565D01*
X2431Y2575D01*
X2440Y2589D01*
X2443Y2605D01*
X2440Y2622D01*
X2431Y2636D01*
X2417Y2645D01*
X2400Y2649D01*
D02*
G37*
G36*
X2790Y2623D02*
X2773Y2620D01*
X2759Y2611D01*
X2750Y2597D01*
X2747Y2580D01*
X2748Y2573D01*
X2733Y2570D01*
X2719Y2561D01*
X2710Y2547D01*
X2710Y2545D01*
X2697Y2531D01*
X2688Y2532D01*
X2680Y2533D01*
X2663Y2530D01*
X2649Y2521D01*
X2640Y2507D01*
X2637Y2490D01*
X2640Y2473D01*
X2649Y2459D01*
X2663Y2450D01*
X2680Y2447D01*
X2687Y2428D01*
X2690Y2413D01*
X2699Y2399D01*
X2713Y2390D01*
X2730Y2387D01*
X2745Y2390D01*
X2748Y2375D01*
X2757Y2361D01*
X2759Y2360D01*
X2750Y2347D01*
X2747Y2330D01*
X2750Y2313D01*
X2759Y2299D01*
Y2291D01*
X2750Y2277D01*
X2747Y2260D01*
X2750Y2243D01*
X2759Y2229D01*
X2773Y2220D01*
X2790Y2217D01*
X2807Y2220D01*
X2821Y2229D01*
X2830Y2243D01*
X2833Y2260D01*
X2830Y2277D01*
X2821Y2291D01*
Y2299D01*
X2830Y2313D01*
X2833Y2330D01*
X2830Y2347D01*
X2821Y2361D01*
X2819Y2362D01*
X2828Y2375D01*
X2831Y2392D01*
X2828Y2409D01*
X2819Y2423D01*
X2805Y2432D01*
X2788Y2435D01*
X2773Y2432D01*
X2770Y2447D01*
X2761Y2461D01*
X2750Y2468D01*
X2750Y2468D01*
X2754Y2487D01*
X2767Y2490D01*
X2781Y2499D01*
X2790Y2513D01*
X2793Y2530D01*
X2792Y2537D01*
X2807Y2540D01*
X2821Y2549D01*
X2830Y2563D01*
X2833Y2580D01*
X2830Y2597D01*
X2821Y2611D01*
X2807Y2620D01*
X2790Y2623D01*
D02*
G37*
G36*
X2390Y2503D02*
X2374Y2500D01*
X2360Y2491D01*
X2347Y2500D01*
X2330Y2503D01*
X2313Y2500D01*
X2299Y2491D01*
X2290Y2477D01*
X2287Y2460D01*
X2290Y2443D01*
X2299Y2429D01*
X2313Y2420D01*
X2330Y2417D01*
X2347Y2420D01*
X2360Y2429D01*
X2374Y2420D01*
X2390Y2417D01*
X2407Y2420D01*
X2421Y2429D01*
X2430Y2443D01*
X2434Y2460D01*
X2430Y2477D01*
X2421Y2491D01*
X2407Y2500D01*
X2390Y2503D01*
D02*
G37*
G36*
X4630Y2723D02*
X4613Y2720D01*
X4599Y2711D01*
X4590Y2697D01*
X4587Y2680D01*
X4590Y2663D01*
X4599Y2649D01*
X4613Y2640D01*
X4618Y2639D01*
X4622Y2638D01*
Y2618D01*
X4613Y2616D01*
X4599Y2607D01*
X4590Y2593D01*
X4586Y2576D01*
X4570Y2563D01*
X4553Y2560D01*
X4539Y2551D01*
X4530Y2537D01*
X4527Y2520D01*
X4530Y2503D01*
X4539Y2489D01*
X4553Y2480D01*
X4570Y2477D01*
X4587Y2480D01*
X4601Y2489D01*
X4610Y2503D01*
X4613Y2520D01*
X4630Y2533D01*
X4646Y2536D01*
X4660Y2545D01*
X4670Y2559D01*
X4673Y2576D01*
X4670Y2593D01*
X4660Y2607D01*
X4646Y2616D01*
X4642Y2617D01*
X4638Y2618D01*
Y2638D01*
X4647Y2640D01*
X4661Y2649D01*
X4670Y2663D01*
X4673Y2680D01*
X4670Y2697D01*
X4661Y2711D01*
X4647Y2720D01*
X4630Y2723D01*
D02*
G37*
G36*
X4680Y2503D02*
X4663Y2500D01*
X4649Y2491D01*
X4640Y2477D01*
X4637Y2460D01*
X4640Y2443D01*
X4649Y2429D01*
X4663Y2420D01*
X4680Y2417D01*
X4697Y2420D01*
X4711Y2429D01*
X4720Y2443D01*
X4723Y2460D01*
X4720Y2477D01*
X4711Y2491D01*
X4697Y2500D01*
X4680Y2503D01*
D02*
G37*
G36*
X4080D02*
X4063Y2500D01*
X4049Y2491D01*
X4040Y2477D01*
X4037Y2460D01*
X4040Y2443D01*
X4049Y2429D01*
X4063Y2420D01*
X4080Y2417D01*
X4097Y2420D01*
X4111Y2429D01*
X4120Y2443D01*
X4123Y2460D01*
X4120Y2477D01*
X4111Y2491D01*
X4097Y2500D01*
X4080Y2503D01*
D02*
G37*
G36*
X3800Y2523D02*
X3783Y2520D01*
X3769Y2511D01*
X3760Y2497D01*
X3757Y2480D01*
X3760Y2463D01*
X3768Y2451D01*
X3766Y2438D01*
X3763Y2430D01*
X3749Y2421D01*
X3740Y2407D01*
X3737Y2390D01*
X3740Y2373D01*
X3739Y2371D01*
X3733Y2370D01*
X3719Y2361D01*
X3710Y2347D01*
X3707Y2330D01*
X3710Y2313D01*
X3719Y2299D01*
X3733Y2290D01*
X3750Y2287D01*
X3767Y2290D01*
X3781Y2299D01*
X3790Y2313D01*
X3793Y2330D01*
X3790Y2347D01*
X3791Y2349D01*
X3797Y2350D01*
X3811Y2359D01*
X3820Y2373D01*
X3828Y2376D01*
X3841Y2378D01*
X3853Y2370D01*
X3870Y2367D01*
X3887Y2370D01*
X3901Y2379D01*
X3910Y2393D01*
X3913Y2410D01*
X3910Y2427D01*
X3901Y2441D01*
X3887Y2450D01*
X3870Y2453D01*
X3855Y2450D01*
X3847Y2457D01*
X3840Y2465D01*
X3843Y2480D01*
X3840Y2497D01*
X3831Y2511D01*
X3817Y2520D01*
X3800Y2523D01*
D02*
G37*
G36*
X2170Y2443D02*
X2153Y2440D01*
X2139Y2431D01*
X2130Y2417D01*
X2127Y2400D01*
X2130Y2383D01*
X2139Y2369D01*
X2153Y2360D01*
X2170Y2357D01*
X2187Y2360D01*
X2201Y2369D01*
X2210Y2383D01*
X2213Y2400D01*
X2210Y2417D01*
X2201Y2431D01*
X2187Y2440D01*
X2170Y2443D01*
D02*
G37*
G36*
X2031Y2503D02*
X2014Y2499D01*
X2000Y2490D01*
X1991Y2476D01*
X1987Y2459D01*
X1991Y2443D01*
X2000Y2429D01*
X2001Y2428D01*
X1992Y2416D01*
X1989Y2399D01*
X1992Y2383D01*
X2002Y2368D01*
X2016Y2359D01*
X2032Y2356D01*
X2049Y2359D01*
X2063Y2368D01*
X2072Y2383D01*
X2076Y2399D01*
X2072Y2416D01*
X2063Y2430D01*
X2062Y2430D01*
X2071Y2443D01*
X2074Y2459D01*
X2071Y2476D01*
X2061Y2490D01*
X2047Y2499D01*
X2031Y2503D01*
D02*
G37*
G36*
X4870Y2333D02*
X4853Y2330D01*
X4839Y2321D01*
X4830Y2307D01*
X4827Y2290D01*
X4830Y2273D01*
X4839Y2259D01*
Y2251D01*
X4830Y2237D01*
X4827Y2220D01*
X4830Y2203D01*
X4839Y2189D01*
X4853Y2180D01*
X4870Y2177D01*
X4887Y2180D01*
X4901Y2189D01*
X4910Y2203D01*
X4913Y2220D01*
X4910Y2237D01*
X4901Y2251D01*
Y2259D01*
X4910Y2273D01*
X4913Y2290D01*
X4910Y2307D01*
X4901Y2321D01*
X4887Y2330D01*
X4870Y2333D01*
D02*
G37*
G36*
X2390Y2333D02*
X2373Y2330D01*
X2359Y2321D01*
X2350Y2307D01*
X2347Y2290D01*
X2350Y2273D01*
X2359Y2259D01*
X2373Y2251D01*
X2374Y2244D01*
X2374Y2237D01*
X2373Y2230D01*
X2360Y2221D01*
X2350Y2207D01*
X2347Y2190D01*
X2350Y2174D01*
X2360Y2160D01*
X2374Y2150D01*
X2390Y2147D01*
X2407Y2150D01*
X2421Y2160D01*
X2430Y2174D01*
X2434Y2190D01*
X2430Y2207D01*
X2421Y2221D01*
X2408Y2230D01*
X2407Y2237D01*
X2407Y2244D01*
X2408Y2251D01*
X2421Y2259D01*
X2430Y2273D01*
X2433Y2290D01*
X2430Y2307D01*
X2421Y2321D01*
X2407Y2330D01*
X2390Y2333D01*
D02*
G37*
G36*
X1930Y2293D02*
X1913Y2290D01*
X1899Y2281D01*
X1890Y2267D01*
X1887Y2250D01*
X1890Y2233D01*
X1899Y2219D01*
Y2211D01*
X1890Y2197D01*
X1887Y2180D01*
X1890Y2163D01*
X1899Y2149D01*
X1913Y2140D01*
X1930Y2137D01*
X1947Y2140D01*
X1961Y2149D01*
X1969D01*
X1983Y2140D01*
X2000Y2137D01*
X2017Y2140D01*
X2030Y2149D01*
X2044Y2140D01*
X2060Y2137D01*
X2077Y2140D01*
X2091Y2149D01*
X2100Y2163D01*
X2104Y2180D01*
X2100Y2197D01*
X2091Y2211D01*
X2077Y2220D01*
X2060Y2223D01*
X2044Y2220D01*
X2030Y2211D01*
X2017Y2220D01*
X2000Y2223D01*
X1985Y2220D01*
X1977Y2227D01*
X1970Y2235D01*
X1973Y2250D01*
X1970Y2267D01*
X1961Y2281D01*
X1947Y2290D01*
X1930Y2293D01*
D02*
G37*
G36*
X3180Y2133D02*
X3163Y2130D01*
X3160Y2128D01*
X3145Y2122D01*
X3130Y2128D01*
X3127Y2130D01*
X3110Y2133D01*
X3093Y2130D01*
X3079Y2121D01*
X3070Y2107D01*
X3067Y2090D01*
X3070Y2073D01*
X3079Y2059D01*
X3093Y2050D01*
X3110Y2047D01*
X3127Y2050D01*
X3141Y2059D01*
X3149D01*
X3163Y2050D01*
X3180Y2047D01*
X3197Y2050D01*
X3211Y2059D01*
X3220Y2073D01*
X3223Y2090D01*
X3220Y2107D01*
X3211Y2121D01*
X3197Y2130D01*
X3180Y2133D01*
D02*
G37*
G36*
X3670Y2073D02*
X3653Y2070D01*
X3639Y2061D01*
X3631D01*
X3617Y2070D01*
X3600Y2073D01*
X3583Y2070D01*
X3569Y2061D01*
X3560Y2047D01*
X3557Y2030D01*
X3560Y2013D01*
X3569Y1999D01*
X3583Y1990D01*
X3600Y1987D01*
X3617Y1990D01*
X3631Y1999D01*
X3639D01*
X3653Y1990D01*
X3670Y1987D01*
X3687Y1990D01*
X3701Y1999D01*
X3710Y2013D01*
X3713Y2030D01*
X3710Y2047D01*
X3701Y2061D01*
X3687Y2070D01*
X3670Y2073D01*
D02*
G37*
G36*
X3340Y2086D02*
X3322Y2082D01*
X3308Y2072D01*
X3298Y2058D01*
X3294Y2040D01*
X3298Y2022D01*
X3298Y2021D01*
X3304Y2004D01*
X3299Y2001D01*
X3290Y1987D01*
X3287Y1970D01*
X3290Y1953D01*
X3299Y1939D01*
X3313Y1930D01*
X3330Y1927D01*
X3347Y1930D01*
X3361Y1939D01*
X3370Y1953D01*
X3373Y1970D01*
X3370Y1987D01*
X3369Y1989D01*
X3372Y2008D01*
X3382Y2022D01*
X3386Y2040D01*
X3382Y2058D01*
X3372Y2072D01*
X3358Y2082D01*
X3340Y2086D01*
D02*
G37*
G36*
X3830Y2003D02*
X3813Y2000D01*
X3799Y1991D01*
X3790Y1977D01*
X3787Y1960D01*
X3790Y1943D01*
X3799Y1929D01*
X3813Y1920D01*
X3830Y1917D01*
X3847Y1920D01*
X3866Y1915D01*
X3869Y1909D01*
X3883Y1900D01*
X3900Y1897D01*
X3917Y1900D01*
X3931Y1909D01*
X3940Y1923D01*
X3943Y1940D01*
X3940Y1957D01*
X3931Y1971D01*
X3917Y1980D01*
X3900Y1983D01*
X3883Y1980D01*
X3864Y1985D01*
X3861Y1991D01*
X3847Y2000D01*
X3830Y2003D01*
D02*
G37*
G36*
X2750Y1963D02*
X2733Y1960D01*
X2719Y1951D01*
X2710Y1937D01*
X2707Y1920D01*
X2710Y1903D01*
X2719Y1889D01*
X2733Y1880D01*
X2750Y1877D01*
X2767Y1880D01*
X2781Y1889D01*
X2790Y1903D01*
X2793Y1920D01*
X2790Y1937D01*
X2781Y1951D01*
X2767Y1960D01*
X2750Y1963D01*
D02*
G37*
G36*
X4190Y1853D02*
X4173Y1850D01*
X4159Y1841D01*
X4151D01*
X4137Y1850D01*
X4120Y1853D01*
X4103Y1850D01*
X4089Y1841D01*
X4080Y1827D01*
X4077Y1810D01*
X4080Y1793D01*
X4089Y1779D01*
X4103Y1770D01*
X4120Y1767D01*
X4137Y1770D01*
X4151Y1779D01*
X4159D01*
X4173Y1770D01*
X4190Y1767D01*
X4207Y1770D01*
X4221Y1779D01*
X4230Y1793D01*
X4233Y1810D01*
X4230Y1827D01*
X4221Y1841D01*
X4207Y1850D01*
X4190Y1853D01*
D02*
G37*
G36*
X3020Y1773D02*
X3003Y1770D01*
X2989Y1761D01*
X2980Y1747D01*
X2977Y1730D01*
X2980Y1713D01*
X2989Y1699D01*
X3003Y1690D01*
X3020Y1687D01*
X3037Y1690D01*
X3051Y1699D01*
X3060Y1713D01*
X3063Y1730D01*
X3060Y1747D01*
X3051Y1761D01*
X3037Y1770D01*
X3020Y1773D01*
D02*
G37*
G36*
X3840Y1703D02*
X3823Y1700D01*
X3809Y1691D01*
X3800Y1677D01*
X3795Y1677D01*
X3785D01*
X3779Y1677D01*
X3771Y1691D01*
X3757Y1700D01*
X3740Y1703D01*
X3723Y1700D01*
X3709Y1691D01*
X3701D01*
X3687Y1700D01*
X3670Y1703D01*
X3653Y1700D01*
X3639Y1691D01*
X3637Y1686D01*
X3631Y1681D01*
X3617Y1690D01*
X3600Y1693D01*
X3583Y1690D01*
X3569Y1681D01*
X3552Y1690D01*
X3549Y1692D01*
X3532Y1695D01*
X3515Y1692D01*
X3501Y1683D01*
X3492Y1669D01*
X3489Y1652D01*
X3492Y1635D01*
X3501Y1621D01*
X3515Y1612D01*
X3532Y1609D01*
X3549Y1612D01*
X3563Y1621D01*
X3580Y1612D01*
X3583Y1610D01*
X3600Y1607D01*
X3617Y1610D01*
X3631Y1619D01*
X3633Y1624D01*
X3639Y1629D01*
X3653Y1620D01*
X3670Y1617D01*
X3687Y1620D01*
X3701Y1629D01*
X3709D01*
X3723Y1620D01*
X3740Y1617D01*
X3757Y1620D01*
X3771Y1629D01*
X3779Y1643D01*
X3785Y1643D01*
X3795D01*
X3800Y1643D01*
X3809Y1629D01*
X3823Y1620D01*
X3840Y1617D01*
X3856Y1620D01*
X3870Y1629D01*
X3883Y1620D01*
X3900Y1617D01*
X3917Y1620D01*
X3931Y1629D01*
X3940Y1643D01*
X3943Y1660D01*
X3940Y1677D01*
X3931Y1691D01*
X3917Y1700D01*
X3900Y1703D01*
X3883Y1700D01*
X3870Y1691D01*
X3856Y1700D01*
X3840Y1703D01*
D02*
G37*
G36*
X4805Y1741D02*
X4789Y1738D01*
X4776Y1729D01*
X4767Y1716D01*
X4764Y1700D01*
X4767Y1684D01*
X4776Y1671D01*
X4789Y1662D01*
X4805Y1659D01*
X4821Y1662D01*
X4834Y1671D01*
X4843Y1684D01*
X4846Y1700D01*
X4843Y1716D01*
X4834Y1729D01*
X4821Y1738D01*
X4805Y1741D01*
D02*
G37*
G36*
X4065Y1703D02*
X4049Y1700D01*
X4035Y1691D01*
X4025Y1677D01*
X4022Y1660D01*
X4025Y1643D01*
X4035Y1629D01*
X4049Y1620D01*
X4065Y1617D01*
X4082Y1620D01*
X4096Y1629D01*
X4105Y1643D01*
X4109Y1660D01*
X4105Y1677D01*
X4096Y1691D01*
X4082Y1700D01*
X4065Y1703D01*
D02*
G37*
G36*
X2590Y1873D02*
X2573Y1870D01*
X2559Y1861D01*
X2550Y1847D01*
X2547Y1830D01*
X2550Y1813D01*
X2559Y1799D01*
X2573Y1790D01*
X2575Y1790D01*
X2580Y1777D01*
X2577Y1760D01*
X2580Y1743D01*
X2571Y1721D01*
X2569Y1721D01*
X2560Y1707D01*
X2557Y1690D01*
X2560Y1673D01*
X2569Y1659D01*
X2583Y1650D01*
X2598Y1647D01*
X2600Y1647D01*
X2600Y1647D01*
X2618Y1645D01*
X2627Y1631D01*
X2629Y1630D01*
X2620Y1617D01*
X2617Y1600D01*
X2620Y1583D01*
X2620Y1583D01*
X2619Y1579D01*
X2597Y1570D01*
X2580Y1573D01*
X2563Y1570D01*
X2549Y1561D01*
X2540Y1547D01*
X2537Y1530D01*
X2540Y1513D01*
X2549Y1499D01*
X2563Y1490D01*
X2578Y1487D01*
X2577Y1480D01*
X2580Y1463D01*
X2589Y1449D01*
X2603Y1440D01*
X2620Y1437D01*
X2637Y1440D01*
X2651Y1449D01*
X2660Y1463D01*
X2663Y1480D01*
X2662Y1488D01*
X2674Y1490D01*
X2688Y1499D01*
X2697Y1513D01*
X2701Y1530D01*
X2697Y1547D01*
X2688Y1561D01*
X2697Y1579D01*
X2700Y1583D01*
X2703Y1600D01*
X2700Y1617D01*
X2693Y1627D01*
X2699Y1643D01*
X2702Y1647D01*
X2720Y1657D01*
X2737Y1660D01*
X2751Y1669D01*
X2760Y1683D01*
X2780Y1687D01*
X2797Y1690D01*
X2811Y1699D01*
X2820Y1713D01*
X2823Y1730D01*
X2820Y1747D01*
X2811Y1761D01*
X2797Y1770D01*
X2780Y1773D01*
X2763Y1770D01*
X2749Y1761D01*
X2740Y1747D01*
X2720Y1743D01*
X2703Y1740D01*
X2689Y1731D01*
X2680Y1717D01*
X2679Y1713D01*
X2678Y1710D01*
X2656Y1710D01*
X2655Y1711D01*
X2651Y1729D01*
X2660Y1743D01*
X2663Y1760D01*
X2660Y1777D01*
X2651Y1791D01*
X2637Y1800D01*
X2635Y1800D01*
X2630Y1813D01*
X2633Y1830D01*
X2630Y1847D01*
X2621Y1861D01*
X2607Y1870D01*
X2590Y1873D01*
D02*
G37*
G36*
X4565Y1671D02*
X4547Y1667D01*
X4533Y1657D01*
X4523Y1643D01*
X4519Y1625D01*
X4523Y1607D01*
X4533Y1593D01*
Y1587D01*
X4523Y1573D01*
X4519Y1555D01*
X4523Y1537D01*
X4533Y1523D01*
X4547Y1513D01*
X4565Y1509D01*
X4583Y1513D01*
X4597Y1523D01*
X4607Y1537D01*
X4611Y1555D01*
X4607Y1573D01*
X4597Y1587D01*
Y1593D01*
X4607Y1607D01*
X4611Y1625D01*
X4607Y1643D01*
X4597Y1657D01*
X4583Y1667D01*
X4565Y1671D01*
D02*
G37*
G36*
X3210Y1543D02*
X3193Y1540D01*
X3179Y1531D01*
X3170Y1517D01*
X3167Y1502D01*
X3160Y1503D01*
X3143Y1500D01*
X3129Y1491D01*
X3120Y1477D01*
X3117Y1460D01*
X3100Y1463D01*
X3100Y1463D01*
X3098Y1463D01*
X3083Y1460D01*
X3069Y1451D01*
X3060Y1437D01*
X3057Y1420D01*
X3060Y1403D01*
X3069Y1389D01*
X3083Y1380D01*
X3100Y1377D01*
X3117Y1380D01*
X3131Y1389D01*
X3140Y1403D01*
X3142Y1413D01*
X3162Y1413D01*
X3170Y1403D01*
X3179Y1389D01*
X3193Y1380D01*
X3210Y1377D01*
X3227Y1380D01*
X3241Y1389D01*
X3250Y1403D01*
X3253Y1420D01*
X3250Y1437D01*
X3243Y1447D01*
X3242Y1460D01*
X3243Y1473D01*
X3250Y1483D01*
X3253Y1500D01*
X3250Y1517D01*
X3241Y1531D01*
X3227Y1540D01*
X3210Y1543D01*
D02*
G37*
G36*
X4850Y1483D02*
X4833Y1480D01*
X4820Y1471D01*
X4806Y1480D01*
X4790Y1483D01*
X4773Y1480D01*
X4759Y1471D01*
X4758Y1470D01*
X4737Y1460D01*
X4720Y1463D01*
X4703Y1460D01*
X4689Y1451D01*
X4680Y1437D01*
X4677Y1420D01*
X4680Y1403D01*
X4689Y1389D01*
X4703Y1380D01*
X4720Y1377D01*
X4737Y1380D01*
X4751Y1389D01*
X4751Y1390D01*
X4773Y1400D01*
X4790Y1397D01*
X4806Y1400D01*
X4820Y1409D01*
X4833Y1400D01*
X4850Y1397D01*
X4867Y1400D01*
X4881Y1409D01*
X4890Y1423D01*
X4893Y1440D01*
X4890Y1457D01*
X4881Y1471D01*
X4867Y1480D01*
X4850Y1483D01*
D02*
G37*
G36*
X4240Y1653D02*
X4223Y1650D01*
X4209Y1641D01*
X4200Y1627D01*
X4197Y1610D01*
X4200Y1593D01*
X4209Y1579D01*
Y1571D01*
X4200Y1557D01*
X4197Y1540D01*
X4200Y1523D01*
X4209Y1509D01*
Y1501D01*
X4200Y1487D01*
X4197Y1470D01*
X4200Y1453D01*
X4209Y1439D01*
X4223Y1430D01*
X4240Y1427D01*
X4257Y1430D01*
X4271Y1439D01*
X4280Y1453D01*
X4283Y1470D01*
X4280Y1487D01*
X4271Y1501D01*
Y1509D01*
X4280Y1523D01*
X4283Y1540D01*
X4280Y1557D01*
X4271Y1571D01*
Y1579D01*
X4280Y1593D01*
X4283Y1610D01*
X4280Y1627D01*
X4271Y1641D01*
X4257Y1650D01*
X4240Y1653D01*
D02*
G37*
G36*
X3320Y1514D02*
X3303Y1510D01*
X3289Y1501D01*
X3280Y1487D01*
X3276Y1470D01*
X3280Y1454D01*
X3289Y1440D01*
X3303Y1431D01*
X3300Y1427D01*
X3297Y1410D01*
X3300Y1393D01*
X3309Y1379D01*
X3323Y1370D01*
X3340Y1367D01*
X3357Y1370D01*
X3371Y1379D01*
X3380Y1393D01*
X3381Y1401D01*
X3392Y1409D01*
X3416Y1405D01*
X3419Y1399D01*
X3433Y1390D01*
X3450Y1387D01*
X3467Y1390D01*
X3481Y1399D01*
X3490Y1413D01*
X3510Y1417D01*
X3520Y1401D01*
X3529Y1387D01*
X3543Y1378D01*
X3560Y1374D01*
X3576Y1378D01*
X3590Y1387D01*
X3603Y1377D01*
X3620Y1374D01*
X3637Y1377D01*
X3651Y1387D01*
X3670Y1382D01*
X3673Y1380D01*
X3690Y1377D01*
X3707Y1380D01*
X3721Y1389D01*
X3730Y1403D01*
X3733Y1418D01*
X3740Y1417D01*
X3757Y1420D01*
X3761Y1423D01*
X3772Y1429D01*
X3791Y1424D01*
X3793Y1423D01*
X3810Y1420D01*
X3827Y1423D01*
X3829Y1424D01*
X3849Y1429D01*
X3863Y1420D01*
X3880Y1417D01*
X3897Y1420D01*
X3911Y1429D01*
X3920Y1443D01*
X3923Y1460D01*
X3920Y1477D01*
X3911Y1491D01*
X3897Y1500D01*
X3880Y1503D01*
X3863Y1500D01*
X3861Y1499D01*
X3841Y1494D01*
X3827Y1503D01*
X3810Y1506D01*
X3793Y1503D01*
X3779Y1494D01*
X3759Y1499D01*
X3757Y1500D01*
X3740Y1503D01*
X3723Y1500D01*
X3709Y1491D01*
X3700Y1477D01*
X3697Y1462D01*
X3690Y1463D01*
X3673Y1460D01*
X3659Y1451D01*
X3640Y1455D01*
X3637Y1458D01*
X3620Y1461D01*
X3603Y1458D01*
X3590Y1449D01*
X3576Y1458D01*
X3560Y1461D01*
X3550Y1477D01*
X3550Y1477D01*
X3549Y1479D01*
X3541Y1491D01*
X3527Y1500D01*
X3510Y1503D01*
X3493Y1500D01*
X3479Y1491D01*
X3470Y1477D01*
X3469Y1471D01*
X3467Y1470D01*
X3450Y1473D01*
X3438Y1471D01*
X3420Y1477D01*
X3411Y1491D01*
X3397Y1500D01*
X3380Y1503D01*
X3363Y1500D01*
X3355Y1494D01*
X3350Y1501D01*
X3336Y1510D01*
X3320Y1514D01*
D02*
G37*
G36*
X2540Y1400D02*
X2470Y1400D01*
X2470Y1400D01*
X2462Y1399D01*
X2456Y1394D01*
X2456Y1394D01*
X2436Y1374D01*
X2436Y1374D01*
X2431Y1368D01*
X2430Y1360D01*
X2430Y1290D01*
X2431Y1282D01*
X2436Y1276D01*
X2436Y1276D01*
X2456Y1256D01*
X2456Y1256D01*
X2462Y1251D01*
X2470Y1250D01*
X2540Y1250D01*
X2548Y1251D01*
X2554Y1256D01*
X2574Y1276D01*
X2577Y1279D01*
X2731D01*
X2742Y1259D01*
X2740Y1257D01*
X2737Y1240D01*
X2740Y1223D01*
X2749Y1209D01*
X2763Y1200D01*
X2780Y1197D01*
X2797Y1200D01*
X2811Y1209D01*
X2835Y1210D01*
X2938Y1108D01*
X2952Y1098D01*
X2970Y1094D01*
X3153D01*
X3167Y1074D01*
X3167Y1070D01*
X3170Y1053D01*
X3179Y1039D01*
X3193Y1030D01*
X3210Y1027D01*
X3227Y1030D01*
X3241Y1039D01*
X3250Y1053D01*
X3253Y1070D01*
X3269Y1078D01*
X3284Y1070D01*
X3288Y1052D01*
X3298Y1038D01*
X3312Y1028D01*
X3330Y1024D01*
X3348Y1028D01*
X3362Y1038D01*
X3372Y1052D01*
X3376Y1070D01*
X3375Y1074D01*
X3390Y1094D01*
X4061D01*
X4208Y948D01*
X4223Y938D01*
X4240Y934D01*
X4330D01*
X4348Y938D01*
X4362Y948D01*
X4372Y962D01*
X4376Y980D01*
X4372Y998D01*
X4362Y1012D01*
X4348Y1022D01*
X4330Y1026D01*
X4315Y1046D01*
X4316Y1050D01*
X4312Y1068D01*
X4307Y1075D01*
X4312Y1082D01*
X4316Y1100D01*
X4312Y1118D01*
X4302Y1132D01*
X4288Y1142D01*
X4270Y1146D01*
X4252Y1142D01*
X4238Y1132D01*
X4228Y1118D01*
X4224Y1100D01*
X4227Y1087D01*
X4211Y1075D01*
X4210Y1075D01*
X4113Y1172D01*
X4098Y1182D01*
X4080Y1186D01*
X4044D01*
X4044Y1186D01*
X4035Y1206D01*
X4040Y1213D01*
X4043Y1230D01*
X4040Y1247D01*
X4031Y1261D01*
X4017Y1270D01*
X4000Y1273D01*
X3983Y1270D01*
X3969Y1261D01*
X3967D01*
X3961Y1271D01*
X3947Y1280D01*
X3930Y1283D01*
X3913Y1280D01*
X3910Y1278D01*
X3895Y1272D01*
X3880Y1278D01*
X3877Y1280D01*
X3860Y1283D01*
X3843Y1280D01*
X3829Y1271D01*
X3820Y1257D01*
X3817Y1240D01*
X3820Y1223D01*
X3829Y1209D01*
X3835Y1206D01*
X3828Y1186D01*
X3144D01*
X3144Y1186D01*
X3135Y1206D01*
X3140Y1213D01*
X3143Y1230D01*
X3140Y1247D01*
X3131Y1261D01*
X3117Y1270D01*
X3100Y1273D01*
X3083Y1270D01*
X3069Y1261D01*
X3060Y1247D01*
X3057Y1230D01*
X3060Y1213D01*
X3065Y1206D01*
X3056Y1186D01*
X3056Y1186D01*
X2989D01*
X2817Y1357D01*
X2803Y1367D01*
X2785Y1371D01*
X2577D01*
X2574Y1374D01*
X2554Y1394D01*
X2548Y1399D01*
X2540Y1400D01*
D02*
G37*
G36*
X2880Y1533D02*
X2863Y1530D01*
X2849Y1521D01*
X2840Y1507D01*
X2837Y1490D01*
X2840Y1473D01*
X2849Y1459D01*
Y1451D01*
X2840Y1437D01*
X2837Y1420D01*
X2840Y1403D01*
X2849Y1389D01*
X2863Y1380D01*
X2880Y1377D01*
X2897Y1380D01*
X2911Y1389D01*
X2920Y1403D01*
X2923Y1420D01*
X2920Y1437D01*
X2911Y1451D01*
Y1459D01*
X2920Y1473D01*
X2923Y1490D01*
X2920Y1507D01*
X2911Y1521D01*
X2897Y1530D01*
X2880Y1533D01*
D02*
G37*
G36*
X4605Y1331D02*
X4585Y1327D01*
X4569Y1316D01*
X4561Y1304D01*
X4556Y1303D01*
X4544D01*
X4539Y1304D01*
X4531Y1316D01*
X4515Y1327D01*
X4495Y1331D01*
X4475Y1327D01*
X4459Y1316D01*
X4448Y1300D01*
X4444Y1280D01*
X4448Y1260D01*
X4459Y1244D01*
X4471Y1236D01*
X4472Y1231D01*
Y1219D01*
X4471Y1214D01*
X4459Y1206D01*
X4448Y1190D01*
X4444Y1170D01*
X4448Y1150D01*
X4459Y1134D01*
X4475Y1123D01*
X4495Y1119D01*
X4515Y1123D01*
X4531Y1134D01*
X4539Y1146D01*
X4544Y1147D01*
X4556D01*
X4561Y1146D01*
X4569Y1134D01*
X4585Y1123D01*
X4605Y1119D01*
X4625Y1123D01*
X4641Y1134D01*
X4652Y1150D01*
X4656Y1170D01*
X4652Y1190D01*
X4641Y1206D01*
X4629Y1214D01*
X4628Y1219D01*
Y1231D01*
X4629Y1236D01*
X4641Y1244D01*
X4652Y1260D01*
X4656Y1280D01*
X4652Y1300D01*
X4641Y1316D01*
X4625Y1327D01*
X4605Y1331D01*
D02*
G37*
G36*
X2280Y1483D02*
X2263Y1480D01*
X2249Y1471D01*
X2240Y1457D01*
X2237Y1440D01*
X2240Y1423D01*
X2246Y1415D01*
X2240Y1407D01*
X2237Y1390D01*
X2240Y1373D01*
X2246Y1365D01*
X2240Y1357D01*
X2237Y1340D01*
X2240Y1323D01*
X2246Y1315D01*
X2240Y1307D01*
X2237Y1290D01*
X2240Y1273D01*
X2249Y1259D01*
X2263Y1250D01*
X2280Y1247D01*
X2297Y1250D01*
X2311Y1259D01*
X2320Y1273D01*
X2323Y1290D01*
X2320Y1307D01*
X2314Y1315D01*
X2320Y1323D01*
X2323Y1340D01*
X2320Y1357D01*
X2314Y1365D01*
X2320Y1373D01*
X2323Y1390D01*
X2320Y1407D01*
X2314Y1415D01*
X2320Y1423D01*
X2323Y1440D01*
X2320Y1457D01*
X2311Y1471D01*
X2297Y1480D01*
X2280Y1483D01*
D02*
G37*
G36*
X4240Y1343D02*
X4223Y1340D01*
X4209Y1331D01*
X4200Y1317D01*
X4197Y1300D01*
X4200Y1283D01*
X4197Y1261D01*
X4195Y1258D01*
X4187Y1247D01*
X4184Y1230D01*
X4187Y1213D01*
X4197Y1199D01*
X4211Y1190D01*
X4227Y1187D01*
X4244Y1190D01*
X4258Y1199D01*
X4267Y1213D01*
X4271Y1210D01*
X4288Y1207D01*
X4304Y1210D01*
X4318Y1219D01*
X4328Y1233D01*
X4331Y1250D01*
X4328Y1267D01*
X4318Y1281D01*
X4304Y1290D01*
X4302Y1290D01*
X4283Y1300D01*
X4280Y1317D01*
X4271Y1331D01*
X4257Y1340D01*
X4240Y1343D01*
D02*
G37*
G36*
X2384Y1186D02*
X2367Y1183D01*
X2353Y1173D01*
X2344Y1159D01*
X2340Y1143D01*
X2344Y1126D01*
X2353Y1112D01*
X2367Y1103D01*
X2384Y1099D01*
X2400Y1103D01*
X2414Y1112D01*
X2424Y1126D01*
X2427Y1143D01*
X2424Y1159D01*
X2414Y1173D01*
X2400Y1183D01*
X2384Y1186D01*
D02*
G37*
G36*
X2680Y1086D02*
X2662Y1082D01*
X2648Y1072D01*
X2647Y1072D01*
X2623D01*
X2622Y1072D01*
X2608Y1082D01*
X2590Y1086D01*
X2572Y1082D01*
X2558Y1072D01*
X2548Y1058D01*
X2544Y1040D01*
X2548Y1022D01*
X2558Y1008D01*
X2572Y998D01*
X2584Y995D01*
X2597Y981D01*
X2600Y976D01*
X2599Y970D01*
X2603Y950D01*
X2614Y934D01*
X2630Y923D01*
X2650Y919D01*
X2670Y923D01*
X2686Y934D01*
X2697Y950D01*
X2701Y970D01*
X2699Y978D01*
X2698Y991D01*
X2710Y1006D01*
X2712Y1008D01*
X2732Y1001D01*
X2733Y1000D01*
X2750Y997D01*
X2767Y1000D01*
X2774Y1005D01*
X2782Y1009D01*
X2799Y1000D01*
X2799Y999D01*
X2813Y990D01*
X2830Y987D01*
X2847Y990D01*
X2861Y999D01*
X2870Y1013D01*
X2873Y1030D01*
X2870Y1047D01*
X2861Y1061D01*
X2847Y1070D01*
X2830Y1073D01*
X2813Y1070D01*
X2806Y1065D01*
X2798Y1061D01*
X2781Y1070D01*
X2781Y1071D01*
X2767Y1080D01*
X2750Y1083D01*
X2733Y1080D01*
X2732Y1079D01*
X2712Y1072D01*
X2698Y1082D01*
X2680Y1086D01*
D02*
G37*
G36*
X2260Y1064D02*
X2243Y1060D01*
X2229Y1051D01*
X2220Y1037D01*
X2216Y1020D01*
X2220Y1004D01*
X2229Y990D01*
X2243Y980D01*
X2260Y977D01*
X2276Y980D01*
X2290Y990D01*
X2300Y1004D01*
X2303Y1020D01*
X2300Y1037D01*
X2290Y1051D01*
X2276Y1060D01*
X2260Y1064D01*
D02*
G37*
G36*
X2310Y963D02*
X2293Y960D01*
X2279Y951D01*
X2270Y937D01*
X2267Y920D01*
X2270Y903D01*
X2279Y889D01*
X2293Y880D01*
X2310Y877D01*
X2327Y880D01*
X2341Y889D01*
X2350Y903D01*
X2353Y920D01*
X2350Y937D01*
X2341Y951D01*
X2327Y960D01*
X2310Y963D01*
D02*
G37*
G36*
X4750Y953D02*
X4733Y950D01*
X4719Y941D01*
X4710Y927D01*
X4707Y910D01*
X4710Y893D01*
X4719Y879D01*
X4733Y870D01*
X4750Y867D01*
X4767Y870D01*
X4781Y879D01*
X4790Y893D01*
X4793Y910D01*
X4790Y927D01*
X4781Y941D01*
X4767Y950D01*
X4750Y953D01*
D02*
G37*
G36*
X4600Y996D02*
X4582Y992D01*
X4568Y982D01*
X4558Y968D01*
X4554Y950D01*
X4558Y932D01*
X4563Y925D01*
X4558Y918D01*
X4554Y900D01*
X4558Y882D01*
X4568Y868D01*
X4582Y858D01*
X4600Y854D01*
X4618Y858D01*
X4632Y868D01*
X4642Y882D01*
X4646Y900D01*
X4642Y918D01*
X4637Y925D01*
X4642Y932D01*
X4646Y950D01*
X4642Y968D01*
X4632Y982D01*
X4618Y992D01*
X4600Y996D01*
D02*
G37*
G36*
X2750Y943D02*
X2733Y940D01*
X2719Y931D01*
X2710Y917D01*
X2707Y900D01*
X2710Y883D01*
X2719Y869D01*
X2733Y860D01*
X2750Y857D01*
X2767Y860D01*
X2770Y862D01*
X2787Y863D01*
X2795Y856D01*
X2799Y849D01*
X2813Y840D01*
X2830Y837D01*
X2847Y840D01*
X2861Y849D01*
X2870Y863D01*
X2873Y880D01*
X2870Y897D01*
X2861Y911D01*
X2847Y920D01*
X2830Y923D01*
X2813Y920D01*
X2810Y918D01*
X2793Y917D01*
X2785Y924D01*
X2781Y931D01*
X2767Y940D01*
X2750Y943D01*
D02*
G37*
G36*
X4060Y960D02*
X4000Y960D01*
X3980Y940D01*
X3980Y760D01*
X4000Y740D01*
X4060Y740D01*
X4080Y760D01*
Y940D01*
X4060Y960D01*
D02*
G37*
G36*
X2577Y813D02*
X2561Y810D01*
X2547Y801D01*
X2537Y787D01*
X2534Y770D01*
X2537Y753D01*
X2547Y739D01*
X2561Y730D01*
X2577Y727D01*
X2594Y730D01*
X2608Y739D01*
X2617Y753D01*
X2621Y770D01*
X2617Y787D01*
X2608Y801D01*
X2594Y810D01*
X2577Y813D01*
D02*
G37*
G36*
X4870Y788D02*
X4855Y785D01*
X4843Y777D01*
X4835Y765D01*
X4832Y750D01*
X4835Y735D01*
X4843Y723D01*
X4855Y715D01*
X4870Y712D01*
X4885Y715D01*
X4897Y723D01*
X4905Y735D01*
X4908Y750D01*
X4905Y765D01*
X4897Y777D01*
X4885Y785D01*
X4870Y788D01*
D02*
G37*
G36*
X4455Y759D02*
X4438Y755D01*
X4424Y746D01*
X4415Y732D01*
X4411Y715D01*
X4415Y699D01*
X4424Y685D01*
X4438Y675D01*
X4455Y672D01*
X4471Y675D01*
X4485Y685D01*
X4495Y699D01*
X4498Y715D01*
X4495Y732D01*
X4485Y746D01*
X4471Y755D01*
X4455Y759D01*
D02*
G37*
G36*
X4460Y603D02*
X4443Y600D01*
X4435Y594D01*
X4427Y600D01*
X4410Y603D01*
X4393Y600D01*
X4379Y591D01*
X4370Y577D01*
X4367Y560D01*
X4370Y543D01*
X4379Y529D01*
X4393Y520D01*
X4410Y517D01*
X4427Y520D01*
X4435Y526D01*
X4443Y520D01*
X4460Y517D01*
X4477Y520D01*
X4491Y529D01*
X4500Y543D01*
X4503Y560D01*
X4500Y577D01*
X4491Y591D01*
X4477Y600D01*
X4460Y603D01*
D02*
G37*
G36*
X4230Y781D02*
X4210Y777D01*
X4194Y766D01*
X4183Y750D01*
X4179Y730D01*
X4183Y710D01*
X4183Y710D01*
X4189Y691D01*
X4180Y677D01*
X4177Y660D01*
X4180Y643D01*
X4186Y635D01*
X4180Y627D01*
X4177Y610D01*
X4180Y593D01*
X4189Y579D01*
X4203Y570D01*
X4220Y567D01*
X4237Y570D01*
X4251Y579D01*
X4260Y593D01*
X4263Y610D01*
X4260Y627D01*
X4254Y635D01*
X4260Y643D01*
X4263Y660D01*
X4260Y677D01*
X4263Y692D01*
X4266Y694D01*
X4277Y710D01*
X4281Y730D01*
X4277Y750D01*
X4266Y766D01*
X4249Y777D01*
X4230Y781D01*
D02*
G37*
G36*
X4610Y633D02*
X4593Y630D01*
X4579Y621D01*
X4570Y607D01*
X4567Y590D01*
X4570Y573D01*
X4579Y559D01*
X4593Y550D01*
X4610Y547D01*
X4627Y550D01*
X4641Y559D01*
X4650Y573D01*
X4653Y590D01*
X4650Y607D01*
X4641Y621D01*
X4627Y630D01*
X4610Y633D01*
D02*
G37*
G36*
X4846Y634D02*
X4829Y631D01*
X4814Y621D01*
X4804Y606D01*
X4800Y588D01*
X4804Y571D01*
X4814Y556D01*
X4829Y546D01*
X4846Y542D01*
X4864Y546D01*
X4879Y556D01*
X4888Y571D01*
X4892Y588D01*
X4888Y606D01*
X4879Y621D01*
X4864Y631D01*
X4846Y634D01*
D02*
G37*
G36*
X4840Y496D02*
X4822Y492D01*
X4808Y482D01*
X4798Y468D01*
X4794Y450D01*
X4798Y432D01*
X4808Y418D01*
X4822Y408D01*
X4840Y404D01*
X4858Y408D01*
X4872Y418D01*
X4882Y432D01*
X4886Y450D01*
X4882Y468D01*
X4872Y482D01*
X4858Y492D01*
X4840Y496D01*
D02*
G37*
G36*
X4720Y453D02*
X4703Y450D01*
X4689Y440D01*
X4680Y426D01*
X4676Y410D01*
X4680Y393D01*
X4688Y380D01*
X4687Y372D01*
X4682Y359D01*
X4670Y357D01*
X4654Y346D01*
X4652Y343D01*
X4628D01*
X4626Y346D01*
X4610Y357D01*
X4590Y361D01*
X4570Y357D01*
X4554Y346D01*
X4543Y330D01*
X4539Y310D01*
X4543Y290D01*
X4554Y274D01*
X4557Y272D01*
Y248D01*
X4554Y246D01*
X4543Y230D01*
X4539Y210D01*
X4543Y190D01*
X4554Y174D01*
X4570Y163D01*
X4590Y159D01*
X4610Y163D01*
X4626Y174D01*
X4628Y177D01*
X4652D01*
X4654Y174D01*
X4670Y163D01*
X4690Y159D01*
X4710Y163D01*
X4726Y174D01*
X4737Y190D01*
X4741Y210D01*
X4737Y230D01*
X4726Y246D01*
X4723Y248D01*
Y272D01*
X4726Y274D01*
X4737Y290D01*
X4741Y310D01*
X4737Y330D01*
X4726Y346D01*
X4725Y347D01*
X4729Y368D01*
X4736Y370D01*
X4750Y379D01*
X4760Y393D01*
X4763Y410D01*
X4760Y426D01*
X4750Y440D01*
X4736Y450D01*
X4720Y453D01*
D02*
G37*
G36*
X4870Y356D02*
X4852Y352D01*
X4838Y342D01*
X4828Y328D01*
X4824Y310D01*
X4828Y292D01*
X4838Y278D01*
X4852Y268D01*
X4870Y264D01*
X4888Y268D01*
X4902Y278D01*
X4912Y292D01*
X4916Y310D01*
X4912Y328D01*
X4902Y342D01*
X4888Y352D01*
X4870Y356D01*
D02*
G37*
G36*
X4340Y273D02*
X4323Y270D01*
X4309Y261D01*
X4300Y247D01*
X4297Y230D01*
X4300Y213D01*
X4309Y199D01*
X4323Y190D01*
X4340Y187D01*
X4357Y190D01*
X4371Y199D01*
X4380Y213D01*
X4383Y230D01*
X4380Y247D01*
X4371Y261D01*
X4357Y270D01*
X4340Y273D01*
D02*
G37*
%LPD*%
G36*
X2560Y1360D02*
Y1290D01*
X2540Y1270D01*
X2470Y1270D01*
X2450Y1290D01*
X2450Y1360D01*
X2470Y1380D01*
X2540Y1380D01*
X2560Y1360D01*
D02*
G37*
%LPC*%
G36*
X13896Y5242D02*
X13846D01*
Y5189D01*
X13894D01*
X13896Y5190D01*
X13900Y5190D01*
X13903Y5190D01*
X13907Y5190D01*
X13911Y5191D01*
X13914Y5192D01*
X13914Y5192D01*
X13915Y5193D01*
X13917Y5193D01*
X13918Y5194D01*
X13921Y5196D01*
X13923Y5197D01*
X13925Y5199D01*
X13926Y5202D01*
X13927Y5202D01*
X13927Y5203D01*
X13928Y5204D01*
X13929Y5206D01*
X13929Y5208D01*
X13930Y5211D01*
X13931Y5213D01*
X13931Y5216D01*
Y5216D01*
Y5217D01*
X13931Y5218D01*
X13930Y5220D01*
X13930Y5223D01*
X13929Y5226D01*
X13927Y5229D01*
X13925Y5232D01*
X13922Y5235D01*
X13922Y5235D01*
X13921Y5236D01*
X13919Y5237D01*
X13916Y5239D01*
X13912Y5240D01*
X13908Y5241D01*
X13903Y5242D01*
X13896Y5242D01*
D02*
G37*
G36*
X13531Y5241D02*
X13485D01*
Y5184D01*
X13528D01*
X13530Y5184D01*
X13531D01*
X13533Y5184D01*
X13538Y5185D01*
X13542Y5186D01*
X13547Y5187D01*
X13552Y5189D01*
X13554Y5190D01*
X13555Y5192D01*
X13556Y5192D01*
X13557Y5193D01*
X13558Y5195D01*
X13560Y5197D01*
X13561Y5200D01*
X13563Y5204D01*
X13564Y5208D01*
X13564Y5213D01*
Y5213D01*
Y5213D01*
Y5215D01*
X13564Y5217D01*
X13564Y5219D01*
X13563Y5221D01*
X13562Y5224D01*
X13561Y5227D01*
X13559Y5230D01*
X13559Y5230D01*
X13558Y5231D01*
X13557Y5232D01*
X13556Y5234D01*
X13554Y5236D01*
X13551Y5237D01*
X13549Y5238D01*
X13546Y5240D01*
X13545D01*
X13545Y5240D01*
X13543Y5240D01*
X13541Y5240D01*
X13539Y5241D01*
X13535Y5241D01*
X13531Y5241D01*
D02*
G37*
G36*
X13320Y5228D02*
X13269Y5156D01*
X13320D01*
Y5228D01*
D02*
G37*
%LPD*%
D12*
X3450Y2840D02*
X4060D01*
X3400Y2890D02*
X3450Y2840D01*
X4380Y3590D02*
X4560D01*
X3400Y2890D02*
Y2980D01*
X4410Y2490D02*
X4460D01*
X4560Y2390D01*
X4060Y2840D02*
X4410Y2490D01*
X4160Y2805D02*
X4566D01*
X4602Y2841D01*
X4030Y2930D02*
X4034D01*
X4160Y2805D01*
X4602Y2841D02*
Y2964D01*
X4629Y2990D02*
X4636D01*
X4656Y3010D01*
X4660D01*
X4602Y2964D02*
X4629Y2990D01*
D99*
X4805Y1700D02*
D03*
Y3300D02*
D03*
D101*
X540Y1290D02*
D03*
X520Y1380D02*
D03*
X590D02*
D03*
X550Y1520D02*
D03*
X4533Y4874D02*
D03*
X2290Y495D02*
D03*
X2340Y540D02*
D03*
X3620Y1418D02*
D03*
X2470Y430D02*
D03*
X2250Y270D02*
D03*
X2200D02*
D03*
X3760Y2640D02*
D03*
X3680D02*
D03*
X1920Y2620D02*
D03*
X1850D02*
D03*
X980Y1770D02*
D03*
X915Y1765D02*
D03*
X1680Y1970D02*
D03*
Y2050D02*
D03*
X3440Y2390D02*
D03*
Y2480D02*
D03*
X1570Y2090D02*
D03*
X1570Y2170D02*
D03*
X4870Y3570D02*
D03*
Y2220D02*
D03*
X4680Y2460D02*
D03*
X4720Y1420D02*
D03*
X4790Y1440D02*
D03*
X4288Y1250D02*
D03*
X4240Y1300D02*
D03*
X4870Y3010D02*
D03*
X4800Y2950D02*
D03*
X4770Y2880D02*
D03*
X4710Y4710D02*
D03*
X4853Y3355D02*
D03*
X4855Y3492D02*
D03*
X4830Y3700D02*
D03*
X2650Y180D02*
D03*
X480Y240D02*
D03*
X3210Y1070D02*
D03*
X3160Y1460D02*
D03*
X3210Y1500D02*
D03*
Y1420D02*
D03*
X3320Y1470D02*
D03*
X3100Y1420D02*
D03*
X3390Y710D02*
D03*
X3330Y780D02*
D03*
X3260Y720D02*
D03*
X320Y510D02*
D03*
X420D02*
D03*
X80Y460D02*
D03*
X2880Y4095D02*
D03*
X2940Y4160D02*
D03*
X1420Y3140D02*
D03*
X1470Y3050D02*
D03*
X1890Y3360D02*
D03*
X4695Y3810D02*
D03*
X4650Y2880D02*
D03*
X4648Y2945D02*
D03*
X4560Y3590D02*
D03*
X4630Y2680D02*
D03*
X4410Y560D02*
D03*
X4460D02*
D03*
X4340Y100D02*
D03*
Y230D02*
D03*
X1990Y1160D02*
D03*
X2130Y1180D02*
D03*
X3830Y1960D02*
D03*
X1580Y994D02*
D03*
X2840Y2730D02*
D03*
X2910Y2730D02*
D03*
X2980Y2730D02*
D03*
X3460Y2975D02*
D03*
X3520Y2950D02*
D03*
X3660Y2920D02*
D03*
X4870Y2290D02*
D03*
X2650Y3800D02*
D03*
X2700Y3820D02*
D03*
X1260Y4860D02*
D03*
X1360Y4550D02*
D03*
X1620Y1930D02*
D03*
X610Y1670D02*
D03*
X1670Y2640D02*
D03*
X1430Y2600D02*
D03*
X1340Y2550D02*
D03*
X4720Y410D02*
D03*
X4750Y910D02*
D03*
X4850Y1440D02*
D03*
X2450Y3690D02*
D03*
X2510Y3580D02*
D03*
X2450Y3620D02*
D03*
X570Y1620D02*
D03*
X2450Y2960D02*
D03*
X2340Y3151D02*
D03*
X2320Y3060D02*
D03*
X2620Y2725D02*
D03*
X2685D02*
D03*
X2750Y2730D02*
D03*
X2060Y2180D02*
D03*
X2390Y2460D02*
D03*
X2390Y2290D02*
D03*
X2390Y2190D02*
D03*
X2330Y2460D02*
D03*
X3450Y1430D02*
D03*
X3510Y1460D02*
D03*
X3340Y1410D02*
D03*
X2750Y1790D02*
D03*
X2780Y1730D02*
D03*
X2620Y1760D02*
D03*
X2750Y1920D02*
D03*
X3020Y1730D02*
D03*
X2600Y1690D02*
D03*
X2840Y2090D02*
D03*
X2830Y880D02*
D03*
X2658Y1662D02*
D03*
X2170Y2400D02*
D03*
X2031Y2459D02*
D03*
X2590Y1830D02*
D03*
X2820Y3150D02*
D03*
X2830Y3080D02*
D03*
X2650Y2936D02*
D03*
X2720Y2940D02*
D03*
X3400Y2980D02*
D03*
X4560Y2390D02*
D03*
Y2320D02*
D03*
X4380Y3590D02*
D03*
X3440Y2710D02*
D03*
X3250Y3130D02*
D03*
X4030Y2930D02*
D03*
X2890Y2140D02*
D03*
X4320Y4030D02*
D03*
X4110Y2930D02*
D03*
X2590Y3840D02*
D03*
X3890Y2625D02*
D03*
X4180Y2850D02*
D03*
X2680Y2490D02*
D03*
X2730Y2430D02*
D03*
X2788Y2392D02*
D03*
X2790Y2330D02*
D03*
Y2260D02*
D03*
X4610Y590D02*
D03*
X3170Y3420D02*
D03*
X1860Y2800D02*
D03*
Y2710D02*
D03*
X1910Y2760D02*
D03*
X1530Y2950D02*
D03*
X2780Y1240D02*
D03*
X2830Y1030D02*
D03*
X2620Y1480D02*
D03*
X2580Y1530D02*
D03*
X2660Y1600D02*
D03*
X2657Y1530D02*
D03*
X2670Y3020D02*
D03*
X3110Y2090D02*
D03*
X3330Y1970D02*
D03*
X560Y340D02*
D03*
X2000Y2180D02*
D03*
X1955Y2720D02*
D03*
X1720Y2910D02*
D03*
Y2970D02*
D03*
X1820Y3070D02*
D03*
X1810Y3175D02*
D03*
X1820Y3350D02*
D03*
X770Y1780D02*
D03*
X720Y1720D02*
D03*
X2577Y770D02*
D03*
X2750Y900D02*
D03*
X2660Y570D02*
D03*
X3670Y2030D02*
D03*
X3380Y1460D02*
D03*
X3560Y1418D02*
D03*
X3880Y1460D02*
D03*
X3740Y1460D02*
D03*
X3690Y1420D02*
D03*
X4120Y2270D02*
D03*
X4240Y2850D02*
D03*
X3820Y2670D02*
D03*
X3870Y2730D02*
D03*
X2790Y2580D02*
D03*
X1350Y1720D02*
D03*
X1930Y2180D02*
D03*
Y2250D02*
D03*
X3600Y2030D02*
D03*
X3860Y1240D02*
D03*
X4220Y610D02*
D03*
Y660D02*
D03*
X3180Y2090D02*
D03*
X2280Y1290D02*
D03*
Y1340D02*
D03*
Y1390D02*
D03*
Y1440D02*
D03*
X2140D02*
D03*
Y1390D02*
D03*
Y1340D02*
D03*
Y1290D02*
D03*
X2390Y1680D02*
D03*
X2340D02*
D03*
X2290D02*
D03*
X2240D02*
D03*
X2160D02*
D03*
X2110D02*
D03*
X2060D02*
D03*
X2010D02*
D03*
X1610Y1460D02*
D03*
Y1700D02*
D03*
Y1510D02*
D03*
X1560D02*
D03*
X1510D02*
D03*
X1460D02*
D03*
X1610Y1650D02*
D03*
X1560D02*
D03*
X1510D02*
D03*
X1460D02*
D03*
X1270Y1050D02*
D03*
X1218Y972D02*
D03*
X840Y1760D02*
D03*
X1480Y3150D02*
D03*
X1310Y3280D02*
D03*
X1520Y3670D02*
D03*
X1550Y3600D02*
D03*
X1610Y3630D02*
D03*
X1290Y3780D02*
D03*
X1645Y3575D02*
D03*
X1660Y3680D02*
D03*
X1270Y3140D02*
D03*
X1480Y2860D02*
D03*
X1647Y3425D02*
D03*
X1200Y3140D02*
D03*
X1030Y3160D02*
D03*
X2190Y3040D02*
D03*
X2205Y2880D02*
D03*
X2170Y3110D02*
D03*
X2280Y3140D02*
D03*
X1870Y3420D02*
D03*
Y3495D02*
D03*
Y3560D02*
D03*
X3000Y4390D02*
D03*
X3340Y4620D02*
D03*
X2255Y3960D02*
D03*
X2305Y4000D02*
D03*
X4660Y4874D02*
D03*
X4787D02*
D03*
X4265Y4670D02*
D03*
X2340Y3380D02*
D03*
X2305Y3770D02*
D03*
X2180Y3480D02*
D03*
X2096Y3565D02*
D03*
X2250Y3480D02*
D03*
X2310Y3485D02*
D03*
X2500Y4000D02*
D03*
X3715Y3570D02*
D03*
X270Y730D02*
D03*
X350D02*
D03*
X1334Y1064D02*
D03*
X510Y1570D02*
D03*
X1160Y1660D02*
D03*
X1320Y3430D02*
D03*
Y3360D02*
D03*
X1710Y4710D02*
D03*
X1640D02*
D03*
X1340Y2450D02*
D03*
X1180Y2600D02*
D03*
Y2400D02*
D03*
Y2525D02*
D03*
X4455Y715D02*
D03*
X1620Y2260D02*
D03*
X1570Y2320D02*
D03*
X1470Y2380D02*
D03*
X1984Y1054D02*
D03*
X3170Y2730D02*
D03*
X1750Y2640D02*
D03*
X2100Y847D02*
D03*
X2200Y790D02*
D03*
X2310Y920D02*
D03*
X2260Y1020D02*
D03*
X3100Y1230D02*
D03*
X4630Y2576D02*
D03*
X4200Y2585D02*
D03*
X4570Y2520D02*
D03*
X4760Y2220D02*
D03*
X2400Y2605D02*
D03*
X2750Y2530D02*
D03*
X2230Y640D02*
D03*
X2040Y2670D02*
D03*
X1980Y2640D02*
D03*
X2032Y2399D02*
D03*
X3740Y1660D02*
D03*
X4065D02*
D03*
X3900D02*
D03*
X4660Y3010D02*
D03*
X4227Y1230D02*
D03*
X4240Y1470D02*
D03*
Y1610D02*
D03*
Y1540D02*
D03*
X3900Y1940D02*
D03*
X4190Y1810D02*
D03*
X4120D02*
D03*
X3930Y1240D02*
D03*
X4000Y1230D02*
D03*
X4630Y1810D02*
D03*
X4710Y2130D02*
D03*
X4640D02*
D03*
X4600Y2080D02*
D03*
X3376Y2730D02*
D03*
X3320Y2630D02*
D03*
X3750Y2330D02*
D03*
X3780Y2390D02*
D03*
X3800Y2480D02*
D03*
X3870Y2410D02*
D03*
X2880Y1420D02*
D03*
Y1490D02*
D03*
X2720Y1700D02*
D03*
X2384Y1143D02*
D03*
X1550Y3980D02*
D03*
X1870Y3220D02*
D03*
X1640Y4380D02*
D03*
X1710D02*
D03*
X1870Y3300D02*
D03*
X4500Y4310D02*
D03*
X2750Y1040D02*
D03*
X3100Y2730D02*
D03*
X4080Y2460D02*
D03*
X2670Y320D02*
D03*
X1730Y2110D02*
D03*
X3532Y1652D02*
D03*
X3600Y1650D02*
D03*
X3670Y1660D02*
D03*
X3810Y1463D02*
D03*
X3840Y1660D02*
D03*
X1630Y390D02*
D03*
X1830Y430D02*
D03*
Y380D02*
D03*
X517Y1230D02*
D03*
D184*
X2210Y520D02*
X2400Y710D01*
X1533Y1073D02*
X1636D01*
X4370Y4210D02*
Y4540D01*
X4330Y4580D02*
X4370Y4540D01*
X4240Y4580D02*
X4330D01*
X4270Y4760D02*
X4320D01*
X4230D02*
X4270D01*
X4200Y4620D02*
X4240Y4580D01*
X4200Y4620D02*
Y4730D01*
X4230Y4760D01*
X3960Y1410D02*
X4000D01*
X4050D01*
X3952Y1402D02*
X3960Y1410D01*
X3882Y1402D02*
X3952D01*
X3800Y1320D02*
X3882Y1402D01*
X3670Y1320D02*
X3800D01*
X4500Y4310D02*
Y4770D01*
X4450Y4820D02*
X4500Y4770D01*
X3820Y4820D02*
X4450D01*
X3620Y4620D02*
X3820Y4820D01*
X3410Y4620D02*
X3620D01*
X2080Y520D02*
X2210D01*
X1860Y300D02*
X2080Y520D01*
X1780Y300D02*
X1860D01*
X1720Y360D02*
X1780Y300D01*
X1720Y360D02*
Y990D01*
X1636Y1073D02*
X1720Y990D01*
D186*
X2480Y220D02*
X2860Y600D01*
X1570Y350D02*
X1700Y220D01*
X2480D01*
X3070Y600D02*
X3190Y720D01*
X3260D01*
X2860Y600D02*
X3070D01*
D187*
X3600Y2190D02*
X3880D01*
X3470Y2320D02*
X3600Y2190D01*
X4200Y2240D02*
X4650D01*
X4150Y2190D02*
X4200Y2240D01*
X3880Y2190D02*
X4150D01*
D189*
X4080Y1140D02*
X4240Y980D01*
X2970Y1140D02*
X4080D01*
X1669Y2540D02*
X1860D01*
X1600Y2609D02*
X1669Y2540D01*
X1600Y2609D02*
Y2670D01*
X1940Y1620D02*
X2060Y1500D01*
Y940D02*
Y1500D01*
X2020Y900D02*
X2060Y940D01*
X2610Y2100D02*
X2680D01*
X2280Y1770D02*
X2610Y2100D01*
X1990Y1770D02*
X2280D01*
X1940Y1720D02*
X1990Y1770D01*
X1940Y1620D02*
Y1720D01*
X2020Y720D02*
Y900D01*
X2680Y2100D02*
X2740D01*
X2785Y1325D02*
X2970Y1140D01*
X2500Y1325D02*
X2785D01*
X1600Y2670D02*
X1640Y2710D01*
X1780D01*
X2210Y720D02*
X2260D01*
X2020D02*
X2210D01*
X4240Y980D02*
X4280D01*
X4330D01*
X4260Y3590D02*
X4310D01*
X4260Y3590D02*
X4260Y3590D01*
X3630Y3540D02*
Y3600D01*
Y3540D02*
X3720Y3450D01*
X4120D02*
X4260Y3590D01*
X3720Y3450D02*
X4120D01*
X1830Y530D02*
X2020Y720D01*
X1830Y380D02*
Y430D01*
Y530D01*
D194*
X170Y4120D02*
D03*
X170Y3920D02*
D03*
X170Y3720D02*
D03*
Y3520D02*
D03*
Y4320D02*
D03*
D195*
X1186Y2932D02*
D03*
Y2068D02*
D03*
D196*
X700Y2962D02*
D03*
D197*
X670Y2038D02*
D03*
D198*
X4925Y1002D02*
D03*
Y1198D02*
D03*
D199*
X4870Y750D02*
D03*
D200*
X1406Y1010D02*
D03*
X1914Y908D02*
D03*
Y1112D02*
D03*
X4914Y4810D02*
D03*
X4406Y4912D02*
D03*
Y4708D02*
D03*
X4790Y3614D02*
D03*
X4688Y3106D02*
D03*
X4892D02*
D03*
X3254Y3840D02*
D03*
X2746Y3942D02*
D03*
Y3738D02*
D03*
D201*
X80Y1510D02*
D03*
X100Y1690D02*
D03*
X270D02*
D03*
X4890Y4710D02*
D03*
X4870Y310D02*
D03*
Y1070D02*
D03*
X4830Y1110D02*
D03*
X4840Y450D02*
D03*
X4846Y588D02*
D03*
X3330Y1070D02*
D03*
X3340Y2040D02*
D03*
X850Y1530D02*
D03*
X1000Y1450D02*
D03*
X860D02*
D03*
X2880Y3690D02*
D03*
X3900Y1013D02*
D03*
X4440Y390D02*
D03*
Y440D02*
D03*
X1533Y1073D02*
D03*
X4040Y3200D02*
D03*
X4000Y3240D02*
D03*
X4100Y3200D02*
D03*
X4090Y3350D02*
D03*
X4630Y3310D02*
D03*
X4580D02*
D03*
X4630Y3370D02*
D03*
X4580D02*
D03*
X4270Y4760D02*
D03*
X2590Y1040D02*
D03*
X4650Y2240D02*
D03*
X4565Y1625D02*
D03*
X4000Y1410D02*
D03*
X3590Y4450D02*
D03*
Y4250D02*
D03*
Y4530D02*
D03*
Y4350D02*
D03*
Y4160D02*
D03*
X2190Y4000D02*
D03*
X1230Y3830D02*
D03*
X1200Y3220D02*
D03*
X1280Y3590D02*
D03*
X2930Y4400D02*
D03*
X3170Y4510D02*
D03*
X3075Y4400D02*
D03*
X4320Y4760D02*
D03*
X4787Y4747D02*
D03*
X4600Y950D02*
D03*
X4330Y980D02*
D03*
X4600Y900D02*
D03*
X4280Y980D02*
D03*
X4270Y1100D02*
D03*
Y1050D02*
D03*
X4565Y1555D02*
D03*
X4790Y1030D02*
D03*
X4830Y990D02*
D03*
X1250Y4690D02*
D03*
X2530Y3440D02*
D03*
X2569Y3481D02*
D03*
X2700Y4040D02*
D03*
Y4280D02*
D03*
Y4330D02*
D03*
X2873Y3776D02*
D03*
X3845Y3335D02*
D03*
X3790D02*
D03*
X3900D02*
D03*
X4260Y3590D02*
D03*
X4310Y3590D02*
D03*
X1270Y1480D02*
D03*
X2530Y1350D02*
D03*
X2480D02*
D03*
Y1300D02*
D03*
X2530D02*
D03*
X2260Y720D02*
D03*
X2210D02*
D03*
X2250Y2660D02*
D03*
Y2610D02*
D03*
X4050Y1410D02*
D03*
X3880Y2190D02*
D03*
X2570Y1110D02*
D03*
X1250Y4450D02*
D03*
X1251Y4071D02*
D03*
X1787Y1073D02*
D03*
X2680Y1040D02*
D03*
X4210Y4920D02*
D03*
X4310D02*
D03*
X4660Y80D02*
D03*
X4440D02*
D03*
X4560D02*
D03*
X3990Y590D02*
D03*
X3830D02*
D03*
X3670D02*
D03*
X3510D02*
D03*
X3350D02*
D03*
X3190D02*
D03*
X170Y340D02*
D03*
X110D02*
D03*
X90Y4220D02*
D03*
Y4430D02*
D03*
X110Y4610D02*
D03*
X190Y4770D02*
D03*
X337Y4875D02*
D03*
X500Y4910D02*
D03*
X660D02*
D03*
X800D02*
D03*
X230Y4610D02*
D03*
X4100Y2530D02*
D03*
X1570Y350D02*
D03*
X560Y960D02*
D03*
X100Y1300D02*
D03*
X420Y1220D02*
D03*
X440Y1370D02*
D03*
X270Y1410D02*
D03*
X100Y1120D02*
D03*
D202*
X4640Y260D02*
D03*
X4690Y310D02*
D03*
X4590D02*
D03*
Y210D02*
D03*
X4690D02*
D03*
X4760Y120D02*
D03*
X410Y100D02*
D03*
X160Y270D02*
D03*
X2840Y3990D02*
D03*
X2880Y3520D02*
D03*
X1880Y3130D02*
D03*
X3110Y3320D02*
D03*
X3050D02*
D03*
X4230Y730D02*
D03*
X4590Y3030D02*
D03*
Y3090D02*
D03*
Y3150D02*
D03*
X1980Y1250D02*
D03*
Y1310D02*
D03*
Y1370D02*
D03*
X1920D02*
D03*
Y1310D02*
D03*
Y1250D02*
D03*
X2740Y2100D02*
D03*
X2680D02*
D03*
X3550Y3060D02*
D03*
X3460D02*
D03*
X3920Y2950D02*
D03*
X2570Y3940D02*
D03*
X1370Y130D02*
D03*
Y190D02*
D03*
X1220Y130D02*
D03*
X1370Y250D02*
D03*
X1220Y190D02*
D03*
Y250D02*
D03*
X1610Y4790D02*
D03*
X720Y3130D02*
D03*
X780D02*
D03*
X3380Y4360D02*
D03*
X3320D02*
D03*
X3380Y4300D02*
D03*
X3320D02*
D03*
X1780Y2710D02*
D03*
X1070Y1820D02*
D03*
X1870Y1280D02*
D03*
X3450Y3250D02*
D03*
Y3190D02*
D03*
X3230Y3060D02*
D03*
X2650Y970D02*
D03*
X3470Y2320D02*
D03*
X3650Y990D02*
D03*
X560Y500D02*
D03*
X1410Y350D02*
D03*
Y410D02*
D03*
X1580Y500D02*
D03*
X1520D02*
D03*
X3160Y3500D02*
D03*
X3100D02*
D03*
X3660Y4020D02*
D03*
X4120Y4210D02*
D03*
X4050D02*
D03*
X4100Y4300D02*
D03*
X3980Y4350D02*
D03*
X3760D02*
D03*
X3750Y4250D02*
D03*
X3860Y4350D02*
D03*
X3980Y4250D02*
D03*
X4190Y4210D02*
D03*
X3940Y4120D02*
D03*
Y4060D02*
D03*
Y4000D02*
D03*
X3780Y4120D02*
D03*
Y4060D02*
D03*
Y4000D02*
D03*
Y3940D02*
D03*
X3940D02*
D03*
X3380Y4120D02*
D03*
X3320D02*
D03*
X3380Y4180D02*
D03*
X3320D02*
D03*
X3380Y4240D02*
D03*
X3320D02*
D03*
X780Y3270D02*
D03*
Y3200D02*
D03*
X720D02*
D03*
X660D02*
D03*
Y3130D02*
D03*
X600D02*
D03*
Y3200D02*
D03*
X3590Y4830D02*
D03*
Y4770D02*
D03*
Y4710D02*
D03*
X3810Y4660D02*
D03*
X3870D02*
D03*
X3810Y4600D02*
D03*
X3870D02*
D03*
Y4540D02*
D03*
X3810D02*
D03*
Y4480D02*
D03*
X3870D02*
D03*
X3960D02*
D03*
Y4540D02*
D03*
X4110Y4590D02*
D03*
Y4650D02*
D03*
X4020Y4480D02*
D03*
X4050Y4590D02*
D03*
Y4650D02*
D03*
X3990D02*
D03*
X4020Y4540D02*
D03*
X3990Y4590D02*
D03*
X4030Y790D02*
D03*
Y910D02*
D03*
Y850D02*
D03*
X1248Y3447D02*
D03*
Y3510D02*
D03*
X560Y4370D02*
D03*
X800D02*
D03*
X740D02*
D03*
X680D02*
D03*
X620D02*
D03*
X1250Y3920D02*
D03*
Y3980D02*
D03*
X560Y4500D02*
D03*
X620D02*
D03*
X560Y3940D02*
D03*
X620D02*
D03*
X690Y3810D02*
D03*
X750D02*
D03*
X810D02*
D03*
X870D02*
D03*
X930D02*
D03*
X680Y4500D02*
D03*
X860Y4370D02*
D03*
X680Y3940D02*
D03*
X770D02*
D03*
X3920Y3780D02*
D03*
Y3720D02*
D03*
X4195Y4075D02*
D03*
Y4005D02*
D03*
X3630Y3540D02*
D03*
Y3600D02*
D03*
X1040Y1040D02*
D03*
X1100D02*
D03*
X750Y220D02*
D03*
Y160D02*
D03*
X650D02*
D03*
Y220D02*
D03*
X820Y710D02*
D03*
Y650D02*
D03*
X880D02*
D03*
Y590D02*
D03*
X820D02*
D03*
Y770D02*
D03*
X960Y800D02*
D03*
Y740D02*
D03*
X1190Y1880D02*
D03*
Y1940D02*
D03*
Y1820D02*
D03*
X1130D02*
D03*
Y1880D02*
D03*
Y1940D02*
D03*
X1070Y1980D02*
D03*
X1004Y2685D02*
D03*
Y2625D02*
D03*
Y2315D02*
D03*
Y2375D02*
D03*
X945Y2625D02*
D03*
Y2375D02*
D03*
X1360Y2320D02*
D03*
Y2260D02*
D03*
Y2740D02*
D03*
Y2680D02*
D03*
X1180Y2680D02*
D03*
Y2320D02*
D03*
X3690Y760D02*
D03*
X3630D02*
D03*
X3570D02*
D03*
X2130Y1960D02*
D03*
Y1900D02*
D03*
X1890Y1890D02*
D03*
X1830Y1930D02*
D03*
X1720Y1860D02*
D03*
X1790Y1880D02*
D03*
X1890Y1960D02*
D03*
X2630Y1100D02*
D03*
X2200Y4110D02*
D03*
X3230Y1230D02*
D03*
X2300Y2810D02*
D03*
X3790Y1890D02*
D03*
X3850D02*
D03*
X3700Y2450D02*
D03*
Y2390D02*
D03*
X1250Y4610D02*
D03*
X1250Y4540D02*
D03*
X1710Y4030D02*
D03*
X1650D02*
D03*
X1710Y4090D02*
D03*
Y4150D02*
D03*
X1650Y4090D02*
D03*
Y4150D02*
D03*
Y4210D02*
D03*
X1590D02*
D03*
Y4150D02*
D03*
Y4270D02*
D03*
X1710Y3970D02*
D03*
X600Y2840D02*
D03*
Y2590D02*
D03*
Y2340D02*
D03*
Y2180D02*
D03*
X590Y1910D02*
D03*
X2790Y100D02*
D03*
Y250D02*
D03*
X2620Y90D02*
D03*
X2570Y4910D02*
D03*
X3130D02*
D03*
X2850D02*
D03*
X2280D02*
D03*
X2500Y4420D02*
D03*
X2280Y4630D02*
D03*
X3340Y3660D02*
D03*
X3590Y3780D02*
D03*
X4080Y3590D02*
D03*
X4490Y3970D02*
D03*
Y4090D02*
D03*
X4860Y4200D02*
D03*
X4233Y2130D02*
D03*
X4495Y1280D02*
D03*
Y1170D02*
D03*
X4605Y1280D02*
D03*
Y1170D02*
D03*
X4240Y4440D02*
D03*
X4190Y4490D02*
D03*
Y4390D02*
D03*
X4290Y4490D02*
D03*
Y4390D02*
D03*
X4210Y3020D02*
D03*
M02*
