G04*
G04 #@! TF.GenerationSoftware,Altium Limited,Altium Designer,20.0.13 (296)*
G04*
G04 Layer_Physical_Order=5*
G04 Layer_Color=8388736*
%FSLAX42Y42*%
%MOMM*%
G71*
G01*
G75*
%ADD12C,0.15*%
%ADD99C,0.30*%
%ADD101C,0.45*%
%ADD182C,0.15*%
%ADD183C,0.30*%
%ADD184C,0.40*%
%ADD189C,0.50*%
%ADD194C,1.50*%
%ADD195O,2.10X1.10*%
%ADD196O,3.60X1.10*%
%ADD197O,3.00X1.20*%
%ADD198C,0.90*%
%ADD199C,0.35*%
%ADD200C,0.99*%
%ADD201C,0.50*%
%ADD202C,0.60*%
G36*
X4654Y4944D02*
X4702Y4931D01*
X4740Y4915D01*
X4747Y4897D01*
X4747Y4890D01*
X4744Y4874D01*
X4747Y4857D01*
X4756Y4843D01*
X4770Y4833D01*
X4787Y4830D01*
X4804Y4833D01*
X4818Y4843D01*
X4831Y4844D01*
X4840Y4834D01*
X4846Y4825D01*
X4844Y4810D01*
X4846Y4792D01*
X4853Y4775D01*
X4864Y4760D01*
X4879Y4749D01*
X4896Y4742D01*
X4914Y4740D01*
X4920Y4741D01*
X4922Y4738D01*
X4941Y4692D01*
X4953Y4644D01*
X4960Y4595D01*
X4960Y4570D01*
X4960D01*
X4960Y4570D01*
X4960Y3164D01*
X4945Y3157D01*
X4940Y3157D01*
X4927Y3167D01*
X4910Y3174D01*
X4892Y3176D01*
X4873Y3174D01*
X4857Y3167D01*
X4842Y3156D01*
X4831Y3141D01*
X4824Y3124D01*
X4821Y3106D01*
X4824Y3088D01*
X4831Y3071D01*
X4837Y3063D01*
X4839Y3041D01*
X4830Y3027D01*
X4827Y3010D01*
X4827Y3007D01*
X4825Y3002D01*
X4810Y2991D01*
X4800Y2993D01*
X4783Y2990D01*
X4769Y2981D01*
X4760Y2967D01*
X4757Y2950D01*
X4759Y2938D01*
X4753Y2920D01*
X4739Y2911D01*
X4730Y2897D01*
X4727Y2880D01*
X4730Y2863D01*
X4739Y2849D01*
X4753Y2840D01*
X4770Y2837D01*
X4787Y2840D01*
X4801Y2849D01*
X4810Y2863D01*
X4813Y2880D01*
X4811Y2892D01*
X4817Y2910D01*
X4831Y2919D01*
X4840Y2933D01*
X4843Y2950D01*
X4843Y2953D01*
X4845Y2958D01*
X4860Y2969D01*
X4870Y2967D01*
X4887Y2970D01*
X4901Y2979D01*
X4910Y2993D01*
X4913Y3010D01*
X4912Y3018D01*
X4911Y3028D01*
X4923Y3044D01*
X4927Y3045D01*
X4940Y3055D01*
X4945Y3055D01*
X4960Y3048D01*
X4960Y1275D01*
X4943Y1262D01*
X4940Y1261D01*
X4925Y1263D01*
X4908Y1261D01*
X4892Y1254D01*
X4879Y1244D01*
X4868Y1230D01*
X4862Y1214D01*
X4859Y1198D01*
X4862Y1181D01*
X4868Y1165D01*
X4872Y1160D01*
X4858Y1146D01*
X4848Y1152D01*
X4830Y1156D01*
X4812Y1152D01*
X4798Y1142D01*
X4788Y1128D01*
X4784Y1110D01*
X4787Y1094D01*
X4788Y1092D01*
X4776Y1073D01*
X4772Y1072D01*
X4758Y1062D01*
X4748Y1048D01*
X4744Y1030D01*
X4748Y1012D01*
X4758Y998D01*
X4772Y988D01*
X4785Y985D01*
X4788Y972D01*
X4798Y958D01*
X4812Y948D01*
X4830Y944D01*
X4848Y948D01*
X4862Y958D01*
X4883Y953D01*
X4892Y946D01*
X4908Y939D01*
X4925Y937D01*
X4940Y939D01*
X4943Y938D01*
X4960Y925D01*
X4960Y410D01*
X4960Y386D01*
X4954Y340D01*
X4942Y294D01*
X4924Y250D01*
X4900Y210D01*
X4871Y172D01*
X4838Y139D01*
X4829Y132D01*
X4807Y139D01*
X4807Y140D01*
X4796Y156D01*
X4780Y167D01*
X4760Y171D01*
X4740Y167D01*
X4724Y156D01*
X4713Y140D01*
X4709Y120D01*
X4713Y100D01*
X4719Y91D01*
X4717Y73D01*
X4713Y67D01*
X4670Y56D01*
X4624Y50D01*
X4600Y50D01*
X4600Y50D01*
X4600Y50D01*
X4378Y50D01*
X4372Y66D01*
X4371Y70D01*
X4380Y83D01*
X4383Y100D01*
X4380Y117D01*
X4371Y131D01*
X4357Y140D01*
X4340Y143D01*
X4323Y140D01*
X4309Y131D01*
X4300Y117D01*
X4297Y100D01*
X4300Y83D01*
X4298Y76D01*
X4289Y64D01*
X4281Y64D01*
X4269Y76D01*
X4260Y98D01*
X4260Y110D01*
X4260Y420D01*
X4259Y435D01*
X4254Y464D01*
X4242Y491D01*
X4226Y515D01*
X4205Y536D01*
X4181Y552D01*
X4154Y564D01*
X4128Y569D01*
X4125Y569D01*
X4110Y570D01*
X4110Y570D01*
X4110Y570D01*
X4110Y570D01*
X2990Y570D01*
X2975Y569D01*
X2946Y564D01*
X2919Y552D01*
X2895Y536D01*
X2874Y515D01*
X2858Y491D01*
X2846Y464D01*
X2842Y439D01*
X2841Y435D01*
X2840Y420D01*
X2840Y420D01*
X2840Y420D01*
X2840Y100D01*
X2840Y90D01*
X2832Y72D01*
X2818Y58D01*
X2809Y54D01*
X2790Y50D01*
Y50D01*
X500Y50D01*
X471Y50D01*
X412Y58D01*
X355Y73D01*
X301Y96D01*
X249Y125D01*
X203Y161D01*
X161Y203D01*
X125Y249D01*
X96Y301D01*
X73Y355D01*
X61Y400D01*
X77Y417D01*
X77Y417D01*
X80Y417D01*
X97Y420D01*
X111Y429D01*
X120Y443D01*
X123Y460D01*
X120Y477D01*
X111Y491D01*
X97Y500D01*
X80Y503D01*
X70Y501D01*
X53Y511D01*
X50Y515D01*
X50Y1670D01*
X50Y1680D01*
X58Y1698D01*
X72Y1712D01*
X90Y1720D01*
X100Y1720D01*
X100Y1720D01*
X410Y1720D01*
X425Y1721D01*
X454Y1726D01*
X481Y1738D01*
X505Y1754D01*
X526Y1775D01*
X542Y1799D01*
X554Y1826D01*
X559Y1855D01*
X560Y1870D01*
X560Y1870D01*
Y1935D01*
X575Y1948D01*
X580Y1947D01*
X650D01*
Y2038D01*
Y2129D01*
X580D01*
X575Y2128D01*
X560Y2141D01*
X560Y2863D01*
X575Y2876D01*
X680D01*
Y2962D01*
Y3048D01*
X580D01*
X568Y3055D01*
X567Y3069D01*
X567Y3069D01*
X580Y3083D01*
X600Y3079D01*
X620Y3083D01*
X630Y3090D01*
X640Y3083D01*
X660Y3079D01*
X680Y3083D01*
X690Y3090D01*
X700Y3083D01*
X720Y3079D01*
X740Y3083D01*
X750Y3090D01*
X760Y3083D01*
X780Y3079D01*
X800Y3083D01*
X816Y3094D01*
X827Y3110D01*
X831Y3130D01*
X827Y3150D01*
X817Y3165D01*
X827Y3180D01*
X831Y3200D01*
X827Y3220D01*
X817Y3235D01*
X827Y3250D01*
X831Y3270D01*
X827Y3290D01*
X816Y3306D01*
X800Y3317D01*
X780Y3321D01*
X760Y3317D01*
X744Y3306D01*
X733Y3290D01*
X729Y3270D01*
X729Y3270D01*
X720Y3251D01*
X700Y3247D01*
X690Y3240D01*
X680Y3247D01*
X660Y3251D01*
X640Y3247D01*
X630Y3240D01*
X620Y3247D01*
X600Y3251D01*
X580Y3247D01*
X564Y3236D01*
X553Y3220D01*
X532Y3216D01*
X526Y3225D01*
X505Y3246D01*
X481Y3262D01*
X454Y3274D01*
X428Y3279D01*
X425Y3279D01*
X410Y3280D01*
X410Y3280D01*
X410Y3280D01*
X410Y3280D01*
X100Y3280D01*
X90Y3280D01*
X72Y3288D01*
X58Y3302D01*
X50Y3320D01*
X50Y3330D01*
X50Y4500D01*
X50Y4529D01*
X58Y4588D01*
X73Y4645D01*
X96Y4699D01*
X125Y4751D01*
X161Y4797D01*
X203Y4839D01*
X249Y4875D01*
X301Y4904D01*
X355Y4927D01*
X412Y4942D01*
X471Y4950D01*
X500D01*
X500Y4950D01*
X4325Y4950D01*
X4338Y4930D01*
X4338Y4930D01*
X4336Y4912D01*
X4338Y4893D01*
X4345Y4877D01*
X4356Y4862D01*
X4371Y4851D01*
X4388Y4844D01*
X4406Y4841D01*
X4424Y4844D01*
X4441Y4851D01*
X4456Y4862D01*
X4467Y4877D01*
X4468Y4878D01*
X4489Y4877D01*
X4490Y4874D01*
X4490Y4871D01*
X4493Y4857D01*
X4502Y4843D01*
X4516Y4833D01*
X4533Y4830D01*
X4550Y4833D01*
X4564Y4843D01*
X4573Y4857D01*
X4576Y4874D01*
X4573Y4890D01*
X4564Y4904D01*
X4550Y4914D01*
X4533Y4917D01*
X4516Y4914D01*
X4502Y4904D01*
X4493Y4890D01*
X4493D01*
X4500Y4900D01*
X4490Y4891D01*
X4482Y4893D01*
X4475Y4902D01*
X4476Y4912D01*
X4474Y4930D01*
X4474Y4930D01*
X4487Y4950D01*
X4580D01*
X4605Y4950D01*
X4654Y4944D01*
D02*
G37*
G36*
X13536Y5013D02*
X13538D01*
X13542Y5012D01*
X13547Y5012D01*
X13552Y5010D01*
X13558Y5009D01*
X13563Y5007D01*
X13563D01*
X13564Y5007D01*
X13564Y5007D01*
X13565Y5006D01*
X13568Y5005D01*
X13571Y5003D01*
X13575Y5001D01*
X13578Y4998D01*
X13582Y4995D01*
X13585Y4991D01*
X13586Y4991D01*
X13586Y4990D01*
X13588Y4987D01*
X13590Y4984D01*
X13592Y4981D01*
X13594Y4976D01*
X13596Y4971D01*
X13597Y4965D01*
X13578Y4960D01*
Y4960D01*
X13578Y4961D01*
X13578Y4961D01*
X13577Y4962D01*
X13577Y4964D01*
X13576Y4967D01*
X13574Y4970D01*
X13573Y4973D01*
X13571Y4977D01*
X13569Y4979D01*
X13569Y4980D01*
X13568Y4981D01*
X13567Y4982D01*
X13565Y4983D01*
X13563Y4985D01*
X13560Y4987D01*
X13557Y4989D01*
X13554Y4990D01*
X13553Y4991D01*
X13552Y4991D01*
X13550Y4992D01*
X13547Y4993D01*
X13544Y4993D01*
X13540Y4994D01*
X13536Y4995D01*
X13532Y4995D01*
X13529D01*
X13528Y4995D01*
X13527D01*
X13523Y4994D01*
X13519Y4994D01*
X13515Y4993D01*
X13511Y4992D01*
X13507Y4990D01*
X13506Y4990D01*
X13505Y4990D01*
X13503Y4988D01*
X13501Y4987D01*
X13498Y4985D01*
X13495Y4984D01*
X13492Y4981D01*
X13489Y4979D01*
X13489Y4978D01*
X13488Y4977D01*
X13487Y4976D01*
X13486Y4974D01*
X13484Y4972D01*
X13483Y4969D01*
X13481Y4966D01*
X13479Y4963D01*
Y4962D01*
X13479Y4962D01*
X13479Y4961D01*
X13478Y4960D01*
X13478Y4959D01*
X13477Y4957D01*
X13477Y4955D01*
X13476Y4953D01*
X13475Y4948D01*
X13474Y4943D01*
X13474Y4937D01*
X13473Y4931D01*
Y4930D01*
Y4930D01*
Y4928D01*
X13474Y4927D01*
Y4925D01*
X13474Y4923D01*
X13474Y4921D01*
X13474Y4918D01*
X13475Y4912D01*
X13476Y4906D01*
X13478Y4900D01*
X13480Y4894D01*
Y4894D01*
X13481Y4894D01*
X13481Y4893D01*
X13482Y4892D01*
X13483Y4890D01*
X13486Y4886D01*
X13489Y4883D01*
X13493Y4879D01*
X13497Y4876D01*
X13502Y4873D01*
X13502D01*
X13503Y4873D01*
X13503Y4872D01*
X13505Y4872D01*
X13506Y4872D01*
X13507Y4871D01*
X13511Y4870D01*
X13516Y4869D01*
X13521Y4867D01*
X13526Y4866D01*
X13532Y4866D01*
X13534D01*
X13536Y4866D01*
X13537D01*
X13541Y4867D01*
X13545Y4867D01*
X13549Y4868D01*
X13554Y4870D01*
X13559Y4871D01*
X13559D01*
X13560Y4872D01*
X13560Y4872D01*
X13561Y4872D01*
X13564Y4873D01*
X13566Y4875D01*
X13570Y4876D01*
X13573Y4878D01*
X13576Y4880D01*
X13579Y4883D01*
Y4913D01*
X13532D01*
Y4932D01*
X13600D01*
Y4872D01*
X13600Y4872D01*
X13599Y4872D01*
X13598Y4871D01*
X13597Y4870D01*
X13596Y4869D01*
X13594Y4868D01*
X13592Y4867D01*
X13590Y4865D01*
X13585Y4862D01*
X13580Y4859D01*
X13574Y4856D01*
X13567Y4853D01*
X13567D01*
X13567Y4853D01*
X13566Y4853D01*
X13565Y4853D01*
X13563Y4852D01*
X13561Y4851D01*
X13559Y4851D01*
X13557Y4850D01*
X13552Y4849D01*
X13546Y4848D01*
X13540Y4847D01*
X13533Y4847D01*
X13531D01*
X13530Y4847D01*
X13527D01*
X13525Y4848D01*
X13522Y4848D01*
X13519Y4848D01*
X13512Y4850D01*
X13505Y4851D01*
X13498Y4854D01*
X13494Y4855D01*
X13490Y4857D01*
X13490Y4857D01*
X13489Y4858D01*
X13489Y4858D01*
X13487Y4859D01*
X13486Y4860D01*
X13484Y4861D01*
X13480Y4865D01*
X13475Y4869D01*
X13470Y4874D01*
X13465Y4880D01*
X13461Y4886D01*
Y4887D01*
X13461Y4887D01*
X13460Y4888D01*
X13460Y4890D01*
X13459Y4891D01*
X13458Y4894D01*
X13457Y4896D01*
X13456Y4899D01*
X13455Y4902D01*
X13455Y4905D01*
X13454Y4909D01*
X13453Y4912D01*
X13452Y4921D01*
X13452Y4929D01*
Y4929D01*
Y4930D01*
Y4931D01*
X13452Y4933D01*
Y4935D01*
X13452Y4938D01*
X13452Y4940D01*
X13453Y4943D01*
X13453Y4946D01*
X13454Y4950D01*
X13456Y4957D01*
X13458Y4965D01*
X13461Y4973D01*
X13461Y4973D01*
X13462Y4974D01*
X13462Y4974D01*
X13463Y4976D01*
X13464Y4978D01*
X13465Y4980D01*
X13468Y4984D01*
X13472Y4989D01*
X13477Y4994D01*
X13483Y4999D01*
X13486Y5001D01*
X13489Y5003D01*
X13489Y5003D01*
X13490Y5003D01*
X13491Y5004D01*
X13493Y5005D01*
X13494Y5005D01*
X13496Y5006D01*
X13499Y5007D01*
X13502Y5008D01*
X13505Y5009D01*
X13508Y5010D01*
X13511Y5011D01*
X13515Y5011D01*
X13523Y5012D01*
X13527Y5013D01*
X13535D01*
X13536Y5013D01*
D02*
G37*
G36*
X13433Y4898D02*
X13372D01*
Y4918D01*
X13433D01*
Y4898D01*
D02*
G37*
G36*
X13757Y4850D02*
X13735D01*
X13651Y4976D01*
Y4850D01*
X13631D01*
Y5010D01*
X13653D01*
X13737Y4884D01*
Y5010D01*
X13757D01*
Y4850D01*
D02*
G37*
G36*
X13349Y4989D02*
X13284D01*
X13276Y4946D01*
X13276Y4946D01*
X13277Y4946D01*
X13277Y4947D01*
X13278Y4948D01*
X13280Y4948D01*
X13281Y4949D01*
X13285Y4951D01*
X13290Y4953D01*
X13295Y4955D01*
X13300Y4956D01*
X13303Y4956D01*
X13308D01*
X13310Y4956D01*
X13312Y4956D01*
X13314Y4956D01*
X13316Y4955D01*
X13318Y4954D01*
X13324Y4953D01*
X13327Y4952D01*
X13330Y4950D01*
X13333Y4948D01*
X13336Y4946D01*
X13339Y4944D01*
X13342Y4942D01*
X13342Y4941D01*
X13342Y4941D01*
X13343Y4940D01*
X13344Y4939D01*
X13345Y4937D01*
X13346Y4936D01*
X13348Y4934D01*
X13349Y4931D01*
X13350Y4929D01*
X13352Y4926D01*
X13353Y4923D01*
X13354Y4920D01*
X13355Y4916D01*
X13356Y4912D01*
X13356Y4908D01*
X13356Y4904D01*
Y4904D01*
Y4903D01*
Y4902D01*
X13356Y4900D01*
X13356Y4899D01*
X13356Y4897D01*
X13355Y4894D01*
X13355Y4891D01*
X13353Y4885D01*
X13351Y4879D01*
X13349Y4876D01*
X13348Y4873D01*
X13346Y4870D01*
X13343Y4867D01*
X13343Y4866D01*
X13343Y4866D01*
X13342Y4865D01*
X13341Y4864D01*
X13339Y4862D01*
X13337Y4860D01*
X13335Y4859D01*
X13332Y4857D01*
X13330Y4855D01*
X13326Y4853D01*
X13323Y4852D01*
X13319Y4850D01*
X13315Y4849D01*
X13311Y4848D01*
X13306Y4847D01*
X13301Y4847D01*
X13299D01*
X13298Y4847D01*
X13296Y4848D01*
X13294Y4848D01*
X13291Y4848D01*
X13289Y4849D01*
X13283Y4850D01*
X13277Y4852D01*
X13274Y4854D01*
X13271Y4855D01*
X13268Y4857D01*
X13266Y4859D01*
X13265Y4859D01*
X13265Y4860D01*
X13264Y4861D01*
X13263Y4862D01*
X13262Y4863D01*
X13261Y4864D01*
X13260Y4866D01*
X13259Y4868D01*
X13257Y4870D01*
X13256Y4873D01*
X13253Y4878D01*
X13251Y4885D01*
X13250Y4888D01*
X13250Y4892D01*
X13271Y4894D01*
Y4893D01*
Y4893D01*
X13271Y4892D01*
X13271Y4891D01*
X13272Y4888D01*
X13273Y4885D01*
X13274Y4881D01*
X13276Y4878D01*
X13278Y4874D01*
X13281Y4871D01*
X13281Y4871D01*
X13282Y4870D01*
X13284Y4869D01*
X13287Y4867D01*
X13290Y4866D01*
X13293Y4865D01*
X13297Y4864D01*
X13301Y4863D01*
X13303D01*
X13304Y4864D01*
X13306Y4864D01*
X13310Y4865D01*
X13314Y4866D01*
X13318Y4868D01*
X13322Y4871D01*
X13324Y4872D01*
X13325Y4874D01*
X13326Y4874D01*
X13326Y4875D01*
X13326Y4875D01*
X13327Y4876D01*
X13329Y4878D01*
X13331Y4882D01*
X13332Y4886D01*
X13334Y4890D01*
X13335Y4896D01*
X13335Y4899D01*
Y4903D01*
Y4903D01*
Y4903D01*
Y4904D01*
X13335Y4905D01*
Y4907D01*
X13335Y4908D01*
X13334Y4912D01*
X13333Y4916D01*
X13331Y4921D01*
X13329Y4925D01*
X13326Y4929D01*
Y4929D01*
X13325Y4929D01*
X13324Y4931D01*
X13322Y4932D01*
X13319Y4934D01*
X13316Y4936D01*
X13312Y4937D01*
X13307Y4938D01*
X13304Y4939D01*
X13300D01*
X13298Y4939D01*
X13295Y4938D01*
X13293Y4938D01*
X13290Y4937D01*
X13287Y4936D01*
X13284Y4934D01*
X13284Y4934D01*
X13283Y4934D01*
X13281Y4933D01*
X13279Y4931D01*
X13278Y4930D01*
X13276Y4928D01*
X13274Y4926D01*
X13272Y4923D01*
X13253Y4926D01*
X13269Y5008D01*
X13349D01*
Y4989D01*
D02*
G37*
G36*
X13858Y5010D02*
X13863Y5010D01*
X13868Y5009D01*
X13872Y5009D01*
X13876Y5008D01*
X13876D01*
X13877Y5008D01*
X13878D01*
X13878Y5007D01*
X13881Y5006D01*
X13884Y5005D01*
X13888Y5004D01*
X13892Y5002D01*
X13896Y4999D01*
X13900Y4996D01*
X13900Y4996D01*
X13900Y4996D01*
X13901Y4995D01*
X13902Y4994D01*
X13904Y4992D01*
X13907Y4989D01*
X13910Y4985D01*
X13913Y4980D01*
X13916Y4975D01*
X13918Y4969D01*
Y4969D01*
X13919Y4968D01*
X13919Y4967D01*
X13919Y4966D01*
X13920Y4964D01*
X13921Y4962D01*
X13921Y4960D01*
X13922Y4958D01*
X13922Y4955D01*
X13923Y4952D01*
X13924Y4946D01*
X13925Y4939D01*
X13925Y4931D01*
Y4931D01*
Y4930D01*
Y4929D01*
Y4928D01*
X13925Y4926D01*
Y4924D01*
X13925Y4920D01*
X13924Y4915D01*
X13923Y4909D01*
X13922Y4904D01*
X13921Y4898D01*
Y4898D01*
X13920Y4898D01*
X13920Y4897D01*
X13920Y4896D01*
X13919Y4894D01*
X13918Y4890D01*
X13916Y4887D01*
X13914Y4883D01*
X13912Y4879D01*
X13910Y4875D01*
X13909Y4875D01*
X13909Y4874D01*
X13907Y4872D01*
X13905Y4870D01*
X13903Y4868D01*
X13901Y4865D01*
X13898Y4863D01*
X13895Y4861D01*
X13895Y4860D01*
X13894Y4860D01*
X13892Y4859D01*
X13890Y4858D01*
X13887Y4856D01*
X13884Y4855D01*
X13880Y4854D01*
X13876Y4853D01*
X13875D01*
X13875Y4852D01*
X13874Y4852D01*
X13872Y4852D01*
X13869Y4851D01*
X13865Y4851D01*
X13860Y4850D01*
X13856Y4850D01*
X13850Y4850D01*
X13793D01*
Y5010D01*
X13854D01*
X13858Y5010D01*
D02*
G37*
%LPC*%
G36*
X4660Y4917D02*
X4643Y4914D01*
X4629Y4904D01*
X4620Y4890D01*
X4617Y4874D01*
X4620Y4857D01*
X4629Y4843D01*
X4643Y4833D01*
X4660Y4830D01*
X4677Y4833D01*
X4691Y4843D01*
X4700Y4857D01*
X4703Y4874D01*
X4700Y4890D01*
X4691Y4904D01*
X4677Y4914D01*
X4660Y4917D01*
D02*
G37*
G36*
X1260Y4903D02*
X1243Y4900D01*
X1229Y4891D01*
X1220Y4877D01*
X1217Y4860D01*
X1220Y4843D01*
X1229Y4829D01*
X1243Y4820D01*
X1260Y4817D01*
X1277Y4820D01*
X1291Y4829D01*
X1300Y4843D01*
X1303Y4860D01*
X1300Y4877D01*
X1291Y4891D01*
X1277Y4900D01*
X1260Y4903D01*
D02*
G37*
G36*
X4320Y4806D02*
X4302Y4802D01*
X4295Y4797D01*
X4288Y4802D01*
X4270Y4806D01*
X4252Y4802D01*
X4238Y4792D01*
X4228Y4778D01*
X4224Y4760D01*
X4228Y4742D01*
X4238Y4728D01*
X4239Y4727D01*
X4238Y4703D01*
X4234Y4701D01*
X4225Y4687D01*
X4222Y4670D01*
X4225Y4653D01*
X4234Y4639D01*
X4248Y4630D01*
X4265Y4627D01*
X4282Y4630D01*
X4296Y4639D01*
X4305Y4653D01*
X4308Y4670D01*
X4305Y4687D01*
X4303Y4689D01*
X4314Y4710D01*
X4324Y4710D01*
X4337Y4697D01*
X4338Y4690D01*
X4345Y4673D01*
X4356Y4659D01*
X4371Y4648D01*
X4388Y4641D01*
X4406Y4638D01*
X4424Y4641D01*
X4441Y4648D01*
X4456Y4659D01*
X4467Y4673D01*
X4474Y4690D01*
X4476Y4708D01*
X4474Y4727D01*
X4467Y4743D01*
X4456Y4758D01*
X4441Y4769D01*
X4424Y4776D01*
X4406Y4779D01*
X4388Y4776D01*
X4383Y4774D01*
X4364Y4777D01*
X4358Y4784D01*
X4352Y4792D01*
X4338Y4802D01*
X4320Y4806D01*
D02*
G37*
G36*
X4787Y4792D02*
X4769Y4789D01*
X4755Y4779D01*
X4745Y4764D01*
X4744Y4762D01*
X4727Y4750D01*
X4710Y4753D01*
X4693Y4750D01*
X4679Y4741D01*
X4670Y4727D01*
X4667Y4710D01*
X4670Y4693D01*
X4679Y4679D01*
X4693Y4670D01*
X4710Y4667D01*
X4727Y4670D01*
X4741Y4679D01*
X4750Y4693D01*
X4767Y4703D01*
X4772Y4704D01*
X4787Y4701D01*
X4805Y4704D01*
X4819Y4714D01*
X4829Y4729D01*
X4833Y4747D01*
X4829Y4764D01*
X4819Y4779D01*
X4805Y4789D01*
X4787Y4792D01*
D02*
G37*
G36*
X3870Y4711D02*
X3850Y4707D01*
X3840Y4700D01*
X3830Y4707D01*
X3810Y4711D01*
X3790Y4707D01*
X3774Y4696D01*
X3763Y4680D01*
X3759Y4660D01*
X3763Y4640D01*
X3770Y4630D01*
X3763Y4620D01*
X3759Y4600D01*
X3763Y4580D01*
X3770Y4570D01*
X3763Y4560D01*
X3759Y4540D01*
X3763Y4520D01*
X3770Y4510D01*
X3763Y4500D01*
X3759Y4480D01*
X3763Y4460D01*
X3774Y4444D01*
X3790Y4433D01*
X3810Y4429D01*
X3830Y4433D01*
X3840Y4440D01*
X3850Y4433D01*
X3870Y4429D01*
X3890Y4433D01*
X3902Y4441D01*
X3915Y4443D01*
X3928Y4441D01*
X3940Y4433D01*
X3960Y4429D01*
X3980Y4433D01*
X3990Y4440D01*
X4000Y4433D01*
X4020Y4429D01*
X4040Y4433D01*
X4056Y4444D01*
X4067Y4460D01*
X4071Y4480D01*
X4067Y4500D01*
X4060Y4510D01*
X4067Y4520D01*
X4070Y4533D01*
X4086Y4542D01*
X4090Y4543D01*
X4090Y4543D01*
X4110Y4539D01*
X4130Y4543D01*
X4146Y4554D01*
X4157Y4570D01*
X4161Y4590D01*
X4157Y4610D01*
X4150Y4620D01*
X4157Y4630D01*
X4161Y4650D01*
X4157Y4670D01*
X4146Y4686D01*
X4130Y4697D01*
X4110Y4701D01*
X4090Y4697D01*
X4080Y4690D01*
X4070Y4697D01*
X4050Y4701D01*
X4030Y4697D01*
X4020Y4690D01*
X4010Y4697D01*
X3990Y4701D01*
X3970Y4697D01*
X3954Y4686D01*
X3943Y4670D01*
X3940Y4657D01*
X3921Y4660D01*
X3917Y4680D01*
X3906Y4696D01*
X3890Y4707D01*
X3870Y4711D01*
D02*
G37*
G36*
X1610Y4841D02*
X1590Y4837D01*
X1574Y4826D01*
X1563Y4810D01*
X1559Y4790D01*
X1563Y4770D01*
X1574Y4754D01*
X1588Y4745D01*
X1599Y4730D01*
X1600Y4727D01*
X1597Y4710D01*
X1600Y4693D01*
X1609Y4679D01*
X1623Y4670D01*
X1640Y4667D01*
X1657Y4670D01*
X1671Y4679D01*
X1679D01*
X1693Y4670D01*
X1710Y4667D01*
X1727Y4670D01*
X1741Y4679D01*
X1750Y4693D01*
X1753Y4710D01*
X1750Y4727D01*
X1741Y4741D01*
X1727Y4750D01*
X1710Y4753D01*
X1693Y4750D01*
X1679Y4741D01*
X1673D01*
X1657Y4755D01*
X1657Y4770D01*
X1657Y4770D01*
X1661Y4790D01*
X1657Y4810D01*
X1646Y4826D01*
X1630Y4837D01*
X1610Y4841D01*
D02*
G37*
G36*
X3590Y4881D02*
X3570Y4877D01*
X3554Y4866D01*
X3543Y4850D01*
X3539Y4830D01*
X3543Y4810D01*
X3550Y4800D01*
X3543Y4790D01*
X3539Y4770D01*
X3543Y4750D01*
X3550Y4740D01*
X3543Y4730D01*
X3539Y4710D01*
X3543Y4690D01*
X3554Y4674D01*
X3570Y4663D01*
X3590Y4659D01*
X3610Y4663D01*
X3626Y4674D01*
X3637Y4690D01*
X3641Y4710D01*
X3637Y4730D01*
X3630Y4740D01*
X3637Y4750D01*
X3641Y4770D01*
X3637Y4790D01*
X3630Y4800D01*
X3637Y4810D01*
X3641Y4830D01*
X3637Y4850D01*
X3626Y4866D01*
X3610Y4877D01*
X3590Y4881D01*
D02*
G37*
G36*
X3340Y4663D02*
X3323Y4660D01*
X3309Y4651D01*
X3300Y4637D01*
X3297Y4620D01*
X3300Y4603D01*
X3309Y4589D01*
X3323Y4580D01*
X3340Y4577D01*
X3357Y4580D01*
X3371Y4589D01*
X3380Y4603D01*
X3383Y4620D01*
X3380Y4637D01*
X3371Y4651D01*
X3357Y4660D01*
X3340Y4663D01*
D02*
G37*
G36*
X680Y4551D02*
X660Y4547D01*
X650Y4540D01*
X640Y4547D01*
X620Y4551D01*
X600Y4547D01*
X590Y4540D01*
X580Y4547D01*
X560Y4551D01*
X540Y4547D01*
X524Y4536D01*
X513Y4520D01*
X509Y4500D01*
X513Y4480D01*
X524Y4464D01*
X540Y4453D01*
X560Y4449D01*
X580Y4453D01*
X590Y4460D01*
X600Y4453D01*
X620Y4449D01*
X640Y4453D01*
X650Y4460D01*
X660Y4453D01*
X680Y4449D01*
X700Y4453D01*
X716Y4464D01*
X727Y4480D01*
X731Y4500D01*
X727Y4520D01*
X716Y4536D01*
X700Y4547D01*
X680Y4551D01*
D02*
G37*
G36*
X1250Y4736D02*
X1232Y4732D01*
X1218Y4722D01*
X1208Y4708D01*
X1204Y4690D01*
X1208Y4672D01*
X1218Y4658D01*
X1209Y4639D01*
X1203Y4629D01*
X1199Y4610D01*
X1203Y4590D01*
X1213Y4575D01*
X1203Y4560D01*
X1199Y4540D01*
X1203Y4520D01*
X1214Y4504D01*
X1214Y4504D01*
X1218Y4482D01*
X1208Y4468D01*
X1204Y4450D01*
X1208Y4432D01*
X1218Y4418D01*
X1232Y4408D01*
X1250Y4404D01*
X1268Y4408D01*
X1282Y4418D01*
X1292Y4432D01*
X1296Y4450D01*
X1292Y4468D01*
X1282Y4482D01*
X1286Y4504D01*
X1286Y4504D01*
X1297Y4520D01*
X1300Y4533D01*
X1319Y4533D01*
X1320Y4533D01*
X1329Y4519D01*
X1343Y4510D01*
X1360Y4507D01*
X1377Y4510D01*
X1391Y4519D01*
X1400Y4533D01*
X1403Y4550D01*
X1400Y4567D01*
X1391Y4581D01*
X1377Y4590D01*
X1360Y4593D01*
X1343Y4590D01*
X1329Y4581D01*
X1320Y4567D01*
X1318Y4557D01*
X1298D01*
X1297Y4560D01*
X1287Y4575D01*
X1297Y4590D01*
X1301Y4610D01*
X1297Y4629D01*
X1291Y4639D01*
X1282Y4658D01*
X1292Y4672D01*
X1296Y4690D01*
X1292Y4708D01*
X1282Y4722D01*
X1268Y4732D01*
X1250Y4736D01*
D02*
G37*
G36*
X3170Y4556D02*
X3152Y4552D01*
X3138Y4542D01*
X3128Y4528D01*
X3124Y4510D01*
X3128Y4492D01*
X3129Y4490D01*
Y4436D01*
X3109Y4430D01*
X3107Y4432D01*
X3093Y4442D01*
X3075Y4446D01*
X3057Y4442D01*
X3043Y4432D01*
X3017Y4430D01*
X3017Y4430D01*
X3000Y4433D01*
X2983Y4430D01*
X2981Y4429D01*
X2962Y4432D01*
X2948Y4442D01*
X2930Y4446D01*
X2912Y4442D01*
X2898Y4432D01*
X2888Y4418D01*
X2884Y4400D01*
X2888Y4382D01*
X2898Y4368D01*
X2912Y4358D01*
X2930Y4354D01*
X2948Y4358D01*
X2949Y4358D01*
X2966Y4364D01*
X2969Y4359D01*
X2983Y4350D01*
X3000Y4347D01*
X3017Y4350D01*
X3031Y4359D01*
X3031Y4359D01*
X3043Y4368D01*
X3057Y4358D01*
X3075Y4354D01*
X3093Y4358D01*
X3107Y4368D01*
X3109Y4370D01*
X3129Y4364D01*
Y4100D01*
X3129Y4100D01*
X3132Y4084D01*
X3141Y4071D01*
X3291Y3922D01*
X3279Y3905D01*
X3272Y3908D01*
X3254Y3910D01*
X3236Y3908D01*
X3219Y3901D01*
X3204Y3890D01*
X3193Y3875D01*
X3186Y3858D01*
X3184Y3840D01*
X3186Y3822D01*
X3193Y3805D01*
X3204Y3790D01*
X3219Y3779D01*
X3236Y3772D01*
X3254Y3770D01*
X3272Y3772D01*
X3289Y3779D01*
X3304Y3790D01*
X3315Y3805D01*
X3322Y3822D01*
X3324Y3840D01*
X3322Y3858D01*
X3319Y3865D01*
X3336Y3877D01*
X3381Y3831D01*
X3394Y3822D01*
X3410Y3819D01*
X3410Y3819D01*
X3862D01*
X3873Y3800D01*
X3869Y3780D01*
X3873Y3760D01*
X3880Y3750D01*
X3873Y3740D01*
X3869Y3720D01*
X3873Y3700D01*
X3884Y3684D01*
X3900Y3673D01*
X3920Y3669D01*
X3940Y3673D01*
X3956Y3684D01*
X3967Y3700D01*
X3971Y3720D01*
X3967Y3740D01*
X3960Y3750D01*
X3967Y3760D01*
X3971Y3780D01*
X3967Y3800D01*
X3978Y3819D01*
X4628D01*
X4657Y3790D01*
X4665Y3779D01*
X4679Y3770D01*
X4695Y3767D01*
X4712Y3770D01*
X4726Y3779D01*
X4735Y3793D01*
X4738Y3810D01*
X4735Y3827D01*
X4726Y3841D01*
X4715Y3848D01*
X4674Y3889D01*
X4661Y3898D01*
X4645Y3901D01*
X4645Y3901D01*
X3998D01*
X3987Y3920D01*
X3991Y3940D01*
X3987Y3960D01*
X3980Y3970D01*
X3987Y3980D01*
X3991Y4000D01*
X3987Y4020D01*
X3980Y4030D01*
X3987Y4040D01*
X3991Y4060D01*
X3987Y4080D01*
X3980Y4090D01*
X3987Y4100D01*
X3991Y4120D01*
X3987Y4140D01*
X3976Y4156D01*
X3960Y4167D01*
X3940Y4171D01*
X3920Y4167D01*
X3904Y4156D01*
X3893Y4140D01*
X3889Y4120D01*
X3893Y4100D01*
X3900Y4090D01*
X3893Y4080D01*
X3889Y4060D01*
X3893Y4040D01*
X3900Y4030D01*
X3893Y4020D01*
X3889Y4000D01*
X3893Y3980D01*
X3900Y3970D01*
X3893Y3960D01*
X3889Y3940D01*
X3893Y3920D01*
X3882Y3901D01*
X3838D01*
X3827Y3920D01*
X3831Y3940D01*
X3827Y3960D01*
X3820Y3970D01*
X3827Y3980D01*
X3831Y4000D01*
X3827Y4020D01*
X3820Y4030D01*
X3827Y4040D01*
X3831Y4060D01*
X3827Y4080D01*
X3820Y4090D01*
X3827Y4100D01*
X3831Y4120D01*
X3827Y4140D01*
X3816Y4156D01*
X3800Y4167D01*
X3780Y4171D01*
X3760Y4167D01*
X3744Y4156D01*
X3733Y4140D01*
X3729Y4120D01*
X3733Y4100D01*
X3740Y4090D01*
X3733Y4080D01*
X3729Y4060D01*
X3733Y4040D01*
X3740Y4030D01*
X3733Y4020D01*
X3729Y4000D01*
X3733Y3980D01*
X3740Y3970D01*
X3733Y3960D01*
X3729Y3940D01*
X3733Y3920D01*
X3722Y3901D01*
X3427D01*
X3211Y4117D01*
Y4490D01*
X3212Y4492D01*
X3216Y4510D01*
X3212Y4528D01*
X3202Y4542D01*
X3188Y4552D01*
X3170Y4556D01*
D02*
G37*
G36*
X1710Y4423D02*
X1693Y4420D01*
X1679Y4411D01*
X1671D01*
X1657Y4420D01*
X1640Y4423D01*
X1623Y4420D01*
X1609Y4411D01*
X1600Y4397D01*
X1597Y4380D01*
X1600Y4363D01*
X1609Y4349D01*
X1623Y4340D01*
X1640Y4337D01*
X1657Y4340D01*
X1671Y4349D01*
X1679D01*
X1693Y4340D01*
X1710Y4337D01*
X1727Y4340D01*
X1741Y4349D01*
X1750Y4363D01*
X1753Y4380D01*
X1750Y4397D01*
X1741Y4411D01*
X1727Y4420D01*
X1710Y4423D01*
D02*
G37*
G36*
X860Y4421D02*
X840Y4417D01*
X830Y4410D01*
X820Y4417D01*
X800Y4421D01*
X780Y4417D01*
X770Y4410D01*
X760Y4417D01*
X740Y4421D01*
X720Y4417D01*
X710Y4410D01*
X700Y4417D01*
X680Y4421D01*
X660Y4417D01*
X650Y4410D01*
X640Y4417D01*
X620Y4421D01*
X600Y4417D01*
X590Y4410D01*
X580Y4417D01*
X560Y4421D01*
X540Y4417D01*
X524Y4406D01*
X513Y4390D01*
X509Y4370D01*
X513Y4350D01*
X524Y4334D01*
X540Y4323D01*
X560Y4319D01*
X580Y4323D01*
X590Y4330D01*
X600Y4323D01*
X620Y4319D01*
X640Y4323D01*
X650Y4330D01*
X660Y4323D01*
X680Y4319D01*
X700Y4323D01*
X710Y4330D01*
X720Y4323D01*
X740Y4319D01*
X760Y4323D01*
X770Y4330D01*
X780Y4323D01*
X800Y4319D01*
X820Y4323D01*
X830Y4330D01*
X840Y4323D01*
X860Y4319D01*
X880Y4323D01*
X896Y4334D01*
X907Y4350D01*
X911Y4370D01*
X907Y4390D01*
X896Y4406D01*
X880Y4417D01*
X860Y4421D01*
D02*
G37*
G36*
X3380Y4411D02*
X3360Y4407D01*
X3350Y4400D01*
X3340Y4407D01*
X3320Y4411D01*
X3300Y4407D01*
X3284Y4396D01*
X3273Y4380D01*
X3269Y4360D01*
X3273Y4340D01*
X3280Y4330D01*
X3273Y4320D01*
X3269Y4300D01*
X3273Y4280D01*
X3280Y4270D01*
X3273Y4260D01*
X3269Y4240D01*
X3273Y4220D01*
X3280Y4210D01*
X3273Y4200D01*
X3269Y4180D01*
X3273Y4160D01*
X3280Y4150D01*
X3273Y4140D01*
X3269Y4120D01*
X3273Y4100D01*
X3284Y4084D01*
X3300Y4073D01*
X3320Y4069D01*
X3340Y4073D01*
X3350Y4080D01*
X3360Y4073D01*
X3380Y4069D01*
X3400Y4073D01*
X3416Y4084D01*
X3427Y4100D01*
X3431Y4120D01*
X3427Y4140D01*
X3420Y4150D01*
X3427Y4160D01*
X3431Y4180D01*
X3427Y4200D01*
X3420Y4210D01*
X3427Y4220D01*
X3431Y4240D01*
X3427Y4260D01*
X3420Y4270D01*
X3427Y4280D01*
X3431Y4300D01*
X3427Y4320D01*
X3420Y4330D01*
X3427Y4340D01*
X3431Y4360D01*
X3427Y4380D01*
X3416Y4396D01*
X3400Y4407D01*
X3380Y4411D01*
D02*
G37*
G36*
X4500Y4353D02*
X4483Y4350D01*
X4469Y4341D01*
X4460Y4327D01*
X4457Y4310D01*
X4460Y4293D01*
X4469Y4279D01*
X4483Y4270D01*
X4500Y4267D01*
X4517Y4270D01*
X4531Y4279D01*
X4540Y4293D01*
X4543Y4310D01*
X4540Y4327D01*
X4531Y4341D01*
X4517Y4350D01*
X4500Y4353D01*
D02*
G37*
G36*
X2700Y4376D02*
X2682Y4372D01*
X2668Y4362D01*
X2658Y4348D01*
X2654Y4330D01*
X2658Y4312D01*
X2659Y4310D01*
Y4300D01*
X2658Y4298D01*
X2657Y4295D01*
X2541Y4179D01*
X2532Y4166D01*
X2529Y4150D01*
X2529Y4150D01*
Y4070D01*
X1777D01*
X1761Y4090D01*
X1757Y4110D01*
X1750Y4120D01*
X1757Y4130D01*
X1761Y4150D01*
X1757Y4170D01*
X1746Y4186D01*
X1730Y4197D01*
X1719Y4199D01*
X1701Y4210D01*
X1697Y4230D01*
X1686Y4246D01*
X1670Y4257D01*
X1650Y4261D01*
X1639Y4279D01*
X1637Y4290D01*
X1626Y4306D01*
X1610Y4317D01*
X1590Y4321D01*
X1570Y4317D01*
X1554Y4306D01*
X1543Y4290D01*
X1539Y4270D01*
X1543Y4250D01*
X1550Y4240D01*
X1543Y4230D01*
X1539Y4210D01*
X1543Y4190D01*
X1550Y4180D01*
X1543Y4170D01*
X1539Y4150D01*
X1543Y4130D01*
X1554Y4114D01*
X1570Y4103D01*
X1582Y4101D01*
X1588Y4088D01*
X1575Y4070D01*
X1298D01*
X1297Y4071D01*
X1294Y4089D01*
X1284Y4104D01*
X1269Y4114D01*
X1251Y4117D01*
X1234Y4114D01*
X1219Y4104D01*
X1209Y4089D01*
X1205Y4071D01*
X1209Y4054D01*
X1219Y4039D01*
X1215Y4017D01*
X1214Y4016D01*
X1203Y4000D01*
X1199Y3980D01*
X1203Y3960D01*
X1210Y3950D01*
X1203Y3940D01*
X1199Y3920D01*
X1203Y3900D01*
X1209Y3892D01*
X1209Y3889D01*
X1206Y3870D01*
X1204Y3867D01*
X1198Y3862D01*
X1188Y3848D01*
X1184Y3830D01*
X1188Y3812D01*
X1198Y3798D01*
X1212Y3788D01*
X1230Y3784D01*
X1249Y3768D01*
X1250Y3763D01*
X1259Y3749D01*
X1273Y3740D01*
X1280Y3739D01*
Y3636D01*
X1280Y3636D01*
X1262Y3632D01*
X1248Y3622D01*
X1238Y3608D01*
X1234Y3590D01*
X1238Y3572D01*
X1232Y3558D01*
X1228Y3557D01*
X1211Y3546D01*
X1200Y3530D01*
X1197Y3510D01*
X1200Y3490D01*
X1208Y3479D01*
X1200Y3467D01*
X1197Y3447D01*
X1200Y3428D01*
X1211Y3411D01*
X1228Y3400D01*
X1248Y3397D01*
X1260Y3399D01*
X1271Y3393D01*
X1280Y3377D01*
X1277Y3360D01*
X1280Y3343D01*
X1280Y3343D01*
X1280Y3314D01*
X1278Y3312D01*
X1268Y3298D01*
X1264Y3280D01*
X1268Y3262D01*
X1278Y3248D01*
X1280Y3246D01*
Y3192D01*
X1270Y3183D01*
X1253Y3180D01*
X1250Y3178D01*
X1235Y3192D01*
X1242Y3202D01*
X1246Y3220D01*
X1242Y3238D01*
X1232Y3252D01*
X1218Y3262D01*
X1200Y3266D01*
X1182Y3262D01*
X1168Y3252D01*
X1158Y3238D01*
X1154Y3220D01*
X1158Y3202D01*
X1168Y3188D01*
X1166Y3165D01*
X1160Y3157D01*
X1157Y3140D01*
X1160Y3123D01*
X1169Y3109D01*
X1183Y3100D01*
X1200Y3097D01*
X1217Y3100D01*
X1231Y3109D01*
X1239D01*
X1253Y3100D01*
X1270Y3097D01*
X1272Y3097D01*
X1280Y3090D01*
X1453Y2917D01*
X1450Y2891D01*
X1449Y2891D01*
X1440Y2877D01*
X1437Y2860D01*
X1440Y2843D01*
X1449Y2829D01*
X1463Y2820D01*
X1480Y2817D01*
X1497Y2820D01*
X1511Y2829D01*
X1511Y2830D01*
X1537Y2833D01*
X1667Y2703D01*
X1660Y2681D01*
X1653Y2680D01*
X1639Y2671D01*
X1630Y2657D01*
X1627Y2640D01*
X1630Y2623D01*
X1639Y2609D01*
X1653Y2600D01*
X1670Y2597D01*
X1687Y2600D01*
X1697Y2607D01*
X1710Y2608D01*
X1723Y2607D01*
X1733Y2600D01*
X1750Y2597D01*
X1767Y2600D01*
X1781Y2609D01*
X1788Y2620D01*
X1788Y2620D01*
X1807Y2616D01*
X1810Y2603D01*
X1819Y2589D01*
X1833Y2580D01*
X1850Y2577D01*
X1867Y2580D01*
X1881Y2589D01*
X1889D01*
X1903Y2580D01*
X1920Y2577D01*
X1937Y2580D01*
X1951Y2589D01*
X1960Y2603D01*
X1963Y2620D01*
X1960Y2637D01*
X1951Y2650D01*
X1952Y2654D01*
X1958Y2670D01*
X1997D01*
X1997Y2670D01*
X2000Y2653D01*
X2009Y2639D01*
X2023Y2630D01*
X2040Y2627D01*
X2057Y2630D01*
X2071Y2639D01*
X2080Y2653D01*
X2083Y2670D01*
X2083Y2670D01*
X2196Y2670D01*
X2204Y2660D01*
X2208Y2642D01*
X2213Y2635D01*
X2208Y2628D01*
X2204Y2610D01*
X2208Y2592D01*
X2218Y2578D01*
X2232Y2568D01*
X2250Y2564D01*
X2268Y2568D01*
X2282Y2578D01*
X2292Y2592D01*
X2296Y2610D01*
X2292Y2628D01*
X2287Y2635D01*
X2292Y2642D01*
X2296Y2660D01*
X2304Y2670D01*
X2804Y2670D01*
Y2641D01*
X2804Y2640D01*
X2792Y2625D01*
X2787Y2623D01*
X2773Y2620D01*
X2759Y2611D01*
X2750Y2597D01*
X2747Y2580D01*
X2748Y2573D01*
X2733Y2570D01*
X2719Y2561D01*
X2710Y2547D01*
X2710Y2545D01*
X2697Y2531D01*
X2688Y2532D01*
X2680Y2533D01*
X2663Y2530D01*
X2649Y2521D01*
X2640Y2507D01*
X2637Y2490D01*
X2640Y2473D01*
X2649Y2459D01*
X2663Y2450D01*
X2680Y2447D01*
X2687Y2428D01*
X2690Y2413D01*
X2699Y2399D01*
X2713Y2390D01*
X2730Y2387D01*
X2745Y2390D01*
X2748Y2375D01*
X2757Y2361D01*
X2759Y2360D01*
X2750Y2347D01*
X2747Y2330D01*
X2750Y2313D01*
X2759Y2299D01*
Y2291D01*
X2750Y2277D01*
X2747Y2260D01*
X2750Y2243D01*
X2759Y2229D01*
X2769Y2223D01*
X2774Y2206D01*
X2774Y2199D01*
X2723Y2148D01*
X2720Y2147D01*
X2719Y2146D01*
X2701D01*
X2700Y2147D01*
X2680Y2151D01*
X2660Y2147D01*
X2644Y2136D01*
X2633Y2120D01*
X2629Y2100D01*
X2633Y2080D01*
X2644Y2064D01*
X2660Y2053D01*
X2680Y2049D01*
X2700Y2053D01*
X2701Y2054D01*
X2719D01*
X2720Y2053D01*
X2740Y2049D01*
X2760Y2053D01*
X2776Y2064D01*
X2780Y2070D01*
X2786Y2071D01*
X2803Y2069D01*
X2809Y2059D01*
X2823Y2050D01*
X2840Y2047D01*
X2857Y2050D01*
X2871Y2059D01*
X2880Y2073D01*
X2883Y2090D01*
X2890Y2097D01*
X2907Y2100D01*
X2921Y2109D01*
X2930Y2123D01*
X2933Y2140D01*
X2930Y2157D01*
X2921Y2171D01*
X2911Y2177D01*
X2906Y2194D01*
X2906Y2201D01*
X2979Y2274D01*
X3449D01*
X3450Y2273D01*
X3470Y2269D01*
X3490Y2273D01*
X3491Y2274D01*
X3571D01*
X3688Y2158D01*
X3702Y2148D01*
X3720Y2144D01*
X3880D01*
X3898Y2148D01*
X3911Y2157D01*
X3917Y2156D01*
X3931Y2150D01*
Y2087D01*
X3934Y2077D01*
X3940Y2067D01*
X4137Y1870D01*
X4127Y1852D01*
X4120Y1853D01*
X4103Y1850D01*
X4089Y1841D01*
X4080Y1827D01*
X4077Y1810D01*
X4080Y1793D01*
X4089Y1779D01*
X4103Y1770D01*
X4120Y1767D01*
X4137Y1770D01*
X4151Y1779D01*
X4159D01*
X4173Y1770D01*
X4189Y1767D01*
X4192Y1762D01*
X4198Y1748D01*
X4138Y1688D01*
X4098D01*
X4096Y1691D01*
X4082Y1700D01*
X4065Y1703D01*
X4049Y1700D01*
X4035Y1691D01*
X4025Y1677D01*
X4022Y1660D01*
X4025Y1643D01*
X4035Y1629D01*
X4049Y1620D01*
X4065Y1617D01*
X4082Y1620D01*
X4096Y1629D01*
X4098Y1632D01*
X4150D01*
X4161Y1634D01*
X4170Y1640D01*
X4260Y1730D01*
X4266Y1739D01*
X4268Y1750D01*
Y1850D01*
X4266Y1861D01*
X4260Y1870D01*
X4126Y2003D01*
X4134Y2022D01*
X4570D01*
X4581Y2024D01*
X4590Y2030D01*
X4597Y2037D01*
X4600Y2037D01*
X4617Y2040D01*
X4631Y2049D01*
X4640Y2063D01*
X4643Y2080D01*
X4642Y2087D01*
X4657Y2090D01*
X4671Y2099D01*
X4679D01*
X4693Y2090D01*
X4710Y2087D01*
X4727Y2090D01*
X4741Y2099D01*
X4750Y2113D01*
X4753Y2130D01*
X4750Y2147D01*
X4741Y2160D01*
X4742Y2163D01*
X4750Y2179D01*
X4760Y2177D01*
X4777Y2180D01*
X4791Y2189D01*
X4800Y2203D01*
X4803Y2220D01*
X4800Y2237D01*
X4791Y2251D01*
X4777Y2260D01*
X4760Y2263D01*
X4743Y2260D01*
X4729Y2251D01*
X4720Y2237D01*
X4717Y2220D01*
X4720Y2203D01*
X4729Y2190D01*
X4728Y2187D01*
X4720Y2171D01*
X4710Y2173D01*
X4693Y2170D01*
X4679Y2161D01*
X4671D01*
X4657Y2170D01*
X4640Y2173D01*
X4623Y2170D01*
X4609Y2161D01*
X4600Y2147D01*
X4597Y2130D01*
X4598Y2123D01*
X4583Y2120D01*
X4569Y2111D01*
X4560Y2097D01*
X4557Y2080D01*
X4555Y2078D01*
X4280D01*
X4277Y2083D01*
X4272Y2098D01*
X4280Y2110D01*
X4284Y2130D01*
X4280Y2150D01*
X4269Y2166D01*
X4252Y2177D01*
X4233Y2181D01*
X4213Y2177D01*
X4197Y2166D01*
X4186Y2150D01*
X4182Y2130D01*
X4186Y2110D01*
X4194Y2098D01*
X4189Y2083D01*
X4185Y2078D01*
X4095D01*
X4049Y2124D01*
Y2350D01*
X4046Y2360D01*
X4040Y2369D01*
X3910Y2500D01*
X3901Y2506D01*
X3890Y2508D01*
X3832D01*
X3831Y2511D01*
X3817Y2520D01*
X3800Y2523D01*
X3783Y2520D01*
X3769Y2511D01*
X3760Y2497D01*
X3758Y2489D01*
X3737Y2484D01*
X3736Y2486D01*
X3720Y2497D01*
X3700Y2501D01*
X3680Y2497D01*
X3664Y2486D01*
X3656Y2474D01*
X3636Y2479D01*
Y2596D01*
X3636Y2596D01*
X3656Y2605D01*
X3663Y2600D01*
X3680Y2597D01*
X3697Y2600D01*
X3711Y2609D01*
X3729D01*
X3743Y2600D01*
X3760Y2597D01*
X3777Y2600D01*
X3791Y2609D01*
X3800Y2623D01*
X3801Y2629D01*
X3803Y2630D01*
X3820Y2627D01*
X3827Y2628D01*
X3840Y2626D01*
X3849Y2614D01*
X3850Y2608D01*
X3859Y2594D01*
X3873Y2585D01*
X3890Y2581D01*
X3907Y2585D01*
X3921Y2594D01*
X3930Y2608D01*
X3933Y2625D01*
X3930Y2641D01*
X3921Y2655D01*
X3907Y2665D01*
X3890Y2668D01*
X3883Y2676D01*
X3887Y2690D01*
X3901Y2699D01*
X3910Y2713D01*
X3913Y2730D01*
X3910Y2747D01*
X3901Y2761D01*
X3887Y2770D01*
X3870Y2773D01*
X3853Y2770D01*
X3839Y2761D01*
X3830Y2747D01*
X3827Y2732D01*
X3820Y2713D01*
X3803Y2710D01*
X3789Y2701D01*
X3780Y2687D01*
X3779Y2681D01*
X3777Y2680D01*
X3760Y2683D01*
X3743Y2680D01*
X3729Y2671D01*
X3711D01*
X3697Y2680D01*
X3680Y2683D01*
X3663Y2680D01*
X3656Y2675D01*
X3636Y2684D01*
X3636Y2684D01*
Y2863D01*
X3656Y2877D01*
X3660Y2877D01*
X3677Y2880D01*
X3691Y2889D01*
X3700Y2903D01*
X3703Y2920D01*
X3700Y2937D01*
X3691Y2951D01*
X3677Y2960D01*
X3660Y2963D01*
X3656Y2963D01*
X3636Y2977D01*
Y2980D01*
X3632Y2998D01*
X3622Y3012D01*
X3596Y3039D01*
X3597Y3040D01*
X3601Y3060D01*
X3597Y3080D01*
X3596Y3081D01*
Y3394D01*
X3762D01*
X3768Y3374D01*
X3758Y3367D01*
X3748Y3353D01*
X3744Y3335D01*
X3748Y3317D01*
X3758Y3303D01*
X3772Y3293D01*
X3790Y3289D01*
X3808Y3293D01*
X3817Y3299D01*
X3827Y3293D01*
X3845Y3289D01*
X3863Y3293D01*
X3872Y3299D01*
X3882Y3293D01*
X3900Y3289D01*
X3918Y3293D01*
X3932Y3303D01*
X3942Y3317D01*
X3946Y3335D01*
X3942Y3353D01*
X3932Y3367D01*
X3922Y3374D01*
X3928Y3394D01*
X4042D01*
X4052Y3374D01*
X4048Y3368D01*
X4044Y3350D01*
X4048Y3332D01*
X4058Y3318D01*
X4072Y3308D01*
X4090Y3304D01*
X4108Y3308D01*
X4122Y3318D01*
X4132Y3332D01*
X4136Y3350D01*
X4132Y3368D01*
X4128Y3374D01*
X4138Y3394D01*
X4491D01*
X4520Y3366D01*
X4520Y3290D01*
X4520Y3290D01*
X4521Y3282D01*
X4526Y3276D01*
X4546Y3256D01*
X4546Y3256D01*
X4550Y3253D01*
X4552Y3251D01*
X4560Y3250D01*
X4650Y3250D01*
X4650Y3250D01*
X4658Y3251D01*
X4664Y3256D01*
X4664Y3256D01*
X4684Y3276D01*
X4684Y3276D01*
X4689Y3282D01*
X4690Y3290D01*
X4690Y3390D01*
X4689Y3398D01*
X4686Y3402D01*
X4684Y3404D01*
X4664Y3424D01*
X4664Y3424D01*
X4658Y3429D01*
X4650Y3430D01*
X4584Y3430D01*
X4542Y3472D01*
X4528Y3482D01*
X4510Y3486D01*
X3675D01*
X3670Y3497D01*
X3667Y3506D01*
X3677Y3520D01*
X3677Y3520D01*
X3698Y3530D01*
X3715Y3527D01*
X3732Y3530D01*
X3746Y3539D01*
X3755Y3553D01*
X3758Y3570D01*
X3755Y3587D01*
X3746Y3601D01*
X3732Y3610D01*
X3715Y3613D01*
X3698Y3610D01*
X3677Y3620D01*
X3677Y3620D01*
X3666Y3636D01*
X3650Y3647D01*
X3630Y3651D01*
X3610Y3647D01*
X3594Y3636D01*
X3583Y3620D01*
X3579Y3600D01*
X3583Y3580D01*
X3590Y3570D01*
X3583Y3560D01*
X3579Y3540D01*
X3583Y3520D01*
X3593Y3506D01*
X3590Y3497D01*
X3585Y3486D01*
X3389D01*
X3066Y3809D01*
Y4180D01*
X3062Y4198D01*
X3052Y4212D01*
X2952Y4312D01*
X2938Y4322D01*
X2920Y4326D01*
X2749D01*
X2746Y4330D01*
X2742Y4348D01*
X2732Y4362D01*
X2718Y4372D01*
X2700Y4376D01*
D02*
G37*
G36*
X4320Y4073D02*
X4303Y4070D01*
X4289Y4061D01*
X4280Y4047D01*
X4277Y4030D01*
X4280Y4013D01*
X4289Y3999D01*
X4303Y3990D01*
X4320Y3987D01*
X4337Y3990D01*
X4351Y3999D01*
X4360Y4013D01*
X4363Y4030D01*
X4360Y4047D01*
X4351Y4061D01*
X4337Y4070D01*
X4320Y4073D01*
D02*
G37*
G36*
X770Y3991D02*
X750Y3987D01*
X738Y3979D01*
X725Y3977D01*
X712Y3979D01*
X700Y3987D01*
X680Y3991D01*
X660Y3987D01*
X650Y3980D01*
X640Y3987D01*
X620Y3991D01*
X600Y3987D01*
X590Y3980D01*
X580Y3987D01*
X560Y3991D01*
X540Y3987D01*
X524Y3976D01*
X513Y3960D01*
X509Y3940D01*
X513Y3920D01*
X524Y3904D01*
X540Y3893D01*
X560Y3889D01*
X580Y3893D01*
X590Y3900D01*
X600Y3893D01*
X620Y3889D01*
X640Y3893D01*
X650Y3900D01*
X660Y3893D01*
X680Y3889D01*
X700Y3893D01*
X712Y3901D01*
X725Y3903D01*
X738Y3901D01*
X750Y3893D01*
X770Y3889D01*
X790Y3893D01*
X806Y3904D01*
X817Y3920D01*
X821Y3940D01*
X817Y3960D01*
X806Y3976D01*
X790Y3987D01*
X770Y3991D01*
D02*
G37*
G36*
X4195Y4126D02*
X4175Y4122D01*
X4159Y4111D01*
X4148Y4095D01*
X4144Y4075D01*
X4148Y4055D01*
X4158Y4040D01*
X4148Y4025D01*
X4144Y4005D01*
X4148Y3985D01*
X4159Y3969D01*
X4175Y3958D01*
X4195Y3954D01*
X4215Y3958D01*
X4231Y3969D01*
X4242Y3985D01*
X4246Y4005D01*
X4242Y4025D01*
X4232Y4040D01*
X4242Y4055D01*
X4246Y4075D01*
X4242Y4095D01*
X4231Y4111D01*
X4215Y4122D01*
X4195Y4126D01*
D02*
G37*
G36*
X930Y3861D02*
X910Y3857D01*
X900Y3850D01*
X890Y3857D01*
X870Y3861D01*
X850Y3857D01*
X840Y3850D01*
X830Y3857D01*
X810Y3861D01*
X790Y3857D01*
X780Y3850D01*
X770Y3857D01*
X750Y3861D01*
X730Y3857D01*
X720Y3850D01*
X710Y3857D01*
X690Y3861D01*
X670Y3857D01*
X654Y3846D01*
X643Y3830D01*
X639Y3810D01*
X643Y3790D01*
X654Y3774D01*
X670Y3763D01*
X690Y3759D01*
X710Y3763D01*
X720Y3770D01*
X730Y3763D01*
X750Y3759D01*
X770Y3763D01*
X780Y3770D01*
X790Y3763D01*
X810Y3759D01*
X830Y3763D01*
X840Y3770D01*
X850Y3763D01*
X870Y3759D01*
X890Y3763D01*
X900Y3770D01*
X910Y3763D01*
X930Y3759D01*
X950Y3763D01*
X966Y3774D01*
X977Y3790D01*
X981Y3810D01*
X977Y3830D01*
X966Y3846D01*
X950Y3857D01*
X930Y3861D01*
D02*
G37*
G36*
X4560Y3633D02*
X4543Y3630D01*
X4529Y3621D01*
X4520Y3607D01*
X4517Y3590D01*
X4520Y3573D01*
X4529Y3559D01*
X4543Y3550D01*
X4560Y3547D01*
X4577Y3550D01*
X4591Y3559D01*
X4600Y3573D01*
X4603Y3590D01*
X4600Y3607D01*
X4591Y3621D01*
X4577Y3630D01*
X4560Y3633D01*
D02*
G37*
G36*
X4260Y3636D02*
X4242Y3632D01*
X4228Y3622D01*
X4218Y3608D01*
X4214Y3590D01*
X4218Y3572D01*
X4228Y3558D01*
X4242Y3548D01*
X4260Y3544D01*
X4278Y3548D01*
X4285Y3553D01*
X4292Y3548D01*
X4310Y3544D01*
X4328Y3548D01*
X4342Y3558D01*
X4362Y3551D01*
X4363Y3550D01*
X4380Y3547D01*
X4397Y3550D01*
X4411Y3559D01*
X4420Y3573D01*
X4423Y3590D01*
X4420Y3607D01*
X4411Y3621D01*
X4397Y3630D01*
X4380Y3633D01*
X4363Y3630D01*
X4362Y3629D01*
X4342Y3622D01*
X4328Y3632D01*
X4310Y3636D01*
X4292Y3632D01*
X4285Y3627D01*
X4278Y3632D01*
X4260Y3636D01*
D02*
G37*
G36*
X4830Y3743D02*
X4813Y3740D01*
X4799Y3731D01*
X4790Y3717D01*
X4787Y3700D01*
X4787Y3698D01*
X4775Y3682D01*
X4772Y3682D01*
X4755Y3675D01*
X4740Y3664D01*
X4729Y3649D01*
X4722Y3632D01*
X4720Y3614D01*
X4722Y3596D01*
X4729Y3579D01*
X4740Y3564D01*
X4755Y3553D01*
X4772Y3546D01*
X4790Y3544D01*
X4808Y3546D01*
X4825Y3553D01*
X4840Y3564D01*
X4851Y3579D01*
X4858Y3596D01*
X4860Y3614D01*
X4858Y3632D01*
X4854Y3642D01*
X4851Y3649D01*
X4860Y3669D01*
X4861Y3669D01*
X4870Y3683D01*
X4873Y3700D01*
X4870Y3717D01*
X4861Y3731D01*
X4847Y3740D01*
X4830Y3743D01*
D02*
G37*
G36*
X4855Y3536D02*
X4838Y3533D01*
X4824Y3523D01*
X4815Y3509D01*
X4812Y3492D01*
X4815Y3476D01*
X4824Y3462D01*
X4838Y3452D01*
X4855Y3449D01*
X4872Y3452D01*
X4886Y3462D01*
X4895Y3476D01*
X4898Y3492D01*
X4895Y3509D01*
X4886Y3523D01*
X4872Y3533D01*
X4855Y3536D01*
D02*
G37*
G36*
X170Y4416D02*
X145Y4413D01*
X122Y4403D01*
X102Y4388D01*
X87Y4368D01*
X77Y4345D01*
X74Y4320D01*
X77Y4295D01*
X87Y4272D01*
X102Y4252D01*
X122Y4237D01*
X137Y4231D01*
Y4209D01*
X122Y4203D01*
X102Y4188D01*
X87Y4168D01*
X77Y4145D01*
X74Y4120D01*
X77Y4095D01*
X87Y4072D01*
X102Y4052D01*
X122Y4037D01*
X137Y4031D01*
Y4009D01*
X122Y4003D01*
X102Y3988D01*
X87Y3968D01*
X77Y3945D01*
X74Y3920D01*
X77Y3895D01*
X87Y3872D01*
X102Y3852D01*
X122Y3837D01*
X137Y3831D01*
Y3809D01*
X122Y3803D01*
X102Y3788D01*
X87Y3768D01*
X77Y3745D01*
X74Y3720D01*
X77Y3695D01*
X87Y3672D01*
X102Y3652D01*
X122Y3637D01*
X137Y3631D01*
Y3609D01*
X122Y3603D01*
X102Y3588D01*
X87Y3568D01*
X77Y3545D01*
X74Y3520D01*
X77Y3495D01*
X87Y3472D01*
X102Y3452D01*
X122Y3437D01*
X145Y3427D01*
X170Y3424D01*
X195Y3427D01*
X218Y3437D01*
X238Y3452D01*
X253Y3472D01*
X263Y3495D01*
X266Y3520D01*
X263Y3545D01*
X253Y3568D01*
X238Y3588D01*
X218Y3603D01*
X203Y3609D01*
Y3631D01*
X218Y3637D01*
X238Y3652D01*
X253Y3672D01*
X263Y3695D01*
X266Y3720D01*
X263Y3745D01*
X253Y3768D01*
X238Y3788D01*
X218Y3803D01*
X203Y3809D01*
Y3831D01*
X218Y3837D01*
X238Y3852D01*
X253Y3872D01*
X263Y3895D01*
X266Y3920D01*
X263Y3945D01*
X253Y3968D01*
X238Y3988D01*
X218Y4003D01*
X203Y4009D01*
Y4031D01*
X218Y4037D01*
X238Y4052D01*
X253Y4072D01*
X263Y4095D01*
X266Y4120D01*
X263Y4145D01*
X253Y4168D01*
X238Y4188D01*
X218Y4203D01*
X203Y4209D01*
Y4231D01*
X218Y4237D01*
X238Y4252D01*
X253Y4272D01*
X263Y4295D01*
X266Y4320D01*
X263Y4345D01*
X253Y4368D01*
X238Y4388D01*
X218Y4403D01*
X195Y4413D01*
X170Y4416D01*
D02*
G37*
G36*
X4853Y3398D02*
X4836Y3395D01*
X4822Y3386D01*
X4812Y3372D01*
X4809Y3355D01*
X4792Y3338D01*
X4789Y3338D01*
X4776Y3329D01*
X4767Y3316D01*
X4764Y3300D01*
X4767Y3284D01*
X4776Y3271D01*
X4789Y3262D01*
X4805Y3259D01*
X4821Y3262D01*
X4834Y3271D01*
X4843Y3284D01*
X4844Y3293D01*
X4853Y3312D01*
X4869Y3315D01*
X4883Y3324D01*
X4893Y3338D01*
X4896Y3355D01*
X4893Y3372D01*
X4883Y3386D01*
X4869Y3395D01*
X4853Y3398D01*
D02*
G37*
G36*
X4000Y3286D02*
X3982Y3282D01*
X3968Y3272D01*
X3958Y3258D01*
X3954Y3240D01*
X3958Y3222D01*
X3968Y3208D01*
X3982Y3198D01*
X3995Y3195D01*
X3998Y3182D01*
X4008Y3168D01*
X4022Y3158D01*
X4040Y3154D01*
X4058Y3158D01*
X4070Y3166D01*
X4082Y3158D01*
X4100Y3154D01*
X4118Y3158D01*
X4132Y3168D01*
X4142Y3182D01*
X4146Y3200D01*
X4142Y3218D01*
X4132Y3232D01*
X4118Y3242D01*
X4100Y3246D01*
X4082Y3242D01*
X4070Y3234D01*
X4058Y3242D01*
X4045Y3245D01*
X4042Y3258D01*
X4032Y3272D01*
X4018Y3282D01*
X4000Y3286D01*
D02*
G37*
G36*
X1030Y3203D02*
X1013Y3200D01*
X999Y3191D01*
X990Y3177D01*
X987Y3160D01*
X990Y3143D01*
X999Y3129D01*
X1013Y3120D01*
X1030Y3117D01*
X1047Y3120D01*
X1061Y3129D01*
X1070Y3143D01*
X1073Y3160D01*
X1070Y3177D01*
X1061Y3191D01*
X1047Y3200D01*
X1030Y3203D01*
D02*
G37*
G36*
X825Y3048D02*
X720D01*
Y2982D01*
X908D01*
X908Y2984D01*
X899Y3005D01*
X886Y3023D01*
X868Y3036D01*
X847Y3045D01*
X825Y3048D01*
D02*
G37*
G36*
X1236Y3018D02*
X1206D01*
Y2952D01*
X1319D01*
X1319Y2954D01*
X1310Y2975D01*
X1297Y2993D01*
X1279Y3006D01*
X1258Y3015D01*
X1236Y3018D01*
D02*
G37*
G36*
X1166D02*
X1136D01*
X1114Y3015D01*
X1093Y3006D01*
X1075Y2993D01*
X1062Y2975D01*
X1053Y2954D01*
X1053Y2952D01*
X1166D01*
Y3018D01*
D02*
G37*
G36*
X3920Y3001D02*
X3900Y2997D01*
X3884Y2986D01*
X3873Y2970D01*
X3869Y2950D01*
X3873Y2930D01*
X3884Y2914D01*
X3900Y2903D01*
X3920Y2899D01*
X3940Y2903D01*
X3956Y2914D01*
X3967Y2930D01*
X3967Y2932D01*
X3987Y2930D01*
X3987Y2927D01*
X3990Y2913D01*
X3999Y2899D01*
X4013Y2890D01*
X4030Y2887D01*
X4047Y2890D01*
X4059Y2898D01*
X4061Y2899D01*
X4080Y2900D01*
X4082Y2898D01*
X4094Y2890D01*
X4110Y2887D01*
X4127Y2890D01*
X4141Y2900D01*
X4150Y2914D01*
X4154Y2930D01*
X4150Y2947D01*
X4141Y2961D01*
X4127Y2970D01*
X4110Y2974D01*
X4094Y2970D01*
X4082Y2962D01*
X4080Y2961D01*
X4061Y2961D01*
X4058Y2962D01*
X4047Y2970D01*
X4030Y2973D01*
X4013Y2970D01*
X3999Y2961D01*
X3991Y2949D01*
X3990Y2947D01*
X3971Y2950D01*
X3971Y2952D01*
X3967Y2970D01*
X3956Y2986D01*
X3940Y2997D01*
X3920Y3001D01*
D02*
G37*
G36*
X4240Y2893D02*
X4223Y2890D01*
X4210Y2881D01*
X4196Y2890D01*
X4180Y2893D01*
X4163Y2890D01*
X4149Y2881D01*
X4140Y2867D01*
X4136Y2850D01*
X4140Y2833D01*
X4149Y2819D01*
X4163Y2810D01*
X4180Y2807D01*
X4196Y2810D01*
X4210Y2819D01*
X4223Y2810D01*
X4240Y2807D01*
X4257Y2810D01*
X4271Y2819D01*
X4280Y2833D01*
X4283Y2850D01*
X4280Y2867D01*
X4271Y2881D01*
X4257Y2890D01*
X4240Y2893D01*
D02*
G37*
G36*
X908Y2942D02*
X720D01*
Y2876D01*
X825D01*
X847Y2879D01*
X868Y2888D01*
X886Y2901D01*
X899Y2919D01*
X908Y2940D01*
X908Y2942D01*
D02*
G37*
G36*
X1319Y2912D02*
X1206D01*
Y2846D01*
X1236D01*
X1258Y2849D01*
X1279Y2858D01*
X1297Y2871D01*
X1310Y2889D01*
X1319Y2910D01*
X1319Y2912D01*
D02*
G37*
G36*
X1166D02*
X1053D01*
X1053Y2910D01*
X1062Y2889D01*
X1075Y2871D01*
X1093Y2858D01*
X1114Y2849D01*
X1136Y2846D01*
X1166D01*
Y2912D01*
D02*
G37*
G36*
X4590Y3201D02*
X4570Y3197D01*
X4554Y3186D01*
X4543Y3170D01*
X4539Y3150D01*
X4543Y3130D01*
X4550Y3120D01*
X4543Y3110D01*
X4539Y3090D01*
X4543Y3070D01*
X4550Y3060D01*
X4543Y3050D01*
X4539Y3030D01*
X4543Y3010D01*
X4554Y2994D01*
X4570Y2983D01*
X4590Y2979D01*
X4596Y2980D01*
X4608Y2962D01*
X4608Y2962D01*
X4604Y2945D01*
X4608Y2928D01*
X4617Y2914D01*
X4610Y2897D01*
X4607Y2880D01*
X4610Y2863D01*
X4619Y2849D01*
X4633Y2840D01*
X4650Y2837D01*
X4667Y2840D01*
X4681Y2849D01*
X4690Y2863D01*
X4693Y2880D01*
X4690Y2897D01*
X4681Y2911D01*
X4688Y2928D01*
X4691Y2945D01*
X4688Y2962D01*
X4680Y2973D01*
X4691Y2979D01*
X4700Y2993D01*
X4703Y3010D01*
X4702Y3017D01*
X4705Y3032D01*
X4714Y3041D01*
X4723Y3045D01*
X4738Y3056D01*
X4749Y3071D01*
X4756Y3088D01*
X4759Y3106D01*
X4756Y3124D01*
X4749Y3141D01*
X4738Y3156D01*
X4723Y3167D01*
X4707Y3174D01*
X4688Y3176D01*
X4670Y3174D01*
X4658Y3169D01*
X4648Y3169D01*
X4633Y3176D01*
X4626Y3186D01*
X4610Y3197D01*
X4590Y3201D01*
D02*
G37*
G36*
X1360Y2791D02*
X1340Y2787D01*
X1324Y2776D01*
X1313Y2760D01*
X1309Y2740D01*
X1313Y2720D01*
X1320Y2710D01*
X1313Y2700D01*
X1309Y2680D01*
X1313Y2660D01*
X1324Y2644D01*
X1340Y2633D01*
X1360Y2629D01*
X1376Y2632D01*
X1385Y2625D01*
X1390Y2616D01*
X1387Y2600D01*
X1389Y2590D01*
X1373Y2582D01*
X1370Y2581D01*
X1357Y2590D01*
X1340Y2593D01*
X1323Y2590D01*
X1309Y2581D01*
X1300Y2567D01*
X1297Y2550D01*
X1300Y2533D01*
X1309Y2519D01*
X1323Y2510D01*
X1323Y2507D01*
Y2493D01*
X1323Y2490D01*
X1309Y2481D01*
X1300Y2467D01*
X1297Y2450D01*
X1300Y2433D01*
X1309Y2419D01*
X1323Y2410D01*
X1340Y2407D01*
X1357Y2410D01*
X1371Y2419D01*
X1380Y2433D01*
X1383Y2450D01*
X1380Y2467D01*
X1371Y2481D01*
X1357Y2490D01*
X1357Y2493D01*
Y2507D01*
X1357Y2510D01*
X1371Y2519D01*
X1380Y2533D01*
X1383Y2550D01*
X1381Y2560D01*
X1397Y2568D01*
X1400Y2569D01*
X1413Y2560D01*
X1430Y2557D01*
X1447Y2560D01*
X1461Y2569D01*
X1470Y2583D01*
X1473Y2600D01*
X1470Y2617D01*
X1461Y2631D01*
X1447Y2640D01*
X1430Y2643D01*
X1418Y2641D01*
X1407Y2653D01*
X1405Y2657D01*
X1407Y2660D01*
X1411Y2680D01*
X1407Y2700D01*
X1400Y2710D01*
X1407Y2720D01*
X1411Y2740D01*
X1407Y2760D01*
X1396Y2776D01*
X1380Y2787D01*
X1360Y2791D01*
D02*
G37*
G36*
X1004Y2736D02*
X984Y2732D01*
X968Y2721D01*
X957Y2705D01*
X955Y2694D01*
X945Y2676D01*
X925Y2672D01*
X909Y2661D01*
X898Y2645D01*
X894Y2625D01*
X898Y2605D01*
X909Y2589D01*
X925Y2578D01*
X945Y2574D01*
X965Y2578D01*
X974Y2585D01*
X984Y2578D01*
X1004Y2574D01*
X1024Y2578D01*
X1040Y2589D01*
X1051Y2605D01*
X1055Y2625D01*
X1051Y2645D01*
X1044Y2655D01*
X1051Y2665D01*
X1055Y2685D01*
X1051Y2705D01*
X1040Y2721D01*
X1024Y2732D01*
X1004Y2736D01*
D02*
G37*
G36*
X2400Y2649D02*
X2383Y2645D01*
X2369Y2636D01*
X2360Y2622D01*
X2357Y2605D01*
X2360Y2589D01*
X2369Y2575D01*
X2383Y2565D01*
X2400Y2562D01*
X2417Y2565D01*
X2431Y2575D01*
X2440Y2589D01*
X2443Y2605D01*
X2440Y2622D01*
X2431Y2636D01*
X2417Y2645D01*
X2400Y2649D01*
D02*
G37*
G36*
X4200Y2628D02*
X4183Y2625D01*
X4169Y2616D01*
X4160Y2602D01*
X4157Y2585D01*
X4160Y2568D01*
X4169Y2554D01*
X4183Y2545D01*
X4200Y2542D01*
X4217Y2545D01*
X4231Y2554D01*
X4240Y2568D01*
X4243Y2585D01*
X4240Y2602D01*
X4231Y2616D01*
X4217Y2625D01*
X4200Y2628D01*
D02*
G37*
G36*
X2390Y2503D02*
X2374Y2500D01*
X2360Y2491D01*
X2347Y2500D01*
X2330Y2503D01*
X2313Y2500D01*
X2299Y2491D01*
X2290Y2477D01*
X2287Y2460D01*
X2290Y2443D01*
X2299Y2429D01*
X2313Y2420D01*
X2330Y2417D01*
X2347Y2420D01*
X2360Y2429D01*
X2374Y2420D01*
X2390Y2417D01*
X2407Y2420D01*
X2421Y2429D01*
X2430Y2443D01*
X2434Y2460D01*
X2430Y2477D01*
X2421Y2491D01*
X2407Y2500D01*
X2390Y2503D01*
D02*
G37*
G36*
X1180Y2731D02*
X1160Y2727D01*
X1144Y2716D01*
X1133Y2700D01*
X1129Y2680D01*
X1133Y2660D01*
X1144Y2644D01*
X1143Y2621D01*
X1140Y2617D01*
X1137Y2600D01*
X1140Y2583D01*
X1145Y2577D01*
X1148Y2562D01*
X1145Y2548D01*
X1140Y2542D01*
X1137Y2525D01*
X1140Y2508D01*
X1149Y2494D01*
X1163Y2485D01*
X1180Y2482D01*
X1197Y2485D01*
X1211Y2494D01*
X1220Y2508D01*
X1223Y2525D01*
X1220Y2542D01*
X1215Y2548D01*
X1212Y2562D01*
X1215Y2577D01*
X1220Y2583D01*
X1223Y2600D01*
X1220Y2617D01*
X1217Y2621D01*
X1216Y2644D01*
X1227Y2660D01*
X1231Y2680D01*
X1227Y2700D01*
X1216Y2716D01*
X1200Y2727D01*
X1180Y2731D01*
D02*
G37*
G36*
X4630Y2723D02*
X4613Y2720D01*
X4599Y2711D01*
X4590Y2697D01*
X4587Y2680D01*
X4590Y2663D01*
X4599Y2649D01*
X4613Y2640D01*
X4618Y2639D01*
X4622Y2638D01*
Y2618D01*
X4613Y2616D01*
X4599Y2607D01*
X4590Y2593D01*
X4586Y2576D01*
X4570Y2563D01*
X4553Y2560D01*
X4539Y2551D01*
X4530Y2537D01*
X4527Y2520D01*
X4530Y2503D01*
X4539Y2489D01*
X4553Y2480D01*
X4570Y2477D01*
X4587Y2480D01*
X4601Y2489D01*
X4610Y2503D01*
X4613Y2520D01*
X4630Y2533D01*
X4646Y2536D01*
X4660Y2545D01*
X4670Y2559D01*
X4673Y2576D01*
X4670Y2593D01*
X4660Y2607D01*
X4646Y2616D01*
X4642Y2617D01*
X4638Y2618D01*
Y2638D01*
X4647Y2640D01*
X4661Y2649D01*
X4670Y2663D01*
X4673Y2680D01*
X4670Y2697D01*
X4661Y2711D01*
X4647Y2720D01*
X4630Y2723D01*
D02*
G37*
G36*
X4680Y2503D02*
X4663Y2500D01*
X4649Y2491D01*
X4640Y2477D01*
X4637Y2460D01*
X4640Y2443D01*
X4649Y2429D01*
X4663Y2420D01*
X4680Y2417D01*
X4697Y2420D01*
X4711Y2429D01*
X4720Y2443D01*
X4723Y2460D01*
X4720Y2477D01*
X4711Y2491D01*
X4697Y2500D01*
X4680Y2503D01*
D02*
G37*
G36*
X4100Y2576D02*
X4082Y2572D01*
X4068Y2562D01*
X4058Y2548D01*
X4054Y2530D01*
X4058Y2512D01*
X4060Y2509D01*
X4063Y2500D01*
X4049Y2491D01*
X4040Y2477D01*
X4037Y2460D01*
X4040Y2443D01*
X4049Y2429D01*
X4063Y2420D01*
X4080Y2417D01*
X4097Y2420D01*
X4111Y2429D01*
X4120Y2443D01*
X4123Y2460D01*
X4120Y2477D01*
X4131Y2496D01*
X4132Y2498D01*
X4142Y2512D01*
X4146Y2530D01*
X4142Y2548D01*
X4132Y2562D01*
X4118Y2572D01*
X4100Y2576D01*
D02*
G37*
G36*
X1004Y2426D02*
X984Y2422D01*
X974Y2415D01*
X965Y2422D01*
X945Y2426D01*
X925Y2422D01*
X909Y2411D01*
X898Y2395D01*
X894Y2375D01*
X898Y2355D01*
X909Y2339D01*
X925Y2328D01*
X945Y2324D01*
X955Y2306D01*
X957Y2295D01*
X968Y2279D01*
X984Y2268D01*
X1004Y2264D01*
X1024Y2268D01*
X1040Y2279D01*
X1051Y2295D01*
X1055Y2315D01*
X1051Y2335D01*
X1044Y2345D01*
X1051Y2355D01*
X1055Y2375D01*
X1051Y2395D01*
X1040Y2411D01*
X1024Y2422D01*
X1004Y2426D01*
D02*
G37*
G36*
X2170Y2443D02*
X2153Y2440D01*
X2139Y2431D01*
X2130Y2417D01*
X2127Y2400D01*
X2130Y2383D01*
X2139Y2369D01*
X2153Y2360D01*
X2170Y2357D01*
X2187Y2360D01*
X2201Y2369D01*
X2210Y2383D01*
X2213Y2400D01*
X2210Y2417D01*
X2201Y2431D01*
X2187Y2440D01*
X2170Y2443D01*
D02*
G37*
G36*
X2031Y2503D02*
X2014Y2499D01*
X2000Y2490D01*
X1991Y2476D01*
X1987Y2459D01*
X1991Y2443D01*
X2000Y2429D01*
X2001Y2428D01*
X1992Y2416D01*
X1989Y2399D01*
X1992Y2383D01*
X2002Y2368D01*
X2016Y2359D01*
X2032Y2356D01*
X2049Y2359D01*
X2063Y2368D01*
X2072Y2383D01*
X2076Y2399D01*
X2072Y2416D01*
X2063Y2430D01*
X2062Y2430D01*
X2071Y2443D01*
X2074Y2459D01*
X2071Y2476D01*
X2061Y2490D01*
X2047Y2499D01*
X2031Y2503D01*
D02*
G37*
G36*
X1470Y2423D02*
X1453Y2420D01*
X1439Y2411D01*
X1430Y2397D01*
X1427Y2380D01*
X1430Y2363D01*
X1439Y2349D01*
X1440Y2349D01*
X1443Y2323D01*
X1429Y2310D01*
X1411Y2320D01*
X1411Y2320D01*
X1407Y2340D01*
X1396Y2356D01*
X1380Y2367D01*
X1360Y2371D01*
X1340Y2367D01*
X1324Y2356D01*
X1313Y2340D01*
X1309Y2320D01*
X1313Y2300D01*
X1320Y2290D01*
X1313Y2280D01*
X1309Y2260D01*
X1313Y2240D01*
X1316Y2236D01*
X1305Y2216D01*
X1070D01*
X1056Y2213D01*
X1045Y2205D01*
X965Y2125D01*
X957Y2114D01*
X954Y2100D01*
Y1915D01*
X915Y1876D01*
X700D01*
X686Y1873D01*
X675Y1865D01*
X415Y1605D01*
X407Y1594D01*
X404Y1580D01*
Y1545D01*
X305Y1446D01*
X298D01*
X288Y1452D01*
X270Y1456D01*
X252Y1452D01*
X238Y1442D01*
X228Y1428D01*
X224Y1410D01*
X228Y1392D01*
X238Y1378D01*
X252Y1368D01*
X270Y1364D01*
X288Y1368D01*
X298Y1374D01*
X320D01*
X334Y1377D01*
X345Y1385D01*
X465Y1505D01*
X473Y1516D01*
X491Y1526D01*
X497Y1523D01*
X507Y1518D01*
X510Y1503D01*
X519Y1489D01*
X533Y1480D01*
X550Y1477D01*
X567Y1480D01*
X581Y1489D01*
X584Y1495D01*
X608Y1499D01*
X798Y1309D01*
X807Y1303D01*
X818Y1301D01*
X1659D01*
X1670Y1303D01*
X1679Y1309D01*
X1840Y1470D01*
X2087D01*
X2099Y1450D01*
X2097Y1440D01*
X2100Y1423D01*
X2106Y1415D01*
X2100Y1407D01*
X2097Y1390D01*
X2100Y1373D01*
X2106Y1365D01*
X2100Y1357D01*
X2097Y1340D01*
X2100Y1323D01*
X2106Y1315D01*
X2100Y1307D01*
X2097Y1290D01*
X2100Y1273D01*
X2109Y1259D01*
X2123Y1250D01*
X2140Y1247D01*
X2141Y1238D01*
X2130Y1223D01*
X2113Y1220D01*
X2099Y1211D01*
X2090Y1197D01*
X2087Y1180D01*
X2090Y1163D01*
X2099Y1149D01*
X2113Y1140D01*
X2130Y1137D01*
X2147Y1140D01*
X2161Y1149D01*
X2161Y1150D01*
X2187Y1153D01*
X2257Y1083D01*
X2250Y1062D01*
X2243Y1060D01*
X2229Y1051D01*
X2220Y1037D01*
X2216Y1020D01*
X2220Y1004D01*
X2229Y990D01*
X2243Y980D01*
X2260Y977D01*
X2276Y980D01*
X2290Y990D01*
X2300Y1004D01*
X2303Y1020D01*
X2300Y1037D01*
X2296Y1042D01*
X2307Y1062D01*
X2460D01*
X2471Y1064D01*
X2480Y1070D01*
X2506Y1097D01*
X2525Y1093D01*
X2529Y1091D01*
X2538Y1078D01*
X2539Y1076D01*
X2548Y1058D01*
X2546Y1050D01*
X2544Y1040D01*
X2548Y1022D01*
X2558Y1008D01*
X2572Y998D01*
X2584Y995D01*
X2597Y981D01*
X2600Y976D01*
X2599Y970D01*
X2603Y950D01*
X2614Y934D01*
X2630Y923D01*
X2650Y919D01*
X2670Y923D01*
X2686Y934D01*
X2697Y950D01*
X2701Y970D01*
X2697Y990D01*
X2686Y1006D01*
X2670Y1017D01*
X2656Y1020D01*
X2644Y1039D01*
X2648Y1053D01*
X2650Y1053D01*
X2666Y1064D01*
X2677Y1080D01*
X2681Y1100D01*
X2677Y1120D01*
X2666Y1136D01*
X2650Y1147D01*
X2630Y1151D01*
X2610Y1147D01*
X2608Y1145D01*
X2588Y1153D01*
X2587Y1155D01*
X2583Y1174D01*
X2742Y1332D01*
X3380D01*
X3391Y1334D01*
X3400Y1340D01*
X3447Y1387D01*
X3450Y1387D01*
X3467Y1390D01*
X3481Y1399D01*
X3490Y1413D01*
X3510Y1417D01*
X3520Y1401D01*
X3529Y1387D01*
X3543Y1378D01*
X3560Y1374D01*
X3576Y1378D01*
X3590Y1387D01*
X3603Y1377D01*
X3620Y1374D01*
X3637Y1377D01*
X3651Y1387D01*
X3670Y1382D01*
X3673Y1380D01*
X3690Y1377D01*
X3707Y1380D01*
X3721Y1389D01*
X3730Y1403D01*
X3733Y1418D01*
X3740Y1417D01*
X3757Y1420D01*
X3761Y1423D01*
X3779Y1432D01*
X3793Y1423D01*
X3810Y1420D01*
X3827Y1423D01*
X3829Y1424D01*
X3848Y1429D01*
X3859Y1423D01*
X3863Y1420D01*
X3880Y1417D01*
X3882Y1417D01*
X3902Y1401D01*
Y1287D01*
X3882Y1277D01*
X3880Y1278D01*
X3877Y1280D01*
X3860Y1283D01*
X3843Y1280D01*
X3829Y1271D01*
X3820Y1257D01*
X3817Y1240D01*
X3820Y1223D01*
X3829Y1209D01*
X3843Y1200D01*
X3860Y1197D01*
X3877Y1200D01*
X3880Y1202D01*
X3895Y1208D01*
X3910Y1202D01*
X3913Y1200D01*
X3930Y1197D01*
X3947Y1200D01*
X3961Y1209D01*
X3963D01*
X3969Y1199D01*
X3983Y1190D01*
X4000Y1187D01*
X4017Y1190D01*
X4031Y1199D01*
X4040Y1213D01*
X4043Y1230D01*
X4040Y1247D01*
X4031Y1261D01*
X4017Y1270D01*
X4000Y1273D01*
X3983Y1270D01*
X3975Y1264D01*
X3958Y1277D01*
Y1360D01*
X3978Y1370D01*
X3982Y1368D01*
X4000Y1364D01*
X4018Y1368D01*
X4025Y1373D01*
X4032Y1368D01*
X4050Y1364D01*
X4068Y1368D01*
X4082Y1378D01*
X4092Y1392D01*
X4096Y1410D01*
X4092Y1428D01*
X4082Y1442D01*
X4068Y1452D01*
X4050Y1456D01*
X4032Y1452D01*
X4025Y1447D01*
X4018Y1452D01*
X4000Y1456D01*
X3998Y1455D01*
X3995Y1456D01*
X3978Y1472D01*
Y1690D01*
X3976Y1701D01*
X3970Y1710D01*
X3930Y1750D01*
X3921Y1756D01*
X3910Y1758D01*
X3052D01*
X3051Y1761D01*
X3037Y1770D01*
X3020Y1773D01*
X3003Y1770D01*
X2989Y1761D01*
X2964Y1759D01*
X2833Y1890D01*
X2823Y1896D01*
X2813Y1899D01*
X2809D01*
X2793Y1919D01*
X2793Y1920D01*
X2790Y1937D01*
X2781Y1951D01*
X2767Y1960D01*
X2750Y1963D01*
X2733Y1960D01*
X2727Y1956D01*
X2715D01*
X2675Y1995D01*
X2664Y2003D01*
X2650Y2006D01*
X2515D01*
X2415Y2105D01*
X2404Y2113D01*
X2390Y2116D01*
X1865D01*
X1796Y2185D01*
Y2270D01*
X1793Y2284D01*
X1785Y2295D01*
X1682Y2398D01*
X1671Y2406D01*
X1657Y2408D01*
X1543D01*
X1529Y2406D01*
X1527Y2404D01*
X1516Y2399D01*
X1501Y2410D01*
X1501Y2411D01*
X1487Y2420D01*
X1470Y2423D01*
D02*
G37*
G36*
X4560Y2433D02*
X4543Y2430D01*
X4529Y2421D01*
X4520Y2407D01*
X4517Y2390D01*
X4520Y2373D01*
X4529Y2359D01*
Y2351D01*
X4520Y2337D01*
X4517Y2320D01*
X4520Y2303D01*
X4529Y2289D01*
X4543Y2280D01*
X4560Y2277D01*
X4577Y2280D01*
X4591Y2289D01*
X4600Y2303D01*
X4603Y2320D01*
X4600Y2337D01*
X4591Y2351D01*
Y2359D01*
X4600Y2373D01*
X4603Y2390D01*
X4600Y2407D01*
X4591Y2421D01*
X4577Y2430D01*
X4560Y2433D01*
D02*
G37*
G36*
X1180Y2443D02*
X1163Y2440D01*
X1149Y2431D01*
X1140Y2417D01*
X1137Y2400D01*
X1140Y2383D01*
X1143Y2379D01*
X1144Y2356D01*
X1133Y2340D01*
X1129Y2320D01*
X1133Y2300D01*
X1144Y2284D01*
X1160Y2273D01*
X1180Y2269D01*
X1200Y2273D01*
X1216Y2284D01*
X1227Y2300D01*
X1231Y2320D01*
X1227Y2340D01*
X1216Y2356D01*
X1217Y2379D01*
X1220Y2383D01*
X1223Y2400D01*
X1220Y2417D01*
X1211Y2431D01*
X1197Y2440D01*
X1180Y2443D01*
D02*
G37*
G36*
X4120Y2313D02*
X4103Y2310D01*
X4089Y2301D01*
X4080Y2287D01*
X4077Y2270D01*
X4080Y2253D01*
X4089Y2239D01*
X4103Y2230D01*
X4120Y2227D01*
X4137Y2230D01*
X4151Y2239D01*
X4160Y2253D01*
X4163Y2270D01*
X4160Y2287D01*
X4151Y2301D01*
X4137Y2310D01*
X4120Y2313D01*
D02*
G37*
G36*
X4650Y2286D02*
X4632Y2282D01*
X4618Y2272D01*
X4608Y2258D01*
X4604Y2240D01*
X4608Y2222D01*
X4618Y2208D01*
X4632Y2198D01*
X4650Y2194D01*
X4668Y2198D01*
X4682Y2208D01*
X4692Y2222D01*
X4696Y2240D01*
X4692Y2258D01*
X4682Y2272D01*
X4668Y2282D01*
X4650Y2286D01*
D02*
G37*
G36*
X4870Y2333D02*
X4853Y2330D01*
X4839Y2321D01*
X4830Y2307D01*
X4827Y2290D01*
X4830Y2273D01*
X4839Y2259D01*
Y2251D01*
X4830Y2237D01*
X4827Y2220D01*
X4830Y2203D01*
X4839Y2189D01*
X4853Y2180D01*
X4870Y2177D01*
X4887Y2180D01*
X4901Y2189D01*
X4910Y2203D01*
X4913Y2220D01*
X4910Y2237D01*
X4901Y2251D01*
Y2259D01*
X4910Y2273D01*
X4913Y2290D01*
X4910Y2307D01*
X4901Y2321D01*
X4887Y2330D01*
X4870Y2333D01*
D02*
G37*
G36*
X2390Y2333D02*
X2373Y2330D01*
X2359Y2321D01*
X2350Y2307D01*
X2347Y2290D01*
X2350Y2273D01*
X2359Y2259D01*
X2373Y2251D01*
X2374Y2244D01*
X2374Y2237D01*
X2373Y2230D01*
X2360Y2221D01*
X2350Y2207D01*
X2347Y2190D01*
X2350Y2174D01*
X2360Y2160D01*
X2374Y2150D01*
X2390Y2147D01*
X2407Y2150D01*
X2421Y2160D01*
X2430Y2174D01*
X2434Y2190D01*
X2430Y2207D01*
X2421Y2221D01*
X2408Y2230D01*
X2407Y2237D01*
X2407Y2244D01*
X2408Y2251D01*
X2421Y2259D01*
X2430Y2273D01*
X2433Y2290D01*
X2430Y2307D01*
X2421Y2321D01*
X2407Y2330D01*
X2390Y2333D01*
D02*
G37*
G36*
X1930Y2293D02*
X1913Y2290D01*
X1899Y2281D01*
X1890Y2267D01*
X1887Y2250D01*
X1890Y2233D01*
X1899Y2219D01*
Y2211D01*
X1890Y2197D01*
X1887Y2180D01*
X1890Y2163D01*
X1899Y2149D01*
X1913Y2140D01*
X1930Y2137D01*
X1947Y2140D01*
X1961Y2149D01*
X1969D01*
X1983Y2140D01*
X2000Y2137D01*
X2017Y2140D01*
X2030Y2149D01*
X2044Y2140D01*
X2060Y2137D01*
X2077Y2140D01*
X2091Y2149D01*
X2100Y2163D01*
X2104Y2180D01*
X2100Y2197D01*
X2091Y2211D01*
X2077Y2220D01*
X2060Y2223D01*
X2044Y2220D01*
X2030Y2211D01*
X2017Y2220D01*
X2000Y2223D01*
X1985Y2220D01*
X1977Y2227D01*
X1970Y2235D01*
X1973Y2250D01*
X1970Y2267D01*
X1961Y2281D01*
X1947Y2290D01*
X1930Y2293D01*
D02*
G37*
G36*
X3180Y2133D02*
X3163Y2130D01*
X3149Y2121D01*
X3141D01*
X3127Y2130D01*
X3110Y2133D01*
X3093Y2130D01*
X3079Y2121D01*
X3070Y2107D01*
X3067Y2090D01*
X3070Y2073D01*
X3079Y2059D01*
X3093Y2050D01*
X3110Y2047D01*
X3127Y2050D01*
X3141Y2059D01*
X3149D01*
X3163Y2050D01*
X3180Y2047D01*
X3197Y2050D01*
X3211Y2059D01*
X3220Y2073D01*
X3223Y2090D01*
X3220Y2107D01*
X3211Y2121D01*
X3197Y2130D01*
X3180Y2133D01*
D02*
G37*
G36*
X3670Y2073D02*
X3653Y2070D01*
X3639Y2061D01*
X3631D01*
X3617Y2070D01*
X3600Y2073D01*
X3583Y2070D01*
X3569Y2061D01*
X3560Y2047D01*
X3557Y2030D01*
X3560Y2013D01*
X3569Y1999D01*
X3583Y1990D01*
X3600Y1987D01*
X3617Y1990D01*
X3631Y1999D01*
X3639D01*
X3653Y1990D01*
X3670Y1987D01*
X3687Y1990D01*
X3701Y1999D01*
X3710Y2013D01*
X3713Y2030D01*
X3710Y2047D01*
X3701Y2061D01*
X3687Y2070D01*
X3670Y2073D01*
D02*
G37*
G36*
X760Y2129D02*
X690D01*
Y2058D01*
X848D01*
X848Y2061D01*
X839Y2083D01*
X824Y2102D01*
X805Y2117D01*
X783Y2126D01*
X760Y2129D01*
D02*
G37*
G36*
X848Y2018D02*
X690D01*
Y1947D01*
X760D01*
X783Y1950D01*
X805Y1959D01*
X824Y1974D01*
X839Y1993D01*
X848Y2015D01*
X848Y2018D01*
D02*
G37*
G36*
X3330Y2013D02*
X3313Y2010D01*
X3299Y2001D01*
X3290Y1987D01*
X3287Y1970D01*
X3290Y1953D01*
X3299Y1939D01*
X3313Y1930D01*
X3330Y1927D01*
X3347Y1930D01*
X3361Y1939D01*
X3370Y1953D01*
X3373Y1970D01*
X3370Y1987D01*
X3361Y2001D01*
X3347Y2010D01*
X3330Y2013D01*
D02*
G37*
G36*
X3830Y2003D02*
X3813Y2000D01*
X3799Y1991D01*
X3790Y1977D01*
X3787Y1960D01*
X3787Y1959D01*
X3790Y1943D01*
X3772Y1937D01*
X3770Y1937D01*
X3754Y1926D01*
X3743Y1910D01*
X3739Y1890D01*
X3743Y1870D01*
X3754Y1854D01*
X3770Y1843D01*
X3790Y1839D01*
X3810Y1843D01*
X3820Y1850D01*
X3830Y1843D01*
X3850Y1839D01*
X3870Y1843D01*
X3886Y1854D01*
X3897Y1870D01*
X3901Y1890D01*
X3917Y1900D01*
X3931Y1909D01*
X3940Y1923D01*
X3943Y1940D01*
X3940Y1957D01*
X3931Y1971D01*
X3917Y1980D01*
X3900Y1983D01*
X3883Y1980D01*
X3864Y1985D01*
X3861Y1991D01*
X3847Y2000D01*
X3830Y2003D01*
D02*
G37*
G36*
X4630Y1853D02*
X4613Y1850D01*
X4599Y1841D01*
X4590Y1827D01*
X4587Y1810D01*
X4590Y1793D01*
X4599Y1779D01*
X4613Y1770D01*
X4630Y1767D01*
X4647Y1770D01*
X4661Y1779D01*
X4670Y1793D01*
X4673Y1810D01*
X4670Y1827D01*
X4661Y1841D01*
X4647Y1850D01*
X4630Y1853D01*
D02*
G37*
G36*
X4805Y1741D02*
X4789Y1738D01*
X4776Y1729D01*
X4767Y1716D01*
X4764Y1700D01*
X4767Y1684D01*
X4776Y1671D01*
X4789Y1662D01*
X4805Y1659D01*
X4821Y1662D01*
X4834Y1671D01*
X4843Y1684D01*
X4846Y1700D01*
X4843Y1716D01*
X4834Y1729D01*
X4821Y1738D01*
X4805Y1741D01*
D02*
G37*
G36*
X4565Y1671D02*
X4547Y1667D01*
X4533Y1657D01*
X4523Y1643D01*
X4519Y1625D01*
X4523Y1607D01*
X4533Y1593D01*
Y1587D01*
X4523Y1573D01*
X4519Y1555D01*
X4523Y1537D01*
X4533Y1523D01*
X4547Y1513D01*
X4565Y1509D01*
X4583Y1513D01*
X4597Y1523D01*
X4607Y1537D01*
X4611Y1555D01*
X4607Y1573D01*
X4597Y1587D01*
Y1593D01*
X4607Y1607D01*
X4611Y1625D01*
X4607Y1643D01*
X4597Y1657D01*
X4583Y1667D01*
X4565Y1671D01*
D02*
G37*
G36*
X4850Y1483D02*
X4833Y1480D01*
X4820Y1471D01*
X4806Y1480D01*
X4790Y1483D01*
X4773Y1480D01*
X4759Y1471D01*
X4758Y1470D01*
X4737Y1460D01*
X4720Y1463D01*
X4703Y1460D01*
X4689Y1451D01*
X4680Y1437D01*
X4677Y1420D01*
X4680Y1403D01*
X4689Y1389D01*
X4703Y1380D01*
X4720Y1377D01*
X4737Y1380D01*
X4751Y1389D01*
X4751Y1390D01*
X4773Y1400D01*
X4790Y1397D01*
X4806Y1400D01*
X4820Y1409D01*
X4833Y1400D01*
X4850Y1397D01*
X4867Y1400D01*
X4881Y1409D01*
X4890Y1423D01*
X4893Y1440D01*
X4890Y1457D01*
X4881Y1471D01*
X4867Y1480D01*
X4850Y1483D01*
D02*
G37*
G36*
X4240Y1653D02*
X4223Y1650D01*
X4209Y1641D01*
X4200Y1627D01*
X4197Y1610D01*
X4200Y1593D01*
X4209Y1579D01*
Y1571D01*
X4200Y1557D01*
X4197Y1540D01*
X4200Y1523D01*
X4209Y1509D01*
Y1501D01*
X4200Y1487D01*
X4197Y1470D01*
X4200Y1453D01*
X4209Y1439D01*
X4223Y1430D01*
X4240Y1427D01*
X4257Y1430D01*
X4271Y1439D01*
X4280Y1453D01*
X4283Y1470D01*
X4280Y1487D01*
X4271Y1501D01*
Y1509D01*
X4280Y1523D01*
X4283Y1540D01*
X4280Y1557D01*
X4271Y1571D01*
Y1579D01*
X4280Y1593D01*
X4283Y1610D01*
X4280Y1627D01*
X4271Y1641D01*
X4257Y1650D01*
X4240Y1653D01*
D02*
G37*
G36*
X590Y1423D02*
X573Y1420D01*
X559Y1411D01*
X551D01*
X537Y1420D01*
X520Y1423D01*
X503Y1420D01*
X491Y1411D01*
X472Y1402D01*
X458Y1412D01*
X440Y1416D01*
X422Y1412D01*
X408Y1402D01*
X398Y1388D01*
X394Y1370D01*
X398Y1352D01*
X408Y1338D01*
X422Y1328D01*
X440Y1324D01*
X458Y1328D01*
X472Y1338D01*
X473Y1338D01*
X475Y1340D01*
X499Y1343D01*
X503Y1340D01*
X505Y1334D01*
X508Y1319D01*
X500Y1307D01*
X497Y1290D01*
X500Y1274D01*
X486Y1261D01*
X481Y1253D01*
X458Y1247D01*
X452Y1253D01*
X438Y1263D01*
X420Y1266D01*
X402Y1263D01*
X388Y1253D01*
X378Y1238D01*
X374Y1220D01*
X378Y1203D01*
X388Y1188D01*
X468Y1108D01*
X483Y1098D01*
X500Y1094D01*
X1226D01*
X1226Y1094D01*
X1235Y1074D01*
X1230Y1067D01*
X1227Y1050D01*
X1230Y1033D01*
X1230Y1033D01*
X1218Y1015D01*
X1202Y1012D01*
X1188Y1002D01*
X1178Y988D01*
X1175Y972D01*
X1178Y955D01*
X1188Y941D01*
X1202Y932D01*
X1218Y928D01*
X1235Y932D01*
X1249Y941D01*
X1258Y955D01*
X1262Y972D01*
X1258Y988D01*
X1258Y989D01*
X1270Y1007D01*
X1287Y1010D01*
X1301Y1019D01*
X1308Y1030D01*
X1317Y1024D01*
X1334Y1020D01*
X1337Y1001D01*
X1338Y992D01*
X1345Y975D01*
X1356Y960D01*
X1371Y949D01*
X1388Y942D01*
X1406Y940D01*
X1424Y942D01*
X1441Y949D01*
X1456Y960D01*
X1467Y975D01*
X1474Y992D01*
X1476Y1010D01*
X1474Y1028D01*
X1467Y1045D01*
X1463Y1052D01*
X1463Y1053D01*
X1477Y1065D01*
X1501Y1041D01*
X1515Y1031D01*
X1528Y1029D01*
X1540Y1011D01*
X1540Y1010D01*
X1537Y994D01*
X1540Y977D01*
X1549Y963D01*
X1563Y953D01*
X1580Y950D01*
X1597Y953D01*
X1611Y963D01*
X1620Y977D01*
X1623Y994D01*
X1620Y1010D01*
X1611Y1024D01*
X1597Y1034D01*
X1586Y1036D01*
X1577Y1051D01*
X1575Y1056D01*
X1579Y1073D01*
X1575Y1091D01*
X1565Y1106D01*
X1499Y1172D01*
X1484Y1182D01*
X1466Y1186D01*
X561D01*
X561Y1186D01*
X552Y1206D01*
X557Y1213D01*
X560Y1230D01*
X557Y1247D01*
X571Y1260D01*
X580Y1274D01*
X583Y1290D01*
X580Y1307D01*
X571Y1320D01*
X572Y1324D01*
X580Y1339D01*
X590Y1337D01*
X607Y1340D01*
X621Y1349D01*
X630Y1363D01*
X633Y1380D01*
X630Y1397D01*
X621Y1411D01*
X607Y1420D01*
X590Y1423D01*
D02*
G37*
G36*
X1980Y1421D02*
X1960Y1417D01*
X1950Y1410D01*
X1940Y1417D01*
X1920Y1421D01*
X1900Y1417D01*
X1884Y1406D01*
X1873Y1390D01*
X1869Y1370D01*
X1873Y1350D01*
X1873Y1350D01*
X1872Y1346D01*
X1863Y1330D01*
X1850Y1327D01*
X1834Y1316D01*
X1823Y1300D01*
X1819Y1280D01*
X1823Y1260D01*
X1834Y1244D01*
X1850Y1233D01*
X1870Y1229D01*
X1873Y1230D01*
X1884Y1214D01*
X1900Y1203D01*
X1907Y1202D01*
X1909Y1201D01*
X1908Y1181D01*
X1907Y1181D01*
X1896Y1179D01*
X1879Y1172D01*
X1864Y1161D01*
X1853Y1147D01*
X1846Y1130D01*
X1844Y1112D01*
X1846Y1093D01*
X1853Y1077D01*
X1864Y1062D01*
X1879Y1051D01*
X1896Y1044D01*
X1914Y1041D01*
X1932Y1044D01*
X1943Y1038D01*
X1944Y1037D01*
X1953Y1023D01*
X1967Y1014D01*
X1984Y1010D01*
X2000Y1014D01*
X2014Y1023D01*
X2024Y1037D01*
X2027Y1054D01*
X2024Y1070D01*
X2014Y1084D01*
X2000Y1094D01*
X1998Y1098D01*
X2007Y1120D01*
X2021Y1129D01*
X2030Y1143D01*
X2033Y1160D01*
X2030Y1177D01*
X2021Y1191D01*
X2019Y1192D01*
X2016Y1214D01*
X2027Y1230D01*
X2031Y1250D01*
X2027Y1270D01*
X2020Y1280D01*
X2027Y1290D01*
X2031Y1310D01*
X2027Y1330D01*
X2020Y1340D01*
X2027Y1350D01*
X2031Y1370D01*
X2027Y1390D01*
X2016Y1406D01*
X2000Y1417D01*
X1980Y1421D01*
D02*
G37*
G36*
X4240Y1343D02*
X4223Y1340D01*
X4209Y1331D01*
X4200Y1317D01*
X4197Y1300D01*
X4200Y1283D01*
X4197Y1261D01*
X4195Y1258D01*
X4187Y1247D01*
X4184Y1230D01*
X4187Y1213D01*
X4197Y1199D01*
X4211Y1190D01*
X4227Y1187D01*
X4244Y1190D01*
X4258Y1199D01*
X4267Y1213D01*
X4271Y1210D01*
X4288Y1207D01*
X4304Y1210D01*
X4318Y1219D01*
X4328Y1233D01*
X4331Y1250D01*
X4328Y1267D01*
X4318Y1281D01*
X4304Y1290D01*
X4302Y1290D01*
X4283Y1300D01*
X4280Y1317D01*
X4271Y1331D01*
X4257Y1340D01*
X4240Y1343D01*
D02*
G37*
G36*
X2780Y1283D02*
X2763Y1280D01*
X2749Y1271D01*
X2740Y1257D01*
X2737Y1240D01*
X2740Y1223D01*
X2749Y1209D01*
X2763Y1200D01*
X2780Y1197D01*
X2797Y1200D01*
X2811Y1209D01*
X2820Y1223D01*
X2823Y1240D01*
X2820Y1257D01*
X2811Y1271D01*
X2797Y1280D01*
X2780Y1283D01*
D02*
G37*
G36*
X3100Y1273D02*
X3083Y1270D01*
X3069Y1261D01*
X3060Y1247D01*
X3057Y1230D01*
X3060Y1213D01*
X3069Y1199D01*
X3083Y1190D01*
X3100Y1187D01*
X3117Y1190D01*
X3131Y1199D01*
X3140Y1213D01*
X3143Y1230D01*
X3140Y1247D01*
X3131Y1261D01*
X3117Y1270D01*
X3100Y1273D01*
D02*
G37*
G36*
X3230Y1281D02*
X3210Y1277D01*
X3194Y1266D01*
X3183Y1250D01*
X3179Y1230D01*
X3183Y1210D01*
X3194Y1194D01*
X3210Y1183D01*
X3230Y1179D01*
X3250Y1183D01*
X3266Y1194D01*
X3277Y1210D01*
X3281Y1230D01*
X3277Y1250D01*
X3266Y1266D01*
X3250Y1277D01*
X3230Y1281D01*
D02*
G37*
G36*
X2750Y1083D02*
X2733Y1080D01*
X2719Y1071D01*
X2710Y1057D01*
X2707Y1040D01*
X2710Y1023D01*
X2719Y1009D01*
X2733Y1000D01*
X2750Y997D01*
X2767Y1000D01*
X2774Y1005D01*
X2782Y1009D01*
X2799Y1000D01*
X2799Y999D01*
X2813Y990D01*
X2830Y987D01*
X2847Y990D01*
X2861Y999D01*
X2870Y1013D01*
X2873Y1030D01*
X2870Y1047D01*
X2861Y1061D01*
X2847Y1070D01*
X2830Y1073D01*
X2813Y1070D01*
X2806Y1065D01*
X2798Y1061D01*
X2781Y1070D01*
X2781Y1071D01*
X2767Y1080D01*
X2750Y1083D01*
D02*
G37*
G36*
X3900Y1059D02*
X3882Y1056D01*
X3868Y1046D01*
X3858Y1031D01*
X3854Y1013D01*
X3858Y996D01*
X3868Y981D01*
X3882Y971D01*
X3900Y967D01*
X3918Y971D01*
X3932Y981D01*
X3942Y996D01*
X3946Y1013D01*
X3942Y1031D01*
X3932Y1046D01*
X3918Y1056D01*
X3900Y1059D01*
D02*
G37*
G36*
X3650Y1041D02*
X3630Y1037D01*
X3614Y1026D01*
X3603Y1010D01*
X3599Y990D01*
X3603Y970D01*
X3614Y954D01*
X3630Y943D01*
X3650Y939D01*
X3670Y943D01*
X3686Y954D01*
X3697Y970D01*
X3701Y990D01*
X3697Y1010D01*
X3686Y1026D01*
X3670Y1037D01*
X3650Y1041D01*
D02*
G37*
G36*
X4270Y1146D02*
X4252Y1142D01*
X4238Y1132D01*
X4228Y1118D01*
X4224Y1100D01*
X4228Y1082D01*
X4233Y1075D01*
X4228Y1068D01*
X4224Y1050D01*
X4228Y1032D01*
X4238Y1018D01*
X4247Y1011D01*
X4238Y998D01*
X4234Y980D01*
X4238Y962D01*
X4248Y948D01*
X4262Y938D01*
X4280Y934D01*
X4298Y938D01*
X4305Y943D01*
X4312Y938D01*
X4330Y934D01*
X4348Y938D01*
X4362Y948D01*
X4372Y962D01*
X4376Y980D01*
X4372Y998D01*
X4362Y1012D01*
X4348Y1022D01*
X4330Y1026D01*
X4315Y1043D01*
X4316Y1050D01*
X4312Y1068D01*
X4307Y1075D01*
X4312Y1082D01*
X4316Y1100D01*
X4312Y1118D01*
X4302Y1132D01*
X4288Y1142D01*
X4270Y1146D01*
D02*
G37*
G36*
X560Y1006D02*
X542Y1002D01*
X528Y992D01*
X518Y978D01*
X514Y960D01*
X518Y942D01*
X528Y928D01*
X542Y918D01*
X560Y914D01*
X578Y918D01*
X592Y928D01*
X602Y942D01*
X606Y960D01*
X602Y978D01*
X592Y992D01*
X578Y1002D01*
X560Y1006D01*
D02*
G37*
G36*
X2310Y963D02*
X2293Y960D01*
X2279Y951D01*
X2270Y937D01*
X2267Y920D01*
X2270Y903D01*
X2279Y889D01*
X2293Y880D01*
X2310Y877D01*
X2327Y880D01*
X2341Y889D01*
X2350Y903D01*
X2353Y920D01*
X2350Y937D01*
X2341Y951D01*
X2327Y960D01*
X2310Y963D01*
D02*
G37*
G36*
X3210Y1113D02*
X3193Y1110D01*
X3179Y1101D01*
X3170Y1087D01*
X3167Y1070D01*
X3170Y1053D01*
X3179Y1039D01*
X3193Y1030D01*
X3210Y1027D01*
X3213Y1027D01*
X3362Y878D01*
Y834D01*
X3357Y829D01*
X3342Y821D01*
X3330Y823D01*
X3313Y820D01*
X3299Y811D01*
X3290Y797D01*
X3287Y780D01*
X3287Y777D01*
X3285Y772D01*
X3270Y761D01*
X3260Y763D01*
X3243Y760D01*
X3229Y751D01*
X3220Y737D01*
X3217Y720D01*
X3219Y708D01*
X3211Y693D01*
X3206Y688D01*
X2750D01*
X2739Y686D01*
X2730Y680D01*
X2663Y613D01*
X2660Y613D01*
X2643Y610D01*
X2629Y601D01*
X2620Y587D01*
X2617Y570D01*
X2620Y553D01*
X2629Y539D01*
X2643Y530D01*
X2660Y527D01*
X2677Y530D01*
X2691Y539D01*
X2700Y553D01*
X2703Y570D01*
X2703Y573D01*
X2762Y632D01*
X4000D01*
X4011Y634D01*
X4020Y640D01*
X4192Y812D01*
X4680D01*
X4691Y814D01*
X4700Y820D01*
X4747Y867D01*
X4750Y867D01*
X4767Y870D01*
X4781Y879D01*
X4790Y893D01*
X4793Y910D01*
X4790Y927D01*
X4781Y941D01*
X4767Y950D01*
X4750Y953D01*
X4733Y950D01*
X4719Y941D01*
X4710Y927D01*
X4707Y910D01*
X4707Y907D01*
X4673Y873D01*
X4657Y874D01*
X4644Y892D01*
X4646Y900D01*
X4642Y918D01*
X4637Y925D01*
X4642Y932D01*
X4646Y950D01*
X4642Y968D01*
X4632Y982D01*
X4618Y992D01*
X4600Y996D01*
X4582Y992D01*
X4568Y982D01*
X4558Y968D01*
X4554Y950D01*
X4558Y932D01*
X4563Y925D01*
X4558Y918D01*
X4554Y900D01*
X4556Y888D01*
X4545Y868D01*
X4180D01*
X4169Y866D01*
X4160Y860D01*
X4100Y799D01*
X4081Y805D01*
X4073Y824D01*
X4077Y830D01*
X4081Y850D01*
X4077Y870D01*
X4070Y880D01*
X4077Y890D01*
X4081Y910D01*
X4077Y930D01*
X4066Y946D01*
X4050Y957D01*
X4030Y961D01*
X4010Y957D01*
X3994Y946D01*
X3983Y930D01*
X3979Y910D01*
X3983Y890D01*
X3990Y880D01*
X3983Y870D01*
X3979Y850D01*
X3983Y830D01*
X3990Y820D01*
X3983Y810D01*
X3979Y790D01*
X3983Y770D01*
X3994Y754D01*
X4010Y743D01*
X4014Y742D01*
X4021Y720D01*
X3988Y688D01*
X3449D01*
X3433Y708D01*
X3433Y710D01*
X3430Y727D01*
X3421Y741D01*
X3418Y742D01*
Y890D01*
X3416Y901D01*
X3410Y910D01*
X3253Y1067D01*
X3253Y1070D01*
X3250Y1087D01*
X3241Y1101D01*
X3227Y1110D01*
X3210Y1113D01*
D02*
G37*
G36*
X1914Y979D02*
X1896Y976D01*
X1879Y969D01*
X1864Y958D01*
X1853Y943D01*
X1846Y927D01*
X1844Y908D01*
X1846Y890D01*
X1853Y873D01*
X1864Y859D01*
X1879Y848D01*
X1896Y841D01*
X1914Y838D01*
X1932Y841D01*
X1949Y848D01*
X1964Y859D01*
X1975Y873D01*
X1982Y890D01*
X1984Y908D01*
X1982Y927D01*
X1975Y943D01*
X1964Y958D01*
X1949Y969D01*
X1932Y976D01*
X1914Y979D01*
D02*
G37*
G36*
X2750Y943D02*
X2733Y940D01*
X2719Y931D01*
X2710Y917D01*
X2707Y900D01*
X2710Y883D01*
X2719Y869D01*
X2733Y860D01*
X2750Y857D01*
X2767Y860D01*
X2770Y862D01*
X2787Y863D01*
X2795Y856D01*
X2799Y849D01*
X2813Y840D01*
X2830Y837D01*
X2847Y840D01*
X2861Y849D01*
X2870Y863D01*
X2873Y880D01*
X2870Y897D01*
X2861Y911D01*
X2847Y920D01*
X2830Y923D01*
X2813Y920D01*
X2810Y918D01*
X2793Y917D01*
X2785Y924D01*
X2781Y931D01*
X2767Y940D01*
X2750Y943D01*
D02*
G37*
G36*
X2100Y891D02*
X2083Y887D01*
X2069Y878D01*
X2060Y864D01*
X2057Y847D01*
X2060Y831D01*
X2069Y817D01*
X2083Y807D01*
X2100Y804D01*
X2117Y807D01*
X2131Y817D01*
X2140Y831D01*
X2143Y847D01*
X2140Y864D01*
X2131Y878D01*
X2117Y887D01*
X2100Y891D01*
D02*
G37*
G36*
X3690Y811D02*
X3670Y807D01*
X3660Y800D01*
X3650Y807D01*
X3630Y811D01*
X3610Y807D01*
X3600Y800D01*
X3590Y807D01*
X3570Y811D01*
X3550Y807D01*
X3534Y796D01*
X3523Y780D01*
X3519Y760D01*
X3523Y740D01*
X3534Y724D01*
X3550Y713D01*
X3570Y709D01*
X3590Y713D01*
X3600Y720D01*
X3610Y713D01*
X3630Y709D01*
X3650Y713D01*
X3660Y720D01*
X3670Y713D01*
X3690Y709D01*
X3710Y713D01*
X3726Y724D01*
X3737Y740D01*
X3741Y760D01*
X3737Y780D01*
X3726Y796D01*
X3710Y807D01*
X3690Y811D01*
D02*
G37*
G36*
X350Y773D02*
X333Y770D01*
X323Y763D01*
X310Y762D01*
X297Y763D01*
X287Y770D01*
X270Y773D01*
X253Y770D01*
X239Y761D01*
X230Y747D01*
X227Y730D01*
X230Y713D01*
X239Y699D01*
X253Y690D01*
X270Y687D01*
X287Y690D01*
X297Y697D01*
X310Y698D01*
X323Y697D01*
X333Y690D01*
X350Y687D01*
X367Y690D01*
X381Y699D01*
X390Y713D01*
X393Y730D01*
X390Y747D01*
X381Y761D01*
X367Y770D01*
X350Y773D01*
D02*
G37*
G36*
X2577Y813D02*
X2561Y810D01*
X2547Y801D01*
X2537Y787D01*
X2534Y770D01*
X2537Y753D01*
X2547Y739D01*
X2561Y730D01*
X2577Y727D01*
X2594Y730D01*
X2608Y739D01*
X2617Y753D01*
X2621Y770D01*
X2617Y787D01*
X2608Y801D01*
X2594Y810D01*
X2577Y813D01*
D02*
G37*
G36*
X4870Y788D02*
X4855Y785D01*
X4843Y777D01*
X4835Y765D01*
X4832Y750D01*
X4835Y735D01*
X4843Y723D01*
X4855Y715D01*
X4870Y712D01*
X4885Y715D01*
X4897Y723D01*
X4905Y735D01*
X4908Y750D01*
X4905Y765D01*
X4897Y777D01*
X4885Y785D01*
X4870Y788D01*
D02*
G37*
G36*
X960Y851D02*
X940Y847D01*
X924Y836D01*
X913Y820D01*
X909Y800D01*
X913Y780D01*
X920Y770D01*
X913Y760D01*
X909Y740D01*
X913Y720D01*
X924Y704D01*
X912Y689D01*
X900Y697D01*
X889Y699D01*
X871Y710D01*
X867Y730D01*
X860Y740D01*
X867Y750D01*
X871Y770D01*
X867Y790D01*
X856Y806D01*
X840Y817D01*
X820Y821D01*
X800Y817D01*
X784Y806D01*
X773Y790D01*
X769Y770D01*
X773Y750D01*
X780Y740D01*
X773Y730D01*
X769Y710D01*
X773Y690D01*
X780Y680D01*
X773Y670D01*
X769Y650D01*
X773Y630D01*
X780Y620D01*
X773Y610D01*
X769Y590D01*
X773Y570D01*
X784Y554D01*
X800Y543D01*
X820Y539D01*
X840Y543D01*
X850Y550D01*
X860Y543D01*
X880Y539D01*
X900Y543D01*
X916Y554D01*
X927Y570D01*
X931Y590D01*
X927Y610D01*
X920Y620D01*
X927Y630D01*
X931Y650D01*
X927Y670D01*
X916Y686D01*
X928Y701D01*
X940Y693D01*
X960Y689D01*
X980Y693D01*
X996Y704D01*
X1007Y720D01*
X1011Y740D01*
X1007Y760D01*
X1000Y770D01*
X1007Y780D01*
X1011Y800D01*
X1007Y820D01*
X996Y836D01*
X980Y847D01*
X960Y851D01*
D02*
G37*
G36*
X4455Y759D02*
X4438Y755D01*
X4424Y746D01*
X4415Y732D01*
X4411Y715D01*
X4415Y699D01*
X4424Y685D01*
X4438Y675D01*
X4455Y672D01*
X4471Y675D01*
X4485Y685D01*
X4495Y699D01*
X4498Y715D01*
X4495Y732D01*
X4485Y746D01*
X4471Y755D01*
X4455Y759D01*
D02*
G37*
G36*
X2200Y833D02*
X2183Y830D01*
X2169Y821D01*
X2160Y807D01*
X2157Y790D01*
X2160Y773D01*
X2169Y759D01*
X2174Y756D01*
X2178Y752D01*
Y752D01*
X2168Y738D01*
X2164Y720D01*
X2168Y702D01*
X2178Y688D01*
X2184Y683D01*
X2191Y661D01*
X2191Y658D01*
X2190Y657D01*
X2187Y640D01*
X2190Y623D01*
X2199Y609D01*
X2213Y600D01*
X2230Y597D01*
X2247Y600D01*
X2261Y609D01*
X2270Y623D01*
X2273Y640D01*
X2270Y657D01*
X2277Y676D01*
X2279Y679D01*
X2292Y688D01*
X2302Y702D01*
X2306Y720D01*
X2302Y738D01*
X2292Y752D01*
X2278Y762D01*
X2260Y766D01*
X2257Y765D01*
X2256Y766D01*
X2242Y783D01*
X2243Y790D01*
X2240Y807D01*
X2231Y821D01*
X2217Y830D01*
X2200Y833D01*
D02*
G37*
G36*
X4460Y603D02*
X4443Y600D01*
X4435Y594D01*
X4427Y600D01*
X4410Y603D01*
X4393Y600D01*
X4379Y591D01*
X4370Y577D01*
X4367Y560D01*
X4370Y543D01*
X4379Y529D01*
X4393Y520D01*
X4410Y517D01*
X4427Y520D01*
X4435Y526D01*
X4443Y520D01*
X4460Y517D01*
X4477Y520D01*
X4491Y529D01*
X4500Y543D01*
X4503Y560D01*
X4500Y577D01*
X4491Y591D01*
X4477Y600D01*
X4460Y603D01*
D02*
G37*
G36*
X4230Y781D02*
X4210Y777D01*
X4194Y766D01*
X4183Y750D01*
X4179Y730D01*
X4183Y710D01*
X4183Y710D01*
X4189Y691D01*
X4180Y677D01*
X4177Y660D01*
X4180Y643D01*
X4186Y635D01*
X4180Y627D01*
X4177Y610D01*
X4180Y593D01*
X4189Y579D01*
X4203Y570D01*
X4220Y567D01*
X4237Y570D01*
X4251Y579D01*
X4260Y593D01*
X4263Y610D01*
X4260Y627D01*
X4254Y635D01*
X4260Y643D01*
X4263Y660D01*
X4260Y677D01*
X4263Y692D01*
X4266Y694D01*
X4277Y710D01*
X4281Y730D01*
X4277Y750D01*
X4266Y766D01*
X4249Y777D01*
X4230Y781D01*
D02*
G37*
G36*
X4610Y633D02*
X4593Y630D01*
X4579Y621D01*
X4570Y607D01*
X4567Y590D01*
X4570Y573D01*
X4579Y559D01*
X4593Y550D01*
X4610Y547D01*
X4627Y550D01*
X4641Y559D01*
X4650Y573D01*
X4653Y590D01*
X4650Y607D01*
X4641Y621D01*
X4627Y630D01*
X4610Y633D01*
D02*
G37*
G36*
X4846Y634D02*
X4829Y631D01*
X4814Y621D01*
X4804Y606D01*
X4800Y588D01*
X4804Y571D01*
X4814Y556D01*
X4829Y546D01*
X4846Y542D01*
X4864Y546D01*
X4879Y556D01*
X4888Y571D01*
X4892Y588D01*
X4888Y606D01*
X4879Y621D01*
X4864Y631D01*
X4846Y634D01*
D02*
G37*
G36*
X1580Y551D02*
X1560Y547D01*
X1550Y540D01*
X1540Y547D01*
X1520Y551D01*
X1500Y547D01*
X1484Y536D01*
X1473Y520D01*
X1469Y500D01*
X1473Y480D01*
X1484Y464D01*
X1500Y453D01*
X1520Y449D01*
X1540Y453D01*
X1550Y460D01*
X1560Y453D01*
X1580Y449D01*
X1600Y453D01*
X1616Y464D01*
X1627Y480D01*
X1631Y500D01*
X1627Y520D01*
X1616Y536D01*
X1600Y547D01*
X1580Y551D01*
D02*
G37*
G36*
X420Y553D02*
X403Y550D01*
X389Y541D01*
X380Y527D01*
X377Y527D01*
X363D01*
X360Y527D01*
X351Y541D01*
X337Y550D01*
X320Y553D01*
X303Y550D01*
X289Y541D01*
X280Y527D01*
X277Y510D01*
X280Y493D01*
X289Y479D01*
X303Y470D01*
X320Y467D01*
X337Y470D01*
X351Y479D01*
X360Y493D01*
X363Y493D01*
X377D01*
X380Y493D01*
X389Y479D01*
X403Y470D01*
X420Y467D01*
X437Y470D01*
X451Y479D01*
X460Y493D01*
X463Y510D01*
X460Y527D01*
X451Y541D01*
X437Y550D01*
X420Y553D01*
D02*
G37*
G36*
X2340Y583D02*
X2323Y580D01*
X2309Y571D01*
X2300Y557D01*
X2300Y556D01*
X2290Y538D01*
X2273Y535D01*
X2259Y525D01*
X2250Y511D01*
X2247Y495D01*
X2250Y478D01*
X2259Y464D01*
X2273Y455D01*
X2290Y451D01*
X2307Y455D01*
X2321Y464D01*
X2330Y478D01*
X2330Y478D01*
X2340Y497D01*
X2357Y500D01*
X2371Y509D01*
X2380Y523D01*
X2383Y540D01*
X2380Y557D01*
X2371Y571D01*
X2357Y580D01*
X2340Y583D01*
D02*
G37*
G36*
X4840Y496D02*
X4822Y492D01*
X4808Y482D01*
X4798Y468D01*
X4794Y450D01*
X4798Y432D01*
X4808Y418D01*
X4822Y408D01*
X4840Y404D01*
X4858Y408D01*
X4872Y418D01*
X4882Y432D01*
X4886Y450D01*
X4882Y468D01*
X4872Y482D01*
X4858Y492D01*
X4840Y496D01*
D02*
G37*
G36*
X1630Y433D02*
X1613Y430D01*
X1599Y421D01*
X1590Y407D01*
X1587Y392D01*
X1570Y396D01*
X1552Y392D01*
X1538Y382D01*
X1528Y368D01*
X1524Y350D01*
X1528Y332D01*
X1538Y318D01*
X1552Y308D01*
X1570Y304D01*
X1588Y308D01*
X1602Y318D01*
X1612Y332D01*
X1616Y349D01*
X1630Y347D01*
X1647Y350D01*
X1661Y359D01*
X1670Y373D01*
X1673Y390D01*
X1670Y407D01*
X1661Y421D01*
X1647Y430D01*
X1630Y433D01*
D02*
G37*
G36*
X2470Y473D02*
X2453Y470D01*
X2439Y461D01*
X2430Y447D01*
X2427Y430D01*
X2430Y413D01*
X2439Y399D01*
X2453Y390D01*
X2470Y387D01*
X2487Y390D01*
X2501Y399D01*
X2510Y413D01*
X2513Y430D01*
X2510Y447D01*
X2501Y461D01*
X2487Y470D01*
X2470Y473D01*
D02*
G37*
G36*
X4720Y453D02*
X4703Y450D01*
X4689Y440D01*
X4680Y426D01*
X4676Y410D01*
X4680Y393D01*
X4689Y379D01*
X4703Y370D01*
X4720Y366D01*
X4736Y370D01*
X4750Y379D01*
X4760Y393D01*
X4763Y410D01*
X4760Y426D01*
X4750Y440D01*
X4736Y450D01*
X4720Y453D01*
D02*
G37*
G36*
X4440Y486D02*
X4422Y482D01*
X4408Y472D01*
X4398Y458D01*
X4394Y440D01*
X4398Y422D01*
X4403Y415D01*
X4398Y408D01*
X4394Y390D01*
X4398Y372D01*
X4408Y358D01*
X4422Y348D01*
X4440Y344D01*
X4458Y348D01*
X4472Y358D01*
X4482Y372D01*
X4486Y390D01*
X4482Y408D01*
X4477Y415D01*
X4482Y422D01*
X4486Y440D01*
X4482Y458D01*
X4472Y472D01*
X4458Y482D01*
X4440Y486D01*
D02*
G37*
G36*
X1830Y473D02*
X1813Y470D01*
X1799Y461D01*
X1790Y447D01*
X1787Y430D01*
X1790Y413D01*
X1796Y405D01*
X1790Y397D01*
X1787Y380D01*
X1790Y363D01*
X1799Y349D01*
X1813Y340D01*
X1830Y337D01*
X1847Y340D01*
X1861Y349D01*
X1870Y363D01*
X1873Y380D01*
X1870Y397D01*
X1864Y405D01*
X1870Y413D01*
X1873Y430D01*
X1870Y447D01*
X1861Y461D01*
X1847Y470D01*
X1830Y473D01*
D02*
G37*
G36*
X2250Y313D02*
X2233Y310D01*
X2225Y304D01*
X2217Y310D01*
X2200Y313D01*
X2183Y310D01*
X2169Y301D01*
X2160Y287D01*
X2157Y270D01*
X2160Y253D01*
X2169Y239D01*
X2183Y230D01*
X2200Y227D01*
X2217Y230D01*
X2225Y236D01*
X2233Y230D01*
X2250Y227D01*
X2267Y230D01*
X2281Y239D01*
X2290Y253D01*
X2293Y270D01*
X2290Y287D01*
X2281Y301D01*
X2267Y310D01*
X2250Y313D01*
D02*
G37*
G36*
X560Y383D02*
X543Y380D01*
X529Y371D01*
X520Y357D01*
X517Y340D01*
X520Y323D01*
X529Y309D01*
X543Y300D01*
X560Y297D01*
X577Y300D01*
X591Y309D01*
X600Y323D01*
X603Y340D01*
X600Y357D01*
X591Y371D01*
X577Y380D01*
X560Y383D01*
D02*
G37*
G36*
X2670Y363D02*
X2653Y360D01*
X2639Y351D01*
X2630Y337D01*
X2627Y320D01*
X2630Y303D01*
X2639Y289D01*
X2653Y280D01*
X2670Y277D01*
X2687Y280D01*
X2701Y289D01*
X2710Y303D01*
X2713Y320D01*
X2710Y337D01*
X2701Y351D01*
X2687Y360D01*
X2670Y363D01*
D02*
G37*
G36*
X4870Y356D02*
X4852Y352D01*
X4838Y342D01*
X4828Y328D01*
X4824Y310D01*
X4828Y292D01*
X4838Y278D01*
X4852Y268D01*
X4870Y264D01*
X4888Y268D01*
X4902Y278D01*
X4912Y292D01*
X4916Y310D01*
X4912Y328D01*
X4902Y342D01*
X4888Y352D01*
X4870Y356D01*
D02*
G37*
G36*
X750Y271D02*
X730Y267D01*
X714Y256D01*
X712Y253D01*
X688D01*
X686Y256D01*
X670Y267D01*
X650Y271D01*
X630Y267D01*
X614Y256D01*
X603Y240D01*
X599Y220D01*
X603Y200D01*
X610Y190D01*
X603Y180D01*
X599Y160D01*
X603Y140D01*
X614Y124D01*
X630Y113D01*
X650Y109D01*
X670Y113D01*
X686Y124D01*
X688Y127D01*
X712D01*
X714Y124D01*
X730Y113D01*
X750Y109D01*
X770Y113D01*
X786Y124D01*
X797Y140D01*
X801Y160D01*
X797Y180D01*
X790Y190D01*
X797Y200D01*
X801Y220D01*
X797Y240D01*
X786Y256D01*
X770Y267D01*
X750Y271D01*
D02*
G37*
G36*
X480Y283D02*
X463Y280D01*
X449Y271D01*
X440Y257D01*
X437Y240D01*
X440Y223D01*
X449Y209D01*
X463Y200D01*
X480Y197D01*
X497Y200D01*
X511Y209D01*
X520Y223D01*
X523Y240D01*
X520Y257D01*
X511Y271D01*
X497Y280D01*
X480Y283D01*
D02*
G37*
G36*
X4340Y273D02*
X4323Y270D01*
X4309Y261D01*
X4300Y247D01*
X4297Y230D01*
X4300Y213D01*
X4309Y199D01*
X4323Y190D01*
X4340Y187D01*
X4357Y190D01*
X4371Y199D01*
X4380Y213D01*
X4383Y230D01*
X4380Y247D01*
X4371Y261D01*
X4357Y270D01*
X4340Y273D01*
D02*
G37*
G36*
X2650Y223D02*
X2633Y220D01*
X2619Y211D01*
X2610Y197D01*
X2607Y180D01*
X2610Y163D01*
X2619Y149D01*
X2633Y140D01*
X2650Y137D01*
X2667Y140D01*
X2681Y149D01*
X2690Y163D01*
X2693Y180D01*
X2690Y197D01*
X2681Y211D01*
X2667Y220D01*
X2650Y223D01*
D02*
G37*
G36*
X1410Y461D02*
X1390Y457D01*
X1374Y446D01*
X1363Y430D01*
X1359Y410D01*
X1363Y390D01*
X1370Y380D01*
X1363Y370D01*
X1359Y350D01*
X1363Y330D01*
X1370Y320D01*
Y320D01*
X1363Y301D01*
X1362Y299D01*
X1350Y297D01*
X1334Y286D01*
X1323Y270D01*
X1319Y250D01*
X1323Y230D01*
X1330Y220D01*
X1323Y210D01*
X1319Y190D01*
X1323Y170D01*
X1330Y160D01*
X1323Y150D01*
X1319Y130D01*
X1323Y110D01*
X1334Y94D01*
X1350Y83D01*
X1370Y79D01*
X1390Y83D01*
X1406Y94D01*
X1417Y110D01*
X1421Y130D01*
X1417Y150D01*
X1410Y160D01*
X1417Y170D01*
X1421Y190D01*
X1417Y210D01*
X1410Y220D01*
X1417Y230D01*
X1421Y250D01*
X1417Y270D01*
X1410Y280D01*
Y280D01*
X1417Y299D01*
X1418Y301D01*
X1430Y303D01*
X1446Y314D01*
X1457Y330D01*
X1461Y350D01*
X1457Y370D01*
X1450Y380D01*
X1457Y390D01*
X1461Y410D01*
X1457Y430D01*
X1446Y446D01*
X1430Y457D01*
X1410Y461D01*
D02*
G37*
G36*
X1220Y301D02*
X1200Y297D01*
X1184Y286D01*
X1173Y270D01*
X1169Y250D01*
X1173Y230D01*
X1180Y220D01*
X1173Y210D01*
X1169Y190D01*
X1173Y170D01*
X1180Y160D01*
X1173Y150D01*
X1169Y130D01*
X1173Y110D01*
X1184Y94D01*
X1200Y83D01*
X1220Y79D01*
X1240Y83D01*
X1256Y94D01*
X1267Y110D01*
X1271Y130D01*
X1267Y150D01*
X1260Y160D01*
X1267Y170D01*
X1271Y190D01*
X1267Y210D01*
X1260Y220D01*
X1267Y230D01*
X1271Y250D01*
X1267Y270D01*
X1256Y286D01*
X1240Y297D01*
X1220Y301D01*
D02*
G37*
%LPD*%
G36*
X4670Y3390D02*
X4670Y3290D01*
X4650Y3270D01*
X4560Y3270D01*
X4540Y3290D01*
X4540Y3410D01*
X4650Y3410D01*
X4670Y3390D01*
D02*
G37*
G36*
X711Y1791D02*
X722Y1768D01*
X720Y1763D01*
X703Y1760D01*
X689Y1751D01*
X680Y1737D01*
X677Y1720D01*
X680Y1703D01*
X689Y1689D01*
X703Y1680D01*
X720Y1677D01*
X737Y1680D01*
X751Y1689D01*
X760Y1703D01*
X763Y1720D01*
X768Y1732D01*
X788Y1739D01*
X809Y1731D01*
X809Y1729D01*
X824Y1720D01*
X840Y1717D01*
X843Y1717D01*
X990Y1570D01*
X999Y1564D01*
X1010Y1562D01*
X1425D01*
X1431Y1542D01*
X1429Y1541D01*
X1420Y1527D01*
X1417Y1510D01*
X1420Y1493D01*
X1429Y1479D01*
X1443Y1470D01*
X1460Y1467D01*
X1477Y1470D01*
X1485Y1476D01*
X1493Y1470D01*
X1510Y1467D01*
X1527Y1470D01*
X1535Y1476D01*
X1543Y1470D01*
X1560Y1467D01*
X1567Y1460D01*
X1570Y1443D01*
X1573Y1438D01*
X1563Y1418D01*
X1293D01*
X1288Y1437D01*
X1288Y1438D01*
X1302Y1448D01*
X1312Y1462D01*
X1316Y1480D01*
X1312Y1498D01*
X1302Y1512D01*
X1288Y1522D01*
X1270Y1526D01*
X1252Y1522D01*
X1238Y1512D01*
X1228Y1498D01*
X1224Y1480D01*
X1228Y1462D01*
X1238Y1448D01*
X1252Y1438D01*
X1252Y1437D01*
X1247Y1418D01*
X855D01*
X678Y1595D01*
Y1630D01*
X676Y1641D01*
X670Y1650D01*
X653Y1667D01*
X653Y1670D01*
X650Y1687D01*
X641Y1701D01*
X640Y1701D01*
X637Y1727D01*
X703Y1793D01*
X711Y1791D01*
D02*
G37*
%LPC*%
G36*
X13851Y4991D02*
X13814D01*
Y4869D01*
X13852D01*
X13853Y4869D01*
X13857Y4869D01*
X13861Y4870D01*
X13865Y4870D01*
X13869Y4871D01*
X13873Y4872D01*
X13873Y4872D01*
X13874Y4872D01*
X13876Y4873D01*
X13878Y4874D01*
X13880Y4875D01*
X13883Y4877D01*
X13885Y4878D01*
X13887Y4880D01*
X13887Y4881D01*
X13888Y4881D01*
X13890Y4883D01*
X13891Y4885D01*
X13893Y4888D01*
X13895Y4892D01*
X13897Y4896D01*
X13899Y4900D01*
Y4900D01*
X13899Y4901D01*
X13899Y4902D01*
X13900Y4903D01*
X13900Y4904D01*
X13900Y4905D01*
X13901Y4907D01*
X13901Y4909D01*
X13902Y4913D01*
X13903Y4919D01*
X13903Y4925D01*
X13903Y4931D01*
Y4931D01*
Y4932D01*
Y4934D01*
X13903Y4935D01*
Y4937D01*
X13903Y4940D01*
X13903Y4943D01*
X13902Y4945D01*
X13901Y4952D01*
X13900Y4958D01*
X13898Y4964D01*
X13896Y4967D01*
X13895Y4970D01*
Y4970D01*
X13894Y4970D01*
X13894Y4971D01*
X13894Y4972D01*
X13892Y4974D01*
X13889Y4977D01*
X13886Y4980D01*
X13883Y4983D01*
X13879Y4986D01*
X13875Y4988D01*
X13874Y4988D01*
X13873Y4988D01*
X13871Y4989D01*
X13868Y4990D01*
X13864Y4990D01*
X13860Y4991D01*
X13857Y4991D01*
X13854D01*
X13851Y4991D01*
D02*
G37*
%LPD*%
D12*
X4180Y840D02*
X4680D01*
X4000Y660D02*
X4180Y840D01*
X2750Y660D02*
X4000D01*
X3930Y1440D02*
X3950Y1460D01*
Y1690D01*
X3910Y1730D02*
X3950Y1690D01*
X3020Y1730D02*
X3910D01*
X3756Y1576D02*
X3840Y1660D01*
X2813Y1870D02*
X3107Y1576D01*
X3756D01*
X2693Y1870D02*
X2813D01*
X3210Y1070D02*
X3390Y890D01*
Y710D02*
Y890D01*
X620Y1570D02*
X620D01*
X570Y1620D02*
X620Y1570D01*
X3380Y1360D02*
X3450Y1430D01*
X4570Y2050D02*
X4600Y2080D01*
X4083Y2050D02*
X4570D01*
X4020Y2113D02*
X4083Y2050D01*
X4020Y2113D02*
Y2350D01*
X3890Y2480D02*
X4020Y2350D01*
X3800Y2480D02*
X3890D01*
X4190Y1810D02*
Y1857D01*
X3960Y2087D02*
X4190Y1857D01*
X3960Y2087D02*
Y2277D01*
X3887Y2350D02*
X3960Y2277D01*
X3820Y2350D02*
X3887D01*
X3780Y2390D02*
X3820Y2350D01*
X3870Y2410D02*
X3990Y2290D01*
Y2100D02*
Y2290D01*
Y2100D02*
X4240Y1850D01*
Y1750D02*
Y1850D01*
X4150Y1660D02*
X4240Y1750D01*
X4065Y1660D02*
X4150D01*
X2290Y1090D02*
X2460D01*
X2730Y1360D01*
X3380D01*
X2190Y1190D02*
Y1469D01*
X2160Y1499D02*
X2190Y1469D01*
Y1190D02*
X2290Y1090D01*
X2173Y1529D02*
X2220Y1481D01*
Y1203D02*
Y1481D01*
Y1203D02*
X2280Y1143D01*
X2384D01*
X2470D01*
X2780Y1453D01*
Y1730D01*
X620Y1570D02*
X813Y1377D01*
X1816Y1529D02*
X2173D01*
X813Y1377D02*
Y1377D01*
Y1377D02*
X830Y1360D01*
X1646D01*
X1816Y1529D01*
X2660Y570D02*
X2750Y660D01*
X4680Y840D02*
X4750Y910D01*
X3930Y1240D02*
Y1440D01*
X2643Y1920D02*
X2693Y1870D01*
X2480Y1920D02*
X2643D01*
X1730Y2110D02*
X1810Y2030D01*
X2370D01*
X2480Y1920D01*
D99*
X4805Y1700D02*
D03*
Y3300D02*
D03*
D101*
X540Y1290D02*
D03*
X520Y1380D02*
D03*
X590D02*
D03*
X550Y1520D02*
D03*
X4533Y4874D02*
D03*
X2290Y495D02*
D03*
X2340Y540D02*
D03*
X3620Y1418D02*
D03*
X2470Y430D02*
D03*
X2250Y270D02*
D03*
X2200D02*
D03*
X3760Y2640D02*
D03*
X3680D02*
D03*
X1920Y2620D02*
D03*
X1850D02*
D03*
X980Y1770D02*
D03*
X915Y1765D02*
D03*
X1680Y1970D02*
D03*
Y2050D02*
D03*
X3440Y2390D02*
D03*
Y2480D02*
D03*
X1570Y2090D02*
D03*
X1570Y2170D02*
D03*
X4870Y3570D02*
D03*
Y2220D02*
D03*
X4680Y2460D02*
D03*
X4720Y1420D02*
D03*
X4790Y1440D02*
D03*
X4288Y1250D02*
D03*
X4240Y1300D02*
D03*
X4870Y3010D02*
D03*
X4800Y2950D02*
D03*
X4770Y2880D02*
D03*
X4710Y4710D02*
D03*
X4853Y3355D02*
D03*
X4855Y3492D02*
D03*
X4830Y3700D02*
D03*
X2650Y180D02*
D03*
X480Y240D02*
D03*
X3210Y1070D02*
D03*
X3160Y1460D02*
D03*
X3210Y1500D02*
D03*
Y1420D02*
D03*
X3320Y1470D02*
D03*
X3100Y1420D02*
D03*
X3390Y710D02*
D03*
X3330Y780D02*
D03*
X3260Y720D02*
D03*
X320Y510D02*
D03*
X420D02*
D03*
X80Y460D02*
D03*
X2880Y4095D02*
D03*
X2940Y4160D02*
D03*
X1420Y3140D02*
D03*
X1470Y3050D02*
D03*
X1890Y3360D02*
D03*
X4695Y3810D02*
D03*
X4650Y2880D02*
D03*
X4648Y2945D02*
D03*
X4560Y3590D02*
D03*
X4630Y2680D02*
D03*
X4410Y560D02*
D03*
X4460D02*
D03*
X4340Y100D02*
D03*
Y230D02*
D03*
X1990Y1160D02*
D03*
X2130Y1180D02*
D03*
X3830Y1960D02*
D03*
X1580Y994D02*
D03*
X2840Y2730D02*
D03*
X2910Y2730D02*
D03*
X2980Y2730D02*
D03*
X3460Y2975D02*
D03*
X3520Y2950D02*
D03*
X3660Y2920D02*
D03*
X4870Y2290D02*
D03*
X2650Y3800D02*
D03*
X2700Y3820D02*
D03*
X1260Y4860D02*
D03*
X1360Y4550D02*
D03*
X1620Y1930D02*
D03*
X610Y1670D02*
D03*
X1670Y2640D02*
D03*
X1430Y2600D02*
D03*
X1340Y2550D02*
D03*
X4720Y410D02*
D03*
X4750Y910D02*
D03*
X4850Y1440D02*
D03*
X2450Y3690D02*
D03*
X2510Y3580D02*
D03*
X2450Y3620D02*
D03*
X570Y1620D02*
D03*
X2450Y2960D02*
D03*
X2340Y3151D02*
D03*
X2320Y3060D02*
D03*
X2620Y2725D02*
D03*
X2685D02*
D03*
X2750Y2730D02*
D03*
X2060Y2180D02*
D03*
X2390Y2460D02*
D03*
X2390Y2290D02*
D03*
X2390Y2190D02*
D03*
X2330Y2460D02*
D03*
X3450Y1430D02*
D03*
X3510Y1460D02*
D03*
X3340Y1410D02*
D03*
X2750Y1790D02*
D03*
X2780Y1730D02*
D03*
X2620Y1760D02*
D03*
X2750Y1920D02*
D03*
X3020Y1730D02*
D03*
X2600Y1690D02*
D03*
X2840Y2090D02*
D03*
X2830Y880D02*
D03*
X2658Y1662D02*
D03*
X2170Y2400D02*
D03*
X2031Y2459D02*
D03*
X2590Y1830D02*
D03*
X2820Y3150D02*
D03*
X2830Y3080D02*
D03*
X2650Y2936D02*
D03*
X2720Y2940D02*
D03*
X3400Y2980D02*
D03*
X4560Y2390D02*
D03*
Y2320D02*
D03*
X4380Y3590D02*
D03*
X3440Y2710D02*
D03*
X3250Y3130D02*
D03*
X4030Y2930D02*
D03*
X2890Y2140D02*
D03*
X4320Y4030D02*
D03*
X4110Y2930D02*
D03*
X2590Y3840D02*
D03*
X3890Y2625D02*
D03*
X4180Y2850D02*
D03*
X2680Y2490D02*
D03*
X2730Y2430D02*
D03*
X2788Y2392D02*
D03*
X2790Y2330D02*
D03*
Y2260D02*
D03*
X4610Y590D02*
D03*
X3170Y3420D02*
D03*
X1860Y2800D02*
D03*
Y2710D02*
D03*
X1910Y2760D02*
D03*
X1530Y2950D02*
D03*
X2780Y1240D02*
D03*
X2830Y1030D02*
D03*
X2620Y1480D02*
D03*
X2580Y1530D02*
D03*
X2660Y1600D02*
D03*
X2657Y1530D02*
D03*
X2670Y3020D02*
D03*
X3110Y2090D02*
D03*
X3330Y1970D02*
D03*
X560Y340D02*
D03*
X2000Y2180D02*
D03*
X1955Y2720D02*
D03*
X1720Y2910D02*
D03*
Y2970D02*
D03*
X1820Y3070D02*
D03*
X1810Y3175D02*
D03*
X1820Y3350D02*
D03*
X770Y1780D02*
D03*
X720Y1720D02*
D03*
X2577Y770D02*
D03*
X2750Y900D02*
D03*
X2660Y570D02*
D03*
X3670Y2030D02*
D03*
X3380Y1460D02*
D03*
X3560Y1418D02*
D03*
X3880Y1460D02*
D03*
X3740Y1460D02*
D03*
X3690Y1420D02*
D03*
X4120Y2270D02*
D03*
X4240Y2850D02*
D03*
X3820Y2670D02*
D03*
X3870Y2730D02*
D03*
X2790Y2580D02*
D03*
X1350Y1720D02*
D03*
X1930Y2180D02*
D03*
Y2250D02*
D03*
X3600Y2030D02*
D03*
X3860Y1240D02*
D03*
X4220Y610D02*
D03*
Y660D02*
D03*
X3180Y2090D02*
D03*
X2280Y1290D02*
D03*
Y1340D02*
D03*
Y1390D02*
D03*
Y1440D02*
D03*
X2140D02*
D03*
Y1390D02*
D03*
Y1340D02*
D03*
Y1290D02*
D03*
X2390Y1680D02*
D03*
X2340D02*
D03*
X2290D02*
D03*
X2240D02*
D03*
X2160D02*
D03*
X2110D02*
D03*
X2060D02*
D03*
X2010D02*
D03*
X1610Y1460D02*
D03*
Y1700D02*
D03*
Y1510D02*
D03*
X1560D02*
D03*
X1510D02*
D03*
X1460D02*
D03*
X1610Y1650D02*
D03*
X1560D02*
D03*
X1510D02*
D03*
X1460D02*
D03*
X1270Y1050D02*
D03*
X1218Y972D02*
D03*
X840Y1760D02*
D03*
X1480Y3150D02*
D03*
X1310Y3280D02*
D03*
X1520Y3670D02*
D03*
X1550Y3600D02*
D03*
X1610Y3630D02*
D03*
X1290Y3780D02*
D03*
X1645Y3575D02*
D03*
X1660Y3680D02*
D03*
X1270Y3140D02*
D03*
X1480Y2860D02*
D03*
X1647Y3425D02*
D03*
X1200Y3140D02*
D03*
X1030Y3160D02*
D03*
X2190Y3040D02*
D03*
X2205Y2880D02*
D03*
X2170Y3110D02*
D03*
X2280Y3140D02*
D03*
X1870Y3420D02*
D03*
Y3495D02*
D03*
Y3560D02*
D03*
X3000Y4390D02*
D03*
X3340Y4620D02*
D03*
X2255Y3960D02*
D03*
X2305Y4000D02*
D03*
X4660Y4874D02*
D03*
X4787D02*
D03*
X4265Y4670D02*
D03*
X2340Y3380D02*
D03*
X2305Y3770D02*
D03*
X2180Y3480D02*
D03*
X2096Y3565D02*
D03*
X2250Y3480D02*
D03*
X2310Y3485D02*
D03*
X2500Y4000D02*
D03*
X3715Y3570D02*
D03*
X270Y730D02*
D03*
X350D02*
D03*
X1334Y1064D02*
D03*
X510Y1570D02*
D03*
X1160Y1660D02*
D03*
X1320Y3430D02*
D03*
Y3360D02*
D03*
X1710Y4710D02*
D03*
X1640D02*
D03*
X1340Y2450D02*
D03*
X1180Y2600D02*
D03*
Y2400D02*
D03*
Y2525D02*
D03*
X4455Y715D02*
D03*
X1620Y2260D02*
D03*
X1570Y2320D02*
D03*
X1470Y2380D02*
D03*
X1984Y1054D02*
D03*
X3170Y2730D02*
D03*
X1750Y2640D02*
D03*
X2100Y847D02*
D03*
X2200Y790D02*
D03*
X2310Y920D02*
D03*
X2260Y1020D02*
D03*
X3100Y1230D02*
D03*
X4630Y2576D02*
D03*
X4200Y2585D02*
D03*
X4570Y2520D02*
D03*
X4760Y2220D02*
D03*
X2400Y2605D02*
D03*
X2750Y2530D02*
D03*
X2230Y640D02*
D03*
X2040Y2670D02*
D03*
X1980Y2640D02*
D03*
X2032Y2399D02*
D03*
X3740Y1660D02*
D03*
X4065D02*
D03*
X3900D02*
D03*
X4660Y3010D02*
D03*
X4227Y1230D02*
D03*
X4240Y1470D02*
D03*
Y1610D02*
D03*
Y1540D02*
D03*
X3900Y1940D02*
D03*
X4190Y1810D02*
D03*
X4120D02*
D03*
X3930Y1240D02*
D03*
X4000Y1230D02*
D03*
X4630Y1810D02*
D03*
X4710Y2130D02*
D03*
X4640D02*
D03*
X4600Y2080D02*
D03*
X3376Y2730D02*
D03*
X3320Y2630D02*
D03*
X3750Y2330D02*
D03*
X3780Y2390D02*
D03*
X3800Y2480D02*
D03*
X3870Y2410D02*
D03*
X2880Y1420D02*
D03*
Y1490D02*
D03*
X2720Y1700D02*
D03*
X2384Y1143D02*
D03*
X1550Y3980D02*
D03*
X1870Y3220D02*
D03*
X1640Y4380D02*
D03*
X1710D02*
D03*
X1870Y3300D02*
D03*
X4500Y4310D02*
D03*
X2750Y1040D02*
D03*
X3100Y2730D02*
D03*
X4080Y2460D02*
D03*
X2670Y320D02*
D03*
X1730Y2110D02*
D03*
X3532Y1652D02*
D03*
X3600Y1650D02*
D03*
X3670Y1660D02*
D03*
X3810Y1463D02*
D03*
X3840Y1660D02*
D03*
X1630Y390D02*
D03*
X1830Y430D02*
D03*
Y380D02*
D03*
X517Y1230D02*
D03*
D182*
X3095Y1545D02*
X3245D01*
X3320Y1470D01*
X577Y1570D02*
X818Y1329D01*
X650Y1583D02*
X843Y1390D01*
X650Y1583D02*
Y1630D01*
X610Y1670D02*
X650Y1630D01*
X510Y1570D02*
X577D01*
X2460Y1560D02*
X2590Y1430D01*
X2670D01*
X1510Y1780D02*
X2370D01*
X1390Y1660D02*
X1510Y1780D01*
X1160Y1660D02*
X1390D01*
X840Y1760D02*
X1010Y1590D01*
X2586D01*
X2658Y1662D01*
X2720Y1480D02*
Y1700D01*
X2670Y1430D02*
X2720Y1480D01*
X843Y1390D02*
X1634D01*
X1803Y1560D01*
X2460D01*
X1659Y1329D02*
X1829Y1499D01*
X2160D01*
X818Y1329D02*
X1659D01*
X2800Y1840D02*
X3095Y1545D01*
X2680Y1840D02*
X2800D01*
X2630Y1890D02*
X2680Y1840D01*
X2370Y1780D02*
X2480Y1890D01*
X2630D01*
D183*
X2840Y2640D02*
Y2730D01*
Y2640D02*
X2960Y2520D01*
Y2320D02*
Y2520D01*
X2700Y1920D02*
X2750D01*
X2650Y1970D02*
X2700Y1920D01*
X2500Y1970D02*
X2650D01*
X2390Y2080D02*
X2500Y1970D01*
X1850Y2080D02*
X2390D01*
X1760Y2170D02*
X1850Y2080D01*
X1760Y2170D02*
Y2270D01*
X990Y2100D02*
X1070Y2180D01*
X990Y1900D02*
Y2100D01*
X930Y1840D02*
X990Y1900D01*
X270Y1410D02*
X320D01*
X440Y1530D01*
Y1580D01*
X700Y1840D01*
X930D01*
X1543Y2373D02*
X1657D01*
X1760Y2270D01*
X1070Y2180D02*
X1400D01*
X1450Y2230D01*
Y2280D01*
X1543Y2373D01*
D184*
X4645Y3860D02*
X4695Y3810D01*
X3410Y3860D02*
X4645D01*
X3170Y4100D02*
X3410Y3860D01*
X3170Y4100D02*
Y4510D01*
X2700Y4280D02*
Y4330D01*
X2570Y4150D02*
X2700Y4280D01*
X2570Y3940D02*
Y4150D01*
X2650Y3610D02*
X2820Y3440D01*
X2650Y3610D02*
Y3800D01*
X2670Y3820D01*
X2700D01*
X2250Y3370D02*
X2500Y3120D01*
X2250Y3370D02*
Y3480D01*
D189*
X2700Y4280D02*
X2920D01*
X3040Y3440D02*
X3100Y3500D01*
X2820Y3440D02*
X3040D01*
X2680Y2100D02*
X2740D01*
X3370Y3440D02*
X3550D01*
X3590Y2320D02*
Y2980D01*
X3550Y3020D02*
X3590Y2980D01*
X3550Y3020D02*
Y3060D01*
X1466Y1140D02*
X1533Y1073D01*
X2740Y2100D02*
X2960Y2320D01*
X3470D01*
X3590D01*
X3720Y2190D02*
X3880D01*
X3590Y2320D02*
X3720Y2190D01*
X3550Y3440D02*
X4510D01*
X3550Y3060D02*
Y3440D01*
X4510D02*
X4580Y3370D01*
X2500Y3120D02*
X2820Y3440D01*
X2340Y2960D02*
X2500Y3120D01*
X2300Y2960D02*
X2340D01*
X1830D02*
X2300D01*
Y2810D02*
Y2960D01*
X3100Y3500D02*
X3160D01*
X1310Y3280D02*
X1510D01*
X1830Y2960D01*
X3020Y3790D02*
X3370Y3440D01*
X3020Y3790D02*
Y4180D01*
X2920Y4280D02*
X3020Y4180D01*
X420Y1220D02*
X500Y1140D01*
X1466D01*
D194*
X170Y4120D02*
D03*
X170Y3920D02*
D03*
X170Y3720D02*
D03*
Y3520D02*
D03*
Y4320D02*
D03*
D195*
X1186Y2932D02*
D03*
Y2068D02*
D03*
D196*
X700Y2962D02*
D03*
D197*
X670Y2038D02*
D03*
D198*
X4925Y1002D02*
D03*
Y1198D02*
D03*
D199*
X4870Y750D02*
D03*
D200*
X1406Y1010D02*
D03*
X1914Y908D02*
D03*
Y1112D02*
D03*
X4914Y4810D02*
D03*
X4406Y4912D02*
D03*
Y4708D02*
D03*
X4790Y3614D02*
D03*
X4688Y3106D02*
D03*
X4892D02*
D03*
X3254Y3840D02*
D03*
X2746Y3942D02*
D03*
Y3738D02*
D03*
D201*
X80Y1510D02*
D03*
X100Y1690D02*
D03*
X270D02*
D03*
X4890Y4710D02*
D03*
X4870Y310D02*
D03*
Y1070D02*
D03*
X4830Y1110D02*
D03*
X4840Y450D02*
D03*
X4846Y588D02*
D03*
X3330Y1070D02*
D03*
X3340Y2040D02*
D03*
X850Y1530D02*
D03*
X1000Y1450D02*
D03*
X860D02*
D03*
X2880Y3690D02*
D03*
X3900Y1013D02*
D03*
X4440Y390D02*
D03*
Y440D02*
D03*
X1533Y1073D02*
D03*
X4040Y3200D02*
D03*
X4000Y3240D02*
D03*
X4100Y3200D02*
D03*
X4090Y3350D02*
D03*
X4630Y3310D02*
D03*
X4580D02*
D03*
X4630Y3370D02*
D03*
X4580D02*
D03*
X4270Y4760D02*
D03*
X2590Y1040D02*
D03*
X4650Y2240D02*
D03*
X4565Y1625D02*
D03*
X4000Y1410D02*
D03*
X3590Y4450D02*
D03*
Y4250D02*
D03*
Y4530D02*
D03*
Y4350D02*
D03*
Y4160D02*
D03*
X2190Y4000D02*
D03*
X1230Y3830D02*
D03*
X1200Y3220D02*
D03*
X1280Y3590D02*
D03*
X2930Y4400D02*
D03*
X3170Y4510D02*
D03*
X3075Y4400D02*
D03*
X4320Y4760D02*
D03*
X4787Y4747D02*
D03*
X4600Y950D02*
D03*
X4330Y980D02*
D03*
X4600Y900D02*
D03*
X4280Y980D02*
D03*
X4270Y1100D02*
D03*
Y1050D02*
D03*
X4565Y1555D02*
D03*
X4790Y1030D02*
D03*
X4830Y990D02*
D03*
X1250Y4690D02*
D03*
X2530Y3440D02*
D03*
X2569Y3481D02*
D03*
X2700Y4040D02*
D03*
Y4280D02*
D03*
Y4330D02*
D03*
X2873Y3776D02*
D03*
X3845Y3335D02*
D03*
X3790D02*
D03*
X3900D02*
D03*
X4260Y3590D02*
D03*
X4310Y3590D02*
D03*
X1270Y1480D02*
D03*
X2530Y1350D02*
D03*
X2480D02*
D03*
Y1300D02*
D03*
X2530D02*
D03*
X2260Y720D02*
D03*
X2210D02*
D03*
X2250Y2660D02*
D03*
Y2610D02*
D03*
X4050Y1410D02*
D03*
X3880Y2190D02*
D03*
X2570Y1110D02*
D03*
X1250Y4450D02*
D03*
X1251Y4071D02*
D03*
X1787Y1073D02*
D03*
X2680Y1040D02*
D03*
X4210Y4920D02*
D03*
X4310D02*
D03*
X4660Y80D02*
D03*
X4440D02*
D03*
X4560D02*
D03*
X3990Y590D02*
D03*
X3830D02*
D03*
X3670D02*
D03*
X3510D02*
D03*
X3350D02*
D03*
X3190D02*
D03*
X170Y340D02*
D03*
X110D02*
D03*
X90Y4220D02*
D03*
Y4430D02*
D03*
X110Y4610D02*
D03*
X190Y4770D02*
D03*
X337Y4875D02*
D03*
X500Y4910D02*
D03*
X660D02*
D03*
X800D02*
D03*
X230Y4610D02*
D03*
X4100Y2530D02*
D03*
X1570Y350D02*
D03*
X560Y960D02*
D03*
X100Y1300D02*
D03*
X420Y1220D02*
D03*
X440Y1370D02*
D03*
X270Y1410D02*
D03*
X100Y1120D02*
D03*
D202*
X4640Y260D02*
D03*
X4690Y310D02*
D03*
X4590D02*
D03*
Y210D02*
D03*
X4690D02*
D03*
X4760Y120D02*
D03*
X410Y100D02*
D03*
X160Y270D02*
D03*
X2840Y3990D02*
D03*
X2880Y3520D02*
D03*
X1880Y3130D02*
D03*
X3110Y3320D02*
D03*
X3050D02*
D03*
X4230Y730D02*
D03*
X4590Y3030D02*
D03*
Y3090D02*
D03*
Y3150D02*
D03*
X1980Y1250D02*
D03*
Y1310D02*
D03*
Y1370D02*
D03*
X1920D02*
D03*
Y1310D02*
D03*
Y1250D02*
D03*
X2740Y2100D02*
D03*
X2680D02*
D03*
X3550Y3060D02*
D03*
X3460D02*
D03*
X3920Y2950D02*
D03*
X2570Y3940D02*
D03*
X1370Y130D02*
D03*
Y190D02*
D03*
X1220Y130D02*
D03*
X1370Y250D02*
D03*
X1220Y190D02*
D03*
Y250D02*
D03*
X1610Y4790D02*
D03*
X720Y3130D02*
D03*
X780D02*
D03*
X3380Y4360D02*
D03*
X3320D02*
D03*
X3380Y4300D02*
D03*
X3320D02*
D03*
X1780Y2710D02*
D03*
X1070Y1820D02*
D03*
X1870Y1280D02*
D03*
X3450Y3250D02*
D03*
Y3190D02*
D03*
X3230Y3060D02*
D03*
X2650Y970D02*
D03*
X3470Y2320D02*
D03*
X3650Y990D02*
D03*
X560Y500D02*
D03*
X1410Y350D02*
D03*
Y410D02*
D03*
X1580Y500D02*
D03*
X1520D02*
D03*
X3160Y3500D02*
D03*
X3100D02*
D03*
X3660Y4020D02*
D03*
X4120Y4210D02*
D03*
X4050D02*
D03*
X4100Y4300D02*
D03*
X3980Y4350D02*
D03*
X3760D02*
D03*
X3750Y4250D02*
D03*
X3860Y4350D02*
D03*
X3980Y4250D02*
D03*
X4190Y4210D02*
D03*
X3940Y4120D02*
D03*
Y4060D02*
D03*
Y4000D02*
D03*
X3780Y4120D02*
D03*
Y4060D02*
D03*
Y4000D02*
D03*
Y3940D02*
D03*
X3940D02*
D03*
X3380Y4120D02*
D03*
X3320D02*
D03*
X3380Y4180D02*
D03*
X3320D02*
D03*
X3380Y4240D02*
D03*
X3320D02*
D03*
X780Y3270D02*
D03*
Y3200D02*
D03*
X720D02*
D03*
X660D02*
D03*
Y3130D02*
D03*
X600D02*
D03*
Y3200D02*
D03*
X3590Y4830D02*
D03*
Y4770D02*
D03*
Y4710D02*
D03*
X3810Y4660D02*
D03*
X3870D02*
D03*
X3810Y4600D02*
D03*
X3870D02*
D03*
Y4540D02*
D03*
X3810D02*
D03*
Y4480D02*
D03*
X3870D02*
D03*
X3960D02*
D03*
Y4540D02*
D03*
X4110Y4590D02*
D03*
Y4650D02*
D03*
X4020Y4480D02*
D03*
X4050Y4590D02*
D03*
Y4650D02*
D03*
X3990D02*
D03*
X4020Y4540D02*
D03*
X3990Y4590D02*
D03*
X4030Y790D02*
D03*
Y910D02*
D03*
Y850D02*
D03*
X1248Y3447D02*
D03*
Y3510D02*
D03*
X560Y4370D02*
D03*
X800D02*
D03*
X740D02*
D03*
X680D02*
D03*
X620D02*
D03*
X1250Y3920D02*
D03*
Y3980D02*
D03*
X560Y4500D02*
D03*
X620D02*
D03*
X560Y3940D02*
D03*
X620D02*
D03*
X690Y3810D02*
D03*
X750D02*
D03*
X810D02*
D03*
X870D02*
D03*
X930D02*
D03*
X680Y4500D02*
D03*
X860Y4370D02*
D03*
X680Y3940D02*
D03*
X770D02*
D03*
X3920Y3780D02*
D03*
Y3720D02*
D03*
X4195Y4075D02*
D03*
Y4005D02*
D03*
X3630Y3540D02*
D03*
Y3600D02*
D03*
X1040Y1040D02*
D03*
X1100D02*
D03*
X750Y220D02*
D03*
Y160D02*
D03*
X650D02*
D03*
Y220D02*
D03*
X820Y710D02*
D03*
Y650D02*
D03*
X880D02*
D03*
Y590D02*
D03*
X820D02*
D03*
Y770D02*
D03*
X960Y800D02*
D03*
Y740D02*
D03*
X1190Y1880D02*
D03*
Y1940D02*
D03*
Y1820D02*
D03*
X1130D02*
D03*
Y1880D02*
D03*
Y1940D02*
D03*
X1070Y1980D02*
D03*
X1004Y2685D02*
D03*
Y2625D02*
D03*
Y2315D02*
D03*
Y2375D02*
D03*
X945Y2625D02*
D03*
Y2375D02*
D03*
X1360Y2320D02*
D03*
Y2260D02*
D03*
Y2740D02*
D03*
Y2680D02*
D03*
X1180Y2680D02*
D03*
Y2320D02*
D03*
X3690Y760D02*
D03*
X3630D02*
D03*
X3570D02*
D03*
X2130Y1960D02*
D03*
Y1900D02*
D03*
X1890Y1890D02*
D03*
X1830Y1930D02*
D03*
X1720Y1860D02*
D03*
X1790Y1880D02*
D03*
X1890Y1960D02*
D03*
X2630Y1100D02*
D03*
X2200Y4110D02*
D03*
X3230Y1230D02*
D03*
X2300Y2810D02*
D03*
X3790Y1890D02*
D03*
X3850D02*
D03*
X3700Y2450D02*
D03*
Y2390D02*
D03*
X1250Y4610D02*
D03*
X1250Y4540D02*
D03*
X1710Y4030D02*
D03*
X1650D02*
D03*
X1710Y4090D02*
D03*
Y4150D02*
D03*
X1650Y4090D02*
D03*
Y4150D02*
D03*
Y4210D02*
D03*
X1590D02*
D03*
Y4150D02*
D03*
Y4270D02*
D03*
X1710Y3970D02*
D03*
X600Y2840D02*
D03*
Y2590D02*
D03*
Y2340D02*
D03*
Y2180D02*
D03*
X590Y1910D02*
D03*
X2790Y100D02*
D03*
Y250D02*
D03*
X2620Y90D02*
D03*
X2570Y4910D02*
D03*
X3130D02*
D03*
X2850D02*
D03*
X2280D02*
D03*
X2500Y4420D02*
D03*
X2280Y4630D02*
D03*
X3340Y3660D02*
D03*
X3590Y3780D02*
D03*
X4080Y3590D02*
D03*
X4490Y3970D02*
D03*
Y4090D02*
D03*
X4860Y4200D02*
D03*
X4233Y2130D02*
D03*
X4495Y1280D02*
D03*
Y1170D02*
D03*
X4605Y1280D02*
D03*
Y1170D02*
D03*
X4240Y4440D02*
D03*
X4190Y4490D02*
D03*
Y4390D02*
D03*
X4290Y4490D02*
D03*
Y4390D02*
D03*
X4210Y3020D02*
D03*
M02*
