M48
;Layer_Color=9474304
;FILE_FORMAT=4:2
METRIC,LZ
;TYPE=PLATED
T1F00S00C0.20
T2F00S00C0.25
T3F00S00C0.30
T5F00S00C0.90
;TYPE=NON_PLATED
T6F00S00C0.35
T7F00S00C0.40
T8F00S00C0.90
T9F00S00C0.99
%
T01
X00008Y00046
X00032Y00051
X00042
X00035Y00073
X00027
X00056Y00034
X00048Y00024
X000517Y00123
X00054Y00129
X00052Y00138
X00059
X00055Y00152
X00051Y00157
X00057Y00162
X00061Y00167
X00072Y00172
X00077Y00178
X00084Y00176
X000915Y001765
X00098Y00177
X00116Y00166
X00135Y00172
X00146Y00165
Y00151
X001334Y001064
X00127Y00105
X001218Y000972
X00118Y0024
Y002525
Y0026
X00134Y00255
X00134Y00245
X00147Y00238
X00143Y0026
X00147Y00305
X00142Y00314
X00127
X0012
X00103Y00316
X00131Y00328
X00132Y00336
Y00343
X001647Y003425
X00187Y00342
Y003495
X00189Y00336
X00187Y0033
Y00322
X00181Y003175
X00182Y00307
X00172Y00297
Y00291
X00153Y00295
X00148Y00286
X00148Y00315
X00182Y00335
X00218Y00348
X00225
X00231Y003485
X00234Y00338
X00234Y003151
X00228Y00314
X00232Y00306
X00219Y00304
X00217Y00311
X002205Y00288
X00245Y00296
X00265Y002936
X00272Y00294
X00267Y00302
X00283Y00308
X00282Y00315
X00284Y00273
X00291Y00273
X00298Y00273
X0031Y00273
X00317Y00273
X003376
X00344Y00271
X00332Y00263
X00344Y00248
Y00239
X00378Y00239
X00375Y00233
X00387Y00241
X0038Y00248
X00376Y00264
X00368
X00382Y00267
X00387Y00273
X00389Y002625
X0042Y002585
X00408Y00246
X00412Y00227
Y00181
X00419
X00424Y00161
Y00154
Y00147
X00424Y0013
X004227Y00123
X004288Y00125
X004Y00123
X00393Y00124
X00386Y00124
X00388Y00146
X00381Y001463
X00374Y00146
X00369Y00142
X00362Y001418
X00356Y001418
X00351Y00146
X00345Y00143
X00338Y00146
X00332Y00147
X00334Y00141
X00321Y00142
Y0015
X00316Y00146
X0031Y00142
X0031Y00123
X00321Y00107
X00326Y00072
X00333Y00078
X00339Y00071
X00283Y00088
X00275Y0009
Y00104
X00283Y00103
X00278Y00124
X00288Y00142
Y00149
X002657Y00153
X00266Y0016
X002658Y001662
X0026Y00169
X00262Y00176
X00259Y00183
X00275Y00179
X00278Y00173
X00272Y0017
X00275Y00192
X00284Y00209
X00289Y00214
X00279Y00226
Y00233
X002788Y002392
X00273Y00243
X00268Y00249
X00275Y00253
X00279Y00258
X00275Y00273
X002685Y002725
X00262
X0024Y002605
X00239Y00246
X00233
X00217Y0024
X002032Y002399
X002031Y002459
X00204Y00267
X00198Y00264
X00192Y00262
X00185
X00186Y00271
Y0028
X00191Y00276
X001955Y00272
X00175Y00264
X00167
X00157Y00232
X00162Y00226
X00157Y00217
X00157Y00209
X00168Y00205
Y00197
X00162Y00193
X00161Y0017
Y00165
X00156
X00151
Y00151
X00156
X00161
Y00146
X00158Y000994
X001984Y001054
X00199Y00116
X00213Y00118
X00214Y00129
Y00134
Y00139
Y00144
X00228
Y00139
Y00134
Y00129
X002384Y001143
X00226Y00102
X00231Y00092
X0022Y00079
X0021Y000847
X00223Y00064
X00229Y000495
X00234Y00054
X00247Y00043
X00267Y00032
X00265Y00018
X00266Y00057
X002577Y00077
X00262Y00148
X00258Y00153
X00239Y00168
X00234
X00229
X00224
X00216
X00211
X00206
X00201
X002Y00218
X00206
X00193
Y00225
X00173Y00211
X00239Y00219
X00239Y00229
X00311Y00209
X00318
X00333Y00197
X0036Y00203
X00367
X00383Y00196
X0039Y00194
Y00166
X00384Y00166
X00374Y00166
X00367
X0036Y00165
X003532Y001652
X004065Y00166
X00463Y00181
X0046Y00208
X00464Y00213
X00471
X00476Y00222
X00487
Y00229
X00456Y00232
Y00239
X00457Y00252
X00463Y002576
X00463Y00268
X00465Y00288
X004648Y002945
X00466Y00301
X0048Y00295
X00477Y00288
X00487Y00301
X004853Y003355
X004855Y003492
X00468Y00246
X00424Y00285
X00418
X00411Y00293
X00403Y00293
X00366Y00292
X00352Y00295
X00346Y002975
X0034Y00298
X00325Y00313
X00317Y00342
X00302Y00173
X00472Y00142
X00479Y00144
X00485
X00475Y00091
X00461Y00059
X00446Y00056
X00441
X004455Y000715
X00422Y00066
Y00061
X00434Y00023
Y0001
X00472Y00041
X00225Y00027
X0022
X00183Y00038
Y00043
X00163Y00039
X001645Y003575
X00161Y00363
X00155Y0036
X00152Y00367
X00166Y00368
X00187Y00356
X002096Y003565
X00245Y00362
Y00369
X00251Y00358
X00259Y00384
X00265Y0038
X0027Y00382
X0025Y004
X002305
X002255Y00396
X002305Y00377
X00288Y004095
X00294Y00416
X003Y00439
X00334Y00462
X004265Y00467
X004533Y004874
X00466
X004787
X00471Y00471
X0045Y00431
X00432Y00403
X00438Y00359
X00456
X00487Y00357
X00483Y0037
X004695Y00381
X003715Y00357
X00155Y00398
X00164Y00438
X00171
X00171Y00471
X00164
X00136Y00455
X00126Y00486
X00129Y00378
T02
X00011Y00034
X00017
X0001Y00112
Y0013
X00008Y00151
X0001Y00169
X00027
Y00141
X00044Y00137
X00042Y00122
X00056Y00096
X00086Y00145
X00085Y00153
X001Y00145
X00127Y00148
X0012Y00322
X00253Y00344
X002569Y003481
X00225Y00266
Y00261
X00248Y00135
X00253
Y0013
X00248
X00257Y00111
X00259Y00104
X00268Y00104
X00333Y00107
X00335Y00059
X00319
X00351
X00367
X00383
X00399
X0039Y001013
X00427Y00105
Y0011
X00428Y00098
X00433
X0046Y00095
Y0009
X00479Y00103
X00483Y00099
X00487Y00107
X00483Y00111
X004846Y000588
X00484Y00045
X00487Y00031
X00466Y00008
X00456
X00444
Y00039
Y00044
X004565Y001555
Y001625
X00465Y00224
X00388Y00219
X0041Y00253
Y0032
X00404
X004Y00324
X0039Y003335
X003845
X00379
X00409Y00335
X00458Y00337
X00463
Y00331
X00458
X00405Y00141
X004
X00334Y00204
X00226Y00072
X00221
X001787Y001073
X001533
X00157Y00035
X00219Y004
X0027Y00404
Y00428
Y00433
X00293Y0044
X003075Y0044
X00317Y00451
X00359Y00453
Y00445
Y00435
Y00425
Y00416
X002873Y003776
X00288Y00369
X00426Y00359
X00431Y00359
X00432Y00476
X00427
X00431Y00492
X00421
X004787Y004747
X00489Y00471
X00125Y00469
X00125Y00445
X001251Y004071
X00123Y00383
X00128Y00359
X0008Y00491
X00066
X0005
X000337Y004875
X00019Y00477
X00023Y00461
X00011
X00009Y00443
Y00422
T03
X00016Y00027
X00041Y0001
X00065Y00016
Y00022
X00075
Y00016
X00122Y00013
Y00019
Y00025
X00137
Y00019
Y00013
X00141Y00035
Y00041
X00088Y00059
Y00065
X00082
Y00059
Y00071
Y00077
X00096Y0008
Y00074
X00104Y00104
X0011
X00113Y00182
X00119
Y00188
Y00194
X00113
Y00188
X00107Y00182
Y00198
X001004Y002315
Y002375
X000945
Y002625
X001004
Y002685
X00118Y00268
X00136Y00268
Y00274
Y00232
Y00226
X00118Y00232
X0006Y00234
Y00218
X00059Y00191
X0006Y00259
Y00284
Y00313
X00066
X00072
X00078
Y0032
X00072
X00066
X0006
X00078Y00327
X001248Y003447
X00056Y0005
X00152
X00158
X00187Y00128
X00192Y00131
Y00125
X00198
Y00131
Y00137
X00192
X00189Y00189
Y00196
X00183Y00193
X00179Y00188
X00172Y00186
X00213Y0019
Y00196
X00268Y0021
X00274
X00347Y00232
X0037Y00239
Y00245
X00379Y00189
X00385
X004233Y00213
X00421Y00302
X00392Y00295
X00355Y00306
X00346
X00345Y00319
Y00325
X00311Y00332
X00305
X0031Y0035
X00316
X00323Y00306
X0023Y00281
X00178Y00271
X00188Y00313
X00459Y00315
Y00309
Y00303
X004605Y00128
X004495
Y00117
X004605
X00423Y00073
X00403Y00079
Y00085
Y00091
X00365Y00099
X00363Y00076
X00369
X00357
X00323Y00123
X00263Y0011
X00265Y00097
X00279Y00025
Y0001
X00262Y00009
X00459Y00021
X00464Y00026
X00469Y00031
X00459
X00469Y00021
X00476Y00012
X00449Y00397
Y00409
X004195Y004075
Y004005
X00419Y00421
X00412
X00405
X00398Y00425
Y00435
X00386
X00376
X00375Y00425
X00378Y00412
Y00406
Y004
Y00394
X00394
Y004
Y00406
Y00412
X0041Y0043
X00419Y00439
X00424Y00444
X00419Y00449
X00429
Y00439
X00402Y00448
X00396
Y00454
X00402
X00405Y00459
X00411
Y00465
X00405
X00399
Y00459
X00387Y0046
X00381
Y00454
X00387
Y00448
X00381
Y00466
X00387
X00359Y00471
Y00477
Y00483
X00313Y00491
X00285
X00257
X00228
Y00463
X0025Y00442
X00257Y00394
X00284Y00399
X00288Y00352
X00334Y00366
X00363Y0036
Y00354
X00359Y00378
X00366Y00402
X00338Y00412
X00332
Y00418
Y00424
Y0043
Y00436
X00338
Y0043
Y00424
Y00418
X00392Y00378
Y00372
X00408Y00359
X00486Y0042
X0022Y00411
X00171Y00409
Y00403
X00165
Y00409
Y00415
X00171
X00165Y00421
X00159
Y00415
Y00427
X00171Y00397
X00161Y00479
X00125Y00461
X00125Y00454
Y00398
Y00392
X001248Y00351
X00093Y00381
X00087
X00081
X00075
X00069
X00068Y00394
X00062
X00056
X00077
X0008Y00437
X00074
X00068
X00062
X00056
Y0045
X00062
X00068
X00086Y00437
T05
X00017Y00352
Y00372
X00017Y00392
X00017Y00412
Y00432
T06
X00487Y00075
T07
X004805Y0017
Y0033
T08
X004925Y001002
Y001198
T09
X001406Y00101
X001914Y000908
Y001112
X004688Y003106
X004892
X00479Y003614
X004914Y00481
X004406Y004912
Y004708
X003254Y00384
X002746Y003942
Y003738
M30
