G04*
G04 #@! TF.GenerationSoftware,Altium Limited,Altium Designer,20.0.13 (296)*
G04*
G04 Layer_Color=32896*
%FSLAX42Y42*%
%MOMM*%
G71*
G01*
G75*
%ADD10C,0.20*%
%ADD11C,0.10*%
%ADD12C,0.15*%
%ADD13C,0.15*%
%ADD14C,0.13*%
%ADD182C,0.15*%
%ADD183C,0.30*%
%ADD186C,0.25*%
G36*
X14171Y1468D02*
X14174Y1468D01*
X14178Y1467D01*
X14181Y1466D01*
X14183Y1465D01*
X14185Y1464D01*
X14187Y1464D01*
X14187Y1463D01*
X14190Y1461D01*
X14193Y1459D01*
X14196Y1457D01*
X14198Y1454D01*
X14199Y1453D01*
X14201Y1451D01*
X14201Y1450D01*
X14202Y1449D01*
Y1466D01*
X14219D01*
Y1350D01*
X14199D01*
Y1410D01*
X14199Y1416D01*
X14199Y1421D01*
X14199Y1425D01*
X14198Y1428D01*
X14197Y1431D01*
X14197Y1433D01*
X14196Y1434D01*
X14196Y1434D01*
X14195Y1437D01*
X14193Y1440D01*
X14192Y1442D01*
X14190Y1444D01*
X14188Y1445D01*
X14187Y1446D01*
X14186Y1447D01*
X14186Y1447D01*
X14183Y1449D01*
X14181Y1450D01*
X14178Y1450D01*
X14176Y1451D01*
X14174Y1451D01*
X14172Y1452D01*
X14171D01*
X14167Y1451D01*
X14164Y1451D01*
X14161Y1449D01*
X14159Y1448D01*
X14157Y1447D01*
X14156Y1446D01*
X14155Y1445D01*
X14155Y1445D01*
X14153Y1442D01*
X14152Y1439D01*
X14151Y1436D01*
X14151Y1433D01*
X14150Y1430D01*
X14150Y1427D01*
Y1426D01*
Y1426D01*
Y1425D01*
Y1425D01*
Y1350D01*
X14131D01*
Y1417D01*
X14130Y1424D01*
X14129Y1429D01*
X14128Y1433D01*
X14126Y1437D01*
X14125Y1440D01*
X14124Y1442D01*
X14123Y1443D01*
X14122Y1443D01*
X14119Y1446D01*
X14116Y1448D01*
X14112Y1449D01*
X14109Y1451D01*
X14106Y1451D01*
X14104Y1451D01*
X14103Y1452D01*
X14102D01*
X14099Y1451D01*
X14097Y1451D01*
X14095Y1451D01*
X14093Y1450D01*
X14092Y1449D01*
X14091Y1449D01*
X14090Y1449D01*
X14090Y1448D01*
X14088Y1447D01*
X14087Y1446D01*
X14086Y1444D01*
X14085Y1443D01*
X14084Y1442D01*
X14084Y1441D01*
X14083Y1440D01*
Y1440D01*
X14082Y1438D01*
X14082Y1435D01*
X14082Y1432D01*
X14081Y1429D01*
X14081Y1427D01*
Y1425D01*
Y1423D01*
Y1423D01*
Y1423D01*
Y1350D01*
X14062D01*
Y1430D01*
Y1433D01*
X14062Y1437D01*
X14062Y1440D01*
X14063Y1443D01*
X14064Y1445D01*
X14065Y1448D01*
X14065Y1450D01*
X14066Y1452D01*
X14067Y1453D01*
X14068Y1455D01*
X14069Y1457D01*
X14070Y1459D01*
X14071Y1459D01*
X14075Y1462D01*
X14079Y1465D01*
X14083Y1466D01*
X14087Y1468D01*
X14091Y1468D01*
X14093Y1468D01*
X14095D01*
X14096Y1469D01*
X14097D01*
X14102Y1468D01*
X14105Y1468D01*
X14109Y1467D01*
X14112Y1465D01*
X14116Y1464D01*
X14119Y1462D01*
X14121Y1460D01*
X14124Y1459D01*
X14126Y1456D01*
X14128Y1455D01*
X14130Y1453D01*
X14131Y1451D01*
X14132Y1450D01*
X14133Y1449D01*
X14133Y1448D01*
X14134Y1448D01*
X14135Y1452D01*
X14137Y1455D01*
X14139Y1457D01*
X14141Y1459D01*
X14143Y1461D01*
X14144Y1462D01*
X14145Y1463D01*
X14145Y1463D01*
X14149Y1465D01*
X14152Y1466D01*
X14155Y1467D01*
X14159Y1468D01*
X14162Y1468D01*
X14164Y1469D01*
X14166D01*
X14171Y1468D01*
D02*
G37*
G36*
X13392D02*
X13397Y1468D01*
X13401Y1467D01*
X13405Y1467D01*
X13408Y1466D01*
X13411Y1465D01*
X13412Y1465D01*
X13412Y1465D01*
X13412Y1465D01*
X13413D01*
X13417Y1463D01*
X13420Y1461D01*
X13423Y1459D01*
X13426Y1457D01*
X13428Y1455D01*
X13429Y1454D01*
X13430Y1453D01*
X13430Y1453D01*
X13432Y1450D01*
X13434Y1446D01*
X13435Y1443D01*
X13437Y1440D01*
X13437Y1437D01*
X13438Y1435D01*
X13438Y1434D01*
Y1434D01*
X13439Y1433D01*
Y1433D01*
X13419Y1431D01*
X13418Y1435D01*
X13417Y1438D01*
X13415Y1441D01*
X13414Y1444D01*
X13412Y1446D01*
X13411Y1447D01*
X13410Y1447D01*
X13410Y1448D01*
X13407Y1449D01*
X13404Y1450D01*
X13400Y1451D01*
X13397Y1452D01*
X13394Y1452D01*
X13392Y1453D01*
X13389D01*
X13384Y1452D01*
X13379Y1452D01*
X13376Y1450D01*
X13372Y1449D01*
X13370Y1448D01*
X13368Y1447D01*
X13367Y1446D01*
X13367Y1446D01*
X13365Y1444D01*
X13364Y1441D01*
X13363Y1438D01*
X13362Y1436D01*
X13361Y1433D01*
X13361Y1431D01*
Y1429D01*
Y1429D01*
Y1429D01*
Y1428D01*
Y1428D01*
Y1426D01*
X13361Y1425D01*
Y1424D01*
Y1424D01*
X13364Y1423D01*
X13366Y1422D01*
X13372Y1421D01*
X13378Y1420D01*
X13383Y1419D01*
X13386Y1418D01*
X13388Y1418D01*
X13391Y1418D01*
X13393Y1417D01*
X13394Y1417D01*
X13395D01*
X13396Y1417D01*
X13397D01*
X13401Y1416D01*
X13404Y1416D01*
X13407Y1415D01*
X13409Y1415D01*
X13411Y1415D01*
X13413Y1414D01*
X13414Y1414D01*
X13414D01*
X13417Y1413D01*
X13419Y1412D01*
X13422Y1411D01*
X13424Y1410D01*
X13426Y1409D01*
X13427Y1408D01*
X13428Y1408D01*
X13428Y1407D01*
X13431Y1406D01*
X13432Y1404D01*
X13434Y1402D01*
X13436Y1400D01*
X13437Y1399D01*
X13438Y1397D01*
X13438Y1396D01*
X13438Y1396D01*
X13440Y1394D01*
X13440Y1391D01*
X13441Y1388D01*
X13442Y1386D01*
X13442Y1384D01*
X13442Y1382D01*
Y1381D01*
Y1381D01*
X13442Y1378D01*
X13442Y1375D01*
X13440Y1371D01*
X13439Y1367D01*
X13437Y1363D01*
X13435Y1360D01*
X13434Y1358D01*
X13432Y1357D01*
X13432Y1357D01*
X13428Y1354D01*
X13423Y1351D01*
X13418Y1350D01*
X13413Y1349D01*
X13409Y1348D01*
X13407Y1348D01*
X13406D01*
X13404Y1347D01*
X13403D01*
X13398Y1348D01*
X13394Y1348D01*
X13391Y1349D01*
X13387Y1349D01*
X13385Y1350D01*
X13383Y1351D01*
X13381Y1351D01*
X13381Y1351D01*
X13377Y1353D01*
X13373Y1355D01*
X13370Y1357D01*
X13366Y1359D01*
X13363Y1361D01*
X13361Y1363D01*
X13360Y1364D01*
X13360Y1365D01*
X13360D01*
X13359Y1362D01*
X13359Y1359D01*
X13358Y1356D01*
X13357Y1354D01*
X13357Y1352D01*
X13356Y1351D01*
X13356Y1350D01*
X13356Y1350D01*
X13335D01*
X13336Y1353D01*
X13338Y1355D01*
X13338Y1357D01*
X13339Y1359D01*
X13340Y1361D01*
X13340Y1363D01*
X13340Y1364D01*
Y1364D01*
X13340Y1366D01*
X13341Y1368D01*
Y1370D01*
X13341Y1372D01*
X13341Y1378D01*
Y1384D01*
X13341Y1390D01*
Y1392D01*
Y1394D01*
Y1396D01*
Y1397D01*
Y1398D01*
Y1399D01*
Y1425D01*
Y1429D01*
X13341Y1433D01*
X13342Y1436D01*
Y1439D01*
X13342Y1441D01*
X13342Y1442D01*
X13342Y1443D01*
Y1443D01*
X13343Y1446D01*
X13344Y1449D01*
X13345Y1451D01*
X13346Y1453D01*
X13347Y1454D01*
X13348Y1455D01*
X13348Y1456D01*
X13348Y1456D01*
X13350Y1458D01*
X13352Y1460D01*
X13355Y1461D01*
X13357Y1463D01*
X13359Y1464D01*
X13361Y1464D01*
X13362Y1465D01*
X13362Y1465D01*
X13366Y1466D01*
X13370Y1467D01*
X13374Y1468D01*
X13378Y1468D01*
X13381Y1468D01*
X13384Y1469D01*
X13386D01*
X13392Y1468D01*
D02*
G37*
G36*
X13765Y1350D02*
X13746D01*
X13702Y1466D01*
X13722D01*
X13748Y1395D01*
X13749Y1390D01*
X13751Y1386D01*
X13752Y1382D01*
X13753Y1379D01*
X13754Y1377D01*
X13755Y1375D01*
X13755Y1374D01*
X13755Y1373D01*
X13757Y1378D01*
X13758Y1382D01*
X13759Y1386D01*
X13760Y1389D01*
X13761Y1392D01*
X13762Y1395D01*
X13762Y1395D01*
X13762Y1396D01*
X13763Y1396D01*
Y1397D01*
X13788Y1466D01*
X13808D01*
X13765Y1350D01*
D02*
G37*
G36*
X13278D02*
X13279Y1348D01*
X13280Y1346D01*
X13280Y1345D01*
Y1345D01*
X13282Y1341D01*
X13283Y1338D01*
X13284Y1335D01*
X13285Y1333D01*
X13285Y1332D01*
X13286Y1331D01*
X13286Y1331D01*
Y1330D01*
X13288Y1328D01*
X13290Y1326D01*
X13291Y1325D01*
X13292Y1325D01*
X13292Y1324D01*
X13292D01*
X13294Y1324D01*
X13296Y1323D01*
X13299Y1322D01*
X13300D01*
X13302Y1322D01*
X13303D01*
X13307Y1322D01*
X13310Y1323D01*
X13312Y1323D01*
X13313Y1324D01*
X13314Y1324D01*
X13314D01*
X13312Y1306D01*
X13309Y1305D01*
X13307Y1304D01*
X13305Y1304D01*
X13303Y1303D01*
X13301D01*
X13300Y1303D01*
X13299D01*
X13296Y1303D01*
X13293Y1304D01*
X13290Y1304D01*
X13288Y1305D01*
X13286Y1306D01*
X13284Y1307D01*
X13283Y1307D01*
X13283Y1308D01*
X13281Y1310D01*
X13279Y1312D01*
X13276Y1314D01*
X13275Y1316D01*
X13273Y1319D01*
X13272Y1320D01*
X13271Y1321D01*
X13271Y1322D01*
X13270Y1323D01*
X13269Y1325D01*
X13268Y1329D01*
X13266Y1333D01*
X13264Y1338D01*
X13263Y1342D01*
X13262Y1344D01*
X13261Y1345D01*
X13261Y1346D01*
X13260Y1347D01*
X13260Y1348D01*
Y1348D01*
X13216Y1466D01*
X13235D01*
X13260Y1398D01*
X13262Y1394D01*
X13264Y1389D01*
X13265Y1384D01*
X13266Y1380D01*
X13267Y1377D01*
X13268Y1375D01*
X13268Y1374D01*
X13268Y1373D01*
X13269Y1373D01*
X13269Y1372D01*
Y1372D01*
X13270Y1377D01*
X13272Y1382D01*
X13273Y1387D01*
X13274Y1391D01*
X13276Y1394D01*
X13276Y1395D01*
X13276Y1397D01*
X13277Y1398D01*
X13277Y1398D01*
X13277Y1399D01*
Y1399D01*
X13301Y1466D01*
X13322D01*
X13278Y1350D01*
D02*
G37*
G36*
X14465Y1495D02*
Y1466D01*
X14479D01*
Y1451D01*
X14465D01*
Y1384D01*
Y1381D01*
Y1378D01*
X14464Y1375D01*
X14464Y1373D01*
Y1371D01*
X14464Y1369D01*
X14463Y1366D01*
X14463Y1363D01*
X14463Y1362D01*
X14462Y1361D01*
Y1361D01*
X14461Y1359D01*
X14460Y1357D01*
X14459Y1355D01*
X14457Y1354D01*
X14456Y1353D01*
X14455Y1352D01*
X14454Y1352D01*
X14454Y1352D01*
X14452Y1350D01*
X14449Y1350D01*
X14446Y1349D01*
X14444Y1349D01*
X14441Y1349D01*
X14439Y1348D01*
X14438D01*
X14432Y1349D01*
X14430Y1349D01*
X14428Y1349D01*
X14426Y1350D01*
X14424Y1350D01*
X14423Y1350D01*
X14423D01*
X14425Y1367D01*
X14427Y1367D01*
X14429Y1367D01*
X14430D01*
X14432Y1367D01*
X14434D01*
X14437Y1367D01*
X14439Y1367D01*
X14440Y1368D01*
X14441Y1368D01*
X14442Y1369D01*
X14443Y1370D01*
X14444Y1371D01*
X14444Y1372D01*
X14444Y1373D01*
X14445Y1375D01*
X14445Y1378D01*
X14445Y1380D01*
Y1381D01*
Y1382D01*
Y1383D01*
Y1451D01*
X14425D01*
Y1466D01*
X14445D01*
Y1507D01*
X14465Y1495D01*
D02*
G37*
G36*
X14402D02*
Y1466D01*
X14417D01*
Y1451D01*
X14402D01*
Y1384D01*
Y1381D01*
Y1378D01*
X14402Y1375D01*
X14402Y1373D01*
Y1371D01*
X14402Y1369D01*
X14401Y1366D01*
X14401Y1363D01*
X14401Y1362D01*
X14400Y1361D01*
Y1361D01*
X14399Y1359D01*
X14398Y1357D01*
X14396Y1355D01*
X14395Y1354D01*
X14394Y1353D01*
X14393Y1352D01*
X14392Y1352D01*
X14392Y1352D01*
X14389Y1350D01*
X14387Y1350D01*
X14384Y1349D01*
X14381Y1349D01*
X14379Y1349D01*
X14377Y1348D01*
X14375D01*
X14370Y1349D01*
X14368Y1349D01*
X14365Y1349D01*
X14363Y1350D01*
X14362Y1350D01*
X14361Y1350D01*
X14360D01*
X14363Y1367D01*
X14365Y1367D01*
X14367Y1367D01*
X14368D01*
X14369Y1367D01*
X14372D01*
X14375Y1367D01*
X14377Y1367D01*
X14378Y1368D01*
X14378Y1368D01*
X14380Y1369D01*
X14381Y1370D01*
X14382Y1371D01*
X14382Y1372D01*
X14382Y1373D01*
X14382Y1375D01*
X14382Y1378D01*
X14383Y1380D01*
Y1381D01*
Y1382D01*
Y1383D01*
Y1451D01*
X14363D01*
Y1466D01*
X14383D01*
Y1507D01*
X14402Y1495D01*
D02*
G37*
G36*
X13641Y1468D02*
X13645Y1468D01*
X13649Y1467D01*
X13653Y1466D01*
X13656Y1465D01*
X13660Y1464D01*
X13663Y1462D01*
X13665Y1461D01*
X13668Y1459D01*
X13670Y1458D01*
X13672Y1456D01*
X13673Y1455D01*
X13674Y1454D01*
X13675Y1453D01*
X13676Y1453D01*
X13676Y1453D01*
X13678Y1449D01*
X13681Y1446D01*
X13683Y1442D01*
X13685Y1439D01*
X13686Y1435D01*
X13687Y1431D01*
X13689Y1424D01*
X13690Y1420D01*
X13690Y1417D01*
X13690Y1414D01*
X13691Y1412D01*
X13691Y1410D01*
Y1408D01*
Y1407D01*
Y1407D01*
X13691Y1402D01*
X13690Y1397D01*
X13689Y1392D01*
X13689Y1388D01*
X13687Y1384D01*
X13686Y1381D01*
X13685Y1377D01*
X13683Y1374D01*
X13682Y1372D01*
X13681Y1369D01*
X13680Y1368D01*
X13678Y1366D01*
X13677Y1365D01*
X13677Y1364D01*
X13676Y1363D01*
X13676Y1363D01*
X13673Y1360D01*
X13670Y1358D01*
X13667Y1356D01*
X13663Y1354D01*
X13660Y1353D01*
X13657Y1351D01*
X13650Y1349D01*
X13647Y1349D01*
X13644Y1348D01*
X13642Y1348D01*
X13640Y1348D01*
X13638Y1347D01*
X13636D01*
X13628Y1348D01*
X13622Y1349D01*
X13616Y1350D01*
X13614Y1351D01*
X13611Y1352D01*
X13609Y1353D01*
X13608Y1354D01*
X13606Y1355D01*
X13605Y1356D01*
X13604Y1356D01*
X13603Y1357D01*
X13603Y1357D01*
X13602D01*
X13598Y1361D01*
X13594Y1366D01*
X13591Y1370D01*
X13589Y1375D01*
X13587Y1379D01*
X13586Y1381D01*
X13585Y1382D01*
X13585Y1383D01*
X13585Y1384D01*
X13584Y1385D01*
Y1385D01*
X13605Y1387D01*
X13607Y1383D01*
X13609Y1379D01*
X13611Y1376D01*
X13613Y1374D01*
X13614Y1372D01*
X13616Y1370D01*
X13617Y1369D01*
X13617Y1369D01*
X13620Y1367D01*
X13623Y1366D01*
X13626Y1365D01*
X13629Y1364D01*
X13632Y1364D01*
X13634Y1364D01*
X13636D01*
X13638Y1364D01*
X13641Y1364D01*
X13646Y1365D01*
X13650Y1367D01*
X13653Y1369D01*
X13656Y1370D01*
X13658Y1372D01*
X13660Y1373D01*
X13660Y1374D01*
X13660D01*
X13663Y1378D01*
X13666Y1382D01*
X13668Y1387D01*
X13669Y1392D01*
X13670Y1396D01*
X13670Y1398D01*
X13670Y1400D01*
Y1401D01*
X13671Y1402D01*
Y1403D01*
Y1403D01*
X13584D01*
X13584Y1405D01*
Y1407D01*
Y1408D01*
Y1408D01*
X13584Y1413D01*
X13584Y1418D01*
X13585Y1423D01*
X13586Y1427D01*
X13587Y1431D01*
X13588Y1435D01*
X13590Y1438D01*
X13591Y1441D01*
X13593Y1444D01*
X13594Y1446D01*
X13595Y1448D01*
X13596Y1450D01*
X13597Y1451D01*
X13598Y1452D01*
X13598Y1453D01*
X13599Y1453D01*
X13601Y1456D01*
X13604Y1458D01*
X13608Y1460D01*
X13611Y1462D01*
X13614Y1464D01*
X13617Y1465D01*
X13620Y1466D01*
X13623Y1467D01*
X13626Y1467D01*
X13629Y1468D01*
X13631Y1468D01*
X13633Y1468D01*
X13634Y1469D01*
X13637D01*
X13641Y1468D01*
D02*
G37*
G36*
X14740Y1350D02*
X14679D01*
X14673Y1350D01*
X14668Y1350D01*
X14664Y1351D01*
X14660Y1351D01*
X14657Y1352D01*
X14655Y1352D01*
X14654Y1353D01*
X14653D01*
X14649Y1354D01*
X14646Y1355D01*
X14643Y1356D01*
X14641Y1358D01*
X14638Y1359D01*
X14637Y1359D01*
X14636Y1360D01*
X14636Y1360D01*
X14633Y1362D01*
X14631Y1365D01*
X14629Y1368D01*
X14627Y1370D01*
X14626Y1372D01*
X14625Y1374D01*
X14624Y1375D01*
X14624Y1375D01*
X14622Y1379D01*
X14621Y1383D01*
X14620Y1386D01*
X14620Y1390D01*
X14619Y1392D01*
X14619Y1395D01*
Y1396D01*
Y1396D01*
Y1397D01*
X14619Y1402D01*
X14620Y1406D01*
X14622Y1410D01*
X14623Y1414D01*
X14624Y1417D01*
X14626Y1419D01*
X14627Y1420D01*
X14627Y1421D01*
X14630Y1424D01*
X14634Y1427D01*
X14637Y1430D01*
X14641Y1432D01*
X14644Y1434D01*
X14647Y1434D01*
X14648Y1435D01*
X14649Y1435D01*
X14649Y1435D01*
X14649D01*
X14645Y1438D01*
X14642Y1440D01*
X14639Y1443D01*
X14637Y1445D01*
X14635Y1447D01*
X14634Y1449D01*
X14633Y1449D01*
X14633Y1450D01*
X14631Y1453D01*
X14629Y1457D01*
X14628Y1460D01*
X14628Y1463D01*
X14627Y1465D01*
X14627Y1468D01*
Y1469D01*
Y1469D01*
X14627Y1473D01*
X14628Y1477D01*
X14629Y1481D01*
X14630Y1484D01*
X14631Y1487D01*
X14632Y1488D01*
X14633Y1490D01*
X14633Y1490D01*
X14636Y1494D01*
X14639Y1497D01*
X14642Y1499D01*
X14644Y1502D01*
X14647Y1503D01*
X14649Y1504D01*
X14650Y1505D01*
X14650Y1505D01*
X14651D01*
X14655Y1507D01*
X14660Y1508D01*
X14665Y1509D01*
X14669Y1509D01*
X14674Y1510D01*
X14675D01*
X14677Y1510D01*
X14740D01*
Y1350D01*
D02*
G37*
G36*
X13520Y1468D02*
X13522Y1468D01*
X13524Y1467D01*
X13526Y1467D01*
X13527Y1466D01*
X13529Y1465D01*
X13530Y1465D01*
X13530Y1465D01*
X13532Y1463D01*
X13534Y1460D01*
X13536Y1458D01*
X13538Y1455D01*
X13540Y1453D01*
X13541Y1450D01*
X13542Y1449D01*
X13542Y1449D01*
Y1466D01*
X13560D01*
Y1350D01*
X13540D01*
Y1411D01*
X13540Y1415D01*
X13540Y1419D01*
X13539Y1423D01*
X13539Y1427D01*
X13538Y1430D01*
X13537Y1432D01*
X13537Y1433D01*
X13537Y1434D01*
X13536Y1436D01*
X13535Y1438D01*
X13534Y1440D01*
X13533Y1442D01*
X13531Y1443D01*
X13531Y1444D01*
X13530Y1444D01*
X13530Y1444D01*
X13528Y1446D01*
X13526Y1447D01*
X13524Y1447D01*
X13522Y1448D01*
X13521Y1448D01*
X13519Y1448D01*
X13518D01*
X13516Y1448D01*
X13513Y1448D01*
X13511Y1447D01*
X13509Y1446D01*
X13507Y1446D01*
X13505Y1445D01*
X13504Y1444D01*
X13504Y1444D01*
X13497Y1462D01*
X13501Y1464D01*
X13505Y1466D01*
X13508Y1467D01*
X13511Y1468D01*
X13513Y1468D01*
X13515Y1469D01*
X13517D01*
X13520Y1468D01*
D02*
G37*
G36*
X13486Y1350D02*
X13466D01*
Y1510D01*
X13486D01*
Y1350D01*
D02*
G37*
G36*
X14549Y1468D02*
X14553Y1468D01*
X14560Y1467D01*
X14566Y1465D01*
X14569Y1463D01*
X14572Y1462D01*
X14574Y1461D01*
X14576Y1460D01*
X14578Y1459D01*
X14579Y1458D01*
X14580Y1457D01*
X14581Y1456D01*
X14582Y1456D01*
X14582Y1456D01*
X14585Y1453D01*
X14588Y1449D01*
X14590Y1446D01*
X14592Y1442D01*
X14594Y1438D01*
X14595Y1434D01*
X14597Y1430D01*
X14597Y1426D01*
X14598Y1422D01*
X14599Y1419D01*
X14599Y1416D01*
X14600Y1413D01*
Y1411D01*
X14600Y1409D01*
Y1409D01*
Y1408D01*
X14600Y1403D01*
X14599Y1398D01*
X14598Y1393D01*
X14597Y1389D01*
X14596Y1385D01*
X14595Y1381D01*
X14594Y1378D01*
X14592Y1375D01*
X14591Y1372D01*
X14590Y1369D01*
X14588Y1368D01*
X14587Y1366D01*
X14586Y1365D01*
X14586Y1364D01*
X14585Y1363D01*
X14585Y1363D01*
X14582Y1360D01*
X14579Y1358D01*
X14576Y1356D01*
X14572Y1354D01*
X14569Y1353D01*
X14566Y1351D01*
X14560Y1349D01*
X14557Y1349D01*
X14554Y1348D01*
X14552Y1348D01*
X14550Y1348D01*
X14548Y1347D01*
X14545D01*
X14540Y1348D01*
X14535Y1349D01*
X14530Y1350D01*
X14526Y1351D01*
X14522Y1352D01*
X14521Y1353D01*
X14520Y1353D01*
X14519Y1354D01*
X14518Y1354D01*
X14518Y1354D01*
X14518D01*
X14513Y1357D01*
X14509Y1361D01*
X14506Y1364D01*
X14503Y1367D01*
X14501Y1370D01*
X14499Y1372D01*
X14499Y1373D01*
X14498Y1374D01*
X14498Y1374D01*
Y1374D01*
X14496Y1380D01*
X14494Y1385D01*
X14493Y1391D01*
X14492Y1397D01*
X14491Y1400D01*
Y1402D01*
X14491Y1404D01*
X14491Y1406D01*
Y1408D01*
Y1409D01*
Y1409D01*
Y1410D01*
X14491Y1415D01*
X14492Y1419D01*
X14492Y1424D01*
X14493Y1428D01*
X14494Y1432D01*
X14496Y1435D01*
X14497Y1439D01*
X14499Y1442D01*
X14500Y1444D01*
X14501Y1446D01*
X14503Y1449D01*
X14504Y1450D01*
X14505Y1451D01*
X14506Y1452D01*
X14506Y1453D01*
X14506Y1453D01*
X14509Y1456D01*
X14512Y1458D01*
X14516Y1460D01*
X14519Y1462D01*
X14522Y1464D01*
X14525Y1465D01*
X14532Y1467D01*
X14535Y1467D01*
X14537Y1468D01*
X14539Y1468D01*
X14541Y1468D01*
X14543Y1469D01*
X14545D01*
X14549Y1468D01*
D02*
G37*
G36*
X14300D02*
X14304Y1468D01*
X14311Y1467D01*
X14317Y1465D01*
X14320Y1463D01*
X14323Y1462D01*
X14325Y1461D01*
X14327Y1460D01*
X14329Y1459D01*
X14330Y1458D01*
X14331Y1457D01*
X14332Y1456D01*
X14333Y1456D01*
X14333Y1456D01*
X14336Y1453D01*
X14339Y1449D01*
X14341Y1446D01*
X14343Y1442D01*
X14345Y1438D01*
X14346Y1434D01*
X14348Y1430D01*
X14348Y1426D01*
X14349Y1422D01*
X14350Y1419D01*
X14350Y1416D01*
X14351Y1413D01*
Y1411D01*
X14351Y1409D01*
Y1409D01*
Y1408D01*
X14351Y1403D01*
X14350Y1398D01*
X14349Y1393D01*
X14348Y1389D01*
X14347Y1385D01*
X14346Y1381D01*
X14345Y1378D01*
X14343Y1375D01*
X14342Y1372D01*
X14341Y1369D01*
X14339Y1368D01*
X14338Y1366D01*
X14337Y1365D01*
X14337Y1364D01*
X14336Y1363D01*
X14336Y1363D01*
X14333Y1360D01*
X14330Y1358D01*
X14327Y1356D01*
X14323Y1354D01*
X14320Y1353D01*
X14317Y1351D01*
X14311Y1349D01*
X14308Y1349D01*
X14305Y1348D01*
X14303Y1348D01*
X14301Y1348D01*
X14299Y1347D01*
X14296D01*
X14291Y1348D01*
X14286Y1349D01*
X14281Y1350D01*
X14277Y1351D01*
X14274Y1352D01*
X14272Y1353D01*
X14271Y1353D01*
X14270Y1354D01*
X14269Y1354D01*
X14269Y1354D01*
X14269D01*
X14264Y1357D01*
X14260Y1361D01*
X14257Y1364D01*
X14254Y1367D01*
X14252Y1370D01*
X14250Y1372D01*
X14250Y1373D01*
X14249Y1374D01*
X14249Y1374D01*
Y1374D01*
X14247Y1380D01*
X14245Y1385D01*
X14244Y1391D01*
X14243Y1397D01*
X14243Y1400D01*
Y1402D01*
X14242Y1404D01*
X14242Y1406D01*
Y1408D01*
Y1409D01*
Y1409D01*
Y1410D01*
X14242Y1415D01*
X14243Y1419D01*
X14243Y1424D01*
X14244Y1428D01*
X14246Y1432D01*
X14247Y1435D01*
X14248Y1439D01*
X14250Y1442D01*
X14251Y1444D01*
X14252Y1446D01*
X14254Y1449D01*
X14255Y1450D01*
X14256Y1451D01*
X14257Y1452D01*
X14257Y1453D01*
X14257Y1453D01*
X14260Y1456D01*
X14263Y1458D01*
X14267Y1460D01*
X14270Y1462D01*
X14273Y1464D01*
X14276Y1465D01*
X14283Y1467D01*
X14286Y1467D01*
X14288Y1468D01*
X14290Y1468D01*
X14292Y1468D01*
X14294Y1469D01*
X14296D01*
X14300Y1468D01*
D02*
G37*
G36*
X13904Y1513D02*
X13910Y1512D01*
X13915Y1511D01*
X13920Y1509D01*
X13925Y1508D01*
X13930Y1506D01*
X13934Y1504D01*
X13938Y1502D01*
X13941Y1499D01*
X13944Y1497D01*
X13947Y1496D01*
X13949Y1494D01*
X13950Y1492D01*
X13952Y1491D01*
X13953Y1490D01*
X13953Y1490D01*
X13957Y1486D01*
X13960Y1481D01*
X13963Y1476D01*
X13965Y1471D01*
X13967Y1466D01*
X13969Y1461D01*
X13970Y1456D01*
X13971Y1451D01*
X13972Y1446D01*
X13973Y1442D01*
X13973Y1438D01*
X13974Y1434D01*
Y1432D01*
X13974Y1430D01*
Y1428D01*
Y1428D01*
Y1428D01*
X13974Y1420D01*
X13973Y1413D01*
X13971Y1406D01*
X13970Y1403D01*
X13969Y1400D01*
X13969Y1397D01*
X13968Y1395D01*
X13967Y1393D01*
X13966Y1391D01*
X13966Y1390D01*
X13966Y1389D01*
X13965Y1388D01*
Y1388D01*
X13961Y1381D01*
X13957Y1375D01*
X13952Y1370D01*
X13948Y1366D01*
X13944Y1362D01*
X13942Y1361D01*
X13941Y1360D01*
X13940Y1359D01*
X13939Y1359D01*
X13938Y1358D01*
X13938Y1358D01*
X13935Y1356D01*
X13931Y1355D01*
X13924Y1352D01*
X13917Y1350D01*
X13911Y1349D01*
X13908Y1348D01*
X13906Y1348D01*
X13903Y1347D01*
X13901D01*
X13900Y1347D01*
X13897D01*
X13890Y1348D01*
X13883Y1349D01*
X13876Y1350D01*
X13873Y1351D01*
X13870Y1352D01*
X13868Y1353D01*
X13865Y1354D01*
X13863Y1355D01*
X13862Y1355D01*
X13860Y1356D01*
X13859Y1356D01*
X13859Y1357D01*
X13859D01*
X13852Y1361D01*
X13847Y1366D01*
X13842Y1371D01*
X13838Y1375D01*
X13835Y1380D01*
X13834Y1381D01*
X13833Y1383D01*
X13832Y1384D01*
X13831Y1385D01*
X13831Y1386D01*
Y1386D01*
X13829Y1390D01*
X13828Y1394D01*
X13825Y1401D01*
X13823Y1408D01*
X13822Y1415D01*
X13822Y1418D01*
X13821Y1421D01*
X13821Y1423D01*
Y1425D01*
X13821Y1427D01*
Y1428D01*
Y1429D01*
Y1430D01*
X13821Y1438D01*
X13822Y1446D01*
X13823Y1450D01*
X13824Y1454D01*
X13825Y1457D01*
X13826Y1460D01*
X13826Y1463D01*
X13827Y1465D01*
X13828Y1468D01*
X13829Y1469D01*
X13829Y1471D01*
X13830Y1472D01*
X13830Y1472D01*
Y1473D01*
X13834Y1479D01*
X13838Y1485D01*
X13843Y1490D01*
X13847Y1495D01*
X13851Y1498D01*
X13853Y1499D01*
X13854Y1500D01*
X13856Y1501D01*
X13857Y1502D01*
X13857Y1502D01*
X13857Y1502D01*
X13861Y1504D01*
X13864Y1506D01*
X13871Y1509D01*
X13878Y1510D01*
X13884Y1512D01*
X13887Y1512D01*
X13890Y1512D01*
X13892Y1513D01*
X13894D01*
X13895Y1513D01*
X13897D01*
X13904Y1513D01*
D02*
G37*
%LPC*%
G36*
X13361Y1408D02*
X13361D01*
X13361Y1401D01*
X13362Y1396D01*
X13362Y1392D01*
X13362Y1389D01*
X13363Y1386D01*
X13364Y1384D01*
X13364Y1383D01*
X13364Y1382D01*
X13365Y1381D01*
X13366Y1378D01*
X13368Y1376D01*
X13371Y1373D01*
X13373Y1372D01*
X13375Y1370D01*
X13376Y1369D01*
X13377Y1368D01*
X13378Y1368D01*
X13381Y1366D01*
X13384Y1365D01*
X13388Y1364D01*
X13391Y1364D01*
X13394Y1363D01*
X13396Y1363D01*
X13398D01*
X13402Y1363D01*
X13405Y1364D01*
X13408Y1365D01*
X13411Y1366D01*
X13413Y1366D01*
X13414Y1367D01*
X13415Y1368D01*
X13415Y1368D01*
X13417Y1370D01*
X13419Y1372D01*
X13420Y1375D01*
X13420Y1377D01*
X13421Y1378D01*
X13421Y1380D01*
Y1381D01*
Y1381D01*
X13421Y1383D01*
X13421Y1385D01*
X13420Y1386D01*
X13420Y1388D01*
X13419Y1389D01*
X13419Y1390D01*
X13419Y1390D01*
Y1390D01*
X13416Y1393D01*
X13413Y1395D01*
X13412Y1396D01*
X13412Y1396D01*
X13411Y1397D01*
X13411D01*
X13408Y1398D01*
X13406Y1398D01*
X13403Y1399D01*
X13400Y1400D01*
X13398Y1400D01*
X13395Y1400D01*
X13394Y1401D01*
X13394D01*
X13390Y1401D01*
X13386Y1402D01*
X13383Y1403D01*
X13379Y1403D01*
X13376Y1404D01*
X13374Y1405D01*
X13371Y1405D01*
X13369Y1406D01*
X13367Y1406D01*
X13366Y1407D01*
X13364Y1407D01*
X13363Y1408D01*
X13362Y1408D01*
X13362Y1408D01*
X13361Y1408D01*
D02*
G37*
G36*
X13638Y1453D02*
X13636D01*
X13634Y1452D01*
X13631Y1452D01*
X13626Y1451D01*
X13622Y1449D01*
X13619Y1447D01*
X13616Y1445D01*
X13614Y1443D01*
X13613Y1441D01*
X13612Y1441D01*
Y1441D01*
X13610Y1438D01*
X13608Y1434D01*
X13607Y1431D01*
X13606Y1427D01*
X13605Y1424D01*
X13605Y1422D01*
Y1421D01*
X13605Y1420D01*
Y1419D01*
Y1419D01*
X13670D01*
X13669Y1425D01*
X13667Y1429D01*
X13666Y1434D01*
X13664Y1437D01*
X13662Y1440D01*
X13661Y1442D01*
X13660Y1443D01*
X13659Y1443D01*
X13656Y1446D01*
X13652Y1449D01*
X13648Y1450D01*
X13644Y1451D01*
X13641Y1452D01*
X13639Y1452D01*
X13638Y1453D01*
D02*
G37*
G36*
X14719Y1491D02*
X14681D01*
X14676Y1491D01*
X14672Y1490D01*
X14668Y1490D01*
X14666Y1490D01*
X14664Y1489D01*
X14663Y1489D01*
X14663D01*
X14660Y1488D01*
X14658Y1487D01*
X14656Y1485D01*
X14654Y1484D01*
X14653Y1483D01*
X14652Y1481D01*
X14652Y1481D01*
X14652Y1481D01*
X14650Y1478D01*
X14649Y1476D01*
X14649Y1474D01*
X14648Y1471D01*
X14648Y1469D01*
X14648Y1468D01*
Y1467D01*
Y1467D01*
X14648Y1464D01*
X14648Y1461D01*
X14649Y1459D01*
X14650Y1457D01*
X14650Y1455D01*
X14651Y1454D01*
X14652Y1453D01*
X14652Y1453D01*
X14653Y1451D01*
X14656Y1449D01*
X14658Y1448D01*
X14659Y1447D01*
X14661Y1446D01*
X14663Y1445D01*
X14664Y1445D01*
X14664Y1445D01*
X14667Y1444D01*
X14670Y1444D01*
X14673Y1443D01*
X14676Y1443D01*
X14679Y1443D01*
X14719D01*
Y1491D01*
D02*
G37*
G36*
Y1424D02*
X14677D01*
X14672Y1424D01*
X14668Y1423D01*
X14665Y1423D01*
X14662Y1422D01*
X14660Y1422D01*
X14659Y1422D01*
X14659Y1421D01*
X14656Y1420D01*
X14653Y1419D01*
X14651Y1417D01*
X14649Y1415D01*
X14647Y1414D01*
X14647Y1413D01*
X14646Y1412D01*
X14646Y1412D01*
X14644Y1409D01*
X14643Y1407D01*
X14642Y1404D01*
X14641Y1402D01*
X14641Y1400D01*
X14641Y1398D01*
Y1397D01*
Y1397D01*
X14641Y1394D01*
X14641Y1391D01*
X14642Y1389D01*
X14642Y1387D01*
X14643Y1385D01*
X14644Y1384D01*
X14644Y1383D01*
X14644Y1383D01*
X14645Y1381D01*
X14647Y1379D01*
X14648Y1378D01*
X14649Y1376D01*
X14650Y1375D01*
X14651Y1375D01*
X14652Y1374D01*
X14652Y1374D01*
X14656Y1372D01*
X14660Y1371D01*
X14662Y1370D01*
X14663Y1370D01*
X14664Y1370D01*
X14664D01*
X14666Y1369D01*
X14668Y1369D01*
X14673Y1369D01*
X14719D01*
Y1424D01*
D02*
G37*
G36*
X14547Y1453D02*
X14545D01*
X14543Y1452D01*
X14540Y1452D01*
X14535Y1451D01*
X14531Y1449D01*
X14528Y1447D01*
X14525Y1445D01*
X14523Y1443D01*
X14522Y1442D01*
X14521Y1442D01*
Y1441D01*
X14519Y1439D01*
X14518Y1437D01*
X14515Y1432D01*
X14513Y1426D01*
X14512Y1421D01*
X14512Y1416D01*
X14511Y1414D01*
Y1412D01*
X14511Y1411D01*
Y1410D01*
Y1409D01*
Y1409D01*
Y1405D01*
X14512Y1401D01*
X14512Y1397D01*
X14513Y1394D01*
X14513Y1391D01*
X14514Y1388D01*
X14515Y1385D01*
X14516Y1383D01*
X14517Y1381D01*
X14518Y1379D01*
X14519Y1378D01*
X14519Y1377D01*
X14520Y1376D01*
X14521Y1375D01*
X14521Y1375D01*
X14521Y1375D01*
X14523Y1373D01*
X14525Y1371D01*
X14529Y1368D01*
X14533Y1366D01*
X14537Y1365D01*
X14540Y1364D01*
X14543Y1364D01*
X14544Y1364D01*
X14545D01*
X14548Y1364D01*
X14551Y1364D01*
X14556Y1365D01*
X14560Y1367D01*
X14563Y1369D01*
X14566Y1371D01*
X14568Y1373D01*
X14569Y1374D01*
X14570Y1375D01*
X14570D01*
X14572Y1377D01*
X14573Y1379D01*
X14575Y1384D01*
X14577Y1390D01*
X14578Y1396D01*
X14579Y1400D01*
X14579Y1403D01*
Y1404D01*
X14580Y1406D01*
Y1407D01*
Y1408D01*
Y1408D01*
X14579Y1412D01*
X14579Y1416D01*
X14579Y1419D01*
X14578Y1423D01*
X14577Y1426D01*
X14577Y1428D01*
X14576Y1431D01*
X14575Y1433D01*
X14574Y1435D01*
X14573Y1437D01*
X14572Y1438D01*
X14572Y1439D01*
X14571Y1440D01*
X14570Y1441D01*
X14570Y1441D01*
Y1441D01*
X14568Y1443D01*
X14566Y1445D01*
X14562Y1448D01*
X14558Y1450D01*
X14554Y1451D01*
X14550Y1452D01*
X14548Y1452D01*
X14547Y1453D01*
D02*
G37*
G36*
X14298D02*
X14296D01*
X14294Y1452D01*
X14291Y1452D01*
X14286Y1451D01*
X14282Y1449D01*
X14279Y1447D01*
X14276Y1445D01*
X14274Y1443D01*
X14273Y1442D01*
X14272Y1442D01*
Y1441D01*
X14270Y1439D01*
X14269Y1437D01*
X14266Y1432D01*
X14264Y1426D01*
X14263Y1421D01*
X14263Y1416D01*
X14262Y1414D01*
Y1412D01*
X14262Y1411D01*
Y1410D01*
Y1409D01*
Y1409D01*
Y1405D01*
X14263Y1401D01*
X14263Y1397D01*
X14264Y1394D01*
X14264Y1391D01*
X14265Y1388D01*
X14266Y1385D01*
X14267Y1383D01*
X14268Y1381D01*
X14269Y1379D01*
X14270Y1378D01*
X14271Y1377D01*
X14271Y1376D01*
X14272Y1375D01*
X14272Y1375D01*
X14272Y1375D01*
X14274Y1373D01*
X14276Y1371D01*
X14280Y1368D01*
X14284Y1366D01*
X14288Y1365D01*
X14291Y1364D01*
X14294Y1364D01*
X14295Y1364D01*
X14296D01*
X14299Y1364D01*
X14302Y1364D01*
X14307Y1365D01*
X14311Y1367D01*
X14314Y1369D01*
X14317Y1371D01*
X14319Y1373D01*
X14320Y1374D01*
X14321Y1375D01*
X14321D01*
X14323Y1377D01*
X14324Y1379D01*
X14326Y1384D01*
X14328Y1390D01*
X14330Y1396D01*
X14330Y1400D01*
X14330Y1403D01*
Y1404D01*
X14331Y1406D01*
Y1407D01*
Y1408D01*
Y1408D01*
X14330Y1412D01*
X14330Y1416D01*
X14330Y1419D01*
X14329Y1423D01*
X14328Y1426D01*
X14328Y1428D01*
X14327Y1431D01*
X14326Y1433D01*
X14325Y1435D01*
X14324Y1437D01*
X14323Y1438D01*
X14323Y1439D01*
X14322Y1440D01*
X14321Y1441D01*
X14321Y1441D01*
Y1441D01*
X14319Y1443D01*
X14317Y1445D01*
X14313Y1448D01*
X14309Y1450D01*
X14305Y1451D01*
X14302Y1452D01*
X14299Y1452D01*
X14298Y1453D01*
D02*
G37*
G36*
X13900Y1495D02*
X13897D01*
X13892Y1494D01*
X13886Y1493D01*
X13881Y1492D01*
X13877Y1491D01*
X13874Y1489D01*
X13872Y1488D01*
X13871Y1488D01*
X13870Y1487D01*
X13869Y1487D01*
X13869Y1487D01*
X13869D01*
X13864Y1483D01*
X13860Y1480D01*
X13857Y1476D01*
X13854Y1472D01*
X13852Y1469D01*
X13851Y1466D01*
X13850Y1465D01*
X13850Y1465D01*
X13849Y1464D01*
Y1464D01*
X13847Y1458D01*
X13845Y1452D01*
X13844Y1447D01*
X13844Y1441D01*
X13843Y1439D01*
X13843Y1437D01*
Y1435D01*
X13843Y1433D01*
Y1432D01*
Y1431D01*
Y1430D01*
Y1430D01*
X13843Y1424D01*
X13843Y1419D01*
X13844Y1414D01*
X13845Y1409D01*
X13846Y1405D01*
X13848Y1401D01*
X13849Y1397D01*
X13850Y1394D01*
X13852Y1391D01*
X13853Y1389D01*
X13854Y1387D01*
X13856Y1385D01*
X13857Y1384D01*
X13857Y1383D01*
X13858Y1382D01*
X13858Y1382D01*
X13861Y1379D01*
X13864Y1376D01*
X13868Y1374D01*
X13871Y1372D01*
X13874Y1371D01*
X13878Y1369D01*
X13881Y1368D01*
X13884Y1367D01*
X13887Y1367D01*
X13889Y1366D01*
X13892Y1366D01*
X13894Y1366D01*
X13895D01*
X13897Y1365D01*
X13898D01*
X13902Y1366D01*
X13906Y1366D01*
X13910Y1367D01*
X13914Y1368D01*
X13917Y1369D01*
X13920Y1371D01*
X13923Y1372D01*
X13926Y1374D01*
X13929Y1375D01*
X13931Y1377D01*
X13932Y1378D01*
X13934Y1379D01*
X13935Y1380D01*
X13936Y1381D01*
X13937Y1382D01*
X13937Y1382D01*
X13940Y1385D01*
X13942Y1389D01*
X13944Y1392D01*
X13946Y1396D01*
X13947Y1400D01*
X13949Y1404D01*
X13950Y1411D01*
X13951Y1414D01*
X13951Y1418D01*
X13952Y1420D01*
X13952Y1423D01*
X13952Y1425D01*
Y1426D01*
Y1427D01*
Y1428D01*
X13952Y1434D01*
X13952Y1440D01*
X13951Y1446D01*
X13950Y1451D01*
X13949Y1456D01*
X13947Y1460D01*
X13946Y1464D01*
X13944Y1467D01*
X13943Y1470D01*
X13941Y1472D01*
X13940Y1474D01*
X13939Y1476D01*
X13938Y1477D01*
X13937Y1478D01*
X13936Y1479D01*
X13936Y1479D01*
X13933Y1482D01*
X13930Y1484D01*
X13927Y1486D01*
X13923Y1488D01*
X13920Y1490D01*
X13917Y1491D01*
X13911Y1493D01*
X13908Y1493D01*
X13905Y1494D01*
X13903Y1494D01*
X13901Y1494D01*
X13900Y1495D01*
D02*
G37*
%LPD*%
D10*
X1675Y1630D02*
G03*
X1675Y1630I-10J0D01*
G01*
X4670Y930D02*
G03*
X4670Y930I-10J0D01*
G01*
X4900Y1790D02*
G03*
X4900Y1790I-10J0D01*
G01*
X4940Y2980D02*
G03*
X4940Y2980I-10J0D01*
G01*
X3490Y920D02*
G03*
X3490Y920I-10J0D01*
G01*
X500Y740D02*
G03*
X500Y740I-10J0D01*
G01*
X1423Y743D02*
G03*
X1423Y743I-10J0D01*
G01*
X2680Y630D02*
G03*
X2680Y630I-10J0D01*
G01*
X2035Y1110D02*
G03*
X2035Y1110I-10J0D01*
G01*
X1700Y2650D02*
G03*
X1700Y2650I-10J0D01*
G01*
X2150Y2540D02*
G03*
X2150Y2540I-5J0D01*
G01*
X1260Y3700D02*
G03*
X1260Y3700I-10J0D01*
G01*
Y4260D02*
G03*
X1260Y4260I-10J0D01*
G01*
Y4820D02*
G03*
X1260Y4820I-10J0D01*
G01*
X1699Y2830D02*
G03*
X1699Y2830I-10J0D01*
G01*
X3236Y4648D02*
G03*
X3236Y4648I-10J0D01*
G01*
X4130Y4650D02*
G03*
X4130Y4650I-10J0D01*
G01*
X3428Y3587D02*
G03*
X3428Y3587I-10J0D01*
G01*
X3061Y4408D02*
G03*
X3061Y4408I-5J0D01*
G01*
X2820Y4035D02*
G03*
X2820Y4035I-10J0D01*
G01*
X2340Y4270D02*
G03*
X2340Y4270I-10J0D01*
G01*
X4770Y2990D02*
X4810D01*
X4770Y2770D02*
X4810D01*
X2260Y990D02*
Y1030D01*
X2040Y990D02*
Y1030D01*
X4067Y4612D02*
X4115D01*
X4067Y4565D02*
Y4612D01*
Y4267D02*
Y4288D01*
Y4267D02*
X4087D01*
X4392D02*
X4412D01*
Y4288D01*
X4392Y4612D02*
X4412D01*
Y4592D02*
Y4612D01*
X3660Y3470D02*
Y3610D01*
X3900Y3470D02*
Y3610D01*
X2890Y4050D02*
X2930D01*
X2890Y4270D02*
X2930D01*
X3900Y3390D02*
X3917D01*
Y3407D01*
X3900D01*
Y3390D01*
D11*
X830Y1060D02*
G03*
X830Y1160I-122J50D01*
G01*
X650Y1160D02*
G03*
X650Y1060I122J-50D01*
G01*
X515Y850D02*
G03*
X515Y850I-5J0D01*
G01*
X384Y836D02*
G03*
X384Y1024I-316J94D01*
G01*
X56Y1024D02*
G03*
X56Y836I316J-94D01*
G01*
X384Y1026D02*
G03*
X384Y1214I-316J94D01*
G01*
X56Y1214D02*
G03*
X56Y1026I316J-94D01*
G01*
X384Y1206D02*
G03*
X384Y1394I-316J94D01*
G01*
X56Y1394D02*
G03*
X56Y1206I316J-94D01*
G01*
X4850Y428D02*
G03*
X4850Y428I-5J0D01*
G01*
X3695Y558D02*
G03*
X3845Y558I75J276D01*
G01*
Y842D02*
G03*
X3695Y842I-75J-276D01*
G01*
X3400Y660D02*
G03*
X3500Y660I50J122D01*
G01*
X3500Y840D02*
G03*
X3400Y840I-50J-122D01*
G01*
X4420Y290D02*
G03*
X4420Y390I-122J50D01*
G01*
X4240Y390D02*
G03*
X4240Y290I122J-50D01*
G01*
X4420Y390D02*
G03*
X4420Y490I-122J50D01*
G01*
X4240Y490D02*
G03*
X4240Y390I122J-50D01*
G01*
X4588Y1645D02*
G03*
X4588Y1495I276J-75D01*
G01*
X4872D02*
G03*
X4872Y1645I-276J75D01*
G01*
X4610Y2720D02*
G03*
X4610Y2820I-122J50D01*
G01*
X4430Y2820D02*
G03*
X4430Y2720I122J-50D01*
G01*
X4200Y1620D02*
G03*
X4100Y1620I-50J-122D01*
G01*
X4100Y1440D02*
G03*
X4200Y1440I50J122D01*
G01*
X4290Y1930D02*
G03*
X4290Y2030I-122J50D01*
G01*
X4110Y2030D02*
G03*
X4110Y1930I122J-50D01*
G01*
X4200Y2240D02*
G03*
X4100Y2240I-50J-122D01*
G01*
X4100Y2060D02*
G03*
X4200Y2060I50J122D01*
G01*
X3350Y980D02*
G03*
X3450Y980I50J122D01*
G01*
X3450Y1160D02*
G03*
X3350Y1160I-50J-122D01*
G01*
X3970Y860D02*
G03*
X3970Y960I-122J50D01*
G01*
X3790Y960D02*
G03*
X3790Y860I122J-50D01*
G01*
X4590Y690D02*
G03*
X4490Y690I-50J-122D01*
G01*
X4490Y510D02*
G03*
X4590Y510I50J122D01*
G01*
X510Y530D02*
G03*
X610Y530I50J122D01*
G01*
X610Y710D02*
G03*
X510Y710I-50J-122D01*
G01*
X1036Y274D02*
G03*
X1036Y86I316J-94D01*
G01*
X1364Y86D02*
G03*
X1364Y274I-316J94D01*
G01*
X1342Y275D02*
G03*
X1342Y425I-276J75D01*
G01*
X1058D02*
G03*
X1058Y275I276J-75D01*
G01*
X1070Y840D02*
G03*
X1170Y840I50J122D01*
G01*
X1170Y1020D02*
G03*
X1070Y1020I-50J-122D01*
G01*
X840Y840D02*
G03*
X940Y840I50J122D01*
G01*
X940Y1020D02*
G03*
X840Y1020I-50J-122D01*
G01*
X1130Y1160D02*
G03*
X1130Y1260I-122J50D01*
G01*
X950Y1260D02*
G03*
X950Y1160I122J-50D01*
G01*
X1162Y1375D02*
G03*
X1162Y1525I-276J75D01*
G01*
X878D02*
G03*
X878Y1375I276J-75D01*
G01*
X655Y1360D02*
G03*
X655Y1360I-5J0D01*
G01*
X1570Y1200D02*
G03*
X1570Y1300I-122J50D01*
G01*
X1390Y1300D02*
G03*
X1390Y1200I122J-50D01*
G01*
X1995Y360D02*
G03*
X1995Y360I-5J0D01*
G01*
X1940Y380D02*
G03*
X2040Y380I50J122D01*
G01*
X2040Y560D02*
G03*
X1940Y560I-50J-122D01*
G01*
X1840Y380D02*
G03*
X1940Y380I50J122D01*
G01*
X1940Y560D02*
G03*
X1840Y560I-50J-122D01*
G01*
X2270Y680D02*
G03*
X2370Y680I50J122D01*
G01*
X2370Y860D02*
G03*
X2270Y860I-50J-122D01*
G01*
X2470Y680D02*
G03*
X2570Y680I50J122D01*
G01*
X2570Y860D02*
G03*
X2470Y860I-50J-122D01*
G01*
X2450Y1020D02*
G03*
X2450Y920I122J-50D01*
G01*
X2630Y920D02*
G03*
X2630Y1020I-122J50D01*
G01*
X3110Y910D02*
G03*
X3010Y910I-50J-122D01*
G01*
X3010Y730D02*
G03*
X3110Y730I50J122D01*
G01*
X2590Y1220D02*
G03*
X2590Y1120I122J-50D01*
G01*
X2770Y1120D02*
G03*
X2770Y1220I-122J50D01*
G01*
X3330Y920D02*
G03*
X3330Y1020I-122J50D01*
G01*
X3150Y1020D02*
G03*
X3150Y920I122J-50D01*
G01*
X2940Y1030D02*
G03*
X3040Y1030I50J122D01*
G01*
X3040Y1210D02*
G03*
X2940Y1210I-50J-122D01*
G01*
X3340Y1210D02*
G03*
X3240Y1210I-50J-122D01*
G01*
X3240Y1030D02*
G03*
X3340Y1030I50J122D01*
G01*
X3640Y1120D02*
G03*
X3640Y1020I122J-50D01*
G01*
X3820Y1020D02*
G03*
X3820Y1120I-122J50D01*
G01*
X3640Y1220D02*
G03*
X3640Y1120I122J-50D01*
G01*
X3820Y1120D02*
G03*
X3820Y1220I-122J50D01*
G01*
X4440Y720D02*
G03*
X4440Y820I-122J50D01*
G01*
X4260Y820D02*
G03*
X4260Y720I122J-50D01*
G01*
X4440Y820D02*
G03*
X4440Y920I-122J50D01*
G01*
X4260Y920D02*
G03*
X4260Y820I122J-50D01*
G01*
X4250Y820D02*
G03*
X4250Y920I-122J50D01*
G01*
X4070Y920D02*
G03*
X4070Y820I122J-50D01*
G01*
X3970Y1330D02*
G03*
X3970Y1230I122J-50D01*
G01*
X4150Y1230D02*
G03*
X4150Y1330I-122J50D01*
G01*
X2190Y1590D02*
G03*
X2190Y1490I122J-50D01*
G01*
X2370Y1490D02*
G03*
X2370Y1590I-122J50D01*
G01*
X1905Y1582D02*
G03*
X1755Y1582I-75J-276D01*
G01*
Y1298D02*
G03*
X1905Y1298I75J276D01*
G01*
X1650Y1620D02*
G03*
X1750Y1620I50J122D01*
G01*
X1750Y1800D02*
G03*
X1650Y1800I-50J-122D01*
G01*
X2380Y1890D02*
G03*
X2280Y1890I-50J-122D01*
G01*
X2280Y1710D02*
G03*
X2380Y1710I50J122D01*
G01*
X2280Y1890D02*
G03*
X2180Y1890I-50J-122D01*
G01*
X2180Y1710D02*
G03*
X2280Y1710I50J122D01*
G01*
X2280Y1900D02*
G03*
X2380Y1900I50J122D01*
G01*
X2380Y2080D02*
G03*
X2280Y2080I-50J-122D01*
G01*
X2180Y1900D02*
G03*
X2280Y1900I50J122D01*
G01*
X2280Y2080D02*
G03*
X2180Y2080I-50J-122D01*
G01*
X2370Y2100D02*
G03*
X2370Y2200I-122J50D01*
G01*
X2190Y2200D02*
G03*
X2190Y2100I122J-50D01*
G01*
X1755Y1588D02*
G03*
X1905Y1588I75J276D01*
G01*
Y1872D02*
G03*
X1755Y1872I-75J-276D01*
G01*
X2094Y2154D02*
G03*
X1906Y2154I-94J-316D01*
G01*
X1906Y1826D02*
G03*
X2094Y1826I94J316D01*
G01*
X1750Y1540D02*
G03*
X1650Y1540I-50J-122D01*
G01*
X1650Y1360D02*
G03*
X1750Y1360I50J122D01*
G01*
X805Y2510D02*
G03*
X805Y2510I-5J0D01*
G01*
X1154Y2406D02*
G03*
X1154Y2594I-316J94D01*
G01*
X826Y2594D02*
G03*
X826Y2406I316J-94D01*
G01*
X1575Y2600D02*
G03*
X1575Y2600I-5J0D01*
G01*
X2190Y2350D02*
G03*
X2290Y2350I50J122D01*
G01*
X2290Y2530D02*
G03*
X2190Y2530I-50J-122D01*
G01*
X2280Y2590D02*
G03*
X2380Y2590I50J122D01*
G01*
X2380Y2770D02*
G03*
X2280Y2770I-50J-122D01*
G01*
X2240Y2750D02*
G03*
X2140Y2750I-50J-122D01*
G01*
X2140Y2570D02*
G03*
X2240Y2570I50J122D01*
G01*
X2455Y3380D02*
G03*
X2455Y3380I-5J0D01*
G01*
X1660Y2660D02*
G03*
X1660Y2760I-122J50D01*
G01*
X1480Y2760D02*
G03*
X1480Y2660I122J-50D01*
G01*
X2420Y3160D02*
G03*
X2420Y3260I-122J50D01*
G01*
X2240Y3260D02*
G03*
X2240Y3160I122J-50D01*
G01*
X2160Y3130D02*
G03*
X2060Y3130I-50J-122D01*
G01*
X2060Y2950D02*
G03*
X2160Y2950I50J122D01*
G01*
X1990Y3660D02*
G03*
X1890Y3660I-50J-122D01*
G01*
X1890Y3480D02*
G03*
X1990Y3480I50J122D01*
G01*
X2275Y3480D02*
G03*
X2275Y3480I-5J0D01*
G01*
X2330Y3410D02*
G03*
X2430Y3410I50J122D01*
G01*
X2430Y3590D02*
G03*
X2330Y3590I-50J-122D01*
G01*
X2110Y3600D02*
G03*
X2110Y3500I122J-50D01*
G01*
X2290Y3500D02*
G03*
X2290Y3600I-122J50D01*
G01*
X2400Y3800D02*
G03*
X2500Y3800I50J122D01*
G01*
X2500Y3980D02*
G03*
X2400Y3980I-50J-122D01*
G01*
X2650Y4200D02*
G03*
X2550Y4200I-50J-122D01*
G01*
X2550Y4020D02*
G03*
X2650Y4020I50J122D01*
G01*
X2750Y4250D02*
G03*
X2650Y4250I-50J-122D01*
G01*
X2650Y4070D02*
G03*
X2750Y4070I50J122D01*
G01*
X3020Y3030D02*
G03*
X3020Y2930I122J-50D01*
G01*
X3200Y2930D02*
G03*
X3200Y3030I-122J50D01*
G01*
X3300Y3340D02*
G03*
X3200Y3340I-50J-122D01*
G01*
X3200Y3160D02*
G03*
X3300Y3160I50J122D01*
G01*
X3005Y3188D02*
G03*
X3155Y3188I75J276D01*
G01*
Y3472D02*
G03*
X3005Y3472I-75J-276D01*
G01*
X2910Y3640D02*
G03*
X2910Y3540I122J-50D01*
G01*
X3090Y3540D02*
G03*
X3090Y3640I-122J50D01*
G01*
X3710Y3030D02*
G03*
X3710Y2930I122J-50D01*
G01*
X3890Y2930D02*
G03*
X3890Y3030I-122J50D01*
G01*
X4160Y4720D02*
G03*
X4260Y4720I50J122D01*
G01*
X4260Y4900D02*
G03*
X4160Y4900I-50J-122D01*
G01*
X3796Y4904D02*
G03*
X3796Y4716I316J-94D01*
G01*
X4124Y4716D02*
G03*
X4124Y4904I-316J94D01*
G01*
X4930Y4350D02*
G03*
X4930Y4450I-122J50D01*
G01*
X4750Y4450D02*
G03*
X4750Y4350I122J-50D01*
G01*
X4840Y3930D02*
G03*
X4740Y3930I-50J-122D01*
G01*
X4740Y3750D02*
G03*
X4840Y3750I50J122D01*
G01*
X4380Y2830D02*
G03*
X4480Y2830I50J122D01*
G01*
X4480Y3010D02*
G03*
X4380Y3010I-50J-122D01*
G01*
X4225Y3218D02*
G03*
X4375Y3218I75J276D01*
G01*
Y3502D02*
G03*
X4225Y3502I-75J-276D01*
G01*
X4045Y3218D02*
G03*
X4195Y3218I75J276D01*
G01*
Y3502D02*
G03*
X4045Y3502I-75J-276D01*
G01*
X3343Y3025D02*
G03*
X3343Y3025I-5J0D01*
G01*
X4222Y3685D02*
G03*
X4222Y3835I-276J75D01*
G01*
X3938D02*
G03*
X3938Y3685I276J-75D01*
G01*
X4470Y3720D02*
G03*
X4470Y3620I122J-50D01*
G01*
X4650Y3620D02*
G03*
X4650Y3720I-122J50D01*
G01*
X3710Y3850D02*
G03*
X3710Y3750I122J-50D01*
G01*
X3890Y3750D02*
G03*
X3890Y3850I-122J50D01*
G01*
X4540Y4550D02*
G03*
X4540Y4450I122J-50D01*
G01*
X4720Y4450D02*
G03*
X4720Y4550I-122J50D01*
G01*
X4540Y4650D02*
G03*
X4540Y4550I122J-50D01*
G01*
X4720Y4550D02*
G03*
X4720Y4650I-122J50D01*
G01*
X3525Y3618D02*
G03*
X3675Y3618I75J276D01*
G01*
Y3902D02*
G03*
X3525Y3902I-75J-276D01*
G01*
X3525D02*
G03*
X3375Y3902I-75J-276D01*
G01*
Y3618D02*
G03*
X3525Y3618I75J276D01*
G01*
X3406Y4634D02*
G03*
X3406Y4446I316J-94D01*
G01*
X3734Y4446D02*
G03*
X3734Y4634I-316J94D01*
G01*
X3406Y4444D02*
G03*
X3406Y4256I316J-94D01*
G01*
X3734Y4256D02*
G03*
X3734Y4444I-316J94D01*
G01*
X3766Y3996D02*
G03*
X3954Y3996I94J316D01*
G01*
X3954Y4324D02*
G03*
X3766Y4324I-94J-316D01*
G01*
X3406Y4254D02*
G03*
X3406Y4066I316J-94D01*
G01*
X3734Y4066D02*
G03*
X3734Y4254I-316J94D01*
G01*
X3845Y558D02*
G03*
X3995Y558I75J276D01*
G01*
Y842D02*
G03*
X3845Y842I-75J-276D01*
G01*
X840Y1161D02*
X1040D01*
X840Y1060D02*
X1040D01*
X840D02*
Y1161D01*
X1040Y1060D02*
Y1161D01*
X650Y1060D02*
X830D01*
X650Y1160D02*
X830D01*
X739Y1380D02*
X840D01*
X739Y1180D02*
X840D01*
Y1380D01*
X739Y1180D02*
Y1380D01*
X639D02*
X740D01*
X639Y1180D02*
X740D01*
Y1380D01*
X639Y1180D02*
Y1380D01*
X880Y1539D02*
X1080D01*
X880Y1640D02*
X1080D01*
Y1539D02*
Y1640D01*
X880Y1539D02*
Y1640D01*
Y1639D02*
X1080D01*
X880Y1740D02*
X1080D01*
Y1639D02*
Y1740D01*
X880Y1639D02*
Y1740D01*
X56Y1024D02*
X384D01*
X56Y836D02*
X384D01*
X56Y1214D02*
X384D01*
X56Y1026D02*
X384D01*
X56Y1394D02*
X384D01*
X56Y1206D02*
X384D01*
X4590Y479D02*
X4790D01*
X4590Y580D02*
X4790D01*
Y479D02*
Y580D01*
X4590Y479D02*
Y580D01*
X2830Y731D02*
X3030D01*
X2830Y630D02*
X3030D01*
X2830D02*
Y731D01*
X3030Y630D02*
Y731D01*
X3500Y921D02*
X3700D01*
X3500Y820D02*
X3700D01*
X3500D02*
Y921D01*
X3700Y820D02*
Y921D01*
X3845Y558D02*
Y842D01*
X3695Y558D02*
Y842D01*
X3500Y629D02*
X3700D01*
X3500Y730D02*
X3700D01*
Y629D02*
Y730D01*
X3500Y629D02*
Y730D01*
X3400Y660D02*
Y840D01*
X3500Y660D02*
Y840D01*
X4240Y290D02*
X4420D01*
X4240Y390D02*
X4420D01*
X4240D02*
X4420D01*
X4240Y490D02*
X4420D01*
X4580Y1771D02*
X4780D01*
X4580Y1670D02*
X4780D01*
X4580D02*
Y1771D01*
X4780Y1670D02*
Y1771D01*
X4380Y1669D02*
X4580D01*
X4380Y1770D02*
X4580D01*
Y1669D02*
Y1770D01*
X4380Y1669D02*
Y1770D01*
X4588Y1495D02*
X4872D01*
X4588Y1645D02*
X4872D01*
X4430Y2720D02*
X4610D01*
X4430Y2820D02*
X4610D01*
X4200Y1440D02*
Y1620D01*
X4100Y1440D02*
Y1620D01*
X4100Y1771D02*
X4300D01*
X4100Y1670D02*
X4300D01*
X4100D02*
Y1771D01*
X4300Y1670D02*
Y1771D01*
X4100Y1931D02*
X4300D01*
X4100Y1830D02*
X4300D01*
X4100D02*
Y1931D01*
X4300Y1830D02*
Y1931D01*
X4110Y1930D02*
X4290D01*
X4110Y2030D02*
X4290D01*
X4200Y2060D02*
Y2240D01*
X4100Y2060D02*
Y2240D01*
X4100Y2279D02*
X4300D01*
X4100Y2380D02*
X4300D01*
Y2279D02*
Y2380D01*
X4100Y2279D02*
Y2380D01*
Y2379D02*
X4300D01*
X4100Y2480D02*
X4300D01*
Y2379D02*
Y2480D01*
X4100Y2379D02*
Y2480D01*
Y2581D02*
X4300D01*
X4100Y2480D02*
X4300D01*
X4100D02*
Y2581D01*
X4300Y2480D02*
Y2581D01*
X3350Y980D02*
Y1160D01*
X3450Y980D02*
Y1160D01*
X3790Y860D02*
X3970D01*
X3790Y960D02*
X3970D01*
X4590Y510D02*
Y690D01*
X4490Y510D02*
Y690D01*
X510Y530D02*
Y710D01*
X610Y530D02*
Y710D01*
X540Y729D02*
X740D01*
X540Y830D02*
X740D01*
Y729D02*
Y830D01*
X540Y729D02*
Y830D01*
X1036Y86D02*
X1364D01*
X1036Y274D02*
X1364D01*
X1058Y425D02*
X1342D01*
X1058Y275D02*
X1342D01*
X1070Y840D02*
Y1020D01*
X1170Y840D02*
Y1020D01*
X1071Y830D02*
Y1030D01*
X970Y830D02*
Y1030D01*
X1071D01*
X970Y830D02*
X1071D01*
X840Y840D02*
Y1020D01*
X940Y840D02*
Y1020D01*
X841Y830D02*
Y1030D01*
X740Y830D02*
Y1030D01*
X841D01*
X740Y830D02*
X841D01*
X639D02*
Y1030D01*
X740Y830D02*
Y1030D01*
X639Y830D02*
X740D01*
X639Y1030D02*
X740D01*
X1341Y1070D02*
Y1270D01*
X1240Y1070D02*
Y1270D01*
X1341D01*
X1240Y1070D02*
X1341D01*
X1241D02*
Y1270D01*
X1140Y1070D02*
Y1270D01*
X1241D01*
X1140Y1070D02*
X1241D01*
X950Y1160D02*
X1130D01*
X950Y1260D02*
X1130D01*
X940Y1259D02*
X1140D01*
X940Y1360D02*
X1140D01*
Y1259D02*
Y1360D01*
X940Y1259D02*
Y1360D01*
X1360Y1300D02*
Y1401D01*
X1160Y1300D02*
Y1401D01*
Y1300D02*
X1360D01*
X1160Y1401D02*
X1360D01*
X878Y1525D02*
X1162D01*
X878Y1375D02*
X1162D01*
X840Y1500D02*
Y1601D01*
X640Y1500D02*
Y1601D01*
Y1500D02*
X840D01*
X640Y1601D02*
X840D01*
Y1600D02*
Y1701D01*
X640Y1600D02*
Y1701D01*
Y1600D02*
X840D01*
X640Y1701D02*
X840D01*
X1199Y1730D02*
X1300D01*
X1199Y1530D02*
X1300D01*
Y1730D01*
X1199Y1530D02*
Y1730D01*
X1390Y1200D02*
X1570D01*
X1390Y1300D02*
X1570D01*
X1840Y79D02*
X2040D01*
X1840Y180D02*
X2040D01*
Y79D02*
Y180D01*
X1840Y79D02*
Y180D01*
X1940Y380D02*
Y560D01*
X2040Y380D02*
Y560D01*
X1840Y380D02*
Y560D01*
X1940Y380D02*
Y560D01*
X1939Y570D02*
Y770D01*
X2040Y570D02*
Y770D01*
X1939Y570D02*
X2040D01*
X1939Y770D02*
X2040D01*
X1839Y570D02*
Y770D01*
X1940Y570D02*
Y770D01*
X1839Y570D02*
X1940D01*
X1839Y770D02*
X1940D01*
X2369Y670D02*
Y870D01*
X2470Y670D02*
Y870D01*
X2369Y670D02*
X2470D01*
X2369Y870D02*
X2470D01*
X2270Y680D02*
Y860D01*
X2370Y680D02*
Y860D01*
X2470Y680D02*
Y860D01*
X2570Y680D02*
Y860D01*
X2450Y1020D02*
X2630D01*
X2450Y920D02*
X2630D01*
X2680Y919D02*
X2880D01*
X2680Y1020D02*
X2880D01*
Y919D02*
Y1020D01*
X2680Y919D02*
Y1020D01*
X3110Y730D02*
Y910D01*
X3010Y730D02*
Y910D01*
X3109Y720D02*
Y920D01*
X3210Y720D02*
Y920D01*
X3109Y720D02*
X3210D01*
X3109Y920D02*
X3210D01*
X3209Y720D02*
Y920D01*
X3310Y720D02*
Y920D01*
X3209Y720D02*
X3310D01*
X3209Y920D02*
X3310D01*
X2590Y1220D02*
X2770D01*
X2590Y1120D02*
X2770D01*
X2390Y1119D02*
X2590D01*
X2390Y1220D02*
X2590D01*
Y1119D02*
Y1220D01*
X2390Y1119D02*
Y1220D01*
X3150Y920D02*
X3330D01*
X3150Y1020D02*
X3330D01*
X3151Y920D02*
Y1120D01*
X3050Y920D02*
Y1120D01*
X3151D01*
X3050Y920D02*
X3151D01*
X2940Y1030D02*
Y1210D01*
X3040Y1030D02*
Y1210D01*
X3050Y1119D02*
X3250D01*
X3050Y1220D02*
X3250D01*
Y1119D02*
Y1220D01*
X3050Y1119D02*
Y1220D01*
X3340Y1030D02*
Y1210D01*
X3240Y1030D02*
Y1210D01*
X3640Y1120D02*
X3820D01*
X3640Y1020D02*
X3820D01*
X3640Y1220D02*
X3820D01*
X3640Y1120D02*
X3820D01*
X3850Y1121D02*
X4050D01*
X3850Y1020D02*
X4050D01*
X3850D02*
Y1121D01*
X4050Y1020D02*
Y1121D01*
X3850Y1119D02*
X4050D01*
X3850Y1220D02*
X4050D01*
Y1119D02*
Y1220D01*
X3850Y1119D02*
Y1220D01*
X4489Y700D02*
Y900D01*
X4590Y700D02*
Y900D01*
X4489Y700D02*
X4590D01*
X4489Y900D02*
X4590D01*
X4500Y600D02*
Y701D01*
X4300Y600D02*
Y701D01*
Y600D02*
X4500D01*
X4300Y701D02*
X4500D01*
X4260Y720D02*
X4440D01*
X4260Y820D02*
X4440D01*
X4260Y820D02*
X4440D01*
X4260Y920D02*
X4440D01*
X4070Y820D02*
X4250D01*
X4070Y920D02*
X4250D01*
X4060Y919D02*
X4260D01*
X4060Y1020D02*
X4260D01*
Y919D02*
Y1020D01*
X4060Y919D02*
Y1020D01*
X4070Y1119D02*
X4270D01*
X4070Y1220D02*
X4270D01*
Y1119D02*
Y1220D01*
X4070Y1119D02*
Y1220D01*
X3970Y1330D02*
X4150D01*
X3970Y1230D02*
X4150D01*
X2190Y1590D02*
X2370D01*
X2190Y1490D02*
X2370D01*
X1950Y1651D02*
X2150D01*
X1950Y1550D02*
X2150D01*
X1950D02*
Y1651D01*
X2150Y1550D02*
Y1651D01*
X1950Y1699D02*
Y1800D01*
X2150Y1699D02*
Y1800D01*
X1950D02*
X2150D01*
X1950Y1699D02*
X2150D01*
X1755Y1298D02*
Y1582D01*
X1905Y1298D02*
Y1582D01*
X1650Y1620D02*
Y1800D01*
X1750Y1620D02*
Y1800D01*
X2380Y1710D02*
Y1890D01*
X2280Y1710D02*
Y1890D01*
Y1710D02*
Y1890D01*
X2180Y1710D02*
Y1890D01*
X2280Y1900D02*
Y2080D01*
X2380Y1900D02*
Y2080D01*
X2180Y1900D02*
Y2080D01*
X2280Y1900D02*
Y2080D01*
X2190Y2100D02*
X2370D01*
X2190Y2200D02*
X2370D01*
X1905Y1588D02*
Y1872D01*
X1755Y1588D02*
Y1872D01*
X1906Y1826D02*
Y2154D01*
X2094Y1826D02*
Y2154D01*
X1750Y1360D02*
Y1540D01*
X1650Y1360D02*
Y1540D01*
X826Y2594D02*
X1154D01*
X826Y2406D02*
X1154D01*
X2190Y2350D02*
Y2530D01*
X2290Y2350D02*
Y2530D01*
X2280Y2590D02*
Y2770D01*
X2380Y2590D02*
Y2770D01*
X2240Y2570D02*
Y2750D01*
X2140Y2570D02*
Y2750D01*
X1480Y2660D02*
X1660D01*
X1480Y2760D02*
X1660D01*
X2329Y2910D02*
Y3110D01*
X2430Y2910D02*
Y3110D01*
X2329Y2910D02*
X2430D01*
X2329Y3110D02*
X2430D01*
X2311Y2910D02*
Y3110D01*
X2210Y2910D02*
Y3110D01*
X2311D01*
X2210Y2910D02*
X2311D01*
X2161Y2740D02*
Y2940D01*
X2060Y2740D02*
Y2940D01*
X2161D01*
X2060Y2740D02*
X2161D01*
X1959D02*
Y2940D01*
X2060Y2740D02*
Y2940D01*
X1959Y2740D02*
X2060D01*
X1959Y2940D02*
X2060D01*
X1760Y3041D02*
X1960D01*
X1760Y2940D02*
X1960D01*
X1760D02*
Y3041D01*
X1960Y2940D02*
Y3041D01*
X1760Y2941D02*
X1960D01*
X1760Y2840D02*
X1960D01*
X1760D02*
Y2941D01*
X1960Y2840D02*
Y2941D01*
X2240Y3160D02*
X2420D01*
X2240Y3260D02*
X2420D01*
X2230Y3361D02*
X2430D01*
X2230Y3260D02*
X2430D01*
X2230D02*
Y3361D01*
X2430Y3260D02*
Y3361D01*
X2030Y3261D02*
X2230D01*
X2030Y3160D02*
X2230D01*
X2030D02*
Y3261D01*
X2230Y3160D02*
Y3261D01*
X2030Y3361D02*
X2230D01*
X2030Y3260D02*
X2230D01*
X2030D02*
Y3361D01*
X2230Y3260D02*
Y3361D01*
X1649Y3130D02*
Y3330D01*
X1750Y3130D02*
Y3330D01*
X1649Y3130D02*
X1750D01*
X1649Y3330D02*
X1750D01*
X1549Y3130D02*
Y3330D01*
X1650Y3130D02*
Y3330D01*
X1549Y3130D02*
X1650D01*
X1549Y3330D02*
X1650D01*
X1959Y2940D02*
Y3140D01*
X2060Y2940D02*
Y3140D01*
X1959Y2940D02*
X2060D01*
X1959Y3140D02*
X2060D01*
X2160Y2950D02*
Y3130D01*
X2060Y2950D02*
Y3130D01*
X1330Y3331D02*
X1530D01*
X1330Y3230D02*
X1530D01*
X1330D02*
Y3331D01*
X1530Y3230D02*
Y3331D01*
X1330Y3431D02*
X1530D01*
X1330Y3330D02*
X1530D01*
X1330D02*
Y3431D01*
X1530Y3330D02*
Y3431D01*
X1330Y3531D02*
X1530D01*
X1330Y3430D02*
X1530D01*
X1330D02*
Y3531D01*
X1530Y3430D02*
Y3531D01*
X1330Y3631D02*
X1530D01*
X1330Y3530D02*
X1530D01*
X1330D02*
Y3631D01*
X1530Y3530D02*
Y3631D01*
X1990Y3480D02*
Y3660D01*
X1890Y3480D02*
Y3660D01*
X1761Y3470D02*
Y3670D01*
X1660Y3470D02*
Y3670D01*
X1761D01*
X1660Y3470D02*
X1761D01*
X1861D02*
Y3670D01*
X1760Y3470D02*
Y3670D01*
X1861D01*
X1760Y3470D02*
X1861D01*
X1989D02*
Y3670D01*
X2090Y3470D02*
Y3670D01*
X1989Y3470D02*
X2090D01*
X1989Y3670D02*
X2090D01*
X1660Y3471D02*
X1860D01*
X1660Y3370D02*
X1860D01*
X1660D02*
Y3471D01*
X1860Y3370D02*
Y3471D01*
X1890D02*
X2090D01*
X1890Y3370D02*
X2090D01*
X1890D02*
Y3471D01*
X2090Y3370D02*
Y3471D01*
X2330Y3410D02*
Y3590D01*
X2430Y3410D02*
Y3590D01*
X2110Y3600D02*
X2290D01*
X2110Y3500D02*
X2290D01*
X2831Y2930D02*
Y3130D01*
X2730Y2930D02*
Y3130D01*
X2831D01*
X2730Y2930D02*
X2831D01*
X2941D02*
Y3130D01*
X2840Y2930D02*
Y3130D01*
X2941D01*
X2840Y2930D02*
X2941D01*
X2400Y3800D02*
Y3980D01*
X2500Y3800D02*
Y3980D01*
X2299Y3790D02*
Y3990D01*
X2400Y3790D02*
Y3990D01*
X2299Y3790D02*
X2400D01*
X2299Y3990D02*
X2400D01*
X2551Y4010D02*
Y4210D01*
X2450Y4010D02*
Y4210D01*
X2551D01*
X2450Y4010D02*
X2551D01*
X2650Y4020D02*
Y4200D01*
X2550Y4020D02*
Y4200D01*
X2750Y4070D02*
Y4250D01*
X2650Y4070D02*
Y4250D01*
X3020Y3030D02*
X3200D01*
X3020Y2930D02*
X3200D01*
Y3031D02*
X3400D01*
X3200Y2930D02*
X3400D01*
X3200D02*
Y3031D01*
X3400Y2930D02*
Y3031D01*
X3300Y3160D02*
Y3340D01*
X3200Y3160D02*
Y3340D01*
X3155Y3188D02*
Y3472D01*
X3005Y3188D02*
Y3472D01*
X3301Y3340D02*
Y3540D01*
X3200Y3340D02*
Y3540D01*
X3301D01*
X3200Y3340D02*
X3301D01*
X3100Y3641D02*
X3300D01*
X3100Y3540D02*
X3300D01*
X3100D02*
Y3641D01*
X3300Y3540D02*
Y3641D01*
X2910Y3640D02*
X3090D01*
X2910Y3540D02*
X3090D01*
X3710Y3030D02*
X3890D01*
X3710Y2930D02*
X3890D01*
X4160Y4720D02*
Y4900D01*
X4260Y4720D02*
Y4900D01*
X3796Y4716D02*
X4124D01*
X3796Y4904D02*
X4124D01*
X4740Y4449D02*
X4940D01*
X4740Y4550D02*
X4940D01*
Y4449D02*
Y4550D01*
X4740Y4449D02*
Y4550D01*
X4750Y4350D02*
X4930D01*
X4750Y4450D02*
X4930D01*
X4840Y3750D02*
Y3930D01*
X4740Y3750D02*
Y3930D01*
X4380Y2830D02*
Y3010D01*
X4480Y2830D02*
Y3010D01*
X3939Y2960D02*
Y3160D01*
X4040Y2960D02*
Y3160D01*
X3939Y2960D02*
X4040D01*
X3939Y3160D02*
X4040D01*
X4375Y3218D02*
Y3502D01*
X4225Y3218D02*
Y3502D01*
X4195Y3218D02*
Y3502D01*
X4045Y3218D02*
Y3502D01*
X3938Y3835D02*
X4222D01*
X3938Y3685D02*
X4222D01*
X4470Y3720D02*
X4650D01*
X4470Y3620D02*
X4650D01*
X3710Y3850D02*
X3890D01*
X3710Y3750D02*
X3890D01*
X4270Y4141D02*
X4470D01*
X4270Y4040D02*
X4470D01*
X4270D02*
Y4141D01*
X4470Y4040D02*
Y4141D01*
X4460Y3620D02*
Y3721D01*
X4260Y3620D02*
Y3721D01*
Y3620D02*
X4460D01*
X4260Y3721D02*
X4460D01*
X4270Y4139D02*
X4470D01*
X4270Y4240D02*
X4470D01*
Y4139D02*
Y4240D01*
X4270Y4139D02*
Y4240D01*
X4540Y4550D02*
X4720D01*
X4540Y4450D02*
X4720D01*
X4530Y4441D02*
X4730D01*
X4530Y4340D02*
X4730D01*
X4530D02*
Y4441D01*
X4730Y4340D02*
Y4441D01*
X4530Y4239D02*
X4730D01*
X4530Y4340D02*
X4730D01*
Y4239D02*
Y4340D01*
X4530Y4239D02*
Y4340D01*
Y4141D02*
X4730D01*
X4530Y4040D02*
X4730D01*
X4530D02*
Y4141D01*
X4730Y4040D02*
Y4141D01*
X4530Y4139D02*
X4730D01*
X4530Y4240D02*
X4730D01*
Y4139D02*
Y4240D01*
X4530Y4139D02*
Y4240D01*
X4540Y4650D02*
X4720D01*
X4540Y4550D02*
X4720D01*
X3675Y3618D02*
Y3902D01*
X3525Y3618D02*
Y3902D01*
X3375Y3618D02*
Y3902D01*
X3525Y3618D02*
Y3902D01*
X3406Y4446D02*
X3734D01*
X3406Y4634D02*
X3734D01*
X3406Y4256D02*
X3734D01*
X3406Y4444D02*
X3734D01*
X3954Y3996D02*
Y4324D01*
X3766Y3996D02*
Y4324D01*
X3406Y4066D02*
X3734D01*
X3406Y4254D02*
X3734D01*
X3051Y4410D02*
Y4610D01*
X2950Y4410D02*
Y4610D01*
X3051D01*
X2950Y4410D02*
X3051D01*
X3049Y4060D02*
Y4260D01*
X3150Y4060D02*
Y4260D01*
X3049Y4060D02*
X3150D01*
X3049Y4260D02*
X3150D01*
X3080Y4371D02*
X3280D01*
X3080Y4270D02*
X3280D01*
X3080D02*
Y4371D01*
X3280Y4270D02*
Y4371D01*
X2890Y4269D02*
X3090D01*
X2890Y4370D02*
X3090D01*
Y4269D02*
Y4370D01*
X2890Y4269D02*
Y4370D01*
X3251Y4060D02*
Y4260D01*
X3150Y4060D02*
Y4260D01*
X3251D01*
X3150Y4060D02*
X3251D01*
X3289Y4410D02*
Y4610D01*
X3390Y4410D02*
Y4610D01*
X3289Y4410D02*
X3390D01*
X3289Y4610D02*
X3390D01*
X3995Y558D02*
Y842D01*
X3845Y558D02*
Y842D01*
D12*
X4367Y3174D02*
G03*
X4367Y3174I-5J0D01*
G01*
X4265Y3780D02*
G03*
X4265Y3780I-5J0D01*
G01*
X2580Y690D02*
Y850D01*
X2820Y690D02*
Y850D01*
X4884Y1840D02*
X4940D01*
Y2660D01*
X4884D02*
X4940D01*
X4320Y1840D02*
X4376D01*
X4320D02*
Y2660D01*
X4376D01*
X473Y458D02*
X727D01*
X473Y102D02*
X727D01*
X1321Y800D02*
X1370D01*
X1321Y460D02*
X1370D01*
X1030D02*
Y509D01*
Y800D02*
X1079D01*
X1370Y751D02*
Y800D01*
Y460D02*
Y509D01*
X1030Y460D02*
X1079D01*
X1030Y751D02*
Y800D01*
X1818Y293D02*
Y547D01*
X1462Y293D02*
Y547D01*
X1615Y2610D02*
X1655D01*
X1615Y2390D02*
X1655D01*
X1765D02*
X1805D01*
X1765Y2610D02*
X1805D01*
X1902Y2543D02*
Y2598D01*
Y2282D02*
Y2337D01*
X2138Y2282D02*
Y2337D01*
X570Y3250D02*
X1170D01*
X570Y3770D02*
X1170D01*
X570Y4330D02*
X1170D01*
X570Y3810D02*
X1170D01*
X570Y4370D02*
X1170D01*
X570Y4890D02*
X1170D01*
X2145Y3610D02*
X2295D01*
X2145Y3910D02*
X2295D01*
X1563Y4068D02*
X1817D01*
X2600Y3595D02*
Y3745D01*
X2300Y3595D02*
Y3745D01*
X2450Y4030D02*
Y4190D01*
X2210Y4030D02*
Y4190D01*
X2635Y3512D02*
X3005D01*
X2635Y3167D02*
Y3512D01*
Y3167D02*
X3005D01*
Y3512D01*
X3640Y3165D02*
Y3315D01*
X3940Y3165D02*
Y3315D01*
X3903Y2792D02*
X3952D01*
X2528Y2743D02*
Y2792D01*
Y1368D02*
X2577D01*
X3952Y2743D02*
Y2792D01*
X2528D02*
X2577D01*
X2528Y1368D02*
Y1417D01*
X3903Y1368D02*
X3952Y1417D01*
X4430Y3740D02*
X4510D01*
X4430D02*
Y4020D01*
X4510D01*
Y3740D02*
Y4020D01*
X3095Y4608D02*
X3245D01*
X3095Y4412D02*
X3245D01*
X1563Y4122D02*
X1817D01*
X1563Y4478D02*
X1817D01*
X1563Y4532D02*
X1817D01*
X1563Y4888D02*
X1817D01*
D13*
X2815Y660D02*
G03*
X2815Y660I-5J0D01*
G01*
X2225Y4220D02*
G03*
X2225Y4220I-5J0D01*
G01*
X160Y520D02*
X460D01*
X160Y720D02*
X460D01*
X1385Y2372D02*
X1570D01*
X1385Y2577D02*
X1570D01*
X3380Y2524D02*
X3423Y2481D01*
X3380D02*
X3423Y2524D01*
X3380Y2502D02*
X3423D01*
X3402Y2481D02*
Y2524D01*
X3250Y3714D02*
X3293Y3671D01*
X3250D02*
X3293Y3714D01*
X3250Y3692D02*
X3293D01*
X3272Y3671D02*
Y3714D01*
X4670Y2554D02*
X4713Y2511D01*
X4670D02*
X4713Y2554D01*
X4670Y2532D02*
X4713D01*
X4692Y2511D02*
Y2554D01*
X4450Y4624D02*
X4493Y4581D01*
X4450D02*
X4493Y4624D01*
X4450Y4602D02*
X4493D01*
X4472Y4581D02*
Y4624D01*
X2648Y327D02*
X2660Y315D01*
Y292D01*
X2648Y280D01*
X2602D01*
X2590Y292D01*
Y315D01*
X2602Y327D01*
X2590Y385D02*
X2660D01*
X2625Y350D01*
Y397D01*
X2648Y420D02*
X2660Y432D01*
Y455D01*
X2648Y467D01*
X2602D01*
X2590Y455D01*
Y432D01*
X2602Y420D01*
X2648D01*
X110Y560D02*
X52D01*
X40Y572D01*
Y595D01*
X52Y607D01*
X110D01*
X98Y630D02*
X110Y642D01*
Y665D01*
X98Y677D01*
X87D01*
X75Y665D01*
X63Y677D01*
X52D01*
X40Y665D01*
Y642D01*
X52Y630D01*
X63D01*
X75Y642D01*
X87Y630D01*
X98D01*
X75Y642D02*
Y665D01*
X688Y577D02*
X700Y565D01*
Y542D01*
X688Y530D01*
X642D01*
X630Y542D01*
Y565D01*
X642Y577D01*
X630Y635D02*
X700D01*
X665Y600D01*
Y647D01*
X1370Y1810D02*
Y1760D01*
X1360Y1750D01*
X1340D01*
X1330Y1760D01*
Y1810D01*
X1310Y1800D02*
X1300Y1810D01*
X1280D01*
X1270Y1800D01*
Y1790D01*
X1280Y1780D01*
X1290D01*
X1280D01*
X1270Y1770D01*
Y1760D01*
X1280Y1750D01*
X1300D01*
X1310Y1760D01*
X1250Y1800D02*
X1240Y1810D01*
X1220D01*
X1210Y1800D01*
Y1790D01*
X1220Y1780D01*
X1210Y1770D01*
Y1760D01*
X1220Y1750D01*
X1240D01*
X1250Y1760D01*
Y1770D01*
X1240Y1780D01*
X1250Y1790D01*
Y1800D01*
X1240Y1780D02*
X1220D01*
X1100Y1550D02*
X1170D01*
Y1585D01*
X1158Y1597D01*
X1135D01*
X1123Y1585D01*
Y1550D01*
Y1573D02*
X1100Y1597D01*
Y1620D02*
Y1643D01*
Y1632D01*
X1170D01*
X1158Y1620D01*
Y1678D02*
X1170Y1690D01*
Y1713D01*
X1158Y1725D01*
X1147D01*
X1135Y1713D01*
X1123Y1725D01*
X1112D01*
X1100Y1713D01*
Y1690D01*
X1112Y1678D01*
X1123D01*
X1135Y1690D01*
X1147Y1678D01*
X1158D01*
X1135Y1690D02*
Y1713D01*
X1100Y1783D02*
X1170D01*
X1135Y1748D01*
Y1795D01*
X1668Y1907D02*
X1680Y1895D01*
Y1872D01*
X1668Y1860D01*
X1622D01*
X1610Y1872D01*
Y1895D01*
X1622Y1907D01*
X1610Y1930D02*
Y1953D01*
Y1942D01*
X1680D01*
X1668Y1930D01*
X1680Y1988D02*
Y2035D01*
X1668D01*
X1622Y1988D01*
X1610D01*
X1622Y2058D02*
X1610Y2070D01*
Y2093D01*
X1622Y2105D01*
X1668D01*
X1680Y2093D01*
Y2070D01*
X1668Y2058D01*
X1657D01*
X1645Y2070D01*
Y2105D01*
X1988Y1237D02*
X2000Y1225D01*
Y1202D01*
X1988Y1190D01*
X1942D01*
X1930Y1202D01*
Y1225D01*
X1942Y1237D01*
X1930Y1260D02*
Y1283D01*
Y1272D01*
X2000D01*
X1988Y1260D01*
X2000Y1318D02*
Y1365D01*
X1988D01*
X1942Y1318D01*
X1930D01*
X1988Y1388D02*
X2000Y1400D01*
Y1423D01*
X1988Y1435D01*
X1977D01*
X1965Y1423D01*
X1953Y1435D01*
X1942D01*
X1930Y1423D01*
Y1400D01*
X1942Y1388D01*
X1953D01*
X1965Y1400D01*
X1977Y1388D01*
X1988D01*
X1965Y1400D02*
Y1423D01*
X1768Y1957D02*
X1780Y1945D01*
Y1922D01*
X1768Y1910D01*
X1722D01*
X1710Y1922D01*
Y1945D01*
X1722Y1957D01*
X1710Y1980D02*
Y2003D01*
Y1992D01*
X1780D01*
X1768Y1980D01*
Y2038D02*
X1780Y2050D01*
Y2073D01*
X1768Y2085D01*
X1757D01*
X1745Y2073D01*
X1733Y2085D01*
X1722D01*
X1710Y2073D01*
Y2050D01*
X1722Y2038D01*
X1733D01*
X1745Y2050D01*
X1757Y2038D01*
X1768D01*
X1745Y2050D02*
Y2073D01*
X1768Y2108D02*
X1780Y2120D01*
Y2143D01*
X1768Y2155D01*
X1722D01*
X1710Y2143D01*
Y2120D01*
X1722Y2108D01*
X1768D01*
X2088Y1237D02*
X2100Y1225D01*
Y1202D01*
X2088Y1190D01*
X2042D01*
X2030Y1202D01*
Y1225D01*
X2042Y1237D01*
X2030Y1260D02*
Y1283D01*
Y1272D01*
X2100D01*
X2088Y1260D01*
X2100Y1318D02*
Y1365D01*
X2088D01*
X2042Y1318D01*
X2030D01*
X2100Y1388D02*
Y1435D01*
X2088D01*
X2042Y1388D01*
X2030D01*
X4830Y3050D02*
X4760Y3097D01*
X4830D02*
X4760Y3050D01*
X4830Y3167D02*
Y3120D01*
X4795D01*
X4807Y3143D01*
Y3155D01*
X4795Y3167D01*
X4772D01*
X4760Y3155D01*
Y3132D01*
X4772Y3120D01*
X4630Y2920D02*
Y2850D01*
X4595D01*
X4583Y2862D01*
Y2908D01*
X4595Y2920D01*
X4630D01*
X4560Y2908D02*
X4548Y2920D01*
X4525D01*
X4513Y2908D01*
Y2897D01*
X4525Y2885D01*
X4537D01*
X4525D01*
X4513Y2873D01*
Y2862D01*
X4525Y2850D01*
X4548D01*
X4560Y2862D01*
X4928Y3697D02*
X4940Y3685D01*
Y3662D01*
X4928Y3650D01*
X4882D01*
X4870Y3662D01*
Y3685D01*
X4882Y3697D01*
X4928Y3720D02*
X4940Y3732D01*
Y3755D01*
X4928Y3767D01*
X4917D01*
X4905Y3755D01*
Y3743D01*
Y3755D01*
X4893Y3767D01*
X4882D01*
X4870Y3755D01*
Y3732D01*
X4882Y3720D01*
X4940Y3837D02*
Y3790D01*
X4905D01*
X4917Y3813D01*
Y3825D01*
X4905Y3837D01*
X4882D01*
X4870Y3825D01*
Y3802D01*
X4882Y3790D01*
X3350Y3975D02*
X3307Y3910D01*
Y3975D02*
X3350Y3910D01*
X3285Y3975D02*
X3242D01*
Y3964D01*
X3285Y3921D01*
Y3910D01*
X2850Y4420D02*
Y4350D01*
X2815D01*
X2803Y4362D01*
Y4408D01*
X2815Y4420D01*
X2850D01*
X2780Y4350D02*
X2757D01*
X2768D01*
Y4420D01*
X2780Y4408D01*
X2687Y4350D02*
Y4420D01*
X2722Y4385D01*
X2675D01*
X3113Y2428D02*
X3125Y2440D01*
X3148D01*
X3160Y2428D01*
Y2382D01*
X3148Y2370D01*
X3125D01*
X3113Y2382D01*
X3090Y2370D02*
X3067D01*
X3078D01*
Y2440D01*
X3090Y2428D01*
X3032D02*
X3020Y2440D01*
X2997D01*
X2985Y2428D01*
Y2417D01*
X2997Y2405D01*
X3008D01*
X2997D01*
X2985Y2393D01*
Y2382D01*
X2997Y2370D01*
X3020D01*
X3032Y2382D01*
X2915Y2440D02*
X2938Y2428D01*
X2962Y2405D01*
Y2382D01*
X2950Y2370D01*
X2927D01*
X2915Y2382D01*
Y2393D01*
X2927Y2405D01*
X2962D01*
X1803Y1238D02*
X1815Y1250D01*
X1838D01*
X1850Y1238D01*
Y1192D01*
X1838Y1180D01*
X1815D01*
X1803Y1192D01*
X1780Y1180D02*
X1757D01*
X1768D01*
Y1250D01*
X1780Y1238D01*
X1675Y1250D02*
X1698Y1238D01*
X1722Y1215D01*
Y1192D01*
X1710Y1180D01*
X1687D01*
X1675Y1192D01*
Y1203D01*
X1687Y1215D01*
X1722D01*
X1652Y1238D02*
X1640Y1250D01*
X1617D01*
X1605Y1238D01*
Y1227D01*
X1617Y1215D01*
X1605Y1203D01*
Y1192D01*
X1617Y1180D01*
X1640D01*
X1652Y1192D01*
Y1203D01*
X1640Y1215D01*
X1652Y1227D01*
Y1238D01*
X1640Y1215D02*
X1617D01*
X2230Y860D02*
Y800D01*
X2200D01*
X2190Y810D01*
Y850D01*
X2200Y860D01*
X2230D01*
X2130Y800D02*
X2170D01*
X2130Y840D01*
Y850D01*
X2140Y860D01*
X2160D01*
X2170Y850D01*
X2110Y800D02*
X2090D01*
X2100D01*
Y860D01*
X2110Y850D01*
X1970Y1040D02*
X1930Y980D01*
Y1040D02*
X1970Y980D01*
X1910Y1030D02*
X1900Y1040D01*
X1880D01*
X1870Y1030D01*
Y1020D01*
X1880Y1010D01*
X1870Y1000D01*
Y990D01*
X1880Y980D01*
X1900D01*
X1910Y990D01*
Y1000D01*
X1900Y1010D01*
X1910Y1020D01*
Y1030D01*
X1900Y1010D02*
X1880D01*
X4470Y4840D02*
X4423Y4770D01*
Y4840D02*
X4470Y4770D01*
X4400Y4782D02*
X4388Y4770D01*
X4365D01*
X4353Y4782D01*
Y4828D01*
X4365Y4840D01*
X4388D01*
X4400Y4828D01*
Y4817D01*
X4388Y4805D01*
X4353D01*
X3853Y2148D02*
X3865Y2160D01*
X3888D01*
X3900Y2148D01*
Y2102D01*
X3888Y2090D01*
X3865D01*
X3853Y2102D01*
X3830Y2148D02*
X3818Y2160D01*
X3795D01*
X3783Y2148D01*
Y2137D01*
X3795Y2125D01*
X3783Y2113D01*
Y2102D01*
X3795Y2090D01*
X3818D01*
X3830Y2102D01*
Y2113D01*
X3818Y2125D01*
X3830Y2137D01*
Y2148D01*
X3818Y2125D02*
X3795D01*
X2643Y1568D02*
X2655Y1580D01*
X2678D01*
X2690Y1568D01*
Y1522D01*
X2678Y1510D01*
X2655D01*
X2643Y1522D01*
X2620D02*
X2608Y1510D01*
X2585D01*
X2573Y1522D01*
Y1568D01*
X2585Y1580D01*
X2608D01*
X2620Y1568D01*
Y1557D01*
X2608Y1545D01*
X2573D01*
X3378Y3237D02*
X3390Y3225D01*
Y3202D01*
X3378Y3190D01*
X3332D01*
X3320Y3202D01*
Y3225D01*
X3332Y3237D01*
X3320Y3260D02*
Y3283D01*
Y3272D01*
X3390D01*
X3378Y3260D01*
X3320Y3318D02*
Y3342D01*
Y3330D01*
X3390D01*
X3378Y3318D01*
X3098Y1807D02*
X3110Y1795D01*
Y1772D01*
X3098Y1760D01*
X3052D01*
X3040Y1772D01*
Y1795D01*
X3052Y1807D01*
X3040Y1830D02*
Y1853D01*
Y1842D01*
X3110D01*
X3098Y1830D01*
X3040Y1935D02*
Y1888D01*
X3087Y1935D01*
X3098D01*
X3110Y1923D01*
Y1900D01*
X3098Y1888D01*
X2963Y1708D02*
X2975Y1720D01*
X2998D01*
X3010Y1708D01*
Y1662D01*
X2998Y1650D01*
X2975D01*
X2963Y1662D01*
X2940Y1650D02*
X2917D01*
X2928D01*
Y1720D01*
X2940Y1708D01*
X2882D02*
X2870Y1720D01*
X2847D01*
X2835Y1708D01*
Y1697D01*
X2847Y1685D01*
X2858D01*
X2847D01*
X2835Y1673D01*
Y1662D01*
X2847Y1650D01*
X2870D01*
X2882Y1662D01*
X1858Y4217D02*
X1870Y4205D01*
Y4182D01*
X1858Y4170D01*
X1812D01*
X1800Y4182D01*
Y4205D01*
X1812Y4217D01*
X1858Y4240D02*
X1870Y4252D01*
Y4275D01*
X1858Y4287D01*
X1847D01*
X1835Y4275D01*
Y4263D01*
Y4275D01*
X1823Y4287D01*
X1812D01*
X1800Y4275D01*
Y4252D01*
X1812Y4240D01*
X1870Y4357D02*
X1858Y4333D01*
X1835Y4310D01*
X1812D01*
X1800Y4322D01*
Y4345D01*
X1812Y4357D01*
X1823D01*
X1835Y4345D01*
Y4310D01*
X2398Y947D02*
X2410Y935D01*
Y912D01*
X2398Y900D01*
X2352D01*
X2340Y912D01*
Y935D01*
X2352Y947D01*
X2398Y970D02*
X2410Y982D01*
Y1005D01*
X2398Y1017D01*
X2387D01*
X2375Y1005D01*
Y993D01*
Y1005D01*
X2363Y1017D01*
X2352D01*
X2340Y1005D01*
Y982D01*
X2352Y970D01*
X2410Y1040D02*
Y1087D01*
X2398D01*
X2352Y1040D01*
X2340D01*
X2608Y4497D02*
X2620Y4485D01*
Y4462D01*
X2608Y4450D01*
X2562D01*
X2550Y4462D01*
Y4485D01*
X2562Y4497D01*
X2608Y4520D02*
X2620Y4532D01*
Y4555D01*
X2608Y4567D01*
X2597D01*
X2585Y4555D01*
Y4543D01*
Y4555D01*
X2573Y4567D01*
X2562D01*
X2550Y4555D01*
Y4532D01*
X2562Y4520D01*
Y4590D02*
X2550Y4602D01*
Y4625D01*
X2562Y4637D01*
X2608D01*
X2620Y4625D01*
Y4602D01*
X2608Y4590D01*
X2597D01*
X2585Y4602D01*
Y4637D01*
X2708Y4497D02*
X2720Y4485D01*
Y4462D01*
X2708Y4450D01*
X2662D01*
X2650Y4462D01*
Y4485D01*
X2662Y4497D01*
X2650Y4555D02*
X2720D01*
X2685Y4520D01*
Y4567D01*
X2650Y4590D02*
Y4613D01*
Y4602D01*
X2720D01*
X2708Y4590D01*
X2448Y327D02*
X2460Y315D01*
Y292D01*
X2448Y280D01*
X2402D01*
X2390Y292D01*
Y315D01*
X2402Y327D01*
X2390Y385D02*
X2460D01*
X2425Y350D01*
Y397D01*
X2390Y467D02*
Y420D01*
X2437Y467D01*
X2448D01*
X2460Y455D01*
Y432D01*
X2448Y420D01*
X988Y657D02*
X1000Y645D01*
Y622D01*
X988Y610D01*
X942D01*
X930Y622D01*
Y645D01*
X942Y657D01*
X930Y715D02*
X1000D01*
X965Y680D01*
Y727D01*
X930Y785D02*
X1000D01*
X965Y750D01*
Y797D01*
X563Y1258D02*
X575Y1270D01*
X598D01*
X610Y1258D01*
Y1212D01*
X598Y1200D01*
X575D01*
X563Y1212D01*
X505Y1200D02*
Y1270D01*
X540Y1235D01*
X493D01*
X423Y1270D02*
X470D01*
Y1235D01*
X447Y1247D01*
X435D01*
X423Y1235D01*
Y1212D01*
X435Y1200D01*
X458D01*
X470Y1212D01*
X608Y917D02*
X620Y905D01*
Y882D01*
X608Y870D01*
X562D01*
X550Y882D01*
Y905D01*
X562Y917D01*
X550Y975D02*
X620D01*
X585Y940D01*
Y987D01*
X620Y1057D02*
X608Y1033D01*
X585Y1010D01*
X562D01*
X550Y1022D01*
Y1045D01*
X562Y1057D01*
X573D01*
X585Y1045D01*
Y1010D01*
X410Y1480D02*
X420Y1490D01*
X440D01*
X450Y1480D01*
Y1440D01*
X440Y1430D01*
X420D01*
X410Y1440D01*
X360Y1430D02*
Y1490D01*
X390Y1460D01*
X350D01*
X330Y1490D02*
X290D01*
Y1480D01*
X330Y1440D01*
Y1430D01*
X723Y218D02*
X735Y230D01*
X758D01*
X770Y218D01*
Y172D01*
X758Y160D01*
X735D01*
X723Y172D01*
X665Y160D02*
Y230D01*
X700Y195D01*
X653D01*
X630Y218D02*
X618Y230D01*
X595D01*
X583Y218D01*
Y207D01*
X595Y195D01*
X583Y183D01*
Y172D01*
X595Y160D01*
X618D01*
X630Y172D01*
Y183D01*
X618Y195D01*
X630Y207D01*
Y218D01*
X618Y195D02*
X595D01*
X723Y378D02*
X735Y390D01*
X758D01*
X770Y378D01*
Y332D01*
X758Y320D01*
X735D01*
X723Y332D01*
X665Y320D02*
Y390D01*
X700Y355D01*
X653D01*
X630Y332D02*
X618Y320D01*
X595D01*
X583Y332D01*
Y378D01*
X595Y390D01*
X618D01*
X630Y378D01*
Y367D01*
X618Y355D01*
X583D01*
X1813Y2738D02*
X1825Y2750D01*
X1848D01*
X1860Y2738D01*
Y2692D01*
X1848Y2680D01*
X1825D01*
X1813Y2692D01*
X1743Y2750D02*
X1790D01*
Y2715D01*
X1767Y2727D01*
X1755D01*
X1743Y2715D01*
Y2692D01*
X1755Y2680D01*
X1778D01*
X1790Y2692D01*
X1720Y2680D02*
X1697D01*
X1708D01*
Y2750D01*
X1720Y2738D01*
X1033Y2358D02*
X1045Y2370D01*
X1068D01*
X1080Y2358D01*
Y2312D01*
X1068Y2300D01*
X1045D01*
X1033Y2312D01*
X963Y2370D02*
X1010D01*
Y2335D01*
X987Y2347D01*
X975D01*
X963Y2335D01*
Y2312D01*
X975Y2300D01*
X998D01*
X1010Y2312D01*
X940D02*
X928Y2300D01*
X905D01*
X893Y2312D01*
Y2358D01*
X905Y2370D01*
X928D01*
X940Y2358D01*
Y2347D01*
X928Y2335D01*
X893D01*
X2798Y1477D02*
X2810Y1465D01*
Y1442D01*
X2798Y1430D01*
X2752D01*
X2740Y1442D01*
Y1465D01*
X2752Y1477D01*
X2810Y1547D02*
X2798Y1523D01*
X2775Y1500D01*
X2752D01*
X2740Y1512D01*
Y1535D01*
X2752Y1547D01*
X2763D01*
X2775Y1535D01*
Y1500D01*
X2740Y1617D02*
Y1570D01*
X2787Y1617D01*
X2798D01*
X2810Y1605D01*
Y1582D01*
X2798Y1570D01*
X4860Y2550D02*
X4870Y2560D01*
X4890D01*
X4900Y2550D01*
Y2510D01*
X4890Y2500D01*
X4870D01*
X4860Y2510D01*
X4800Y2560D02*
X4820Y2550D01*
X4840Y2530D01*
Y2510D01*
X4830Y2500D01*
X4810D01*
X4800Y2510D01*
Y2520D01*
X4810Y2530D01*
X4840D01*
X4780Y2560D02*
X4740D01*
Y2550D01*
X4780Y2510D01*
Y2500D01*
X4923Y4038D02*
X4935Y4050D01*
X4958D01*
X4970Y4038D01*
Y3992D01*
X4958Y3980D01*
X4935D01*
X4923Y3992D01*
X4853Y4050D02*
X4877Y4038D01*
X4900Y4015D01*
Y3992D01*
X4888Y3980D01*
X4865D01*
X4853Y3992D01*
Y4003D01*
X4865Y4015D01*
X4900D01*
X4830Y4038D02*
X4818Y4050D01*
X4795D01*
X4783Y4038D01*
Y4027D01*
X4795Y4015D01*
X4783Y4003D01*
Y3992D01*
X4795Y3980D01*
X4818D01*
X4830Y3992D01*
Y4003D01*
X4818Y4015D01*
X4830Y4027D01*
Y4038D01*
X4818Y4015D02*
X4795D01*
X4020Y4310D02*
X4030Y4300D01*
Y4280D01*
X4020Y4270D01*
X3980D01*
X3970Y4280D01*
Y4300D01*
X3980Y4310D01*
X4030Y4370D02*
X4020Y4350D01*
X4000Y4330D01*
X3980D01*
X3970Y4340D01*
Y4360D01*
X3980Y4370D01*
X3990D01*
X4000Y4360D01*
Y4330D01*
X3980Y4390D02*
X3970Y4400D01*
Y4420D01*
X3980Y4430D01*
X4020D01*
X4030Y4420D01*
Y4400D01*
X4020Y4390D01*
X4010D01*
X4000Y4400D01*
Y4430D01*
X3598Y4767D02*
X3610Y4755D01*
Y4732D01*
X3598Y4720D01*
X3552D01*
X3540Y4732D01*
Y4755D01*
X3552Y4767D01*
X3610Y4790D02*
Y4837D01*
X3598D01*
X3552Y4790D01*
X3540D01*
X3598Y4860D02*
X3610Y4872D01*
Y4895D01*
X3598Y4907D01*
X3552D01*
X3540Y4895D01*
Y4872D01*
X3552Y4860D01*
X3598D01*
X4860Y2460D02*
X4870Y2470D01*
X4890D01*
X4900Y2460D01*
Y2420D01*
X4890Y2410D01*
X4870D01*
X4860Y2420D01*
X4840Y2470D02*
X4800D01*
Y2460D01*
X4840Y2420D01*
Y2410D01*
X4780D02*
X4760D01*
X4770D01*
Y2470D01*
X4780Y2460D01*
X4628Y3457D02*
X4640Y3445D01*
Y3422D01*
X4628Y3410D01*
X4582D01*
X4570Y3422D01*
Y3445D01*
X4582Y3457D01*
X4640Y3480D02*
Y3527D01*
X4628D01*
X4582Y3480D01*
X4570D01*
Y3597D02*
Y3550D01*
X4617Y3597D01*
X4628D01*
X4640Y3585D01*
Y3562D01*
X4628Y3550D01*
X3498Y4767D02*
X3510Y4755D01*
Y4732D01*
X3498Y4720D01*
X3452D01*
X3440Y4732D01*
Y4755D01*
X3452Y4767D01*
X3510Y4790D02*
Y4837D01*
X3498D01*
X3452Y4790D01*
X3440D01*
X3498Y4860D02*
X3510Y4872D01*
Y4895D01*
X3498Y4907D01*
X3487D01*
X3475Y4895D01*
Y4883D01*
Y4895D01*
X3463Y4907D01*
X3452D01*
X3440Y4895D01*
Y4872D01*
X3452Y4860D01*
X3900Y4590D02*
X3910Y4600D01*
X3930D01*
X3940Y4590D01*
Y4550D01*
X3930Y4540D01*
X3910D01*
X3900Y4550D01*
X3880Y4600D02*
X3840D01*
Y4590D01*
X3880Y4550D01*
Y4540D01*
X3790D02*
Y4600D01*
X3820Y4570D01*
X3780D01*
X3900Y4500D02*
X3910Y4510D01*
X3930D01*
X3940Y4500D01*
Y4460D01*
X3930Y4450D01*
X3910D01*
X3900Y4460D01*
X3880Y4510D02*
X3840D01*
Y4500D01*
X3880Y4460D01*
Y4450D01*
X3780Y4510D02*
X3820D01*
Y4480D01*
X3800Y4490D01*
X3790D01*
X3780Y4480D01*
Y4460D01*
X3790Y4450D01*
X3810D01*
X3820Y4460D01*
X3900Y4410D02*
X3910Y4420D01*
X3930D01*
X3940Y4410D01*
Y4370D01*
X3930Y4360D01*
X3910D01*
X3900Y4370D01*
X3880Y4420D02*
X3840D01*
Y4410D01*
X3880Y4370D01*
Y4360D01*
X3780Y4420D02*
X3800Y4410D01*
X3820Y4390D01*
Y4370D01*
X3810Y4360D01*
X3790D01*
X3780Y4370D01*
Y4380D01*
X3790Y4390D01*
X3820D01*
X2638Y2597D02*
X2650Y2585D01*
Y2562D01*
X2638Y2550D01*
X2592D01*
X2580Y2562D01*
Y2585D01*
X2592Y2597D01*
X2650Y2620D02*
Y2667D01*
X2638D01*
X2592Y2620D01*
X2580D01*
X2650Y2690D02*
Y2737D01*
X2638D01*
X2592Y2690D01*
X2580D01*
X2378Y2397D02*
X2390Y2385D01*
Y2362D01*
X2378Y2350D01*
X2332D01*
X2320Y2362D01*
Y2385D01*
X2332Y2397D01*
X2390Y2420D02*
Y2467D01*
X2378D01*
X2332Y2420D01*
X2320D01*
X2378Y2490D02*
X2390Y2502D01*
Y2525D01*
X2378Y2537D01*
X2367D01*
X2355Y2525D01*
X2343Y2537D01*
X2332D01*
X2320Y2525D01*
Y2502D01*
X2332Y2490D01*
X2343D01*
X2355Y2502D01*
X2367Y2490D01*
X2378D01*
X2355Y2502D02*
Y2525D01*
X3493Y1848D02*
X3505Y1860D01*
X3528D01*
X3540Y1848D01*
Y1802D01*
X3528Y1790D01*
X3505D01*
X3493Y1802D01*
X3470Y1848D02*
X3458Y1860D01*
X3435D01*
X3423Y1848D01*
Y1837D01*
X3435Y1825D01*
X3423Y1813D01*
Y1802D01*
X3435Y1790D01*
X3458D01*
X3470Y1802D01*
Y1813D01*
X3458Y1825D01*
X3470Y1837D01*
Y1848D01*
X3458Y1825D02*
X3435D01*
X3353Y1790D02*
X3400D01*
X3353Y1837D01*
Y1848D01*
X3365Y1860D01*
X3388D01*
X3400Y1848D01*
X3723D02*
X3735Y1860D01*
X3758D01*
X3770Y1848D01*
Y1802D01*
X3758Y1790D01*
X3735D01*
X3723Y1802D01*
X3700Y1848D02*
X3688Y1860D01*
X3665D01*
X3653Y1848D01*
Y1837D01*
X3665Y1825D01*
X3653Y1813D01*
Y1802D01*
X3665Y1790D01*
X3688D01*
X3700Y1802D01*
Y1813D01*
X3688Y1825D01*
X3700Y1837D01*
Y1848D01*
X3688Y1825D02*
X3665D01*
X3630Y1848D02*
X3618Y1860D01*
X3595D01*
X3583Y1848D01*
Y1837D01*
X3595Y1825D01*
X3607D01*
X3595D01*
X3583Y1813D01*
Y1802D01*
X3595Y1790D01*
X3618D01*
X3630Y1802D01*
X3723Y1748D02*
X3735Y1760D01*
X3758D01*
X3770Y1748D01*
Y1702D01*
X3758Y1690D01*
X3735D01*
X3723Y1702D01*
X3700Y1748D02*
X3688Y1760D01*
X3665D01*
X3653Y1748D01*
Y1737D01*
X3665Y1725D01*
X3653Y1713D01*
Y1702D01*
X3665Y1690D01*
X3688D01*
X3700Y1702D01*
Y1713D01*
X3688Y1725D01*
X3700Y1737D01*
Y1748D01*
X3688Y1725D02*
X3665D01*
X3583Y1760D02*
X3630D01*
Y1725D01*
X3607Y1737D01*
X3595D01*
X3583Y1725D01*
Y1702D01*
X3595Y1690D01*
X3618D01*
X3630Y1702D01*
X3193Y1578D02*
X3205Y1590D01*
X3228D01*
X3240Y1578D01*
Y1532D01*
X3228Y1520D01*
X3205D01*
X3193Y1532D01*
X3170Y1578D02*
X3158Y1590D01*
X3135D01*
X3123Y1578D01*
Y1567D01*
X3135Y1555D01*
X3123Y1543D01*
Y1532D01*
X3135Y1520D01*
X3158D01*
X3170Y1532D01*
Y1543D01*
X3158Y1555D01*
X3170Y1567D01*
Y1578D01*
X3158Y1555D02*
X3135D01*
X3053Y1590D02*
X3077Y1578D01*
X3100Y1555D01*
Y1532D01*
X3088Y1520D01*
X3065D01*
X3053Y1532D01*
Y1543D01*
X3065Y1555D01*
X3100D01*
X2323Y2288D02*
X2335Y2300D01*
X2358D01*
X2370Y2288D01*
Y2242D01*
X2358Y2230D01*
X2335D01*
X2323Y2242D01*
X2300Y2288D02*
X2288Y2300D01*
X2265D01*
X2253Y2288D01*
Y2277D01*
X2265Y2265D01*
X2253Y2253D01*
Y2242D01*
X2265Y2230D01*
X2288D01*
X2300Y2242D01*
Y2253D01*
X2288Y2265D01*
X2300Y2277D01*
Y2288D01*
X2288Y2265D02*
X2265D01*
X2230Y2300D02*
X2183D01*
Y2288D01*
X2230Y2242D01*
Y2230D01*
X1868Y2017D02*
X1880Y2005D01*
Y1982D01*
X1868Y1970D01*
X1822D01*
X1810Y1982D01*
Y2005D01*
X1822Y2017D01*
X1868Y2040D02*
X1880Y2052D01*
Y2075D01*
X1868Y2087D01*
X1857D01*
X1845Y2075D01*
X1833Y2087D01*
X1822D01*
X1810Y2075D01*
Y2052D01*
X1822Y2040D01*
X1833D01*
X1845Y2052D01*
X1857Y2040D01*
X1868D01*
X1845Y2052D02*
Y2075D01*
X1868Y2110D02*
X1880Y2122D01*
Y2145D01*
X1868Y2157D01*
X1857D01*
X1845Y2145D01*
X1833Y2157D01*
X1822D01*
X1810Y2145D01*
Y2122D01*
X1822Y2110D01*
X1833D01*
X1845Y2122D01*
X1857Y2110D01*
X1868D01*
X1845Y2122D02*
Y2145D01*
X2730Y1090D02*
X2740Y1100D01*
X2760D01*
X2770Y1090D01*
Y1050D01*
X2760Y1040D01*
X2740D01*
X2730Y1050D01*
X2710Y1090D02*
X2700Y1100D01*
X2680D01*
X2670Y1090D01*
Y1080D01*
X2680Y1070D01*
X2670Y1060D01*
Y1050D01*
X2680Y1040D01*
X2700D01*
X2710Y1050D01*
Y1060D01*
X2700Y1070D01*
X2710Y1080D01*
Y1090D01*
X2700Y1070D02*
X2680D01*
X2650Y1050D02*
X2640Y1040D01*
X2620D01*
X2610Y1050D01*
Y1090D01*
X2620Y1100D01*
X2640D01*
X2650Y1090D01*
Y1080D01*
X2640Y1070D01*
X2610D01*
X3853Y2248D02*
X3865Y2260D01*
X3888D01*
X3900Y2248D01*
Y2202D01*
X3888Y2190D01*
X3865D01*
X3853Y2202D01*
X3830D02*
X3818Y2190D01*
X3795D01*
X3783Y2202D01*
Y2248D01*
X3795Y2260D01*
X3818D01*
X3830Y2248D01*
Y2237D01*
X3818Y2225D01*
X3783D01*
X3760Y2248D02*
X3748Y2260D01*
X3725D01*
X3713Y2248D01*
Y2202D01*
X3725Y2190D01*
X3748D01*
X3760Y2202D01*
Y2248D01*
X2998Y1807D02*
X3010Y1795D01*
Y1772D01*
X2998Y1760D01*
X2952D01*
X2940Y1772D01*
Y1795D01*
X2952Y1807D01*
Y1830D02*
X2940Y1842D01*
Y1865D01*
X2952Y1877D01*
X2998D01*
X3010Y1865D01*
Y1842D01*
X2998Y1830D01*
X2987D01*
X2975Y1842D01*
Y1877D01*
X2940Y1900D02*
Y1923D01*
Y1912D01*
X3010D01*
X2998Y1900D01*
X3853Y2658D02*
X3865Y2670D01*
X3888D01*
X3900Y2658D01*
Y2612D01*
X3888Y2600D01*
X3865D01*
X3853Y2612D01*
X3830D02*
X3818Y2600D01*
X3795D01*
X3783Y2612D01*
Y2658D01*
X3795Y2670D01*
X3818D01*
X3830Y2658D01*
Y2647D01*
X3818Y2635D01*
X3783D01*
X3713Y2600D02*
X3760D01*
X3713Y2647D01*
Y2658D01*
X3725Y2670D01*
X3748D01*
X3760Y2658D01*
X3193Y1678D02*
X3205Y1690D01*
X3228D01*
X3240Y1678D01*
Y1632D01*
X3228Y1620D01*
X3205D01*
X3193Y1632D01*
X3170D02*
X3158Y1620D01*
X3135D01*
X3123Y1632D01*
Y1678D01*
X3135Y1690D01*
X3158D01*
X3170Y1678D01*
Y1667D01*
X3158Y1655D01*
X3123D01*
X3100Y1678D02*
X3088Y1690D01*
X3065D01*
X3053Y1678D01*
Y1667D01*
X3065Y1655D01*
X3077D01*
X3065D01*
X3053Y1643D01*
Y1632D01*
X3065Y1620D01*
X3088D01*
X3100Y1632D01*
X3128Y2607D02*
X3140Y2595D01*
Y2572D01*
X3128Y2560D01*
X3082D01*
X3070Y2572D01*
Y2595D01*
X3082Y2607D01*
Y2630D02*
X3070Y2642D01*
Y2665D01*
X3082Y2677D01*
X3128D01*
X3140Y2665D01*
Y2642D01*
X3128Y2630D01*
X3117D01*
X3105Y2642D01*
Y2677D01*
X3070Y2735D02*
X3140D01*
X3105Y2700D01*
Y2747D01*
X4363Y1538D02*
X4375Y1550D01*
X4398D01*
X4410Y1538D01*
Y1492D01*
X4398Y1480D01*
X4375D01*
X4363Y1492D01*
X4340D02*
X4328Y1480D01*
X4305D01*
X4293Y1492D01*
Y1538D01*
X4305Y1550D01*
X4328D01*
X4340Y1538D01*
Y1527D01*
X4328Y1515D01*
X4293D01*
X4223Y1550D02*
X4270D01*
Y1515D01*
X4247Y1527D01*
X4235D01*
X4223Y1515D01*
Y1492D01*
X4235Y1480D01*
X4258D01*
X4270Y1492D01*
X2738Y2597D02*
X2750Y2585D01*
Y2562D01*
X2738Y2550D01*
X2692D01*
X2680Y2562D01*
Y2585D01*
X2692Y2597D01*
Y2620D02*
X2680Y2632D01*
Y2655D01*
X2692Y2667D01*
X2738D01*
X2750Y2655D01*
Y2632D01*
X2738Y2620D01*
X2727D01*
X2715Y2632D01*
Y2667D01*
X2750Y2737D02*
X2738Y2713D01*
X2715Y2690D01*
X2692D01*
X2680Y2702D01*
Y2725D01*
X2692Y2737D01*
X2703D01*
X2715Y2725D01*
Y2690D01*
X2738Y2077D02*
X2750Y2065D01*
Y2042D01*
X2738Y2030D01*
X2692D01*
X2680Y2042D01*
Y2065D01*
X2692Y2077D01*
Y2100D02*
X2680Y2112D01*
Y2135D01*
X2692Y2147D01*
X2738D01*
X2750Y2135D01*
Y2112D01*
X2738Y2100D01*
X2727D01*
X2715Y2112D01*
Y2147D01*
X2750Y2170D02*
Y2217D01*
X2738D01*
X2692Y2170D01*
X2680D01*
X2638Y2077D02*
X2650Y2065D01*
Y2042D01*
X2638Y2030D01*
X2592D01*
X2580Y2042D01*
Y2065D01*
X2592Y2077D01*
Y2100D02*
X2580Y2112D01*
Y2135D01*
X2592Y2147D01*
X2638D01*
X2650Y2135D01*
Y2112D01*
X2638Y2100D01*
X2627D01*
X2615Y2112D01*
Y2147D01*
X2638Y2170D02*
X2650Y2182D01*
Y2205D01*
X2638Y2217D01*
X2627D01*
X2615Y2205D01*
X2603Y2217D01*
X2592D01*
X2580Y2205D01*
Y2182D01*
X2592Y2170D01*
X2603D01*
X2615Y2182D01*
X2627Y2170D01*
X2638D01*
X2615Y2182D02*
Y2205D01*
X2738Y2307D02*
X2750Y2295D01*
Y2272D01*
X2738Y2260D01*
X2692D01*
X2680Y2272D01*
Y2295D01*
X2692Y2307D01*
Y2330D02*
X2680Y2342D01*
Y2365D01*
X2692Y2377D01*
X2738D01*
X2750Y2365D01*
Y2342D01*
X2738Y2330D01*
X2727D01*
X2715Y2342D01*
Y2377D01*
X2692Y2400D02*
X2680Y2412D01*
Y2435D01*
X2692Y2447D01*
X2738D01*
X2750Y2435D01*
Y2412D01*
X2738Y2400D01*
X2727D01*
X2715Y2412D01*
Y2447D01*
X2638Y2307D02*
X2650Y2295D01*
Y2272D01*
X2638Y2260D01*
X2592D01*
X2580Y2272D01*
Y2295D01*
X2592Y2307D01*
X2580Y2330D02*
Y2353D01*
Y2342D01*
X2650D01*
X2638Y2330D01*
Y2388D02*
X2650Y2400D01*
Y2423D01*
X2638Y2435D01*
X2592D01*
X2580Y2423D01*
Y2400D01*
X2592Y2388D01*
X2638D01*
Y2458D02*
X2650Y2470D01*
Y2493D01*
X2638Y2505D01*
X2592D01*
X2580Y2493D01*
Y2470D01*
X2592Y2458D01*
X2638D01*
X2698Y1777D02*
X2710Y1765D01*
Y1742D01*
X2698Y1730D01*
X2652D01*
X2640Y1742D01*
Y1765D01*
X2652Y1777D01*
X2640Y1800D02*
Y1823D01*
Y1812D01*
X2710D01*
X2698Y1800D01*
Y1858D02*
X2710Y1870D01*
Y1893D01*
X2698Y1905D01*
X2652D01*
X2640Y1893D01*
Y1870D01*
X2652Y1858D01*
X2698D01*
X2640Y1928D02*
Y1952D01*
Y1940D01*
X2710D01*
X2698Y1928D01*
X3423Y2148D02*
X3435Y2160D01*
X3458D01*
X3470Y2148D01*
Y2102D01*
X3458Y2090D01*
X3435D01*
X3423Y2102D01*
X3400Y2090D02*
X3377D01*
X3388D01*
Y2160D01*
X3400Y2148D01*
X3342D02*
X3330Y2160D01*
X3307D01*
X3295Y2148D01*
Y2102D01*
X3307Y2090D01*
X3330D01*
X3342Y2102D01*
Y2148D01*
X3272Y2102D02*
X3260Y2090D01*
X3237D01*
X3225Y2102D01*
Y2148D01*
X3237Y2160D01*
X3260D01*
X3272Y2148D01*
Y2137D01*
X3260Y2125D01*
X3225D01*
X4045Y840D02*
X4055Y830D01*
Y810D01*
X4045Y800D01*
X4005D01*
X3995Y810D01*
Y830D01*
X4005Y840D01*
X3995Y860D02*
Y880D01*
Y870D01*
X4055D01*
X4045Y860D01*
X3995Y910D02*
Y930D01*
Y920D01*
X4055D01*
X4045Y910D01*
Y960D02*
X4055Y970D01*
Y990D01*
X4045Y1000D01*
X4005D01*
X3995Y990D01*
Y970D01*
X4005Y960D01*
X4045D01*
X3617Y604D02*
X3628Y615D01*
X3649D01*
X3660Y604D01*
Y561D01*
X3649Y550D01*
X3628D01*
X3617Y561D01*
X3595Y550D02*
X3573D01*
X3584D01*
Y615D01*
X3595Y604D01*
X3541Y550D02*
X3519D01*
X3530D01*
Y615D01*
X3541Y604D01*
X3487Y550D02*
X3465D01*
X3476D01*
Y615D01*
X3487Y604D01*
X3363Y1478D02*
X3375Y1490D01*
X3398D01*
X3410Y1478D01*
Y1432D01*
X3398Y1420D01*
X3375D01*
X3363Y1432D01*
X3340Y1420D02*
X3317D01*
X3328D01*
Y1490D01*
X3340Y1478D01*
X3282Y1420D02*
X3258D01*
X3270D01*
Y1490D01*
X3282Y1478D01*
X3177Y1420D02*
X3223D01*
X3177Y1467D01*
Y1478D01*
X3188Y1490D01*
X3212D01*
X3223Y1478D01*
X1758Y3837D02*
X1770Y3825D01*
Y3802D01*
X1758Y3790D01*
X1712D01*
X1700Y3802D01*
Y3825D01*
X1712Y3837D01*
X1700Y3860D02*
Y3883D01*
Y3872D01*
X1770D01*
X1758Y3860D01*
X1700Y3918D02*
Y3942D01*
Y3930D01*
X1770D01*
X1758Y3918D01*
Y3977D02*
X1770Y3988D01*
Y4012D01*
X1758Y4023D01*
X1747D01*
X1735Y4012D01*
Y4000D01*
Y4012D01*
X1723Y4023D01*
X1712D01*
X1700Y4012D01*
Y3988D01*
X1712Y3977D01*
X1963Y3228D02*
X1975Y3240D01*
X1998D01*
X2010Y3228D01*
Y3182D01*
X1998Y3170D01*
X1975D01*
X1963Y3182D01*
X1940Y3170D02*
X1917D01*
X1928D01*
Y3240D01*
X1940Y3228D01*
X1882Y3170D02*
X1858D01*
X1870D01*
Y3240D01*
X1882Y3228D01*
X1788Y3170D02*
Y3240D01*
X1823Y3205D01*
X1777D01*
X1040Y2830D02*
X1050Y2820D01*
Y2800D01*
X1040Y2790D01*
X1000D01*
X990Y2800D01*
Y2820D01*
X1000Y2830D01*
X990Y2850D02*
Y2870D01*
Y2860D01*
X1050D01*
X1040Y2850D01*
X990Y2940D02*
Y2900D01*
X1030Y2940D01*
X1040D01*
X1050Y2930D01*
Y2910D01*
X1040Y2900D01*
Y2960D02*
X1050Y2970D01*
Y2990D01*
X1040Y3000D01*
X1000D01*
X990Y2990D01*
Y2970D01*
X1000Y2960D01*
X1040D01*
X1668Y387D02*
X1680Y375D01*
Y352D01*
X1668Y340D01*
X1622D01*
X1610Y352D01*
Y375D01*
X1622Y387D01*
X1610Y410D02*
Y433D01*
Y422D01*
X1680D01*
X1668Y410D01*
X1610Y515D02*
Y468D01*
X1657Y515D01*
X1668D01*
X1680Y503D01*
Y480D01*
X1668Y468D01*
X1610Y585D02*
Y538D01*
X1657Y585D01*
X1668D01*
X1680Y573D01*
Y550D01*
X1668Y538D01*
X1768Y387D02*
X1780Y375D01*
Y352D01*
X1768Y340D01*
X1722D01*
X1710Y352D01*
Y375D01*
X1722Y387D01*
X1710Y410D02*
Y433D01*
Y422D01*
X1780D01*
X1768Y410D01*
X1710Y515D02*
Y468D01*
X1757Y515D01*
X1768D01*
X1780Y503D01*
Y480D01*
X1768Y468D01*
Y538D02*
X1780Y550D01*
Y573D01*
X1768Y585D01*
X1757D01*
X1745Y573D01*
Y562D01*
Y573D01*
X1733Y585D01*
X1722D01*
X1710Y573D01*
Y550D01*
X1722Y538D01*
X4563Y2568D02*
X4575Y2580D01*
X4598D01*
X4610Y2568D01*
Y2522D01*
X4598Y2510D01*
X4575D01*
X4563Y2522D01*
X4540Y2510D02*
X4517D01*
X4528D01*
Y2580D01*
X4540Y2568D01*
X4435Y2510D02*
X4482D01*
X4435Y2557D01*
Y2568D01*
X4447Y2580D01*
X4470D01*
X4482Y2568D01*
X4377Y2510D02*
Y2580D01*
X4412Y2545D01*
X4365D01*
X4403Y568D02*
X4415Y580D01*
X4438D01*
X4450Y568D01*
Y522D01*
X4438Y510D01*
X4415D01*
X4403Y522D01*
X4380Y510D02*
X4357D01*
X4368D01*
Y580D01*
X4380Y568D01*
X4275Y510D02*
X4322D01*
X4275Y557D01*
Y568D01*
X4287Y580D01*
X4310D01*
X4322Y568D01*
X4205Y580D02*
X4252D01*
Y545D01*
X4228Y557D01*
X4217D01*
X4205Y545D01*
Y522D01*
X4217Y510D01*
X4240D01*
X4252Y522D01*
X4590Y70D02*
X4600Y80D01*
X4620D01*
X4630Y70D01*
Y30D01*
X4620Y20D01*
X4600D01*
X4590Y30D01*
X4570Y20D02*
X4550D01*
X4560D01*
Y80D01*
X4570Y70D01*
X4480Y20D02*
X4520D01*
X4480Y60D01*
Y70D01*
X4490Y80D01*
X4510D01*
X4520Y70D01*
X4420Y80D02*
X4440Y70D01*
X4460Y50D01*
Y30D01*
X4450Y20D01*
X4430D01*
X4420Y30D01*
Y40D01*
X4430Y50D01*
X4460D01*
X4958Y1547D02*
X4970Y1535D01*
Y1512D01*
X4958Y1500D01*
X4912D01*
X4900Y1512D01*
Y1535D01*
X4912Y1547D01*
X4900Y1570D02*
Y1593D01*
Y1582D01*
X4970D01*
X4958Y1570D01*
Y1628D02*
X4970Y1640D01*
Y1663D01*
X4958Y1675D01*
X4947D01*
X4935Y1663D01*
Y1652D01*
Y1663D01*
X4923Y1675D01*
X4912D01*
X4900Y1663D01*
Y1640D01*
X4912Y1628D01*
X4900Y1745D02*
Y1698D01*
X4947Y1745D01*
X4958D01*
X4970Y1733D01*
Y1710D01*
X4958Y1698D01*
X3868Y1477D02*
X3880Y1465D01*
Y1442D01*
X3868Y1430D01*
X3822D01*
X3810Y1442D01*
Y1465D01*
X3822Y1477D01*
X3810Y1500D02*
Y1523D01*
Y1512D01*
X3880D01*
X3868Y1500D01*
Y1558D02*
X3880Y1570D01*
Y1593D01*
X3868Y1605D01*
X3857D01*
X3845Y1593D01*
Y1582D01*
Y1593D01*
X3833Y1605D01*
X3822D01*
X3810Y1593D01*
Y1570D01*
X3822Y1558D01*
X3810Y1663D02*
X3880D01*
X3845Y1628D01*
Y1675D01*
X2820Y3650D02*
X2830Y3660D01*
X2850D01*
X2860Y3650D01*
Y3610D01*
X2850Y3600D01*
X2830D01*
X2820Y3610D01*
X2800Y3600D02*
X2780D01*
X2790D01*
Y3660D01*
X2800Y3650D01*
X2750D02*
X2740Y3660D01*
X2720D01*
X2710Y3650D01*
Y3640D01*
X2720Y3630D01*
X2730D01*
X2720D01*
X2710Y3620D01*
Y3610D01*
X2720Y3600D01*
X2740D01*
X2750Y3610D01*
X2690Y3660D02*
X2650D01*
Y3650D01*
X2690Y3610D01*
Y3600D01*
X3163Y3118D02*
X3175Y3130D01*
X3198D01*
X3210Y3118D01*
Y3072D01*
X3198Y3060D01*
X3175D01*
X3163Y3072D01*
X3140Y3060D02*
X3117D01*
X3128D01*
Y3130D01*
X3140Y3118D01*
X3047Y3060D02*
Y3130D01*
X3082Y3095D01*
X3035D01*
X3012Y3118D02*
X3000Y3130D01*
X2977D01*
X2965Y3118D01*
Y3072D01*
X2977Y3060D01*
X3000D01*
X3012Y3072D01*
Y3118D01*
X2620Y3580D02*
X2630Y3590D01*
X2650D01*
X2660Y3580D01*
Y3540D01*
X2650Y3530D01*
X2630D01*
X2620Y3540D01*
X2600Y3530D02*
X2580D01*
X2590D01*
Y3590D01*
X2600Y3580D01*
X2520Y3530D02*
Y3590D01*
X2550Y3560D01*
X2510D01*
X2490Y3580D02*
X2480Y3590D01*
X2460D01*
X2450Y3580D01*
Y3570D01*
X2460Y3560D01*
X2470D01*
X2460D01*
X2450Y3550D01*
Y3540D01*
X2460Y3530D01*
X2480D01*
X2490Y3540D01*
X4123Y3658D02*
X4135Y3670D01*
X4158D01*
X4170Y3658D01*
Y3612D01*
X4158Y3600D01*
X4135D01*
X4123Y3612D01*
X4100Y3600D02*
X4077D01*
X4088D01*
Y3670D01*
X4100Y3658D01*
X3995Y3670D02*
X4042D01*
Y3635D01*
X4018Y3647D01*
X4007D01*
X3995Y3635D01*
Y3612D01*
X4007Y3600D01*
X4030D01*
X4042Y3612D01*
X3972Y3658D02*
X3960Y3670D01*
X3937D01*
X3925Y3658D01*
Y3612D01*
X3937Y3600D01*
X3960D01*
X3972Y3612D01*
Y3658D01*
X3893Y3928D02*
X3905Y3940D01*
X3928D01*
X3940Y3928D01*
Y3882D01*
X3928Y3870D01*
X3905D01*
X3893Y3882D01*
X3870Y3870D02*
X3847D01*
X3858D01*
Y3940D01*
X3870Y3928D01*
X3765Y3940D02*
X3812D01*
Y3905D01*
X3788Y3917D01*
X3777D01*
X3765Y3905D01*
Y3882D01*
X3777Y3870D01*
X3800D01*
X3812Y3882D01*
X3742Y3870D02*
X3718D01*
X3730D01*
Y3940D01*
X3742Y3928D01*
X3518Y2557D02*
X3530Y2545D01*
Y2522D01*
X3518Y2510D01*
X3472D01*
X3460Y2522D01*
Y2545D01*
X3472Y2557D01*
X3460Y2580D02*
Y2603D01*
Y2592D01*
X3530D01*
X3518Y2580D01*
X3530Y2685D02*
Y2638D01*
X3495D01*
X3507Y2662D01*
Y2673D01*
X3495Y2685D01*
X3472D01*
X3460Y2673D01*
Y2650D01*
X3472Y2638D01*
X3518Y2708D02*
X3530Y2720D01*
Y2743D01*
X3518Y2755D01*
X3507D01*
X3495Y2743D01*
Y2732D01*
Y2743D01*
X3483Y2755D01*
X3472D01*
X3460Y2743D01*
Y2720D01*
X3472Y2708D01*
X3618Y2557D02*
X3630Y2545D01*
Y2522D01*
X3618Y2510D01*
X3572D01*
X3560Y2522D01*
Y2545D01*
X3572Y2557D01*
X3560Y2580D02*
Y2603D01*
Y2592D01*
X3630D01*
X3618Y2580D01*
X3630Y2685D02*
Y2638D01*
X3595D01*
X3607Y2662D01*
Y2673D01*
X3595Y2685D01*
X3572D01*
X3560Y2673D01*
Y2650D01*
X3572Y2638D01*
X3560Y2743D02*
X3630D01*
X3595Y2708D01*
Y2755D01*
X4008Y3377D02*
X4020Y3365D01*
Y3342D01*
X4008Y3330D01*
X3962D01*
X3950Y3342D01*
Y3365D01*
X3962Y3377D01*
X3950Y3400D02*
Y3423D01*
Y3412D01*
X4020D01*
X4008Y3400D01*
X4020Y3505D02*
Y3458D01*
X3985D01*
X3997Y3482D01*
Y3493D01*
X3985Y3505D01*
X3962D01*
X3950Y3493D01*
Y3470D01*
X3962Y3458D01*
X4020Y3575D02*
Y3528D01*
X3985D01*
X3997Y3552D01*
Y3563D01*
X3985Y3575D01*
X3962D01*
X3950Y3563D01*
Y3540D01*
X3962Y3528D01*
X4348Y2727D02*
X4360Y2715D01*
Y2692D01*
X4348Y2680D01*
X4302D01*
X4290Y2692D01*
Y2715D01*
X4302Y2727D01*
X4290Y2750D02*
Y2773D01*
Y2762D01*
X4360D01*
X4348Y2750D01*
X4360Y2855D02*
Y2808D01*
X4325D01*
X4337Y2832D01*
Y2843D01*
X4325Y2855D01*
X4302D01*
X4290Y2843D01*
Y2820D01*
X4302Y2808D01*
X4360Y2925D02*
X4348Y2902D01*
X4325Y2878D01*
X4302D01*
X4290Y2890D01*
Y2913D01*
X4302Y2925D01*
X4313D01*
X4325Y2913D01*
Y2878D01*
X4353Y3578D02*
X4365Y3590D01*
X4388D01*
X4400Y3578D01*
Y3532D01*
X4388Y3520D01*
X4365D01*
X4353Y3532D01*
X4330Y3520D02*
X4307D01*
X4318D01*
Y3590D01*
X4330Y3578D01*
X4225Y3590D02*
X4272D01*
Y3555D01*
X4248Y3567D01*
X4237D01*
X4225Y3555D01*
Y3532D01*
X4237Y3520D01*
X4260D01*
X4272Y3532D01*
X4202Y3590D02*
X4155D01*
Y3578D01*
X4202Y3532D01*
Y3520D01*
X770Y2360D02*
Y2290D01*
X735D01*
X723Y2302D01*
Y2348D01*
X735Y2360D01*
X770D01*
X665Y2290D02*
Y2360D01*
X700Y2325D01*
X653D01*
X3420Y4750D02*
X3350D01*
Y4785D01*
X3362Y4797D01*
X3408D01*
X3420Y4785D01*
Y4750D01*
Y4867D02*
Y4820D01*
X3385D01*
X3397Y4843D01*
Y4855D01*
X3385Y4867D01*
X3362D01*
X3350Y4855D01*
Y4832D01*
X3362Y4820D01*
X1730Y2870D02*
X1660D01*
Y2905D01*
X1672Y2917D01*
X1718D01*
X1730Y2905D01*
Y2870D01*
X1660Y2940D02*
Y2963D01*
Y2952D01*
X1730D01*
X1718Y2940D01*
Y2998D02*
X1730Y3010D01*
Y3033D01*
X1718Y3045D01*
X1672D01*
X1660Y3033D01*
Y3010D01*
X1672Y2998D01*
X1718D01*
X2580Y3110D02*
X2520D01*
Y3140D01*
X2530Y3150D01*
X2570D01*
X2580Y3140D01*
Y3110D01*
X2520Y3170D02*
Y3190D01*
Y3180D01*
X2580D01*
X2570Y3170D01*
X2580Y3260D02*
Y3220D01*
X2550D01*
X2560Y3240D01*
Y3250D01*
X2550Y3260D01*
X2530D01*
X2520Y3250D01*
Y3230D01*
X2530Y3220D01*
X2610Y3490D02*
Y3430D01*
X2580D01*
X2570Y3440D01*
Y3480D01*
X2580Y3490D01*
X2610D01*
X2550Y3430D02*
X2530D01*
X2540D01*
Y3490D01*
X2550Y3480D01*
X2460Y3490D02*
X2480Y3480D01*
X2500Y3460D01*
Y3440D01*
X2490Y3430D01*
X2470D01*
X2460Y3440D01*
Y3450D01*
X2470Y3460D01*
X2500D01*
X3600Y3160D02*
Y3090D01*
X3565D01*
X3553Y3102D01*
Y3148D01*
X3565Y3160D01*
X3600D01*
X3530Y3090D02*
X3507D01*
X3518D01*
Y3160D01*
X3530Y3148D01*
X3472Y3160D02*
X3425D01*
Y3148D01*
X3472Y3102D01*
Y3090D01*
X3920Y3130D02*
Y3060D01*
X3885D01*
X3873Y3072D01*
Y3118D01*
X3885Y3130D01*
X3920D01*
X3850Y3060D02*
X3827D01*
X3838D01*
Y3130D01*
X3850Y3118D01*
X3792D02*
X3780Y3130D01*
X3757D01*
X3745Y3118D01*
Y3107D01*
X3757Y3095D01*
X3745Y3083D01*
Y3072D01*
X3757Y3060D01*
X3780D01*
X3792Y3072D01*
Y3083D01*
X3780Y3095D01*
X3792Y3107D01*
Y3118D01*
X3780Y3095D02*
X3757D01*
X4240Y3900D02*
Y3860D01*
X4210D01*
Y3880D01*
Y3860D01*
X4180D01*
X4240Y3920D02*
X4180D01*
Y3950D01*
X4190Y3960D01*
X4200D01*
X4210Y3950D01*
Y3920D01*
Y3950D01*
X4220Y3960D01*
X4230D01*
X4240Y3950D01*
Y3920D01*
X4230Y3980D02*
X4240Y3990D01*
Y4010D01*
X4230Y4020D01*
X4220D01*
X4210Y4010D01*
Y4000D01*
Y4010D01*
X4200Y4020D01*
X4190D01*
X4180Y4010D01*
Y3990D01*
X4190Y3980D01*
X2113Y1530D02*
X2160D01*
Y1495D01*
X2137D01*
X2160D01*
Y1460D01*
X2090Y1530D02*
Y1460D01*
X2055D01*
X2043Y1472D01*
Y1483D01*
X2055Y1495D01*
X2090D01*
X2055D01*
X2043Y1507D01*
Y1518D01*
X2055Y1530D01*
X2090D01*
X1985Y1460D02*
Y1530D01*
X2020Y1495D01*
X1973D01*
X3723Y1660D02*
X3770D01*
Y1625D01*
X3747D01*
X3770D01*
Y1590D01*
X3700Y1660D02*
Y1590D01*
X3665D01*
X3653Y1602D01*
Y1613D01*
X3665Y1625D01*
X3700D01*
X3665D01*
X3653Y1637D01*
Y1648D01*
X3665Y1660D01*
X3700D01*
X3583D02*
X3630D01*
Y1625D01*
X3607Y1637D01*
X3595D01*
X3583Y1625D01*
Y1602D01*
X3595Y1590D01*
X3618D01*
X3630Y1602D01*
X4110Y4220D02*
X4150D01*
Y4190D01*
X4130D01*
X4150D01*
Y4160D01*
X4090Y4220D02*
Y4160D01*
X4060D01*
X4050Y4170D01*
Y4180D01*
X4060Y4190D01*
X4090D01*
X4060D01*
X4050Y4200D01*
Y4210D01*
X4060Y4220D01*
X4090D01*
X4030D02*
X3990D01*
Y4210D01*
X4030Y4170D01*
Y4160D01*
X2850Y3280D02*
X2780D01*
Y3327D01*
Y3397D02*
Y3350D01*
X2827Y3397D01*
X2838D01*
X2850Y3385D01*
Y3362D01*
X2838Y3350D01*
X2220Y4740D02*
Y4810D01*
X2185D01*
X2173Y4798D01*
Y4775D01*
X2185Y4763D01*
X2220D01*
X2103Y4810D02*
X2150D01*
Y4775D01*
X2127Y4787D01*
X2115D01*
X2103Y4775D01*
Y4752D01*
X2115Y4740D01*
X2138D01*
X2150Y4752D01*
X2840Y90D02*
Y160D01*
X2805D01*
X2793Y148D01*
Y125D01*
X2805Y113D01*
X2840D01*
X2723Y160D02*
X2747Y148D01*
X2770Y125D01*
Y102D01*
X2758Y90D01*
X2735D01*
X2723Y102D01*
Y113D01*
X2735Y125D01*
X2770D01*
X2863Y4852D02*
Y4898D01*
X2875Y4910D01*
X2898D01*
X2910Y4898D01*
Y4852D01*
X2898Y4840D01*
X2875D01*
X2887Y4863D02*
X2863Y4840D01*
X2875D02*
X2863Y4852D01*
X2840Y4840D02*
X2817D01*
X2828D01*
Y4910D01*
X2840Y4898D01*
X4923Y3892D02*
Y3938D01*
X4935Y3950D01*
X4958D01*
X4970Y3938D01*
Y3892D01*
X4958Y3880D01*
X4935D01*
X4947Y3903D02*
X4923Y3880D01*
X4935D02*
X4923Y3892D01*
X4900D02*
X4888Y3880D01*
X4865D01*
X4853Y3892D01*
Y3938D01*
X4865Y3950D01*
X4888D01*
X4900Y3938D01*
Y3927D01*
X4888Y3915D01*
X4853D01*
X453Y3702D02*
Y3748D01*
X465Y3760D01*
X488D01*
X500Y3748D01*
Y3702D01*
X488Y3690D01*
X465D01*
X477Y3713D02*
X453Y3690D01*
X465D02*
X453Y3702D01*
X430Y3690D02*
X407D01*
X418D01*
Y3760D01*
X430Y3748D01*
X372D02*
X360Y3760D01*
X337D01*
X325Y3748D01*
Y3702D01*
X337Y3690D01*
X360D01*
X372Y3702D01*
Y3748D01*
X432Y4047D02*
X478D01*
X490Y4035D01*
Y4012D01*
X478Y4000D01*
X432D01*
X420Y4012D01*
Y4035D01*
X443Y4023D02*
X420Y4047D01*
Y4035D02*
X432Y4047D01*
X420Y4070D02*
Y4093D01*
Y4082D01*
X490D01*
X478Y4070D01*
X420Y4128D02*
Y4152D01*
Y4140D01*
X490D01*
X478Y4128D01*
X432Y4587D02*
X478D01*
X490Y4575D01*
Y4552D01*
X478Y4540D01*
X432D01*
X420Y4552D01*
Y4575D01*
X443Y4563D02*
X420Y4587D01*
Y4575D02*
X432Y4587D01*
X420Y4610D02*
Y4633D01*
Y4622D01*
X490D01*
X478Y4610D01*
X420Y4715D02*
Y4668D01*
X467Y4715D01*
X478D01*
X490Y4703D01*
Y4680D01*
X478Y4668D01*
X3260Y2560D02*
X3330D01*
Y2595D01*
X3318Y2607D01*
X3295D01*
X3283Y2595D01*
Y2560D01*
Y2583D02*
X3260Y2607D01*
Y2630D02*
Y2653D01*
Y2642D01*
X3330D01*
X3318Y2630D01*
Y2688D02*
X3330Y2700D01*
Y2723D01*
X3318Y2735D01*
X3272D01*
X3260Y2723D01*
Y2700D01*
X3272Y2688D01*
X3318D01*
X2860Y2590D02*
X2930D01*
Y2625D01*
X2918Y2637D01*
X2895D01*
X2883Y2625D01*
Y2590D01*
Y2613D02*
X2860Y2637D01*
Y2660D02*
Y2683D01*
Y2672D01*
X2930D01*
X2918Y2660D01*
X2860Y2718D02*
Y2742D01*
Y2730D01*
X2930D01*
X2918Y2718D01*
X2640Y2940D02*
X2710D01*
Y2975D01*
X2698Y2987D01*
X2675D01*
X2663Y2975D01*
Y2940D01*
Y2963D02*
X2640Y2987D01*
Y3010D02*
Y3033D01*
Y3022D01*
X2710D01*
X2698Y3010D01*
X2640Y3115D02*
Y3068D01*
X2687Y3115D01*
X2698D01*
X2710Y3103D01*
Y3080D01*
X2698Y3068D01*
X2320Y1360D02*
Y1430D01*
X2285D01*
X2273Y1418D01*
Y1395D01*
X2285Y1383D01*
X2320D01*
X2297D02*
X2273Y1360D01*
X2250D02*
X2227D01*
X2238D01*
Y1430D01*
X2250Y1418D01*
X2157Y1360D02*
Y1430D01*
X2192Y1395D01*
X2145D01*
X2960Y1950D02*
Y2020D01*
X2925D01*
X2913Y2008D01*
Y1985D01*
X2925Y1973D01*
X2960D01*
X2937D02*
X2913Y1950D01*
X2890D02*
X2867D01*
X2878D01*
Y2020D01*
X2890Y2008D01*
X2785Y2020D02*
X2832D01*
Y1985D01*
X2808Y1997D01*
X2797D01*
X2785Y1985D01*
Y1962D01*
X2797Y1950D01*
X2820D01*
X2832Y1962D01*
X3900Y2390D02*
Y2460D01*
X3865D01*
X3853Y2448D01*
Y2425D01*
X3865Y2413D01*
X3900D01*
X3877D02*
X3853Y2390D01*
X3830D02*
X3807D01*
X3818D01*
Y2460D01*
X3830Y2448D01*
X3725Y2460D02*
X3748Y2448D01*
X3772Y2425D01*
Y2402D01*
X3760Y2390D01*
X3737D01*
X3725Y2402D01*
Y2413D01*
X3737Y2425D01*
X3772D01*
X3900Y2290D02*
Y2360D01*
X3865D01*
X3853Y2348D01*
Y2325D01*
X3865Y2313D01*
X3900D01*
X3877D02*
X3853Y2290D01*
X3830D02*
X3807D01*
X3818D01*
Y2360D01*
X3830Y2348D01*
X3772Y2360D02*
X3725D01*
Y2348D01*
X3772Y2302D01*
Y2290D01*
X4410Y1580D02*
Y1650D01*
X4375D01*
X4363Y1638D01*
Y1615D01*
X4375Y1603D01*
X4410D01*
X4387D02*
X4363Y1580D01*
X4340D02*
X4317D01*
X4328D01*
Y1650D01*
X4340Y1638D01*
X4282Y1592D02*
X4270Y1580D01*
X4247D01*
X4235Y1592D01*
Y1638D01*
X4247Y1650D01*
X4270D01*
X4282Y1638D01*
Y1627D01*
X4270Y1615D01*
X4235D01*
X3900Y1990D02*
Y2060D01*
X3865D01*
X3853Y2048D01*
Y2025D01*
X3865Y2013D01*
X3900D01*
X3877D02*
X3853Y1990D01*
X3783D02*
X3830D01*
X3783Y2037D01*
Y2048D01*
X3795Y2060D01*
X3818D01*
X3830Y2048D01*
X3760D02*
X3748Y2060D01*
X3725D01*
X3713Y2048D01*
Y2002D01*
X3725Y1990D01*
X3748D01*
X3760Y2002D01*
Y2048D01*
X2690Y4840D02*
Y4910D01*
X2655D01*
X2643Y4898D01*
Y4875D01*
X2655Y4863D01*
X2690D01*
X2667D02*
X2643Y4840D01*
X2573D02*
X2620D01*
X2573Y4887D01*
Y4898D01*
X2585Y4910D01*
X2608D01*
X2620Y4898D01*
X2550Y4840D02*
X2527D01*
X2538D01*
Y4910D01*
X2550Y4898D01*
X3300Y4210D02*
X3365D01*
Y4242D01*
X3354Y4253D01*
X3332D01*
X3322Y4242D01*
Y4210D01*
Y4232D02*
X3300Y4253D01*
Y4318D02*
Y4275D01*
X3343Y4318D01*
X3354D01*
X3365Y4307D01*
Y4286D01*
X3354Y4275D01*
X3300Y4383D02*
Y4340D01*
X3343Y4383D01*
X3354D01*
X3365Y4372D01*
Y4351D01*
X3354Y4340D01*
X3200Y3980D02*
Y4045D01*
X3168D01*
X3157Y4034D01*
Y4012D01*
X3168Y4002D01*
X3200D01*
X3178D02*
X3157Y3980D01*
X3092D02*
X3135D01*
X3092Y4023D01*
Y4034D01*
X3103Y4045D01*
X3124D01*
X3135Y4034D01*
X3070D02*
X3059Y4045D01*
X3038D01*
X3027Y4034D01*
Y4023D01*
X3038Y4012D01*
X3048D01*
X3038D01*
X3027Y4002D01*
Y3991D01*
X3038Y3980D01*
X3059D01*
X3070Y3991D01*
X2910Y4730D02*
Y4800D01*
X2875D01*
X2863Y4788D01*
Y4765D01*
X2875Y4753D01*
X2910D01*
X2887D02*
X2863Y4730D01*
X2793D02*
X2840D01*
X2793Y4777D01*
Y4788D01*
X2805Y4800D01*
X2828D01*
X2840Y4788D01*
X2735Y4730D02*
Y4800D01*
X2770Y4765D01*
X2723D01*
X2690Y4730D02*
Y4800D01*
X2655D01*
X2643Y4788D01*
Y4765D01*
X2655Y4753D01*
X2690D01*
X2667D02*
X2643Y4730D01*
X2573D02*
X2620D01*
X2573Y4777D01*
Y4788D01*
X2585Y4800D01*
X2608D01*
X2620Y4788D01*
X2503Y4800D02*
X2550D01*
Y4765D01*
X2527Y4777D01*
X2515D01*
X2503Y4765D01*
Y4742D01*
X2515Y4730D01*
X2538D01*
X2550Y4742D01*
X3280Y4010D02*
X3345D01*
Y4042D01*
X3334Y4053D01*
X3312D01*
X3302Y4042D01*
Y4010D01*
Y4032D02*
X3280Y4053D01*
Y4118D02*
Y4075D01*
X3323Y4118D01*
X3334D01*
X3345Y4107D01*
Y4086D01*
X3334Y4075D01*
X3345Y4183D02*
X3334Y4162D01*
X3312Y4140D01*
X3291D01*
X3280Y4151D01*
Y4172D01*
X3291Y4183D01*
X3302D01*
X3312Y4172D01*
Y4140D01*
X3380Y640D02*
Y705D01*
X3348D01*
X3337Y694D01*
Y672D01*
X3348Y662D01*
X3380D01*
X3358D02*
X3337Y640D01*
X3272Y705D02*
X3315D01*
Y672D01*
X3293Y683D01*
X3283D01*
X3272Y672D01*
Y651D01*
X3283Y640D01*
X3304D01*
X3315Y651D01*
X3207Y705D02*
X3228Y694D01*
X3250Y672D01*
Y651D01*
X3239Y640D01*
X3218D01*
X3207Y651D01*
Y662D01*
X3218Y672D01*
X3250D01*
X1700Y4170D02*
X1770D01*
Y4205D01*
X1758Y4217D01*
X1735D01*
X1723Y4205D01*
Y4170D01*
Y4193D02*
X1700Y4217D01*
X1770Y4287D02*
X1758Y4263D01*
X1735Y4240D01*
X1712D01*
X1700Y4252D01*
Y4275D01*
X1712Y4287D01*
X1723D01*
X1735Y4275D01*
Y4240D01*
X1758Y4310D02*
X1770Y4322D01*
Y4345D01*
X1758Y4357D01*
X1747D01*
X1735Y4345D01*
Y4333D01*
Y4345D01*
X1723Y4357D01*
X1712D01*
X1700Y4345D01*
Y4322D01*
X1712Y4310D01*
X2910Y810D02*
X2980D01*
Y845D01*
X2968Y857D01*
X2945D01*
X2933Y845D01*
Y810D01*
Y833D02*
X2910Y857D01*
X2980Y927D02*
X2968Y903D01*
X2945Y880D01*
X2922D01*
X2910Y892D01*
Y915D01*
X2922Y927D01*
X2933D01*
X2945Y915D01*
Y880D01*
X2910Y985D02*
X2980D01*
X2945Y950D01*
Y997D01*
X2450Y4450D02*
X2520D01*
Y4485D01*
X2508Y4497D01*
X2485D01*
X2473Y4485D01*
Y4450D01*
Y4473D02*
X2450Y4497D01*
X2520Y4567D02*
X2508Y4543D01*
X2485Y4520D01*
X2462D01*
X2450Y4532D01*
Y4555D01*
X2462Y4567D01*
X2473D01*
X2485Y4555D01*
Y4520D01*
X2520Y4637D02*
X2508Y4613D01*
X2485Y4590D01*
X2462D01*
X2450Y4602D01*
Y4625D01*
X2462Y4637D01*
X2473D01*
X2485Y4625D01*
Y4590D01*
X2490Y280D02*
X2560D01*
Y315D01*
X2548Y327D01*
X2525D01*
X2513Y315D01*
Y280D01*
Y303D02*
X2490Y327D01*
X2560Y397D02*
X2548Y373D01*
X2525Y350D01*
X2502D01*
X2490Y362D01*
Y385D01*
X2502Y397D01*
X2513D01*
X2525Y385D01*
Y350D01*
X2560Y420D02*
Y467D01*
X2548D01*
X2502Y420D01*
X2490D01*
X230Y750D02*
Y820D01*
X195D01*
X183Y808D01*
Y785D01*
X195Y773D01*
X230D01*
X207D02*
X183Y750D01*
X113Y820D02*
X137Y808D01*
X160Y785D01*
Y762D01*
X148Y750D01*
X125D01*
X113Y762D01*
Y773D01*
X125Y785D01*
X160D01*
X90Y808D02*
X78Y820D01*
X55D01*
X43Y808D01*
Y797D01*
X55Y785D01*
X43Y773D01*
Y762D01*
X55Y750D01*
X78D01*
X90Y762D01*
Y773D01*
X78Y785D01*
X90Y797D01*
Y808D01*
X78Y785D02*
X55D01*
X610Y1300D02*
Y1370D01*
X575D01*
X563Y1358D01*
Y1335D01*
X575Y1323D01*
X610D01*
X587D02*
X563Y1300D01*
X493Y1370D02*
X517Y1358D01*
X540Y1335D01*
Y1312D01*
X528Y1300D01*
X505D01*
X493Y1312D01*
Y1323D01*
X505Y1335D01*
X540D01*
X470Y1312D02*
X458Y1300D01*
X435D01*
X423Y1312D01*
Y1358D01*
X435Y1370D01*
X458D01*
X470Y1358D01*
Y1347D01*
X458Y1335D01*
X423D01*
X730Y530D02*
X800D01*
Y565D01*
X788Y577D01*
X765D01*
X753Y565D01*
Y530D01*
Y553D02*
X730Y577D01*
X800Y600D02*
Y647D01*
X788D01*
X742Y600D01*
X730D01*
Y670D02*
Y693D01*
Y682D01*
X800D01*
X788Y670D01*
X460Y750D02*
Y820D01*
X425D01*
X413Y808D01*
Y785D01*
X425Y773D01*
X460D01*
X437D02*
X413Y750D01*
X390Y820D02*
X343D01*
Y808D01*
X390Y762D01*
Y750D01*
X273D02*
X320D01*
X273Y797D01*
Y808D01*
X285Y820D01*
X308D01*
X320Y808D01*
X860Y1180D02*
X920D01*
Y1210D01*
X910Y1220D01*
X890D01*
X880Y1210D01*
Y1180D01*
Y1200D02*
X860Y1220D01*
X920Y1240D02*
Y1280D01*
X910D01*
X870Y1240D01*
X860D01*
X910Y1300D02*
X920Y1310D01*
Y1330D01*
X910Y1340D01*
X900D01*
X890Y1330D01*
Y1320D01*
Y1330D01*
X880Y1340D01*
X870D01*
X860Y1330D01*
Y1310D01*
X870Y1300D01*
X830Y610D02*
X900D01*
Y645D01*
X888Y657D01*
X865D01*
X853Y645D01*
Y610D01*
Y633D02*
X830Y657D01*
X900Y680D02*
Y727D01*
X888D01*
X842Y680D01*
X830D01*
Y785D02*
X900D01*
X865Y750D01*
Y797D01*
X2160Y590D02*
X2230D01*
Y625D01*
X2218Y637D01*
X2195D01*
X2183Y625D01*
Y590D01*
Y613D02*
X2160Y637D01*
X2230Y660D02*
Y707D01*
X2218D01*
X2172Y660D01*
X2160D01*
X2230Y777D02*
Y730D01*
X2195D01*
X2207Y753D01*
Y765D01*
X2195Y777D01*
X2172D01*
X2160Y765D01*
Y742D01*
X2172Y730D01*
X2060Y590D02*
X2130D01*
Y625D01*
X2118Y637D01*
X2095D01*
X2083Y625D01*
Y590D01*
Y613D02*
X2060Y637D01*
X2130Y660D02*
Y707D01*
X2118D01*
X2072Y660D01*
X2060D01*
X2130Y777D02*
X2118Y753D01*
X2095Y730D01*
X2072D01*
X2060Y742D01*
Y765D01*
X2072Y777D01*
X2083D01*
X2095Y765D01*
Y730D01*
X1270Y860D02*
X1330D01*
Y890D01*
X1320Y900D01*
X1300D01*
X1290Y890D01*
Y860D01*
Y880D02*
X1270Y900D01*
X1330Y920D02*
Y960D01*
X1320D01*
X1280Y920D01*
X1270D01*
X1330Y980D02*
Y1020D01*
X1320D01*
X1280Y980D01*
X1270D01*
X1190Y860D02*
X1250D01*
Y890D01*
X1240Y900D01*
X1220D01*
X1210Y890D01*
Y860D01*
Y880D02*
X1190Y900D01*
X1250Y920D02*
Y960D01*
X1240D01*
X1200Y920D01*
X1190D01*
X1240Y980D02*
X1250Y990D01*
Y1010D01*
X1240Y1020D01*
X1230D01*
X1220Y1010D01*
X1210Y1020D01*
X1200D01*
X1190Y1010D01*
Y990D01*
X1200Y980D01*
X1210D01*
X1220Y990D01*
X1230Y980D01*
X1240D01*
X1220Y990D02*
Y1010D01*
X120Y270D02*
X190D01*
Y305D01*
X178Y317D01*
X155D01*
X143Y305D01*
Y270D01*
Y293D02*
X120Y317D01*
X190Y340D02*
Y387D01*
X178D01*
X132Y340D01*
X120D01*
X132Y410D02*
X120Y422D01*
Y445D01*
X132Y457D01*
X178D01*
X190Y445D01*
Y422D01*
X178Y410D01*
X167D01*
X155Y422D01*
Y457D01*
X1490Y420D02*
X1560D01*
Y455D01*
X1548Y467D01*
X1525D01*
X1513Y455D01*
Y420D01*
Y443D02*
X1490Y467D01*
X1548Y490D02*
X1560Y502D01*
Y525D01*
X1548Y537D01*
X1537D01*
X1525Y525D01*
X1513Y537D01*
X1502D01*
X1490Y525D01*
Y502D01*
X1502Y490D01*
X1513D01*
X1525Y502D01*
X1537Y490D01*
X1548D01*
X1525Y502D02*
Y525D01*
X1548Y560D02*
X1560Y572D01*
Y595D01*
X1548Y607D01*
X1502D01*
X1490Y595D01*
Y572D01*
X1502Y560D01*
X1548D01*
X2940Y1430D02*
X3010D01*
Y1465D01*
X2998Y1477D01*
X2975D01*
X2963Y1465D01*
Y1430D01*
Y1453D02*
X2940Y1477D01*
X2998Y1500D02*
X3010Y1512D01*
Y1535D01*
X2998Y1547D01*
X2987D01*
X2975Y1535D01*
X2963Y1547D01*
X2952D01*
X2940Y1535D01*
Y1512D01*
X2952Y1500D01*
X2963D01*
X2975Y1512D01*
X2987Y1500D01*
X2998D01*
X2975Y1512D02*
Y1535D01*
X3010Y1617D02*
X2998Y1593D01*
X2975Y1570D01*
X2952D01*
X2940Y1582D01*
Y1605D01*
X2952Y1617D01*
X2963D01*
X2975Y1605D01*
Y1570D01*
X2840Y1430D02*
X2910D01*
Y1465D01*
X2898Y1477D01*
X2875D01*
X2863Y1465D01*
Y1430D01*
Y1453D02*
X2840Y1477D01*
X2898Y1500D02*
X2910Y1512D01*
Y1535D01*
X2898Y1547D01*
X2887D01*
X2875Y1535D01*
X2863Y1547D01*
X2852D01*
X2840Y1535D01*
Y1512D01*
X2852Y1500D01*
X2863D01*
X2875Y1512D01*
X2887Y1500D01*
X2898D01*
X2875Y1512D02*
Y1535D01*
X2852Y1570D02*
X2840Y1582D01*
Y1605D01*
X2852Y1617D01*
X2898D01*
X2910Y1605D01*
Y1582D01*
X2898Y1570D01*
X2887D01*
X2875Y1582D01*
Y1617D01*
X4450Y4270D02*
X4510D01*
Y4300D01*
X4500Y4310D01*
X4480D01*
X4470Y4300D01*
Y4270D01*
Y4290D02*
X4450Y4310D01*
X4460Y4330D02*
X4450Y4340D01*
Y4360D01*
X4460Y4370D01*
X4500D01*
X4510Y4360D01*
Y4340D01*
X4500Y4330D01*
X4490D01*
X4480Y4340D01*
Y4370D01*
X4450Y4420D02*
X4510D01*
X4480Y4390D01*
Y4430D01*
X4960Y4580D02*
Y4650D01*
X4925D01*
X4913Y4638D01*
Y4615D01*
X4925Y4603D01*
X4960D01*
X4937D02*
X4913Y4580D01*
X4890Y4592D02*
X4878Y4580D01*
X4855D01*
X4843Y4592D01*
Y4638D01*
X4855Y4650D01*
X4878D01*
X4890Y4638D01*
Y4627D01*
X4878Y4615D01*
X4843D01*
X4773Y4650D02*
X4820D01*
Y4615D01*
X4797Y4627D01*
X4785D01*
X4773Y4615D01*
Y4592D01*
X4785Y4580D01*
X4808D01*
X4820Y4592D01*
X4180Y4050D02*
X4240D01*
Y4080D01*
X4230Y4090D01*
X4210D01*
X4200Y4080D01*
Y4050D01*
Y4070D02*
X4180Y4090D01*
X4190Y4110D02*
X4180Y4120D01*
Y4140D01*
X4190Y4150D01*
X4230D01*
X4240Y4140D01*
Y4120D01*
X4230Y4110D01*
X4220D01*
X4210Y4120D01*
Y4150D01*
X4240Y4210D02*
X4230Y4190D01*
X4210Y4170D01*
X4190D01*
X4180Y4180D01*
Y4200D01*
X4190Y4210D01*
X4200D01*
X4210Y4200D01*
Y4170D01*
X4900Y2320D02*
Y2380D01*
X4870D01*
X4860Y2370D01*
Y2350D01*
X4870Y2340D01*
X4900D01*
X4880D02*
X4860Y2320D01*
X4840Y2330D02*
X4830Y2320D01*
X4810D01*
X4800Y2330D01*
Y2370D01*
X4810Y2380D01*
X4830D01*
X4840Y2370D01*
Y2360D01*
X4830Y2350D01*
X4800D01*
X4780Y2380D02*
X4740D01*
Y2370D01*
X4780Y2330D01*
Y2320D01*
X4900Y2050D02*
Y2110D01*
X4870D01*
X4860Y2100D01*
Y2080D01*
X4870Y2070D01*
X4900D01*
X4880D02*
X4860Y2050D01*
X4840Y2060D02*
X4830Y2050D01*
X4810D01*
X4800Y2060D01*
Y2100D01*
X4810Y2110D01*
X4830D01*
X4840Y2100D01*
Y2090D01*
X4830Y2080D01*
X4800D01*
X4780Y2100D02*
X4770Y2110D01*
X4750D01*
X4740Y2100D01*
Y2090D01*
X4750Y2080D01*
X4740Y2070D01*
Y2060D01*
X4750Y2050D01*
X4770D01*
X4780Y2060D01*
Y2070D01*
X4770Y2080D01*
X4780Y2090D01*
Y2100D01*
X4770Y2080D02*
X4750D01*
X4900Y2230D02*
Y2290D01*
X4870D01*
X4860Y2280D01*
Y2260D01*
X4870Y2250D01*
X4900D01*
X4880D02*
X4860Y2230D01*
X4840Y2240D02*
X4830Y2230D01*
X4810D01*
X4800Y2240D01*
Y2280D01*
X4810Y2290D01*
X4830D01*
X4840Y2280D01*
Y2270D01*
X4830Y2260D01*
X4800D01*
X4780Y2240D02*
X4770Y2230D01*
X4750D01*
X4740Y2240D01*
Y2280D01*
X4750Y2290D01*
X4770D01*
X4780Y2280D01*
Y2270D01*
X4770Y2260D01*
X4740D01*
X4900Y2140D02*
Y2200D01*
X4870D01*
X4860Y2190D01*
Y2170D01*
X4870Y2160D01*
X4900D01*
X4880D02*
X4860Y2140D01*
X4840D02*
X4820D01*
X4830D01*
Y2200D01*
X4840Y2190D01*
X4790D02*
X4780Y2200D01*
X4760D01*
X4750Y2190D01*
Y2150D01*
X4760Y2140D01*
X4780D01*
X4790Y2150D01*
Y2190D01*
X4730D02*
X4720Y2200D01*
X4700D01*
X4690Y2190D01*
Y2150D01*
X4700Y2140D01*
X4720D01*
X4730Y2150D01*
Y2190D01*
X4890Y390D02*
X4950D01*
Y420D01*
X4940Y430D01*
X4920D01*
X4910Y420D01*
Y390D01*
Y410D02*
X4890Y430D01*
Y450D02*
Y470D01*
Y460D01*
X4950D01*
X4940Y450D01*
Y500D02*
X4950Y510D01*
Y530D01*
X4940Y540D01*
X4900D01*
X4890Y530D01*
Y510D01*
X4900Y500D01*
X4940D01*
X4890Y560D02*
Y580D01*
Y570D01*
X4950D01*
X4940Y560D01*
X3540Y1890D02*
Y1960D01*
X3505D01*
X3493Y1948D01*
Y1925D01*
X3505Y1913D01*
X3540D01*
X3517D02*
X3493Y1890D01*
X3470D02*
X3447D01*
X3458D01*
Y1960D01*
X3470Y1948D01*
X3412D02*
X3400Y1960D01*
X3377D01*
X3365Y1948D01*
Y1902D01*
X3377Y1890D01*
X3400D01*
X3412Y1902D01*
Y1948D01*
X3295Y1890D02*
X3342D01*
X3295Y1937D01*
Y1948D01*
X3307Y1960D01*
X3330D01*
X3342Y1948D01*
X3540Y1990D02*
Y2060D01*
X3505D01*
X3493Y2048D01*
Y2025D01*
X3505Y2013D01*
X3540D01*
X3517D02*
X3493Y1990D01*
X3470D02*
X3447D01*
X3458D01*
Y2060D01*
X3470Y2048D01*
X3412D02*
X3400Y2060D01*
X3377D01*
X3365Y2048D01*
Y2002D01*
X3377Y1990D01*
X3400D01*
X3412Y2002D01*
Y2048D01*
X3342D02*
X3330Y2060D01*
X3307D01*
X3295Y2048D01*
Y2037D01*
X3307Y2025D01*
X3318D01*
X3307D01*
X3295Y2013D01*
Y2002D01*
X3307Y1990D01*
X3330D01*
X3342Y2002D01*
X2740Y1660D02*
X2810D01*
Y1695D01*
X2798Y1707D01*
X2775D01*
X2763Y1695D01*
Y1660D01*
Y1683D02*
X2740Y1707D01*
Y1730D02*
Y1753D01*
Y1742D01*
X2810D01*
X2798Y1730D01*
Y1788D02*
X2810Y1800D01*
Y1823D01*
X2798Y1835D01*
X2752D01*
X2740Y1823D01*
Y1800D01*
X2752Y1788D01*
X2798D01*
X2810Y1905D02*
Y1858D01*
X2775D01*
X2787Y1882D01*
Y1893D01*
X2775Y1905D01*
X2752D01*
X2740Y1893D01*
Y1870D01*
X2752Y1858D01*
X3530Y1620D02*
Y1690D01*
X3495D01*
X3483Y1678D01*
Y1655D01*
X3495Y1643D01*
X3530D01*
X3507D02*
X3483Y1620D01*
X3460D02*
X3437D01*
X3448D01*
Y1690D01*
X3460Y1678D01*
X3402D02*
X3390Y1690D01*
X3367D01*
X3355Y1678D01*
Y1632D01*
X3367Y1620D01*
X3390D01*
X3402Y1632D01*
Y1678D01*
X3332Y1690D02*
X3285D01*
Y1678D01*
X3332Y1632D01*
Y1620D01*
X3530Y1520D02*
Y1590D01*
X3495D01*
X3483Y1578D01*
Y1555D01*
X3495Y1543D01*
X3530D01*
X3507D02*
X3483Y1520D01*
X3460D02*
X3437D01*
X3448D01*
Y1590D01*
X3460Y1578D01*
X3402D02*
X3390Y1590D01*
X3367D01*
X3355Y1578D01*
Y1532D01*
X3367Y1520D01*
X3390D01*
X3402Y1532D01*
Y1578D01*
X3332D02*
X3320Y1590D01*
X3297D01*
X3285Y1578D01*
Y1567D01*
X3297Y1555D01*
X3285Y1543D01*
Y1532D01*
X3297Y1520D01*
X3320D01*
X3332Y1532D01*
Y1543D01*
X3320Y1555D01*
X3332Y1567D01*
Y1578D01*
X3320Y1555D02*
X3297D01*
X1600Y3790D02*
X1670D01*
Y3825D01*
X1658Y3837D01*
X1635D01*
X1623Y3825D01*
Y3790D01*
Y3813D02*
X1600Y3837D01*
Y3860D02*
Y3883D01*
Y3872D01*
X1670D01*
X1658Y3860D01*
Y3918D02*
X1670Y3930D01*
Y3953D01*
X1658Y3965D01*
X1612D01*
X1600Y3953D01*
Y3930D01*
X1612Y3918D01*
X1658D01*
X1612Y3988D02*
X1600Y4000D01*
Y4023D01*
X1612Y4035D01*
X1658D01*
X1670Y4023D01*
Y4000D01*
X1658Y3988D01*
X1647D01*
X1635Y4000D01*
Y4035D01*
X1500Y3790D02*
X1570D01*
Y3825D01*
X1558Y3837D01*
X1535D01*
X1523Y3825D01*
Y3790D01*
Y3813D02*
X1500Y3837D01*
Y3860D02*
Y3883D01*
Y3872D01*
X1570D01*
X1558Y3860D01*
X1500Y3918D02*
Y3942D01*
Y3930D01*
X1570D01*
X1558Y3918D01*
Y3977D02*
X1570Y3988D01*
Y4012D01*
X1558Y4023D01*
X1512D01*
X1500Y4012D01*
Y3988D01*
X1512Y3977D01*
X1558D01*
X1500Y3140D02*
Y3210D01*
X1465D01*
X1453Y3198D01*
Y3175D01*
X1465Y3163D01*
X1500D01*
X1477D02*
X1453Y3140D01*
X1430D02*
X1407D01*
X1418D01*
Y3210D01*
X1430Y3198D01*
X1372Y3140D02*
X1348D01*
X1360D01*
Y3210D01*
X1372Y3198D01*
X1313Y3140D02*
X1290D01*
X1302D01*
Y3210D01*
X1313Y3198D01*
X1500Y3040D02*
Y3110D01*
X1465D01*
X1453Y3098D01*
Y3075D01*
X1465Y3063D01*
X1500D01*
X1477D02*
X1453Y3040D01*
X1430D02*
X1407D01*
X1418D01*
Y3110D01*
X1430Y3098D01*
X1372Y3040D02*
X1348D01*
X1360D01*
Y3110D01*
X1372Y3098D01*
X1267Y3040D02*
X1313D01*
X1267Y3087D01*
Y3098D01*
X1278Y3110D01*
X1302D01*
X1313Y3098D01*
X510Y3540D02*
Y3610D01*
X475D01*
X463Y3598D01*
Y3575D01*
X475Y3563D01*
X510D01*
X487D02*
X463Y3540D01*
X440D02*
X417D01*
X428D01*
Y3610D01*
X440Y3598D01*
X382Y3540D02*
X358D01*
X370D01*
Y3610D01*
X382Y3598D01*
X323D02*
X312Y3610D01*
X288D01*
X277Y3598D01*
Y3587D01*
X288Y3575D01*
X300D01*
X288D01*
X277Y3563D01*
Y3552D01*
X288Y3540D01*
X312D01*
X323Y3552D01*
X510Y3440D02*
Y3510D01*
X475D01*
X463Y3498D01*
Y3475D01*
X475Y3463D01*
X510D01*
X487D02*
X463Y3440D01*
X440D02*
X417D01*
X428D01*
Y3510D01*
X440Y3498D01*
X382Y3440D02*
X358D01*
X370D01*
Y3510D01*
X382Y3498D01*
X288Y3440D02*
Y3510D01*
X323Y3475D01*
X277D01*
X1000Y3150D02*
Y3220D01*
X965D01*
X953Y3208D01*
Y3185D01*
X965Y3173D01*
X1000D01*
X977D02*
X953Y3150D01*
X930D02*
X907D01*
X918D01*
Y3220D01*
X930Y3208D01*
X872Y3150D02*
X848D01*
X860D01*
Y3220D01*
X872Y3208D01*
X767Y3220D02*
X813D01*
Y3185D01*
X790Y3197D01*
X778D01*
X767Y3185D01*
Y3162D01*
X778Y3150D01*
X802D01*
X813Y3162D01*
X1870Y3690D02*
Y3760D01*
X1835D01*
X1823Y3748D01*
Y3725D01*
X1835Y3713D01*
X1870D01*
X1847D02*
X1823Y3690D01*
X1800D02*
X1777D01*
X1788D01*
Y3760D01*
X1800Y3748D01*
X1742Y3690D02*
X1718D01*
X1730D01*
Y3760D01*
X1742Y3748D01*
X1637Y3760D02*
X1660Y3748D01*
X1683Y3725D01*
Y3702D01*
X1672Y3690D01*
X1648D01*
X1637Y3702D01*
Y3713D01*
X1648Y3725D01*
X1683D01*
X1560Y3380D02*
X1630D01*
Y3415D01*
X1618Y3427D01*
X1595D01*
X1583Y3415D01*
Y3380D01*
Y3403D02*
X1560Y3427D01*
Y3450D02*
Y3473D01*
Y3462D01*
X1630D01*
X1618Y3450D01*
X1560Y3508D02*
Y3532D01*
Y3520D01*
X1630D01*
X1618Y3508D01*
X1630Y3567D02*
Y3613D01*
X1618D01*
X1572Y3567D01*
X1560D01*
X1330Y2780D02*
X1400D01*
Y2815D01*
X1388Y2827D01*
X1365D01*
X1353Y2815D01*
Y2780D01*
Y2803D02*
X1330Y2827D01*
Y2850D02*
Y2873D01*
Y2862D01*
X1400D01*
X1388Y2850D01*
X1330Y2908D02*
Y2932D01*
Y2920D01*
X1400D01*
X1388Y2908D01*
Y2967D02*
X1400Y2978D01*
Y3002D01*
X1388Y3013D01*
X1377D01*
X1365Y3002D01*
X1353Y3013D01*
X1342D01*
X1330Y3002D01*
Y2978D01*
X1342Y2967D01*
X1353D01*
X1365Y2978D01*
X1377Y2967D01*
X1388D01*
X1365Y2978D02*
Y3002D01*
X1430Y2780D02*
X1500D01*
Y2815D01*
X1488Y2827D01*
X1465D01*
X1453Y2815D01*
Y2780D01*
Y2803D02*
X1430Y2827D01*
Y2850D02*
Y2873D01*
Y2862D01*
X1500D01*
X1488Y2850D01*
X1430Y2908D02*
Y2932D01*
Y2920D01*
X1500D01*
X1488Y2908D01*
X1442Y2967D02*
X1430Y2978D01*
Y3002D01*
X1442Y3013D01*
X1488D01*
X1500Y3002D01*
Y2978D01*
X1488Y2967D01*
X1477D01*
X1465Y2978D01*
Y3013D01*
X1000Y3050D02*
Y3120D01*
X965D01*
X953Y3108D01*
Y3085D01*
X965Y3073D01*
X1000D01*
X977D02*
X953Y3050D01*
X930D02*
X907D01*
X918D01*
Y3120D01*
X930Y3108D01*
X825Y3050D02*
X872D01*
X825Y3097D01*
Y3108D01*
X837Y3120D01*
X860D01*
X872Y3108D01*
X802D02*
X790Y3120D01*
X767D01*
X755Y3108D01*
Y3062D01*
X767Y3050D01*
X790D01*
X802Y3062D01*
Y3108D01*
X1800Y3790D02*
X1870D01*
Y3825D01*
X1858Y3837D01*
X1835D01*
X1823Y3825D01*
Y3790D01*
Y3813D02*
X1800Y3837D01*
Y3860D02*
Y3883D01*
Y3872D01*
X1870D01*
X1858Y3860D01*
X1800Y3965D02*
Y3918D01*
X1847Y3965D01*
X1858D01*
X1870Y3953D01*
Y3930D01*
X1858Y3918D01*
X1800Y3988D02*
Y4012D01*
Y4000D01*
X1870D01*
X1858Y3988D01*
X2010Y3270D02*
Y3340D01*
X1975D01*
X1963Y3328D01*
Y3305D01*
X1975Y3293D01*
X2010D01*
X1987D02*
X1963Y3270D01*
X1940D02*
X1917D01*
X1928D01*
Y3340D01*
X1940Y3328D01*
X1835Y3270D02*
X1882D01*
X1835Y3317D01*
Y3328D01*
X1847Y3340D01*
X1870D01*
X1882Y3328D01*
X1765Y3270D02*
X1812D01*
X1765Y3317D01*
Y3328D01*
X1777Y3340D01*
X1800D01*
X1812Y3328D01*
X1220Y3790D02*
X1290D01*
Y3825D01*
X1278Y3837D01*
X1255D01*
X1243Y3825D01*
Y3790D01*
Y3813D02*
X1220Y3837D01*
Y3860D02*
Y3883D01*
Y3872D01*
X1290D01*
X1278Y3860D01*
Y3918D02*
X1290Y3930D01*
Y3953D01*
X1278Y3965D01*
X1267D01*
X1255Y3953D01*
Y3942D01*
Y3953D01*
X1243Y3965D01*
X1232D01*
X1220Y3953D01*
Y3930D01*
X1232Y3918D01*
X1290Y4035D02*
Y3988D01*
X1255D01*
X1267Y4012D01*
Y4023D01*
X1255Y4035D01*
X1232D01*
X1220Y4023D01*
Y4000D01*
X1232Y3988D01*
X1220Y4320D02*
X1290D01*
Y4355D01*
X1278Y4367D01*
X1255D01*
X1243Y4355D01*
Y4320D01*
Y4343D02*
X1220Y4367D01*
Y4390D02*
Y4413D01*
Y4402D01*
X1290D01*
X1278Y4390D01*
Y4448D02*
X1290Y4460D01*
Y4483D01*
X1278Y4495D01*
X1267D01*
X1255Y4483D01*
Y4472D01*
Y4483D01*
X1243Y4495D01*
X1232D01*
X1220Y4483D01*
Y4460D01*
X1232Y4448D01*
X1290Y4565D02*
X1278Y4542D01*
X1255Y4518D01*
X1232D01*
X1220Y4530D01*
Y4553D01*
X1232Y4565D01*
X1243D01*
X1255Y4553D01*
Y4518D01*
X870Y2780D02*
Y2850D01*
X835D01*
X823Y2838D01*
Y2815D01*
X835Y2803D01*
X870D01*
X847D02*
X823Y2780D01*
X800D02*
X777D01*
X788D01*
Y2850D01*
X800Y2838D01*
X742D02*
X730Y2850D01*
X707D01*
X695Y2838D01*
Y2827D01*
X707Y2815D01*
X718D01*
X707D01*
X695Y2803D01*
Y2792D01*
X707Y2780D01*
X730D01*
X742Y2792D01*
X672Y2850D02*
X625D01*
Y2838D01*
X672Y2792D01*
Y2780D01*
X870Y2680D02*
Y2750D01*
X835D01*
X823Y2738D01*
Y2715D01*
X835Y2703D01*
X870D01*
X847D02*
X823Y2680D01*
X800D02*
X777D01*
X788D01*
Y2750D01*
X800Y2738D01*
X742D02*
X730Y2750D01*
X707D01*
X695Y2738D01*
Y2727D01*
X707Y2715D01*
X718D01*
X707D01*
X695Y2703D01*
Y2692D01*
X707Y2680D01*
X730D01*
X742Y2692D01*
X672Y2738D02*
X660Y2750D01*
X637D01*
X625Y2738D01*
Y2727D01*
X637Y2715D01*
X625Y2703D01*
Y2692D01*
X637Y2680D01*
X660D01*
X672Y2692D01*
Y2703D01*
X660Y2715D01*
X672Y2727D01*
Y2738D01*
X660Y2715D02*
X637D01*
X1290Y2500D02*
X1360D01*
Y2535D01*
X1348Y2547D01*
X1325D01*
X1313Y2535D01*
Y2500D01*
Y2523D02*
X1290Y2547D01*
Y2570D02*
Y2593D01*
Y2582D01*
X1360D01*
X1348Y2570D01*
Y2628D02*
X1360Y2640D01*
Y2663D01*
X1348Y2675D01*
X1337D01*
X1325Y2663D01*
Y2652D01*
Y2663D01*
X1313Y2675D01*
X1302D01*
X1290Y2663D01*
Y2640D01*
X1302Y2628D01*
Y2698D02*
X1290Y2710D01*
Y2733D01*
X1302Y2745D01*
X1348D01*
X1360Y2733D01*
Y2710D01*
X1348Y2698D01*
X1337D01*
X1325Y2710D01*
Y2745D01*
X1200Y2500D02*
X1270D01*
Y2535D01*
X1258Y2547D01*
X1235D01*
X1223Y2535D01*
Y2500D01*
Y2523D02*
X1200Y2547D01*
Y2570D02*
Y2593D01*
Y2582D01*
X1270D01*
X1258Y2570D01*
X1200Y2663D02*
X1270D01*
X1235Y2628D01*
Y2675D01*
X1258Y2698D02*
X1270Y2710D01*
Y2733D01*
X1258Y2745D01*
X1212D01*
X1200Y2733D01*
Y2710D01*
X1212Y2698D01*
X1258D01*
X1160Y3010D02*
X1230D01*
Y3045D01*
X1218Y3057D01*
X1195D01*
X1183Y3045D01*
Y3010D01*
Y3033D02*
X1160Y3057D01*
Y3080D02*
Y3103D01*
Y3092D01*
X1230D01*
X1218Y3080D01*
X1160Y3173D02*
X1230D01*
X1195Y3138D01*
Y3185D01*
X1160Y3208D02*
Y3232D01*
Y3220D01*
X1230D01*
X1218Y3208D01*
X1070Y3010D02*
X1130D01*
Y3040D01*
X1120Y3050D01*
X1100D01*
X1090Y3040D01*
Y3010D01*
Y3030D02*
X1070Y3050D01*
Y3070D02*
Y3090D01*
Y3080D01*
X1130D01*
X1120Y3070D01*
X1070Y3150D02*
X1130D01*
X1100Y3120D01*
Y3160D01*
X1120Y3180D02*
X1130Y3190D01*
Y3210D01*
X1120Y3220D01*
X1110D01*
X1100Y3210D01*
Y3200D01*
Y3210D01*
X1090Y3220D01*
X1080D01*
X1070Y3210D01*
Y3190D01*
X1080Y3180D01*
X900Y2790D02*
X960D01*
Y2820D01*
X950Y2830D01*
X930D01*
X920Y2820D01*
Y2790D01*
Y2810D02*
X900Y2830D01*
Y2850D02*
Y2870D01*
Y2860D01*
X960D01*
X950Y2850D01*
X900Y2930D02*
X960D01*
X930Y2900D01*
Y2940D01*
X960Y3000D02*
Y2960D01*
X930D01*
X940Y2980D01*
Y2990D01*
X930Y3000D01*
X910D01*
X900Y2990D01*
Y2970D01*
X910Y2960D01*
X1810Y4670D02*
Y4740D01*
X1775D01*
X1763Y4728D01*
Y4705D01*
X1775Y4693D01*
X1810D01*
X1787D02*
X1763Y4670D01*
X1740D02*
X1717D01*
X1728D01*
Y4740D01*
X1740Y4728D01*
X1647Y4670D02*
Y4740D01*
X1682Y4705D01*
X1635D01*
X1612Y4728D02*
X1600Y4740D01*
X1577D01*
X1565Y4728D01*
Y4717D01*
X1577Y4705D01*
X1565Y4693D01*
Y4682D01*
X1577Y4670D01*
X1600D01*
X1612Y4682D01*
Y4693D01*
X1600Y4705D01*
X1612Y4717D01*
Y4728D01*
X1600Y4705D02*
X1577D01*
X4890Y1930D02*
Y2000D01*
X4855D01*
X4843Y1988D01*
Y1965D01*
X4855Y1953D01*
X4890D01*
X4867D02*
X4843Y1930D01*
X4820D02*
X4797D01*
X4808D01*
Y2000D01*
X4820Y1988D01*
X4727Y1930D02*
Y2000D01*
X4762Y1965D01*
X4715D01*
X4692Y1942D02*
X4680Y1930D01*
X4657D01*
X4645Y1942D01*
Y1988D01*
X4657Y2000D01*
X4680D01*
X4692Y1988D01*
Y1977D01*
X4680Y1965D01*
X4645D01*
X4600Y1930D02*
Y2000D01*
X4565D01*
X4553Y1988D01*
Y1965D01*
X4565Y1953D01*
X4600D01*
X4577D02*
X4553Y1930D01*
X4530D02*
X4507D01*
X4518D01*
Y2000D01*
X4530Y1988D01*
X4425Y2000D02*
X4472D01*
Y1965D01*
X4448Y1977D01*
X4437D01*
X4425Y1965D01*
Y1942D01*
X4437Y1930D01*
X4460D01*
X4472Y1942D01*
X4402Y1988D02*
X4390Y2000D01*
X4367D01*
X4355Y1988D01*
Y1942D01*
X4367Y1930D01*
X4390D01*
X4402Y1942D01*
Y1988D01*
X3900Y2500D02*
Y2570D01*
X3865D01*
X3853Y2558D01*
Y2535D01*
X3865Y2523D01*
X3900D01*
X3877D02*
X3853Y2500D01*
X3830D02*
X3807D01*
X3818D01*
Y2570D01*
X3830Y2558D01*
X3725Y2570D02*
X3772D01*
Y2535D01*
X3748Y2547D01*
X3737D01*
X3725Y2535D01*
Y2512D01*
X3737Y2500D01*
X3760D01*
X3772Y2512D01*
X3702Y2500D02*
X3678D01*
X3690D01*
Y2570D01*
X3702Y2558D01*
X1070Y1960D02*
Y2020D01*
X1040D01*
X1030Y2010D01*
Y1990D01*
X1040Y1980D01*
X1070D01*
X1050D02*
X1030Y1960D01*
X1010D02*
X990D01*
X1000D01*
Y2020D01*
X1010Y2010D01*
X920Y2020D02*
X960D01*
Y1990D01*
X940Y2000D01*
X930D01*
X920Y1990D01*
Y1970D01*
X930Y1960D01*
X950D01*
X960Y1970D01*
X870Y1960D02*
Y2020D01*
X900Y1990D01*
X860D01*
X1070Y1870D02*
Y1930D01*
X1040D01*
X1030Y1920D01*
Y1900D01*
X1040Y1890D01*
X1070D01*
X1050D02*
X1030Y1870D01*
X1010D02*
X990D01*
X1000D01*
Y1930D01*
X1010Y1920D01*
X920Y1930D02*
X960D01*
Y1900D01*
X940Y1910D01*
X930D01*
X920Y1900D01*
Y1880D01*
X930Y1870D01*
X950D01*
X960Y1880D01*
X860Y1930D02*
X900D01*
Y1900D01*
X880Y1910D01*
X870D01*
X860Y1900D01*
Y1880D01*
X870Y1870D01*
X890D01*
X900Y1880D01*
X2370Y1170D02*
Y1240D01*
X2335D01*
X2323Y1228D01*
Y1205D01*
X2335Y1193D01*
X2370D01*
X2347D02*
X2323Y1170D01*
X2300D02*
X2277D01*
X2288D01*
Y1240D01*
X2300Y1228D01*
X2195Y1240D02*
X2242D01*
Y1205D01*
X2218Y1217D01*
X2207D01*
X2195Y1205D01*
Y1182D01*
X2207Y1170D01*
X2230D01*
X2242Y1182D01*
X2172Y1228D02*
X2160Y1240D01*
X2137D01*
X2125Y1228D01*
Y1217D01*
X2137Y1205D01*
X2125Y1193D01*
Y1182D01*
X2137Y1170D01*
X2160D01*
X2172Y1182D01*
Y1193D01*
X2160Y1205D01*
X2172Y1217D01*
Y1228D01*
X2160Y1205D02*
X2137D01*
X2360Y230D02*
Y300D01*
X2325D01*
X2313Y288D01*
Y265D01*
X2325Y253D01*
X2360D01*
X2337D02*
X2313Y230D01*
X2290D02*
X2267D01*
X2278D01*
Y300D01*
X2290Y288D01*
X2185Y300D02*
X2208Y288D01*
X2232Y265D01*
Y242D01*
X2220Y230D01*
X2197D01*
X2185Y242D01*
Y253D01*
X2197Y265D01*
X2232D01*
X2162Y288D02*
X2150Y300D01*
X2127D01*
X2115Y288D01*
Y242D01*
X2127Y230D01*
X2150D01*
X2162Y242D01*
Y288D01*
X3800Y1710D02*
X3870D01*
Y1745D01*
X3858Y1757D01*
X3835D01*
X3823Y1745D01*
Y1710D01*
Y1733D02*
X3800Y1757D01*
Y1780D02*
Y1803D01*
Y1792D01*
X3870D01*
X3858Y1780D01*
X3870Y1885D02*
X3858Y1862D01*
X3835Y1838D01*
X3812D01*
X3800Y1850D01*
Y1873D01*
X3812Y1885D01*
X3823D01*
X3835Y1873D01*
Y1838D01*
X3858Y1908D02*
X3870Y1920D01*
Y1943D01*
X3858Y1955D01*
X3847D01*
X3835Y1943D01*
Y1932D01*
Y1943D01*
X3823Y1955D01*
X3812D01*
X3800Y1943D01*
Y1920D01*
X3812Y1908D01*
X3320Y3380D02*
X3380D01*
Y3410D01*
X3370Y3420D01*
X3350D01*
X3340Y3410D01*
Y3380D01*
Y3400D02*
X3320Y3420D01*
Y3440D02*
Y3460D01*
Y3450D01*
X3380D01*
X3370Y3440D01*
X3380Y3530D02*
X3370Y3510D01*
X3350Y3490D01*
X3330D01*
X3320Y3500D01*
Y3520D01*
X3330Y3530D01*
X3340D01*
X3350Y3520D01*
Y3490D01*
X3380Y3590D02*
Y3550D01*
X3350D01*
X3360Y3570D01*
Y3580D01*
X3350Y3590D01*
X3330D01*
X3320Y3580D01*
Y3560D01*
X3330Y3550D01*
X3460Y2370D02*
Y2440D01*
X3425D01*
X3413Y2428D01*
Y2405D01*
X3425Y2393D01*
X3460D01*
X3437D02*
X3413Y2370D01*
X3390D02*
X3367D01*
X3378D01*
Y2440D01*
X3390Y2428D01*
X3285Y2440D02*
X3308Y2428D01*
X3332Y2405D01*
Y2382D01*
X3320Y2370D01*
X3297D01*
X3285Y2382D01*
Y2393D01*
X3297Y2405D01*
X3332D01*
X3215Y2440D02*
X3238Y2428D01*
X3262Y2405D01*
Y2382D01*
X3250Y2370D01*
X3227D01*
X3215Y2382D01*
Y2393D01*
X3227Y2405D01*
X3262D01*
X2780Y3800D02*
Y3870D01*
X2745D01*
X2733Y3858D01*
Y3835D01*
X2745Y3823D01*
X2780D01*
X2757D02*
X2733Y3800D01*
X2710D02*
X2687D01*
X2698D01*
Y3870D01*
X2710Y3858D01*
X2652Y3870D02*
X2605D01*
Y3858D01*
X2652Y3812D01*
Y3800D01*
X2582Y3858D02*
X2570Y3870D01*
X2547D01*
X2535Y3858D01*
Y3812D01*
X2547Y3800D01*
X2570D01*
X2582Y3812D01*
Y3858D01*
X1600Y4170D02*
X1670D01*
Y4205D01*
X1658Y4217D01*
X1635D01*
X1623Y4205D01*
Y4170D01*
Y4193D02*
X1600Y4217D01*
Y4240D02*
Y4263D01*
Y4252D01*
X1670D01*
X1658Y4240D01*
X1670Y4298D02*
Y4345D01*
X1658D01*
X1612Y4298D01*
X1600D01*
Y4368D02*
Y4392D01*
Y4380D01*
X1670D01*
X1658Y4368D01*
X3900Y2690D02*
Y2760D01*
X3865D01*
X3853Y2748D01*
Y2725D01*
X3865Y2713D01*
X3900D01*
X3877D02*
X3853Y2690D01*
X3830D02*
X3807D01*
X3818D01*
Y2760D01*
X3830Y2748D01*
X3772Y2760D02*
X3725D01*
Y2748D01*
X3772Y2702D01*
Y2690D01*
X3655D02*
X3702D01*
X3655Y2737D01*
Y2748D01*
X3667Y2760D01*
X3690D01*
X3702Y2748D01*
X4180Y2650D02*
X4250D01*
Y2685D01*
X4238Y2697D01*
X4215D01*
X4203Y2685D01*
Y2650D01*
Y2673D02*
X4180Y2697D01*
Y2720D02*
Y2743D01*
Y2732D01*
X4250D01*
X4238Y2720D01*
X4250Y2778D02*
Y2825D01*
X4238D01*
X4192Y2778D01*
X4180D01*
X4238Y2848D02*
X4250Y2860D01*
Y2883D01*
X4238Y2895D01*
X4227D01*
X4215Y2883D01*
Y2872D01*
Y2883D01*
X4203Y2895D01*
X4192D01*
X4180Y2883D01*
Y2860D01*
X4192Y2848D01*
X4590Y3150D02*
X4650D01*
Y3180D01*
X4640Y3190D01*
X4620D01*
X4610Y3180D01*
Y3150D01*
Y3170D02*
X4590Y3190D01*
Y3210D02*
Y3230D01*
Y3220D01*
X4650D01*
X4640Y3210D01*
X4650Y3260D02*
Y3300D01*
X4640D01*
X4600Y3260D01*
X4590D01*
Y3350D02*
X4650D01*
X4620Y3320D01*
Y3360D01*
X2180Y4060D02*
X2122D01*
X2110Y4072D01*
Y4095D01*
X2122Y4107D01*
X2180D01*
Y4177D02*
X2168Y4153D01*
X2145Y4130D01*
X2122D01*
X2110Y4142D01*
Y4165D01*
X2122Y4177D01*
X2133D01*
X2145Y4165D01*
Y4130D01*
X2790Y665D02*
Y611D01*
X2779Y600D01*
X2758D01*
X2747Y611D01*
Y665D01*
X2725D02*
X2682D01*
Y654D01*
X2725Y611D01*
Y600D01*
X1000Y560D02*
Y502D01*
X988Y490D01*
X965D01*
X953Y502D01*
Y560D01*
X930Y502D02*
X918Y490D01*
X895D01*
X883Y502D01*
Y548D01*
X895Y560D01*
X918D01*
X930Y548D01*
Y537D01*
X918Y525D01*
X883D01*
X1780Y2350D02*
Y2292D01*
X1768Y2280D01*
X1745D01*
X1733Y2292D01*
Y2350D01*
X1710Y2280D02*
X1687D01*
X1698D01*
Y2350D01*
X1710Y2338D01*
X1652Y2280D02*
X1628D01*
X1640D01*
Y2350D01*
X1652Y2338D01*
X1570Y2330D02*
Y2272D01*
X1558Y2260D01*
X1535D01*
X1523Y2272D01*
Y2330D01*
X1500Y2260D02*
X1477D01*
X1488D01*
Y2330D01*
X1500Y2318D01*
X1395Y2330D02*
X1442D01*
Y2295D01*
X1418Y2307D01*
X1407D01*
X1395Y2295D01*
Y2272D01*
X1407Y2260D01*
X1430D01*
X1442Y2272D01*
X4040Y4690D02*
Y4632D01*
X4028Y4620D01*
X4005D01*
X3993Y4632D01*
Y4690D01*
X3970Y4620D02*
X3947D01*
X3958D01*
Y4690D01*
X3970Y4678D01*
X3912D02*
X3900Y4690D01*
X3877D01*
X3865Y4678D01*
Y4667D01*
X3877Y4655D01*
X3865Y4643D01*
Y4632D01*
X3877Y4620D01*
X3900D01*
X3912Y4632D01*
Y4643D01*
X3900Y4655D01*
X3912Y4667D01*
Y4678D01*
X3900Y4655D02*
X3877D01*
X4710Y3910D02*
Y3852D01*
X4698Y3840D01*
X4675D01*
X4663Y3852D01*
Y3910D01*
X4640Y3840D02*
X4617D01*
X4628D01*
Y3910D01*
X4640Y3898D01*
X4582Y3852D02*
X4570Y3840D01*
X4547D01*
X4535Y3852D01*
Y3898D01*
X4547Y3910D01*
X4570D01*
X4582Y3898D01*
Y3887D01*
X4570Y3875D01*
X4535D01*
X2120Y2260D02*
Y2202D01*
X2108Y2190D01*
X2085D01*
X2073Y2202D01*
Y2260D01*
X2003Y2190D02*
X2050D01*
X2003Y2237D01*
Y2248D01*
X2015Y2260D01*
X2038D01*
X2050Y2248D01*
X1980D02*
X1968Y2260D01*
X1945D01*
X1933Y2248D01*
Y2202D01*
X1945Y2190D01*
X1968D01*
X1980Y2202D01*
Y2248D01*
X4890Y1270D02*
X4832D01*
X4820Y1282D01*
Y1305D01*
X4832Y1317D01*
X4890D01*
X4820Y1387D02*
Y1340D01*
X4867Y1387D01*
X4878D01*
X4890Y1375D01*
Y1352D01*
X4878Y1340D01*
X4820Y1457D02*
Y1410D01*
X4867Y1457D01*
X4878D01*
X4890Y1445D01*
Y1422D01*
X4878Y1410D01*
X3600Y1250D02*
Y1200D01*
X3590Y1190D01*
X3570D01*
X3560Y1200D01*
Y1250D01*
X3500Y1190D02*
X3540D01*
X3500Y1230D01*
Y1240D01*
X3510Y1250D01*
X3530D01*
X3540Y1240D01*
X3480D02*
X3470Y1250D01*
X3450D01*
X3440Y1240D01*
Y1230D01*
X3450Y1220D01*
X3460D01*
X3450D01*
X3440Y1210D01*
Y1200D01*
X3450Y1190D01*
X3470D01*
X3480Y1200D01*
X2480Y2870D02*
Y2812D01*
X2468Y2800D01*
X2445D01*
X2433Y2812D01*
Y2870D01*
X2363Y2800D02*
X2410D01*
X2363Y2847D01*
Y2858D01*
X2375Y2870D01*
X2398D01*
X2410Y2858D01*
X2305Y2800D02*
Y2870D01*
X2340Y2835D01*
X2293D01*
X1730Y310D02*
Y252D01*
X1718Y240D01*
X1695D01*
X1683Y252D01*
Y310D01*
X1613Y240D02*
X1660D01*
X1613Y287D01*
Y298D01*
X1625Y310D01*
X1648D01*
X1660Y298D01*
X1590Y310D02*
X1543D01*
Y298D01*
X1590Y252D01*
Y240D01*
X4910Y200D02*
X4860D01*
X4850Y210D01*
Y230D01*
X4860Y240D01*
X4910D01*
X4850Y300D02*
Y260D01*
X4890Y300D01*
X4900D01*
X4910Y290D01*
Y270D01*
X4900Y260D01*
X4860Y320D02*
X4850Y330D01*
Y350D01*
X4860Y360D01*
X4900D01*
X4910Y350D01*
Y330D01*
X4900Y320D01*
X4890D01*
X4880Y330D01*
Y360D01*
X4860Y920D02*
X4810D01*
X4800Y930D01*
Y950D01*
X4810Y960D01*
X4860D01*
X4850Y980D02*
X4860Y990D01*
Y1010D01*
X4850Y1020D01*
X4840D01*
X4830Y1010D01*
Y1000D01*
Y1010D01*
X4820Y1020D01*
X4810D01*
X4800Y1010D01*
Y990D01*
X4810Y980D01*
X4850Y1040D02*
X4860Y1050D01*
Y1070D01*
X4850Y1080D01*
X4810D01*
X4800Y1070D01*
Y1050D01*
X4810Y1040D01*
X4850D01*
X3870Y3580D02*
Y3522D01*
X3858Y3510D01*
X3835D01*
X3823Y3522D01*
Y3580D01*
X3800Y3568D02*
X3788Y3580D01*
X3765D01*
X3753Y3568D01*
Y3557D01*
X3765Y3545D01*
X3777D01*
X3765D01*
X3753Y3533D01*
Y3522D01*
X3765Y3510D01*
X3788D01*
X3800Y3522D01*
X3730Y3568D02*
X3718Y3580D01*
X3695D01*
X3683Y3568D01*
Y3557D01*
X3695Y3545D01*
X3707D01*
X3695D01*
X3683Y3533D01*
Y3522D01*
X3695Y3510D01*
X3718D01*
X3730Y3522D01*
X4140Y2910D02*
Y2852D01*
X4128Y2840D01*
X4105D01*
X4093Y2852D01*
Y2910D01*
X4070Y2898D02*
X4058Y2910D01*
X4035D01*
X4023Y2898D01*
Y2887D01*
X4035Y2875D01*
X4047D01*
X4035D01*
X4023Y2863D01*
Y2852D01*
X4035Y2840D01*
X4058D01*
X4070Y2852D01*
X3965Y2840D02*
Y2910D01*
X4000Y2875D01*
X3953D01*
X270Y1520D02*
X330D01*
Y1550D01*
X320Y1560D01*
X300D01*
X290Y1550D01*
Y1520D01*
Y1540D02*
X270Y1560D01*
Y1580D02*
Y1600D01*
Y1590D01*
X330D01*
X320Y1580D01*
X330Y1630D02*
Y1670D01*
X320D01*
X280Y1630D01*
X270D01*
X320Y1690D02*
X330Y1700D01*
Y1720D01*
X320Y1730D01*
X310D01*
X300Y1720D01*
X290Y1730D01*
X280D01*
X270Y1720D01*
Y1700D01*
X280Y1690D01*
X290D01*
X300Y1700D01*
X310Y1690D01*
X320D01*
X300Y1700D02*
Y1720D01*
X390Y1520D02*
X450D01*
Y1550D01*
X440Y1560D01*
X420D01*
X410Y1550D01*
Y1520D01*
Y1540D02*
X390Y1560D01*
Y1580D02*
Y1600D01*
Y1590D01*
X450D01*
X440Y1580D01*
X450Y1630D02*
Y1670D01*
X440D01*
X400Y1630D01*
X390D01*
X450Y1690D02*
Y1730D01*
X440D01*
X400Y1690D01*
X390D01*
X810Y1840D02*
Y1910D01*
X775D01*
X763Y1898D01*
Y1875D01*
X775Y1863D01*
X810D01*
X787D02*
X763Y1840D01*
X740D02*
X717D01*
X728D01*
Y1910D01*
X740Y1898D01*
X682Y1910D02*
X635D01*
Y1898D01*
X682Y1852D01*
Y1840D01*
X565Y1910D02*
X588Y1898D01*
X612Y1875D01*
Y1852D01*
X600Y1840D01*
X577D01*
X565Y1852D01*
Y1863D01*
X577Y1875D01*
X612D01*
X810Y1740D02*
Y1810D01*
X775D01*
X763Y1798D01*
Y1775D01*
X775Y1763D01*
X810D01*
X787D02*
X763Y1740D01*
X740D02*
X717D01*
X728D01*
Y1810D01*
X740Y1798D01*
X682Y1810D02*
X635D01*
Y1798D01*
X682Y1752D01*
Y1740D01*
X565Y1810D02*
X612D01*
Y1775D01*
X588Y1787D01*
X577D01*
X565Y1775D01*
Y1752D01*
X577Y1740D01*
X600D01*
X612Y1752D01*
X610Y1440D02*
X540D01*
Y1475D01*
X552Y1487D01*
X598D01*
X610Y1475D01*
Y1440D01*
X540Y1557D02*
Y1510D01*
X587Y1557D01*
X598D01*
X610Y1545D01*
Y1522D01*
X598Y1510D01*
Y1580D02*
X610Y1592D01*
Y1615D01*
X598Y1627D01*
X552D01*
X540Y1615D01*
Y1592D01*
X552Y1580D01*
X598D01*
X1030Y1830D02*
X1040Y1840D01*
X1060D01*
X1070Y1830D01*
Y1790D01*
X1060Y1780D01*
X1040D01*
X1030Y1790D01*
X1010Y1780D02*
X990D01*
X1000D01*
Y1840D01*
X1010Y1830D01*
X920Y1840D02*
X940Y1830D01*
X960Y1810D01*
Y1790D01*
X950Y1780D01*
X930D01*
X920Y1790D01*
Y1800D01*
X930Y1810D01*
X960D01*
X900Y1830D02*
X890Y1840D01*
X870D01*
X860Y1830D01*
Y1820D01*
X870Y1810D01*
X880D01*
X870D01*
X860Y1800D01*
Y1790D01*
X870Y1780D01*
X890D01*
X900Y1790D01*
X3127Y604D02*
X3138Y615D01*
X3159D01*
X3170Y604D01*
Y561D01*
X3159Y550D01*
X3138D01*
X3127Y561D01*
X3062Y615D02*
X3083Y604D01*
X3105Y582D01*
Y561D01*
X3094Y550D01*
X3073D01*
X3062Y561D01*
Y572D01*
X3073Y582D01*
X3105D01*
X3040Y604D02*
X3029Y615D01*
X3008D01*
X2997Y604D01*
Y593D01*
X3008Y582D01*
X3018D01*
X3008D01*
X2997Y572D01*
Y561D01*
X3008Y550D01*
X3029D01*
X3040Y561D01*
X2870Y480D02*
Y545D01*
X2838D01*
X2827Y534D01*
Y512D01*
X2838Y502D01*
X2870D01*
X2848D02*
X2827Y480D01*
X2805Y534D02*
X2794Y545D01*
X2773D01*
X2762Y534D01*
Y523D01*
X2773Y512D01*
X2762Y502D01*
Y491D01*
X2773Y480D01*
X2794D01*
X2805Y491D01*
Y502D01*
X2794Y512D01*
X2805Y523D01*
Y534D01*
X2794Y512D02*
X2773D01*
X2740Y545D02*
X2697D01*
Y534D01*
X2740Y491D01*
Y480D01*
X3380Y550D02*
Y615D01*
X3348D01*
X3337Y604D01*
Y582D01*
X3348Y572D01*
X3380D01*
X3358D02*
X3337Y550D01*
X3315Y561D02*
X3304Y550D01*
X3283D01*
X3272Y561D01*
Y604D01*
X3283Y615D01*
X3304D01*
X3315Y604D01*
Y593D01*
X3304Y582D01*
X3272D01*
X3250Y604D02*
X3239Y615D01*
X3218D01*
X3207Y604D01*
Y561D01*
X3218Y550D01*
X3239D01*
X3250Y561D01*
Y604D01*
X1630Y1320D02*
Y1390D01*
X1595D01*
X1583Y1378D01*
Y1355D01*
X1595Y1343D01*
X1630D01*
X1607D02*
X1583Y1320D01*
X1560D02*
X1537D01*
X1548D01*
Y1390D01*
X1560Y1378D01*
X1455Y1390D02*
X1502D01*
Y1355D01*
X1478Y1367D01*
X1467D01*
X1455Y1355D01*
Y1332D01*
X1467Y1320D01*
X1490D01*
X1502Y1332D01*
X1432D02*
X1420Y1320D01*
X1397D01*
X1385Y1332D01*
Y1378D01*
X1397Y1390D01*
X1420D01*
X1432Y1378D01*
Y1367D01*
X1420Y1355D01*
X1385D01*
X4430Y2160D02*
X4372D01*
X4360Y2172D01*
Y2195D01*
X4372Y2207D01*
X4430D01*
X4360Y2277D02*
Y2230D01*
X4407Y2277D01*
X4418D01*
X4430Y2265D01*
Y2242D01*
X4418Y2230D01*
Y2300D02*
X4430Y2312D01*
Y2335D01*
X4418Y2347D01*
X4407D01*
X4395Y2335D01*
X4383Y2347D01*
X4372D01*
X4360Y2335D01*
Y2312D01*
X4372Y2300D01*
X4383D01*
X4395Y2312D01*
X4407Y2300D01*
X4418D01*
X4395Y2312D02*
Y2335D01*
X113Y1608D02*
X125Y1620D01*
X148D01*
X160Y1608D01*
Y1562D01*
X148Y1550D01*
X125D01*
X113Y1562D01*
X43Y1620D02*
X67Y1608D01*
X90Y1585D01*
Y1562D01*
X78Y1550D01*
X55D01*
X43Y1562D01*
Y1573D01*
X55Y1585D01*
X90D01*
X113Y1508D02*
X125Y1520D01*
X148D01*
X160Y1508D01*
Y1462D01*
X148Y1450D01*
X125D01*
X113Y1462D01*
X90Y1520D02*
X43D01*
Y1508D01*
X90Y1462D01*
Y1450D01*
X173Y1708D02*
X185Y1720D01*
X208D01*
X220Y1708D01*
Y1662D01*
X208Y1650D01*
X185D01*
X173Y1662D01*
X150Y1650D02*
X127D01*
X138D01*
Y1720D01*
X150Y1708D01*
X45Y1720D02*
X68Y1708D01*
X92Y1685D01*
Y1662D01*
X80Y1650D01*
X57D01*
X45Y1662D01*
Y1673D01*
X57Y1685D01*
X92D01*
X500Y1050D02*
X430D01*
Y1085D01*
X442Y1097D01*
X488D01*
X500Y1085D01*
Y1050D01*
X430Y1167D02*
Y1120D01*
X477Y1167D01*
X488D01*
X500Y1155D01*
Y1132D01*
X488Y1120D01*
D14*
X1585Y1430D02*
X1605D01*
Y1460D01*
X1344Y1430D02*
Y1460D01*
Y1430D02*
X1365D01*
X1605Y1700D02*
Y1730D01*
X1585D02*
X1605D01*
X1344Y1700D02*
Y1730D01*
X1365D01*
X4620Y890D02*
X4970D01*
X4620Y610D02*
X4970D01*
X4620D02*
Y890D01*
X4970Y610D02*
Y890D01*
X4005Y4140D02*
X4155D01*
X4005Y3840D02*
Y4140D01*
Y3840D02*
X4155D01*
Y4140D01*
D182*
X4472Y92D02*
X4538D01*
X4742D02*
X4808D01*
X4472Y428D02*
X4538D01*
X4742D02*
X4808D01*
X4472Y92D02*
Y135D01*
Y385D02*
Y428D01*
X4808Y92D02*
Y135D01*
Y385D02*
Y428D01*
X4335Y1010D02*
Y1050D01*
Y1010D02*
X4375D01*
X4335Y1400D02*
Y1440D01*
X4375D01*
X4725D02*
X4765D01*
Y1400D02*
Y1440D01*
Y1010D02*
Y1050D01*
X4725Y1010D02*
X4765D01*
X1460Y883D02*
X1835D01*
X1460Y1137D02*
X1835D01*
Y1118D02*
Y1137D01*
Y883D02*
Y902D01*
X1460Y1073D02*
Y1137D01*
Y883D02*
Y948D01*
X2100Y570D02*
X2350D01*
X2100Y480D02*
Y570D01*
X2090Y200D02*
Y290D01*
Y200D02*
X2910D01*
Y290D01*
X2900Y480D02*
Y570D01*
X2650D02*
X2900D01*
X2145Y3610D02*
Y3910D01*
X2295Y3610D02*
Y3910D01*
X2300Y3595D02*
X2600D01*
X2300Y3745D02*
X2600D01*
X3640Y3315D02*
X3940D01*
X3640Y3165D02*
X3940D01*
X4485Y4937D02*
X4860D01*
X4485Y4683D02*
X4860D01*
X4485D02*
Y4703D01*
Y4917D02*
Y4937D01*
X4860Y4683D02*
Y4747D01*
Y4872D02*
Y4937D01*
X4663Y3185D02*
Y3560D01*
X4917Y3185D02*
Y3560D01*
X4897Y3185D02*
X4917D01*
X4663D02*
X4683D01*
X4853Y3560D02*
X4917D01*
X4663D02*
X4728D01*
X4090Y2940D02*
Y2950D01*
Y2940D02*
X4330D01*
Y2950D01*
Y3170D02*
Y3180D01*
X4090D02*
X4330D01*
X4090Y3170D02*
Y3180D01*
X4570Y3010D02*
Y3350D01*
X4370D02*
X4570D01*
X4370Y3010D02*
Y3350D01*
Y3010D02*
X4570D01*
X2650Y4330D02*
X2900D01*
Y4420D01*
X2910Y4610D02*
Y4700D01*
X2090D02*
X2910D01*
X2090Y4610D02*
Y4700D01*
X2100Y4330D02*
Y4420D01*
Y4330D02*
X2350D01*
X2825Y3967D02*
X3200D01*
X2825Y3713D02*
X3200D01*
X2825D02*
Y3733D01*
Y3947D02*
Y3967D01*
X3200Y3713D02*
Y3778D01*
Y3903D02*
Y3967D01*
D183*
X3868Y1240D02*
G03*
X3868Y1240I-8J0D01*
G01*
D186*
X4762Y945D02*
G03*
X4762Y945I-12J0D01*
G01*
M02*
