G04*
G04 #@! TF.GenerationSoftware,Altium Limited,Altium Designer,20.0.13 (296)*
G04*
G04 Layer_Physical_Order=3*
G04 Layer_Color=16440176*
%FSLAX42Y42*%
%MOMM*%
G71*
G01*
G75*
%ADD10C,0.20*%
%ADD12C,0.15*%
%ADD99C,0.30*%
%ADD101C,0.45*%
%ADD182C,0.15*%
%ADD183C,0.30*%
%ADD184C,0.40*%
%ADD189C,0.50*%
%ADD194C,1.50*%
%ADD195O,2.10X1.10*%
%ADD196O,3.60X1.10*%
%ADD197O,3.00X1.20*%
%ADD198C,0.90*%
%ADD199C,0.35*%
%ADD200C,0.99*%
%ADD201C,0.50*%
%ADD202C,0.60*%
G36*
X2190Y1690D02*
X2190Y1290D01*
X2160Y1260D01*
X2110D01*
X2080Y1290D01*
Y1520D01*
X1980Y1620D01*
X1980Y1690D01*
X2000Y1710D01*
X2170Y1710D01*
X2190Y1690D01*
D02*
G37*
G36*
X2210Y1690D02*
X2210Y1290D01*
X2240Y1260D01*
X2290Y1260D01*
X2310Y1280D01*
X2310Y1490D01*
X2440Y1620D01*
X2440Y1690D01*
X2420Y1710D01*
X2230Y1710D01*
X2210Y1690D01*
D02*
G37*
G36*
X13517Y5513D02*
X13518D01*
X13523Y5512D01*
X13527Y5512D01*
X13533Y5510D01*
X13538Y5509D01*
X13543Y5507D01*
X13543D01*
X13544Y5507D01*
X13545Y5506D01*
X13545Y5506D01*
X13548Y5505D01*
X13551Y5503D01*
X13554Y5500D01*
X13558Y5497D01*
X13561Y5494D01*
X13564Y5490D01*
Y5490D01*
X13564Y5490D01*
X13565Y5489D01*
X13565Y5488D01*
X13566Y5486D01*
X13568Y5483D01*
X13569Y5479D01*
X13570Y5475D01*
X13572Y5470D01*
X13572Y5465D01*
X13552Y5463D01*
Y5464D01*
Y5464D01*
X13552Y5465D01*
X13551Y5466D01*
X13551Y5468D01*
X13550Y5472D01*
X13548Y5476D01*
X13546Y5479D01*
X13544Y5483D01*
X13540Y5486D01*
X13540Y5486D01*
X13539Y5487D01*
X13536Y5489D01*
X13533Y5490D01*
X13530Y5491D01*
X13525Y5493D01*
X13519Y5494D01*
X13513Y5494D01*
X13509D01*
X13508Y5494D01*
X13506Y5493D01*
X13502Y5493D01*
X13497Y5492D01*
X13493Y5491D01*
X13488Y5489D01*
X13486Y5488D01*
X13485Y5487D01*
X13484Y5487D01*
X13483Y5486D01*
X13482Y5484D01*
X13480Y5482D01*
X13479Y5480D01*
X13477Y5477D01*
X13477Y5474D01*
X13476Y5470D01*
Y5469D01*
Y5468D01*
X13476Y5467D01*
X13477Y5465D01*
X13477Y5463D01*
X13479Y5460D01*
X13480Y5458D01*
X13482Y5456D01*
X13482Y5456D01*
X13483Y5455D01*
X13484Y5454D01*
X13485Y5454D01*
X13487Y5453D01*
X13488Y5452D01*
X13490Y5451D01*
X13493Y5450D01*
X13495Y5449D01*
X13498Y5448D01*
X13502Y5447D01*
X13505Y5446D01*
X13509Y5445D01*
X13514Y5444D01*
X13514D01*
X13515Y5444D01*
X13517Y5444D01*
X13518Y5443D01*
X13520Y5443D01*
X13523Y5442D01*
X13525Y5441D01*
X13528Y5441D01*
X13534Y5439D01*
X13540Y5437D01*
X13543Y5437D01*
X13545Y5436D01*
X13548Y5435D01*
X13549Y5434D01*
X13550D01*
X13550Y5434D01*
X13551Y5433D01*
X13552Y5433D01*
X13554Y5431D01*
X13557Y5430D01*
X13561Y5427D01*
X13564Y5424D01*
X13567Y5421D01*
X13570Y5418D01*
X13570Y5417D01*
X13571Y5416D01*
X13572Y5414D01*
X13574Y5411D01*
X13575Y5408D01*
X13576Y5404D01*
X13577Y5400D01*
X13577Y5395D01*
Y5395D01*
Y5394D01*
Y5394D01*
Y5393D01*
X13576Y5390D01*
X13576Y5387D01*
X13575Y5383D01*
X13574Y5379D01*
X13572Y5375D01*
X13570Y5371D01*
Y5371D01*
X13569Y5370D01*
X13568Y5369D01*
X13567Y5367D01*
X13564Y5365D01*
X13561Y5362D01*
X13558Y5359D01*
X13553Y5356D01*
X13548Y5353D01*
X13548D01*
X13548Y5353D01*
X13547Y5353D01*
X13546Y5353D01*
X13545Y5352D01*
X13543Y5351D01*
X13539Y5350D01*
X13535Y5349D01*
X13530Y5348D01*
X13524Y5347D01*
X13518Y5347D01*
X13514D01*
X13512Y5347D01*
X13510D01*
X13508Y5348D01*
X13505Y5348D01*
X13499Y5349D01*
X13493Y5350D01*
X13487Y5351D01*
X13481Y5353D01*
X13481D01*
X13481Y5354D01*
X13480Y5354D01*
X13479Y5355D01*
X13476Y5356D01*
X13473Y5358D01*
X13469Y5361D01*
X13465Y5364D01*
X13462Y5368D01*
X13458Y5372D01*
Y5373D01*
X13458Y5373D01*
X13458Y5374D01*
X13457Y5375D01*
X13456Y5376D01*
X13456Y5377D01*
X13454Y5381D01*
X13452Y5385D01*
X13451Y5390D01*
X13450Y5396D01*
X13450Y5401D01*
X13470Y5403D01*
Y5403D01*
Y5403D01*
X13470Y5402D01*
Y5401D01*
X13470Y5399D01*
X13471Y5396D01*
X13472Y5393D01*
X13473Y5390D01*
X13474Y5386D01*
X13476Y5383D01*
X13476Y5383D01*
X13477Y5382D01*
X13478Y5381D01*
X13480Y5379D01*
X13482Y5377D01*
X13485Y5375D01*
X13488Y5373D01*
X13492Y5371D01*
X13492D01*
X13493Y5371D01*
X13493Y5370D01*
X13494Y5370D01*
X13496Y5369D01*
X13499Y5369D01*
X13503Y5368D01*
X13507Y5367D01*
X13512Y5366D01*
X13517Y5366D01*
X13519D01*
X13521Y5366D01*
X13524Y5367D01*
X13527Y5367D01*
X13531Y5368D01*
X13535Y5369D01*
X13538Y5370D01*
X13539Y5370D01*
X13540Y5370D01*
X13541Y5371D01*
X13543Y5372D01*
X13545Y5374D01*
X13548Y5375D01*
X13550Y5377D01*
X13552Y5380D01*
X13552Y5380D01*
X13553Y5381D01*
X13553Y5382D01*
X13554Y5384D01*
X13555Y5386D01*
X13556Y5388D01*
X13556Y5390D01*
X13557Y5393D01*
Y5394D01*
Y5395D01*
X13556Y5396D01*
X13556Y5398D01*
X13555Y5400D01*
X13555Y5402D01*
X13554Y5404D01*
X13552Y5406D01*
X13552Y5407D01*
X13551Y5407D01*
X13550Y5408D01*
X13548Y5410D01*
X13547Y5411D01*
X13544Y5413D01*
X13541Y5414D01*
X13538Y5416D01*
X13537Y5416D01*
X13536Y5416D01*
X13534Y5417D01*
X13533Y5417D01*
X13532Y5418D01*
X13530Y5418D01*
X13528Y5419D01*
X13526Y5419D01*
X13523Y5420D01*
X13520Y5421D01*
X13517Y5422D01*
X13513Y5423D01*
X13509Y5424D01*
X13509D01*
X13508Y5424D01*
X13507Y5424D01*
X13506Y5425D01*
X13504Y5425D01*
X13502Y5425D01*
X13497Y5427D01*
X13492Y5428D01*
X13487Y5430D01*
X13482Y5432D01*
X13480Y5433D01*
X13478Y5434D01*
X13478D01*
X13478Y5434D01*
X13476Y5435D01*
X13474Y5436D01*
X13472Y5438D01*
X13469Y5440D01*
X13466Y5442D01*
X13464Y5445D01*
X13461Y5449D01*
X13461Y5449D01*
X13460Y5450D01*
X13459Y5452D01*
X13458Y5454D01*
X13458Y5457D01*
X13457Y5461D01*
X13456Y5465D01*
X13456Y5468D01*
Y5469D01*
Y5469D01*
Y5470D01*
Y5471D01*
X13456Y5473D01*
X13457Y5476D01*
X13457Y5479D01*
X13458Y5483D01*
X13460Y5487D01*
X13462Y5491D01*
Y5491D01*
X13463Y5492D01*
X13464Y5493D01*
X13465Y5495D01*
X13468Y5497D01*
X13470Y5500D01*
X13474Y5502D01*
X13478Y5505D01*
X13483Y5507D01*
X13483D01*
X13483Y5508D01*
X13484Y5508D01*
X13485Y5508D01*
X13486Y5509D01*
X13488Y5509D01*
X13491Y5510D01*
X13496Y5511D01*
X13501Y5512D01*
X13506Y5513D01*
X13512Y5513D01*
X13515D01*
X13517Y5513D01*
D02*
G37*
G36*
X13747D02*
X13749D01*
X13754Y5512D01*
X13758Y5512D01*
X13763Y5510D01*
X13769Y5509D01*
X13774Y5507D01*
X13775D01*
X13775Y5507D01*
X13776Y5507D01*
X13777Y5506D01*
X13779Y5505D01*
X13782Y5503D01*
X13786Y5501D01*
X13790Y5498D01*
X13793Y5495D01*
X13796Y5491D01*
X13797Y5491D01*
X13798Y5490D01*
X13799Y5487D01*
X13801Y5484D01*
X13803Y5481D01*
X13805Y5476D01*
X13807Y5471D01*
X13809Y5465D01*
X13789Y5460D01*
Y5460D01*
X13789Y5461D01*
X13789Y5461D01*
X13789Y5462D01*
X13788Y5464D01*
X13787Y5467D01*
X13786Y5470D01*
X13784Y5473D01*
X13782Y5477D01*
X13780Y5479D01*
X13780Y5480D01*
X13779Y5481D01*
X13778Y5482D01*
X13776Y5483D01*
X13774Y5485D01*
X13772Y5487D01*
X13769Y5489D01*
X13765Y5490D01*
X13765Y5491D01*
X13763Y5491D01*
X13761Y5492D01*
X13759Y5493D01*
X13755Y5493D01*
X13752Y5494D01*
X13747Y5495D01*
X13743Y5495D01*
X13741D01*
X13739Y5495D01*
X13738D01*
X13735Y5494D01*
X13731Y5494D01*
X13726Y5493D01*
X13722Y5492D01*
X13718Y5490D01*
X13717Y5490D01*
X13716Y5490D01*
X13714Y5488D01*
X13712Y5487D01*
X13709Y5485D01*
X13706Y5484D01*
X13703Y5481D01*
X13701Y5479D01*
X13701Y5478D01*
X13700Y5477D01*
X13698Y5476D01*
X13697Y5474D01*
X13695Y5472D01*
X13694Y5469D01*
X13692Y5466D01*
X13691Y5463D01*
Y5462D01*
X13690Y5462D01*
X13690Y5461D01*
X13690Y5460D01*
X13689Y5459D01*
X13689Y5457D01*
X13688Y5455D01*
X13688Y5453D01*
X13686Y5448D01*
X13685Y5443D01*
X13685Y5437D01*
X13685Y5431D01*
Y5430D01*
Y5430D01*
Y5428D01*
X13685Y5427D01*
Y5425D01*
X13685Y5423D01*
X13685Y5421D01*
X13685Y5418D01*
X13686Y5412D01*
X13688Y5406D01*
X13689Y5400D01*
X13692Y5394D01*
Y5394D01*
X13692Y5394D01*
X13692Y5393D01*
X13693Y5392D01*
X13695Y5390D01*
X13697Y5386D01*
X13700Y5383D01*
X13704Y5379D01*
X13708Y5376D01*
X13713Y5373D01*
X13713D01*
X13714Y5373D01*
X13715Y5372D01*
X13716Y5372D01*
X13717Y5372D01*
X13719Y5371D01*
X13722Y5370D01*
X13727Y5369D01*
X13732Y5367D01*
X13738Y5366D01*
X13743Y5366D01*
X13746D01*
X13747Y5366D01*
X13748D01*
X13752Y5367D01*
X13756Y5367D01*
X13760Y5368D01*
X13765Y5370D01*
X13770Y5371D01*
X13770D01*
X13771Y5372D01*
X13771Y5372D01*
X13772Y5372D01*
X13775Y5373D01*
X13778Y5375D01*
X13781Y5376D01*
X13784Y5378D01*
X13788Y5380D01*
X13790Y5383D01*
Y5413D01*
X13743D01*
Y5432D01*
X13811D01*
Y5372D01*
X13811Y5372D01*
X13810Y5372D01*
X13810Y5371D01*
X13808Y5370D01*
X13807Y5369D01*
X13805Y5368D01*
X13803Y5367D01*
X13801Y5365D01*
X13796Y5362D01*
X13791Y5359D01*
X13785Y5356D01*
X13779Y5353D01*
X13779D01*
X13778Y5353D01*
X13777Y5353D01*
X13776Y5353D01*
X13774Y5352D01*
X13772Y5351D01*
X13770Y5351D01*
X13768Y5350D01*
X13763Y5349D01*
X13757Y5348D01*
X13751Y5347D01*
X13745Y5347D01*
X13742D01*
X13741Y5347D01*
X13739D01*
X13736Y5348D01*
X13733Y5348D01*
X13730Y5348D01*
X13724Y5350D01*
X13716Y5351D01*
X13709Y5354D01*
X13705Y5355D01*
X13702Y5357D01*
X13701Y5357D01*
X13701Y5358D01*
X13700Y5358D01*
X13698Y5359D01*
X13697Y5360D01*
X13695Y5361D01*
X13691Y5365D01*
X13686Y5369D01*
X13681Y5374D01*
X13677Y5380D01*
X13673Y5386D01*
Y5387D01*
X13672Y5387D01*
X13672Y5388D01*
X13671Y5390D01*
X13670Y5391D01*
X13670Y5394D01*
X13669Y5396D01*
X13668Y5399D01*
X13667Y5402D01*
X13666Y5405D01*
X13665Y5409D01*
X13664Y5412D01*
X13663Y5421D01*
X13663Y5429D01*
Y5429D01*
Y5430D01*
Y5431D01*
X13663Y5433D01*
Y5435D01*
X13663Y5438D01*
X13664Y5440D01*
X13664Y5443D01*
X13665Y5446D01*
X13665Y5450D01*
X13667Y5457D01*
X13669Y5465D01*
X13673Y5473D01*
X13673Y5473D01*
X13673Y5474D01*
X13673Y5474D01*
X13674Y5476D01*
X13675Y5478D01*
X13676Y5480D01*
X13680Y5484D01*
X13684Y5489D01*
X13688Y5494D01*
X13694Y5499D01*
X13697Y5501D01*
X13701Y5503D01*
X13701Y5503D01*
X13701Y5503D01*
X13702Y5504D01*
X13704Y5505D01*
X13706Y5505D01*
X13708Y5506D01*
X13710Y5507D01*
X13713Y5508D01*
X13716Y5509D01*
X13719Y5510D01*
X13723Y5511D01*
X13726Y5511D01*
X13734Y5512D01*
X13738Y5513D01*
X13746D01*
X13747Y5513D01*
D02*
G37*
G36*
X13305Y5511D02*
X13308Y5510D01*
X13312Y5509D01*
X13316Y5508D01*
X13320Y5507D01*
X13324Y5505D01*
X13324D01*
X13325Y5505D01*
X13326Y5504D01*
X13328Y5503D01*
X13330Y5501D01*
X13333Y5499D01*
X13336Y5496D01*
X13339Y5493D01*
X13341Y5490D01*
X13341Y5489D01*
X13342Y5488D01*
X13343Y5486D01*
X13344Y5484D01*
X13345Y5481D01*
X13346Y5477D01*
X13347Y5473D01*
X13347Y5469D01*
Y5469D01*
Y5467D01*
X13347Y5465D01*
X13346Y5463D01*
X13346Y5460D01*
X13344Y5457D01*
X13343Y5453D01*
X13341Y5450D01*
X13341Y5450D01*
X13340Y5449D01*
X13339Y5447D01*
X13337Y5445D01*
X13335Y5443D01*
X13332Y5441D01*
X13329Y5439D01*
X13325Y5437D01*
X13325D01*
X13325Y5437D01*
X13326Y5436D01*
X13327Y5436D01*
X13330Y5435D01*
X13333Y5434D01*
X13337Y5432D01*
X13340Y5430D01*
X13344Y5427D01*
X13347Y5423D01*
X13347Y5423D01*
X13348Y5421D01*
X13349Y5419D01*
X13351Y5416D01*
X13352Y5412D01*
X13354Y5408D01*
X13355Y5403D01*
X13355Y5397D01*
Y5397D01*
Y5396D01*
Y5395D01*
X13355Y5394D01*
X13354Y5392D01*
X13354Y5390D01*
X13353Y5387D01*
X13353Y5385D01*
X13351Y5379D01*
X13350Y5376D01*
X13348Y5374D01*
X13346Y5371D01*
X13344Y5368D01*
X13342Y5365D01*
X13339Y5362D01*
X13339Y5362D01*
X13339Y5361D01*
X13338Y5360D01*
X13337Y5359D01*
X13335Y5358D01*
X13333Y5357D01*
X13331Y5356D01*
X13329Y5355D01*
X13326Y5353D01*
X13323Y5352D01*
X13320Y5351D01*
X13317Y5350D01*
X13313Y5349D01*
X13309Y5348D01*
X13305Y5347D01*
X13301Y5347D01*
X13299D01*
X13297Y5347D01*
X13295Y5348D01*
X13293Y5348D01*
X13291Y5348D01*
X13288Y5349D01*
X13283Y5350D01*
X13277Y5353D01*
X13274Y5354D01*
X13271Y5356D01*
X13269Y5358D01*
X13266Y5360D01*
X13266Y5360D01*
X13265Y5360D01*
X13264Y5361D01*
X13264Y5362D01*
X13262Y5363D01*
X13261Y5365D01*
X13260Y5366D01*
X13259Y5369D01*
X13257Y5371D01*
X13256Y5373D01*
X13253Y5379D01*
X13251Y5385D01*
X13250Y5389D01*
X13250Y5392D01*
X13270Y5395D01*
Y5395D01*
X13270Y5394D01*
X13270Y5393D01*
X13270Y5392D01*
X13271Y5391D01*
X13271Y5389D01*
X13272Y5386D01*
X13274Y5381D01*
X13276Y5378D01*
X13278Y5374D01*
X13281Y5371D01*
X13281Y5370D01*
X13282Y5369D01*
X13284Y5368D01*
X13287Y5367D01*
X13289Y5366D01*
X13293Y5365D01*
X13297Y5364D01*
X13301Y5363D01*
X13302D01*
X13303Y5364D01*
X13306Y5364D01*
X13309Y5365D01*
X13313Y5366D01*
X13317Y5367D01*
X13321Y5370D01*
X13324Y5373D01*
X13325Y5373D01*
X13326Y5375D01*
X13327Y5377D01*
X13329Y5380D01*
X13331Y5383D01*
X13332Y5387D01*
X13334Y5392D01*
X13334Y5397D01*
Y5397D01*
Y5397D01*
Y5398D01*
X13334Y5399D01*
X13334Y5402D01*
X13333Y5405D01*
X13332Y5408D01*
X13330Y5412D01*
X13328Y5416D01*
X13325Y5419D01*
X13325Y5420D01*
X13323Y5421D01*
X13322Y5422D01*
X13319Y5424D01*
X13316Y5425D01*
X13312Y5427D01*
X13307Y5428D01*
X13303Y5428D01*
X13300D01*
X13299Y5428D01*
X13297Y5428D01*
X13294Y5427D01*
X13292Y5427D01*
X13289Y5426D01*
X13291Y5443D01*
X13292D01*
X13293Y5443D01*
X13296D01*
X13299Y5443D01*
X13302Y5444D01*
X13305Y5445D01*
X13309Y5446D01*
X13313Y5447D01*
X13317Y5449D01*
X13317D01*
X13317Y5450D01*
X13318Y5451D01*
X13320Y5452D01*
X13322Y5454D01*
X13324Y5457D01*
X13325Y5461D01*
X13326Y5465D01*
X13327Y5467D01*
Y5470D01*
Y5470D01*
Y5470D01*
Y5471D01*
X13326Y5473D01*
X13326Y5476D01*
X13325Y5479D01*
X13324Y5482D01*
X13322Y5485D01*
X13319Y5487D01*
X13319Y5488D01*
X13318Y5489D01*
X13316Y5490D01*
X13314Y5491D01*
X13312Y5492D01*
X13308Y5493D01*
X13305Y5494D01*
X13300Y5495D01*
X13299D01*
X13297Y5494D01*
X13294Y5494D01*
X13291Y5493D01*
X13288Y5492D01*
X13284Y5490D01*
X13281Y5487D01*
X13281Y5487D01*
X13280Y5486D01*
X13279Y5484D01*
X13277Y5482D01*
X13276Y5479D01*
X13274Y5475D01*
X13273Y5471D01*
X13272Y5466D01*
X13252Y5469D01*
Y5470D01*
X13252Y5470D01*
X13253Y5471D01*
X13253Y5473D01*
X13253Y5474D01*
X13254Y5476D01*
X13255Y5481D01*
X13258Y5486D01*
X13260Y5491D01*
X13264Y5496D01*
X13268Y5500D01*
X13269Y5500D01*
X13269Y5500D01*
X13270Y5501D01*
X13271Y5502D01*
X13272Y5502D01*
X13273Y5503D01*
X13275Y5504D01*
X13277Y5505D01*
X13282Y5507D01*
X13287Y5509D01*
X13293Y5510D01*
X13297Y5511D01*
X13302D01*
X13305Y5511D01*
D02*
G37*
G36*
X13433Y5398D02*
X13372D01*
Y5418D01*
X13433D01*
Y5398D01*
D02*
G37*
G36*
X13968Y5350D02*
X13946D01*
X13862Y5476D01*
Y5350D01*
X13842D01*
Y5510D01*
X13864D01*
X13948Y5384D01*
Y5510D01*
X13968D01*
Y5350D01*
D02*
G37*
G36*
X14173Y5369D02*
X14252D01*
Y5350D01*
X14152D01*
Y5510D01*
X14173D01*
Y5369D01*
D02*
G37*
G36*
X14136Y5350D02*
X14112D01*
X14093Y5399D01*
X14026D01*
X14009Y5350D01*
X13986D01*
X14047Y5510D01*
X14071D01*
X14136Y5350D01*
D02*
G37*
G36*
X13631D02*
X13610D01*
Y5510D01*
X13631D01*
Y5350D01*
D02*
G37*
%LPC*%
G36*
X14058Y5493D02*
Y5493D01*
X14058Y5493D01*
Y5492D01*
X14058Y5491D01*
X14058Y5489D01*
X14057Y5488D01*
X14056Y5484D01*
X14055Y5479D01*
X14053Y5474D01*
X14052Y5468D01*
X14050Y5463D01*
X14032Y5416D01*
X14086D01*
X14070Y5460D01*
Y5460D01*
X14070Y5461D01*
X14069Y5462D01*
X14069Y5463D01*
X14068Y5465D01*
X14067Y5467D01*
X14067Y5469D01*
X14066Y5472D01*
X14064Y5477D01*
X14062Y5483D01*
X14060Y5488D01*
X14058Y5493D01*
D02*
G37*
%LPD*%
D10*
X1780Y3390D02*
X1820Y3350D01*
X1250Y3920D02*
X1610D01*
X1780Y3750D01*
Y3390D02*
Y3750D01*
X970Y3620D02*
X1040Y3690D01*
X1320Y3020D02*
X1480Y2860D01*
X1080Y3020D02*
X1320D01*
X970Y3130D02*
X1080Y3020D01*
X970Y3130D02*
Y3620D01*
X1040Y3690D02*
Y4570D01*
X1160Y4690D01*
X1250D01*
D12*
X540Y1290D02*
X540Y1290D01*
X1800Y1600D02*
X1980Y1780D01*
X1800Y1240D02*
Y1600D01*
X3020Y690D02*
X3110Y780D01*
X2880Y690D02*
X3020D01*
X2560Y370D02*
X2880Y690D01*
X2893Y660D02*
X4100D01*
X2453Y220D02*
X2893Y660D01*
X4097Y2077D02*
X4480Y2460D01*
X3567Y2077D02*
X4097D01*
X4449Y2479D02*
Y2609D01*
X4078Y2108D02*
X4449Y2479D01*
X3498Y2108D02*
X4078D01*
X3158Y2138D02*
X3757D01*
X3124Y2169D02*
X3745D01*
X3112Y2199D02*
X3732D01*
X3099Y2230D02*
X3720D01*
X3732Y2199D02*
X3834Y2300D01*
X3745Y2169D02*
X3846Y2270D01*
X3757Y2138D02*
X3859Y2240D01*
X4870Y2390D02*
Y3010D01*
X4810Y2330D02*
X4870Y2390D01*
X1570Y2320D02*
Y2460D01*
X1430Y2600D02*
X1570Y2460D01*
X370Y460D02*
X420Y510D01*
X300Y460D02*
X370D01*
X710Y940D02*
Y1660D01*
X320Y550D02*
X710Y940D01*
X320Y510D02*
Y550D01*
X2480Y540D02*
X2740Y800D01*
X2340Y540D02*
X2480D01*
X3630Y1520D02*
X3900D01*
X3560Y1450D02*
X3630Y1520D01*
X3560Y1418D02*
Y1450D01*
X3900Y1520D02*
X3930Y1490D01*
Y1387D02*
Y1490D01*
X3423Y880D02*
X3930Y1387D01*
X3063Y880D02*
X3423D01*
X2953Y770D02*
X3063Y880D01*
X2753Y770D02*
X2953D01*
X2470Y487D02*
X2753Y770D01*
X2470Y430D02*
Y487D01*
X2740Y800D02*
X2940D01*
X2150Y740D02*
X2200Y790D01*
X2150Y430D02*
Y740D01*
Y430D02*
X2210Y370D01*
X2560D01*
X3410Y910D02*
X3880Y1380D01*
X3050Y910D02*
X3410D01*
X2940Y800D02*
X3050Y910D01*
X1800Y220D02*
X2453D01*
X1630Y390D02*
X1800Y220D01*
X2740Y2630D02*
X2823D01*
X3720Y2583D02*
Y2600D01*
X3760Y2640D01*
X3677Y2540D02*
X3720Y2583D01*
X2823Y2630D02*
X2913Y2540D01*
X3677D01*
X1880Y2573D02*
Y2590D01*
X1850Y2620D02*
X1880Y2590D01*
X2630Y2520D02*
X2740Y2630D01*
X1933Y2520D02*
X2630D01*
X1880Y2573D02*
X1933Y2520D01*
X2723Y2670D02*
X2840D01*
X3680Y2600D02*
Y2640D01*
X3660Y2580D02*
X3680Y2600D01*
X2840Y2670D02*
X2930Y2580D01*
X3660D01*
X1920Y2590D02*
X1950Y2560D01*
X2613D01*
X1920Y2590D02*
Y2620D01*
X2613Y2560D02*
X2723Y2670D01*
X1660Y1990D02*
X1680Y1970D01*
X1493Y1990D02*
X1660D01*
X1323Y2160D02*
X1493Y1990D01*
X1080Y2160D02*
X1323D01*
X990Y2070D02*
X1080Y2160D01*
X990Y1852D02*
Y2070D01*
X968Y1810D02*
Y1830D01*
X990Y1852D01*
X968Y1810D02*
X980Y1798D01*
Y1770D02*
Y1798D01*
X1660Y2030D02*
X1680Y2050D01*
X1510Y2030D02*
X1660D01*
X1063Y2200D02*
X1340D01*
X950Y2087D02*
X1063Y2200D01*
X1340D02*
X1510Y2030D01*
X950Y1869D02*
Y2087D01*
X927Y1847D02*
X950Y1869D01*
X927Y1810D02*
Y1847D01*
X915Y1798D02*
X927Y1810D01*
X915Y1765D02*
Y1798D01*
X3415Y2415D02*
X3440Y2390D01*
X3092Y2415D02*
X3415D01*
X2847Y2170D02*
X3092Y2415D01*
X2438Y2352D02*
X2620Y2170D01*
X2847D01*
X2277Y2310D02*
X2318Y2352D01*
X2438D01*
X1840Y2310D02*
X2277D01*
X1640Y2110D02*
X1840Y2310D01*
X1590Y2110D02*
X1640D01*
X1570Y2090D02*
X1590Y2110D01*
X3415Y2455D02*
X3440Y2480D01*
X3075Y2455D02*
X3415D01*
X2830Y2210D02*
X3075Y2455D01*
X2455Y2392D02*
X2637Y2210D01*
X2830D01*
X2260Y2350D02*
X2302Y2392D01*
X2455D01*
X1823Y2350D02*
X2260D01*
X1623Y2150D02*
X1823Y2350D01*
X1570Y2170D02*
X1590Y2150D01*
X1623D01*
X4334Y1500D02*
X4710D01*
X4230Y1710D02*
X4706D01*
X4134Y1300D02*
X4334Y1500D01*
X4480Y2460D02*
Y2596D01*
X4140Y2220D02*
X4419Y2499D01*
Y2716D01*
X4480Y2596D02*
X4630Y2747D01*
X4449Y2609D02*
X4720Y2880D01*
X4419Y2716D02*
X4648Y2945D01*
X4370Y2600D02*
Y3400D01*
X4070Y2300D02*
X4370Y2600D01*
X4340Y2613D02*
Y3430D01*
X4058Y2331D02*
X4340Y2613D01*
X4309Y2839D02*
Y3459D01*
X4250Y2780D02*
X4309Y2839D01*
X3690Y2780D02*
X4250D01*
X4630Y2747D02*
X4687D01*
X4770Y2830D01*
Y2880D01*
X4720D02*
Y2925D01*
X4745Y2950D01*
X4800D01*
X3260Y1390D02*
Y1520D01*
X3100Y1230D02*
X3260Y1390D01*
Y1520D02*
X3330Y1590D01*
X3110Y780D02*
X3330D01*
X275Y485D02*
X300Y460D01*
X275Y555D02*
X670Y950D01*
X275Y485D02*
Y555D01*
X140Y400D02*
X830D01*
X80Y460D02*
X140Y400D01*
X4380Y3530D02*
Y3590D01*
X4309Y3459D02*
X4380Y3530D01*
X4370Y3400D02*
X4560Y3590D01*
X4420Y340D02*
X4500D01*
X4570Y410D02*
X4720D01*
X4500Y340D02*
X4570Y410D01*
X4100Y660D02*
X4420Y340D01*
X2130Y1180D02*
X2257D01*
X2313Y1237D01*
X1960Y1190D02*
X1990Y1160D01*
X1850Y1190D02*
X1960D01*
X830Y400D02*
X1170Y740D01*
X2970Y2790D02*
X3316D01*
X2910Y2730D02*
X2970Y2790D01*
X3480Y2090D02*
X3498Y2108D01*
X3110Y2090D02*
X3158Y2138D01*
X2899Y1943D02*
X3124Y2169D01*
X2869Y1956D02*
X3112Y2199D01*
X2838Y1968D02*
X3099Y2230D01*
X3590Y2260D02*
X3660Y2330D01*
X3080Y2260D02*
X3590D01*
X2790Y1970D02*
X3080Y2260D01*
X2830Y2880D02*
X3450D01*
X3520Y2950D01*
X2810Y2920D02*
X3405D01*
X3460Y2975D01*
X3830Y2880D02*
X3980D01*
X3590Y3120D02*
X3830Y2880D01*
X3980D02*
X4030Y2930D01*
X1360Y2600D02*
X1470Y2490D01*
Y2380D02*
Y2490D01*
X1180Y2600D02*
X1360D01*
X2670Y793D02*
Y900D01*
X2517Y640D02*
X2670Y793D01*
X2230Y640D02*
X2517D01*
X1938Y2991D02*
X2419D01*
X1707Y2760D02*
X1938Y2991D01*
X1430Y2760D02*
X1707D01*
X1390Y2800D02*
X1430Y2760D01*
X950Y2800D02*
X1390D01*
X880Y1870D02*
Y2730D01*
X840Y1830D02*
X880Y1870D01*
X690Y1830D02*
X840D01*
X370Y1510D02*
X690Y1830D01*
X880Y2730D02*
X950Y2800D01*
X670Y950D02*
Y1750D01*
X720Y1670D02*
Y1720D01*
X710Y1660D02*
X720Y1670D01*
X670Y1750D02*
X700Y1780D01*
X910Y1560D02*
X1700D01*
X750Y1720D02*
X910Y1560D01*
X720Y1720D02*
X750D01*
X920Y1600D02*
X1680D01*
X790Y1730D02*
X920Y1600D01*
X790Y1730D02*
Y1760D01*
X700Y1780D02*
X770D01*
X2419Y2991D02*
X2450Y2960D01*
X2340Y3151D02*
X2340D01*
X2290Y3200D02*
X2340Y3151D01*
X1955Y2720D02*
X1992Y2757D01*
X2480Y2830D02*
X2670Y3020D01*
X2270Y2870D02*
X2330D01*
X2370Y2830D01*
X2480D01*
X2590Y2880D02*
X2770D01*
X2467Y2757D02*
X2590Y2880D01*
X1992Y2757D02*
X2467D01*
X2610Y2840D02*
X2790D01*
X2490Y2720D02*
X2610Y2840D01*
X2210Y2720D02*
X2490D01*
X2230Y2830D02*
X2270Y2870D01*
X1980Y2830D02*
X2230D01*
X1910Y2760D02*
X1980Y2830D01*
X2620Y2790D02*
X2820D01*
X2435Y2605D02*
X2620Y2790D01*
X2400Y2605D02*
X2435D01*
X1980Y1780D02*
X2170D01*
X2210Y1820D01*
Y2220D01*
X2170Y2260D02*
X2210Y2220D01*
X1970Y2260D02*
X2170D01*
X1218Y972D02*
X1270Y920D01*
X1640D01*
X1710Y990D01*
X2000D01*
X2050Y1040D01*
Y1510D01*
X1950Y1610D02*
X2050Y1510D01*
X1950Y1610D02*
Y1707D01*
X1993Y1750D01*
X2300D01*
X2330Y1780D01*
Y2230D01*
X2390Y2290D01*
X2020Y1880D02*
Y2050D01*
X1700Y1560D02*
X2020Y1880D01*
X1980Y1900D02*
Y2060D01*
X1680Y1600D02*
X1980Y1900D01*
X1800Y1240D02*
X1850Y1190D01*
X1930Y2250D02*
X1960D01*
X1970Y2260D01*
X2000Y2210D02*
X2020Y2230D01*
X2090D01*
X2110Y2210D01*
X2060Y2140D02*
Y2180D01*
X2110Y2140D02*
Y2210D01*
X2020Y2050D02*
X2110Y2140D01*
X1980Y2060D02*
X2060Y2140D01*
X3330Y1590D02*
X3900D01*
X2708Y1590D02*
X2838Y1720D01*
X2739Y1578D02*
X2869Y1708D01*
X2769Y1565D02*
X2899Y1695D01*
X2580Y1970D02*
X2790D01*
X2838Y1720D02*
Y1968D01*
X2708Y1415D02*
Y1590D01*
X2031Y2451D02*
Y2459D01*
X2000Y2180D02*
Y2210D01*
X2650Y2936D02*
X2699Y2985D01*
X2770Y2880D02*
X2810Y2920D01*
X2820Y2790D02*
X2860Y2830D01*
X3370D01*
X2790Y2840D02*
X2830Y2880D01*
X3420Y3120D02*
X3590D01*
X3285Y2985D02*
X3420Y3120D01*
X3250Y3130D02*
Y3250D01*
X3560Y2650D02*
X3690Y2780D01*
X3380Y2650D02*
X3560D01*
X3440Y2710D02*
Y2760D01*
X2869Y1708D02*
Y1956D01*
X2899Y1695D02*
Y1943D01*
X2649Y1356D02*
X2708Y1415D01*
X2649Y1302D02*
Y1356D01*
X2317Y970D02*
X2649Y1302D01*
X2223Y970D02*
X2317D01*
X2100Y847D02*
X2223Y970D01*
X3180Y2090D02*
X3480D01*
X2739Y1403D02*
Y1578D01*
X2680Y1344D02*
X2739Y1403D01*
X2680Y1290D02*
Y1344D01*
X2310Y920D02*
X2680Y1290D01*
X2769Y1390D02*
Y1565D01*
X2863Y960D02*
X2903Y1000D01*
X3880Y1380D02*
Y1460D01*
X2710Y1146D02*
Y1331D01*
Y1146D02*
X2826Y1030D01*
X2830D01*
X2710Y1331D02*
X2769Y1390D01*
X2730Y960D02*
X2863D01*
X2670Y900D02*
X2730Y960D01*
X2699Y2985D02*
X3285D01*
X3330Y1970D02*
X3460D01*
X770Y1780D02*
X790Y1760D01*
X1510Y2260D02*
X1620D01*
X1180Y2400D02*
X1370D01*
X1510Y2260D01*
X1520Y3330D02*
Y3380D01*
X1330Y3140D02*
X1520Y3330D01*
X1270Y3140D02*
X1330D01*
X1520Y3380D02*
X1700Y3560D01*
Y3640D01*
X1660Y3680D02*
X1700Y3640D01*
X1940Y3770D02*
X2305D01*
X1870Y3700D02*
X1940Y3770D01*
X1870Y3560D02*
Y3700D01*
X2310Y3485D02*
X2310Y3485D01*
Y3440D02*
Y3485D01*
X2290Y3420D02*
X2310Y3440D01*
X2290Y3200D02*
Y3420D01*
X2170Y3110D02*
Y3160D01*
X2180Y3170D01*
Y3480D01*
X2020Y2450D02*
X2030D01*
X2031Y2451D01*
X2040Y2670D02*
X2160D01*
X2210Y2720D01*
X4050Y2220D02*
X4140D01*
X3460Y1970D02*
X3567Y2077D01*
X4030Y2240D02*
X4050Y2220D01*
X4110Y1590D02*
X4230Y1710D01*
X3930Y1240D02*
X3990Y1300D01*
X4134D01*
X3370Y2830D02*
X3440Y2760D01*
X3316Y2790D02*
X3376Y2730D01*
X3170D02*
X3300D01*
X3380Y2650D01*
X3720Y2230D02*
X3821Y2331D01*
X4058D01*
X3834Y2300D02*
X4070D01*
X3859Y2240D02*
X4030D01*
X3846Y2270D02*
X4120D01*
X3660Y2330D02*
X3750D01*
X2880Y1420D02*
X2903Y1397D01*
Y1000D02*
Y1397D01*
X2550Y1790D02*
X2590Y1830D01*
X2410Y1443D02*
X2550Y1583D01*
Y1790D01*
X3650Y3330D02*
X3970Y3650D01*
X3250Y3250D02*
X3330Y3330D01*
X3650D01*
X3900Y1590D02*
Y1660D01*
Y1590D02*
X4110D01*
X4340Y3430D02*
X4440Y3530D01*
X4410Y3650D02*
X4440Y3620D01*
X3970Y3650D02*
X4410D01*
X4440Y3530D02*
Y3620D01*
X4706Y1710D02*
X4810Y1814D01*
Y2330D01*
X4930Y1720D02*
Y2230D01*
X4870Y2290D02*
X4930Y2230D01*
X4710Y1500D02*
X4930Y1720D01*
X500Y1290D02*
X540D01*
X490Y1300D02*
X500Y1290D01*
X370Y1343D02*
Y1510D01*
Y1343D02*
X413Y1300D01*
X490D01*
X1880Y740D02*
X2410Y1270D01*
Y1443D01*
X1170Y740D02*
X1880D01*
X2313Y1237D02*
X2360Y1283D01*
Y1450D01*
X2500Y1590D01*
Y1890D01*
X2580Y1970D01*
D99*
X4805Y1700D02*
D03*
Y3300D02*
D03*
D101*
X540Y1290D02*
D03*
X520Y1380D02*
D03*
X590D02*
D03*
X550Y1520D02*
D03*
X4533Y4874D02*
D03*
X2290Y495D02*
D03*
X2340Y540D02*
D03*
X3620Y1418D02*
D03*
X2470Y430D02*
D03*
X2250Y270D02*
D03*
X2200D02*
D03*
X3760Y2640D02*
D03*
X3680D02*
D03*
X1920Y2620D02*
D03*
X1850D02*
D03*
X980Y1770D02*
D03*
X915Y1765D02*
D03*
X1680Y1970D02*
D03*
Y2050D02*
D03*
X3440Y2390D02*
D03*
Y2480D02*
D03*
X1570Y2090D02*
D03*
X1570Y2170D02*
D03*
X4870Y3570D02*
D03*
Y2220D02*
D03*
X4680Y2460D02*
D03*
X4720Y1420D02*
D03*
X4790Y1440D02*
D03*
X4288Y1250D02*
D03*
X4240Y1300D02*
D03*
X4870Y3010D02*
D03*
X4800Y2950D02*
D03*
X4770Y2880D02*
D03*
X4710Y4710D02*
D03*
X4853Y3355D02*
D03*
X4855Y3492D02*
D03*
X4830Y3700D02*
D03*
X2650Y180D02*
D03*
X480Y240D02*
D03*
X3210Y1070D02*
D03*
X3160Y1460D02*
D03*
X3210Y1500D02*
D03*
Y1420D02*
D03*
X3320Y1470D02*
D03*
X3100Y1420D02*
D03*
X3390Y710D02*
D03*
X3330Y780D02*
D03*
X3260Y720D02*
D03*
X320Y510D02*
D03*
X420D02*
D03*
X80Y460D02*
D03*
X2880Y4095D02*
D03*
X2940Y4160D02*
D03*
X1420Y3140D02*
D03*
X1470Y3050D02*
D03*
X1890Y3360D02*
D03*
X4695Y3810D02*
D03*
X4650Y2880D02*
D03*
X4648Y2945D02*
D03*
X4560Y3590D02*
D03*
X4630Y2680D02*
D03*
X4410Y560D02*
D03*
X4460D02*
D03*
X4340Y100D02*
D03*
Y230D02*
D03*
X1990Y1160D02*
D03*
X2130Y1180D02*
D03*
X3830Y1960D02*
D03*
X1580Y994D02*
D03*
X2840Y2730D02*
D03*
X2910Y2730D02*
D03*
X2980Y2730D02*
D03*
X3460Y2975D02*
D03*
X3520Y2950D02*
D03*
X3660Y2920D02*
D03*
X4870Y2290D02*
D03*
X2650Y3800D02*
D03*
X2700Y3820D02*
D03*
X1260Y4860D02*
D03*
X1360Y4550D02*
D03*
X1620Y1930D02*
D03*
X610Y1670D02*
D03*
X1670Y2640D02*
D03*
X1430Y2600D02*
D03*
X1340Y2550D02*
D03*
X4720Y410D02*
D03*
X4750Y910D02*
D03*
X4850Y1440D02*
D03*
X2450Y3690D02*
D03*
X2510Y3580D02*
D03*
X2450Y3620D02*
D03*
X570Y1620D02*
D03*
X2450Y2960D02*
D03*
X2340Y3151D02*
D03*
X2320Y3060D02*
D03*
X2620Y2725D02*
D03*
X2685D02*
D03*
X2750Y2730D02*
D03*
X2060Y2180D02*
D03*
X2390Y2460D02*
D03*
X2390Y2290D02*
D03*
X2390Y2190D02*
D03*
X2330Y2460D02*
D03*
X3450Y1430D02*
D03*
X3510Y1460D02*
D03*
X3340Y1410D02*
D03*
X2750Y1790D02*
D03*
X2780Y1730D02*
D03*
X2620Y1760D02*
D03*
X2750Y1920D02*
D03*
X3020Y1730D02*
D03*
X2600Y1690D02*
D03*
X2840Y2090D02*
D03*
X2830Y880D02*
D03*
X2658Y1662D02*
D03*
X2170Y2400D02*
D03*
X2031Y2459D02*
D03*
X2590Y1830D02*
D03*
X2820Y3150D02*
D03*
X2830Y3080D02*
D03*
X2650Y2936D02*
D03*
X2720Y2940D02*
D03*
X3400Y2980D02*
D03*
X4560Y2390D02*
D03*
Y2320D02*
D03*
X4380Y3590D02*
D03*
X3440Y2710D02*
D03*
X3250Y3130D02*
D03*
X4030Y2930D02*
D03*
X2890Y2140D02*
D03*
X4320Y4030D02*
D03*
X4110Y2930D02*
D03*
X2590Y3840D02*
D03*
X3890Y2625D02*
D03*
X4180Y2850D02*
D03*
X2680Y2490D02*
D03*
X2730Y2430D02*
D03*
X2788Y2392D02*
D03*
X2790Y2330D02*
D03*
Y2260D02*
D03*
X4610Y590D02*
D03*
X3170Y3420D02*
D03*
X1860Y2800D02*
D03*
Y2710D02*
D03*
X1910Y2760D02*
D03*
X1530Y2950D02*
D03*
X2780Y1240D02*
D03*
X2830Y1030D02*
D03*
X2620Y1480D02*
D03*
X2580Y1530D02*
D03*
X2660Y1600D02*
D03*
X2657Y1530D02*
D03*
X2670Y3020D02*
D03*
X3110Y2090D02*
D03*
X3330Y1970D02*
D03*
X560Y340D02*
D03*
X2000Y2180D02*
D03*
X1955Y2720D02*
D03*
X1720Y2910D02*
D03*
Y2970D02*
D03*
X1820Y3070D02*
D03*
X1810Y3175D02*
D03*
X1820Y3350D02*
D03*
X770Y1780D02*
D03*
X720Y1720D02*
D03*
X2577Y770D02*
D03*
X2750Y900D02*
D03*
X2660Y570D02*
D03*
X3670Y2030D02*
D03*
X3380Y1460D02*
D03*
X3560Y1418D02*
D03*
X3880Y1460D02*
D03*
X3740Y1460D02*
D03*
X3690Y1420D02*
D03*
X4120Y2270D02*
D03*
X4240Y2850D02*
D03*
X3820Y2670D02*
D03*
X3870Y2730D02*
D03*
X2790Y2580D02*
D03*
X1350Y1720D02*
D03*
X1930Y2180D02*
D03*
Y2250D02*
D03*
X3600Y2030D02*
D03*
X3860Y1240D02*
D03*
X4220Y610D02*
D03*
Y660D02*
D03*
X3180Y2090D02*
D03*
X2280Y1290D02*
D03*
Y1340D02*
D03*
Y1390D02*
D03*
Y1440D02*
D03*
X2140D02*
D03*
Y1390D02*
D03*
Y1340D02*
D03*
Y1290D02*
D03*
X2390Y1680D02*
D03*
X2340D02*
D03*
X2290D02*
D03*
X2240D02*
D03*
X2160D02*
D03*
X2110D02*
D03*
X2060D02*
D03*
X2010D02*
D03*
X1610Y1460D02*
D03*
Y1700D02*
D03*
Y1510D02*
D03*
X1560D02*
D03*
X1510D02*
D03*
X1460D02*
D03*
X1610Y1650D02*
D03*
X1560D02*
D03*
X1510D02*
D03*
X1460D02*
D03*
X1270Y1050D02*
D03*
X1218Y972D02*
D03*
X840Y1760D02*
D03*
X1480Y3150D02*
D03*
X1310Y3280D02*
D03*
X1520Y3670D02*
D03*
X1550Y3600D02*
D03*
X1610Y3630D02*
D03*
X1290Y3780D02*
D03*
X1645Y3575D02*
D03*
X1660Y3680D02*
D03*
X1270Y3140D02*
D03*
X1480Y2860D02*
D03*
X1647Y3425D02*
D03*
X1200Y3140D02*
D03*
X1030Y3160D02*
D03*
X2190Y3040D02*
D03*
X2205Y2880D02*
D03*
X2170Y3110D02*
D03*
X2280Y3140D02*
D03*
X1870Y3420D02*
D03*
Y3495D02*
D03*
Y3560D02*
D03*
X3000Y4390D02*
D03*
X3340Y4620D02*
D03*
X2255Y3960D02*
D03*
X2305Y4000D02*
D03*
X4660Y4874D02*
D03*
X4787D02*
D03*
X4265Y4670D02*
D03*
X2340Y3380D02*
D03*
X2305Y3770D02*
D03*
X2180Y3480D02*
D03*
X2096Y3565D02*
D03*
X2250Y3480D02*
D03*
X2310Y3485D02*
D03*
X2500Y4000D02*
D03*
X3715Y3570D02*
D03*
X270Y730D02*
D03*
X350D02*
D03*
X1334Y1064D02*
D03*
X510Y1570D02*
D03*
X1160Y1660D02*
D03*
X1320Y3430D02*
D03*
Y3360D02*
D03*
X1710Y4710D02*
D03*
X1640D02*
D03*
X1340Y2450D02*
D03*
X1180Y2600D02*
D03*
Y2400D02*
D03*
Y2525D02*
D03*
X4455Y715D02*
D03*
X1620Y2260D02*
D03*
X1570Y2320D02*
D03*
X1470Y2380D02*
D03*
X1984Y1054D02*
D03*
X3170Y2730D02*
D03*
X1750Y2640D02*
D03*
X2100Y847D02*
D03*
X2200Y790D02*
D03*
X2310Y920D02*
D03*
X2260Y1020D02*
D03*
X3100Y1230D02*
D03*
X4630Y2576D02*
D03*
X4200Y2585D02*
D03*
X4570Y2520D02*
D03*
X4760Y2220D02*
D03*
X2400Y2605D02*
D03*
X2750Y2530D02*
D03*
X2230Y640D02*
D03*
X2040Y2670D02*
D03*
X1980Y2640D02*
D03*
X2032Y2399D02*
D03*
X3740Y1660D02*
D03*
X4065D02*
D03*
X3900D02*
D03*
X4660Y3010D02*
D03*
X4227Y1230D02*
D03*
X4240Y1470D02*
D03*
Y1610D02*
D03*
Y1540D02*
D03*
X3900Y1940D02*
D03*
X4190Y1810D02*
D03*
X4120D02*
D03*
X3930Y1240D02*
D03*
X4000Y1230D02*
D03*
X4630Y1810D02*
D03*
X4710Y2130D02*
D03*
X4640D02*
D03*
X4600Y2080D02*
D03*
X3376Y2730D02*
D03*
X3320Y2630D02*
D03*
X3750Y2330D02*
D03*
X3780Y2390D02*
D03*
X3800Y2480D02*
D03*
X3870Y2410D02*
D03*
X2880Y1420D02*
D03*
Y1490D02*
D03*
X2720Y1700D02*
D03*
X2384Y1143D02*
D03*
X1550Y3980D02*
D03*
X1870Y3220D02*
D03*
X1640Y4380D02*
D03*
X1710D02*
D03*
X1870Y3300D02*
D03*
X4500Y4310D02*
D03*
X2750Y1040D02*
D03*
X3100Y2730D02*
D03*
X4080Y2460D02*
D03*
X2670Y320D02*
D03*
X1730Y2110D02*
D03*
X3532Y1652D02*
D03*
X3600Y1650D02*
D03*
X3670Y1660D02*
D03*
X3810Y1463D02*
D03*
X3840Y1660D02*
D03*
X1630Y390D02*
D03*
X1830Y430D02*
D03*
Y380D02*
D03*
X517Y1230D02*
D03*
D182*
X3640Y3420D02*
X3715Y3495D01*
X1600Y180D02*
X2650D01*
X1250Y480D02*
X1440D01*
X1050Y280D02*
X1250Y480D01*
X520Y280D02*
X1050D01*
X480Y240D02*
X520Y280D01*
X2835Y4075D02*
X2900Y4010D01*
X2880Y4095D02*
X2940Y4035D01*
X2900Y3890D02*
Y4010D01*
X2835Y4125D02*
X2870Y4160D01*
X2820Y3240D02*
Y3810D01*
X2900Y3890D01*
X2835Y4075D02*
Y4125D01*
X2870Y4160D02*
X2940D01*
X1434Y3090D02*
X1454Y3110D01*
X1480Y3120D02*
Y3150D01*
X1454Y3110D02*
X1470D01*
X1480Y3120D01*
X1170Y3090D02*
X1434D01*
X2590Y3026D02*
Y3123D01*
X2647Y3180D01*
X2760D01*
X2820Y3240D01*
X2080Y3690D02*
X2450D01*
X2010Y3620D02*
X2080Y3690D01*
X2010Y3106D02*
Y3620D01*
X1694Y2790D02*
X2010Y3106D01*
X1443Y2790D02*
X1694D01*
X1403Y2830D02*
X1443Y2790D01*
X937Y2830D02*
X1403D01*
X2326Y2960D02*
X2395Y2891D01*
X2313Y2930D02*
X2383Y2860D01*
X1990Y2930D02*
X2313D01*
X850Y2743D02*
X937Y2830D01*
X850Y1883D02*
Y2743D01*
X827Y1860D02*
X850Y1883D01*
X677Y1860D02*
X827D01*
X2455Y2891D02*
X2590Y3026D01*
X2395Y2891D02*
X2455D01*
X2467Y2860D02*
X2620Y3013D01*
X2383Y2860D02*
X2467D01*
X2660Y3150D02*
X2820D01*
X2620Y3110D02*
X2660Y3150D01*
X2620Y3013D02*
Y3110D01*
X1950Y2960D02*
X2326D01*
X1810Y2820D02*
X1950Y2960D01*
X1860Y2800D02*
X1990Y2930D01*
X2940Y3270D02*
Y4035D01*
X2820Y3150D02*
X2940Y3270D01*
X3170Y3420D02*
X3640D01*
X1810Y2760D02*
Y2820D01*
Y2760D02*
X1860Y2710D01*
X1530Y2950D02*
X1647Y3067D01*
Y3425D01*
X1810Y3140D02*
Y3175D01*
X1570Y2900D02*
X1810Y3140D01*
X1510Y2900D02*
X1570D01*
X1130Y3060D02*
X1350D01*
X1510Y2900D01*
X1480Y3350D02*
Y3630D01*
X1320Y3190D02*
X1480Y3350D01*
X1250Y3190D02*
X1320D01*
X1540Y3730D02*
X1570Y3700D01*
X1170Y3730D02*
X1540D01*
X1130Y3770D02*
X1170Y3730D01*
X1570Y3656D02*
Y3700D01*
X1200Y3140D02*
X1250Y3190D01*
X1120Y3320D02*
X1248Y3447D01*
X1120Y3140D02*
Y3320D01*
Y3140D02*
X1170Y3090D01*
X1030Y3160D02*
X1130Y3060D01*
X1550Y3600D02*
Y3636D01*
X1570Y3656D01*
X1480Y3630D02*
X1520Y3670D01*
X3715Y3495D02*
Y3570D01*
X1130Y4420D02*
X1250Y4540D01*
X1130Y3770D02*
Y4420D01*
X1500Y280D02*
X1600Y180D01*
X1500Y280D02*
Y420D01*
X1440Y480D02*
X1500Y420D01*
X477Y1270D02*
X517Y1230D01*
X340Y1523D02*
X677Y1860D01*
X340Y1330D02*
Y1523D01*
Y1330D02*
X400Y1270D01*
X477D01*
D183*
X4540Y620D02*
X4660Y740D01*
X2100Y770D02*
X2190Y860D01*
X2100Y370D02*
X2200Y270D01*
X2100Y370D02*
Y770D01*
X2200Y270D02*
X2250D01*
X4660Y1110D02*
X4830D01*
X4520Y970D02*
X4660Y1110D01*
X4520Y700D02*
Y970D01*
X4830Y1110D02*
X4870Y1070D01*
X4540Y555D02*
Y620D01*
X4485Y500D02*
X4540Y555D01*
X4330Y500D02*
X4485D01*
X4220Y610D02*
X4330Y500D01*
X4480Y660D02*
X4520Y700D01*
X4480Y580D02*
Y660D01*
X4460Y560D02*
X4480Y580D01*
X4410Y560D02*
X4460D01*
X3100Y3500D02*
Y4110D01*
X1485Y4795D02*
X1550Y4860D01*
X645Y4795D02*
X1485D01*
X170Y4320D02*
X645Y4795D01*
X700Y4750D02*
X1440D01*
X390Y4440D02*
X700Y4750D01*
X390Y4340D02*
Y4440D01*
X1440Y4750D02*
X2190Y4000D01*
X2410Y860D02*
X2590Y1040D01*
X2190Y860D02*
X2410D01*
X4660Y990D02*
X4700Y1030D01*
X4660Y740D02*
Y990D01*
X4220Y610D02*
Y660D01*
X170Y4120D02*
X390Y4340D01*
X4700Y1030D02*
X4790D01*
X4830Y990D01*
X1550Y4860D02*
X1870D01*
X1940Y4790D01*
X2420D01*
X3100Y4110D01*
D184*
X2500Y4000D02*
Y4070D01*
X1780Y4790D02*
X2500Y4070D01*
X1610Y4790D02*
X1780D01*
D189*
X2400Y720D02*
X2650Y970D01*
X2260Y720D02*
X2400D01*
X2210D02*
X2260D01*
D194*
X170Y4120D02*
D03*
X170Y3920D02*
D03*
X170Y3720D02*
D03*
Y3520D02*
D03*
Y4320D02*
D03*
D195*
X1186Y2932D02*
D03*
Y2068D02*
D03*
D196*
X700Y2962D02*
D03*
D197*
X670Y2038D02*
D03*
D198*
X4925Y1002D02*
D03*
Y1198D02*
D03*
D199*
X4870Y750D02*
D03*
D200*
X1406Y1010D02*
D03*
X1914Y908D02*
D03*
Y1112D02*
D03*
X4914Y4810D02*
D03*
X4406Y4912D02*
D03*
Y4708D02*
D03*
X4790Y3614D02*
D03*
X4688Y3106D02*
D03*
X4892D02*
D03*
X3254Y3840D02*
D03*
X2746Y3942D02*
D03*
Y3738D02*
D03*
D201*
X80Y1510D02*
D03*
X100Y1690D02*
D03*
X270D02*
D03*
X4890Y4710D02*
D03*
X4870Y310D02*
D03*
Y1070D02*
D03*
X4830Y1110D02*
D03*
X4840Y450D02*
D03*
X4846Y588D02*
D03*
X3330Y1070D02*
D03*
X3340Y2040D02*
D03*
X850Y1530D02*
D03*
X1000Y1450D02*
D03*
X860D02*
D03*
X2880Y3690D02*
D03*
X3900Y1013D02*
D03*
X4440Y390D02*
D03*
Y440D02*
D03*
X1533Y1073D02*
D03*
X4040Y3200D02*
D03*
X4000Y3240D02*
D03*
X4100Y3200D02*
D03*
X4090Y3350D02*
D03*
X4630Y3310D02*
D03*
X4580D02*
D03*
X4630Y3370D02*
D03*
X4580D02*
D03*
X4270Y4760D02*
D03*
X2590Y1040D02*
D03*
X4650Y2240D02*
D03*
X4565Y1625D02*
D03*
X4000Y1410D02*
D03*
X3590Y4450D02*
D03*
Y4250D02*
D03*
Y4530D02*
D03*
Y4350D02*
D03*
Y4160D02*
D03*
X2190Y4000D02*
D03*
X1230Y3830D02*
D03*
X1200Y3220D02*
D03*
X1280Y3590D02*
D03*
X2930Y4400D02*
D03*
X3170Y4510D02*
D03*
X3075Y4400D02*
D03*
X4320Y4760D02*
D03*
X4787Y4747D02*
D03*
X4600Y950D02*
D03*
X4330Y980D02*
D03*
X4600Y900D02*
D03*
X4280Y980D02*
D03*
X4270Y1100D02*
D03*
Y1050D02*
D03*
X4565Y1555D02*
D03*
X4790Y1030D02*
D03*
X4830Y990D02*
D03*
X1250Y4690D02*
D03*
X2530Y3440D02*
D03*
X2569Y3481D02*
D03*
X2700Y4040D02*
D03*
Y4280D02*
D03*
Y4330D02*
D03*
X2873Y3776D02*
D03*
X3845Y3335D02*
D03*
X3790D02*
D03*
X3900D02*
D03*
X4260Y3590D02*
D03*
X4310Y3590D02*
D03*
X1270Y1480D02*
D03*
X2530Y1350D02*
D03*
X2480D02*
D03*
Y1300D02*
D03*
X2530D02*
D03*
X2260Y720D02*
D03*
X2210D02*
D03*
X2250Y2660D02*
D03*
Y2610D02*
D03*
X4050Y1410D02*
D03*
X3880Y2190D02*
D03*
X2570Y1110D02*
D03*
X1250Y4450D02*
D03*
X1251Y4071D02*
D03*
X1787Y1073D02*
D03*
X2680Y1040D02*
D03*
X4210Y4920D02*
D03*
X4310D02*
D03*
X4660Y80D02*
D03*
X4440D02*
D03*
X4560D02*
D03*
X3990Y590D02*
D03*
X3830D02*
D03*
X3670D02*
D03*
X3510D02*
D03*
X3350D02*
D03*
X3190D02*
D03*
X170Y340D02*
D03*
X110D02*
D03*
X90Y4220D02*
D03*
Y4430D02*
D03*
X110Y4610D02*
D03*
X190Y4770D02*
D03*
X337Y4875D02*
D03*
X500Y4910D02*
D03*
X660D02*
D03*
X800D02*
D03*
X230Y4610D02*
D03*
X4100Y2530D02*
D03*
X1570Y350D02*
D03*
X560Y960D02*
D03*
X100Y1300D02*
D03*
X420Y1220D02*
D03*
X440Y1370D02*
D03*
X270Y1410D02*
D03*
X100Y1120D02*
D03*
D202*
X4640Y260D02*
D03*
X4690Y310D02*
D03*
X4590D02*
D03*
Y210D02*
D03*
X4690D02*
D03*
X4760Y120D02*
D03*
X410Y100D02*
D03*
X160Y270D02*
D03*
X2840Y3990D02*
D03*
X2880Y3520D02*
D03*
X1880Y3130D02*
D03*
X3110Y3320D02*
D03*
X3050D02*
D03*
X4230Y730D02*
D03*
X4590Y3030D02*
D03*
Y3090D02*
D03*
Y3150D02*
D03*
X1980Y1250D02*
D03*
Y1310D02*
D03*
Y1370D02*
D03*
X1920D02*
D03*
Y1310D02*
D03*
Y1250D02*
D03*
X2740Y2100D02*
D03*
X2680D02*
D03*
X3550Y3060D02*
D03*
X3460D02*
D03*
X3920Y2950D02*
D03*
X2570Y3940D02*
D03*
X1370Y130D02*
D03*
Y190D02*
D03*
X1220Y130D02*
D03*
X1370Y250D02*
D03*
X1220Y190D02*
D03*
Y250D02*
D03*
X1610Y4790D02*
D03*
X720Y3130D02*
D03*
X780D02*
D03*
X3380Y4360D02*
D03*
X3320D02*
D03*
X3380Y4300D02*
D03*
X3320D02*
D03*
X1780Y2710D02*
D03*
X1070Y1820D02*
D03*
X1870Y1280D02*
D03*
X3450Y3250D02*
D03*
Y3190D02*
D03*
X3230Y3060D02*
D03*
X2650Y970D02*
D03*
X3470Y2320D02*
D03*
X3650Y990D02*
D03*
X560Y500D02*
D03*
X1410Y350D02*
D03*
Y410D02*
D03*
X1580Y500D02*
D03*
X1520D02*
D03*
X3160Y3500D02*
D03*
X3100D02*
D03*
X3660Y4020D02*
D03*
X4120Y4210D02*
D03*
X4050D02*
D03*
X4100Y4300D02*
D03*
X3980Y4350D02*
D03*
X3760D02*
D03*
X3750Y4250D02*
D03*
X3860Y4350D02*
D03*
X3980Y4250D02*
D03*
X4190Y4210D02*
D03*
X3940Y4120D02*
D03*
Y4060D02*
D03*
Y4000D02*
D03*
X3780Y4120D02*
D03*
Y4060D02*
D03*
Y4000D02*
D03*
Y3940D02*
D03*
X3940D02*
D03*
X3380Y4120D02*
D03*
X3320D02*
D03*
X3380Y4180D02*
D03*
X3320D02*
D03*
X3380Y4240D02*
D03*
X3320D02*
D03*
X780Y3270D02*
D03*
Y3200D02*
D03*
X720D02*
D03*
X660D02*
D03*
Y3130D02*
D03*
X600D02*
D03*
Y3200D02*
D03*
X3590Y4830D02*
D03*
Y4770D02*
D03*
Y4710D02*
D03*
X3810Y4660D02*
D03*
X3870D02*
D03*
X3810Y4600D02*
D03*
X3870D02*
D03*
Y4540D02*
D03*
X3810D02*
D03*
Y4480D02*
D03*
X3870D02*
D03*
X3960D02*
D03*
Y4540D02*
D03*
X4110Y4590D02*
D03*
Y4650D02*
D03*
X4020Y4480D02*
D03*
X4050Y4590D02*
D03*
Y4650D02*
D03*
X3990D02*
D03*
X4020Y4540D02*
D03*
X3990Y4590D02*
D03*
X4030Y790D02*
D03*
Y910D02*
D03*
Y850D02*
D03*
X1248Y3447D02*
D03*
Y3510D02*
D03*
X560Y4370D02*
D03*
X800D02*
D03*
X740D02*
D03*
X680D02*
D03*
X620D02*
D03*
X1250Y3920D02*
D03*
Y3980D02*
D03*
X560Y4500D02*
D03*
X620D02*
D03*
X560Y3940D02*
D03*
X620D02*
D03*
X690Y3810D02*
D03*
X750D02*
D03*
X810D02*
D03*
X870D02*
D03*
X930D02*
D03*
X680Y4500D02*
D03*
X860Y4370D02*
D03*
X680Y3940D02*
D03*
X770D02*
D03*
X3920Y3780D02*
D03*
Y3720D02*
D03*
X4195Y4075D02*
D03*
Y4005D02*
D03*
X3630Y3540D02*
D03*
Y3600D02*
D03*
X1040Y1040D02*
D03*
X1100D02*
D03*
X750Y220D02*
D03*
Y160D02*
D03*
X650D02*
D03*
Y220D02*
D03*
X820Y710D02*
D03*
Y650D02*
D03*
X880D02*
D03*
Y590D02*
D03*
X820D02*
D03*
Y770D02*
D03*
X960Y800D02*
D03*
Y740D02*
D03*
X1190Y1880D02*
D03*
Y1940D02*
D03*
Y1820D02*
D03*
X1130D02*
D03*
Y1880D02*
D03*
Y1940D02*
D03*
X1070Y1980D02*
D03*
X1004Y2685D02*
D03*
Y2625D02*
D03*
Y2315D02*
D03*
Y2375D02*
D03*
X945Y2625D02*
D03*
Y2375D02*
D03*
X1360Y2320D02*
D03*
Y2260D02*
D03*
Y2740D02*
D03*
Y2680D02*
D03*
X1180Y2680D02*
D03*
Y2320D02*
D03*
X3690Y760D02*
D03*
X3630D02*
D03*
X3570D02*
D03*
X2130Y1960D02*
D03*
Y1900D02*
D03*
X1890Y1890D02*
D03*
X1830Y1930D02*
D03*
X1720Y1860D02*
D03*
X1790Y1880D02*
D03*
X1890Y1960D02*
D03*
X2630Y1100D02*
D03*
X2200Y4110D02*
D03*
X3230Y1230D02*
D03*
X2300Y2810D02*
D03*
X3790Y1890D02*
D03*
X3850D02*
D03*
X3700Y2450D02*
D03*
Y2390D02*
D03*
X1250Y4610D02*
D03*
X1250Y4540D02*
D03*
X1710Y4030D02*
D03*
X1650D02*
D03*
X1710Y4090D02*
D03*
Y4150D02*
D03*
X1650Y4090D02*
D03*
Y4150D02*
D03*
Y4210D02*
D03*
X1590D02*
D03*
Y4150D02*
D03*
Y4270D02*
D03*
X1710Y3970D02*
D03*
X600Y2840D02*
D03*
Y2590D02*
D03*
Y2340D02*
D03*
Y2180D02*
D03*
X590Y1910D02*
D03*
X2790Y100D02*
D03*
Y250D02*
D03*
X2620Y90D02*
D03*
X2570Y4910D02*
D03*
X3130D02*
D03*
X2850D02*
D03*
X2280D02*
D03*
X2500Y4420D02*
D03*
X2280Y4630D02*
D03*
X3340Y3660D02*
D03*
X3590Y3780D02*
D03*
X4080Y3590D02*
D03*
X4490Y3970D02*
D03*
Y4090D02*
D03*
X4860Y4200D02*
D03*
X4233Y2130D02*
D03*
X4495Y1280D02*
D03*
Y1170D02*
D03*
X4605Y1280D02*
D03*
Y1170D02*
D03*
X4240Y4440D02*
D03*
X4190Y4490D02*
D03*
Y4390D02*
D03*
X4290Y4490D02*
D03*
Y4390D02*
D03*
X4210Y3020D02*
D03*
M02*
