G04*
G04 #@! TF.GenerationSoftware,Altium Limited,Altium Designer,20.0.13 (296)*
G04*
G04 Layer_Color=8388736*
%FSLAX42Y42*%
%MOMM*%
G71*
G01*
G75*
%ADD15R,3.45X3.45*%
%ADD16R,2.80X2.80*%
%ADD17R,1.90X1.90*%
G04:AMPARAMS|DCode=18|XSize=1.2mm|YSize=0.7mm|CornerRadius=0.11mm|HoleSize=0mm|Usage=FLASHONLY|Rotation=0.000|XOffset=0mm|YOffset=0mm|HoleType=Round|Shape=RoundedRectangle|*
%AMROUNDEDRECTD18*
21,1,1.20,0.48,0,0,0.0*
21,1,0.98,0.70,0,0,0.0*
1,1,0.22,0.49,-0.24*
1,1,0.22,-0.49,-0.24*
1,1,0.22,-0.49,0.24*
1,1,0.22,0.49,0.24*
%
%ADD18ROUNDEDRECTD18*%
G04:AMPARAMS|DCode=19|XSize=0.7mm|YSize=1.6mm|CornerRadius=0.11mm|HoleSize=0mm|Usage=FLASHONLY|Rotation=270.000|XOffset=0mm|YOffset=0mm|HoleType=Round|Shape=RoundedRectangle|*
%AMROUNDEDRECTD19*
21,1,0.70,1.38,0,0,270.0*
21,1,0.48,1.60,0,0,270.0*
1,1,0.22,-0.69,-0.24*
1,1,0.22,-0.69,0.24*
1,1,0.22,0.69,0.24*
1,1,0.22,0.69,-0.24*
%
%ADD19ROUNDEDRECTD19*%
%ADD20C,1.10*%
G04:AMPARAMS|DCode=21|XSize=0.77mm|YSize=0.4mm|CornerRadius=0.08mm|HoleSize=0mm|Usage=FLASHONLY|Rotation=90.000|XOffset=0mm|YOffset=0mm|HoleType=Round|Shape=RoundedRectangle|*
%AMROUNDEDRECTD21*
21,1,0.77,0.24,0,0,90.0*
21,1,0.61,0.40,0,0,90.0*
1,1,0.16,0.12,0.31*
1,1,0.16,0.12,-0.31*
1,1,0.16,-0.12,-0.31*
1,1,0.16,-0.12,0.31*
%
%ADD21ROUNDEDRECTD21*%
G04:AMPARAMS|DCode=22|XSize=0.65mm|YSize=0.5mm|CornerRadius=0.09mm|HoleSize=0mm|Usage=FLASHONLY|Rotation=270.000|XOffset=0mm|YOffset=0mm|HoleType=Round|Shape=RoundedRectangle|*
%AMROUNDEDRECTD22*
21,1,0.65,0.32,0,0,270.0*
21,1,0.47,0.50,0,0,270.0*
1,1,0.18,-0.16,-0.23*
1,1,0.18,-0.16,0.23*
1,1,0.18,0.16,0.23*
1,1,0.18,0.16,-0.23*
%
%ADD22ROUNDEDRECTD22*%
G04:AMPARAMS|DCode=23|XSize=0.75mm|YSize=0.6mm|CornerRadius=0.1mm|HoleSize=0mm|Usage=FLASHONLY|Rotation=180.000|XOffset=0mm|YOffset=0mm|HoleType=Round|Shape=RoundedRectangle|*
%AMROUNDEDRECTD23*
21,1,0.75,0.40,0,0,180.0*
21,1,0.55,0.60,0,0,180.0*
1,1,0.20,-0.28,0.20*
1,1,0.20,0.28,0.20*
1,1,0.20,0.28,-0.20*
1,1,0.20,-0.28,-0.20*
%
%ADD23ROUNDEDRECTD23*%
G04:AMPARAMS|DCode=24|XSize=0.6mm|YSize=0.65mm|CornerRadius=0.14mm|HoleSize=0mm|Usage=FLASHONLY|Rotation=270.000|XOffset=0mm|YOffset=0mm|HoleType=Round|Shape=RoundedRectangle|*
%AMROUNDEDRECTD24*
21,1,0.60,0.38,0,0,270.0*
21,1,0.33,0.65,0,0,270.0*
1,1,0.28,-0.19,-0.16*
1,1,0.28,-0.19,0.16*
1,1,0.28,0.19,0.16*
1,1,0.28,0.19,-0.16*
%
%ADD24ROUNDEDRECTD24*%
G04:AMPARAMS|DCode=25|XSize=0.6mm|YSize=0.65mm|CornerRadius=0.14mm|HoleSize=0mm|Usage=FLASHONLY|Rotation=0.000|XOffset=0mm|YOffset=0mm|HoleType=Round|Shape=RoundedRectangle|*
%AMROUNDEDRECTD25*
21,1,0.60,0.38,0,0,0.0*
21,1,0.33,0.65,0,0,0.0*
1,1,0.28,0.16,-0.19*
1,1,0.28,-0.16,-0.19*
1,1,0.28,-0.16,0.19*
1,1,0.28,0.16,0.19*
%
%ADD25ROUNDEDRECTD25*%
G04:AMPARAMS|DCode=26|XSize=1.25mm|YSize=1.55mm|CornerRadius=0.14mm|HoleSize=0mm|Usage=FLASHONLY|Rotation=270.000|XOffset=0mm|YOffset=0mm|HoleType=Round|Shape=RoundedRectangle|*
%AMROUNDEDRECTD26*
21,1,1.25,1.28,0,0,270.0*
21,1,0.98,1.55,0,0,270.0*
1,1,0.27,-0.64,-0.49*
1,1,0.27,-0.64,0.49*
1,1,0.27,0.64,0.49*
1,1,0.27,0.64,-0.49*
%
%ADD26ROUNDEDRECTD26*%
G04:AMPARAMS|DCode=27|XSize=4.1mm|YSize=1.9mm|CornerRadius=0.23mm|HoleSize=0mm|Usage=FLASHONLY|Rotation=90.000|XOffset=0mm|YOffset=0mm|HoleType=Round|Shape=RoundedRectangle|*
%AMROUNDEDRECTD27*
21,1,4.10,1.44,0,0,90.0*
21,1,3.64,1.90,0,0,90.0*
1,1,0.46,0.72,1.82*
1,1,0.46,0.72,-1.82*
1,1,0.46,-0.72,-1.82*
1,1,0.46,-0.72,1.82*
%
%ADD27ROUNDEDRECTD27*%
G04:AMPARAMS|DCode=28|XSize=3.6mm|YSize=0.8mm|CornerRadius=0.12mm|HoleSize=0mm|Usage=FLASHONLY|Rotation=270.000|XOffset=0mm|YOffset=0mm|HoleType=Round|Shape=RoundedRectangle|*
%AMROUNDEDRECTD28*
21,1,3.60,0.56,0,0,270.0*
21,1,3.36,0.80,0,0,270.0*
1,1,0.24,-0.28,-1.68*
1,1,0.24,-0.28,1.68*
1,1,0.24,0.28,1.68*
1,1,0.24,0.28,-1.68*
%
%ADD28ROUNDEDRECTD28*%
G04:AMPARAMS|DCode=29|XSize=1.6mm|YSize=2.4mm|CornerRadius=0.2mm|HoleSize=0mm|Usage=FLASHONLY|Rotation=180.000|XOffset=0mm|YOffset=0mm|HoleType=Round|Shape=RoundedRectangle|*
%AMROUNDEDRECTD29*
21,1,1.60,2.00,0,0,180.0*
21,1,1.20,2.40,0,0,180.0*
1,1,0.40,-0.60,1.00*
1,1,0.40,0.60,1.00*
1,1,0.40,0.60,-1.00*
1,1,0.40,-0.60,-1.00*
%
%ADD29ROUNDEDRECTD29*%
G04:AMPARAMS|DCode=30|XSize=2.7mm|YSize=2.5mm|CornerRadius=0.29mm|HoleSize=0mm|Usage=FLASHONLY|Rotation=180.000|XOffset=0mm|YOffset=0mm|HoleType=Round|Shape=RoundedRectangle|*
%AMROUNDEDRECTD30*
21,1,2.70,1.92,0,0,180.0*
21,1,2.12,2.50,0,0,180.0*
1,1,0.58,-1.06,0.96*
1,1,0.58,1.06,0.96*
1,1,0.58,1.06,-0.96*
1,1,0.58,-1.06,-0.96*
%
%ADD30ROUNDEDRECTD30*%
G04:AMPARAMS|DCode=31|XSize=0.9mm|YSize=0.9mm|CornerRadius=0.13mm|HoleSize=0mm|Usage=FLASHONLY|Rotation=270.000|XOffset=0mm|YOffset=0mm|HoleType=Round|Shape=RoundedRectangle|*
%AMROUNDEDRECTD31*
21,1,0.90,0.64,0,0,270.0*
21,1,0.64,0.90,0,0,270.0*
1,1,0.26,-0.32,-0.32*
1,1,0.26,-0.32,0.32*
1,1,0.26,0.32,0.32*
1,1,0.26,0.32,-0.32*
%
%ADD31ROUNDEDRECTD31*%
G04:AMPARAMS|DCode=32|XSize=0.9mm|YSize=0.9mm|CornerRadius=0.13mm|HoleSize=0mm|Usage=FLASHONLY|Rotation=0.000|XOffset=0mm|YOffset=0mm|HoleType=Round|Shape=RoundedRectangle|*
%AMROUNDEDRECTD32*
21,1,0.90,0.64,0,0,0.0*
21,1,0.64,0.90,0,0,0.0*
1,1,0.26,0.32,-0.32*
1,1,0.26,-0.32,-0.32*
1,1,0.26,-0.32,0.32*
1,1,0.26,0.32,0.32*
%
%ADD32ROUNDEDRECTD32*%
G04:AMPARAMS|DCode=33|XSize=0.4mm|YSize=0.8mm|CornerRadius=0.08mm|HoleSize=0mm|Usage=FLASHONLY|Rotation=270.000|XOffset=0mm|YOffset=0mm|HoleType=Round|Shape=RoundedRectangle|*
%AMROUNDEDRECTD33*
21,1,0.40,0.64,0,0,270.0*
21,1,0.24,0.80,0,0,270.0*
1,1,0.16,-0.32,-0.12*
1,1,0.16,-0.32,0.12*
1,1,0.16,0.32,0.12*
1,1,0.16,0.32,-0.12*
%
%ADD33ROUNDEDRECTD33*%
G04:AMPARAMS|DCode=34|XSize=1mm|YSize=0.8mm|CornerRadius=0.12mm|HoleSize=0mm|Usage=FLASHONLY|Rotation=270.000|XOffset=0mm|YOffset=0mm|HoleType=Round|Shape=RoundedRectangle|*
%AMROUNDEDRECTD34*
21,1,1.00,0.56,0,0,270.0*
21,1,0.76,0.80,0,0,270.0*
1,1,0.24,-0.28,-0.38*
1,1,0.24,-0.28,0.38*
1,1,0.24,0.28,0.38*
1,1,0.24,0.28,-0.38*
%
%ADD34ROUNDEDRECTD34*%
G04:AMPARAMS|DCode=35|XSize=0.38mm|YSize=0.95mm|CornerRadius=0.12mm|HoleSize=0mm|Usage=FLASHONLY|Rotation=0.000|XOffset=0mm|YOffset=0mm|HoleType=Round|Shape=RoundedRectangle|*
%AMROUNDEDRECTD35*
21,1,0.38,0.71,0,0,0.0*
21,1,0.14,0.95,0,0,0.0*
1,1,0.24,0.07,-0.36*
1,1,0.24,-0.07,-0.36*
1,1,0.24,-0.07,0.36*
1,1,0.24,0.07,0.36*
%
%ADD35ROUNDEDRECTD35*%
G04:AMPARAMS|DCode=36|XSize=0.38mm|YSize=1mm|CornerRadius=0.12mm|HoleSize=0mm|Usage=FLASHONLY|Rotation=0.000|XOffset=0mm|YOffset=0mm|HoleType=Round|Shape=RoundedRectangle|*
%AMROUNDEDRECTD36*
21,1,0.38,0.76,0,0,0.0*
21,1,0.14,1.00,0,0,0.0*
1,1,0.24,0.07,-0.38*
1,1,0.24,-0.07,-0.38*
1,1,0.24,-0.07,0.38*
1,1,0.24,0.07,0.38*
%
%ADD36ROUNDEDRECTD36*%
G04:AMPARAMS|DCode=37|XSize=0.38mm|YSize=0.95mm|CornerRadius=0.12mm|HoleSize=0mm|Usage=FLASHONLY|Rotation=270.000|XOffset=0mm|YOffset=0mm|HoleType=Round|Shape=RoundedRectangle|*
%AMROUNDEDRECTD37*
21,1,0.38,0.71,0,0,270.0*
21,1,0.14,0.95,0,0,270.0*
1,1,0.24,-0.36,-0.07*
1,1,0.24,-0.36,0.07*
1,1,0.24,0.36,0.07*
1,1,0.24,0.36,-0.07*
%
%ADD37ROUNDEDRECTD37*%
G04:AMPARAMS|DCode=38|XSize=0.38mm|YSize=1mm|CornerRadius=0.12mm|HoleSize=0mm|Usage=FLASHONLY|Rotation=270.000|XOffset=0mm|YOffset=0mm|HoleType=Round|Shape=RoundedRectangle|*
%AMROUNDEDRECTD38*
21,1,0.38,0.76,0,0,270.0*
21,1,0.14,1.00,0,0,270.0*
1,1,0.24,-0.38,-0.07*
1,1,0.24,-0.38,0.07*
1,1,0.24,0.38,0.07*
1,1,0.24,0.38,-0.07*
%
%ADD38ROUNDEDRECTD38*%
G04:AMPARAMS|DCode=39|XSize=2.9mm|YSize=2.9mm|CornerRadius=0.12mm|HoleSize=0mm|Usage=FLASHONLY|Rotation=270.000|XOffset=0mm|YOffset=0mm|HoleType=Round|Shape=RoundedRectangle|*
%AMROUNDEDRECTD39*
21,1,2.90,2.66,0,0,270.0*
21,1,2.66,2.90,0,0,270.0*
1,1,0.24,-1.33,-1.33*
1,1,0.24,-1.33,1.33*
1,1,0.24,1.33,1.33*
1,1,0.24,1.33,-1.33*
%
%ADD39ROUNDEDRECTD39*%
G04:AMPARAMS|DCode=40|XSize=1.25mm|YSize=1.9mm|CornerRadius=0.17mm|HoleSize=0mm|Usage=FLASHONLY|Rotation=90.000|XOffset=0mm|YOffset=0mm|HoleType=Round|Shape=RoundedRectangle|*
%AMROUNDEDRECTD40*
21,1,1.25,1.57,0,0,90.0*
21,1,0.92,1.90,0,0,90.0*
1,1,0.33,0.79,0.46*
1,1,0.33,0.79,-0.46*
1,1,0.33,-0.79,-0.46*
1,1,0.33,-0.79,0.46*
%
%ADD40ROUNDEDRECTD40*%
G04:AMPARAMS|DCode=41|XSize=1.2mm|YSize=1.9mm|CornerRadius=0.16mm|HoleSize=0mm|Usage=FLASHONLY|Rotation=90.000|XOffset=0mm|YOffset=0mm|HoleType=Round|Shape=RoundedRectangle|*
%AMROUNDEDRECTD41*
21,1,1.20,1.58,0,0,90.0*
21,1,0.88,1.90,0,0,90.0*
1,1,0.32,0.79,0.44*
1,1,0.32,0.79,-0.44*
1,1,0.32,-0.79,-0.44*
1,1,0.32,-0.79,0.44*
%
%ADD41ROUNDEDRECTD41*%
G04:AMPARAMS|DCode=42|XSize=2.7mm|YSize=2.5mm|CornerRadius=0.29mm|HoleSize=0mm|Usage=FLASHONLY|Rotation=270.000|XOffset=0mm|YOffset=0mm|HoleType=Round|Shape=RoundedRectangle|*
%AMROUNDEDRECTD42*
21,1,2.70,1.92,0,0,270.0*
21,1,2.12,2.50,0,0,270.0*
1,1,0.58,-0.96,-1.06*
1,1,0.58,-0.96,1.06*
1,1,0.58,0.96,1.06*
1,1,0.58,0.96,-1.06*
%
%ADD42ROUNDEDRECTD42*%
G04:AMPARAMS|DCode=43|XSize=0.85mm|YSize=0.85mm|CornerRadius=0.13mm|HoleSize=0mm|Usage=FLASHONLY|Rotation=0.000|XOffset=0mm|YOffset=0mm|HoleType=Round|Shape=RoundedRectangle|*
%AMROUNDEDRECTD43*
21,1,0.85,0.60,0,0,0.0*
21,1,0.60,0.85,0,0,0.0*
1,1,0.25,0.30,-0.30*
1,1,0.25,-0.30,-0.30*
1,1,0.25,-0.30,0.30*
1,1,0.25,0.30,0.30*
%
%ADD43ROUNDEDRECTD43*%
G04:AMPARAMS|DCode=44|XSize=1.25mm|YSize=1.55mm|CornerRadius=0.14mm|HoleSize=0mm|Usage=FLASHONLY|Rotation=180.000|XOffset=0mm|YOffset=0mm|HoleType=Round|Shape=RoundedRectangle|*
%AMROUNDEDRECTD44*
21,1,1.25,1.28,0,0,180.0*
21,1,0.98,1.55,0,0,180.0*
1,1,0.27,-0.49,0.64*
1,1,0.27,0.49,0.64*
1,1,0.27,0.49,-0.64*
1,1,0.27,-0.49,-0.64*
%
%ADD44ROUNDEDRECTD44*%
G04:AMPARAMS|DCode=45|XSize=1.35mm|YSize=2.5mm|CornerRadius=0.18mm|HoleSize=0mm|Usage=FLASHONLY|Rotation=0.000|XOffset=0mm|YOffset=0mm|HoleType=Round|Shape=RoundedRectangle|*
%AMROUNDEDRECTD45*
21,1,1.35,2.15,0,0,0.0*
21,1,1.00,2.50,0,0,0.0*
1,1,0.35,0.50,-1.08*
1,1,0.35,-0.50,-1.08*
1,1,0.35,-0.50,1.08*
1,1,0.35,0.50,1.08*
%
%ADD45ROUNDEDRECTD45*%
G04:AMPARAMS|DCode=46|XSize=0.9mm|YSize=1.09mm|CornerRadius=0.19mm|HoleSize=0mm|Usage=FLASHONLY|Rotation=180.000|XOffset=0mm|YOffset=0mm|HoleType=Round|Shape=RoundedRectangle|*
%AMROUNDEDRECTD46*
21,1,0.90,0.71,0,0,180.0*
21,1,0.52,1.09,0,0,180.0*
1,1,0.38,-0.26,0.36*
1,1,0.38,0.26,0.36*
1,1,0.38,0.26,-0.36*
1,1,0.38,-0.26,-0.36*
%
%ADD46ROUNDEDRECTD46*%
G04:AMPARAMS|DCode=47|XSize=0.55mm|YSize=2.6mm|CornerRadius=0.1mm|HoleSize=0mm|Usage=FLASHONLY|Rotation=90.000|XOffset=0mm|YOffset=0mm|HoleType=Round|Shape=RoundedRectangle|*
%AMROUNDEDRECTD47*
21,1,0.55,2.41,0,0,90.0*
21,1,0.36,2.60,0,0,90.0*
1,1,0.19,1.21,0.18*
1,1,0.19,1.21,-0.18*
1,1,0.19,-1.21,-0.18*
1,1,0.19,-1.21,0.18*
%
%ADD47ROUNDEDRECTD47*%
G04:AMPARAMS|DCode=48|XSize=0.7mm|YSize=0.9mm|CornerRadius=0.11mm|HoleSize=0mm|Usage=FLASHONLY|Rotation=90.000|XOffset=0mm|YOffset=0mm|HoleType=Round|Shape=RoundedRectangle|*
%AMROUNDEDRECTD48*
21,1,0.70,0.68,0,0,90.0*
21,1,0.48,0.90,0,0,90.0*
1,1,0.22,0.34,0.24*
1,1,0.22,0.34,-0.24*
1,1,0.22,-0.34,-0.24*
1,1,0.22,-0.34,0.24*
%
%ADD48ROUNDEDRECTD48*%
G04:AMPARAMS|DCode=49|XSize=0.35mm|YSize=0.46mm|CornerRadius=0.08mm|HoleSize=0mm|Usage=FLASHONLY|Rotation=270.000|XOffset=0mm|YOffset=0mm|HoleType=Round|Shape=RoundedRectangle|*
%AMROUNDEDRECTD49*
21,1,0.35,0.31,0,0,270.0*
21,1,0.20,0.46,0,0,270.0*
1,1,0.15,-0.16,-0.10*
1,1,0.15,-0.16,0.10*
1,1,0.15,0.16,0.10*
1,1,0.15,0.16,-0.10*
%
%ADD49ROUNDEDRECTD49*%
G04:AMPARAMS|DCode=50|XSize=0.9mm|YSize=1.7mm|CornerRadius=0.13mm|HoleSize=0mm|Usage=FLASHONLY|Rotation=90.000|XOffset=0mm|YOffset=0mm|HoleType=Round|Shape=RoundedRectangle|*
%AMROUNDEDRECTD50*
21,1,0.90,1.44,0,0,90.0*
21,1,0.64,1.70,0,0,90.0*
1,1,0.26,0.72,0.32*
1,1,0.26,0.72,-0.32*
1,1,0.26,-0.72,-0.32*
1,1,0.26,-0.72,0.32*
%
%ADD50ROUNDEDRECTD50*%
G04:AMPARAMS|DCode=51|XSize=0.4mm|YSize=0.76mm|CornerRadius=0.1mm|HoleSize=0mm|Usage=FLASHONLY|Rotation=180.000|XOffset=0mm|YOffset=0mm|HoleType=Round|Shape=RoundedRectangle|*
%AMROUNDEDRECTD51*
21,1,0.40,0.57,0,0,180.0*
21,1,0.21,0.76,0,0,180.0*
1,1,0.19,-0.11,0.28*
1,1,0.19,0.11,0.28*
1,1,0.19,0.11,-0.28*
1,1,0.19,-0.11,-0.28*
%
%ADD51ROUNDEDRECTD51*%
G04:AMPARAMS|DCode=52|XSize=1.2mm|YSize=0.7mm|CornerRadius=0.11mm|HoleSize=0mm|Usage=FLASHONLY|Rotation=90.000|XOffset=0mm|YOffset=0mm|HoleType=Round|Shape=RoundedRectangle|*
%AMROUNDEDRECTD52*
21,1,1.20,0.48,0,0,90.0*
21,1,0.98,0.70,0,0,90.0*
1,1,0.22,0.24,0.49*
1,1,0.22,0.24,-0.49*
1,1,0.22,-0.24,-0.49*
1,1,0.22,-0.24,0.49*
%
%ADD52ROUNDEDRECTD52*%
G04:AMPARAMS|DCode=53|XSize=1.65mm|YSize=0.7mm|CornerRadius=0.11mm|HoleSize=0mm|Usage=FLASHONLY|Rotation=180.000|XOffset=0mm|YOffset=0mm|HoleType=Round|Shape=RoundedRectangle|*
%AMROUNDEDRECTD53*
21,1,1.65,0.48,0,0,180.0*
21,1,1.43,0.70,0,0,180.0*
1,1,0.22,-0.72,0.24*
1,1,0.22,0.72,0.24*
1,1,0.22,0.72,-0.24*
1,1,0.22,-0.72,-0.24*
%
%ADD53ROUNDEDRECTD53*%
G04:AMPARAMS|DCode=54|XSize=1.9mm|YSize=1.3mm|CornerRadius=0.17mm|HoleSize=0mm|Usage=FLASHONLY|Rotation=180.000|XOffset=0mm|YOffset=0mm|HoleType=Round|Shape=RoundedRectangle|*
%AMROUNDEDRECTD54*
21,1,1.90,0.96,0,0,180.0*
21,1,1.56,1.30,0,0,180.0*
1,1,0.34,-0.78,0.48*
1,1,0.34,0.78,0.48*
1,1,0.34,0.78,-0.48*
1,1,0.34,-0.78,-0.48*
%
%ADD54ROUNDEDRECTD54*%
G04:AMPARAMS|DCode=55|XSize=1.1mm|YSize=1mm|CornerRadius=0.14mm|HoleSize=0mm|Usage=FLASHONLY|Rotation=180.000|XOffset=0mm|YOffset=0mm|HoleType=Round|Shape=RoundedRectangle|*
%AMROUNDEDRECTD55*
21,1,1.10,0.72,0,0,180.0*
21,1,0.82,1.00,0,0,180.0*
1,1,0.28,-0.41,0.36*
1,1,0.28,0.41,0.36*
1,1,0.28,0.41,-0.36*
1,1,0.28,-0.41,-0.36*
%
%ADD55ROUNDEDRECTD55*%
G04:AMPARAMS|DCode=56|XSize=1.8mm|YSize=0.65mm|CornerRadius=0.11mm|HoleSize=0mm|Usage=FLASHONLY|Rotation=90.000|XOffset=0mm|YOffset=0mm|HoleType=Round|Shape=RoundedRectangle|*
%AMROUNDEDRECTD56*
21,1,1.80,0.44,0,0,90.0*
21,1,1.59,0.65,0,0,90.0*
1,1,0.21,0.22,0.80*
1,1,0.21,0.22,-0.80*
1,1,0.21,-0.22,-0.80*
1,1,0.21,-0.22,0.80*
%
%ADD56ROUNDEDRECTD56*%
G04:AMPARAMS|DCode=57|XSize=0.9mm|YSize=1.09mm|CornerRadius=0.19mm|HoleSize=0mm|Usage=FLASHONLY|Rotation=90.000|XOffset=0mm|YOffset=0mm|HoleType=Round|Shape=RoundedRectangle|*
%AMROUNDEDRECTD57*
21,1,0.90,0.71,0,0,90.0*
21,1,0.52,1.09,0,0,90.0*
1,1,0.38,0.36,0.26*
1,1,0.38,0.36,-0.26*
1,1,0.38,-0.36,-0.26*
1,1,0.38,-0.36,0.26*
%
%ADD57ROUNDEDRECTD57*%
G04:AMPARAMS|DCode=58|XSize=0.58mm|YSize=0.35mm|CornerRadius=0.08mm|HoleSize=0mm|Usage=FLASHONLY|Rotation=180.000|XOffset=0mm|YOffset=0mm|HoleType=Round|Shape=RoundedRectangle|*
%AMROUNDEDRECTD58*
21,1,0.58,0.20,0,0,180.0*
21,1,0.43,0.35,0,0,180.0*
1,1,0.15,-0.21,0.10*
1,1,0.15,0.21,0.10*
1,1,0.15,0.21,-0.10*
1,1,0.15,-0.21,-0.10*
%
%ADD58ROUNDEDRECTD58*%
G04:AMPARAMS|DCode=59|XSize=0.58mm|YSize=0.35mm|CornerRadius=0.08mm|HoleSize=0mm|Usage=FLASHONLY|Rotation=270.000|XOffset=0mm|YOffset=0mm|HoleType=Round|Shape=RoundedRectangle|*
%AMROUNDEDRECTD59*
21,1,0.58,0.20,0,0,270.0*
21,1,0.43,0.35,0,0,270.0*
1,1,0.15,-0.10,-0.21*
1,1,0.15,-0.10,0.21*
1,1,0.15,0.10,0.21*
1,1,0.15,0.10,-0.21*
%
%ADD59ROUNDEDRECTD59*%
G04:AMPARAMS|DCode=60|XSize=0.65mm|YSize=0.67mm|CornerRadius=0.11mm|HoleSize=0mm|Usage=FLASHONLY|Rotation=270.000|XOffset=0mm|YOffset=0mm|HoleType=Round|Shape=RoundedRectangle|*
%AMROUNDEDRECTD60*
21,1,0.65,0.46,0,0,270.0*
21,1,0.44,0.67,0,0,270.0*
1,1,0.21,-0.23,-0.22*
1,1,0.21,-0.23,0.22*
1,1,0.21,0.23,0.22*
1,1,0.21,0.23,-0.22*
%
%ADD60ROUNDEDRECTD60*%
G04:AMPARAMS|DCode=61|XSize=0.4mm|YSize=1mm|CornerRadius=0.2mm|HoleSize=0mm|Usage=FLASHONLY|Rotation=90.000|XOffset=0mm|YOffset=0mm|HoleType=Round|Shape=RoundedRectangle|*
%AMROUNDEDRECTD61*
21,1,0.40,0.60,0,0,90.0*
21,1,0.00,1.00,0,0,90.0*
1,1,0.40,0.30,0.00*
1,1,0.40,0.30,0.00*
1,1,0.40,-0.30,0.00*
1,1,0.40,-0.30,0.00*
%
%ADD61ROUNDEDRECTD61*%
G04:AMPARAMS|DCode=62|XSize=0.4mm|YSize=1mm|CornerRadius=0.2mm|HoleSize=0mm|Usage=FLASHONLY|Rotation=0.000|XOffset=0mm|YOffset=0mm|HoleType=Round|Shape=RoundedRectangle|*
%AMROUNDEDRECTD62*
21,1,0.40,0.60,0,0,0.0*
21,1,0.00,1.00,0,0,0.0*
1,1,0.40,0.00,-0.30*
1,1,0.40,0.00,-0.30*
1,1,0.40,0.00,0.30*
1,1,0.40,0.00,0.30*
%
%ADD62ROUNDEDRECTD62*%
G04:AMPARAMS|DCode=63|XSize=2.1mm|YSize=2.1mm|CornerRadius=0.25mm|HoleSize=0mm|Usage=FLASHONLY|Rotation=180.000|XOffset=0mm|YOffset=0mm|HoleType=Round|Shape=RoundedRectangle|*
%AMROUNDEDRECTD63*
21,1,2.10,1.60,0,0,180.0*
21,1,1.60,2.10,0,0,180.0*
1,1,0.50,-0.80,0.80*
1,1,0.50,0.80,0.80*
1,1,0.50,0.80,-0.80*
1,1,0.50,-0.80,-0.80*
%
%ADD63ROUNDEDRECTD63*%
%ADD64C,0.95*%
G04:AMPARAMS|DCode=65|XSize=0.6mm|YSize=0.9mm|CornerRadius=0.1mm|HoleSize=0mm|Usage=FLASHONLY|Rotation=0.000|XOffset=0mm|YOffset=0mm|HoleType=Round|Shape=RoundedRectangle|*
%AMROUNDEDRECTD65*
21,1,0.60,0.70,0,0,0.0*
21,1,0.40,0.90,0,0,0.0*
1,1,0.20,0.20,-0.35*
1,1,0.20,-0.20,-0.35*
1,1,0.20,-0.20,0.35*
1,1,0.20,0.20,0.35*
%
%ADD65ROUNDEDRECTD65*%
G04:AMPARAMS|DCode=66|XSize=1.6mm|YSize=1.3mm|CornerRadius=0.17mm|HoleSize=0mm|Usage=FLASHONLY|Rotation=90.000|XOffset=0mm|YOffset=0mm|HoleType=Round|Shape=RoundedRectangle|*
%AMROUNDEDRECTD66*
21,1,1.60,0.96,0,0,90.0*
21,1,1.26,1.30,0,0,90.0*
1,1,0.34,0.48,0.63*
1,1,0.34,0.48,-0.63*
1,1,0.34,-0.48,-0.63*
1,1,0.34,-0.48,0.63*
%
%ADD66ROUNDEDRECTD66*%
G04:AMPARAMS|DCode=67|XSize=1.8mm|YSize=5.7mm|CornerRadius=0.22mm|HoleSize=0mm|Usage=FLASHONLY|Rotation=270.000|XOffset=0mm|YOffset=0mm|HoleType=Round|Shape=RoundedRectangle|*
%AMROUNDEDRECTD67*
21,1,1.80,5.26,0,0,270.0*
21,1,1.36,5.70,0,0,270.0*
1,1,0.44,-2.63,-0.68*
1,1,0.44,-2.63,0.68*
1,1,0.44,2.63,0.68*
1,1,0.44,2.63,-0.68*
%
%ADD67ROUNDEDRECTD67*%
G04:AMPARAMS|DCode=68|XSize=0.4mm|YSize=0.6mm|CornerRadius=0.08mm|HoleSize=0mm|Usage=FLASHONLY|Rotation=180.000|XOffset=0mm|YOffset=0mm|HoleType=Round|Shape=RoundedRectangle|*
%AMROUNDEDRECTD68*
21,1,0.40,0.44,0,0,180.0*
21,1,0.24,0.60,0,0,180.0*
1,1,0.16,-0.12,0.22*
1,1,0.16,0.12,0.22*
1,1,0.16,0.12,-0.22*
1,1,0.16,-0.12,-0.22*
%
%ADD68ROUNDEDRECTD68*%
G04:AMPARAMS|DCode=69|XSize=0.92mm|YSize=0.38mm|CornerRadius=0.19mm|HoleSize=0mm|Usage=FLASHONLY|Rotation=0.000|XOffset=0mm|YOffset=0mm|HoleType=Round|Shape=RoundedRectangle|*
%AMROUNDEDRECTD69*
21,1,0.92,0.00,0,0,0.0*
21,1,0.54,0.38,0,0,0.0*
1,1,0.38,0.27,0.00*
1,1,0.38,-0.27,0.00*
1,1,0.38,-0.27,0.00*
1,1,0.38,0.27,0.00*
%
%ADD69ROUNDEDRECTD69*%
G04:AMPARAMS|DCode=70|XSize=0.92mm|YSize=0.38mm|CornerRadius=0.19mm|HoleSize=0mm|Usage=FLASHONLY|Rotation=270.000|XOffset=0mm|YOffset=0mm|HoleType=Round|Shape=RoundedRectangle|*
%AMROUNDEDRECTD70*
21,1,0.92,0.00,0,0,270.0*
21,1,0.54,0.38,0,0,270.0*
1,1,0.38,0.00,-0.27*
1,1,0.38,0.00,0.27*
1,1,0.38,0.00,0.27*
1,1,0.38,0.00,-0.27*
%
%ADD70ROUNDEDRECTD70*%
G04:AMPARAMS|DCode=71|XSize=0.6mm|YSize=0.6mm|CornerRadius=0.1mm|HoleSize=0mm|Usage=FLASHONLY|Rotation=270.000|XOffset=0mm|YOffset=0mm|HoleType=Round|Shape=RoundedRectangle|*
%AMROUNDEDRECTD71*
21,1,0.60,0.40,0,0,270.0*
21,1,0.40,0.60,0,0,270.0*
1,1,0.20,-0.20,-0.20*
1,1,0.20,-0.20,0.20*
1,1,0.20,0.20,0.20*
1,1,0.20,0.20,-0.20*
%
%ADD71ROUNDEDRECTD71*%
G04:AMPARAMS|DCode=72|XSize=1.25mm|YSize=1.9mm|CornerRadius=0.17mm|HoleSize=0mm|Usage=FLASHONLY|Rotation=180.000|XOffset=0mm|YOffset=0mm|HoleType=Round|Shape=RoundedRectangle|*
%AMROUNDEDRECTD72*
21,1,1.25,1.57,0,0,180.0*
21,1,0.92,1.90,0,0,180.0*
1,1,0.33,-0.46,0.79*
1,1,0.33,0.46,0.79*
1,1,0.33,0.46,-0.79*
1,1,0.33,-0.46,-0.79*
%
%ADD72ROUNDEDRECTD72*%
G04:AMPARAMS|DCode=73|XSize=0.65mm|YSize=0.9mm|CornerRadius=0.11mm|HoleSize=0mm|Usage=FLASHONLY|Rotation=270.000|XOffset=0mm|YOffset=0mm|HoleType=Round|Shape=RoundedRectangle|*
%AMROUNDEDRECTD73*
21,1,0.65,0.69,0,0,270.0*
21,1,0.44,0.90,0,0,270.0*
1,1,0.21,-0.35,-0.22*
1,1,0.21,-0.35,0.22*
1,1,0.21,0.35,0.22*
1,1,0.21,0.35,-0.22*
%
%ADD73ROUNDEDRECTD73*%
G04:AMPARAMS|DCode=74|XSize=1.65mm|YSize=0.7mm|CornerRadius=0.11mm|HoleSize=0mm|Usage=FLASHONLY|Rotation=90.000|XOffset=0mm|YOffset=0mm|HoleType=Round|Shape=RoundedRectangle|*
%AMROUNDEDRECTD74*
21,1,1.65,0.48,0,0,90.0*
21,1,1.43,0.70,0,0,90.0*
1,1,0.22,0.24,0.72*
1,1,0.22,0.24,-0.72*
1,1,0.22,-0.24,-0.72*
1,1,0.22,-0.24,0.72*
%
%ADD74ROUNDEDRECTD74*%
G04:AMPARAMS|DCode=75|XSize=1.3mm|YSize=1.9mm|CornerRadius=0.17mm|HoleSize=0mm|Usage=FLASHONLY|Rotation=0.000|XOffset=0mm|YOffset=0mm|HoleType=Round|Shape=RoundedRectangle|*
%AMROUNDEDRECTD75*
21,1,1.30,1.56,0,0,0.0*
21,1,0.96,1.90,0,0,0.0*
1,1,0.34,0.48,-0.78*
1,1,0.34,-0.48,-0.78*
1,1,0.34,-0.48,0.78*
1,1,0.34,0.48,0.78*
%
%ADD75ROUNDEDRECTD75*%
G04:AMPARAMS|DCode=76|XSize=0.7mm|YSize=0.34mm|CornerRadius=0.09mm|HoleSize=0mm|Usage=FLASHONLY|Rotation=0.000|XOffset=0mm|YOffset=0mm|HoleType=Round|Shape=RoundedRectangle|*
%AMROUNDEDRECTD76*
21,1,0.70,0.17,0,0,0.0*
21,1,0.53,0.34,0,0,0.0*
1,1,0.17,0.26,-0.08*
1,1,0.17,-0.26,-0.08*
1,1,0.17,-0.26,0.08*
1,1,0.17,0.26,0.08*
%
%ADD76ROUNDEDRECTD76*%
G04:AMPARAMS|DCode=77|XSize=0.7mm|YSize=0.34mm|CornerRadius=0.09mm|HoleSize=0mm|Usage=FLASHONLY|Rotation=90.000|XOffset=0mm|YOffset=0mm|HoleType=Round|Shape=RoundedRectangle|*
%AMROUNDEDRECTD77*
21,1,0.70,0.17,0,0,90.0*
21,1,0.53,0.34,0,0,90.0*
1,1,0.17,0.08,0.26*
1,1,0.17,0.08,-0.26*
1,1,0.17,-0.08,-0.26*
1,1,0.17,-0.08,0.26*
%
%ADD77ROUNDEDRECTD77*%
G04:AMPARAMS|DCode=78|XSize=1.89mm|YSize=0.32mm|CornerRadius=0.08mm|HoleSize=0mm|Usage=FLASHONLY|Rotation=270.000|XOffset=0mm|YOffset=0mm|HoleType=Round|Shape=RoundedRectangle|*
%AMROUNDEDRECTD78*
21,1,1.89,0.15,0,0,270.0*
21,1,1.72,0.32,0,0,270.0*
1,1,0.17,-0.08,-0.86*
1,1,0.17,-0.08,0.86*
1,1,0.17,0.08,0.86*
1,1,0.17,0.08,-0.86*
%
%ADD78ROUNDEDRECTD78*%
G04:AMPARAMS|DCode=79|XSize=1.89mm|YSize=0.34mm|CornerRadius=0.09mm|HoleSize=0mm|Usage=FLASHONLY|Rotation=270.000|XOffset=0mm|YOffset=0mm|HoleType=Round|Shape=RoundedRectangle|*
%AMROUNDEDRECTD79*
21,1,1.89,0.17,0,0,270.0*
21,1,1.72,0.34,0,0,270.0*
1,1,0.17,-0.08,-0.86*
1,1,0.17,-0.08,0.86*
1,1,0.17,0.08,0.86*
1,1,0.17,0.08,-0.86*
%
%ADD79ROUNDEDRECTD79*%
G04:AMPARAMS|DCode=80|XSize=0.8mm|YSize=0.8mm|CornerRadius=0.12mm|HoleSize=0mm|Usage=FLASHONLY|Rotation=270.000|XOffset=0mm|YOffset=0mm|HoleType=Round|Shape=RoundedRectangle|*
%AMROUNDEDRECTD80*
21,1,0.80,0.56,0,0,270.0*
21,1,0.56,0.80,0,0,270.0*
1,1,0.24,-0.28,-0.28*
1,1,0.24,-0.28,0.28*
1,1,0.24,0.28,0.28*
1,1,0.24,0.28,-0.28*
%
%ADD80ROUNDEDRECTD80*%
G04:AMPARAMS|DCode=81|XSize=1.55mm|YSize=1.55mm|CornerRadius=0.2mm|HoleSize=0mm|Usage=FLASHONLY|Rotation=270.000|XOffset=0mm|YOffset=0mm|HoleType=Round|Shape=RoundedRectangle|*
%AMROUNDEDRECTD81*
21,1,1.55,1.16,0,0,270.0*
21,1,1.16,1.55,0,0,270.0*
1,1,0.39,-0.58,-0.58*
1,1,0.39,-0.58,0.58*
1,1,0.39,0.58,0.58*
1,1,0.39,0.58,-0.58*
%
%ADD81ROUNDEDRECTD81*%
G04:AMPARAMS|DCode=82|XSize=1.55mm|YSize=1.55mm|CornerRadius=0.34mm|HoleSize=0mm|Usage=FLASHONLY|Rotation=270.000|XOffset=0mm|YOffset=0mm|HoleType=Round|Shape=RoundedRectangle|*
%AMROUNDEDRECTD82*
21,1,1.55,0.87,0,0,270.0*
21,1,0.87,1.55,0,0,270.0*
1,1,0.68,-0.43,-0.43*
1,1,0.68,-0.43,0.43*
1,1,0.68,0.43,0.43*
1,1,0.68,0.43,-0.43*
%
%ADD82ROUNDEDRECTD82*%
G04:AMPARAMS|DCode=83|XSize=0.9mm|YSize=0.5mm|CornerRadius=0.09mm|HoleSize=0mm|Usage=FLASHONLY|Rotation=270.000|XOffset=0mm|YOffset=0mm|HoleType=Round|Shape=RoundedRectangle|*
%AMROUNDEDRECTD83*
21,1,0.90,0.32,0,0,270.0*
21,1,0.72,0.50,0,0,270.0*
1,1,0.18,-0.16,-0.36*
1,1,0.18,-0.16,0.36*
1,1,0.18,0.16,0.36*
1,1,0.18,0.16,-0.36*
%
%ADD83ROUNDEDRECTD83*%
G04:AMPARAMS|DCode=84|XSize=0.9mm|YSize=0.5mm|CornerRadius=0.09mm|HoleSize=0mm|Usage=FLASHONLY|Rotation=180.000|XOffset=0mm|YOffset=0mm|HoleType=Round|Shape=RoundedRectangle|*
%AMROUNDEDRECTD84*
21,1,0.90,0.32,0,0,180.0*
21,1,0.72,0.50,0,0,180.0*
1,1,0.18,-0.36,0.16*
1,1,0.18,0.36,0.16*
1,1,0.18,0.36,-0.16*
1,1,0.18,-0.36,-0.16*
%
%ADD84ROUNDEDRECTD84*%
G04:AMPARAMS|DCode=85|XSize=0.7mm|YSize=0.9mm|CornerRadius=0.11mm|HoleSize=0mm|Usage=FLASHONLY|Rotation=180.000|XOffset=0mm|YOffset=0mm|HoleType=Round|Shape=RoundedRectangle|*
%AMROUNDEDRECTD85*
21,1,0.70,0.68,0,0,180.0*
21,1,0.48,0.90,0,0,180.0*
1,1,0.22,-0.24,0.34*
1,1,0.22,0.24,0.34*
1,1,0.22,0.24,-0.34*
1,1,0.22,-0.24,-0.34*
%
%ADD85ROUNDEDRECTD85*%
G04:AMPARAMS|DCode=86|XSize=0.7mm|YSize=0.9mm|CornerRadius=0.2mm|HoleSize=0mm|Usage=FLASHONLY|Rotation=180.000|XOffset=0mm|YOffset=0mm|HoleType=Round|Shape=RoundedRectangle|*
%AMROUNDEDRECTD86*
21,1,0.70,0.50,0,0,180.0*
21,1,0.30,0.90,0,0,180.0*
1,1,0.40,-0.15,0.25*
1,1,0.40,0.15,0.25*
1,1,0.40,0.15,-0.25*
1,1,0.40,-0.15,-0.25*
%
%ADD86ROUNDEDRECTD86*%
G04:AMPARAMS|DCode=87|XSize=1.6mm|YSize=1.3mm|CornerRadius=0.17mm|HoleSize=0mm|Usage=FLASHONLY|Rotation=0.000|XOffset=0mm|YOffset=0mm|HoleType=Round|Shape=RoundedRectangle|*
%AMROUNDEDRECTD87*
21,1,1.60,0.96,0,0,0.0*
21,1,1.26,1.30,0,0,0.0*
1,1,0.34,0.63,-0.48*
1,1,0.34,-0.63,-0.48*
1,1,0.34,-0.63,0.48*
1,1,0.34,0.63,0.48*
%
%ADD87ROUNDEDRECTD87*%
G04:AMPARAMS|DCode=88|XSize=0.9mm|YSize=0.3mm|CornerRadius=0.15mm|HoleSize=0mm|Usage=FLASHONLY|Rotation=0.000|XOffset=0mm|YOffset=0mm|HoleType=Round|Shape=RoundedRectangle|*
%AMROUNDEDRECTD88*
21,1,0.90,0.00,0,0,0.0*
21,1,0.60,0.30,0,0,0.0*
1,1,0.30,0.30,0.00*
1,1,0.30,-0.30,0.00*
1,1,0.30,-0.30,0.00*
1,1,0.30,0.30,0.00*
%
%ADD88ROUNDEDRECTD88*%
G04:AMPARAMS|DCode=89|XSize=0.3mm|YSize=0.9mm|CornerRadius=0.15mm|HoleSize=0mm|Usage=FLASHONLY|Rotation=0.000|XOffset=0mm|YOffset=0mm|HoleType=Round|Shape=RoundedRectangle|*
%AMROUNDEDRECTD89*
21,1,0.30,0.60,0,0,0.0*
21,1,0.00,0.90,0,0,0.0*
1,1,0.30,0.00,-0.30*
1,1,0.30,0.00,-0.30*
1,1,0.30,0.00,0.30*
1,1,0.30,0.00,0.30*
%
%ADD89ROUNDEDRECTD89*%
G04:AMPARAMS|DCode=90|XSize=0.6mm|YSize=0.6mm|CornerRadius=0.1mm|HoleSize=0mm|Usage=FLASHONLY|Rotation=0.000|XOffset=0mm|YOffset=0mm|HoleType=Round|Shape=RoundedRectangle|*
%AMROUNDEDRECTD90*
21,1,0.60,0.40,0,0,0.0*
21,1,0.40,0.60,0,0,0.0*
1,1,0.20,0.20,-0.20*
1,1,0.20,-0.20,-0.20*
1,1,0.20,-0.20,0.20*
1,1,0.20,0.20,0.20*
%
%ADD90ROUNDEDRECTD90*%
G04:AMPARAMS|DCode=91|XSize=0.35mm|YSize=0.46mm|CornerRadius=0.08mm|HoleSize=0mm|Usage=FLASHONLY|Rotation=180.000|XOffset=0mm|YOffset=0mm|HoleType=Round|Shape=RoundedRectangle|*
%AMROUNDEDRECTD91*
21,1,0.35,0.31,0,0,180.0*
21,1,0.20,0.46,0,0,180.0*
1,1,0.15,-0.10,0.16*
1,1,0.15,0.10,0.16*
1,1,0.15,0.10,-0.16*
1,1,0.15,-0.10,-0.16*
%
%ADD91ROUNDEDRECTD91*%
G04:AMPARAMS|DCode=92|XSize=0.9mm|YSize=1.6mm|CornerRadius=0.13mm|HoleSize=0mm|Usage=FLASHONLY|Rotation=0.000|XOffset=0mm|YOffset=0mm|HoleType=Round|Shape=RoundedRectangle|*
%AMROUNDEDRECTD92*
21,1,0.90,1.34,0,0,0.0*
21,1,0.64,1.60,0,0,0.0*
1,1,0.26,0.32,-0.67*
1,1,0.26,-0.32,-0.67*
1,1,0.26,-0.32,0.67*
1,1,0.26,0.32,0.67*
%
%ADD92ROUNDEDRECTD92*%
G04:AMPARAMS|DCode=93|XSize=0.64mm|YSize=1.6mm|CornerRadius=0.1mm|HoleSize=0mm|Usage=FLASHONLY|Rotation=0.000|XOffset=0mm|YOffset=0mm|HoleType=Round|Shape=RoundedRectangle|*
%AMROUNDEDRECTD93*
21,1,0.64,1.39,0,0,0.0*
21,1,0.43,1.60,0,0,0.0*
1,1,0.21,0.22,-0.70*
1,1,0.21,-0.22,-0.70*
1,1,0.21,-0.22,0.70*
1,1,0.21,0.22,0.70*
%
%ADD93ROUNDEDRECTD93*%
G04:AMPARAMS|DCode=94|XSize=0.7mm|YSize=1.6mm|CornerRadius=0.11mm|HoleSize=0mm|Usage=FLASHONLY|Rotation=0.000|XOffset=0mm|YOffset=0mm|HoleType=Round|Shape=RoundedRectangle|*
%AMROUNDEDRECTD94*
21,1,0.70,1.38,0,0,0.0*
21,1,0.48,1.60,0,0,0.0*
1,1,0.22,0.24,-0.69*
1,1,0.22,-0.24,-0.69*
1,1,0.22,-0.24,0.69*
1,1,0.22,0.24,0.69*
%
%ADD94ROUNDEDRECTD94*%
%ADD95C,1.60*%
%ADD96O,2.20X1.20*%
%ADD97O,3.70X1.20*%
%ADD98O,3.10X1.30*%
%ADD99C,0.30*%
%ADD100C,1.00*%
%ADD101C,0.45*%
%ADD102C,1.09*%
G36*
X4360Y259D02*
Y272D01*
X4367Y298D01*
X4380Y321D01*
X4399Y339D01*
X4421Y352D01*
X4447Y359D01*
X4473D01*
X4499Y352D01*
X4521Y339D01*
X4540Y321D01*
X4553Y298D01*
X4560Y272D01*
Y259D01*
Y246D01*
X4553Y221D01*
X4540Y198D01*
X4521Y179D01*
X4499Y166D01*
X4473Y159D01*
X4447D01*
X4421Y166D01*
X4399Y179D01*
X4380Y198D01*
X4367Y221D01*
X4360Y246D01*
Y259D01*
D01*
D02*
G37*
G36*
X3565Y3415D02*
X3565Y3320D01*
X3460Y3320D01*
X3370Y3410D01*
X3370Y3515D01*
X3465Y3515D01*
X3465Y3465D01*
X3515Y3415D01*
X3565Y3415D01*
D02*
G37*
G36*
X3795Y3515D02*
X3890Y3515D01*
X3890Y3410D01*
X3800Y3320D01*
X3695Y3320D01*
X3695Y3415D01*
X3745Y3415D01*
X3795Y3465D01*
X3795Y3515D01*
D02*
G37*
G36*
X2290Y4489D02*
Y4502D01*
X2297Y4528D01*
X2310Y4551D01*
X2329Y4569D01*
X2351Y4582D01*
X2377Y4589D01*
X2403D01*
X2429Y4582D01*
X2451Y4569D01*
X2470Y4551D01*
X2483Y4528D01*
X2490Y4502D01*
Y4489D01*
Y4476D01*
X2483Y4451D01*
X2470Y4428D01*
X2451Y4409D01*
X2429Y4396D01*
X2403Y4389D01*
X2377D01*
X2351Y4396D01*
X2329Y4409D01*
X2310Y4428D01*
X2297Y4451D01*
X2290Y4476D01*
Y4489D01*
D01*
D02*
G37*
G36*
X3465Y3645D02*
X3370Y3645D01*
X3370Y3750D01*
X3460Y3840D01*
X3565Y3840D01*
X3565Y3745D01*
X3515Y3745D01*
X3465Y3695D01*
X3465Y3645D01*
D02*
G37*
G36*
X3695Y3745D02*
X3695Y3840D01*
X3800Y3840D01*
X3890Y3750D01*
X3890Y3645D01*
X3795Y3645D01*
X3795Y3695D01*
X3745Y3745D01*
X3695Y3745D01*
D02*
G37*
G36*
X4240Y3719D02*
Y3732D01*
X4247Y3758D01*
X4260Y3781D01*
X4279Y3799D01*
X4301Y3812D01*
X4327Y3819D01*
X4353D01*
X4379Y3812D01*
X4401Y3799D01*
X4420Y3781D01*
X4433Y3758D01*
X4440Y3732D01*
Y3719D01*
Y3706D01*
X4433Y3681D01*
X4420Y3658D01*
X4401Y3639D01*
X4379Y3626D01*
X4353Y3619D01*
X4327D01*
X4301Y3626D01*
X4279Y3639D01*
X4260Y3658D01*
X4247Y3681D01*
X4240Y3706D01*
Y3719D01*
D01*
D02*
G37*
G36*
X13760Y763D02*
X13761D01*
X13766Y762D01*
X13771Y762D01*
X13776Y760D01*
X13781Y759D01*
X13786Y757D01*
X13787D01*
X13787Y757D01*
X13788Y756D01*
X13789Y756D01*
X13791Y755D01*
X13794Y753D01*
X13797Y750D01*
X13801Y747D01*
X13804Y744D01*
X13807Y740D01*
Y740D01*
X13807Y740D01*
X13808Y739D01*
X13808Y738D01*
X13809Y736D01*
X13811Y733D01*
X13812Y729D01*
X13814Y725D01*
X13815Y720D01*
X13815Y715D01*
X13795Y713D01*
Y714D01*
Y714D01*
X13795Y715D01*
X13794Y716D01*
X13794Y718D01*
X13793Y722D01*
X13791Y726D01*
X13789Y729D01*
X13787Y733D01*
X13784Y736D01*
X13783Y736D01*
X13782Y737D01*
X13780Y739D01*
X13777Y740D01*
X13773Y741D01*
X13768Y743D01*
X13762Y744D01*
X13756Y744D01*
X13753D01*
X13751Y744D01*
X13749Y743D01*
X13745Y743D01*
X13741Y742D01*
X13736Y741D01*
X13731Y739D01*
X13730Y738D01*
X13728Y737D01*
X13727Y737D01*
X13726Y736D01*
X13725Y734D01*
X13724Y732D01*
X13722Y730D01*
X13721Y727D01*
X13720Y724D01*
X13719Y720D01*
Y719D01*
Y718D01*
X13719Y717D01*
X13720Y715D01*
X13721Y713D01*
X13722Y710D01*
X13723Y708D01*
X13725Y706D01*
X13725Y706D01*
X13727Y705D01*
X13728Y704D01*
X13728Y704D01*
X13730Y703D01*
X13731Y702D01*
X13734Y701D01*
X13736Y700D01*
X13738Y699D01*
X13741Y698D01*
X13745Y697D01*
X13748Y696D01*
X13753Y695D01*
X13757Y694D01*
X13757D01*
X13758Y694D01*
X13760Y694D01*
X13761Y693D01*
X13763Y693D01*
X13766Y692D01*
X13769Y691D01*
X13771Y691D01*
X13777Y689D01*
X13783Y687D01*
X13786Y687D01*
X13788Y686D01*
X13791Y685D01*
X13793Y684D01*
X13793D01*
X13793Y684D01*
X13794Y683D01*
X13795Y683D01*
X13797Y681D01*
X13800Y680D01*
X13804Y677D01*
X13807Y674D01*
X13811Y671D01*
X13813Y668D01*
X13814Y667D01*
X13815Y666D01*
X13815Y664D01*
X13817Y661D01*
X13818Y658D01*
X13819Y654D01*
X13820Y650D01*
X13820Y645D01*
Y645D01*
Y644D01*
Y644D01*
Y643D01*
X13820Y640D01*
X13819Y637D01*
X13818Y633D01*
X13817Y629D01*
X13815Y625D01*
X13813Y621D01*
Y621D01*
X13812Y620D01*
X13811Y619D01*
X13810Y617D01*
X13807Y615D01*
X13804Y612D01*
X13801Y609D01*
X13797Y606D01*
X13792Y603D01*
X13791D01*
X13791Y603D01*
X13790Y603D01*
X13789Y603D01*
X13788Y602D01*
X13786Y601D01*
X13783Y600D01*
X13778Y599D01*
X13773Y598D01*
X13767Y597D01*
X13761Y597D01*
X13757D01*
X13755Y597D01*
X13753D01*
X13751Y598D01*
X13748Y598D01*
X13742Y599D01*
X13736Y600D01*
X13730Y601D01*
X13725Y603D01*
X13724D01*
X13724Y604D01*
X13723Y604D01*
X13722Y605D01*
X13719Y606D01*
X13716Y608D01*
X13713Y611D01*
X13709Y614D01*
X13705Y618D01*
X13701Y622D01*
Y623D01*
X13701Y623D01*
X13701Y624D01*
X13700Y625D01*
X13700Y626D01*
X13699Y627D01*
X13697Y631D01*
X13696Y635D01*
X13694Y640D01*
X13693Y646D01*
X13693Y651D01*
X13713Y653D01*
Y653D01*
Y653D01*
X13713Y652D01*
Y651D01*
X13713Y649D01*
X13714Y646D01*
X13715Y643D01*
X13716Y640D01*
X13718Y636D01*
X13719Y633D01*
X13719Y633D01*
X13720Y632D01*
X13721Y631D01*
X13723Y629D01*
X13725Y627D01*
X13728Y625D01*
X13731Y623D01*
X13735Y621D01*
X13735D01*
X13736Y621D01*
X13736Y620D01*
X13737Y620D01*
X13739Y619D01*
X13742Y619D01*
X13746Y618D01*
X13750Y617D01*
X13755Y616D01*
X13760Y616D01*
X13762D01*
X13764Y616D01*
X13767Y617D01*
X13770Y617D01*
X13774Y618D01*
X13778Y619D01*
X13781Y620D01*
X13782Y620D01*
X13783Y620D01*
X13784Y621D01*
X13787Y622D01*
X13789Y624D01*
X13791Y625D01*
X13793Y627D01*
X13795Y630D01*
X13795Y630D01*
X13796Y631D01*
X13797Y632D01*
X13797Y634D01*
X13798Y636D01*
X13799Y638D01*
X13800Y640D01*
X13800Y643D01*
Y644D01*
Y645D01*
X13800Y646D01*
X13799Y648D01*
X13799Y650D01*
X13798Y652D01*
X13797Y654D01*
X13795Y656D01*
X13795Y657D01*
X13794Y657D01*
X13793Y658D01*
X13792Y660D01*
X13790Y661D01*
X13787Y663D01*
X13784Y664D01*
X13781Y666D01*
X13781Y666D01*
X13779Y666D01*
X13778Y667D01*
X13776Y667D01*
X13775Y668D01*
X13773Y668D01*
X13771Y669D01*
X13769Y669D01*
X13766Y670D01*
X13763Y671D01*
X13760Y672D01*
X13756Y673D01*
X13752Y674D01*
X13752D01*
X13751Y674D01*
X13750Y674D01*
X13749Y675D01*
X13747Y675D01*
X13745Y675D01*
X13740Y677D01*
X13735Y678D01*
X13730Y680D01*
X13725Y682D01*
X13723Y683D01*
X13721Y684D01*
X13721D01*
X13721Y684D01*
X13719Y685D01*
X13717Y686D01*
X13715Y688D01*
X13712Y690D01*
X13709Y692D01*
X13707Y695D01*
X13704Y699D01*
X13704Y699D01*
X13703Y700D01*
X13703Y702D01*
X13702Y704D01*
X13701Y707D01*
X13700Y711D01*
X13699Y715D01*
X13699Y718D01*
Y719D01*
Y719D01*
Y720D01*
Y721D01*
X13699Y723D01*
X13700Y726D01*
X13700Y729D01*
X13702Y733D01*
X13703Y737D01*
X13706Y741D01*
Y741D01*
X13706Y742D01*
X13707Y743D01*
X13709Y745D01*
X13711Y747D01*
X13713Y750D01*
X13717Y752D01*
X13721Y755D01*
X13726Y757D01*
X13726D01*
X13726Y758D01*
X13727Y758D01*
X13728Y758D01*
X13729Y759D01*
X13731Y759D01*
X13734Y760D01*
X13739Y761D01*
X13744Y762D01*
X13749Y763D01*
X13755Y763D01*
X13758D01*
X13760Y763D01*
D02*
G37*
G36*
X14114Y600D02*
X14096D01*
Y615D01*
X14096Y614D01*
X14095Y614D01*
X14095Y613D01*
X14094Y612D01*
X14093Y611D01*
X14091Y609D01*
X14090Y608D01*
X14088Y606D01*
X14086Y604D01*
X14083Y603D01*
X14080Y601D01*
X14077Y600D01*
X14074Y599D01*
X14071Y598D01*
X14067Y598D01*
X14063Y597D01*
X14062D01*
X14061Y598D01*
X14058Y598D01*
X14055Y598D01*
X14051Y599D01*
X14047Y601D01*
X14042Y603D01*
X14038Y605D01*
X14038D01*
X14037Y606D01*
X14036Y606D01*
X14034Y608D01*
X14031Y611D01*
X14028Y614D01*
X14025Y617D01*
X14022Y622D01*
X14020Y626D01*
Y627D01*
X14020Y627D01*
X14019Y628D01*
X14019Y629D01*
X14018Y630D01*
X14018Y632D01*
X14017Y633D01*
X14017Y635D01*
X14016Y640D01*
X14014Y645D01*
X14014Y651D01*
X14014Y658D01*
Y658D01*
Y659D01*
Y659D01*
Y661D01*
X14014Y662D01*
Y664D01*
X14014Y668D01*
X14015Y673D01*
X14016Y678D01*
X14017Y684D01*
X14019Y689D01*
Y690D01*
X14020Y690D01*
X14020Y691D01*
X14020Y692D01*
X14022Y694D01*
X14024Y697D01*
X14026Y701D01*
X14029Y704D01*
X14033Y708D01*
X14037Y711D01*
X14037D01*
X14037Y711D01*
X14038Y712D01*
X14039Y712D01*
X14041Y713D01*
X14044Y715D01*
X14048Y716D01*
X14052Y718D01*
X14057Y718D01*
X14062Y719D01*
X14064D01*
X14066Y718D01*
X14069Y718D01*
X14072Y718D01*
X14075Y717D01*
X14078Y716D01*
X14081Y714D01*
X14082Y714D01*
X14083Y713D01*
X14084Y712D01*
X14086Y711D01*
X14088Y709D01*
X14090Y707D01*
X14092Y705D01*
X14095Y703D01*
Y760D01*
X14114D01*
Y600D01*
D02*
G37*
G36*
X13566Y718D02*
X13567Y718D01*
X13571Y718D01*
X13575Y717D01*
X13579Y715D01*
X13584Y713D01*
X13588Y711D01*
X13588D01*
X13589Y710D01*
X13590Y709D01*
X13592Y708D01*
X13595Y705D01*
X13598Y702D01*
X13600Y699D01*
X13603Y694D01*
X13605Y689D01*
Y689D01*
X13606Y689D01*
X13606Y688D01*
X13606Y687D01*
X13607Y686D01*
X13607Y684D01*
X13608Y680D01*
X13610Y676D01*
X13610Y671D01*
X13611Y665D01*
X13611Y659D01*
Y659D01*
Y658D01*
Y657D01*
Y656D01*
X13611Y654D01*
Y652D01*
X13611Y648D01*
X13610Y643D01*
X13609Y638D01*
X13607Y632D01*
X13605Y627D01*
Y626D01*
X13605Y626D01*
X13604Y625D01*
X13604Y624D01*
X13602Y622D01*
X13600Y619D01*
X13598Y615D01*
X13594Y612D01*
X13591Y608D01*
X13586Y605D01*
X13586D01*
X13586Y605D01*
X13585Y604D01*
X13584Y604D01*
X13582Y603D01*
X13579Y601D01*
X13575Y600D01*
X13570Y599D01*
X13566Y598D01*
X13561Y597D01*
X13559D01*
X13557Y598D01*
X13555Y598D01*
X13552Y598D01*
X13549Y599D01*
X13546Y600D01*
X13543Y601D01*
X13543Y602D01*
X13542Y602D01*
X13540Y603D01*
X13538Y604D01*
X13537Y606D01*
X13534Y608D01*
X13532Y610D01*
X13530Y612D01*
Y556D01*
X13511D01*
Y716D01*
X13529D01*
Y701D01*
X13529Y701D01*
X13530Y702D01*
X13531Y704D01*
X13533Y706D01*
X13535Y708D01*
X13537Y710D01*
X13540Y712D01*
X13543Y714D01*
X13543Y714D01*
X13544Y715D01*
X13546Y715D01*
X13548Y716D01*
X13551Y717D01*
X13554Y718D01*
X13558Y718D01*
X13562Y719D01*
X13565D01*
X13566Y718D01*
D02*
G37*
G36*
X14316D02*
X14319Y718D01*
X14322Y717D01*
X14325Y716D01*
X14329Y714D01*
X14333Y712D01*
X14325Y694D01*
X14325Y694D01*
X14324Y695D01*
X14323Y696D01*
X14321Y696D01*
X14319Y697D01*
X14316Y698D01*
X14314Y698D01*
X14311Y698D01*
X14310D01*
X14309Y698D01*
X14307Y698D01*
X14306Y697D01*
X14304Y697D01*
X14302Y696D01*
X14300Y694D01*
X14300Y694D01*
X14299Y694D01*
X14298Y693D01*
X14297Y692D01*
X14296Y690D01*
X14295Y688D01*
X14294Y686D01*
X14293Y684D01*
X14292Y683D01*
X14292Y682D01*
X14292Y680D01*
X14291Y677D01*
X14290Y673D01*
X14290Y669D01*
X14290Y665D01*
X14289Y661D01*
Y600D01*
X14270D01*
Y716D01*
X14288D01*
Y699D01*
X14288Y699D01*
X14289Y700D01*
X14290Y703D01*
X14292Y705D01*
X14294Y708D01*
X14296Y710D01*
X14298Y713D01*
X14300Y715D01*
X14300Y715D01*
X14301Y715D01*
X14302Y716D01*
X14303Y717D01*
X14305Y717D01*
X14308Y718D01*
X14310Y718D01*
X14313Y719D01*
X14314D01*
X14316Y718D01*
D02*
G37*
G36*
X13990Y600D02*
X13971D01*
Y760D01*
X13990D01*
Y600D01*
D02*
G37*
G36*
X13367Y741D02*
X13314D01*
Y600D01*
X13293D01*
Y741D01*
X13240D01*
Y760D01*
X13367D01*
Y741D01*
D02*
G37*
G36*
X14197Y718D02*
X14199Y718D01*
X14201Y718D01*
X14204Y717D01*
X14207Y717D01*
X14209Y716D01*
X14213Y715D01*
X14216Y714D01*
X14219Y712D01*
X14222Y710D01*
X14225Y708D01*
X14228Y706D01*
X14231Y703D01*
X14231Y703D01*
X14232Y702D01*
X14232Y701D01*
X14233Y700D01*
X14235Y698D01*
X14236Y696D01*
X14237Y694D01*
X14238Y691D01*
X14240Y688D01*
X14241Y685D01*
X14242Y681D01*
X14244Y677D01*
X14244Y673D01*
X14245Y668D01*
X14246Y663D01*
X14246Y658D01*
Y658D01*
Y657D01*
Y655D01*
X14246Y653D01*
X14159D01*
Y653D01*
Y652D01*
X14159Y651D01*
Y650D01*
X14159Y648D01*
X14160Y646D01*
X14160Y642D01*
X14162Y637D01*
X14164Y632D01*
X14166Y628D01*
X14170Y624D01*
X14170D01*
X14170Y623D01*
X14171Y622D01*
X14173Y620D01*
X14176Y619D01*
X14180Y617D01*
X14184Y615D01*
X14189Y614D01*
X14191Y614D01*
X14194Y614D01*
X14196D01*
X14198Y614D01*
X14201Y614D01*
X14203Y615D01*
X14207Y616D01*
X14210Y617D01*
X14213Y619D01*
X14213Y619D01*
X14214Y620D01*
X14215Y622D01*
X14217Y624D01*
X14219Y626D01*
X14221Y629D01*
X14223Y633D01*
X14225Y637D01*
X14245Y635D01*
Y635D01*
X14245Y634D01*
X14245Y633D01*
X14244Y632D01*
X14244Y631D01*
X14243Y629D01*
X14241Y625D01*
X14239Y620D01*
X14235Y616D01*
X14232Y611D01*
X14227Y607D01*
X14227D01*
X14226Y607D01*
X14226Y606D01*
X14225Y606D01*
X14223Y605D01*
X14222Y604D01*
X14220Y603D01*
X14218Y602D01*
X14216Y601D01*
X14213Y600D01*
X14208Y599D01*
X14201Y598D01*
X14194Y597D01*
X14191D01*
X14190Y598D01*
X14188Y598D01*
X14185Y598D01*
X14182Y599D01*
X14179Y599D01*
X14173Y601D01*
X14170Y603D01*
X14166Y604D01*
X14163Y606D01*
X14160Y608D01*
X14157Y610D01*
X14154Y613D01*
X14153Y613D01*
X14153Y614D01*
X14152Y615D01*
X14151Y616D01*
X14150Y618D01*
X14149Y619D01*
X14148Y622D01*
X14146Y624D01*
X14145Y627D01*
X14143Y631D01*
X14142Y634D01*
X14141Y638D01*
X14140Y642D01*
X14139Y647D01*
X14139Y652D01*
X14139Y657D01*
Y657D01*
Y658D01*
Y660D01*
X14139Y662D01*
X14139Y664D01*
X14139Y667D01*
X14140Y670D01*
X14141Y674D01*
X14142Y681D01*
X14144Y685D01*
X14145Y689D01*
X14147Y692D01*
X14149Y696D01*
X14151Y699D01*
X14154Y703D01*
X14154Y703D01*
X14154Y703D01*
X14155Y704D01*
X14157Y705D01*
X14158Y706D01*
X14160Y708D01*
X14162Y709D01*
X14164Y711D01*
X14167Y712D01*
X14170Y714D01*
X14173Y715D01*
X14177Y716D01*
X14180Y717D01*
X14184Y718D01*
X14188Y718D01*
X14193Y719D01*
X14195D01*
X14197Y718D01*
D02*
G37*
G36*
X13898D02*
X13900Y718D01*
X13902Y718D01*
X13905Y717D01*
X13908Y717D01*
X13914Y715D01*
X13917Y714D01*
X13920Y712D01*
X13924Y710D01*
X13927Y708D01*
X13930Y706D01*
X13933Y703D01*
X13933Y703D01*
X13933Y702D01*
X13934Y701D01*
X13935Y700D01*
X13936Y699D01*
X13938Y696D01*
X13939Y694D01*
X13940Y692D01*
X13942Y689D01*
X13943Y685D01*
X13945Y682D01*
X13946Y678D01*
X13947Y674D01*
X13947Y669D01*
X13948Y665D01*
X13948Y660D01*
Y659D01*
Y659D01*
Y658D01*
Y656D01*
X13948Y654D01*
X13948Y652D01*
Y650D01*
X13947Y647D01*
X13946Y641D01*
X13945Y635D01*
X13943Y630D01*
X13941Y624D01*
Y624D01*
X13941Y624D01*
X13940Y623D01*
X13940Y622D01*
X13938Y620D01*
X13936Y617D01*
X13933Y614D01*
X13930Y611D01*
X13926Y607D01*
X13921Y604D01*
X13921D01*
X13921Y604D01*
X13920Y604D01*
X13919Y603D01*
X13918Y603D01*
X13917Y602D01*
X13913Y601D01*
X13909Y600D01*
X13904Y599D01*
X13899Y598D01*
X13894Y597D01*
X13891D01*
X13890Y598D01*
X13887Y598D01*
X13885Y598D01*
X13882Y599D01*
X13880Y599D01*
X13873Y601D01*
X13870Y603D01*
X13867Y604D01*
X13863Y606D01*
X13860Y608D01*
X13857Y610D01*
X13854Y613D01*
X13854Y613D01*
X13853Y614D01*
X13853Y615D01*
X13852Y616D01*
X13851Y618D01*
X13849Y619D01*
X13848Y622D01*
X13847Y625D01*
X13845Y628D01*
X13844Y631D01*
X13843Y635D01*
X13842Y639D01*
X13841Y643D01*
X13840Y648D01*
X13840Y653D01*
X13839Y658D01*
Y659D01*
Y659D01*
X13840Y661D01*
Y663D01*
X13840Y666D01*
X13840Y669D01*
X13841Y672D01*
X13842Y676D01*
X13843Y680D01*
X13844Y684D01*
X13845Y688D01*
X13847Y692D01*
X13849Y696D01*
X13851Y699D01*
X13854Y703D01*
X13857Y706D01*
X13857Y706D01*
X13858Y706D01*
X13859Y707D01*
X13860Y708D01*
X13861Y709D01*
X13863Y710D01*
X13865Y711D01*
X13867Y712D01*
X13870Y713D01*
X13873Y715D01*
X13879Y717D01*
X13886Y718D01*
X13890Y718D01*
X13894Y719D01*
X13896D01*
X13898Y718D01*
D02*
G37*
G36*
X13437D02*
X13439Y718D01*
X13442Y718D01*
X13444Y717D01*
X13447Y717D01*
X13453Y715D01*
X13457Y714D01*
X13460Y712D01*
X13463Y710D01*
X13466Y708D01*
X13469Y706D01*
X13472Y703D01*
X13473Y703D01*
X13473Y702D01*
X13474Y701D01*
X13475Y700D01*
X13476Y699D01*
X13477Y696D01*
X13479Y694D01*
X13480Y692D01*
X13481Y689D01*
X13483Y685D01*
X13484Y682D01*
X13485Y678D01*
X13486Y674D01*
X13487Y669D01*
X13487Y665D01*
X13488Y660D01*
Y659D01*
Y659D01*
Y658D01*
Y656D01*
X13487Y654D01*
X13487Y652D01*
Y650D01*
X13487Y647D01*
X13486Y641D01*
X13485Y635D01*
X13483Y630D01*
X13481Y624D01*
Y624D01*
X13480Y624D01*
X13480Y623D01*
X13479Y622D01*
X13478Y620D01*
X13476Y617D01*
X13473Y614D01*
X13470Y611D01*
X13466Y607D01*
X13461Y604D01*
X13461D01*
X13461Y604D01*
X13460Y604D01*
X13459Y603D01*
X13458Y603D01*
X13456Y602D01*
X13453Y601D01*
X13449Y600D01*
X13444Y599D01*
X13439Y598D01*
X13433Y597D01*
X13431D01*
X13429Y598D01*
X13427Y598D01*
X13425Y598D01*
X13422Y599D01*
X13419Y599D01*
X13413Y601D01*
X13409Y603D01*
X13406Y604D01*
X13403Y606D01*
X13400Y608D01*
X13397Y610D01*
X13394Y613D01*
X13393Y613D01*
X13393Y614D01*
X13392Y615D01*
X13391Y616D01*
X13390Y618D01*
X13389Y619D01*
X13388Y622D01*
X13386Y625D01*
X13385Y628D01*
X13383Y631D01*
X13382Y635D01*
X13381Y639D01*
X13380Y643D01*
X13380Y648D01*
X13379Y653D01*
X13379Y658D01*
Y659D01*
Y659D01*
X13379Y661D01*
Y663D01*
X13379Y666D01*
X13380Y669D01*
X13380Y672D01*
X13381Y676D01*
X13382Y680D01*
X13383Y684D01*
X13385Y688D01*
X13386Y692D01*
X13388Y696D01*
X13391Y699D01*
X13393Y703D01*
X13397Y706D01*
X13397Y706D01*
X13397Y706D01*
X13398Y707D01*
X13399Y708D01*
X13401Y709D01*
X13403Y710D01*
X13405Y711D01*
X13407Y712D01*
X13409Y713D01*
X13412Y715D01*
X13418Y717D01*
X13426Y718D01*
X13429Y718D01*
X13433Y719D01*
X13436D01*
X13437Y718D01*
D02*
G37*
%LPC*%
G36*
X14064Y703D02*
X14063D01*
X14062Y702D01*
X14060Y702D01*
X14057Y701D01*
X14053Y700D01*
X14050Y698D01*
X14046Y695D01*
X14044Y693D01*
X14042Y692D01*
Y691D01*
X14042Y691D01*
X14042Y690D01*
X14041Y690D01*
X14040Y688D01*
X14040Y687D01*
X14039Y685D01*
X14038Y684D01*
X14037Y681D01*
X14036Y679D01*
X14036Y676D01*
X14035Y673D01*
X14035Y670D01*
X14034Y666D01*
X14034Y662D01*
Y658D01*
Y658D01*
Y657D01*
Y656D01*
X14034Y654D01*
Y652D01*
X14034Y650D01*
X14035Y645D01*
X14036Y640D01*
X14038Y634D01*
X14040Y629D01*
X14041Y627D01*
X14043Y625D01*
X14043D01*
X14043Y624D01*
X14045Y623D01*
X14047Y621D01*
X14049Y619D01*
X14052Y617D01*
X14056Y615D01*
X14061Y614D01*
X14063Y614D01*
X14065Y614D01*
X14066D01*
X14067Y614D01*
X14070Y614D01*
X14073Y615D01*
X14076Y616D01*
X14080Y618D01*
X14084Y621D01*
X14086Y622D01*
X14087Y624D01*
Y624D01*
X14088Y625D01*
X14088Y625D01*
X14089Y626D01*
X14089Y627D01*
X14090Y628D01*
X14091Y630D01*
X14092Y632D01*
X14093Y634D01*
X14093Y637D01*
X14094Y639D01*
X14095Y642D01*
X14095Y645D01*
X14096Y649D01*
X14096Y652D01*
Y656D01*
Y656D01*
Y657D01*
Y659D01*
X14096Y660D01*
Y662D01*
X14096Y664D01*
X14096Y667D01*
X14095Y670D01*
X14094Y675D01*
X14092Y681D01*
X14090Y687D01*
X14089Y689D01*
X14087Y691D01*
Y691D01*
X14087Y692D01*
X14086Y693D01*
X14083Y695D01*
X14081Y697D01*
X14078Y699D01*
X14074Y701D01*
X14069Y702D01*
X14067Y702D01*
X14064Y703D01*
D02*
G37*
G36*
X13560Y703D02*
X13559D01*
X13558Y703D01*
X13556Y703D01*
X13553Y702D01*
X13549Y700D01*
X13546Y698D01*
X13544Y697D01*
X13542Y695D01*
X13540Y693D01*
X13538Y691D01*
Y691D01*
X13538Y691D01*
X13537Y690D01*
X13537Y689D01*
X13536Y688D01*
X13535Y687D01*
X13534Y685D01*
X13533Y683D01*
X13532Y681D01*
X13532Y678D01*
X13531Y675D01*
X13530Y672D01*
X13529Y669D01*
X13529Y665D01*
X13529Y662D01*
Y657D01*
Y657D01*
Y656D01*
Y655D01*
X13529Y654D01*
Y652D01*
X13529Y650D01*
X13530Y645D01*
X13531Y639D01*
X13532Y634D01*
X13535Y629D01*
X13536Y626D01*
X13538Y624D01*
X13538Y624D01*
X13539Y623D01*
X13541Y621D01*
X13544Y619D01*
X13547Y617D01*
X13551Y615D01*
X13555Y614D01*
X13557Y614D01*
X13559Y614D01*
X13561D01*
X13562Y614D01*
X13564Y614D01*
X13567Y615D01*
X13571Y616D01*
X13574Y618D01*
X13578Y621D01*
X13580Y623D01*
X13582Y625D01*
Y625D01*
X13582Y625D01*
X13583Y626D01*
X13583Y627D01*
X13584Y628D01*
X13585Y629D01*
X13586Y631D01*
X13587Y633D01*
X13587Y635D01*
X13588Y638D01*
X13589Y641D01*
X13590Y644D01*
X13590Y647D01*
X13591Y651D01*
X13591Y655D01*
Y659D01*
Y659D01*
Y660D01*
Y661D01*
X13591Y663D01*
Y665D01*
X13591Y667D01*
X13590Y672D01*
X13589Y677D01*
X13587Y682D01*
X13585Y687D01*
X13584Y690D01*
X13582Y692D01*
Y692D01*
X13582Y693D01*
X13580Y694D01*
X13579Y696D01*
X13576Y698D01*
X13573Y700D01*
X13569Y702D01*
X13565Y703D01*
X13563Y703D01*
X13560Y703D01*
D02*
G37*
G36*
X14193Y703D02*
X14192D01*
X14191Y702D01*
X14188Y702D01*
X14185Y701D01*
X14182Y700D01*
X14178Y699D01*
X14174Y696D01*
X14170Y693D01*
X14170Y693D01*
X14169Y692D01*
X14167Y690D01*
X14166Y687D01*
X14164Y684D01*
X14162Y679D01*
X14161Y675D01*
X14160Y669D01*
X14225D01*
Y669D01*
Y670D01*
X14225Y671D01*
Y672D01*
X14224Y674D01*
X14224Y677D01*
X14222Y681D01*
X14221Y684D01*
X14219Y688D01*
X14217Y691D01*
Y691D01*
X14217Y691D01*
X14216Y693D01*
X14214Y695D01*
X14211Y697D01*
X14207Y699D01*
X14203Y701D01*
X14198Y702D01*
X14196Y702D01*
X14193Y703D01*
D02*
G37*
G36*
X13894D02*
X13892D01*
X13891Y702D01*
X13889Y702D01*
X13885Y701D01*
X13881Y700D01*
X13877Y698D01*
X13873Y695D01*
X13871Y693D01*
X13869Y691D01*
Y691D01*
X13869Y691D01*
X13868Y690D01*
X13868Y689D01*
X13867Y688D01*
X13866Y687D01*
X13865Y685D01*
X13864Y683D01*
X13863Y681D01*
X13862Y678D01*
X13862Y676D01*
X13861Y673D01*
X13860Y669D01*
X13860Y666D01*
X13860Y662D01*
X13859Y658D01*
Y658D01*
Y657D01*
Y656D01*
X13860Y654D01*
Y653D01*
X13860Y650D01*
X13861Y646D01*
X13862Y640D01*
X13864Y634D01*
X13866Y629D01*
X13868Y627D01*
X13869Y625D01*
X13869D01*
X13870Y624D01*
X13871Y623D01*
X13873Y621D01*
X13876Y619D01*
X13879Y617D01*
X13884Y615D01*
X13888Y614D01*
X13891Y614D01*
X13894Y614D01*
X13895D01*
X13896Y614D01*
X13899Y614D01*
X13902Y615D01*
X13906Y616D01*
X13910Y618D01*
X13914Y621D01*
X13916Y623D01*
X13918Y625D01*
X13918Y625D01*
X13918Y625D01*
X13919Y626D01*
X13920Y627D01*
X13920Y628D01*
X13921Y629D01*
X13922Y631D01*
X13923Y633D01*
X13924Y635D01*
X13925Y638D01*
X13926Y641D01*
X13926Y644D01*
X13927Y647D01*
X13927Y651D01*
X13928Y655D01*
Y659D01*
Y659D01*
Y660D01*
Y661D01*
X13928Y662D01*
Y664D01*
X13927Y666D01*
X13927Y671D01*
X13926Y676D01*
X13924Y682D01*
X13921Y687D01*
X13920Y689D01*
X13918Y691D01*
Y692D01*
X13918Y692D01*
X13916Y693D01*
X13914Y695D01*
X13911Y697D01*
X13908Y699D01*
X13904Y701D01*
X13899Y702D01*
X13896Y702D01*
X13894Y703D01*
D02*
G37*
G36*
X13433D02*
X13432D01*
X13431Y702D01*
X13428Y702D01*
X13425Y701D01*
X13421Y700D01*
X13417Y698D01*
X13413Y695D01*
X13411Y693D01*
X13409Y691D01*
Y691D01*
X13408Y691D01*
X13408Y690D01*
X13407Y689D01*
X13406Y688D01*
X13406Y687D01*
X13405Y685D01*
X13404Y683D01*
X13403Y681D01*
X13402Y678D01*
X13401Y676D01*
X13401Y673D01*
X13400Y669D01*
X13399Y666D01*
X13399Y662D01*
X13399Y658D01*
Y658D01*
Y657D01*
Y656D01*
X13399Y654D01*
Y653D01*
X13399Y650D01*
X13400Y646D01*
X13401Y640D01*
X13403Y634D01*
X13405Y629D01*
X13407Y627D01*
X13409Y625D01*
X13409D01*
X13409Y624D01*
X13411Y623D01*
X13413Y621D01*
X13415Y619D01*
X13419Y617D01*
X13423Y615D01*
X13428Y614D01*
X13430Y614D01*
X13433Y614D01*
X13435D01*
X13436Y614D01*
X13438Y614D01*
X13442Y615D01*
X13445Y616D01*
X13450Y618D01*
X13454Y621D01*
X13456Y623D01*
X13458Y625D01*
X13458Y625D01*
X13458Y625D01*
X13458Y626D01*
X13459Y627D01*
X13460Y628D01*
X13461Y629D01*
X13462Y631D01*
X13463Y633D01*
X13464Y635D01*
X13464Y638D01*
X13465Y641D01*
X13466Y644D01*
X13467Y647D01*
X13467Y651D01*
X13467Y655D01*
Y659D01*
Y659D01*
Y660D01*
Y661D01*
X13467Y662D01*
Y664D01*
X13467Y666D01*
X13466Y671D01*
X13465Y676D01*
X13463Y682D01*
X13461Y687D01*
X13459Y689D01*
X13458Y691D01*
Y692D01*
X13457Y692D01*
X13456Y693D01*
X13454Y695D01*
X13451Y697D01*
X13447Y699D01*
X13443Y701D01*
X13439Y702D01*
X13436Y702D01*
X13433Y703D01*
D02*
G37*
%LPD*%
D15*
X3110Y2410D02*
D03*
D16*
X890Y1490D02*
D03*
D17*
X1800Y2380D02*
D03*
D18*
X440Y1300D02*
D03*
Y1150D02*
D03*
Y1450D02*
D03*
D19*
X80Y1005D02*
D03*
Y1595D02*
D03*
D20*
X2390Y4490D02*
D03*
X4460Y260D02*
D03*
X4340Y3720D02*
D03*
D21*
X280Y206D02*
D03*
X330D02*
D03*
X380D02*
D03*
Y334D02*
D03*
X330D02*
D03*
X280D02*
D03*
X2120Y2216D02*
D03*
X2170D02*
D03*
X2220D02*
D03*
Y2344D02*
D03*
X2170D02*
D03*
X2120D02*
D03*
D22*
X4903Y457D02*
D03*
Y543D02*
D03*
D23*
X4938Y630D02*
D03*
Y370D02*
D03*
D24*
X4200Y3110D02*
D03*
Y3210D02*
D03*
X490Y400D02*
D03*
Y500D02*
D03*
X1240Y3380D02*
D03*
Y3280D02*
D03*
Y3730D02*
D03*
Y3630D02*
D03*
X1350Y3730D02*
D03*
Y3630D02*
D03*
X1450Y3730D02*
D03*
Y3630D02*
D03*
X1400Y4050D02*
D03*
Y3950D02*
D03*
X1540Y3050D02*
D03*
Y3150D02*
D03*
Y3250D02*
D03*
Y3350D02*
D03*
Y3450D02*
D03*
Y3550D02*
D03*
X1550Y3830D02*
D03*
Y3730D02*
D03*
X1650Y3830D02*
D03*
Y3730D02*
D03*
X2520Y3760D02*
D03*
Y3860D02*
D03*
X4870D02*
D03*
Y3760D02*
D03*
X4200Y2740D02*
D03*
Y2640D02*
D03*
X4780Y240D02*
D03*
Y340D02*
D03*
Y450D02*
D03*
Y550D02*
D03*
Y660D02*
D03*
Y760D02*
D03*
X4530Y1050D02*
D03*
Y950D02*
D03*
X4380Y1150D02*
D03*
Y1250D02*
D03*
X3750Y1710D02*
D03*
Y1810D02*
D03*
X3650Y1710D02*
D03*
Y1810D02*
D03*
X2650Y630D02*
D03*
Y730D02*
D03*
X4200Y2530D02*
D03*
Y2430D02*
D03*
Y2240D02*
D03*
Y2340D02*
D03*
X3870Y2010D02*
D03*
Y2110D02*
D03*
X4160Y2040D02*
D03*
Y2140D02*
D03*
X3870Y2260D02*
D03*
Y2360D02*
D03*
Y2560D02*
D03*
Y2460D02*
D03*
X3710Y2840D02*
D03*
Y2740D02*
D03*
X3810Y2840D02*
D03*
Y2740D02*
D03*
X3510Y2720D02*
D03*
Y2620D02*
D03*
X3610Y2720D02*
D03*
Y2620D02*
D03*
X3610Y2430D02*
D03*
Y2530D02*
D03*
X3510Y2430D02*
D03*
Y2530D02*
D03*
X2680Y2560D02*
D03*
Y2660D02*
D03*
X2200Y2450D02*
D03*
Y2550D02*
D03*
X2100D02*
D03*
Y2450D02*
D03*
X2330Y2190D02*
D03*
Y2290D02*
D03*
X2580Y2660D02*
D03*
Y2560D02*
D03*
X2480Y2660D02*
D03*
Y2560D02*
D03*
X1520Y2510D02*
D03*
Y2610D02*
D03*
X1500Y2210D02*
D03*
Y2310D02*
D03*
X1400Y2060D02*
D03*
Y2160D02*
D03*
X1500Y2060D02*
D03*
Y1960D02*
D03*
X2420Y1080D02*
D03*
Y980D02*
D03*
X2320Y1080D02*
D03*
Y980D02*
D03*
X2200Y1080D02*
D03*
Y980D02*
D03*
X2100Y1080D02*
D03*
Y980D02*
D03*
X2620Y1280D02*
D03*
Y1380D02*
D03*
X2240Y2010D02*
D03*
Y2110D02*
D03*
X2610Y2000D02*
D03*
Y2100D02*
D03*
X2510Y2000D02*
D03*
Y2100D02*
D03*
X2410Y2000D02*
D03*
Y2100D02*
D03*
D25*
X380Y440D02*
D03*
X280D02*
D03*
X1220Y4910D02*
D03*
X1320D02*
D03*
X1470D02*
D03*
X1570D02*
D03*
X1140Y3730D02*
D03*
X1040D02*
D03*
X1140Y3280D02*
D03*
X1040D02*
D03*
X1140Y3380D02*
D03*
X1040D02*
D03*
X1140Y3630D02*
D03*
X1040D02*
D03*
X1450Y3830D02*
D03*
X1350D02*
D03*
X1890Y3780D02*
D03*
X1790D02*
D03*
X2130D02*
D03*
X2230D02*
D03*
X2130Y3880D02*
D03*
X2230D02*
D03*
X2630Y3280D02*
D03*
X2730D02*
D03*
X4140Y3450D02*
D03*
X4040D02*
D03*
X4740Y3990D02*
D03*
X4840D02*
D03*
X4920Y4640D02*
D03*
X4820D02*
D03*
X3710Y3000D02*
D03*
X3810D02*
D03*
X3360Y2810D02*
D03*
X3260D02*
D03*
X4430Y1050D02*
D03*
X4330D02*
D03*
X3660Y2260D02*
D03*
X3760D02*
D03*
X3470D02*
D03*
X3570D02*
D03*
X2910Y2910D02*
D03*
X2810D02*
D03*
X3158Y2810D02*
D03*
X3058D02*
D03*
X3360Y2910D02*
D03*
X3460D02*
D03*
X3160D02*
D03*
X3260D02*
D03*
X2360Y2810D02*
D03*
X2460D02*
D03*
X2100D02*
D03*
X2200D02*
D03*
Y2660D02*
D03*
X2100D02*
D03*
X1620Y2800D02*
D03*
X1720D02*
D03*
X1520Y2700D02*
D03*
X1620D02*
D03*
X1520Y2800D02*
D03*
X1420D02*
D03*
X1550Y1860D02*
D03*
X1650D02*
D03*
X1420Y1390D02*
D03*
X1320D02*
D03*
X2510Y570D02*
D03*
X2410D02*
D03*
X2510Y670D02*
D03*
X2410D02*
D03*
X2510Y770D02*
D03*
X2410D02*
D03*
X2510Y870D02*
D03*
X2410D02*
D03*
X2520Y1180D02*
D03*
X2620D02*
D03*
X2810Y1330D02*
D03*
X2710D02*
D03*
Y1430D02*
D03*
X2810D02*
D03*
X2730Y1550D02*
D03*
X2830D02*
D03*
X2730Y1650D02*
D03*
X2830D02*
D03*
X2060Y1520D02*
D03*
X2160D02*
D03*
X2360D02*
D03*
X2260D02*
D03*
X2150Y2060D02*
D03*
X2050D02*
D03*
X2800Y2000D02*
D03*
X2700D02*
D03*
X2800Y1860D02*
D03*
X2700D02*
D03*
X3890Y1760D02*
D03*
X3990D02*
D03*
X3080Y2020D02*
D03*
X3180D02*
D03*
X2990D02*
D03*
X2890D02*
D03*
X1790Y2070D02*
D03*
X1890D02*
D03*
D26*
X430Y4800D02*
D03*
Y4620D02*
D03*
X570Y3670D02*
D03*
Y3850D02*
D03*
Y3500D02*
D03*
Y3320D02*
D03*
X2680Y3590D02*
D03*
Y3410D02*
D03*
X690Y740D02*
D03*
Y560D02*
D03*
D27*
X950Y4050D02*
D03*
Y4750D02*
D03*
X1840Y4050D02*
D03*
Y4750D02*
D03*
D28*
X3075Y4610D02*
D03*
X2775D02*
D03*
X2625D02*
D03*
X2925D02*
D03*
D29*
X2420Y4810D02*
D03*
X3280D02*
D03*
D30*
X2520Y4160D02*
D03*
X3160D02*
D03*
D31*
X920Y3157D02*
D03*
Y3380D02*
D03*
X1420Y3521D02*
D03*
Y3298D02*
D03*
X920Y3499D02*
D03*
Y3722D02*
D03*
D32*
X1341Y3160D02*
D03*
X1118D02*
D03*
X1601Y2930D02*
D03*
X1378D02*
D03*
D33*
X1267Y2800D02*
D03*
Y2750D02*
D03*
Y2700D02*
D03*
Y2650D02*
D03*
Y2600D02*
D03*
Y2550D02*
D03*
Y2450D02*
D03*
Y2400D02*
D03*
Y2350D02*
D03*
Y2300D02*
D03*
Y2250D02*
D03*
Y2200D02*
D03*
X1097Y2275D02*
D03*
Y2325D02*
D03*
Y2375D02*
D03*
Y2425D02*
D03*
Y2475D02*
D03*
Y2525D02*
D03*
Y2575D02*
D03*
Y2625D02*
D03*
Y2675D02*
D03*
Y2725D02*
D03*
D34*
Y2195D02*
D03*
Y2805D02*
D03*
D35*
X2355Y2952D02*
D03*
X1805D02*
D03*
Y3647D02*
D03*
X2355D02*
D03*
D36*
X2305Y2952D02*
D03*
X2255D02*
D03*
X2205D02*
D03*
X2155D02*
D03*
X2105D02*
D03*
X2055D02*
D03*
X2005D02*
D03*
X1955D02*
D03*
X1905D02*
D03*
X1855D02*
D03*
Y3647D02*
D03*
X1905D02*
D03*
X1955D02*
D03*
X2005D02*
D03*
X2055D02*
D03*
X2105D02*
D03*
X2155D02*
D03*
X2205D02*
D03*
X2255D02*
D03*
X2305D02*
D03*
D37*
X1733Y3025D02*
D03*
Y3575D02*
D03*
X2427D02*
D03*
Y3025D02*
D03*
D38*
X1733Y3075D02*
D03*
Y3125D02*
D03*
Y3175D02*
D03*
Y3225D02*
D03*
Y3275D02*
D03*
Y3325D02*
D03*
Y3375D02*
D03*
Y3425D02*
D03*
Y3475D02*
D03*
Y3525D02*
D03*
X2427D02*
D03*
Y3475D02*
D03*
Y3425D02*
D03*
Y3375D02*
D03*
Y3325D02*
D03*
Y3275D02*
D03*
Y3225D02*
D03*
Y3175D02*
D03*
Y3125D02*
D03*
Y3075D02*
D03*
D39*
X2080Y3300D02*
D03*
D40*
X2630Y3120D02*
D03*
X1330Y1890D02*
D03*
Y1590D02*
D03*
D41*
X2630Y2820D02*
D03*
D42*
X3060Y3110D02*
D03*
Y3750D02*
D03*
D43*
X3842Y3692D02*
D03*
Y3467D02*
D03*
X3417D02*
D03*
Y3692D02*
D03*
X3517Y3792D02*
D03*
Y3367D02*
D03*
X3742D02*
D03*
Y3792D02*
D03*
D44*
X3720Y3210D02*
D03*
X3540D02*
D03*
X870Y1880D02*
D03*
X1050D02*
D03*
X890Y1130D02*
D03*
X1070D02*
D03*
X890Y940D02*
D03*
X1070D02*
D03*
X890Y750D02*
D03*
X1070D02*
D03*
D45*
X4062Y4030D02*
D03*
X3858D02*
D03*
Y4810D02*
D03*
X4062D02*
D03*
D46*
X4175Y3590D02*
D03*
X4005D02*
D03*
Y3330D02*
D03*
X4175D02*
D03*
D47*
X4405Y3515D02*
D03*
Y3445D02*
D03*
Y3375D02*
D03*
Y3305D02*
D03*
Y3235D02*
D03*
Y3165D02*
D03*
Y3095D02*
D03*
Y3025D02*
D03*
Y2955D02*
D03*
Y2885D02*
D03*
Y2815D02*
D03*
Y2745D02*
D03*
Y2675D02*
D03*
Y2605D02*
D03*
Y2535D02*
D03*
Y2465D02*
D03*
Y2395D02*
D03*
Y2325D02*
D03*
Y2255D02*
D03*
Y2185D02*
D03*
Y2115D02*
D03*
Y2045D02*
D03*
Y1975D02*
D03*
Y1905D02*
D03*
Y1835D02*
D03*
Y1765D02*
D03*
Y1695D02*
D03*
Y1625D02*
D03*
Y1555D02*
D03*
Y1485D02*
D03*
D48*
X4750Y3745D02*
D03*
Y3875D02*
D03*
X4570Y3810D02*
D03*
D49*
X4568Y3990D02*
D03*
X4652D02*
D03*
D50*
X4790Y4100D02*
D03*
Y4460D02*
D03*
D51*
X4725Y4822D02*
D03*
X4660D02*
D03*
X4595D02*
D03*
X4725Y4638D02*
D03*
X4660D02*
D03*
X4595D02*
D03*
D52*
X3915Y3080D02*
D03*
Y2820D02*
D03*
X4010D02*
D03*
X4105D02*
D03*
Y3080D02*
D03*
D53*
X4330Y660D02*
D03*
X4330Y560D02*
D03*
D54*
X4583Y790D02*
D03*
Y430D02*
D03*
D55*
X4920Y895D02*
D03*
Y1305D02*
D03*
X4770Y895D02*
D03*
Y1305D02*
D03*
D56*
X4708Y1100D02*
D03*
D57*
X4140Y1725D02*
D03*
Y1895D02*
D03*
X4030Y2005D02*
D03*
Y2175D02*
D03*
X2500Y1605D02*
D03*
Y1435D02*
D03*
X1920Y1605D02*
D03*
Y1435D02*
D03*
D58*
X3736Y2035D02*
D03*
Y2085D02*
D03*
Y2135D02*
D03*
Y1985D02*
D03*
X3504Y2035D02*
D03*
Y2085D02*
D03*
Y2135D02*
D03*
Y1985D02*
D03*
D59*
X3620Y1969D02*
D03*
X3670D02*
D03*
X3570D02*
D03*
X3620Y2151D02*
D03*
X3670D02*
D03*
X3570D02*
D03*
D60*
X4078Y2627D02*
D03*
Y2373D02*
D03*
X3962Y2627D02*
D03*
Y2373D02*
D03*
D61*
X3342Y2260D02*
D03*
Y2310D02*
D03*
Y2360D02*
D03*
Y2410D02*
D03*
Y2460D02*
D03*
Y2510D02*
D03*
Y2560D02*
D03*
X2878D02*
D03*
Y2510D02*
D03*
Y2460D02*
D03*
Y2410D02*
D03*
Y2360D02*
D03*
Y2310D02*
D03*
Y2260D02*
D03*
D62*
X3260Y2642D02*
D03*
X3210D02*
D03*
X3160D02*
D03*
X3110D02*
D03*
X3060D02*
D03*
X3010D02*
D03*
X2960D02*
D03*
Y2178D02*
D03*
X3010D02*
D03*
X3060D02*
D03*
X3110D02*
D03*
X3160D02*
D03*
X3210D02*
D03*
X3260D02*
D03*
D63*
X3110Y2410D02*
D03*
D64*
X2480Y2450D02*
D03*
X2600D02*
D03*
X1470Y140D02*
D03*
X1300D02*
D03*
D65*
X2455Y2220D02*
D03*
X2545D02*
D03*
X2635D02*
D03*
X2725D02*
D03*
X2455Y2340D02*
D03*
X2545D02*
D03*
X2635D02*
D03*
X2725D02*
D03*
D66*
X1670Y1445D02*
D03*
Y1715D02*
D03*
D67*
X1500Y1230D02*
D03*
Y830D02*
D03*
D68*
X1830Y590D02*
D03*
X1920D02*
D03*
X2000D02*
D03*
X2080D02*
D03*
X1960Y670D02*
D03*
X2040D02*
D03*
X2130D02*
D03*
X2170Y590D02*
D03*
X1870Y670D02*
D03*
D69*
X695Y1615D02*
D03*
Y1565D02*
D03*
Y1515D02*
D03*
Y1465D02*
D03*
Y1415D02*
D03*
Y1365D02*
D03*
X1085D02*
D03*
Y1415D02*
D03*
Y1465D02*
D03*
Y1515D02*
D03*
Y1565D02*
D03*
Y1615D02*
D03*
D70*
X1015Y1685D02*
D03*
X965D02*
D03*
X915D02*
D03*
X865D02*
D03*
X815D02*
D03*
X765D02*
D03*
Y1295D02*
D03*
X815D02*
D03*
X865D02*
D03*
X915D02*
D03*
X965D02*
D03*
X1015D02*
D03*
D71*
X890Y1490D02*
D03*
D72*
X460Y720D02*
D03*
X160D02*
D03*
D73*
Y415D02*
D03*
Y545D02*
D03*
D74*
X950Y336D02*
D03*
X850D02*
D03*
X750D02*
D03*
X650D02*
D03*
D75*
X520Y84D02*
D03*
X1080D02*
D03*
D76*
X2070Y1230D02*
D03*
X2350D02*
D03*
Y1280D02*
D03*
X2070Y1380D02*
D03*
Y1330D02*
D03*
Y1280D02*
D03*
X2350Y1330D02*
D03*
Y1380D02*
D03*
D77*
X2160Y1190D02*
D03*
X2210D02*
D03*
X2260D02*
D03*
D78*
X2259Y1360D02*
D03*
X2161D02*
D03*
D79*
X2210D02*
D03*
D80*
X2955Y595D02*
D03*
Y1585D02*
D03*
X4145D02*
D03*
Y595D02*
D03*
D81*
X3353Y1090D02*
D03*
Y1288D02*
D03*
X3550D02*
D03*
X3747D02*
D03*
X3353Y893D02*
D03*
D82*
X3747Y1090D02*
D03*
Y893D02*
D03*
X3550D02*
D03*
Y1090D02*
D03*
D83*
X4030Y600D02*
D03*
X3950D02*
D03*
X3870D02*
D03*
X3790D02*
D03*
X3710D02*
D03*
X3630D02*
D03*
X3550D02*
D03*
X3470D02*
D03*
X3390D02*
D03*
X3310D02*
D03*
X3230D02*
D03*
X3150D02*
D03*
X3070D02*
D03*
Y1580D02*
D03*
X3150D02*
D03*
X3230D02*
D03*
X3310D02*
D03*
X3390D02*
D03*
X3470D02*
D03*
X3550D02*
D03*
X3630D02*
D03*
X3710D02*
D03*
X3790D02*
D03*
X3870D02*
D03*
X3950D02*
D03*
X4030D02*
D03*
D84*
X2960Y690D02*
D03*
Y770D02*
D03*
Y850D02*
D03*
Y930D02*
D03*
Y1010D02*
D03*
Y1090D02*
D03*
Y1170D02*
D03*
Y1250D02*
D03*
Y1330D02*
D03*
Y1410D02*
D03*
Y1490D02*
D03*
X4140D02*
D03*
Y1410D02*
D03*
Y1330D02*
D03*
Y1250D02*
D03*
Y1170D02*
D03*
Y1090D02*
D03*
Y1010D02*
D03*
Y930D02*
D03*
Y850D02*
D03*
Y770D02*
D03*
Y690D02*
D03*
D85*
X3265Y1900D02*
D03*
X3135D02*
D03*
X3025D02*
D03*
X2895D02*
D03*
X2960Y1720D02*
D03*
D86*
X3200D02*
D03*
D87*
X2075Y1780D02*
D03*
X2345D02*
D03*
D88*
X1650Y2460D02*
D03*
Y2420D02*
D03*
Y2380D02*
D03*
Y2340D02*
D03*
Y2300D02*
D03*
X1950D02*
D03*
Y2340D02*
D03*
Y2380D02*
D03*
Y2420D02*
D03*
Y2460D02*
D03*
D89*
X1720Y2230D02*
D03*
X1760D02*
D03*
X1800D02*
D03*
X1840D02*
D03*
X1880D02*
D03*
Y2530D02*
D03*
X1840D02*
D03*
X1800D02*
D03*
X1760D02*
D03*
X1720D02*
D03*
D90*
X1800Y2380D02*
D03*
D91*
X2750Y638D02*
D03*
Y722D02*
D03*
D92*
X1750Y110D02*
D03*
Y390D02*
D03*
X2350D02*
D03*
Y110D02*
D03*
D93*
X1900Y390D02*
D03*
X2000D02*
D03*
X2100D02*
D03*
X2200D02*
D03*
D94*
X1850Y110D02*
D03*
X1950D02*
D03*
X2050D02*
D03*
X2150D02*
D03*
X2250D02*
D03*
D95*
X170Y4120D02*
D03*
X170Y3920D02*
D03*
X170Y3720D02*
D03*
Y3520D02*
D03*
Y4320D02*
D03*
D96*
X1186Y2932D02*
D03*
Y2068D02*
D03*
D97*
X700Y2962D02*
D03*
D98*
X670Y2038D02*
D03*
D99*
X4805Y1700D02*
D03*
Y3300D02*
D03*
D100*
X4925Y1002D02*
D03*
Y1198D02*
D03*
D101*
X4870Y750D02*
D03*
D102*
X1406Y1010D02*
D03*
X1914Y908D02*
D03*
Y1112D02*
D03*
X4914Y4810D02*
D03*
X4406Y4912D02*
D03*
Y4708D02*
D03*
X4790Y3614D02*
D03*
X4688Y3106D02*
D03*
X4892D02*
D03*
X3254Y3840D02*
D03*
X2746Y3942D02*
D03*
Y3738D02*
D03*
M02*
