M48
;Layer_Color=9474304
;FILE_FORMAT=4:2
METRIC,LZ
;TYPE=PLATED
T2F00S00C0.25
;TYPE=NON_PLATED
%
T02
X00056Y0001
X00108Y00006
X00114
X001115Y000275
X00119Y00035
X00115Y00058
X0012Y00063
X00125Y00058
Y00068
X00115
X00066Y00057
X0005Y00075
X0001
X00043Y00108
X00063Y00111
Y00123
X00093Y00121
X00089Y00104
X00079
X00119Y00128
X00129
X00137Y00125
X00143Y00112
X00118Y00158
X00085Y00165
X00088Y00184
X00106Y00243
X00111
Y00257
X00106
X00046Y00332
X00035
X00023
Y00342
X00012
Y00332
X00035Y00344
X00046
X00171Y00335
X00152Y00279
Y00261
X001543Y002383
X00163Y00239
X00154Y00225
X00151Y00198
X0019Y00205
Y00211
X00189Y00231
X00224Y00233
X00223Y00209
X00233Y00208
X00239Y00175
X00217Y00175
X00216Y00154
X00199Y00151
X00183Y00158
X00177Y00166
Y00149
X00167Y00158
X002215Y001175
X00228Y00082
X00252Y00087
X00249Y00091
X00265Y00077
X00275
X00283Y00049
X00272Y00039
X0025Y0005
X00238Y00043
X002173Y000488
X002065Y00052
X00199Y00057
X00189
X00176Y00056
X00164
X00157Y00027
X00174
X00204Y00023
X00206Y00017
X00303Y00059
X00316Y00072
X00351Y0008
X0034Y00092
Y00097
X00334Y00097
X00299Y00101
X00273Y00111
X00275Y00161
X0029Y00178
X00275Y002
X00299Y00212
X00327Y00205
X0036Y00195
X00374Y0021
X00382Y00225
X00354Y00221
X0036Y00247
X00335Y00241
X00342Y00263
X00324Y00267
X00292Y0026
X00286Y00245
X00237Y00253
X00233Y00257
X00214Y00271
X00194Y00282
X00238Y0029
X00252Y00311
X00258
X00306Y00304
X00311
X00333Y00338
X00381Y00324
X00388Y00316
X00394Y00341
X00422Y00344
X00437Y003499
X004726Y00336
X00476Y002815
X00487Y00275
X00449Y00287
X00439Y00277
X00432Y0026
X00428Y00222
X00422
X00431Y00198
X00436Y00185
X00432Y00165
X00448Y00164
X00415Y00163
X00409Y00158
X00417Y00128
X00411Y00092
X00411Y00081
X0043Y00082
X00428Y00049
Y0003
X00454Y00048
X004804Y00075
X00468Y00093
X00486Y00167
X00464Y00235
X00421Y0031
X0037Y00298
X0038Y00274
X00346Y00174
X00317Y00167
X00383Y00117
Y00107
X00378Y00091
X00374Y00087
X00378Y00354
X00394Y00353
X00416Y00366
X00447Y00355
X00462Y00353
X00445Y00388
X00479Y00394
X00487Y00381
X00476Y00422
X00474Y00439
X00476Y0046
X00461Y00467
X00446Y00482
X00396Y00492
X00369Y00384
X00353
X00336
X00334Y00351
X00295Y00353
X00289Y00359
X00244Y00355
X00231
X00222Y00377
X0021Y0038
Y00386
Y00392
Y00398
Y00404
Y00415
Y00421
Y00427
Y00433
Y00439
Y00462
Y00468
Y00474
Y0048
Y00486
X00186
Y0048
Y00474
Y00468
Y00462
Y00456
Y00445
Y00439
Y00433
Y00427
Y00421
Y00415
Y00404
Y00398
Y00392
Y00386
Y0038
Y00374
X0021
X00252Y00384
X00263Y00399
X00238Y00411
X00282Y0043
X00283Y00464
X00088Y0047
Y00481
X00076
Y0047
X00063Y00476
X00056
X00049Y00467
X00045Y00458
X00033
Y00469
X00039Y00475
X00045Y00481
Y00443
X00033
X00039Y00436
X00033Y00428
Y00413
Y00398
X00029Y00392
X00045Y00393
X00039Y00385
X00033Y00379
X00029Y00372
X00037Y00369
X00035Y00356
X00029Y00352
X00046Y00356
X00049Y00364
X00056
X00063
X00076Y00369
Y00358
X00088
Y00369
Y00414
Y00425
X00076
Y00414
X00063Y0042
X00056
X00045
X00051Y00414
X00045Y00408
X00051Y00426
X00045Y00378
M30
