G04*
G04 #@! TF.GenerationSoftware,Altium Limited,Altium Designer,20.0.13 (296)*
G04*
G04 Layer_Color=65535*
%FSLAX42Y42*%
%MOMM*%
G71*
G01*
G75*
%ADD10C,0.20*%
%ADD11C,0.10*%
%ADD12C,0.15*%
%ADD13C,0.15*%
%ADD14C,0.13*%
G36*
X4980Y3100D02*
X4730Y3600D01*
X4550D01*
Y1400D01*
X4730D01*
X4980Y1900D01*
Y3100D01*
D02*
G37*
G36*
X13566Y1718D02*
X13567Y1718D01*
X13571Y1718D01*
X13575Y1717D01*
X13579Y1715D01*
X13584Y1713D01*
X13588Y1711D01*
X13588D01*
X13589Y1710D01*
X13590Y1709D01*
X13592Y1708D01*
X13595Y1705D01*
X13598Y1702D01*
X13600Y1699D01*
X13603Y1694D01*
X13605Y1689D01*
Y1689D01*
X13606Y1689D01*
X13606Y1688D01*
X13606Y1687D01*
X13607Y1686D01*
X13607Y1684D01*
X13608Y1680D01*
X13610Y1676D01*
X13610Y1671D01*
X13611Y1665D01*
X13611Y1659D01*
Y1659D01*
Y1658D01*
Y1657D01*
Y1656D01*
X13611Y1654D01*
Y1652D01*
X13611Y1648D01*
X13610Y1643D01*
X13609Y1638D01*
X13607Y1632D01*
X13605Y1627D01*
Y1626D01*
X13605Y1626D01*
X13604Y1625D01*
X13604Y1624D01*
X13602Y1622D01*
X13600Y1619D01*
X13598Y1615D01*
X13594Y1612D01*
X13591Y1608D01*
X13586Y1605D01*
X13586D01*
X13586Y1605D01*
X13585Y1604D01*
X13584Y1604D01*
X13582Y1603D01*
X13579Y1601D01*
X13575Y1600D01*
X13570Y1599D01*
X13566Y1598D01*
X13561Y1597D01*
X13559D01*
X13557Y1598D01*
X13555Y1598D01*
X13552Y1598D01*
X13549Y1599D01*
X13546Y1600D01*
X13543Y1601D01*
X13543Y1602D01*
X13542Y1602D01*
X13540Y1603D01*
X13538Y1604D01*
X13537Y1606D01*
X13534Y1608D01*
X13532Y1610D01*
X13530Y1612D01*
Y1556D01*
X13511D01*
Y1716D01*
X13529D01*
Y1701D01*
X13529Y1701D01*
X13530Y1702D01*
X13531Y1704D01*
X13533Y1706D01*
X13535Y1708D01*
X13537Y1710D01*
X13540Y1712D01*
X13543Y1714D01*
X13543Y1714D01*
X13544Y1715D01*
X13546Y1715D01*
X13548Y1716D01*
X13551Y1717D01*
X13554Y1718D01*
X13558Y1718D01*
X13562Y1719D01*
X13565D01*
X13566Y1718D01*
D02*
G37*
G36*
X14154D02*
X14157Y1718D01*
X14160Y1717D01*
X14163Y1716D01*
X14167Y1714D01*
X14171Y1712D01*
X14163Y1694D01*
X14163Y1694D01*
X14162Y1695D01*
X14161Y1696D01*
X14159Y1696D01*
X14157Y1697D01*
X14154Y1698D01*
X14152Y1698D01*
X14149Y1698D01*
X14148D01*
X14147Y1698D01*
X14145Y1698D01*
X14144Y1697D01*
X14142Y1697D01*
X14140Y1696D01*
X14138Y1694D01*
X14138Y1694D01*
X14137Y1694D01*
X14136Y1693D01*
X14135Y1692D01*
X14134Y1690D01*
X14133Y1688D01*
X14132Y1686D01*
X14131Y1684D01*
X14130Y1683D01*
X14130Y1682D01*
X14130Y1680D01*
X14129Y1677D01*
X14128Y1673D01*
X14128Y1669D01*
X14128Y1665D01*
X14127Y1661D01*
Y1600D01*
X14108D01*
Y1716D01*
X14126D01*
Y1699D01*
X14126Y1699D01*
X14127Y1700D01*
X14128Y1703D01*
X14130Y1705D01*
X14132Y1708D01*
X14134Y1710D01*
X14136Y1713D01*
X14138Y1715D01*
X14138Y1715D01*
X14139Y1715D01*
X14140Y1716D01*
X14142Y1717D01*
X14143Y1717D01*
X14146Y1718D01*
X14148Y1718D01*
X14151Y1719D01*
X14152D01*
X14154Y1718D01*
D02*
G37*
G36*
X13922Y1600D02*
X13903D01*
X13859Y1716D01*
X13880D01*
X13905Y1647D01*
Y1646D01*
X13905Y1646D01*
X13905Y1645D01*
X13906Y1645D01*
X13906Y1642D01*
X13907Y1639D01*
X13908Y1636D01*
X13910Y1632D01*
X13911Y1628D01*
X13912Y1623D01*
X13913Y1624D01*
X13913Y1625D01*
X13914Y1627D01*
X13914Y1629D01*
X13915Y1632D01*
X13917Y1636D01*
X13918Y1640D01*
X13920Y1645D01*
X13946Y1716D01*
X13966D01*
X13922Y1600D01*
D02*
G37*
G36*
X14408Y1598D02*
Y1598D01*
X14407Y1597D01*
X14407Y1596D01*
X14406Y1595D01*
X14406Y1594D01*
X14405Y1592D01*
X14403Y1588D01*
X14402Y1583D01*
X14400Y1579D01*
X14398Y1575D01*
X14397Y1573D01*
X14397Y1572D01*
X14396Y1571D01*
X14396Y1570D01*
X14394Y1569D01*
X14393Y1566D01*
X14391Y1564D01*
X14389Y1562D01*
X14387Y1560D01*
X14384Y1558D01*
X14384Y1557D01*
X14383Y1557D01*
X14382Y1556D01*
X14380Y1555D01*
X14378Y1554D01*
X14375Y1554D01*
X14372Y1553D01*
X14368Y1553D01*
X14367D01*
X14366Y1553D01*
X14365D01*
X14363Y1554D01*
X14361Y1554D01*
X14358Y1555D01*
X14356Y1556D01*
X14354Y1574D01*
X14354D01*
X14355Y1574D01*
X14356Y1573D01*
X14357Y1573D01*
X14361Y1572D01*
X14365Y1572D01*
X14366D01*
X14367Y1572D01*
X14369D01*
X14372Y1573D01*
X14374Y1574D01*
X14375Y1574D01*
X14375D01*
X14376Y1575D01*
X14377Y1575D01*
X14378Y1576D01*
X14380Y1578D01*
X14381Y1580D01*
Y1581D01*
X14382Y1581D01*
X14382Y1582D01*
X14383Y1583D01*
X14384Y1585D01*
X14385Y1588D01*
X14386Y1591D01*
X14387Y1595D01*
Y1595D01*
X14388Y1596D01*
X14388Y1598D01*
X14389Y1600D01*
X14345Y1716D01*
X14366D01*
X14390Y1649D01*
Y1649D01*
X14391Y1648D01*
X14391Y1648D01*
X14391Y1647D01*
X14392Y1645D01*
X14392Y1644D01*
X14393Y1641D01*
X14395Y1637D01*
X14396Y1632D01*
X14397Y1627D01*
X14399Y1622D01*
Y1622D01*
X14399Y1623D01*
X14399Y1623D01*
X14400Y1624D01*
X14400Y1625D01*
X14400Y1627D01*
X14401Y1630D01*
X14402Y1634D01*
X14404Y1639D01*
X14405Y1644D01*
X14407Y1648D01*
X14432Y1716D01*
X14452D01*
X14408Y1598D01*
D02*
G37*
G36*
X14286Y1718D02*
X14290Y1718D01*
X14294Y1718D01*
X14298Y1717D01*
X14302Y1716D01*
X14305Y1715D01*
X14306Y1715D01*
X14307Y1714D01*
X14309Y1714D01*
X14311Y1713D01*
X14313Y1711D01*
X14315Y1710D01*
X14317Y1708D01*
X14319Y1706D01*
X14319Y1706D01*
X14320Y1705D01*
X14321Y1704D01*
X14322Y1703D01*
X14323Y1701D01*
X14324Y1699D01*
X14325Y1696D01*
X14325Y1693D01*
Y1693D01*
X14325Y1692D01*
X14326Y1691D01*
X14326Y1689D01*
Y1686D01*
X14326Y1683D01*
X14326Y1679D01*
Y1675D01*
Y1649D01*
Y1648D01*
Y1647D01*
Y1646D01*
Y1644D01*
Y1642D01*
Y1640D01*
X14327Y1634D01*
Y1628D01*
X14327Y1622D01*
X14327Y1620D01*
Y1618D01*
X14327Y1616D01*
X14328Y1614D01*
Y1614D01*
X14328Y1613D01*
X14328Y1611D01*
X14329Y1609D01*
X14329Y1607D01*
X14330Y1605D01*
X14331Y1603D01*
X14332Y1600D01*
X14312D01*
X14312Y1600D01*
X14311Y1601D01*
X14311Y1602D01*
X14310Y1604D01*
X14310Y1606D01*
X14309Y1609D01*
X14309Y1612D01*
X14308Y1615D01*
X14308D01*
X14308Y1614D01*
X14306Y1613D01*
X14304Y1611D01*
X14301Y1609D01*
X14298Y1607D01*
X14294Y1605D01*
X14291Y1603D01*
X14287Y1601D01*
X14286Y1601D01*
X14285Y1601D01*
X14283Y1600D01*
X14280Y1599D01*
X14277Y1599D01*
X14273Y1598D01*
X14269Y1598D01*
X14265Y1597D01*
X14263D01*
X14262Y1598D01*
X14260D01*
X14258Y1598D01*
X14254Y1599D01*
X14250Y1600D01*
X14244Y1601D01*
X14240Y1604D01*
X14236Y1607D01*
X14235Y1607D01*
X14234Y1608D01*
X14232Y1610D01*
X14231Y1613D01*
X14229Y1617D01*
X14227Y1621D01*
X14226Y1625D01*
X14226Y1628D01*
X14226Y1631D01*
Y1631D01*
Y1632D01*
X14226Y1634D01*
X14226Y1636D01*
X14226Y1638D01*
X14227Y1641D01*
X14228Y1644D01*
X14229Y1646D01*
X14229Y1646D01*
X14230Y1647D01*
X14231Y1649D01*
X14232Y1650D01*
X14233Y1652D01*
X14235Y1654D01*
X14237Y1656D01*
X14239Y1657D01*
X14240Y1658D01*
X14241Y1658D01*
X14242Y1659D01*
X14244Y1660D01*
X14246Y1661D01*
X14248Y1662D01*
X14251Y1663D01*
X14254Y1664D01*
X14254D01*
X14255Y1664D01*
X14256Y1665D01*
X14258Y1665D01*
X14260Y1665D01*
X14263Y1666D01*
X14267Y1666D01*
X14271Y1667D01*
X14271D01*
X14272Y1667D01*
X14273D01*
X14275Y1667D01*
X14277Y1668D01*
X14279Y1668D01*
X14282Y1668D01*
X14285Y1669D01*
X14290Y1670D01*
X14296Y1671D01*
X14301Y1672D01*
X14304Y1673D01*
X14306Y1674D01*
Y1674D01*
Y1675D01*
X14306Y1676D01*
Y1678D01*
Y1678D01*
Y1679D01*
Y1679D01*
Y1679D01*
Y1681D01*
X14306Y1683D01*
X14306Y1686D01*
X14305Y1688D01*
X14304Y1691D01*
X14303Y1694D01*
X14301Y1696D01*
X14300Y1696D01*
X14299Y1697D01*
X14297Y1698D01*
X14295Y1699D01*
X14292Y1700D01*
X14288Y1702D01*
X14284Y1702D01*
X14278Y1703D01*
X14276D01*
X14274Y1702D01*
X14270Y1702D01*
X14267Y1701D01*
X14264Y1700D01*
X14260Y1699D01*
X14258Y1698D01*
X14257Y1697D01*
X14257Y1697D01*
X14255Y1696D01*
X14254Y1694D01*
X14253Y1691D01*
X14251Y1688D01*
X14250Y1685D01*
X14248Y1681D01*
X14229Y1683D01*
Y1683D01*
X14229Y1684D01*
Y1684D01*
X14229Y1685D01*
X14230Y1687D01*
X14231Y1690D01*
X14232Y1693D01*
X14234Y1696D01*
X14235Y1700D01*
X14238Y1703D01*
X14238Y1703D01*
X14239Y1704D01*
X14240Y1705D01*
X14242Y1707D01*
X14244Y1709D01*
X14247Y1711D01*
X14251Y1713D01*
X14255Y1715D01*
X14255D01*
X14255Y1715D01*
X14256Y1715D01*
X14257Y1715D01*
X14259Y1716D01*
X14263Y1717D01*
X14266Y1717D01*
X14271Y1718D01*
X14276Y1718D01*
X14281Y1719D01*
X14284D01*
X14286Y1718D01*
D02*
G37*
G36*
X14202Y1600D02*
X14182D01*
Y1760D01*
X14202D01*
Y1600D01*
D02*
G37*
G36*
X13367Y1741D02*
X13314D01*
Y1600D01*
X13293D01*
Y1741D01*
X13240D01*
Y1760D01*
X13367D01*
Y1741D01*
D02*
G37*
G36*
X14035Y1718D02*
X14037Y1718D01*
X14039Y1718D01*
X14042Y1717D01*
X14045Y1717D01*
X14047Y1716D01*
X14051Y1715D01*
X14054Y1714D01*
X14057Y1712D01*
X14060Y1710D01*
X14063Y1708D01*
X14066Y1706D01*
X14069Y1703D01*
X14069Y1703D01*
X14070Y1702D01*
X14070Y1701D01*
X14071Y1700D01*
X14073Y1698D01*
X14074Y1696D01*
X14075Y1694D01*
X14076Y1691D01*
X14078Y1688D01*
X14079Y1685D01*
X14080Y1681D01*
X14082Y1677D01*
X14083Y1673D01*
X14083Y1668D01*
X14084Y1663D01*
X14084Y1658D01*
Y1658D01*
Y1657D01*
Y1655D01*
X14084Y1653D01*
X13997D01*
Y1653D01*
Y1652D01*
X13997Y1651D01*
Y1650D01*
X13997Y1648D01*
X13998Y1646D01*
X13999Y1642D01*
X14000Y1637D01*
X14002Y1632D01*
X14004Y1628D01*
X14008Y1624D01*
X14008D01*
X14008Y1623D01*
X14009Y1622D01*
X14011Y1620D01*
X14014Y1619D01*
X14018Y1617D01*
X14022Y1615D01*
X14027Y1614D01*
X14029Y1614D01*
X14032Y1614D01*
X14034D01*
X14036Y1614D01*
X14039Y1614D01*
X14041Y1615D01*
X14045Y1616D01*
X14048Y1617D01*
X14051Y1619D01*
X14051Y1619D01*
X14052Y1620D01*
X14053Y1622D01*
X14055Y1624D01*
X14057Y1626D01*
X14059Y1629D01*
X14061Y1633D01*
X14063Y1637D01*
X14083Y1635D01*
Y1635D01*
X14083Y1634D01*
X14083Y1633D01*
X14082Y1632D01*
X14082Y1631D01*
X14081Y1629D01*
X14079Y1625D01*
X14077Y1620D01*
X14073Y1616D01*
X14070Y1611D01*
X14065Y1607D01*
X14065D01*
X14064Y1607D01*
X14064Y1606D01*
X14063Y1606D01*
X14061Y1605D01*
X14060Y1604D01*
X14058Y1603D01*
X14056Y1602D01*
X14054Y1601D01*
X14051Y1600D01*
X14046Y1599D01*
X14039Y1598D01*
X14032Y1597D01*
X14030D01*
X14028Y1598D01*
X14026Y1598D01*
X14023Y1598D01*
X14020Y1599D01*
X14017Y1599D01*
X14011Y1601D01*
X14008Y1603D01*
X14004Y1604D01*
X14001Y1606D01*
X13998Y1608D01*
X13995Y1610D01*
X13992Y1613D01*
X13991Y1613D01*
X13991Y1614D01*
X13990Y1615D01*
X13989Y1616D01*
X13988Y1618D01*
X13987Y1619D01*
X13986Y1622D01*
X13984Y1624D01*
X13983Y1627D01*
X13981Y1631D01*
X13980Y1634D01*
X13979Y1638D01*
X13978Y1642D01*
X13977Y1647D01*
X13977Y1652D01*
X13977Y1657D01*
Y1657D01*
Y1658D01*
Y1660D01*
X13977Y1662D01*
X13977Y1664D01*
X13977Y1667D01*
X13978Y1670D01*
X13979Y1674D01*
X13980Y1681D01*
X13982Y1685D01*
X13983Y1689D01*
X13985Y1692D01*
X13987Y1696D01*
X13989Y1699D01*
X13992Y1703D01*
X13992Y1703D01*
X13992Y1703D01*
X13993Y1704D01*
X13995Y1705D01*
X13996Y1706D01*
X13998Y1708D01*
X14000Y1709D01*
X14002Y1711D01*
X14005Y1712D01*
X14008Y1714D01*
X14011Y1715D01*
X14015Y1716D01*
X14018Y1717D01*
X14022Y1718D01*
X14027Y1718D01*
X14031Y1719D01*
X14033D01*
X14035Y1718D01*
D02*
G37*
G36*
X13437D02*
X13439Y1718D01*
X13442Y1718D01*
X13444Y1717D01*
X13447Y1717D01*
X13453Y1715D01*
X13457Y1714D01*
X13460Y1712D01*
X13463Y1710D01*
X13466Y1708D01*
X13469Y1706D01*
X13472Y1703D01*
X13473Y1703D01*
X13473Y1702D01*
X13474Y1701D01*
X13475Y1700D01*
X13476Y1699D01*
X13477Y1696D01*
X13479Y1694D01*
X13480Y1692D01*
X13481Y1689D01*
X13483Y1685D01*
X13484Y1682D01*
X13485Y1678D01*
X13486Y1674D01*
X13487Y1669D01*
X13487Y1665D01*
X13488Y1660D01*
Y1659D01*
Y1659D01*
Y1658D01*
Y1656D01*
X13487Y1654D01*
X13487Y1652D01*
Y1650D01*
X13487Y1647D01*
X13486Y1641D01*
X13485Y1635D01*
X13483Y1630D01*
X13481Y1624D01*
Y1624D01*
X13480Y1624D01*
X13480Y1623D01*
X13479Y1622D01*
X13478Y1620D01*
X13476Y1617D01*
X13473Y1614D01*
X13470Y1611D01*
X13466Y1607D01*
X13461Y1604D01*
X13461D01*
X13461Y1604D01*
X13460Y1604D01*
X13459Y1603D01*
X13458Y1603D01*
X13456Y1602D01*
X13453Y1601D01*
X13449Y1600D01*
X13444Y1599D01*
X13439Y1598D01*
X13433Y1597D01*
X13431D01*
X13429Y1598D01*
X13427Y1598D01*
X13425Y1598D01*
X13422Y1599D01*
X13419Y1599D01*
X13413Y1601D01*
X13409Y1603D01*
X13406Y1604D01*
X13403Y1606D01*
X13400Y1608D01*
X13397Y1610D01*
X13394Y1613D01*
X13393Y1613D01*
X13393Y1614D01*
X13392Y1615D01*
X13391Y1616D01*
X13390Y1618D01*
X13389Y1619D01*
X13388Y1622D01*
X13386Y1625D01*
X13385Y1628D01*
X13383Y1631D01*
X13382Y1635D01*
X13381Y1639D01*
X13380Y1643D01*
X13380Y1648D01*
X13379Y1653D01*
X13379Y1658D01*
Y1659D01*
Y1659D01*
X13379Y1661D01*
Y1663D01*
X13379Y1666D01*
X13380Y1669D01*
X13380Y1672D01*
X13381Y1676D01*
X13382Y1680D01*
X13383Y1684D01*
X13385Y1688D01*
X13386Y1692D01*
X13388Y1696D01*
X13391Y1699D01*
X13393Y1703D01*
X13397Y1706D01*
X13397Y1706D01*
X13397Y1706D01*
X13398Y1707D01*
X13399Y1708D01*
X13401Y1709D01*
X13403Y1710D01*
X13405Y1711D01*
X13407Y1712D01*
X13409Y1713D01*
X13412Y1715D01*
X13418Y1717D01*
X13426Y1718D01*
X13429Y1718D01*
X13433Y1719D01*
X13436D01*
X13437Y1718D01*
D02*
G37*
G36*
X13774Y1763D02*
X13776D01*
X13778Y1762D01*
X13781Y1762D01*
X13784Y1762D01*
X13790Y1760D01*
X13797Y1759D01*
X13803Y1756D01*
X13807Y1754D01*
X13810Y1752D01*
X13810Y1752D01*
X13811Y1752D01*
X13812Y1751D01*
X13813Y1750D01*
X13815Y1749D01*
X13816Y1748D01*
X13820Y1745D01*
X13825Y1740D01*
X13829Y1735D01*
X13834Y1729D01*
X13837Y1723D01*
Y1722D01*
X13838Y1722D01*
X13838Y1721D01*
X13839Y1719D01*
X13840Y1718D01*
X13840Y1715D01*
X13841Y1713D01*
X13842Y1710D01*
X13843Y1707D01*
X13844Y1704D01*
X13845Y1700D01*
X13845Y1696D01*
X13846Y1688D01*
X13847Y1680D01*
Y1679D01*
Y1678D01*
Y1677D01*
X13846Y1675D01*
Y1673D01*
X13846Y1671D01*
X13846Y1668D01*
X13846Y1665D01*
X13844Y1658D01*
X13843Y1651D01*
X13840Y1644D01*
X13839Y1640D01*
X13837Y1636D01*
Y1636D01*
X13836Y1635D01*
X13836Y1634D01*
X13835Y1633D01*
X13834Y1631D01*
X13833Y1630D01*
X13830Y1625D01*
X13826Y1621D01*
X13821Y1616D01*
X13815Y1611D01*
X13809Y1607D01*
X13809D01*
X13808Y1606D01*
X13807Y1606D01*
X13806Y1605D01*
X13804Y1605D01*
X13802Y1604D01*
X13800Y1603D01*
X13797Y1602D01*
X13795Y1601D01*
X13792Y1600D01*
X13785Y1599D01*
X13778Y1598D01*
X13770Y1597D01*
X13768D01*
X13766Y1597D01*
X13764D01*
X13762Y1598D01*
X13759Y1598D01*
X13756Y1599D01*
X13750Y1600D01*
X13744Y1602D01*
X13737Y1605D01*
X13733Y1606D01*
X13730Y1608D01*
X13729Y1608D01*
X13729Y1609D01*
X13728Y1609D01*
X13727Y1610D01*
X13725Y1611D01*
X13724Y1612D01*
X13720Y1616D01*
X13715Y1620D01*
X13711Y1625D01*
X13706Y1631D01*
X13703Y1638D01*
Y1638D01*
X13702Y1639D01*
X13702Y1640D01*
X13701Y1641D01*
X13700Y1643D01*
X13700Y1645D01*
X13699Y1647D01*
X13698Y1650D01*
X13697Y1653D01*
X13696Y1656D01*
X13695Y1663D01*
X13694Y1670D01*
X13694Y1678D01*
Y1678D01*
Y1678D01*
Y1680D01*
X13694Y1682D01*
Y1684D01*
X13694Y1688D01*
X13695Y1692D01*
X13695Y1696D01*
X13696Y1701D01*
X13697Y1706D01*
X13699Y1711D01*
X13700Y1716D01*
X13703Y1721D01*
X13705Y1726D01*
X13708Y1731D01*
X13711Y1736D01*
X13715Y1740D01*
X13715Y1740D01*
X13716Y1741D01*
X13717Y1742D01*
X13719Y1744D01*
X13721Y1746D01*
X13723Y1747D01*
X13726Y1749D01*
X13730Y1752D01*
X13734Y1754D01*
X13738Y1756D01*
X13742Y1758D01*
X13747Y1759D01*
X13753Y1761D01*
X13758Y1762D01*
X13764Y1763D01*
X13770Y1763D01*
X13772D01*
X13774Y1763D01*
D02*
G37*
%LPC*%
G36*
X13560Y1703D02*
X13559D01*
X13558Y1703D01*
X13556Y1703D01*
X13553Y1702D01*
X13549Y1700D01*
X13546Y1698D01*
X13544Y1697D01*
X13542Y1695D01*
X13540Y1693D01*
X13538Y1691D01*
Y1691D01*
X13538Y1691D01*
X13537Y1690D01*
X13537Y1689D01*
X13536Y1688D01*
X13535Y1687D01*
X13534Y1685D01*
X13533Y1683D01*
X13532Y1681D01*
X13532Y1678D01*
X13531Y1675D01*
X13530Y1672D01*
X13529Y1669D01*
X13529Y1665D01*
X13529Y1662D01*
Y1657D01*
Y1657D01*
Y1656D01*
Y1655D01*
X13529Y1654D01*
Y1652D01*
X13529Y1650D01*
X13530Y1645D01*
X13531Y1639D01*
X13532Y1634D01*
X13535Y1629D01*
X13536Y1626D01*
X13538Y1624D01*
X13538Y1624D01*
X13539Y1623D01*
X13541Y1621D01*
X13544Y1619D01*
X13547Y1617D01*
X13551Y1615D01*
X13555Y1614D01*
X13557Y1614D01*
X13559Y1614D01*
X13561D01*
X13562Y1614D01*
X13564Y1614D01*
X13567Y1615D01*
X13571Y1616D01*
X13574Y1618D01*
X13578Y1621D01*
X13580Y1623D01*
X13582Y1625D01*
Y1625D01*
X13582Y1625D01*
X13583Y1626D01*
X13583Y1627D01*
X13584Y1628D01*
X13585Y1629D01*
X13586Y1631D01*
X13587Y1633D01*
X13587Y1635D01*
X13588Y1638D01*
X13589Y1641D01*
X13590Y1644D01*
X13590Y1647D01*
X13591Y1651D01*
X13591Y1655D01*
Y1659D01*
Y1659D01*
Y1660D01*
Y1661D01*
X13591Y1663D01*
Y1665D01*
X13591Y1667D01*
X13590Y1672D01*
X13589Y1677D01*
X13587Y1682D01*
X13585Y1687D01*
X13584Y1690D01*
X13582Y1692D01*
Y1692D01*
X13582Y1693D01*
X13580Y1694D01*
X13579Y1696D01*
X13576Y1698D01*
X13573Y1700D01*
X13569Y1702D01*
X13565Y1703D01*
X13563Y1703D01*
X13560Y1703D01*
D02*
G37*
G36*
X14306Y1658D02*
X14306D01*
X14306Y1658D01*
X14305Y1658D01*
X14304Y1658D01*
X14303Y1657D01*
X14302Y1657D01*
X14300Y1656D01*
X14298Y1656D01*
X14296Y1655D01*
X14294Y1655D01*
X14291Y1654D01*
X14288Y1653D01*
X14285Y1653D01*
X14282Y1652D01*
X14278Y1651D01*
X14274Y1651D01*
X14274D01*
X14272Y1650D01*
X14270Y1650D01*
X14267Y1650D01*
X14265Y1649D01*
X14262Y1648D01*
X14259Y1648D01*
X14257Y1647D01*
X14257D01*
X14256Y1646D01*
X14255Y1646D01*
X14254Y1645D01*
X14251Y1643D01*
X14249Y1640D01*
Y1640D01*
X14249Y1640D01*
X14248Y1639D01*
X14248Y1638D01*
X14247Y1636D01*
X14247Y1635D01*
X14247Y1633D01*
X14247Y1631D01*
Y1631D01*
Y1630D01*
X14247Y1628D01*
X14247Y1627D01*
X14248Y1625D01*
X14249Y1622D01*
X14250Y1620D01*
X14252Y1618D01*
X14253Y1618D01*
X14254Y1617D01*
X14255Y1616D01*
X14257Y1616D01*
X14259Y1615D01*
X14262Y1614D01*
X14266Y1613D01*
X14270Y1613D01*
X14272D01*
X14274Y1613D01*
X14277Y1614D01*
X14280Y1614D01*
X14283Y1615D01*
X14287Y1616D01*
X14290Y1618D01*
X14291Y1618D01*
X14291Y1619D01*
X14293Y1620D01*
X14295Y1622D01*
X14297Y1623D01*
X14299Y1626D01*
X14301Y1628D01*
X14303Y1631D01*
X14303Y1632D01*
X14303Y1633D01*
X14304Y1634D01*
X14305Y1636D01*
X14305Y1639D01*
X14306Y1642D01*
X14306Y1646D01*
X14306Y1651D01*
X14306Y1658D01*
D02*
G37*
G36*
X14031Y1703D02*
X14030D01*
X14029Y1702D01*
X14026Y1702D01*
X14023Y1701D01*
X14020Y1700D01*
X14016Y1699D01*
X14012Y1696D01*
X14008Y1693D01*
X14008Y1693D01*
X14007Y1692D01*
X14005Y1690D01*
X14004Y1687D01*
X14002Y1684D01*
X14000Y1679D01*
X13999Y1675D01*
X13998Y1669D01*
X14063D01*
Y1669D01*
Y1670D01*
X14063Y1671D01*
Y1672D01*
X14062Y1674D01*
X14062Y1677D01*
X14061Y1681D01*
X14059Y1684D01*
X14058Y1688D01*
X14055Y1691D01*
Y1691D01*
X14055Y1691D01*
X14054Y1693D01*
X14052Y1695D01*
X14049Y1697D01*
X14045Y1699D01*
X14041Y1701D01*
X14036Y1702D01*
X14034Y1702D01*
X14031Y1703D01*
D02*
G37*
G36*
X13433D02*
X13432D01*
X13431Y1702D01*
X13428Y1702D01*
X13425Y1701D01*
X13421Y1700D01*
X13417Y1698D01*
X13413Y1695D01*
X13411Y1693D01*
X13409Y1691D01*
Y1691D01*
X13408Y1691D01*
X13408Y1690D01*
X13407Y1689D01*
X13406Y1688D01*
X13406Y1687D01*
X13405Y1685D01*
X13404Y1683D01*
X13403Y1681D01*
X13402Y1678D01*
X13401Y1676D01*
X13401Y1673D01*
X13400Y1669D01*
X13399Y1666D01*
X13399Y1662D01*
X13399Y1658D01*
Y1658D01*
Y1657D01*
Y1656D01*
X13399Y1654D01*
Y1653D01*
X13399Y1650D01*
X13400Y1646D01*
X13401Y1640D01*
X13403Y1634D01*
X13405Y1629D01*
X13407Y1627D01*
X13409Y1625D01*
X13409D01*
X13409Y1624D01*
X13411Y1623D01*
X13413Y1621D01*
X13415Y1619D01*
X13419Y1617D01*
X13423Y1615D01*
X13428Y1614D01*
X13430Y1614D01*
X13433Y1614D01*
X13435D01*
X13436Y1614D01*
X13438Y1614D01*
X13442Y1615D01*
X13445Y1616D01*
X13450Y1618D01*
X13454Y1621D01*
X13456Y1623D01*
X13458Y1625D01*
X13458Y1625D01*
X13458Y1625D01*
X13458Y1626D01*
X13459Y1627D01*
X13460Y1628D01*
X13461Y1629D01*
X13462Y1631D01*
X13463Y1633D01*
X13464Y1635D01*
X13464Y1638D01*
X13465Y1641D01*
X13466Y1644D01*
X13467Y1647D01*
X13467Y1651D01*
X13467Y1655D01*
Y1659D01*
Y1659D01*
Y1660D01*
Y1661D01*
X13467Y1662D01*
Y1664D01*
X13467Y1666D01*
X13466Y1671D01*
X13465Y1676D01*
X13463Y1682D01*
X13461Y1687D01*
X13459Y1689D01*
X13458Y1691D01*
Y1692D01*
X13457Y1692D01*
X13456Y1693D01*
X13454Y1695D01*
X13451Y1697D01*
X13447Y1699D01*
X13443Y1701D01*
X13439Y1702D01*
X13436Y1702D01*
X13433Y1703D01*
D02*
G37*
G36*
X13770Y1745D02*
X13768D01*
X13766Y1744D01*
X13764Y1744D01*
X13762Y1744D01*
X13760Y1743D01*
X13757Y1743D01*
X13751Y1741D01*
X13748Y1740D01*
X13744Y1738D01*
X13741Y1736D01*
X13738Y1734D01*
X13734Y1732D01*
X13731Y1729D01*
X13731Y1729D01*
X13731Y1728D01*
X13730Y1727D01*
X13729Y1726D01*
X13728Y1724D01*
X13726Y1722D01*
X13725Y1720D01*
X13723Y1717D01*
X13722Y1714D01*
X13720Y1710D01*
X13719Y1706D01*
X13718Y1701D01*
X13717Y1696D01*
X13716Y1690D01*
X13716Y1684D01*
X13715Y1678D01*
Y1677D01*
Y1676D01*
Y1675D01*
X13716Y1673D01*
X13716Y1670D01*
X13716Y1668D01*
X13717Y1664D01*
X13717Y1661D01*
X13719Y1654D01*
X13720Y1650D01*
X13722Y1646D01*
X13724Y1642D01*
X13726Y1639D01*
X13728Y1635D01*
X13731Y1632D01*
X13731Y1632D01*
X13731Y1631D01*
X13732Y1630D01*
X13734Y1629D01*
X13735Y1628D01*
X13737Y1627D01*
X13739Y1625D01*
X13741Y1624D01*
X13744Y1622D01*
X13747Y1621D01*
X13750Y1619D01*
X13754Y1618D01*
X13758Y1617D01*
X13761Y1616D01*
X13765Y1616D01*
X13770Y1615D01*
X13771D01*
X13772Y1616D01*
X13774D01*
X13776Y1616D01*
X13778Y1616D01*
X13781Y1617D01*
X13784Y1617D01*
X13787Y1618D01*
X13790Y1619D01*
X13793Y1621D01*
X13797Y1622D01*
X13800Y1624D01*
X13803Y1626D01*
X13806Y1629D01*
X13809Y1632D01*
X13810Y1632D01*
X13810Y1633D01*
X13811Y1634D01*
X13812Y1635D01*
X13813Y1637D01*
X13814Y1639D01*
X13816Y1641D01*
X13817Y1644D01*
X13819Y1647D01*
X13820Y1651D01*
X13821Y1655D01*
X13823Y1659D01*
X13824Y1664D01*
X13824Y1669D01*
X13825Y1674D01*
X13825Y1680D01*
Y1680D01*
Y1681D01*
Y1682D01*
Y1683D01*
X13825Y1685D01*
Y1687D01*
X13825Y1689D01*
X13824Y1691D01*
X13823Y1697D01*
X13822Y1702D01*
X13821Y1708D01*
X13818Y1714D01*
Y1714D01*
X13818Y1715D01*
X13818Y1715D01*
X13817Y1716D01*
X13815Y1719D01*
X13813Y1722D01*
X13811Y1726D01*
X13807Y1730D01*
X13803Y1733D01*
X13799Y1737D01*
X13799D01*
X13798Y1737D01*
X13798Y1737D01*
X13797Y1738D01*
X13795Y1738D01*
X13794Y1739D01*
X13790Y1741D01*
X13786Y1742D01*
X13781Y1743D01*
X13776Y1744D01*
X13770Y1745D01*
D02*
G37*
%LPD*%
D10*
X233Y156D02*
G03*
X233Y156I-5J0D01*
G01*
X120Y3280D02*
G03*
X120Y3280I-10J0D01*
G01*
X2560Y4460D02*
G03*
X2560Y4460I-10J0D01*
G01*
X841Y3129D02*
G03*
X841Y3129I-10J0D01*
G01*
X1380Y3071D02*
G03*
X1380Y3071I-10J0D01*
G01*
X1680Y2890D02*
G03*
X1680Y2890I-10J0D01*
G01*
X1360Y3550D02*
G03*
X1360Y3550I-10J0D01*
G01*
X841Y3470D02*
G03*
X841Y3470I-10J0D01*
G01*
X2504Y2736D02*
G03*
X2759Y2736I126J472D01*
G01*
Y3204D02*
G03*
X2504Y3204I-129J-471D01*
G01*
X4545Y4630D02*
G03*
X4545Y4630I-10J0D01*
G01*
X4310Y730D02*
G03*
X4310Y730I-10J0D01*
G01*
X1201Y1506D02*
G03*
X1456Y1506I129J471D01*
G01*
Y1974D02*
G03*
X1201Y1974I-126J-472D01*
G01*
X1790Y550D02*
G03*
X1790Y550I-5J0D01*
G01*
X1080Y1740D02*
G03*
X1080Y1740I-10J0D01*
G01*
X962Y465D02*
G03*
X962Y465I-10J0D01*
G01*
X2400Y1440D02*
G03*
X2400Y1440I-10J0D01*
G01*
X4220Y590D02*
G03*
X4220Y590I-10J0D01*
G01*
X1607Y2507D02*
G03*
X1607Y2507I-10J0D01*
G01*
X2073Y2166D02*
G03*
X2073Y2166I-5J0D01*
G01*
X530Y4160D02*
Y4820D01*
X820D01*
X710Y3980D02*
X820D01*
X530Y4160D02*
X710Y3980D01*
X1190D02*
X1370Y4160D01*
X1080Y3980D02*
X1190D01*
X1080Y4820D02*
X1370D01*
Y4160D02*
Y4820D01*
X1420Y4160D02*
Y4820D01*
X1710D01*
X1600Y3980D02*
X1710D01*
X1420Y4160D02*
X1600Y3980D01*
X2080D02*
X2260Y4160D01*
X1970Y3980D02*
X2080D01*
X1970Y4820D02*
X2260D01*
Y4160D02*
Y4820D01*
X1700Y3630D02*
Y3680D01*
X1750D01*
X1700Y2920D02*
Y2970D01*
Y2920D02*
X1750D01*
X2400D02*
X2460Y2980D01*
X2410Y3680D02*
X2460D01*
Y3630D02*
Y3680D01*
X2760Y2736D02*
Y3204D01*
X2503Y2736D02*
Y3204D01*
X4770Y4710D02*
Y4750D01*
X4550Y4710D02*
Y4750D01*
X1457Y1506D02*
Y1974D01*
X1200Y1506D02*
Y1974D01*
X3290Y3790D02*
Y3807D01*
X3307D01*
Y3790D01*
X3290D01*
D11*
X336Y4546D02*
G03*
X524Y4546I94J316D01*
G01*
Y4874D02*
G03*
X336Y4874I-94J-316D01*
G01*
X664Y3924D02*
G03*
X476Y3924I-94J-316D01*
G01*
Y3596D02*
G03*
X664Y3596I94J316D01*
G01*
X476Y3246D02*
G03*
X664Y3246I94J316D01*
G01*
Y3574D02*
G03*
X476Y3574I-94J-316D01*
G01*
X1590Y3190D02*
G03*
X1490Y3190I-50J-122D01*
G01*
X1490Y3010D02*
G03*
X1590Y3010I50J122D01*
G01*
X1590Y3390D02*
G03*
X1490Y3390I-50J-122D01*
G01*
X1490Y3210D02*
G03*
X1590Y3210I50J122D01*
G01*
X1590Y3590D02*
G03*
X1490Y3590I-50J-122D01*
G01*
X1490Y3410D02*
G03*
X1590Y3410I50J122D01*
G01*
X1750Y3830D02*
G03*
X1750Y3730I122J-50D01*
G01*
X1930Y3730D02*
G03*
X1930Y3830I-122J50D01*
G01*
X2270Y3730D02*
G03*
X2270Y3830I-122J50D01*
G01*
X2090Y3830D02*
G03*
X2090Y3730I122J-50D01*
G01*
X2570Y3900D02*
G03*
X2470Y3900I-50J-122D01*
G01*
X2470Y3720D02*
G03*
X2570Y3720I50J122D01*
G01*
X2586Y3336D02*
G03*
X2774Y3336I94J316D01*
G01*
Y3664D02*
G03*
X2586Y3664I-94J-316D01*
G01*
X2770Y3230D02*
G03*
X2770Y3330I-122J50D01*
G01*
X2590Y3330D02*
G03*
X2590Y3230I122J-50D01*
G01*
X3466Y3304D02*
G03*
X3466Y3116I316J-94D01*
G01*
X3794D02*
G03*
X3794Y3304I-316J94D01*
G01*
X4232Y3515D02*
G03*
X4232Y3665I-276J75D01*
G01*
X3948D02*
G03*
X3948Y3515I276J-75D01*
G01*
X4000Y3500D02*
G03*
X4000Y3400I122J-50D01*
G01*
X4180Y3400D02*
G03*
X4180Y3500I-122J50D01*
G01*
X4880Y3940D02*
G03*
X4880Y4040I-122J50D01*
G01*
X4700Y4040D02*
G03*
X4700Y3940I122J-50D01*
G01*
X4666Y3952D02*
G03*
X4666Y3952I-5J0D01*
G01*
X4780Y4690D02*
G03*
X4780Y4590I122J-50D01*
G01*
X4960Y4590D02*
G03*
X4960Y4690I-122J50D01*
G01*
X3948Y3405D02*
G03*
X3948Y3255I276J-75D01*
G01*
X4232D02*
G03*
X4232Y3405I-276J75D01*
G01*
X3850Y2950D02*
G03*
X3850Y3050I-122J50D01*
G01*
X3670Y3050D02*
G03*
X3670Y2950I122J-50D01*
G01*
X3220Y2860D02*
G03*
X3220Y2760I122J-50D01*
G01*
X3400Y2760D02*
G03*
X3400Y2860I-122J50D01*
G01*
X4480Y910D02*
G03*
X4580Y910I50J122D01*
G01*
X4580Y1090D02*
G03*
X4480Y1090I-50J-122D01*
G01*
X4290Y1100D02*
G03*
X4290Y1000I122J-50D01*
G01*
X4470Y1000D02*
G03*
X4470Y1100I-122J50D01*
G01*
X4065Y1668D02*
G03*
X4215Y1668I75J276D01*
G01*
Y1952D02*
G03*
X4065Y1952I-75J-276D01*
G01*
X2700Y770D02*
G03*
X2600Y770I-50J-122D01*
G01*
X2600Y590D02*
G03*
X2700Y590I50J122D01*
G01*
X3955Y1948D02*
G03*
X4105Y1948I75J276D01*
G01*
Y2232D02*
G03*
X3955Y2232I-75J-276D01*
G01*
X4210Y2180D02*
G03*
X4110Y2180I-50J-122D01*
G01*
X4110Y2000D02*
G03*
X4210Y2000I50J122D01*
G01*
X3800Y2210D02*
G03*
X3800Y2310I-122J50D01*
G01*
X3620Y2310D02*
G03*
X3620Y2210I122J-50D01*
G01*
X3820Y2420D02*
G03*
X3920Y2420I50J122D01*
G01*
X3920Y2600D02*
G03*
X3820Y2600I-50J-122D01*
G01*
X3610Y2210D02*
G03*
X3610Y2310I-122J50D01*
G01*
X3430Y2310D02*
G03*
X3430Y2210I122J-50D01*
G01*
X3460Y2580D02*
G03*
X3560Y2580I50J122D01*
G01*
X3560Y2760D02*
G03*
X3460Y2760I-50J-122D01*
G01*
X3560Y2580D02*
G03*
X3660Y2580I50J122D01*
G01*
X3660Y2760D02*
G03*
X3560Y2760I-50J-122D01*
G01*
X3019Y2860D02*
G03*
X3018Y2760I122J-50D01*
G01*
X3198Y2760D02*
G03*
X3199Y2860I-122J50D01*
G01*
X3660Y2570D02*
G03*
X3560Y2570I-50J-122D01*
G01*
X3560Y2390D02*
G03*
X3660Y2390I50J122D01*
G01*
X3560Y2570D02*
G03*
X3460Y2570I-50J-122D01*
G01*
X3460Y2390D02*
G03*
X3560Y2390I50J122D01*
G01*
X2500Y2760D02*
G03*
X2500Y2860I-122J50D01*
G01*
X2320Y2860D02*
G03*
X2320Y2760I122J-50D01*
G01*
X2050Y2410D02*
G03*
X2150Y2410I50J122D01*
G01*
X2150Y2590D02*
G03*
X2050Y2590I-50J-122D01*
G01*
X2771Y2408D02*
G03*
X2771Y2408I-5J0D01*
G01*
X1550Y2350D02*
G03*
X1450Y2350I-50J-122D01*
G01*
X1450Y2170D02*
G03*
X1550Y2170I50J122D01*
G01*
X1280Y1440D02*
G03*
X1280Y1340I122J-50D01*
G01*
X1460Y1340D02*
G03*
X1460Y1440I-122J50D01*
G01*
X1124Y1786D02*
G03*
X1124Y1974I-316J94D01*
G01*
X796Y1974D02*
G03*
X796Y1786I316J-94D01*
G01*
X1144Y1036D02*
G03*
X1144Y1224I-316J94D01*
G01*
X816Y1224D02*
G03*
X816Y1036I316J-94D01*
G01*
X1144Y846D02*
G03*
X1144Y1034I-316J94D01*
G01*
X816Y1034D02*
G03*
X816Y846I316J-94D01*
G01*
X1144Y656D02*
G03*
X1144Y844I-316J94D01*
G01*
X816Y844D02*
G03*
X816Y656I316J-94D01*
G01*
X596Y486D02*
G03*
X784Y486I94J316D01*
G01*
X784Y814D02*
G03*
X596Y814I-94J-316D01*
G01*
X245Y570D02*
G03*
X245Y570I-5J0D01*
G01*
X2670Y1380D02*
G03*
X2670Y1280I122J-50D01*
G01*
X2850Y1280D02*
G03*
X2850Y1380I-122J50D01*
G01*
X2850Y1380D02*
G03*
X2850Y1480I-122J50D01*
G01*
X2670Y1480D02*
G03*
X2670Y1380I122J-50D01*
G01*
X2575Y1662D02*
G03*
X2425Y1662I-75J-276D01*
G01*
Y1378D02*
G03*
X2575Y1378I75J276D01*
G01*
X1995Y1662D02*
G03*
X1845Y1662I-75J-276D01*
G01*
Y1378D02*
G03*
X1995Y1378I75J276D01*
G01*
X2200Y1470D02*
G03*
X2200Y1570I-122J50D01*
G01*
X2020Y1570D02*
G03*
X2020Y1470I122J-50D01*
G01*
X2220Y1570D02*
G03*
X2220Y1470I122J-50D01*
G01*
X2400Y1470D02*
G03*
X2400Y1570I-122J50D01*
G01*
X2290Y2150D02*
G03*
X2190Y2150I-50J-122D01*
G01*
X2190Y1970D02*
G03*
X2290Y1970I50J122D01*
G01*
X2660Y2140D02*
G03*
X2560Y2140I-50J-122D01*
G01*
X2560Y1960D02*
G03*
X2660Y1960I50J122D01*
G01*
X2560Y2140D02*
G03*
X2460Y2140I-50J-122D01*
G01*
X2460Y1960D02*
G03*
X2560Y1960I50J122D01*
G01*
X2717Y629D02*
G03*
X2717Y629I-5J0D01*
G01*
X1930Y2020D02*
G03*
X1930Y2120I-122J50D01*
G01*
X1750Y2120D02*
G03*
X1750Y2020I122J-50D01*
G01*
X2480Y4410D02*
X3210D01*
X2370Y3910D02*
Y4370D01*
X4149Y3060D02*
Y3260D01*
X4250Y3060D02*
Y3260D01*
X4149D02*
X4250D01*
X4149Y3060D02*
X4250D01*
X439Y350D02*
Y550D01*
X540Y350D02*
Y550D01*
X439D02*
X540D01*
X439Y350D02*
X540D01*
X230Y389D02*
X430D01*
X230Y490D02*
X430D01*
X230Y389D02*
Y490D01*
X430Y389D02*
Y490D01*
X336Y4546D02*
Y4874D01*
X524Y4546D02*
Y4874D01*
X1170Y4961D02*
X1370D01*
X1170Y4860D02*
X1370D01*
Y4961D01*
X1170Y4860D02*
Y4961D01*
X1420D02*
X1620D01*
X1420Y4860D02*
X1620D01*
Y4961D01*
X1420Y4860D02*
Y4961D01*
X2370Y3910D02*
X3210D01*
X3310Y4010D02*
Y4310D01*
X3210Y3910D02*
X3310Y4010D01*
X3210Y4410D02*
X3310Y4310D01*
X664Y3596D02*
Y3924D01*
X476Y3596D02*
Y3924D01*
Y3246D02*
Y3574D01*
X664Y3246D02*
Y3574D01*
X990Y3679D02*
X1190D01*
X990Y3780D02*
X1190D01*
X990Y3679D02*
Y3780D01*
X1190Y3679D02*
Y3780D01*
X990Y3229D02*
X1190D01*
X990Y3330D02*
X1190D01*
X990Y3229D02*
Y3330D01*
X1190Y3229D02*
Y3330D01*
X990Y3329D02*
X1190D01*
X990Y3430D02*
X1190D01*
X990Y3329D02*
Y3430D01*
X1190Y3329D02*
Y3430D01*
X990Y3579D02*
X1190D01*
X990Y3680D02*
X1190D01*
X990Y3579D02*
Y3680D01*
X1190Y3579D02*
Y3680D01*
X1291Y3230D02*
Y3430D01*
X1190Y3230D02*
Y3430D01*
Y3230D02*
X1291D01*
X1190Y3430D02*
X1291D01*
Y3580D02*
Y3780D01*
X1190Y3580D02*
Y3780D01*
Y3580D02*
X1291D01*
X1190Y3780D02*
X1291D01*
X1401Y3580D02*
Y3780D01*
X1300Y3580D02*
Y3780D01*
Y3580D02*
X1401D01*
X1300Y3780D02*
X1401D01*
X1300Y3779D02*
X1500D01*
X1300Y3880D02*
X1500D01*
X1300Y3779D02*
Y3880D01*
X1500Y3779D02*
Y3880D01*
X1501Y3580D02*
Y3780D01*
X1400Y3580D02*
Y3780D01*
Y3580D02*
X1501D01*
X1400Y3780D02*
X1501D01*
X1451Y3900D02*
Y4100D01*
X1350Y3900D02*
Y4100D01*
Y3900D02*
X1451D01*
X1350Y4100D02*
X1451D01*
X1490Y3010D02*
Y3190D01*
X1590Y3010D02*
Y3190D01*
X1490Y3210D02*
Y3390D01*
X1590Y3210D02*
Y3390D01*
X1490Y3410D02*
Y3590D01*
X1590Y3410D02*
Y3590D01*
X1750Y3730D02*
X1930D01*
X1750Y3830D02*
X1930D01*
X1601Y3680D02*
Y3880D01*
X1500Y3680D02*
Y3880D01*
Y3680D02*
X1601D01*
X1500Y3880D02*
X1601D01*
X1701Y3680D02*
Y3880D01*
X1600Y3680D02*
Y3880D01*
Y3680D02*
X1701D01*
X1600Y3880D02*
X1701D01*
X2090Y3830D02*
X2270D01*
X2090Y3730D02*
X2270D01*
X2080Y3931D02*
X2280D01*
X2080Y3830D02*
X2280D01*
Y3931D01*
X2080Y3830D02*
Y3931D01*
X2470Y3720D02*
Y3900D01*
X2570Y3720D02*
Y3900D01*
X2586Y3336D02*
Y3664D01*
X2774Y3336D02*
Y3664D01*
X2590Y3330D02*
X2770D01*
X2590Y3230D02*
X2770D01*
X3310Y2960D02*
Y3800D01*
X2810Y2960D02*
Y3800D01*
Y2960D02*
X3310D01*
X2910Y3900D02*
X3210D01*
X3310Y3800D01*
X2810D02*
X2910Y3900D01*
X3466Y3304D02*
X3794D01*
X3466Y3116D02*
X3794D01*
X3948Y3515D02*
X4232D01*
X3948Y3665D02*
X4232D01*
X4000Y3400D02*
X4180D01*
X4000Y3500D02*
X4180D01*
X4921Y3710D02*
Y3910D01*
X4820Y3710D02*
Y3910D01*
Y3710D02*
X4921D01*
X4820Y3910D02*
X4921D01*
X4700Y4040D02*
X4880D01*
X4700Y3940D02*
X4880D01*
X4780Y4590D02*
X4960D01*
X4780Y4690D02*
X4960D01*
X3948Y3405D02*
X4232D01*
X3948Y3255D02*
X4232D01*
X4251Y2590D02*
Y2790D01*
X4150Y2590D02*
Y2790D01*
Y2590D02*
X4251D01*
X4150Y2790D02*
X4251D01*
X3670Y3050D02*
X3850D01*
X3670Y2950D02*
X3850D01*
X3220Y2760D02*
X3400D01*
X3220Y2860D02*
X3400D01*
X4729Y190D02*
Y390D01*
X4830Y190D02*
Y390D01*
X4729D02*
X4830D01*
X4729Y190D02*
X4830D01*
X4729Y400D02*
Y600D01*
X4830Y400D02*
Y600D01*
X4729D02*
X4830D01*
X4729Y400D02*
X4830D01*
X4729Y610D02*
Y810D01*
X4830Y610D02*
Y810D01*
X4729D02*
X4830D01*
X4729Y610D02*
X4830D01*
X4580Y910D02*
Y1090D01*
X4480Y910D02*
Y1090D01*
X4290Y1000D02*
X4470D01*
X4290Y1100D02*
X4470D01*
X4329D02*
Y1300D01*
X4430Y1100D02*
Y1300D01*
X4329D02*
X4430D01*
X4329Y1100D02*
X4430D01*
X4065Y1668D02*
Y1952D01*
X4215Y1668D02*
Y1952D01*
X3699Y1660D02*
Y1860D01*
X3800Y1660D02*
Y1860D01*
X3699D02*
X3800D01*
X3699Y1660D02*
X3800D01*
X3599D02*
Y1860D01*
X3700Y1660D02*
Y1860D01*
X3599D02*
X3700D01*
X3599Y1660D02*
X3700D01*
X2600Y590D02*
Y770D01*
X2700Y590D02*
Y770D01*
X4251Y2380D02*
Y2580D01*
X4150Y2380D02*
Y2580D01*
Y2380D02*
X4251D01*
X4150Y2580D02*
X4251D01*
X4149Y2190D02*
Y2390D01*
X4250Y2190D02*
Y2390D01*
X4149D02*
X4250D01*
X4149Y2190D02*
X4250D01*
X3819Y1960D02*
Y2160D01*
X3920Y1960D02*
Y2160D01*
X3819D02*
X3920D01*
X3819Y1960D02*
X3920D01*
X3955Y1948D02*
Y2232D01*
X4105Y1948D02*
Y2232D01*
X4110Y2000D02*
Y2180D01*
X4210Y2000D02*
Y2180D01*
X3819Y2210D02*
Y2410D01*
X3920Y2210D02*
Y2410D01*
X3819D02*
X3920D01*
X3819Y2210D02*
X3920D01*
X3620Y2310D02*
X3800D01*
X3620Y2210D02*
X3800D01*
X3920Y2420D02*
Y2600D01*
X3820Y2420D02*
Y2600D01*
X3430Y2310D02*
X3610D01*
X3430Y2210D02*
X3610D01*
X3761Y2690D02*
Y2890D01*
X3660Y2690D02*
Y2890D01*
Y2690D02*
X3761D01*
X3660Y2890D02*
X3761D01*
X3861Y2690D02*
Y2890D01*
X3760Y2690D02*
Y2890D01*
Y2690D02*
X3861D01*
X3760Y2890D02*
X3861D01*
X3560Y2580D02*
Y2760D01*
X3460Y2580D02*
Y2760D01*
X3660Y2580D02*
Y2760D01*
X3560Y2580D02*
Y2760D01*
X2760Y2859D02*
X2960D01*
X2760Y2960D02*
X2960D01*
X2760Y2859D02*
Y2960D01*
X2960Y2859D02*
Y2960D01*
X3018Y2760D02*
X3198D01*
X3018Y2860D02*
X3198D01*
X3310Y2961D02*
X3510D01*
X3310Y2860D02*
X3510D01*
Y2961D01*
X3310Y2860D02*
Y2961D01*
X3110D02*
X3310D01*
X3110Y2860D02*
X3310D01*
Y2961D01*
X3110Y2860D02*
Y2961D01*
X3560Y2390D02*
Y2570D01*
X3660Y2390D02*
Y2570D01*
X3460Y2390D02*
Y2570D01*
X3560Y2390D02*
Y2570D01*
X2629Y2510D02*
Y2710D01*
X2730Y2510D02*
Y2710D01*
X2629D02*
X2730D01*
X2629Y2510D02*
X2730D01*
X2320Y2860D02*
X2500D01*
X2320Y2760D02*
X2500D01*
X2050Y2861D02*
X2250D01*
X2050Y2760D02*
X2250D01*
Y2861D01*
X2050Y2760D02*
Y2861D01*
Y2609D02*
X2250D01*
X2050Y2710D02*
X2250D01*
X2050Y2609D02*
Y2710D01*
X2250Y2609D02*
Y2710D01*
X2149Y2400D02*
Y2600D01*
X2250Y2400D02*
Y2600D01*
X2149D02*
X2250D01*
X2149Y2400D02*
X2250D01*
X2150Y2410D02*
Y2590D01*
X2050Y2410D02*
Y2590D01*
X2279Y2140D02*
Y2340D01*
X2380Y2140D02*
Y2340D01*
X2279D02*
X2380D01*
X2279Y2140D02*
X2380D01*
X2631Y2510D02*
Y2710D01*
X2530Y2510D02*
Y2710D01*
Y2510D02*
X2631D01*
X2530Y2710D02*
X2631D01*
X2531Y2510D02*
Y2710D01*
X2430Y2510D02*
Y2710D01*
Y2510D02*
X2531D01*
X2430Y2710D02*
X2531D01*
X1570Y2851D02*
X1770D01*
X1570Y2750D02*
X1770D01*
Y2851D01*
X1570Y2750D02*
Y2851D01*
X1470Y2751D02*
X1670D01*
X1470Y2650D02*
X1670D01*
Y2751D01*
X1470Y2650D02*
Y2751D01*
X1370Y2749D02*
X1570D01*
X1370Y2850D02*
X1570D01*
X1370Y2749D02*
Y2850D01*
X1570Y2749D02*
Y2850D01*
X1469Y2460D02*
Y2660D01*
X1570Y2460D02*
Y2660D01*
X1469D02*
X1570D01*
X1469Y2460D02*
X1570D01*
X1450Y2170D02*
Y2350D01*
X1550Y2170D02*
Y2350D01*
X1349Y2010D02*
Y2210D01*
X1450Y2010D02*
Y2210D01*
X1349D02*
X1450D01*
X1349Y2010D02*
X1450D01*
X1700Y1809D02*
Y1910D01*
X1500Y1809D02*
Y1910D01*
X1700D01*
X1500Y1809D02*
X1700D01*
X1551Y1910D02*
Y2110D01*
X1450Y1910D02*
Y2110D01*
Y1910D02*
X1551D01*
X1450Y2110D02*
X1551D01*
X1280Y1340D02*
X1460D01*
X1280Y1440D02*
X1460D01*
X796Y1786D02*
X1124D01*
X796Y1974D02*
X1124D01*
X816Y1036D02*
X1144D01*
X816Y1224D02*
X1144D01*
X816Y846D02*
X1144D01*
X816Y1034D02*
X1144D01*
X816Y656D02*
X1144D01*
X816Y844D02*
X1144D01*
X596Y486D02*
Y814D01*
X784Y486D02*
Y814D01*
X2360Y519D02*
X2560D01*
X2360Y620D02*
X2560D01*
X2360Y519D02*
Y620D01*
X2560Y519D02*
Y620D01*
X2360Y619D02*
X2560D01*
X2360Y720D02*
X2560D01*
X2360Y619D02*
Y720D01*
X2560Y619D02*
Y720D01*
X2360Y719D02*
X2560D01*
X2360Y820D02*
X2560D01*
X2360Y719D02*
Y820D01*
X2560Y719D02*
Y820D01*
X2360Y819D02*
X2560D01*
X2360Y920D02*
X2560D01*
X2360Y819D02*
Y920D01*
X2560Y819D02*
Y920D01*
X2670Y1129D02*
Y1230D01*
X2470Y1129D02*
Y1230D01*
X2670D01*
X2470Y1129D02*
X2670D01*
X2471Y930D02*
Y1130D01*
X2370Y930D02*
Y1130D01*
Y930D02*
X2471D01*
X2370Y1130D02*
X2471D01*
X2371Y930D02*
Y1130D01*
X2270Y930D02*
Y1130D01*
Y930D02*
X2371D01*
X2270Y1130D02*
X2371D01*
X2251Y930D02*
Y1130D01*
X2150Y930D02*
Y1130D01*
Y930D02*
X2251D01*
X2150Y1130D02*
X2251D01*
X2151Y930D02*
Y1130D01*
X2050Y930D02*
Y1130D01*
Y930D02*
X2151D01*
X2050Y1130D02*
X2151D01*
X2670Y1280D02*
X2850D01*
X2670Y1380D02*
X2850D01*
X2570Y1430D02*
X2671D01*
X2570Y1230D02*
X2671D01*
X2570D02*
Y1430D01*
X2671Y1230D02*
Y1430D01*
X2670Y1480D02*
X2850D01*
X2670Y1380D02*
X2850D01*
X2680Y1601D02*
X2880D01*
X2680Y1500D02*
X2880D01*
Y1601D01*
X2680Y1500D02*
Y1601D01*
Y1701D02*
X2880D01*
X2680Y1600D02*
X2880D01*
Y1701D01*
X2680Y1600D02*
Y1701D01*
X2575Y1378D02*
Y1662D01*
X2425Y1378D02*
Y1662D01*
X1995Y1378D02*
Y1662D01*
X1845Y1378D02*
Y1662D01*
X2020Y1570D02*
X2200D01*
X2020Y1470D02*
X2200D01*
X2220D02*
X2400D01*
X2220Y1570D02*
X2400D01*
X2190Y1970D02*
Y2150D01*
X2290Y1970D02*
Y2150D01*
X2000Y2009D02*
X2200D01*
X2000Y2110D02*
X2200D01*
X2000Y2009D02*
Y2110D01*
X2200Y2009D02*
Y2110D01*
X2560Y1960D02*
Y2140D01*
X2660Y1960D02*
Y2140D01*
X2460Y1960D02*
Y2140D01*
X2560Y1960D02*
Y2140D01*
X2359Y1950D02*
Y2150D01*
X2460Y1950D02*
Y2150D01*
X2359D02*
X2460D01*
X2359Y1950D02*
X2460D01*
X2650Y1949D02*
X2850D01*
X2650Y2050D02*
X2850D01*
X2650Y1949D02*
Y2050D01*
X2850Y1949D02*
Y2050D01*
X2650Y1810D02*
Y1911D01*
X2850Y1810D02*
Y1911D01*
X2650Y1810D02*
X2850D01*
X2650Y1911D02*
X2850D01*
X4040Y1709D02*
Y1810D01*
X3840Y1709D02*
Y1810D01*
X4040D01*
X3840Y1709D02*
X4040D01*
X3030Y2071D02*
X3230D01*
X3030Y1970D02*
X3230D01*
Y2071D01*
X3030Y1970D02*
Y2071D01*
X2840Y1969D02*
X3040D01*
X2840Y2070D02*
X3040D01*
X2840Y1969D02*
Y2070D01*
X3040Y1969D02*
Y2070D01*
X1750Y2120D02*
X1930D01*
X1750Y2020D02*
X1930D01*
D12*
X3855Y2800D02*
G03*
X3855Y2800I-5J0D01*
G01*
X428Y195D02*
Y345D01*
X232Y195D02*
Y345D01*
X-0Y3320D02*
X450D01*
X-0D02*
Y4520D01*
X450D01*
Y3320D02*
Y4520D01*
X3350Y3300D02*
Y3860D01*
Y3300D02*
X3910D01*
Y3860D01*
X3350D02*
X3910D01*
X3422Y4958D02*
X4497D01*
X3422Y3883D02*
Y4958D01*
Y3883D02*
X4497D01*
Y4958D01*
X4580Y4490D02*
X4680D01*
X5000Y4070D02*
Y4490D01*
X4900D02*
X5000D01*
X4580Y4070D02*
Y4490D01*
Y4070D02*
X4680D01*
X4900D02*
X5000D01*
X3870Y2910D02*
Y2990D01*
Y2910D02*
X4150D01*
Y2990D01*
X3870D02*
X4150D01*
X2847Y2147D02*
Y2211D01*
X3309Y2673D02*
X3373D01*
X2847Y2609D02*
Y2673D01*
Y2147D02*
X2911D01*
X3373Y2609D02*
Y2673D01*
X2847D02*
X2911D01*
X3309Y2147D02*
X3373Y2211D01*
X1497Y1780D02*
X1570D01*
X1843Y1380D02*
Y1780D01*
X1770D02*
X1843D01*
X1497Y1380D02*
Y1780D01*
Y1380D02*
X1570D01*
X1770D02*
X1843D01*
X1770Y940D02*
Y1120D01*
X1230Y940D02*
Y1120D01*
X56Y593D02*
Y847D01*
X564Y593D02*
Y847D01*
X56Y593D02*
X564D01*
X56Y847D02*
X564D01*
X2410Y1880D02*
Y1953D01*
X2010Y1607D02*
X2410D01*
Y1680D01*
X2010Y1953D02*
X2410D01*
X2010Y1880D02*
Y1953D01*
Y1607D02*
Y1680D01*
X1632Y2548D02*
X1677D01*
X1632Y2212D02*
X1677D01*
X1968D02*
Y2257D01*
X1923Y2548D02*
X1968D01*
X1632Y2503D02*
Y2548D01*
Y2212D02*
Y2257D01*
X1923Y2212D02*
X1968D01*
Y2503D02*
Y2548D01*
X2268Y2205D02*
Y2355D01*
X2072Y2205D02*
Y2355D01*
X2425Y70D02*
X2575D01*
Y450D01*
X2425D02*
X2575D01*
X1525Y70D02*
X1675D01*
X1525D02*
Y450D01*
X1675D01*
X1197Y3896D02*
X1110D01*
X1154Y3940D02*
Y3853D01*
X2267Y4016D02*
X2180D01*
X2224Y4060D02*
Y3973D01*
X4939Y3970D02*
Y4038D01*
X4905Y4004D02*
X4973D01*
D13*
X3828Y1970D02*
G03*
X3828Y1970I-8J0D01*
G01*
X10Y1057D02*
Y1543D01*
X165Y1625D02*
X440D01*
Y1502D02*
Y1625D01*
Y975D02*
Y1098D01*
X165Y975D02*
X440D01*
X3540Y2844D02*
X3583Y2801D01*
X3540D02*
X3583Y2844D01*
X3540Y2822D02*
X3583D01*
X3562Y2801D02*
Y2844D01*
X3610Y4664D02*
X3653Y4621D01*
X3610D02*
X3653Y4664D01*
X3610Y4642D02*
X3653D01*
X3632Y4621D02*
Y4664D01*
X2490Y1924D02*
X2533Y1881D01*
X2490D02*
X2533Y1924D01*
X2490Y1902D02*
X2533D01*
X2512Y1881D02*
Y1924D01*
X3120Y964D02*
X3163Y921D01*
X3120D02*
X3163Y964D01*
X3120Y942D02*
X3163D01*
X3142Y921D02*
Y964D01*
X150Y1660D02*
Y1730D01*
X185D01*
X197Y1718D01*
Y1695D01*
X185Y1683D01*
X150D01*
X220Y1660D02*
X243D01*
X232D01*
Y1730D01*
X220Y1718D01*
X278Y1660D02*
X302D01*
X290D01*
Y1730D01*
X278Y1718D01*
X2810Y580D02*
X2880D01*
Y615D01*
X2868Y627D01*
X2822D01*
X2810Y615D01*
Y580D01*
X2880Y650D02*
Y673D01*
Y662D01*
X2810D01*
X2822Y650D01*
X2880Y755D02*
Y708D01*
X2833Y755D01*
X2822D01*
X2810Y743D01*
Y720D01*
X2822Y708D01*
X180Y870D02*
Y940D01*
X215D01*
X227Y928D01*
Y905D01*
X215Y893D01*
X180D01*
X203D02*
X227Y870D01*
X250D02*
X273D01*
X262D01*
Y940D01*
X250Y928D01*
X355Y940D02*
X308D01*
Y905D01*
X332Y917D01*
X343D01*
X355Y905D01*
Y882D01*
X343Y870D01*
X320D01*
X308Y882D01*
X425Y870D02*
X378D01*
X425Y917D01*
Y928D01*
X413Y940D01*
X390D01*
X378Y928D01*
X2440Y1800D02*
Y1870D01*
X2475D01*
X2487Y1858D01*
Y1835D01*
X2475Y1823D01*
X2440D01*
X2463D02*
X2487Y1800D01*
X2557Y1870D02*
X2533Y1858D01*
X2510Y1835D01*
Y1812D01*
X2522Y1800D01*
X2545D01*
X2557Y1812D01*
Y1823D01*
X2545Y1835D01*
X2510D01*
X2627Y1870D02*
X2580D01*
Y1835D01*
X2603Y1847D01*
X2615D01*
X2627Y1835D01*
Y1812D01*
X2615Y1800D01*
X2592D01*
X2580Y1812D01*
X1317Y1758D02*
X1305Y1770D01*
X1282D01*
X1270Y1758D01*
Y1712D01*
X1282Y1700D01*
X1305D01*
X1317Y1712D01*
X1387Y1700D02*
X1340D01*
X1387Y1747D01*
Y1758D01*
X1375Y1770D01*
X1352D01*
X1340Y1758D01*
X1830Y1260D02*
Y1202D01*
X1842Y1190D01*
X1865D01*
X1877Y1202D01*
Y1260D01*
X1900Y1248D02*
X1912Y1260D01*
X1935D01*
X1947Y1248D01*
Y1237D01*
X1935Y1225D01*
X1923D01*
X1935D01*
X1947Y1213D01*
Y1202D01*
X1935Y1190D01*
X1912D01*
X1900Y1202D01*
X1970Y1260D02*
X2017D01*
Y1248D01*
X1970Y1202D01*
Y1190D01*
X1730Y1820D02*
Y1890D01*
X1765D01*
X1777Y1878D01*
Y1855D01*
X1765Y1843D01*
X1730D01*
X1753D02*
X1777Y1820D01*
X1800D02*
X1823D01*
X1812D01*
Y1890D01*
X1800Y1878D01*
X1858D02*
X1870Y1890D01*
X1893D01*
X1905Y1878D01*
Y1867D01*
X1893Y1855D01*
X1905Y1843D01*
Y1832D01*
X1893Y1820D01*
X1870D01*
X1858Y1832D01*
Y1843D01*
X1870Y1855D01*
X1858Y1867D01*
Y1878D01*
X1870Y1855D02*
X1893D01*
X1928Y1878D02*
X1940Y1890D01*
X1963D01*
X1975Y1878D01*
Y1867D01*
X1963Y1855D01*
X1952D01*
X1963D01*
X1975Y1843D01*
Y1832D01*
X1963Y1820D01*
X1940D01*
X1928Y1832D01*
X2590Y800D02*
Y870D01*
X2625D01*
X2637Y858D01*
Y835D01*
X2625Y823D01*
X2590D01*
X2613D02*
X2637Y800D01*
X2660D02*
X2683D01*
X2672D01*
Y870D01*
X2660Y858D01*
X2718D02*
X2730Y870D01*
X2753D01*
X2765Y858D01*
Y847D01*
X2753Y835D01*
X2765Y823D01*
Y812D01*
X2753Y800D01*
X2730D01*
X2718Y812D01*
Y823D01*
X2730Y835D01*
X2718Y847D01*
Y858D01*
X2730Y835D02*
X2753D01*
X2835Y800D02*
X2788D01*
X2835Y847D01*
Y858D01*
X2823Y870D01*
X2800D01*
X2788Y858D01*
X2660Y890D02*
X2590D01*
Y925D01*
X2602Y937D01*
X2625D01*
X2637Y925D01*
Y890D01*
Y913D02*
X2660Y937D01*
Y960D02*
Y983D01*
Y972D01*
X2590D01*
X2602Y960D01*
Y1018D02*
X2590Y1030D01*
Y1053D01*
X2602Y1065D01*
X2613D01*
X2625Y1053D01*
X2637Y1065D01*
X2648D01*
X2660Y1053D01*
Y1030D01*
X2648Y1018D01*
X2637D01*
X2625Y1030D01*
X2613Y1018D01*
X2602D01*
X2625Y1030D02*
Y1053D01*
X2660Y1088D02*
Y1112D01*
Y1100D01*
X2590D01*
X2602Y1088D01*
X1530Y1620D02*
Y1550D01*
X1577D01*
X1647Y1620D02*
X1623Y1608D01*
X1600Y1585D01*
Y1562D01*
X1612Y1550D01*
X1635D01*
X1647Y1562D01*
Y1573D01*
X1635Y1585D01*
X1600D01*
X2180Y1720D02*
X2250D01*
Y1767D01*
X2180Y1837D02*
Y1790D01*
X2215D01*
X2203Y1813D01*
Y1825D01*
X2215Y1837D01*
X2238D01*
X2250Y1825D01*
Y1802D01*
X2238Y1790D01*
X2487Y1768D02*
X2475Y1780D01*
X2452D01*
X2440Y1768D01*
Y1722D01*
X2452Y1710D01*
X2475D01*
X2487Y1722D01*
X2510Y1710D02*
X2533D01*
X2522D01*
Y1780D01*
X2510Y1768D01*
X2568Y1780D02*
X2615D01*
Y1768D01*
X2568Y1722D01*
Y1710D01*
X2685Y1780D02*
X2638D01*
Y1745D01*
X2662Y1757D01*
X2673D01*
X2685Y1745D01*
Y1722D01*
X2673Y1710D01*
X2650D01*
X2638Y1722D01*
X2077Y1688D02*
X2065Y1700D01*
X2042D01*
X2030Y1688D01*
Y1642D01*
X2042Y1630D01*
X2065D01*
X2077Y1642D01*
X2100Y1630D02*
X2123D01*
X2112D01*
Y1700D01*
X2100Y1688D01*
X2158Y1700D02*
X2205D01*
Y1688D01*
X2158Y1642D01*
Y1630D01*
X2263D02*
Y1700D01*
X2228Y1665D01*
X2275D01*
X2600Y1510D02*
X2590Y1500D01*
Y1480D01*
X2600Y1470D01*
X2640D01*
X2650Y1480D01*
Y1500D01*
X2640Y1510D01*
X2650Y1530D02*
Y1550D01*
Y1540D01*
X2590D01*
X2600Y1530D01*
X2590Y1580D02*
Y1620D01*
X2600D01*
X2640Y1580D01*
X2650D01*
X2590Y1680D02*
X2600Y1660D01*
X2620Y1640D01*
X2640D01*
X2650Y1650D01*
Y1670D01*
X2640Y1680D01*
X2630D01*
X2620Y1670D01*
Y1640D01*
X1762Y1497D02*
X1750Y1485D01*
Y1462D01*
X1762Y1450D01*
X1808D01*
X1820Y1462D01*
Y1485D01*
X1808Y1497D01*
X1820Y1520D02*
Y1543D01*
Y1532D01*
X1750D01*
X1762Y1520D01*
X1750Y1578D02*
Y1625D01*
X1762D01*
X1808Y1578D01*
X1820D01*
X1762Y1648D02*
X1750Y1660D01*
Y1683D01*
X1762Y1695D01*
X1773D01*
X1785Y1683D01*
Y1672D01*
Y1683D01*
X1797Y1695D01*
X1808D01*
X1820Y1683D01*
Y1660D01*
X1808Y1648D01*
X4767Y4378D02*
X4755Y4390D01*
X4732D01*
X4720Y4378D01*
Y4332D01*
X4732Y4320D01*
X4755D01*
X4767Y4332D01*
X4790Y4320D02*
X4813D01*
X4802D01*
Y4390D01*
X4790Y4378D01*
X4895Y4390D02*
X4872Y4378D01*
X4848Y4355D01*
Y4332D01*
X4860Y4320D01*
X4883D01*
X4895Y4332D01*
Y4343D01*
X4883Y4355D01*
X4848D01*
X4918Y4332D02*
X4930Y4320D01*
X4953D01*
X4965Y4332D01*
Y4378D01*
X4953Y4390D01*
X4930D01*
X4918Y4378D01*
Y4367D01*
X4930Y4355D01*
X4965D01*
X4540Y4960D02*
Y4890D01*
X4575D01*
X4587Y4902D01*
Y4948D01*
X4575Y4960D01*
X4540D01*
X4657Y4890D02*
X4610D01*
X4657Y4937D01*
Y4948D01*
X4645Y4960D01*
X4622D01*
X4610Y4948D01*
X4727Y4890D02*
X4680D01*
X4727Y4937D01*
Y4948D01*
X4715Y4960D01*
X4692D01*
X4680Y4948D01*
X3870Y1840D02*
Y1900D01*
X3900D01*
X3910Y1890D01*
Y1870D01*
X3900Y1860D01*
X3870D01*
X3890D02*
X3910Y1840D01*
X3970Y1900D02*
X3930D01*
Y1870D01*
X3950Y1880D01*
X3960D01*
X3970Y1870D01*
Y1850D01*
X3960Y1840D01*
X3940D01*
X3930Y1850D01*
X4030Y1900D02*
X3990D01*
Y1870D01*
X4010Y1880D01*
X4020D01*
X4030Y1870D01*
Y1850D01*
X4020Y1840D01*
X4000D01*
X3990Y1850D01*
X3940Y2530D02*
Y2470D01*
X3970D01*
X3980Y2480D01*
Y2490D01*
X3970Y2500D01*
X3940D01*
X3970D01*
X3980Y2510D01*
Y2520D01*
X3970Y2530D01*
X3940D01*
X4000D02*
X4040D01*
X4020D01*
Y2470D01*
X4060D02*
Y2530D01*
X4100Y2470D01*
Y2530D01*
X4120Y2470D02*
X4140D01*
X4130D01*
Y2530D01*
X4120Y2520D01*
X4770Y970D02*
X4840D01*
Y1005D01*
X4828Y1017D01*
X4817D01*
X4805Y1005D01*
Y970D01*
Y1005D01*
X4793Y1017D01*
X4782D01*
X4770Y1005D01*
Y970D01*
Y1040D02*
Y1087D01*
Y1063D01*
X4840D01*
Y1110D02*
X4770D01*
X4840Y1157D01*
X4770D01*
X4840Y1227D02*
Y1180D01*
X4793Y1227D01*
X4782D01*
X4770Y1215D01*
Y1192D01*
X4782Y1180D01*
X3742Y2607D02*
X3730Y2595D01*
Y2572D01*
X3742Y2560D01*
X3788D01*
X3800Y2572D01*
Y2595D01*
X3788Y2607D01*
X3800Y2630D02*
Y2653D01*
Y2642D01*
X3730D01*
X3742Y2630D01*
X2507Y4368D02*
X2495Y4380D01*
X2472D01*
X2460Y4368D01*
Y4322D01*
X2472Y4310D01*
X2495D01*
X2507Y4322D01*
X2530Y4368D02*
X2542Y4380D01*
X2565D01*
X2577Y4368D01*
Y4357D01*
X2565Y4345D01*
X2553D01*
X2565D01*
X2577Y4333D01*
Y4322D01*
X2565Y4310D01*
X2542D01*
X2530Y4322D01*
X4837Y4228D02*
X4825Y4240D01*
X4802D01*
X4790Y4228D01*
Y4182D01*
X4802Y4170D01*
X4825D01*
X4837Y4182D01*
X4907Y4240D02*
X4860D01*
Y4205D01*
X4883Y4217D01*
X4895D01*
X4907Y4205D01*
Y4182D01*
X4895Y4170D01*
X4872D01*
X4860Y4182D01*
X2857Y2828D02*
X2845Y2840D01*
X2822D01*
X2810Y2828D01*
Y2782D01*
X2822Y2770D01*
X2845D01*
X2857Y2782D01*
X2880Y2770D02*
X2903D01*
X2892D01*
Y2840D01*
X2880Y2828D01*
X2938D02*
X2950Y2840D01*
X2973D01*
X2985Y2828D01*
Y2782D01*
X2973Y2770D01*
X2950D01*
X2938Y2782D01*
Y2828D01*
X2757Y978D02*
X2745Y990D01*
X2722D01*
X2710Y978D01*
Y932D01*
X2722Y920D01*
X2745D01*
X2757Y932D01*
X2780Y920D02*
X2803D01*
X2792D01*
Y990D01*
X2780Y978D01*
X2873Y920D02*
Y990D01*
X2838Y955D01*
X2885D01*
X2657Y538D02*
X2645Y550D01*
X2622D01*
X2610Y538D01*
Y492D01*
X2622Y480D01*
X2645D01*
X2657Y492D01*
X2680Y480D02*
X2703D01*
X2692D01*
Y550D01*
X2680Y538D01*
X2785Y550D02*
X2738D01*
Y515D01*
X2762Y527D01*
X2773D01*
X2785Y515D01*
Y492D01*
X2773Y480D01*
X2750D01*
X2738Y492D01*
X1852Y2647D02*
X1840Y2635D01*
Y2612D01*
X1852Y2600D01*
X1898D01*
X1910Y2612D01*
Y2635D01*
X1898Y2647D01*
X1840Y2717D02*
Y2670D01*
X1875D01*
X1863Y2693D01*
Y2705D01*
X1875Y2717D01*
X1898D01*
X1910Y2705D01*
Y2682D01*
X1898Y2670D01*
X1852Y2740D02*
X1840Y2752D01*
Y2775D01*
X1852Y2787D01*
X1863D01*
X1875Y2775D01*
X1887Y2787D01*
X1898D01*
X1910Y2775D01*
Y2752D01*
X1898Y2740D01*
X1887D01*
X1875Y2752D01*
X1863Y2740D01*
X1852D01*
X1875Y2752D02*
Y2775D01*
X2260Y1920D02*
X2250Y1930D01*
X2230D01*
X2220Y1920D01*
Y1880D01*
X2230Y1870D01*
X2250D01*
X2260Y1880D01*
X2320Y1930D02*
X2300Y1920D01*
X2280Y1900D01*
Y1880D01*
X2290Y1870D01*
X2310D01*
X2320Y1880D01*
Y1890D01*
X2310Y1900D01*
X2280D01*
X2340Y1920D02*
X2350Y1930D01*
X2370D01*
X2380Y1920D01*
Y1880D01*
X2370Y1870D01*
X2350D01*
X2340Y1880D01*
Y1920D01*
X2757Y1068D02*
X2745Y1080D01*
X2722D01*
X2710Y1068D01*
Y1022D01*
X2722Y1010D01*
X2745D01*
X2757Y1022D01*
X2827Y1080D02*
X2803Y1068D01*
X2780Y1045D01*
Y1022D01*
X2792Y1010D01*
X2815D01*
X2827Y1022D01*
Y1033D01*
X2815Y1045D01*
X2780D01*
X2850Y1010D02*
X2873D01*
X2862D01*
Y1080D01*
X2850Y1068D01*
X3887Y3218D02*
X3875Y3230D01*
X3852D01*
X3840Y3218D01*
Y3172D01*
X3852Y3160D01*
X3875D01*
X3887Y3172D01*
X3957Y3230D02*
X3933Y3218D01*
X3910Y3195D01*
Y3172D01*
X3922Y3160D01*
X3945D01*
X3957Y3172D01*
Y3183D01*
X3945Y3195D01*
X3910D01*
X4015Y3160D02*
Y3230D01*
X3980Y3195D01*
X4027D01*
X3120Y1040D02*
X3110Y1030D01*
Y1010D01*
X3120Y1000D01*
X3160D01*
X3170Y1010D01*
Y1030D01*
X3160Y1040D01*
X3110Y1100D02*
X3120Y1080D01*
X3140Y1060D01*
X3160D01*
X3170Y1070D01*
Y1090D01*
X3160Y1100D01*
X3150D01*
X3140Y1090D01*
Y1060D01*
X3110Y1160D02*
Y1120D01*
X3140D01*
X3130Y1140D01*
Y1150D01*
X3140Y1160D01*
X3160D01*
X3170Y1150D01*
Y1130D01*
X3160Y1120D01*
X3210Y1040D02*
X3200Y1030D01*
Y1010D01*
X3210Y1000D01*
X3250D01*
X3260Y1010D01*
Y1030D01*
X3250Y1040D01*
X3200Y1100D02*
X3210Y1080D01*
X3230Y1060D01*
X3250D01*
X3260Y1070D01*
Y1090D01*
X3250Y1100D01*
X3240D01*
X3230Y1090D01*
Y1060D01*
X3200Y1160D02*
X3210Y1140D01*
X3230Y1120D01*
X3250D01*
X3260Y1130D01*
Y1150D01*
X3250Y1160D01*
X3240D01*
X3230Y1150D01*
Y1120D01*
X3722Y2387D02*
X3710Y2375D01*
Y2352D01*
X3722Y2340D01*
X3768D01*
X3780Y2352D01*
Y2375D01*
X3768Y2387D01*
X3710Y2410D02*
Y2457D01*
X3722D01*
X3768Y2410D01*
X3780D01*
X3768Y2480D02*
X3780Y2492D01*
Y2515D01*
X3768Y2527D01*
X3722D01*
X3710Y2515D01*
Y2492D01*
X3722Y2480D01*
X3733D01*
X3745Y2492D01*
Y2527D01*
X3307Y2098D02*
X3295Y2110D01*
X3272D01*
X3260Y2098D01*
Y2052D01*
X3272Y2040D01*
X3295D01*
X3307Y2052D01*
X3330Y2098D02*
X3342Y2110D01*
X3365D01*
X3377Y2098D01*
Y2087D01*
X3365Y2075D01*
X3377Y2063D01*
Y2052D01*
X3365Y2040D01*
X3342D01*
X3330Y2052D01*
Y2063D01*
X3342Y2075D01*
X3330Y2087D01*
Y2098D01*
X3342Y2075D02*
X3365D01*
X3400Y2098D02*
X3412Y2110D01*
X3435D01*
X3447Y2098D01*
Y2052D01*
X3435Y2040D01*
X3412D01*
X3400Y2052D01*
Y2098D01*
X4537Y1178D02*
X4525Y1190D01*
X4502D01*
X4490Y1178D01*
Y1132D01*
X4502Y1120D01*
X4525D01*
X4537Y1132D01*
X4560Y1178D02*
X4572Y1190D01*
X4595D01*
X4607Y1178D01*
Y1167D01*
X4595Y1155D01*
X4607Y1143D01*
Y1132D01*
X4595Y1120D01*
X4572D01*
X4560Y1132D01*
Y1143D01*
X4572Y1155D01*
X4560Y1167D01*
Y1178D01*
X4572Y1155D02*
X4595D01*
X4630Y1120D02*
X4653D01*
X4642D01*
Y1190D01*
X4630Y1178D01*
X4307Y958D02*
X4295Y970D01*
X4272D01*
X4260Y958D01*
Y912D01*
X4272Y900D01*
X4295D01*
X4307Y912D01*
X4330Y958D02*
X4342Y970D01*
X4365D01*
X4377Y958D01*
Y947D01*
X4365Y935D01*
X4377Y923D01*
Y912D01*
X4365Y900D01*
X4342D01*
X4330Y912D01*
Y923D01*
X4342Y935D01*
X4330Y947D01*
Y958D01*
X4342Y935D02*
X4365D01*
X4435Y900D02*
Y970D01*
X4400Y935D01*
X4447D01*
X3222Y3037D02*
X3210Y3025D01*
Y3002D01*
X3222Y2990D01*
X3268D01*
X3280Y3002D01*
Y3025D01*
X3268Y3037D01*
X3280Y3060D02*
Y3083D01*
Y3072D01*
X3210D01*
X3222Y3060D01*
Y3118D02*
X3210Y3130D01*
Y3153D01*
X3222Y3165D01*
X3268D01*
X3280Y3153D01*
Y3130D01*
X3268Y3118D01*
X3222D01*
X3280Y3235D02*
Y3188D01*
X3233Y3235D01*
X3222D01*
X3210Y3223D01*
Y3200D01*
X3222Y3188D01*
X3562Y4087D02*
X3550Y4075D01*
Y4052D01*
X3562Y4040D01*
X3608D01*
X3620Y4052D01*
Y4075D01*
X3608Y4087D01*
X3620Y4110D02*
Y4133D01*
Y4122D01*
X3550D01*
X3562Y4110D01*
Y4168D02*
X3550Y4180D01*
Y4203D01*
X3562Y4215D01*
X3608D01*
X3620Y4203D01*
Y4180D01*
X3608Y4168D01*
X3562D01*
Y4238D02*
X3550Y4250D01*
Y4273D01*
X3562Y4285D01*
X3573D01*
X3585Y4273D01*
Y4262D01*
Y4273D01*
X3597Y4285D01*
X3608D01*
X3620Y4273D01*
Y4250D01*
X3608Y4238D01*
X3662Y4087D02*
X3650Y4075D01*
Y4052D01*
X3662Y4040D01*
X3708D01*
X3720Y4052D01*
Y4075D01*
X3708Y4087D01*
X3720Y4110D02*
Y4133D01*
Y4122D01*
X3650D01*
X3662Y4110D01*
Y4168D02*
X3650Y4180D01*
Y4203D01*
X3662Y4215D01*
X3708D01*
X3720Y4203D01*
Y4180D01*
X3708Y4168D01*
X3662D01*
X3720Y4273D02*
X3650D01*
X3685Y4238D01*
Y4285D01*
X3662Y4387D02*
X3650Y4375D01*
Y4352D01*
X3662Y4340D01*
X3708D01*
X3720Y4352D01*
Y4375D01*
X3708Y4387D01*
X3720Y4410D02*
Y4433D01*
Y4422D01*
X3650D01*
X3662Y4410D01*
Y4468D02*
X3650Y4480D01*
Y4503D01*
X3662Y4515D01*
X3708D01*
X3720Y4503D01*
Y4480D01*
X3708Y4468D01*
X3662D01*
X3650Y4585D02*
Y4538D01*
X3685D01*
X3673Y4562D01*
Y4573D01*
X3685Y4585D01*
X3708D01*
X3720Y4573D01*
Y4550D01*
X3708Y4538D01*
X3562Y4387D02*
X3550Y4375D01*
Y4352D01*
X3562Y4340D01*
X3608D01*
X3620Y4352D01*
Y4375D01*
X3608Y4387D01*
X3620Y4410D02*
Y4433D01*
Y4422D01*
X3550D01*
X3562Y4410D01*
Y4468D02*
X3550Y4480D01*
Y4503D01*
X3562Y4515D01*
X3608D01*
X3620Y4503D01*
Y4480D01*
X3608Y4468D01*
X3562D01*
X3550Y4585D02*
X3562Y4562D01*
X3585Y4538D01*
X3608D01*
X3620Y4550D01*
Y4573D01*
X3608Y4585D01*
X3597D01*
X3585Y4573D01*
Y4538D01*
X827Y2298D02*
X815Y2310D01*
X792D01*
X780Y2298D01*
Y2252D01*
X792Y2240D01*
X815D01*
X827Y2252D01*
X850Y2240D02*
X873D01*
X862D01*
Y2310D01*
X850Y2298D01*
X908D02*
X920Y2310D01*
X943D01*
X955Y2298D01*
Y2252D01*
X943Y2240D01*
X920D01*
X908Y2252D01*
Y2298D01*
X978D02*
X990Y2310D01*
X1013D01*
X1025Y2298D01*
Y2287D01*
X1013Y2275D01*
X1025Y2263D01*
Y2252D01*
X1013Y2240D01*
X990D01*
X978Y2252D01*
Y2263D01*
X990Y2275D01*
X978Y2287D01*
Y2298D01*
X990Y2275D02*
X1013D01*
X1812Y4327D02*
X1800Y4315D01*
Y4292D01*
X1812Y4280D01*
X1858D01*
X1870Y4292D01*
Y4315D01*
X1858Y4327D01*
X1870Y4350D02*
Y4373D01*
Y4362D01*
X1800D01*
X1812Y4350D01*
X1870Y4408D02*
Y4432D01*
Y4420D01*
X1800D01*
X1812Y4408D01*
X1800Y4513D02*
Y4467D01*
X1835D01*
X1823Y4490D01*
Y4502D01*
X1835Y4513D01*
X1858D01*
X1870Y4502D01*
Y4478D01*
X1858Y4467D01*
X617Y4918D02*
X605Y4930D01*
X582D01*
X570Y4918D01*
Y4872D01*
X582Y4860D01*
X605D01*
X617Y4872D01*
X640Y4860D02*
X663D01*
X652D01*
Y4930D01*
X640Y4918D01*
X698Y4860D02*
X722D01*
X710D01*
Y4930D01*
X698Y4918D01*
X803Y4930D02*
X780Y4918D01*
X757Y4895D01*
Y4872D01*
X768Y4860D01*
X792D01*
X803Y4872D01*
Y4883D01*
X792Y4895D01*
X757D01*
X2057Y4918D02*
X2045Y4930D01*
X2022D01*
X2010Y4918D01*
Y4872D01*
X2022Y4860D01*
X2045D01*
X2057Y4872D01*
X2080Y4860D02*
X2103D01*
X2092D01*
Y4930D01*
X2080Y4918D01*
X2138Y4860D02*
X2162D01*
X2150D01*
Y4930D01*
X2138Y4918D01*
X2197Y4930D02*
X2243D01*
Y4918D01*
X2197Y4872D01*
Y4860D01*
X702Y3327D02*
X690Y3315D01*
Y3292D01*
X702Y3280D01*
X748D01*
X760Y3292D01*
Y3315D01*
X748Y3327D01*
X760Y3350D02*
Y3373D01*
Y3362D01*
X690D01*
X702Y3350D01*
X760Y3408D02*
Y3432D01*
Y3420D01*
X690D01*
X702Y3408D01*
Y3467D02*
X690Y3478D01*
Y3502D01*
X702Y3513D01*
X713D01*
X725Y3502D01*
X737Y3513D01*
X748D01*
X760Y3502D01*
Y3478D01*
X748Y3467D01*
X737D01*
X725Y3478D01*
X713Y3467D01*
X702D01*
X725Y3478D02*
Y3502D01*
X702Y3757D02*
X690Y3745D01*
Y3722D01*
X702Y3710D01*
X748D01*
X760Y3722D01*
Y3745D01*
X748Y3757D01*
X760Y3780D02*
Y3803D01*
Y3792D01*
X690D01*
X702Y3780D01*
X760Y3838D02*
Y3862D01*
Y3850D01*
X690D01*
X702Y3838D01*
X748Y3897D02*
X760Y3908D01*
Y3932D01*
X748Y3943D01*
X702D01*
X690Y3932D01*
Y3908D01*
X702Y3897D01*
X713D01*
X725Y3908D01*
Y3943D01*
X252Y4657D02*
X240Y4645D01*
Y4622D01*
X252Y4610D01*
X298D01*
X310Y4622D01*
Y4645D01*
X298Y4657D01*
X310Y4680D02*
Y4703D01*
Y4692D01*
X240D01*
X252Y4680D01*
X310Y4785D02*
Y4738D01*
X263Y4785D01*
X252D01*
X240Y4773D01*
Y4750D01*
X252Y4738D01*
X310Y4808D02*
Y4832D01*
Y4820D01*
X240D01*
X252Y4808D01*
X3936Y963D02*
X3925Y952D01*
Y931D01*
X3936Y920D01*
X3979D01*
X3990Y931D01*
Y952D01*
X3979Y963D01*
X3990Y985D02*
Y1007D01*
Y996D01*
X3925D01*
X3936Y985D01*
X3990Y1082D02*
Y1039D01*
X3947Y1082D01*
X3936D01*
X3925Y1072D01*
Y1050D01*
X3936Y1039D01*
X3925Y1104D02*
Y1147D01*
X3936D01*
X3979Y1104D01*
X3990D01*
X4026Y963D02*
X4015Y952D01*
Y931D01*
X4026Y920D01*
X4069D01*
X4080Y931D01*
Y952D01*
X4069Y963D01*
X4080Y985D02*
Y1007D01*
Y996D01*
X4015D01*
X4026Y985D01*
X4080Y1082D02*
Y1039D01*
X4037Y1082D01*
X4026D01*
X4015Y1072D01*
Y1050D01*
X4026Y1039D01*
Y1104D02*
X4015Y1115D01*
Y1137D01*
X4026Y1147D01*
X4037D01*
X4048Y1137D01*
X4058Y1147D01*
X4069D01*
X4080Y1137D01*
Y1115D01*
X4069Y1104D01*
X4058D01*
X4048Y1115D01*
X4037Y1104D01*
X4026D01*
X4048Y1115D02*
Y1137D01*
X4297Y1418D02*
X4285Y1430D01*
X4262D01*
X4250Y1418D01*
Y1372D01*
X4262Y1360D01*
X4285D01*
X4297Y1372D01*
X4320Y1360D02*
X4343D01*
X4332D01*
Y1430D01*
X4320Y1418D01*
X4425Y1360D02*
X4378D01*
X4425Y1407D01*
Y1418D01*
X4413Y1430D01*
X4390D01*
X4378Y1418D01*
X4448Y1372D02*
X4460Y1360D01*
X4483D01*
X4495Y1372D01*
Y1418D01*
X4483Y1430D01*
X4460D01*
X4448Y1418D01*
Y1407D01*
X4460Y1395D01*
X4495D01*
X4017Y3748D02*
X4005Y3760D01*
X3982D01*
X3970Y3748D01*
Y3702D01*
X3982Y3690D01*
X4005D01*
X4017Y3702D01*
X4040Y3690D02*
X4063D01*
X4052D01*
Y3760D01*
X4040Y3748D01*
X4098D02*
X4110Y3760D01*
X4133D01*
X4145Y3748D01*
Y3737D01*
X4133Y3725D01*
X4122D01*
X4133D01*
X4145Y3713D01*
Y3702D01*
X4133Y3690D01*
X4110D01*
X4098Y3702D01*
X4168Y3748D02*
X4180Y3760D01*
X4203D01*
X4215Y3748D01*
Y3702D01*
X4203Y3690D01*
X4180D01*
X4168Y3702D01*
Y3748D01*
X4207Y3988D02*
X4195Y4000D01*
X4172D01*
X4160Y3988D01*
Y3942D01*
X4172Y3930D01*
X4195D01*
X4207Y3942D01*
X4230Y3930D02*
X4253D01*
X4242D01*
Y4000D01*
X4230Y3988D01*
X4288D02*
X4300Y4000D01*
X4323D01*
X4335Y3988D01*
Y3977D01*
X4323Y3965D01*
X4312D01*
X4323D01*
X4335Y3953D01*
Y3942D01*
X4323Y3930D01*
X4300D01*
X4288Y3942D01*
X4358Y3930D02*
X4382D01*
X4370D01*
Y4000D01*
X4358Y3988D01*
X4017Y3838D02*
X4005Y3850D01*
X3982D01*
X3970Y3838D01*
Y3792D01*
X3982Y3780D01*
X4005D01*
X4017Y3792D01*
X4040Y3780D02*
X4063D01*
X4052D01*
Y3850D01*
X4040Y3838D01*
X4098D02*
X4110Y3850D01*
X4133D01*
X4145Y3838D01*
Y3827D01*
X4133Y3815D01*
X4122D01*
X4133D01*
X4145Y3803D01*
Y3792D01*
X4133Y3780D01*
X4110D01*
X4098Y3792D01*
X4168Y3838D02*
X4180Y3850D01*
X4203D01*
X4215Y3838D01*
Y3827D01*
X4203Y3815D01*
X4192D01*
X4203D01*
X4215Y3803D01*
Y3792D01*
X4203Y3780D01*
X4180D01*
X4168Y3792D01*
X2017Y4218D02*
X2005Y4230D01*
X1982D01*
X1970Y4218D01*
Y4172D01*
X1982Y4160D01*
X2005D01*
X2017Y4172D01*
X2040Y4160D02*
X2063D01*
X2052D01*
Y4230D01*
X2040Y4218D01*
X2098D02*
X2110Y4230D01*
X2133D01*
X2145Y4218D01*
Y4207D01*
X2133Y4195D01*
X2122D01*
X2133D01*
X2145Y4183D01*
Y4172D01*
X2133Y4160D01*
X2110D01*
X2098Y4172D01*
X2168Y4218D02*
X2180Y4230D01*
X2203D01*
X2215Y4218D01*
Y4207D01*
X2203Y4195D01*
X2215Y4183D01*
Y4172D01*
X2203Y4160D01*
X2180D01*
X2168Y4172D01*
Y4183D01*
X2180Y4195D01*
X2168Y4207D01*
Y4218D01*
X2180Y4195D02*
X2203D01*
X2506Y3283D02*
X2495Y3272D01*
Y3251D01*
X2506Y3240D01*
X2549D01*
X2560Y3251D01*
Y3272D01*
X2549Y3283D01*
X2560Y3305D02*
Y3327D01*
Y3316D01*
X2495D01*
X2506Y3305D01*
Y3359D02*
X2495Y3370D01*
Y3392D01*
X2506Y3402D01*
X2517D01*
X2528Y3392D01*
Y3381D01*
Y3392D01*
X2538Y3402D01*
X2549D01*
X2560Y3392D01*
Y3370D01*
X2549Y3359D01*
Y3424D02*
X2560Y3435D01*
Y3457D01*
X2549Y3467D01*
X2506D01*
X2495Y3457D01*
Y3435D01*
X2506Y3424D01*
X2517D01*
X2528Y3435D01*
Y3467D01*
X2897Y3318D02*
X2885Y3330D01*
X2862D01*
X2850Y3318D01*
Y3272D01*
X2862Y3260D01*
X2885D01*
X2897Y3272D01*
X2920Y3260D02*
X2943D01*
X2932D01*
Y3330D01*
X2920Y3318D01*
X3013Y3260D02*
Y3330D01*
X2978Y3295D01*
X3025D01*
X3048Y3260D02*
X3072D01*
X3060D01*
Y3330D01*
X3048Y3318D01*
X3212Y3567D02*
X3200Y3555D01*
Y3532D01*
X3212Y3520D01*
X3258D01*
X3270Y3532D01*
Y3555D01*
X3258Y3567D01*
X3270Y3590D02*
Y3613D01*
Y3602D01*
X3200D01*
X3212Y3590D01*
X3270Y3683D02*
X3200D01*
X3235Y3648D01*
Y3695D01*
X3270Y3765D02*
Y3718D01*
X3223Y3765D01*
X3212D01*
X3200Y3753D01*
Y3730D01*
X3212Y3718D01*
X2852Y3417D02*
X2840Y3405D01*
Y3382D01*
X2852Y3370D01*
X2898D01*
X2910Y3382D01*
Y3405D01*
X2898Y3417D01*
X2910Y3440D02*
Y3463D01*
Y3452D01*
X2840D01*
X2852Y3440D01*
X2910Y3533D02*
X2840D01*
X2875Y3498D01*
Y3545D01*
X2910Y3603D02*
X2840D01*
X2875Y3568D01*
Y3615D01*
X2447Y3998D02*
X2435Y4010D01*
X2412D01*
X2400Y3998D01*
Y3952D01*
X2412Y3940D01*
X2435D01*
X2447Y3952D01*
X2470Y3940D02*
X2493D01*
X2482D01*
Y4010D01*
X2470Y3998D01*
X2563Y3940D02*
Y4010D01*
X2528Y3975D01*
X2575D01*
X2645Y4010D02*
X2598D01*
Y3975D01*
X2622Y3987D01*
X2633D01*
X2645Y3975D01*
Y3952D01*
X2633Y3940D01*
X2610D01*
X2598Y3952D01*
X1416Y3043D02*
X1405Y3032D01*
Y3011D01*
X1416Y3000D01*
X1459D01*
X1470Y3011D01*
Y3032D01*
X1459Y3043D01*
X1470Y3065D02*
Y3087D01*
Y3076D01*
X1405D01*
X1416Y3065D01*
X1470Y3152D02*
X1405D01*
X1438Y3119D01*
Y3162D01*
X1405Y3227D02*
X1416Y3206D01*
X1438Y3184D01*
X1459D01*
X1470Y3195D01*
Y3217D01*
X1459Y3227D01*
X1448D01*
X1438Y3217D01*
Y3184D01*
X1616Y3183D02*
X1605Y3172D01*
Y3151D01*
X1616Y3140D01*
X1659D01*
X1670Y3151D01*
Y3172D01*
X1659Y3183D01*
X1670Y3205D02*
Y3227D01*
Y3216D01*
X1605D01*
X1616Y3205D01*
X1670Y3292D02*
X1605D01*
X1638Y3259D01*
Y3302D01*
X1605Y3324D02*
Y3367D01*
X1616D01*
X1659Y3324D01*
X1670D01*
X1616Y3453D02*
X1605Y3442D01*
Y3421D01*
X1616Y3410D01*
X1659D01*
X1670Y3421D01*
Y3442D01*
X1659Y3453D01*
X1670Y3475D02*
Y3497D01*
Y3486D01*
X1605D01*
X1616Y3475D01*
X1670Y3562D02*
X1605D01*
X1638Y3529D01*
Y3572D01*
X1616Y3594D02*
X1605Y3605D01*
Y3627D01*
X1616Y3637D01*
X1627D01*
X1638Y3627D01*
X1648Y3637D01*
X1659D01*
X1670Y3627D01*
Y3605D01*
X1659Y3594D01*
X1648D01*
X1638Y3605D01*
X1627Y3594D01*
X1616D01*
X1638Y3605D02*
Y3627D01*
X2147Y3098D02*
X2135Y3110D01*
X2112D01*
X2100Y3098D01*
Y3052D01*
X2112Y3040D01*
X2135D01*
X2147Y3052D01*
X2170Y3040D02*
X2193D01*
X2182D01*
Y3110D01*
X2170Y3098D01*
X2263Y3040D02*
Y3110D01*
X2228Y3075D01*
X2275D01*
X2298Y3052D02*
X2310Y3040D01*
X2333D01*
X2345Y3052D01*
Y3098D01*
X2333Y3110D01*
X2310D01*
X2298Y3098D01*
Y3087D01*
X2310Y3075D01*
X2345D01*
X3547Y3518D02*
X3535Y3530D01*
X3512D01*
X3500Y3518D01*
Y3472D01*
X3512Y3460D01*
X3535D01*
X3547Y3472D01*
X3570Y3460D02*
X3593D01*
X3582D01*
Y3530D01*
X3570Y3518D01*
X3675Y3530D02*
X3628D01*
Y3495D01*
X3652Y3507D01*
X3663D01*
X3675Y3495D01*
Y3472D01*
X3663Y3460D01*
X3640D01*
X3628Y3472D01*
X3745Y3460D02*
X3698D01*
X3745Y3507D01*
Y3518D01*
X3733Y3530D01*
X3710D01*
X3698Y3518D01*
X4630Y4240D02*
Y4170D01*
X4665D01*
X4677Y4182D01*
Y4228D01*
X4665Y4240D01*
X4630D01*
X4700Y4170D02*
X4723D01*
X4712D01*
Y4240D01*
X4700Y4228D01*
X710Y3130D02*
X780D01*
Y3165D01*
X768Y3177D01*
X722D01*
X710Y3165D01*
Y3130D01*
Y3247D02*
X722Y3223D01*
X745Y3200D01*
X768D01*
X780Y3212D01*
Y3235D01*
X768Y3247D01*
X757D01*
X745Y3235D01*
Y3200D01*
X740Y3560D02*
X810D01*
Y3595D01*
X798Y3607D01*
X752D01*
X740Y3595D01*
Y3560D01*
Y3630D02*
Y3677D01*
X752D01*
X798Y3630D01*
X810D01*
X1180Y3540D02*
Y3470D01*
X1215D01*
X1227Y3482D01*
Y3528D01*
X1215Y3540D01*
X1180D01*
X1250Y3528D02*
X1262Y3540D01*
X1285D01*
X1297Y3528D01*
Y3517D01*
X1285Y3505D01*
X1297Y3493D01*
Y3482D01*
X1285Y3470D01*
X1262D01*
X1250Y3482D01*
Y3493D01*
X1262Y3505D01*
X1250Y3517D01*
Y3528D01*
X1262Y3505D02*
X1285D01*
X960Y3080D02*
Y3010D01*
X995D01*
X1007Y3022D01*
Y3068D01*
X995Y3080D01*
X960D01*
X1030Y3022D02*
X1042Y3010D01*
X1065D01*
X1077Y3022D01*
Y3068D01*
X1065Y3080D01*
X1042D01*
X1030Y3068D01*
Y3057D01*
X1042Y3045D01*
X1077D01*
X1180Y3080D02*
Y3010D01*
X1215D01*
X1227Y3022D01*
Y3068D01*
X1215Y3080D01*
X1180D01*
X1250Y3010D02*
X1273D01*
X1262D01*
Y3080D01*
X1250Y3068D01*
X1308Y3010D02*
X1332D01*
X1320D01*
Y3080D01*
X1308Y3068D01*
X4270Y117D02*
Y70D01*
X4340D01*
Y117D01*
X4305Y70D02*
Y93D01*
X4282Y187D02*
X4270Y175D01*
Y152D01*
X4282Y140D01*
X4293D01*
X4305Y152D01*
Y175D01*
X4317Y187D01*
X4328D01*
X4340Y175D01*
Y152D01*
X4328Y140D01*
X4340Y210D02*
X4270D01*
Y245D01*
X4282Y257D01*
X4305D01*
X4317Y245D01*
Y210D01*
X4340Y280D02*
Y303D01*
Y292D01*
X4270D01*
X4282Y280D01*
X3470Y4910D02*
Y4840D01*
X3517D01*
X3540D02*
X3563D01*
X3552D01*
Y4910D01*
X3540Y4898D01*
X3580Y3660D02*
Y3590D01*
X3627D01*
X3650Y3648D02*
X3662Y3660D01*
X3685D01*
X3697Y3648D01*
Y3637D01*
X3685Y3625D01*
X3673D01*
X3685D01*
X3697Y3613D01*
Y3602D01*
X3685Y3590D01*
X3662D01*
X3650Y3602D01*
X4905Y680D02*
X4970D01*
Y723D01*
X4905Y745D02*
X4970D01*
Y777D01*
X4959Y788D01*
X4916D01*
X4905Y777D01*
Y745D01*
X4970Y810D02*
Y832D01*
Y821D01*
X4905D01*
X4916Y810D01*
X70Y4560D02*
Y4630D01*
X105D01*
X117Y4618D01*
Y4595D01*
X105Y4583D01*
X70D01*
X140Y4560D02*
X163D01*
X152D01*
Y4630D01*
X140Y4618D01*
X1160Y240D02*
Y310D01*
X1195D01*
X1207Y298D01*
Y275D01*
X1195Y263D01*
X1160D01*
X1277Y240D02*
X1230D01*
X1277Y287D01*
Y298D01*
X1265Y310D01*
X1242D01*
X1230Y298D01*
X3200Y4480D02*
Y4550D01*
X3235D01*
X3247Y4538D01*
Y4515D01*
X3235Y4503D01*
X3200D01*
X3270Y4538D02*
X3282Y4550D01*
X3305D01*
X3317Y4538D01*
Y4527D01*
X3305Y4515D01*
X3293D01*
X3305D01*
X3317Y4503D01*
Y4492D01*
X3305Y4480D01*
X3282D01*
X3270Y4492D01*
X4550Y4510D02*
Y4580D01*
X4585D01*
X4597Y4568D01*
Y4545D01*
X4585Y4533D01*
X4550D01*
X4655Y4510D02*
Y4580D01*
X4620Y4545D01*
X4667D01*
X570Y3050D02*
Y3120D01*
X605D01*
X617Y3108D01*
Y3085D01*
X605Y3073D01*
X570D01*
X640Y3108D02*
X652Y3120D01*
X675D01*
X687Y3108D01*
Y3097D01*
X675Y3085D01*
X687Y3073D01*
Y3062D01*
X675Y3050D01*
X652D01*
X640Y3062D01*
Y3073D01*
X652Y3085D01*
X640Y3097D01*
Y3108D01*
X652Y3085D02*
X675D01*
X4320Y350D02*
X4250D01*
Y385D01*
X4262Y397D01*
X4285D01*
X4297Y385D01*
Y350D01*
X4308Y420D02*
X4320Y432D01*
Y455D01*
X4308Y467D01*
X4262D01*
X4250Y455D01*
Y432D01*
X4262Y420D01*
X4273D01*
X4285Y432D01*
Y467D01*
X4627Y3632D02*
Y3678D01*
X4615Y3690D01*
X4592D01*
X4580Y3678D01*
Y3632D01*
X4592Y3620D01*
X4615D01*
X4603Y3643D02*
X4627Y3620D01*
X4615D02*
X4627Y3632D01*
X4697Y3620D02*
X4650D01*
X4697Y3667D01*
Y3678D01*
X4685Y3690D01*
X4662D01*
X4650Y3678D01*
X2950Y1790D02*
Y1830D01*
X2940Y1840D01*
X2920D01*
X2910Y1830D01*
Y1790D01*
X2920Y1780D01*
X2940D01*
X2930Y1800D02*
X2950Y1780D01*
X2940D02*
X2950Y1790D01*
X3010Y1840D02*
X2990Y1830D01*
X2970Y1810D01*
Y1790D01*
X2980Y1780D01*
X3000D01*
X3010Y1790D01*
Y1800D01*
X3000Y1810D01*
X2970D01*
X3190Y1790D02*
Y1830D01*
X3180Y1840D01*
X3160D01*
X3150Y1830D01*
Y1790D01*
X3160Y1780D01*
X3180D01*
X3170Y1800D02*
X3190Y1780D01*
X3180D02*
X3190Y1790D01*
X3210Y1840D02*
X3250D01*
Y1830D01*
X3210Y1790D01*
Y1780D01*
X2040Y2180D02*
X2000D01*
X1990Y2170D01*
Y2150D01*
X2000Y2140D01*
X2040D01*
X2050Y2150D01*
Y2170D01*
X2030Y2160D02*
X2050Y2180D01*
Y2170D02*
X2040Y2180D01*
X2000Y2200D02*
X1990Y2210D01*
Y2230D01*
X2000Y2240D01*
X2010D01*
X2020Y2230D01*
X2030Y2240D01*
X2040D01*
X2050Y2230D01*
Y2210D01*
X2040Y2200D01*
X2030D01*
X2020Y2210D01*
X2010Y2200D01*
X2000D01*
X2020Y2210D02*
Y2230D01*
X3540Y2980D02*
X3470D01*
Y3015D01*
X3482Y3027D01*
X3505D01*
X3517Y3015D01*
Y2980D01*
Y3003D02*
X3540Y3027D01*
Y3050D02*
Y3073D01*
Y3062D01*
X3470D01*
X3482Y3050D01*
X3640Y2980D02*
X3570D01*
Y3015D01*
X3582Y3027D01*
X3605D01*
X3617Y3015D01*
Y2980D01*
Y3003D02*
X3640Y3027D01*
Y3097D02*
Y3050D01*
X3593Y3097D01*
X3582D01*
X3570Y3085D01*
Y3062D01*
X3582Y3050D01*
X2330Y2640D02*
X2270D01*
Y2670D01*
X2280Y2680D01*
X2300D01*
X2310Y2670D01*
Y2640D01*
Y2660D02*
X2330Y2680D01*
X2280Y2700D02*
X2270Y2710D01*
Y2730D01*
X2280Y2740D01*
X2290D01*
X2300Y2730D01*
Y2720D01*
Y2730D01*
X2310Y2740D01*
X2320D01*
X2330Y2730D01*
Y2710D01*
X2320Y2700D01*
X2410Y2620D02*
X2350D01*
Y2650D01*
X2360Y2660D01*
X2380D01*
X2390Y2650D01*
Y2620D01*
Y2640D02*
X2410Y2660D01*
Y2710D02*
X2350D01*
X2380Y2680D01*
Y2720D01*
X3280Y3290D02*
X3210D01*
Y3325D01*
X3222Y3337D01*
X3245D01*
X3257Y3325D01*
Y3290D01*
Y3313D02*
X3280Y3337D01*
X3210Y3407D02*
Y3360D01*
X3245D01*
X3233Y3383D01*
Y3395D01*
X3245Y3407D01*
X3268D01*
X3280Y3395D01*
Y3372D01*
X3268Y3360D01*
X1840Y2810D02*
Y2880D01*
X1875D01*
X1887Y2868D01*
Y2845D01*
X1875Y2833D01*
X1840D01*
X1863D02*
X1887Y2810D01*
X1957Y2880D02*
X1933Y2868D01*
X1910Y2845D01*
Y2822D01*
X1922Y2810D01*
X1945D01*
X1957Y2822D01*
Y2833D01*
X1945Y2845D01*
X1910D01*
X3950Y2260D02*
Y2325D01*
X3982D01*
X3993Y2314D01*
Y2292D01*
X3982Y2282D01*
X3950D01*
X3972D02*
X3993Y2260D01*
X4015Y2325D02*
X4058D01*
Y2314D01*
X4015Y2271D01*
Y2260D01*
X4070Y1210D02*
X4000D01*
Y1245D01*
X4012Y1257D01*
X4035D01*
X4047Y1245D01*
Y1210D01*
Y1233D02*
X4070Y1257D01*
X4012Y1280D02*
X4000Y1292D01*
Y1315D01*
X4012Y1327D01*
X4023D01*
X4035Y1315D01*
X4047Y1327D01*
X4058D01*
X4070Y1315D01*
Y1292D01*
X4058Y1280D01*
X4047D01*
X4035Y1292D01*
X4023Y1280D01*
X4012D01*
X4035Y1292D02*
Y1315D01*
X4070Y1370D02*
X4000D01*
Y1405D01*
X4012Y1417D01*
X4035D01*
X4047Y1405D01*
Y1370D01*
Y1393D02*
X4070Y1417D01*
X4058Y1440D02*
X4070Y1452D01*
Y1475D01*
X4058Y1487D01*
X4012D01*
X4000Y1475D01*
Y1452D01*
X4012Y1440D01*
X4023D01*
X4035Y1452D01*
Y1487D01*
X2710Y1100D02*
Y1170D01*
X2745D01*
X2757Y1158D01*
Y1135D01*
X2745Y1123D01*
X2710D01*
X2733D02*
X2757Y1100D01*
X2780D02*
X2803D01*
X2792D01*
Y1170D01*
X2780Y1158D01*
X2838D02*
X2850Y1170D01*
X2873D01*
X2885Y1158D01*
Y1147D01*
X2873Y1135D01*
X2862D01*
X2873D01*
X2885Y1123D01*
Y1112D01*
X2873Y1100D01*
X2850D01*
X2838Y1112D01*
X3900Y920D02*
X3835D01*
Y952D01*
X3846Y963D01*
X3868D01*
X3878Y952D01*
Y920D01*
Y942D02*
X3900Y963D01*
Y985D02*
Y1007D01*
Y996D01*
X3835D01*
X3846Y985D01*
Y1039D02*
X3835Y1050D01*
Y1072D01*
X3846Y1082D01*
X3857D01*
X3868Y1072D01*
X3878Y1082D01*
X3889D01*
X3900Y1072D01*
Y1050D01*
X3889Y1039D01*
X3878D01*
X3868Y1050D01*
X3857Y1039D01*
X3846D01*
X3868Y1050D02*
Y1072D01*
X4940Y3490D02*
X4870D01*
Y3525D01*
X4882Y3537D01*
X4905D01*
X4917Y3525D01*
Y3490D01*
Y3513D02*
X4940Y3537D01*
Y3607D02*
Y3560D01*
X4893Y3607D01*
X4882D01*
X4870Y3595D01*
Y3572D01*
X4882Y3560D01*
X4870Y3630D02*
Y3677D01*
X4882D01*
X4928Y3630D01*
X4940D01*
X2070Y720D02*
X2005D01*
Y752D01*
X2016Y763D01*
X2038D01*
X2048Y752D01*
Y720D01*
Y742D02*
X2070Y763D01*
Y828D02*
Y785D01*
X2027Y828D01*
X2016D01*
X2005Y817D01*
Y796D01*
X2016Y785D01*
X2059Y850D02*
X2070Y861D01*
Y882D01*
X2059Y893D01*
X2016D01*
X2005Y882D01*
Y861D01*
X2016Y850D01*
X2027D01*
X2038Y861D01*
Y893D01*
X4570Y60D02*
Y130D01*
X4605D01*
X4617Y118D01*
Y95D01*
X4605Y83D01*
X4570D01*
X4593D02*
X4617Y60D01*
X4640Y118D02*
X4652Y130D01*
X4675D01*
X4687Y118D01*
Y107D01*
X4675Y95D01*
X4663D01*
X4675D01*
X4687Y83D01*
Y72D01*
X4675Y60D01*
X4652D01*
X4640Y72D01*
X4710Y118D02*
X4722Y130D01*
X4745D01*
X4757Y118D01*
Y72D01*
X4745Y60D01*
X4722D01*
X4710Y72D01*
Y118D01*
X4380Y30D02*
Y100D01*
X4415D01*
X4427Y88D01*
Y65D01*
X4415Y53D01*
X4380D01*
X4403D02*
X4427Y30D01*
X4450Y88D02*
X4462Y100D01*
X4485D01*
X4497Y88D01*
Y77D01*
X4485Y65D01*
X4473D01*
X4485D01*
X4497Y53D01*
Y42D01*
X4485Y30D01*
X4462D01*
X4450Y42D01*
X4520Y30D02*
X4543D01*
X4532D01*
Y100D01*
X4520Y88D01*
X4700Y160D02*
X4630D01*
Y195D01*
X4642Y207D01*
X4665D01*
X4677Y195D01*
Y160D01*
Y183D02*
X4700Y207D01*
X4642Y230D02*
X4630Y242D01*
Y265D01*
X4642Y277D01*
X4653D01*
X4665Y265D01*
Y253D01*
Y265D01*
X4677Y277D01*
X4688D01*
X4700Y265D01*
Y242D01*
X4688Y230D01*
X4700Y347D02*
Y300D01*
X4653Y347D01*
X4642D01*
X4630Y335D01*
Y312D01*
X4642Y300D01*
X2160Y720D02*
X2095D01*
Y752D01*
X2106Y763D01*
X2128D01*
X2138Y752D01*
Y720D01*
Y742D02*
X2160Y763D01*
X2106Y785D02*
X2095Y796D01*
Y817D01*
X2106Y828D01*
X2117D01*
X2128Y817D01*
Y807D01*
Y817D01*
X2138Y828D01*
X2149D01*
X2160Y817D01*
Y796D01*
X2149Y785D01*
X2095Y893D02*
X2106Y872D01*
X2128Y850D01*
X2149D01*
X2160Y861D01*
Y882D01*
X2149Y893D01*
X2138D01*
X2128Y882D01*
Y850D01*
X2250Y720D02*
X2185D01*
Y752D01*
X2196Y763D01*
X2218D01*
X2228Y752D01*
Y720D01*
Y742D02*
X2250Y763D01*
X2196Y785D02*
X2185Y796D01*
Y817D01*
X2196Y828D01*
X2207D01*
X2218Y817D01*
Y807D01*
Y817D01*
X2228Y828D01*
X2239D01*
X2250Y817D01*
Y796D01*
X2239Y785D01*
X2185Y850D02*
Y893D01*
X2196D01*
X2239Y850D01*
X2250D01*
X2340Y720D02*
X2275D01*
Y752D01*
X2286Y763D01*
X2308D01*
X2318Y752D01*
Y720D01*
Y742D02*
X2340Y763D01*
X2286Y785D02*
X2275Y796D01*
Y817D01*
X2286Y828D01*
X2297D01*
X2308Y817D01*
Y807D01*
Y817D01*
X2318Y828D01*
X2329D01*
X2340Y817D01*
Y796D01*
X2329Y785D01*
X2286Y850D02*
X2275Y861D01*
Y882D01*
X2286Y893D01*
X2297D01*
X2308Y882D01*
X2318Y893D01*
X2329D01*
X2340Y882D01*
Y861D01*
X2329Y850D01*
X2318D01*
X2308Y861D01*
X2297Y850D01*
X2286D01*
X2308Y861D02*
Y882D01*
X2620Y350D02*
Y420D01*
X2655D01*
X2667Y408D01*
Y385D01*
X2655Y373D01*
X2620D01*
X2643D02*
X2667Y350D01*
X2690Y408D02*
X2702Y420D01*
X2725D01*
X2737Y408D01*
Y397D01*
X2725Y385D01*
X2713D01*
X2725D01*
X2737Y373D01*
Y362D01*
X2725Y350D01*
X2702D01*
X2690Y362D01*
X2760D02*
X2772Y350D01*
X2795D01*
X2807Y362D01*
Y408D01*
X2795Y420D01*
X2772D01*
X2760Y408D01*
Y397D01*
X2772Y385D01*
X2807D01*
X2620Y250D02*
Y320D01*
X2655D01*
X2667Y308D01*
Y285D01*
X2655Y273D01*
X2620D01*
X2643D02*
X2667Y250D01*
X2725D02*
Y320D01*
X2690Y285D01*
X2737D01*
X2760Y308D02*
X2772Y320D01*
X2795D01*
X2807Y308D01*
Y262D01*
X2795Y250D01*
X2772D01*
X2760Y262D01*
Y308D01*
X2620Y150D02*
Y220D01*
X2655D01*
X2667Y208D01*
Y185D01*
X2655Y173D01*
X2620D01*
X2643D02*
X2667Y150D01*
X2725D02*
Y220D01*
X2690Y185D01*
X2737D01*
X2760Y150D02*
X2783D01*
X2772D01*
Y220D01*
X2760Y208D01*
X2620Y50D02*
Y120D01*
X2655D01*
X2667Y108D01*
Y85D01*
X2655Y73D01*
X2620D01*
X2643D02*
X2667Y50D01*
X2725D02*
Y120D01*
X2690Y85D01*
X2737D01*
X2807Y50D02*
X2760D01*
X2807Y97D01*
Y108D01*
X2795Y120D01*
X2772D01*
X2760Y108D01*
X3170Y1360D02*
X3110D01*
Y1390D01*
X3120Y1400D01*
X3140D01*
X3150Y1390D01*
Y1360D01*
Y1380D02*
X3170Y1400D01*
X3110Y1460D02*
Y1420D01*
X3140D01*
X3130Y1440D01*
Y1450D01*
X3140Y1460D01*
X3160D01*
X3170Y1450D01*
Y1430D01*
X3160Y1420D01*
X3110Y1480D02*
Y1520D01*
X3120D01*
X3160Y1480D01*
X3170D01*
X3080Y1360D02*
X3020D01*
Y1390D01*
X3030Y1400D01*
X3050D01*
X3060Y1390D01*
Y1360D01*
Y1380D02*
X3080Y1400D01*
X3020Y1460D02*
Y1420D01*
X3050D01*
X3040Y1440D01*
Y1450D01*
X3050Y1460D01*
X3070D01*
X3080Y1450D01*
Y1430D01*
X3070Y1420D01*
X3030Y1480D02*
X3020Y1490D01*
Y1510D01*
X3030Y1520D01*
X3040D01*
X3050Y1510D01*
X3060Y1520D01*
X3070D01*
X3080Y1510D01*
Y1490D01*
X3070Y1480D01*
X3060D01*
X3050Y1490D01*
X3040Y1480D01*
X3030D01*
X3050Y1490D02*
Y1510D01*
X3900Y1300D02*
X3830D01*
Y1335D01*
X3842Y1347D01*
X3865D01*
X3877Y1335D01*
Y1300D01*
Y1323D02*
X3900Y1347D01*
X3830Y1417D02*
Y1370D01*
X3865D01*
X3853Y1393D01*
Y1405D01*
X3865Y1417D01*
X3888D01*
X3900Y1405D01*
Y1382D01*
X3888Y1370D01*
Y1440D02*
X3900Y1452D01*
Y1475D01*
X3888Y1487D01*
X3842D01*
X3830Y1475D01*
Y1452D01*
X3842Y1440D01*
X3853D01*
X3865Y1452D01*
Y1487D01*
X3590Y1440D02*
Y1510D01*
X3625D01*
X3637Y1498D01*
Y1475D01*
X3625Y1463D01*
X3590D01*
X3613D02*
X3637Y1440D01*
X3707Y1510D02*
X3683Y1498D01*
X3660Y1475D01*
Y1452D01*
X3672Y1440D01*
X3695D01*
X3707Y1452D01*
Y1463D01*
X3695Y1475D01*
X3660D01*
X3730Y1498D02*
X3742Y1510D01*
X3765D01*
X3777Y1498D01*
Y1452D01*
X3765Y1440D01*
X3742D01*
X3730Y1452D01*
Y1498D01*
X2330Y2420D02*
X2265D01*
Y2452D01*
X2276Y2463D01*
X2298D01*
X2308Y2452D01*
Y2420D01*
Y2442D02*
X2330Y2463D01*
X2265Y2485D02*
Y2528D01*
X2276D01*
X2319Y2485D01*
X2330D01*
X2276Y2550D02*
X2265Y2561D01*
Y2582D01*
X2276Y2593D01*
X2319D01*
X2330Y2582D01*
Y2561D01*
X2319Y2550D01*
X2276D01*
X2040Y1870D02*
Y1930D01*
X2070D01*
X2080Y1920D01*
Y1900D01*
X2070Y1890D01*
X2040D01*
X2060D02*
X2080Y1870D01*
X2100Y1920D02*
X2110Y1930D01*
X2130D01*
X2140Y1920D01*
Y1910D01*
X2130Y1900D01*
X2140Y1890D01*
Y1880D01*
X2130Y1870D01*
X2110D01*
X2100Y1880D01*
Y1890D01*
X2110Y1900D01*
X2100Y1910D01*
Y1920D01*
X2110Y1900D02*
X2130D01*
X2160Y1870D02*
X2180D01*
X2170D01*
Y1930D01*
X2160Y1920D01*
X2010Y2600D02*
X1940D01*
Y2635D01*
X1952Y2647D01*
X1975D01*
X1987Y2635D01*
Y2600D01*
Y2623D02*
X2010Y2647D01*
X1952Y2670D02*
X1940Y2682D01*
Y2705D01*
X1952Y2717D01*
X1963D01*
X1975Y2705D01*
X1987Y2717D01*
X1998D01*
X2010Y2705D01*
Y2682D01*
X1998Y2670D01*
X1987D01*
X1975Y2682D01*
X1963Y2670D01*
X1952D01*
X1975Y2682D02*
Y2705D01*
X2010Y2787D02*
Y2740D01*
X1963Y2787D01*
X1952D01*
X1940Y2775D01*
Y2752D01*
X1952Y2740D01*
X830Y2410D02*
Y2480D01*
X865D01*
X877Y2468D01*
Y2445D01*
X865Y2433D01*
X830D01*
X853D02*
X877Y2410D01*
X900Y2468D02*
X912Y2480D01*
X935D01*
X947Y2468D01*
Y2457D01*
X935Y2445D01*
X947Y2433D01*
Y2422D01*
X935Y2410D01*
X912D01*
X900Y2422D01*
Y2433D01*
X912Y2445D01*
X900Y2457D01*
Y2468D01*
X912Y2445D02*
X935D01*
X970Y2468D02*
X982Y2480D01*
X1005D01*
X1017Y2468D01*
Y2457D01*
X1005Y2445D01*
X993D01*
X1005D01*
X1017Y2433D01*
Y2422D01*
X1005Y2410D01*
X982D01*
X970Y2422D01*
X830Y2510D02*
Y2580D01*
X865D01*
X877Y2568D01*
Y2545D01*
X865Y2533D01*
X830D01*
X853D02*
X877Y2510D01*
X900Y2568D02*
X912Y2580D01*
X935D01*
X947Y2568D01*
Y2557D01*
X935Y2545D01*
X947Y2533D01*
Y2522D01*
X935Y2510D01*
X912D01*
X900Y2522D01*
Y2533D01*
X912Y2545D01*
X900Y2557D01*
Y2568D01*
X912Y2545D02*
X935D01*
X1005Y2510D02*
Y2580D01*
X970Y2545D01*
X1017D01*
X780Y2140D02*
Y2210D01*
X815D01*
X827Y2198D01*
Y2175D01*
X815Y2163D01*
X780D01*
X803D02*
X827Y2140D01*
X850Y2198D02*
X862Y2210D01*
X885D01*
X897Y2198D01*
Y2187D01*
X885Y2175D01*
X897Y2163D01*
Y2152D01*
X885Y2140D01*
X862D01*
X850Y2152D01*
Y2163D01*
X862Y2175D01*
X850Y2187D01*
Y2198D01*
X862Y2175D02*
X885D01*
X967Y2210D02*
X920D01*
Y2175D01*
X943Y2187D01*
X955D01*
X967Y2175D01*
Y2152D01*
X955Y2140D01*
X932D01*
X920Y2152D01*
X1650Y1950D02*
X1580D01*
Y1985D01*
X1592Y1997D01*
X1615D01*
X1627Y1985D01*
Y1950D01*
Y1973D02*
X1650Y1997D01*
X1592Y2020D02*
X1580Y2032D01*
Y2055D01*
X1592Y2067D01*
X1603D01*
X1615Y2055D01*
X1627Y2067D01*
X1638D01*
X1650Y2055D01*
Y2032D01*
X1638Y2020D01*
X1627D01*
X1615Y2032D01*
X1603Y2020D01*
X1592D01*
X1615Y2032D02*
Y2055D01*
X1592Y2090D02*
X1580Y2102D01*
Y2125D01*
X1592Y2137D01*
X1603D01*
X1615Y2125D01*
X1627Y2137D01*
X1638D01*
X1650Y2125D01*
Y2102D01*
X1638Y2090D01*
X1627D01*
X1615Y2102D01*
X1603Y2090D01*
X1592D01*
X1615Y2102D02*
Y2125D01*
X2820Y2540D02*
X2750D01*
Y2575D01*
X2762Y2587D01*
X2785D01*
X2797Y2575D01*
Y2540D01*
Y2563D02*
X2820Y2587D01*
X2808Y2610D02*
X2820Y2622D01*
Y2645D01*
X2808Y2657D01*
X2762D01*
X2750Y2645D01*
Y2622D01*
X2762Y2610D01*
X2773D01*
X2785Y2622D01*
Y2657D01*
X2820Y2680D02*
Y2703D01*
Y2692D01*
X2750D01*
X2762Y2680D01*
X3080Y1000D02*
X3020D01*
Y1030D01*
X3030Y1040D01*
X3050D01*
X3060Y1030D01*
Y1000D01*
Y1020D02*
X3080Y1040D01*
X3070Y1060D02*
X3080Y1070D01*
Y1090D01*
X3070Y1100D01*
X3030D01*
X3020Y1090D01*
Y1070D01*
X3030Y1060D01*
X3040D01*
X3050Y1070D01*
Y1100D01*
X3080Y1160D02*
Y1120D01*
X3040Y1160D01*
X3030D01*
X3020Y1150D01*
Y1130D01*
X3030Y1120D01*
X2680Y2070D02*
Y2130D01*
X2710D01*
X2720Y2120D01*
Y2100D01*
X2710Y2090D01*
X2680D01*
X2700D02*
X2720Y2070D01*
X2740Y2080D02*
X2750Y2070D01*
X2770D01*
X2780Y2080D01*
Y2120D01*
X2770Y2130D01*
X2750D01*
X2740Y2120D01*
Y2110D01*
X2750Y2100D01*
X2780D01*
X2800Y2120D02*
X2810Y2130D01*
X2830D01*
X2840Y2120D01*
Y2110D01*
X2830Y2100D01*
X2820D01*
X2830D01*
X2840Y2090D01*
Y2080D01*
X2830Y2070D01*
X2810D01*
X2800Y2080D01*
X4450Y1230D02*
Y1300D01*
X4485D01*
X4497Y1288D01*
Y1265D01*
X4485Y1253D01*
X4450D01*
X4473D02*
X4497Y1230D01*
X4520D02*
X4543D01*
X4532D01*
Y1300D01*
X4520Y1288D01*
X4578D02*
X4590Y1300D01*
X4613D01*
X4625Y1288D01*
Y1242D01*
X4613Y1230D01*
X4590D01*
X4578Y1242D01*
Y1288D01*
X4683Y1230D02*
Y1300D01*
X4648Y1265D01*
X4695D01*
X3180Y3270D02*
X3110D01*
Y3305D01*
X3122Y3317D01*
X3145D01*
X3157Y3305D01*
Y3270D01*
Y3293D02*
X3180Y3317D01*
Y3340D02*
Y3363D01*
Y3352D01*
X3110D01*
X3122Y3340D01*
Y3398D02*
X3110Y3410D01*
Y3433D01*
X3122Y3445D01*
X3168D01*
X3180Y3433D01*
Y3410D01*
X3168Y3398D01*
X3122D01*
X3110Y3515D02*
X3122Y3492D01*
X3145Y3468D01*
X3168D01*
X3180Y3480D01*
Y3503D01*
X3168Y3515D01*
X3157D01*
X3145Y3503D01*
Y3468D01*
X580Y4150D02*
Y4220D01*
X615D01*
X627Y4208D01*
Y4185D01*
X615Y4173D01*
X580D01*
X603D02*
X627Y4150D01*
X650D02*
X673D01*
X662D01*
Y4220D01*
X650Y4208D01*
X755Y4150D02*
X708D01*
X755Y4197D01*
Y4208D01*
X743Y4220D01*
X720D01*
X708Y4208D01*
X778D02*
X790Y4220D01*
X813D01*
X825Y4208D01*
Y4197D01*
X813Y4185D01*
X802D01*
X813D01*
X825Y4173D01*
Y4162D01*
X813Y4150D01*
X790D01*
X778Y4162D01*
X580Y4370D02*
Y4440D01*
X615D01*
X627Y4428D01*
Y4405D01*
X615Y4393D01*
X580D01*
X603D02*
X627Y4370D01*
X650D02*
X673D01*
X662D01*
Y4440D01*
X650Y4428D01*
X755Y4370D02*
X708D01*
X755Y4417D01*
Y4428D01*
X743Y4440D01*
X720D01*
X708Y4428D01*
X813Y4370D02*
Y4440D01*
X778Y4405D01*
X825D01*
X1330Y4330D02*
X1260D01*
Y4365D01*
X1272Y4377D01*
X1295D01*
X1307Y4365D01*
Y4330D01*
Y4353D02*
X1330Y4377D01*
Y4400D02*
Y4423D01*
Y4412D01*
X1260D01*
X1272Y4400D01*
X1330Y4505D02*
Y4458D01*
X1283Y4505D01*
X1272D01*
X1260Y4493D01*
Y4470D01*
X1272Y4458D01*
X1260Y4575D02*
Y4528D01*
X1295D01*
X1283Y4552D01*
Y4563D01*
X1295Y4575D01*
X1318D01*
X1330Y4563D01*
Y4540D01*
X1318Y4528D01*
X1720Y4260D02*
X1650D01*
Y4295D01*
X1662Y4307D01*
X1685D01*
X1697Y4295D01*
Y4260D01*
Y4283D02*
X1720Y4307D01*
Y4330D02*
Y4353D01*
Y4342D01*
X1650D01*
X1662Y4330D01*
X1720Y4435D02*
Y4388D01*
X1673Y4435D01*
X1662D01*
X1650Y4423D01*
Y4400D01*
X1662Y4388D01*
X1650Y4505D02*
X1662Y4482D01*
X1685Y4458D01*
X1708D01*
X1720Y4470D01*
Y4493D01*
X1708Y4505D01*
X1697D01*
X1685Y4493D01*
Y4458D01*
X580Y4260D02*
Y4330D01*
X615D01*
X627Y4318D01*
Y4295D01*
X615Y4283D01*
X580D01*
X603D02*
X627Y4260D01*
X650D02*
X673D01*
X662D01*
Y4330D01*
X650Y4318D01*
X755Y4260D02*
X708D01*
X755Y4307D01*
Y4318D01*
X743Y4330D01*
X720D01*
X708Y4318D01*
X778Y4330D02*
X825D01*
Y4318D01*
X778Y4272D01*
Y4260D01*
X580Y4480D02*
Y4550D01*
X615D01*
X627Y4538D01*
Y4515D01*
X615Y4503D01*
X580D01*
X603D02*
X627Y4480D01*
X650D02*
X673D01*
X662D01*
Y4550D01*
X650Y4538D01*
X755Y4480D02*
X708D01*
X755Y4527D01*
Y4538D01*
X743Y4550D01*
X720D01*
X708Y4538D01*
X778D02*
X790Y4550D01*
X813D01*
X825Y4538D01*
Y4527D01*
X813Y4515D01*
X825Y4503D01*
Y4492D01*
X813Y4480D01*
X790D01*
X778Y4492D01*
Y4503D01*
X790Y4515D01*
X778Y4527D01*
Y4538D01*
X790Y4515D02*
X813D01*
X1230Y4330D02*
X1160D01*
Y4365D01*
X1172Y4377D01*
X1195D01*
X1207Y4365D01*
Y4330D01*
Y4353D02*
X1230Y4377D01*
Y4400D02*
Y4423D01*
Y4412D01*
X1160D01*
X1172Y4400D01*
X1230Y4505D02*
Y4458D01*
X1183Y4505D01*
X1172D01*
X1160Y4493D01*
Y4470D01*
X1172Y4458D01*
X1218Y4528D02*
X1230Y4540D01*
Y4563D01*
X1218Y4575D01*
X1172D01*
X1160Y4563D01*
Y4540D01*
X1172Y4528D01*
X1183D01*
X1195Y4540D01*
Y4575D01*
X1620Y4260D02*
X1550D01*
Y4295D01*
X1562Y4307D01*
X1585D01*
X1597Y4295D01*
Y4260D01*
Y4283D02*
X1620Y4307D01*
Y4330D02*
Y4353D01*
Y4342D01*
X1550D01*
X1562Y4330D01*
Y4388D02*
X1550Y4400D01*
Y4423D01*
X1562Y4435D01*
X1573D01*
X1585Y4423D01*
Y4412D01*
Y4423D01*
X1597Y4435D01*
X1608D01*
X1620Y4423D01*
Y4400D01*
X1608Y4388D01*
X1562Y4458D02*
X1550Y4470D01*
Y4493D01*
X1562Y4505D01*
X1608D01*
X1620Y4493D01*
Y4470D01*
X1608Y4458D01*
X1562D01*
X1160Y4050D02*
X1090D01*
Y4085D01*
X1102Y4097D01*
X1125D01*
X1137Y4085D01*
Y4050D01*
Y4073D02*
X1160Y4097D01*
Y4120D02*
Y4143D01*
Y4132D01*
X1090D01*
X1102Y4120D01*
Y4178D02*
X1090Y4190D01*
Y4213D01*
X1102Y4225D01*
X1113D01*
X1125Y4213D01*
Y4202D01*
Y4213D01*
X1137Y4225D01*
X1148D01*
X1160Y4213D01*
Y4190D01*
X1148Y4178D01*
X1160Y4248D02*
Y4272D01*
Y4260D01*
X1090D01*
X1102Y4248D01*
X1130Y4330D02*
X1060D01*
Y4365D01*
X1072Y4377D01*
X1095D01*
X1107Y4365D01*
Y4330D01*
Y4353D02*
X1130Y4377D01*
Y4400D02*
Y4423D01*
Y4412D01*
X1060D01*
X1072Y4400D01*
Y4458D02*
X1060Y4470D01*
Y4493D01*
X1072Y4505D01*
X1083D01*
X1095Y4493D01*
Y4482D01*
Y4493D01*
X1107Y4505D01*
X1118D01*
X1130Y4493D01*
Y4470D01*
X1118Y4458D01*
X1130Y4575D02*
Y4528D01*
X1083Y4575D01*
X1072D01*
X1060Y4563D01*
Y4540D01*
X1072Y4528D01*
X1090Y4600D02*
Y4670D01*
X1125D01*
X1137Y4658D01*
Y4635D01*
X1125Y4623D01*
X1090D01*
X1113D02*
X1137Y4600D01*
X1160D02*
X1183D01*
X1172D01*
Y4670D01*
X1160Y4658D01*
X1218D02*
X1230Y4670D01*
X1253D01*
X1265Y4658D01*
Y4647D01*
X1253Y4635D01*
X1242D01*
X1253D01*
X1265Y4623D01*
Y4612D01*
X1253Y4600D01*
X1230D01*
X1218Y4612D01*
X1288Y4658D02*
X1300Y4670D01*
X1323D01*
X1335Y4658D01*
Y4647D01*
X1323Y4635D01*
X1312D01*
X1323D01*
X1335Y4623D01*
Y4612D01*
X1323Y4600D01*
X1300D01*
X1288Y4612D01*
X1520Y4180D02*
X1450D01*
Y4215D01*
X1462Y4227D01*
X1485D01*
X1497Y4215D01*
Y4180D01*
Y4203D02*
X1520Y4227D01*
Y4250D02*
Y4273D01*
Y4262D01*
X1450D01*
X1462Y4250D01*
Y4308D02*
X1450Y4320D01*
Y4343D01*
X1462Y4355D01*
X1473D01*
X1485Y4343D01*
Y4332D01*
Y4343D01*
X1497Y4355D01*
X1508D01*
X1520Y4343D01*
Y4320D01*
X1508Y4308D01*
X1520Y4413D02*
X1450D01*
X1485Y4378D01*
Y4425D01*
X1004Y2625D02*
X934D01*
Y2660D01*
X946Y2672D01*
X969D01*
X981Y2660D01*
Y2625D01*
Y2648D02*
X1004Y2672D01*
Y2695D02*
Y2718D01*
Y2707D01*
X934D01*
X946Y2695D01*
X1004Y2788D02*
X934D01*
X969Y2753D01*
Y2800D01*
X1004Y2870D02*
Y2823D01*
X957Y2870D01*
X946D01*
X934Y2858D01*
Y2835D01*
X946Y2823D01*
X900Y2620D02*
X830D01*
Y2655D01*
X842Y2667D01*
X865D01*
X877Y2655D01*
Y2620D01*
Y2643D02*
X900Y2667D01*
Y2690D02*
Y2713D01*
Y2702D01*
X830D01*
X842Y2690D01*
X900Y2783D02*
X830D01*
X865Y2748D01*
Y2795D01*
X900Y2853D02*
X830D01*
X865Y2818D01*
Y2865D01*
X1460Y4710D02*
Y4780D01*
X1495D01*
X1507Y4768D01*
Y4745D01*
X1495Y4733D01*
X1460D01*
X1483D02*
X1507Y4710D01*
X1530D02*
X1553D01*
X1542D01*
Y4780D01*
X1530Y4768D01*
X1623Y4710D02*
Y4780D01*
X1588Y4745D01*
X1635D01*
X1705Y4780D02*
X1682Y4768D01*
X1658Y4745D01*
Y4722D01*
X1670Y4710D01*
X1693D01*
X1705Y4722D01*
Y4733D01*
X1693Y4745D01*
X1658D01*
X1080Y4710D02*
Y4780D01*
X1115D01*
X1127Y4768D01*
Y4745D01*
X1115Y4733D01*
X1080D01*
X1103D02*
X1127Y4710D01*
X1150D02*
X1173D01*
X1162D01*
Y4780D01*
X1150Y4768D01*
X1243Y4710D02*
Y4780D01*
X1208Y4745D01*
X1255D01*
X1278Y4780D02*
X1325D01*
Y4768D01*
X1278Y4722D01*
Y4710D01*
X2690Y1200D02*
Y1260D01*
X2720D01*
X2730Y1250D01*
Y1230D01*
X2720Y1220D01*
X2690D01*
X2710D02*
X2730Y1200D01*
X2750D02*
X2770D01*
X2760D01*
Y1260D01*
X2750Y1250D01*
X2840Y1260D02*
X2800D01*
Y1230D01*
X2820Y1240D01*
X2830D01*
X2840Y1230D01*
Y1210D01*
X2830Y1200D01*
X2810D01*
X2800Y1210D01*
X2860Y1260D02*
X2900D01*
Y1250D01*
X2860Y1210D01*
Y1200D01*
X4520Y3560D02*
X4455D01*
Y3592D01*
X4466Y3603D01*
X4488D01*
X4498Y3592D01*
Y3560D01*
Y3582D02*
X4520Y3603D01*
Y3625D02*
Y3647D01*
Y3636D01*
X4455D01*
X4466Y3625D01*
X4455Y3722D02*
X4466Y3701D01*
X4488Y3679D01*
X4509D01*
X4520Y3690D01*
Y3712D01*
X4509Y3722D01*
X4498D01*
X4488Y3712D01*
Y3679D01*
X4520Y3744D02*
Y3766D01*
Y3755D01*
X4455D01*
X4466Y3744D01*
X4250Y2810D02*
X4185D01*
Y2842D01*
X4196Y2853D01*
X4218D01*
X4228Y2842D01*
Y2810D01*
Y2832D02*
X4250Y2853D01*
Y2875D02*
Y2897D01*
Y2886D01*
X4185D01*
X4196Y2875D01*
X4185Y2972D02*
X4196Y2951D01*
X4218Y2929D01*
X4239D01*
X4250Y2940D01*
Y2962D01*
X4239Y2972D01*
X4228D01*
X4218Y2962D01*
Y2929D01*
X4250Y3037D02*
Y2994D01*
X4207Y3037D01*
X4196D01*
X4185Y3027D01*
Y3005D01*
X4196Y2994D01*
X1810Y3040D02*
Y3110D01*
X1845D01*
X1857Y3098D01*
Y3075D01*
X1845Y3063D01*
X1810D01*
X1833D02*
X1857Y3040D01*
X1880D02*
X1903D01*
X1892D01*
Y3110D01*
X1880Y3098D01*
X1985Y3110D02*
X1962Y3098D01*
X1938Y3075D01*
Y3052D01*
X1950Y3040D01*
X1973D01*
X1985Y3052D01*
Y3063D01*
X1973Y3075D01*
X1938D01*
X2008Y3110D02*
X2055D01*
Y3098D01*
X2008Y3052D01*
Y3040D01*
X1970Y4260D02*
Y4330D01*
X2005D01*
X2017Y4318D01*
Y4295D01*
X2005Y4283D01*
X1970D01*
X1993D02*
X2017Y4260D01*
X2040D02*
X2063D01*
X2052D01*
Y4330D01*
X2040Y4318D01*
X2145Y4330D02*
X2122Y4318D01*
X2098Y4295D01*
Y4272D01*
X2110Y4260D01*
X2133D01*
X2145Y4272D01*
Y4283D01*
X2133Y4295D01*
X2098D01*
X2168Y4318D02*
X2180Y4330D01*
X2203D01*
X2215Y4318D01*
Y4307D01*
X2203Y4295D01*
X2215Y4283D01*
Y4272D01*
X2203Y4260D01*
X2180D01*
X2168Y4272D01*
Y4283D01*
X2180Y4295D01*
X2168Y4307D01*
Y4318D01*
X2180Y4295D02*
X2203D01*
X2910Y2990D02*
X2840D01*
Y3025D01*
X2852Y3037D01*
X2875D01*
X2887Y3025D01*
Y2990D01*
Y3013D02*
X2910Y3037D01*
Y3060D02*
Y3083D01*
Y3072D01*
X2840D01*
X2852Y3060D01*
X2840Y3165D02*
X2852Y3142D01*
X2875Y3118D01*
X2898D01*
X2910Y3130D01*
Y3153D01*
X2898Y3165D01*
X2887D01*
X2875Y3153D01*
Y3118D01*
X2898Y3188D02*
X2910Y3200D01*
Y3223D01*
X2898Y3235D01*
X2852D01*
X2840Y3223D01*
Y3200D01*
X2852Y3188D01*
X2863D01*
X2875Y3200D01*
Y3235D01*
X2220Y670D02*
Y612D01*
X2232Y600D01*
X2255D01*
X2267Y612D01*
Y670D01*
X2290Y600D02*
X2313D01*
X2302D01*
Y670D01*
X2290Y658D01*
X3950Y2745D02*
Y2691D01*
X3961Y2680D01*
X3982D01*
X3993Y2691D01*
Y2745D01*
X4015Y2680D02*
X4037D01*
X4026D01*
Y2745D01*
X4015Y2734D01*
X4112Y2745D02*
X4091Y2734D01*
X4069Y2712D01*
Y2691D01*
X4080Y2680D01*
X4102D01*
X4112Y2691D01*
Y2702D01*
X4102Y2712D01*
X4069D01*
X2345Y2360D02*
X2399D01*
X2410Y2371D01*
Y2392D01*
X2399Y2403D01*
X2345D01*
X2410Y2425D02*
Y2447D01*
Y2436D01*
X2345D01*
X2356Y2425D01*
X2345Y2479D02*
Y2522D01*
X2356D01*
X2399Y2479D01*
X2410D01*
X3310Y2015D02*
Y1961D01*
X3321Y1950D01*
X3342D01*
X3353Y1961D01*
Y2015D01*
X3418Y1950D02*
X3375D01*
X3418Y1993D01*
Y2004D01*
X3407Y2015D01*
X3386D01*
X3375Y2004D01*
X3440Y1950D02*
X3462D01*
X3451D01*
Y2015D01*
X3440Y2004D01*
X2640Y2485D02*
Y2431D01*
X2651Y2420D01*
X2672D01*
X2683Y2431D01*
Y2485D01*
X2748Y2420D02*
X2705D01*
X2748Y2463D01*
Y2474D01*
X2737Y2485D01*
X2716D01*
X2705Y2474D01*
X2813Y2485D02*
X2770D01*
Y2452D01*
X2792Y2463D01*
X2802D01*
X2813Y2452D01*
Y2431D01*
X2802Y2420D01*
X2781D01*
X2770Y2431D01*
X1410Y2440D02*
Y2390D01*
X1420Y2380D01*
X1440D01*
X1450Y2390D01*
Y2440D01*
X1510Y2380D02*
X1470D01*
X1510Y2420D01*
Y2430D01*
X1500Y2440D01*
X1480D01*
X1470Y2430D01*
X1570Y2440D02*
X1550Y2430D01*
X1530Y2410D01*
Y2390D01*
X1540Y2380D01*
X1560D01*
X1570Y2390D01*
Y2400D01*
X1560Y2410D01*
X1530D01*
X1990Y3550D02*
Y3492D01*
X2002Y3480D01*
X2025D01*
X2037Y3492D01*
Y3550D01*
X2060Y3538D02*
X2072Y3550D01*
X2095D01*
X2107Y3538D01*
Y3527D01*
X2095Y3515D01*
X2083D01*
X2095D01*
X2107Y3503D01*
Y3492D01*
X2095Y3480D01*
X2072D01*
X2060Y3492D01*
X2177Y3480D02*
X2130D01*
X2177Y3527D01*
Y3538D01*
X2165Y3550D01*
X2142D01*
X2130Y3538D01*
X1530Y550D02*
X1577Y480D01*
Y550D02*
X1530Y480D01*
X1600D02*
X1623D01*
X1612D01*
Y550D01*
X1600Y538D01*
X560Y1390D02*
X618D01*
X630Y1402D01*
Y1425D01*
X618Y1437D01*
X560D01*
X572Y1460D02*
X560Y1472D01*
Y1495D01*
X572Y1507D01*
X583D01*
X595Y1495D01*
Y1483D01*
Y1495D01*
X607Y1507D01*
X618D01*
X630Y1495D01*
Y1472D01*
X618Y1460D01*
X560Y1577D02*
Y1530D01*
X595D01*
X583Y1553D01*
Y1565D01*
X595Y1577D01*
X618D01*
X630Y1565D01*
Y1542D01*
X618Y1530D01*
X1800Y960D02*
X1870D01*
Y1007D01*
Y1065D02*
X1800D01*
X1835Y1030D01*
Y1077D01*
X40Y410D02*
X100D01*
Y440D01*
X90Y450D01*
X50D01*
X40Y440D01*
Y410D01*
X100Y470D02*
Y490D01*
Y480D01*
X40D01*
X50Y470D01*
X90Y520D02*
X100Y530D01*
Y550D01*
X90Y560D01*
X50D01*
X40Y550D01*
Y530D01*
X50Y520D01*
X60D01*
X70Y530D01*
Y560D01*
X1227Y498D02*
X1215Y510D01*
X1192D01*
X1180Y498D01*
Y452D01*
X1192Y440D01*
X1215D01*
X1227Y452D01*
X1250Y440D02*
X1273D01*
X1262D01*
Y510D01*
X1250Y498D01*
X1355Y510D02*
X1332Y498D01*
X1308Y475D01*
Y452D01*
X1320Y440D01*
X1343D01*
X1355Y452D01*
Y463D01*
X1343Y475D01*
X1308D01*
X1378Y510D02*
X1425D01*
Y498D01*
X1378Y452D01*
Y440D01*
X1227Y598D02*
X1215Y610D01*
X1192D01*
X1180Y598D01*
Y552D01*
X1192Y540D01*
X1215D01*
X1227Y552D01*
X1250Y540D02*
X1273D01*
X1262D01*
Y610D01*
X1250Y598D01*
X1355Y610D02*
X1332Y598D01*
X1308Y575D01*
Y552D01*
X1320Y540D01*
X1343D01*
X1355Y552D01*
Y563D01*
X1343Y575D01*
X1308D01*
X1425Y610D02*
X1402Y598D01*
X1378Y575D01*
Y552D01*
X1390Y540D01*
X1413D01*
X1425Y552D01*
Y563D01*
X1413Y575D01*
X1378D01*
X1227Y698D02*
X1215Y710D01*
X1192D01*
X1180Y698D01*
Y652D01*
X1192Y640D01*
X1215D01*
X1227Y652D01*
X1250Y640D02*
X1273D01*
X1262D01*
Y710D01*
X1250Y698D01*
X1355Y710D02*
X1332Y698D01*
X1308Y675D01*
Y652D01*
X1320Y640D01*
X1343D01*
X1355Y652D01*
Y663D01*
X1343Y675D01*
X1308D01*
X1425Y710D02*
X1378D01*
Y675D01*
X1402Y687D01*
X1413D01*
X1425Y675D01*
Y652D01*
X1413Y640D01*
X1390D01*
X1378Y652D01*
X672Y917D02*
X660Y905D01*
Y882D01*
X672Y870D01*
X718D01*
X730Y882D01*
Y905D01*
X718Y917D01*
X730Y940D02*
Y963D01*
Y952D01*
X660D01*
X672Y940D01*
X660Y1045D02*
X672Y1022D01*
X695Y998D01*
X718D01*
X730Y1010D01*
Y1033D01*
X718Y1045D01*
X707D01*
X695Y1033D01*
Y998D01*
X730Y1103D02*
X660D01*
X695Y1068D01*
Y1115D01*
X1517Y1108D02*
X1505Y1120D01*
X1482D01*
X1470Y1108D01*
Y1062D01*
X1482Y1050D01*
X1505D01*
X1517Y1062D01*
X1540Y1050D02*
X1563D01*
X1552D01*
Y1120D01*
X1540Y1108D01*
X1645Y1120D02*
X1622Y1108D01*
X1598Y1085D01*
Y1062D01*
X1610Y1050D01*
X1633D01*
X1645Y1062D01*
Y1073D01*
X1633Y1085D01*
X1598D01*
X1715Y1050D02*
X1668D01*
X1715Y1097D01*
Y1108D01*
X1703Y1120D01*
X1680D01*
X1668Y1108D01*
X590Y1810D02*
X580Y1820D01*
X560D01*
X550Y1810D01*
Y1770D01*
X560Y1760D01*
X580D01*
X590Y1770D01*
X610Y1760D02*
X630D01*
X620D01*
Y1820D01*
X610Y1810D01*
X700Y1820D02*
X660D01*
Y1790D01*
X680Y1800D01*
X690D01*
X700Y1790D01*
Y1770D01*
X690Y1760D01*
X670D01*
X660Y1770D01*
X720D02*
X730Y1760D01*
X750D01*
X760Y1770D01*
Y1810D01*
X750Y1820D01*
X730D01*
X720Y1810D01*
Y1800D01*
X730Y1790D01*
X760D01*
X313Y101D02*
Y144D01*
X302Y155D01*
X281D01*
X270Y144D01*
Y101D01*
X281Y90D01*
X302D01*
X292Y112D02*
X313Y90D01*
X302D02*
X313Y101D01*
X335Y90D02*
X357D01*
X346D01*
Y155D01*
X335Y144D01*
X389D02*
X400Y155D01*
X422D01*
X432Y144D01*
Y133D01*
X422Y122D01*
X411D01*
X422D01*
X432Y112D01*
Y101D01*
X422Y90D01*
X400D01*
X389Y101D01*
X610Y150D02*
Y220D01*
X645D01*
X657Y208D01*
Y185D01*
X645Y173D01*
X610D01*
X633D02*
X657Y150D01*
X680D02*
X703D01*
X692D01*
Y220D01*
X680Y208D01*
X785Y220D02*
X738D01*
Y185D01*
X762Y197D01*
X773D01*
X785Y185D01*
Y162D01*
X773Y150D01*
X750D01*
X738Y162D01*
X808Y208D02*
X820Y220D01*
X843D01*
X855Y208D01*
Y197D01*
X843Y185D01*
X832D01*
X843D01*
X855Y173D01*
Y162D01*
X843Y150D01*
X820D01*
X808Y162D01*
X810Y510D02*
Y580D01*
X845D01*
X857Y568D01*
Y545D01*
X845Y533D01*
X810D01*
X833D02*
X857Y510D01*
X880D02*
X903D01*
X892D01*
Y580D01*
X880Y568D01*
X985Y580D02*
X938D01*
Y545D01*
X962Y557D01*
X973D01*
X985Y545D01*
Y522D01*
X973Y510D01*
X950D01*
X938Y522D01*
X1055Y580D02*
X1032Y568D01*
X1008Y545D01*
Y522D01*
X1020Y510D01*
X1043D01*
X1055Y522D01*
Y533D01*
X1043Y545D01*
X1008D01*
X1727Y1988D02*
X1715Y2000D01*
X1692D01*
X1680Y1988D01*
Y1942D01*
X1692Y1930D01*
X1715D01*
X1727Y1942D01*
X1750Y1930D02*
X1773D01*
X1762D01*
Y2000D01*
X1750Y1988D01*
X1808D02*
X1820Y2000D01*
X1843D01*
X1855Y1988D01*
Y1942D01*
X1843Y1930D01*
X1820D01*
X1808Y1942D01*
Y1988D01*
X1878Y2000D02*
X1925D01*
Y1988D01*
X1878Y1942D01*
Y1930D01*
D14*
X3310Y4960D02*
Y5000D01*
X2385Y4960D02*
Y5000D01*
X3310D01*
X3315Y4590D02*
Y4660D01*
X3175Y4590D02*
X3315D01*
X4362Y810D02*
X4471D01*
X4362Y411D02*
X4399D01*
X4471D01*
X4362D02*
Y496D01*
X4362Y810D02*
X4363Y725D01*
X4653Y514D02*
Y706D01*
X3715Y2192D02*
X3778D01*
Y2173D02*
Y2192D01*
X3462Y1927D02*
Y1948D01*
Y1927D02*
X3526D01*
X3462Y2192D02*
X3526D01*
X3462Y2173D02*
Y2192D01*
X3778Y1927D02*
Y1948D01*
X3715Y1927D02*
X3778D01*
X690Y1290D02*
Y1319D01*
X1090Y1290D02*
Y1319D01*
X690Y1660D02*
Y1690D01*
X1090Y1660D02*
Y1690D01*
X690Y1290D02*
X720D01*
X1060D02*
X1090D01*
X690Y1690D02*
X720D01*
X1060D02*
X1090D01*
X650Y-1D02*
X950D01*
X1120Y188D02*
Y320D01*
X1050D02*
X1120D01*
X480Y239D02*
Y320D01*
X550D01*
X2060Y1415D02*
Y1435D01*
X2090D01*
X2060Y1174D02*
X2090D01*
X2060D02*
Y1194D01*
X2331Y1435D02*
X2360D01*
Y1415D02*
Y1435D01*
X2331Y1174D02*
X2360D01*
Y1194D01*
M02*
