G04*
G04 #@! TF.GenerationSoftware,Altium Limited,Altium Designer,20.0.13 (296)*
G04*
G04 Layer_Physical_Order=1*
G04 Layer_Color=255*
%FSLAX42Y42*%
%MOMM*%
G71*
G01*
G75*
%ADD10C,0.20*%
%ADD12C,0.15*%
G04:AMPARAMS|DCode=89|XSize=0.3mm|YSize=0.9mm|CornerRadius=0.15mm|HoleSize=0mm|Usage=FLASHONLY|Rotation=0.000|XOffset=0mm|YOffset=0mm|HoleType=Round|Shape=RoundedRectangle|*
%AMROUNDEDRECTD89*
21,1,0.30,0.60,0,0,0.0*
21,1,0.00,0.90,0,0,0.0*
1,1,0.30,0.00,-0.30*
1,1,0.30,0.00,-0.30*
1,1,0.30,0.00,0.30*
1,1,0.30,0.00,0.30*
%
%ADD89ROUNDEDRECTD89*%
%ADD99C,0.30*%
%ADD101C,0.45*%
G04:AMPARAMS|DCode=103|XSize=1.1mm|YSize=0.6mm|CornerRadius=0.06mm|HoleSize=0mm|Usage=FLASHONLY|Rotation=0.000|XOffset=0mm|YOffset=0mm|HoleType=Round|Shape=RoundedRectangle|*
%AMROUNDEDRECTD103*
21,1,1.10,0.48,0,0,0.0*
21,1,0.98,0.60,0,0,0.0*
1,1,0.12,0.49,-0.24*
1,1,0.12,-0.49,-0.24*
1,1,0.12,-0.49,0.24*
1,1,0.12,0.49,0.24*
%
%ADD103ROUNDEDRECTD103*%
G04:AMPARAMS|DCode=104|XSize=0.6mm|YSize=1.5mm|CornerRadius=0.06mm|HoleSize=0mm|Usage=FLASHONLY|Rotation=270.000|XOffset=0mm|YOffset=0mm|HoleType=Round|Shape=RoundedRectangle|*
%AMROUNDEDRECTD104*
21,1,0.60,1.38,0,0,270.0*
21,1,0.48,1.50,0,0,270.0*
1,1,0.12,-0.69,-0.24*
1,1,0.12,-0.69,0.24*
1,1,0.12,0.69,0.24*
1,1,0.12,0.69,-0.24*
%
%ADD104ROUNDEDRECTD104*%
%ADD105C,1.00*%
G04:AMPARAMS|DCode=106|XSize=0.67mm|YSize=0.3mm|CornerRadius=0.03mm|HoleSize=0mm|Usage=FLASHONLY|Rotation=90.000|XOffset=0mm|YOffset=0mm|HoleType=Round|Shape=RoundedRectangle|*
%AMROUNDEDRECTD106*
21,1,0.67,0.24,0,0,90.0*
21,1,0.61,0.30,0,0,90.0*
1,1,0.06,0.12,0.31*
1,1,0.06,0.12,-0.31*
1,1,0.06,-0.12,-0.31*
1,1,0.06,-0.12,0.31*
%
%ADD106ROUNDEDRECTD106*%
G04:AMPARAMS|DCode=107|XSize=0.55mm|YSize=0.4mm|CornerRadius=0.04mm|HoleSize=0mm|Usage=FLASHONLY|Rotation=270.000|XOffset=0mm|YOffset=0mm|HoleType=Round|Shape=RoundedRectangle|*
%AMROUNDEDRECTD107*
21,1,0.55,0.32,0,0,270.0*
21,1,0.47,0.40,0,0,270.0*
1,1,0.08,-0.16,-0.23*
1,1,0.08,-0.16,0.23*
1,1,0.08,0.16,0.23*
1,1,0.08,0.16,-0.23*
%
%ADD107ROUNDEDRECTD107*%
G04:AMPARAMS|DCode=108|XSize=0.65mm|YSize=0.5mm|CornerRadius=0.05mm|HoleSize=0mm|Usage=FLASHONLY|Rotation=180.000|XOffset=0mm|YOffset=0mm|HoleType=Round|Shape=RoundedRectangle|*
%AMROUNDEDRECTD108*
21,1,0.65,0.40,0,0,180.0*
21,1,0.55,0.50,0,0,180.0*
1,1,0.10,-0.28,0.20*
1,1,0.10,0.28,0.20*
1,1,0.10,0.28,-0.20*
1,1,0.10,-0.28,-0.20*
%
%ADD108ROUNDEDRECTD108*%
G04:AMPARAMS|DCode=109|XSize=0.5mm|YSize=0.55mm|CornerRadius=0.09mm|HoleSize=0mm|Usage=FLASHONLY|Rotation=270.000|XOffset=0mm|YOffset=0mm|HoleType=Round|Shape=RoundedRectangle|*
%AMROUNDEDRECTD109*
21,1,0.50,0.38,0,0,270.0*
21,1,0.33,0.55,0,0,270.0*
1,1,0.18,-0.19,-0.16*
1,1,0.18,-0.19,0.16*
1,1,0.18,0.19,0.16*
1,1,0.18,0.19,-0.16*
%
%ADD109ROUNDEDRECTD109*%
G04:AMPARAMS|DCode=110|XSize=0.5mm|YSize=0.55mm|CornerRadius=0.09mm|HoleSize=0mm|Usage=FLASHONLY|Rotation=0.000|XOffset=0mm|YOffset=0mm|HoleType=Round|Shape=RoundedRectangle|*
%AMROUNDEDRECTD110*
21,1,0.50,0.38,0,0,0.0*
21,1,0.33,0.55,0,0,0.0*
1,1,0.18,0.16,-0.19*
1,1,0.18,-0.16,-0.19*
1,1,0.18,-0.16,0.19*
1,1,0.18,0.16,0.19*
%
%ADD110ROUNDEDRECTD110*%
G04:AMPARAMS|DCode=111|XSize=1.15mm|YSize=1.45mm|CornerRadius=0.09mm|HoleSize=0mm|Usage=FLASHONLY|Rotation=270.000|XOffset=0mm|YOffset=0mm|HoleType=Round|Shape=RoundedRectangle|*
%AMROUNDEDRECTD111*
21,1,1.15,1.28,0,0,270.0*
21,1,0.98,1.45,0,0,270.0*
1,1,0.17,-0.64,-0.49*
1,1,0.17,-0.64,0.49*
1,1,0.17,0.64,0.49*
1,1,0.17,0.64,-0.49*
%
%ADD111ROUNDEDRECTD111*%
G04:AMPARAMS|DCode=112|XSize=4mm|YSize=1.8mm|CornerRadius=0.18mm|HoleSize=0mm|Usage=FLASHONLY|Rotation=90.000|XOffset=0mm|YOffset=0mm|HoleType=Round|Shape=RoundedRectangle|*
%AMROUNDEDRECTD112*
21,1,4.00,1.44,0,0,90.0*
21,1,3.64,1.80,0,0,90.0*
1,1,0.36,0.72,1.82*
1,1,0.36,0.72,-1.82*
1,1,0.36,-0.72,-1.82*
1,1,0.36,-0.72,1.82*
%
%ADD112ROUNDEDRECTD112*%
G04:AMPARAMS|DCode=113|XSize=3.5mm|YSize=0.7mm|CornerRadius=0.07mm|HoleSize=0mm|Usage=FLASHONLY|Rotation=270.000|XOffset=0mm|YOffset=0mm|HoleType=Round|Shape=RoundedRectangle|*
%AMROUNDEDRECTD113*
21,1,3.50,0.56,0,0,270.0*
21,1,3.36,0.70,0,0,270.0*
1,1,0.14,-0.28,-1.68*
1,1,0.14,-0.28,1.68*
1,1,0.14,0.28,1.68*
1,1,0.14,0.28,-1.68*
%
%ADD113ROUNDEDRECTD113*%
G04:AMPARAMS|DCode=114|XSize=1.5mm|YSize=2.3mm|CornerRadius=0.15mm|HoleSize=0mm|Usage=FLASHONLY|Rotation=180.000|XOffset=0mm|YOffset=0mm|HoleType=Round|Shape=RoundedRectangle|*
%AMROUNDEDRECTD114*
21,1,1.50,2.00,0,0,180.0*
21,1,1.20,2.30,0,0,180.0*
1,1,0.30,-0.60,1.00*
1,1,0.30,0.60,1.00*
1,1,0.30,0.60,-1.00*
1,1,0.30,-0.60,-1.00*
%
%ADD114ROUNDEDRECTD114*%
G04:AMPARAMS|DCode=115|XSize=2.6mm|YSize=2.4mm|CornerRadius=0.24mm|HoleSize=0mm|Usage=FLASHONLY|Rotation=180.000|XOffset=0mm|YOffset=0mm|HoleType=Round|Shape=RoundedRectangle|*
%AMROUNDEDRECTD115*
21,1,2.60,1.92,0,0,180.0*
21,1,2.12,2.40,0,0,180.0*
1,1,0.48,-1.06,0.96*
1,1,0.48,1.06,0.96*
1,1,0.48,1.06,-0.96*
1,1,0.48,-1.06,-0.96*
%
%ADD115ROUNDEDRECTD115*%
G04:AMPARAMS|DCode=116|XSize=0.8mm|YSize=0.8mm|CornerRadius=0.08mm|HoleSize=0mm|Usage=FLASHONLY|Rotation=270.000|XOffset=0mm|YOffset=0mm|HoleType=Round|Shape=RoundedRectangle|*
%AMROUNDEDRECTD116*
21,1,0.80,0.64,0,0,270.0*
21,1,0.64,0.80,0,0,270.0*
1,1,0.16,-0.32,-0.32*
1,1,0.16,-0.32,0.32*
1,1,0.16,0.32,0.32*
1,1,0.16,0.32,-0.32*
%
%ADD116ROUNDEDRECTD116*%
G04:AMPARAMS|DCode=117|XSize=0.8mm|YSize=0.8mm|CornerRadius=0.08mm|HoleSize=0mm|Usage=FLASHONLY|Rotation=0.000|XOffset=0mm|YOffset=0mm|HoleType=Round|Shape=RoundedRectangle|*
%AMROUNDEDRECTD117*
21,1,0.80,0.64,0,0,0.0*
21,1,0.64,0.80,0,0,0.0*
1,1,0.16,0.32,-0.32*
1,1,0.16,-0.32,-0.32*
1,1,0.16,-0.32,0.32*
1,1,0.16,0.32,0.32*
%
%ADD117ROUNDEDRECTD117*%
G04:AMPARAMS|DCode=118|XSize=0.3mm|YSize=0.7mm|CornerRadius=0.03mm|HoleSize=0mm|Usage=FLASHONLY|Rotation=270.000|XOffset=0mm|YOffset=0mm|HoleType=Round|Shape=RoundedRectangle|*
%AMROUNDEDRECTD118*
21,1,0.30,0.64,0,0,270.0*
21,1,0.24,0.70,0,0,270.0*
1,1,0.06,-0.32,-0.12*
1,1,0.06,-0.32,0.12*
1,1,0.06,0.32,0.12*
1,1,0.06,0.32,-0.12*
%
%ADD118ROUNDEDRECTD118*%
G04:AMPARAMS|DCode=119|XSize=0.9mm|YSize=0.7mm|CornerRadius=0.07mm|HoleSize=0mm|Usage=FLASHONLY|Rotation=270.000|XOffset=0mm|YOffset=0mm|HoleType=Round|Shape=RoundedRectangle|*
%AMROUNDEDRECTD119*
21,1,0.90,0.56,0,0,270.0*
21,1,0.76,0.70,0,0,270.0*
1,1,0.14,-0.28,-0.38*
1,1,0.14,-0.28,0.38*
1,1,0.14,0.28,0.38*
1,1,0.14,0.28,-0.38*
%
%ADD119ROUNDEDRECTD119*%
G04:AMPARAMS|DCode=120|XSize=0.28mm|YSize=0.85mm|CornerRadius=0.07mm|HoleSize=0mm|Usage=FLASHONLY|Rotation=0.000|XOffset=0mm|YOffset=0mm|HoleType=Round|Shape=RoundedRectangle|*
%AMROUNDEDRECTD120*
21,1,0.28,0.71,0,0,0.0*
21,1,0.14,0.85,0,0,0.0*
1,1,0.14,0.07,-0.36*
1,1,0.14,-0.07,-0.36*
1,1,0.14,-0.07,0.36*
1,1,0.14,0.07,0.36*
%
%ADD120ROUNDEDRECTD120*%
G04:AMPARAMS|DCode=121|XSize=0.28mm|YSize=0.9mm|CornerRadius=0.07mm|HoleSize=0mm|Usage=FLASHONLY|Rotation=0.000|XOffset=0mm|YOffset=0mm|HoleType=Round|Shape=RoundedRectangle|*
%AMROUNDEDRECTD121*
21,1,0.28,0.76,0,0,0.0*
21,1,0.14,0.90,0,0,0.0*
1,1,0.14,0.07,-0.38*
1,1,0.14,-0.07,-0.38*
1,1,0.14,-0.07,0.38*
1,1,0.14,0.07,0.38*
%
%ADD121ROUNDEDRECTD121*%
G04:AMPARAMS|DCode=122|XSize=0.28mm|YSize=0.85mm|CornerRadius=0.07mm|HoleSize=0mm|Usage=FLASHONLY|Rotation=270.000|XOffset=0mm|YOffset=0mm|HoleType=Round|Shape=RoundedRectangle|*
%AMROUNDEDRECTD122*
21,1,0.28,0.71,0,0,270.0*
21,1,0.14,0.85,0,0,270.0*
1,1,0.14,-0.36,-0.07*
1,1,0.14,-0.36,0.07*
1,1,0.14,0.36,0.07*
1,1,0.14,0.36,-0.07*
%
%ADD122ROUNDEDRECTD122*%
G04:AMPARAMS|DCode=123|XSize=0.28mm|YSize=0.9mm|CornerRadius=0.07mm|HoleSize=0mm|Usage=FLASHONLY|Rotation=270.000|XOffset=0mm|YOffset=0mm|HoleType=Round|Shape=RoundedRectangle|*
%AMROUNDEDRECTD123*
21,1,0.28,0.76,0,0,270.0*
21,1,0.14,0.90,0,0,270.0*
1,1,0.14,-0.38,-0.07*
1,1,0.14,-0.38,0.07*
1,1,0.14,0.38,0.07*
1,1,0.14,0.38,-0.07*
%
%ADD123ROUNDEDRECTD123*%
G04:AMPARAMS|DCode=124|XSize=2.8mm|YSize=2.8mm|CornerRadius=0.07mm|HoleSize=0mm|Usage=FLASHONLY|Rotation=270.000|XOffset=0mm|YOffset=0mm|HoleType=Round|Shape=RoundedRectangle|*
%AMROUNDEDRECTD124*
21,1,2.80,2.66,0,0,270.0*
21,1,2.66,2.80,0,0,270.0*
1,1,0.14,-1.33,-1.33*
1,1,0.14,-1.33,1.33*
1,1,0.14,1.33,1.33*
1,1,0.14,1.33,-1.33*
%
%ADD124ROUNDEDRECTD124*%
G04:AMPARAMS|DCode=125|XSize=0.41mm|YSize=0.15mm|CornerRadius=0.02mm|HoleSize=0mm|Usage=FLASHONLY|Rotation=90.000|XOffset=0mm|YOffset=0mm|HoleType=Round|Shape=RoundedRectangle|*
%AMROUNDEDRECTD125*
21,1,0.41,0.12,0,0,90.0*
21,1,0.38,0.15,0,0,90.0*
1,1,0.03,0.06,0.19*
1,1,0.03,0.06,-0.19*
1,1,0.03,-0.06,-0.19*
1,1,0.03,-0.06,0.19*
%
%ADD125ROUNDEDRECTD125*%
G04:AMPARAMS|DCode=126|XSize=0.41mm|YSize=0.25mm|CornerRadius=0.03mm|HoleSize=0mm|Usage=FLASHONLY|Rotation=0.000|XOffset=0mm|YOffset=0mm|HoleType=Round|Shape=RoundedRectangle|*
%AMROUNDEDRECTD126*
21,1,0.41,0.20,0,0,0.0*
21,1,0.36,0.25,0,0,0.0*
1,1,0.05,0.18,-0.10*
1,1,0.05,-0.18,-0.10*
1,1,0.05,-0.18,0.10*
1,1,0.05,0.18,0.10*
%
%ADD126ROUNDEDRECTD126*%
G04:AMPARAMS|DCode=127|XSize=1.15mm|YSize=1.8mm|CornerRadius=0.12mm|HoleSize=0mm|Usage=FLASHONLY|Rotation=90.000|XOffset=0mm|YOffset=0mm|HoleType=Round|Shape=RoundedRectangle|*
%AMROUNDEDRECTD127*
21,1,1.15,1.57,0,0,90.0*
21,1,0.92,1.80,0,0,90.0*
1,1,0.23,0.79,0.46*
1,1,0.23,0.79,-0.46*
1,1,0.23,-0.79,-0.46*
1,1,0.23,-0.79,0.46*
%
%ADD127ROUNDEDRECTD127*%
G04:AMPARAMS|DCode=128|XSize=1.1mm|YSize=1.8mm|CornerRadius=0.11mm|HoleSize=0mm|Usage=FLASHONLY|Rotation=90.000|XOffset=0mm|YOffset=0mm|HoleType=Round|Shape=RoundedRectangle|*
%AMROUNDEDRECTD128*
21,1,1.10,1.58,0,0,90.0*
21,1,0.88,1.80,0,0,90.0*
1,1,0.22,0.79,0.44*
1,1,0.22,0.79,-0.44*
1,1,0.22,-0.79,-0.44*
1,1,0.22,-0.79,0.44*
%
%ADD128ROUNDEDRECTD128*%
G04:AMPARAMS|DCode=129|XSize=0.41mm|YSize=0.6mm|CornerRadius=0.04mm|HoleSize=0mm|Usage=FLASHONLY|Rotation=180.000|XOffset=0mm|YOffset=0mm|HoleType=Round|Shape=RoundedRectangle|*
%AMROUNDEDRECTD129*
21,1,0.41,0.52,0,0,180.0*
21,1,0.33,0.60,0,0,180.0*
1,1,0.08,-0.16,0.26*
1,1,0.08,0.16,0.26*
1,1,0.08,0.16,-0.26*
1,1,0.08,-0.16,-0.26*
%
%ADD129ROUNDEDRECTD129*%
G04:AMPARAMS|DCode=130|XSize=2.6mm|YSize=2.4mm|CornerRadius=0.24mm|HoleSize=0mm|Usage=FLASHONLY|Rotation=270.000|XOffset=0mm|YOffset=0mm|HoleType=Round|Shape=RoundedRectangle|*
%AMROUNDEDRECTD130*
21,1,2.60,1.92,0,0,270.0*
21,1,2.12,2.40,0,0,270.0*
1,1,0.48,-0.96,-1.06*
1,1,0.48,-0.96,1.06*
1,1,0.48,0.96,1.06*
1,1,0.48,0.96,-1.06*
%
%ADD130ROUNDEDRECTD130*%
G04:AMPARAMS|DCode=131|XSize=0.75mm|YSize=0.75mm|CornerRadius=0.08mm|HoleSize=0mm|Usage=FLASHONLY|Rotation=0.000|XOffset=0mm|YOffset=0mm|HoleType=Round|Shape=RoundedRectangle|*
%AMROUNDEDRECTD131*
21,1,0.75,0.60,0,0,0.0*
21,1,0.60,0.75,0,0,0.0*
1,1,0.15,0.30,-0.30*
1,1,0.15,-0.30,-0.30*
1,1,0.15,-0.30,0.30*
1,1,0.15,0.30,0.30*
%
%ADD131ROUNDEDRECTD131*%
G04:AMPARAMS|DCode=132|XSize=1.15mm|YSize=1.45mm|CornerRadius=0.09mm|HoleSize=0mm|Usage=FLASHONLY|Rotation=180.000|XOffset=0mm|YOffset=0mm|HoleType=Round|Shape=RoundedRectangle|*
%AMROUNDEDRECTD132*
21,1,1.15,1.28,0,0,180.0*
21,1,0.98,1.45,0,0,180.0*
1,1,0.17,-0.49,0.64*
1,1,0.17,0.49,0.64*
1,1,0.17,0.49,-0.64*
1,1,0.17,-0.49,-0.64*
%
%ADD132ROUNDEDRECTD132*%
G04:AMPARAMS|DCode=133|XSize=1.25mm|YSize=2.4mm|CornerRadius=0.13mm|HoleSize=0mm|Usage=FLASHONLY|Rotation=0.000|XOffset=0mm|YOffset=0mm|HoleType=Round|Shape=RoundedRectangle|*
%AMROUNDEDRECTD133*
21,1,1.25,2.15,0,0,0.0*
21,1,1.00,2.40,0,0,0.0*
1,1,0.25,0.50,-1.08*
1,1,0.25,-0.50,-1.08*
1,1,0.25,-0.50,1.08*
1,1,0.25,0.50,1.08*
%
%ADD133ROUNDEDRECTD133*%
G04:AMPARAMS|DCode=134|XSize=0.8mm|YSize=0.99mm|CornerRadius=0.14mm|HoleSize=0mm|Usage=FLASHONLY|Rotation=180.000|XOffset=0mm|YOffset=0mm|HoleType=Round|Shape=RoundedRectangle|*
%AMROUNDEDRECTD134*
21,1,0.80,0.71,0,0,180.0*
21,1,0.52,0.99,0,0,180.0*
1,1,0.28,-0.26,0.36*
1,1,0.28,0.26,0.36*
1,1,0.28,0.26,-0.36*
1,1,0.28,-0.26,-0.36*
%
%ADD134ROUNDEDRECTD134*%
G04:AMPARAMS|DCode=135|XSize=0.45mm|YSize=2.5mm|CornerRadius=0.05mm|HoleSize=0mm|Usage=FLASHONLY|Rotation=90.000|XOffset=0mm|YOffset=0mm|HoleType=Round|Shape=RoundedRectangle|*
%AMROUNDEDRECTD135*
21,1,0.45,2.41,0,0,90.0*
21,1,0.36,2.50,0,0,90.0*
1,1,0.09,1.21,0.18*
1,1,0.09,1.21,-0.18*
1,1,0.09,-1.21,-0.18*
1,1,0.09,-1.21,0.18*
%
%ADD135ROUNDEDRECTD135*%
G04:AMPARAMS|DCode=136|XSize=0.6mm|YSize=0.8mm|CornerRadius=0.06mm|HoleSize=0mm|Usage=FLASHONLY|Rotation=90.000|XOffset=0mm|YOffset=0mm|HoleType=Round|Shape=RoundedRectangle|*
%AMROUNDEDRECTD136*
21,1,0.60,0.68,0,0,90.0*
21,1,0.48,0.80,0,0,90.0*
1,1,0.12,0.34,0.24*
1,1,0.12,0.34,-0.24*
1,1,0.12,-0.34,-0.24*
1,1,0.12,-0.34,0.24*
%
%ADD136ROUNDEDRECTD136*%
G04:AMPARAMS|DCode=137|XSize=0.25mm|YSize=0.36mm|CornerRadius=0.03mm|HoleSize=0mm|Usage=FLASHONLY|Rotation=270.000|XOffset=0mm|YOffset=0mm|HoleType=Round|Shape=RoundedRectangle|*
%AMROUNDEDRECTD137*
21,1,0.25,0.31,0,0,270.0*
21,1,0.20,0.36,0,0,270.0*
1,1,0.05,-0.16,-0.10*
1,1,0.05,-0.16,0.10*
1,1,0.05,0.16,0.10*
1,1,0.05,0.16,-0.10*
%
%ADD137ROUNDEDRECTD137*%
G04:AMPARAMS|DCode=138|XSize=0.8mm|YSize=1.6mm|CornerRadius=0.08mm|HoleSize=0mm|Usage=FLASHONLY|Rotation=90.000|XOffset=0mm|YOffset=0mm|HoleType=Round|Shape=RoundedRectangle|*
%AMROUNDEDRECTD138*
21,1,0.80,1.44,0,0,90.0*
21,1,0.64,1.60,0,0,90.0*
1,1,0.16,0.72,0.32*
1,1,0.16,0.72,-0.32*
1,1,0.16,-0.72,-0.32*
1,1,0.16,-0.72,0.32*
%
%ADD138ROUNDEDRECTD138*%
G04:AMPARAMS|DCode=139|XSize=0.3mm|YSize=0.66mm|CornerRadius=0.05mm|HoleSize=0mm|Usage=FLASHONLY|Rotation=180.000|XOffset=0mm|YOffset=0mm|HoleType=Round|Shape=RoundedRectangle|*
%AMROUNDEDRECTD139*
21,1,0.30,0.57,0,0,180.0*
21,1,0.21,0.66,0,0,180.0*
1,1,0.09,-0.11,0.28*
1,1,0.09,0.11,0.28*
1,1,0.09,0.11,-0.28*
1,1,0.09,-0.11,-0.28*
%
%ADD139ROUNDEDRECTD139*%
G04:AMPARAMS|DCode=140|XSize=1.1mm|YSize=0.6mm|CornerRadius=0.06mm|HoleSize=0mm|Usage=FLASHONLY|Rotation=90.000|XOffset=0mm|YOffset=0mm|HoleType=Round|Shape=RoundedRectangle|*
%AMROUNDEDRECTD140*
21,1,1.10,0.48,0,0,90.0*
21,1,0.98,0.60,0,0,90.0*
1,1,0.12,0.24,0.49*
1,1,0.12,0.24,-0.49*
1,1,0.12,-0.24,-0.49*
1,1,0.12,-0.24,0.49*
%
%ADD140ROUNDEDRECTD140*%
G04:AMPARAMS|DCode=141|XSize=1.55mm|YSize=0.6mm|CornerRadius=0.06mm|HoleSize=0mm|Usage=FLASHONLY|Rotation=180.000|XOffset=0mm|YOffset=0mm|HoleType=Round|Shape=RoundedRectangle|*
%AMROUNDEDRECTD141*
21,1,1.55,0.48,0,0,180.0*
21,1,1.43,0.60,0,0,180.0*
1,1,0.12,-0.72,0.24*
1,1,0.12,0.72,0.24*
1,1,0.12,0.72,-0.24*
1,1,0.12,-0.72,-0.24*
%
%ADD141ROUNDEDRECTD141*%
G04:AMPARAMS|DCode=142|XSize=1.8mm|YSize=1.2mm|CornerRadius=0.12mm|HoleSize=0mm|Usage=FLASHONLY|Rotation=180.000|XOffset=0mm|YOffset=0mm|HoleType=Round|Shape=RoundedRectangle|*
%AMROUNDEDRECTD142*
21,1,1.80,0.96,0,0,180.0*
21,1,1.56,1.20,0,0,180.0*
1,1,0.24,-0.78,0.48*
1,1,0.24,0.78,0.48*
1,1,0.24,0.78,-0.48*
1,1,0.24,-0.78,-0.48*
%
%ADD142ROUNDEDRECTD142*%
G04:AMPARAMS|DCode=143|XSize=1mm|YSize=0.9mm|CornerRadius=0.09mm|HoleSize=0mm|Usage=FLASHONLY|Rotation=180.000|XOffset=0mm|YOffset=0mm|HoleType=Round|Shape=RoundedRectangle|*
%AMROUNDEDRECTD143*
21,1,1.00,0.72,0,0,180.0*
21,1,0.82,0.90,0,0,180.0*
1,1,0.18,-0.41,0.36*
1,1,0.18,0.41,0.36*
1,1,0.18,0.41,-0.36*
1,1,0.18,-0.41,-0.36*
%
%ADD143ROUNDEDRECTD143*%
G04:AMPARAMS|DCode=144|XSize=1.7mm|YSize=0.55mm|CornerRadius=0.06mm|HoleSize=0mm|Usage=FLASHONLY|Rotation=90.000|XOffset=0mm|YOffset=0mm|HoleType=Round|Shape=RoundedRectangle|*
%AMROUNDEDRECTD144*
21,1,1.70,0.44,0,0,90.0*
21,1,1.59,0.55,0,0,90.0*
1,1,0.11,0.22,0.80*
1,1,0.11,0.22,-0.80*
1,1,0.11,-0.22,-0.80*
1,1,0.11,-0.22,0.80*
%
%ADD144ROUNDEDRECTD144*%
G04:AMPARAMS|DCode=145|XSize=0.8mm|YSize=0.99mm|CornerRadius=0.14mm|HoleSize=0mm|Usage=FLASHONLY|Rotation=90.000|XOffset=0mm|YOffset=0mm|HoleType=Round|Shape=RoundedRectangle|*
%AMROUNDEDRECTD145*
21,1,0.80,0.71,0,0,90.0*
21,1,0.52,0.99,0,0,90.0*
1,1,0.28,0.36,0.26*
1,1,0.28,0.36,-0.26*
1,1,0.28,-0.36,-0.26*
1,1,0.28,-0.36,0.26*
%
%ADD145ROUNDEDRECTD145*%
G04:AMPARAMS|DCode=146|XSize=0.41mm|YSize=0.15mm|CornerRadius=0.02mm|HoleSize=0mm|Usage=FLASHONLY|Rotation=180.000|XOffset=0mm|YOffset=0mm|HoleType=Round|Shape=RoundedRectangle|*
%AMROUNDEDRECTD146*
21,1,0.41,0.12,0,0,180.0*
21,1,0.38,0.15,0,0,180.0*
1,1,0.03,-0.19,0.06*
1,1,0.03,0.19,0.06*
1,1,0.03,0.19,-0.06*
1,1,0.03,-0.19,-0.06*
%
%ADD146ROUNDEDRECTD146*%
G04:AMPARAMS|DCode=147|XSize=0.48mm|YSize=0.25mm|CornerRadius=0.03mm|HoleSize=0mm|Usage=FLASHONLY|Rotation=180.000|XOffset=0mm|YOffset=0mm|HoleType=Round|Shape=RoundedRectangle|*
%AMROUNDEDRECTD147*
21,1,0.48,0.20,0,0,180.0*
21,1,0.43,0.25,0,0,180.0*
1,1,0.05,-0.21,0.10*
1,1,0.05,0.21,0.10*
1,1,0.05,0.21,-0.10*
1,1,0.05,-0.21,-0.10*
%
%ADD147ROUNDEDRECTD147*%
G04:AMPARAMS|DCode=148|XSize=0.48mm|YSize=0.25mm|CornerRadius=0.03mm|HoleSize=0mm|Usage=FLASHONLY|Rotation=270.000|XOffset=0mm|YOffset=0mm|HoleType=Round|Shape=RoundedRectangle|*
%AMROUNDEDRECTD148*
21,1,0.48,0.20,0,0,270.0*
21,1,0.43,0.25,0,0,270.0*
1,1,0.05,-0.10,-0.21*
1,1,0.05,-0.10,0.21*
1,1,0.05,0.10,0.21*
1,1,0.05,0.10,-0.21*
%
%ADD148ROUNDEDRECTD148*%
G04:AMPARAMS|DCode=149|XSize=0.55mm|YSize=0.57mm|CornerRadius=0.06mm|HoleSize=0mm|Usage=FLASHONLY|Rotation=270.000|XOffset=0mm|YOffset=0mm|HoleType=Round|Shape=RoundedRectangle|*
%AMROUNDEDRECTD149*
21,1,0.55,0.46,0,0,270.0*
21,1,0.44,0.57,0,0,270.0*
1,1,0.11,-0.23,-0.22*
1,1,0.11,-0.23,0.22*
1,1,0.11,0.23,0.22*
1,1,0.11,0.23,-0.22*
%
%ADD149ROUNDEDRECTD149*%
G04:AMPARAMS|DCode=150|XSize=0.3mm|YSize=0.9mm|CornerRadius=0.15mm|HoleSize=0mm|Usage=FLASHONLY|Rotation=90.000|XOffset=0mm|YOffset=0mm|HoleType=Round|Shape=RoundedRectangle|*
%AMROUNDEDRECTD150*
21,1,0.30,0.60,0,0,90.0*
21,1,0.00,0.90,0,0,90.0*
1,1,0.30,0.30,0.00*
1,1,0.30,0.30,0.00*
1,1,0.30,-0.30,0.00*
1,1,0.30,-0.30,0.00*
%
%ADD150ROUNDEDRECTD150*%
G04:AMPARAMS|DCode=151|XSize=2mm|YSize=2mm|CornerRadius=0.2mm|HoleSize=0mm|Usage=FLASHONLY|Rotation=180.000|XOffset=0mm|YOffset=0mm|HoleType=Round|Shape=RoundedRectangle|*
%AMROUNDEDRECTD151*
21,1,2.00,1.60,0,0,180.0*
21,1,1.60,2.00,0,0,180.0*
1,1,0.40,-0.80,0.80*
1,1,0.40,0.80,0.80*
1,1,0.40,0.80,-0.80*
1,1,0.40,-0.80,-0.80*
%
%ADD151ROUNDEDRECTD151*%
G04:AMPARAMS|DCode=152|XSize=0.5mm|YSize=0.8mm|CornerRadius=0.05mm|HoleSize=0mm|Usage=FLASHONLY|Rotation=0.000|XOffset=0mm|YOffset=0mm|HoleType=Round|Shape=RoundedRectangle|*
%AMROUNDEDRECTD152*
21,1,0.50,0.70,0,0,0.0*
21,1,0.40,0.80,0,0,0.0*
1,1,0.10,0.20,-0.35*
1,1,0.10,-0.20,-0.35*
1,1,0.10,-0.20,0.35*
1,1,0.10,0.20,0.35*
%
%ADD152ROUNDEDRECTD152*%
G04:AMPARAMS|DCode=153|XSize=1.5mm|YSize=1.2mm|CornerRadius=0.12mm|HoleSize=0mm|Usage=FLASHONLY|Rotation=90.000|XOffset=0mm|YOffset=0mm|HoleType=Round|Shape=RoundedRectangle|*
%AMROUNDEDRECTD153*
21,1,1.50,0.96,0,0,90.0*
21,1,1.26,1.20,0,0,90.0*
1,1,0.24,0.48,0.63*
1,1,0.24,0.48,-0.63*
1,1,0.24,-0.48,-0.63*
1,1,0.24,-0.48,0.63*
%
%ADD153ROUNDEDRECTD153*%
G04:AMPARAMS|DCode=154|XSize=1.7mm|YSize=5.6mm|CornerRadius=0.17mm|HoleSize=0mm|Usage=FLASHONLY|Rotation=270.000|XOffset=0mm|YOffset=0mm|HoleType=Round|Shape=RoundedRectangle|*
%AMROUNDEDRECTD154*
21,1,1.70,5.26,0,0,270.0*
21,1,1.36,5.60,0,0,270.0*
1,1,0.34,-2.63,-0.68*
1,1,0.34,-2.63,0.68*
1,1,0.34,2.63,0.68*
1,1,0.34,2.63,-0.68*
%
%ADD154ROUNDEDRECTD154*%
G04:AMPARAMS|DCode=155|XSize=0.3mm|YSize=0.5mm|CornerRadius=0.03mm|HoleSize=0mm|Usage=FLASHONLY|Rotation=180.000|XOffset=0mm|YOffset=0mm|HoleType=Round|Shape=RoundedRectangle|*
%AMROUNDEDRECTD155*
21,1,0.30,0.44,0,0,180.0*
21,1,0.24,0.50,0,0,180.0*
1,1,0.06,-0.12,0.22*
1,1,0.06,0.12,0.22*
1,1,0.06,0.12,-0.22*
1,1,0.06,-0.12,-0.22*
%
%ADD155ROUNDEDRECTD155*%
G04:AMPARAMS|DCode=156|XSize=0.82mm|YSize=0.28mm|CornerRadius=0.14mm|HoleSize=0mm|Usage=FLASHONLY|Rotation=0.000|XOffset=0mm|YOffset=0mm|HoleType=Round|Shape=RoundedRectangle|*
%AMROUNDEDRECTD156*
21,1,0.82,0.00,0,0,0.0*
21,1,0.54,0.28,0,0,0.0*
1,1,0.28,0.27,0.00*
1,1,0.28,-0.27,0.00*
1,1,0.28,-0.27,0.00*
1,1,0.28,0.27,0.00*
%
%ADD156ROUNDEDRECTD156*%
G04:AMPARAMS|DCode=157|XSize=0.82mm|YSize=0.28mm|CornerRadius=0.14mm|HoleSize=0mm|Usage=FLASHONLY|Rotation=270.000|XOffset=0mm|YOffset=0mm|HoleType=Round|Shape=RoundedRectangle|*
%AMROUNDEDRECTD157*
21,1,0.82,0.00,0,0,270.0*
21,1,0.54,0.28,0,0,270.0*
1,1,0.28,0.00,-0.27*
1,1,0.28,0.00,0.27*
1,1,0.28,0.00,0.27*
1,1,0.28,0.00,-0.27*
%
%ADD157ROUNDEDRECTD157*%
G04:AMPARAMS|DCode=158|XSize=0.5mm|YSize=0.5mm|CornerRadius=0.05mm|HoleSize=0mm|Usage=FLASHONLY|Rotation=270.000|XOffset=0mm|YOffset=0mm|HoleType=Round|Shape=RoundedRectangle|*
%AMROUNDEDRECTD158*
21,1,0.50,0.40,0,0,270.0*
21,1,0.40,0.50,0,0,270.0*
1,1,0.10,-0.20,-0.20*
1,1,0.10,-0.20,0.20*
1,1,0.10,0.20,0.20*
1,1,0.10,0.20,-0.20*
%
%ADD158ROUNDEDRECTD158*%
G04:AMPARAMS|DCode=159|XSize=1.15mm|YSize=1.8mm|CornerRadius=0.12mm|HoleSize=0mm|Usage=FLASHONLY|Rotation=180.000|XOffset=0mm|YOffset=0mm|HoleType=Round|Shape=RoundedRectangle|*
%AMROUNDEDRECTD159*
21,1,1.15,1.57,0,0,180.0*
21,1,0.92,1.80,0,0,180.0*
1,1,0.23,-0.46,0.79*
1,1,0.23,0.46,0.79*
1,1,0.23,0.46,-0.79*
1,1,0.23,-0.46,-0.79*
%
%ADD159ROUNDEDRECTD159*%
G04:AMPARAMS|DCode=160|XSize=0.55mm|YSize=0.8mm|CornerRadius=0.06mm|HoleSize=0mm|Usage=FLASHONLY|Rotation=270.000|XOffset=0mm|YOffset=0mm|HoleType=Round|Shape=RoundedRectangle|*
%AMROUNDEDRECTD160*
21,1,0.55,0.69,0,0,270.0*
21,1,0.44,0.80,0,0,270.0*
1,1,0.11,-0.35,-0.22*
1,1,0.11,-0.35,0.22*
1,1,0.11,0.35,0.22*
1,1,0.11,0.35,-0.22*
%
%ADD160ROUNDEDRECTD160*%
G04:AMPARAMS|DCode=161|XSize=1.55mm|YSize=0.6mm|CornerRadius=0.06mm|HoleSize=0mm|Usage=FLASHONLY|Rotation=90.000|XOffset=0mm|YOffset=0mm|HoleType=Round|Shape=RoundedRectangle|*
%AMROUNDEDRECTD161*
21,1,1.55,0.48,0,0,90.0*
21,1,1.43,0.60,0,0,90.0*
1,1,0.12,0.24,0.72*
1,1,0.12,0.24,-0.72*
1,1,0.12,-0.24,-0.72*
1,1,0.12,-0.24,0.72*
%
%ADD161ROUNDEDRECTD161*%
G04:AMPARAMS|DCode=162|XSize=1.2mm|YSize=1.8mm|CornerRadius=0.12mm|HoleSize=0mm|Usage=FLASHONLY|Rotation=0.000|XOffset=0mm|YOffset=0mm|HoleType=Round|Shape=RoundedRectangle|*
%AMROUNDEDRECTD162*
21,1,1.20,1.56,0,0,0.0*
21,1,0.96,1.80,0,0,0.0*
1,1,0.24,0.48,-0.78*
1,1,0.24,-0.48,-0.78*
1,1,0.24,-0.48,0.78*
1,1,0.24,0.48,0.78*
%
%ADD162ROUNDEDRECTD162*%
G04:AMPARAMS|DCode=163|XSize=0.6mm|YSize=0.24mm|CornerRadius=0.04mm|HoleSize=0mm|Usage=FLASHONLY|Rotation=0.000|XOffset=0mm|YOffset=0mm|HoleType=Round|Shape=RoundedRectangle|*
%AMROUNDEDRECTD163*
21,1,0.60,0.17,0,0,0.0*
21,1,0.53,0.24,0,0,0.0*
1,1,0.07,0.26,-0.08*
1,1,0.07,-0.26,-0.08*
1,1,0.07,-0.26,0.08*
1,1,0.07,0.26,0.08*
%
%ADD163ROUNDEDRECTD163*%
G04:AMPARAMS|DCode=164|XSize=0.6mm|YSize=0.24mm|CornerRadius=0.04mm|HoleSize=0mm|Usage=FLASHONLY|Rotation=90.000|XOffset=0mm|YOffset=0mm|HoleType=Round|Shape=RoundedRectangle|*
%AMROUNDEDRECTD164*
21,1,0.60,0.17,0,0,90.0*
21,1,0.53,0.24,0,0,90.0*
1,1,0.07,0.08,0.26*
1,1,0.07,0.08,-0.26*
1,1,0.07,-0.08,-0.26*
1,1,0.07,-0.08,0.26*
%
%ADD164ROUNDEDRECTD164*%
G04:AMPARAMS|DCode=165|XSize=1.79mm|YSize=0.22mm|CornerRadius=0.03mm|HoleSize=0mm|Usage=FLASHONLY|Rotation=270.000|XOffset=0mm|YOffset=0mm|HoleType=Round|Shape=RoundedRectangle|*
%AMROUNDEDRECTD165*
21,1,1.79,0.15,0,0,270.0*
21,1,1.72,0.22,0,0,270.0*
1,1,0.07,-0.08,-0.86*
1,1,0.07,-0.08,0.86*
1,1,0.07,0.08,0.86*
1,1,0.07,0.08,-0.86*
%
%ADD165ROUNDEDRECTD165*%
G04:AMPARAMS|DCode=166|XSize=1.79mm|YSize=0.24mm|CornerRadius=0.04mm|HoleSize=0mm|Usage=FLASHONLY|Rotation=270.000|XOffset=0mm|YOffset=0mm|HoleType=Round|Shape=RoundedRectangle|*
%AMROUNDEDRECTD166*
21,1,1.79,0.17,0,0,270.0*
21,1,1.72,0.24,0,0,270.0*
1,1,0.07,-0.08,-0.86*
1,1,0.07,-0.08,0.86*
1,1,0.07,0.08,0.86*
1,1,0.07,0.08,-0.86*
%
%ADD166ROUNDEDRECTD166*%
G04:AMPARAMS|DCode=167|XSize=0.7mm|YSize=0.7mm|CornerRadius=0.07mm|HoleSize=0mm|Usage=FLASHONLY|Rotation=270.000|XOffset=0mm|YOffset=0mm|HoleType=Round|Shape=RoundedRectangle|*
%AMROUNDEDRECTD167*
21,1,0.70,0.56,0,0,270.0*
21,1,0.56,0.70,0,0,270.0*
1,1,0.14,-0.28,-0.28*
1,1,0.14,-0.28,0.28*
1,1,0.14,0.28,0.28*
1,1,0.14,0.28,-0.28*
%
%ADD167ROUNDEDRECTD167*%
G04:AMPARAMS|DCode=168|XSize=1.45mm|YSize=1.45mm|CornerRadius=0.15mm|HoleSize=0mm|Usage=FLASHONLY|Rotation=270.000|XOffset=0mm|YOffset=0mm|HoleType=Round|Shape=RoundedRectangle|*
%AMROUNDEDRECTD168*
21,1,1.45,1.16,0,0,270.0*
21,1,1.16,1.45,0,0,270.0*
1,1,0.29,-0.58,-0.58*
1,1,0.29,-0.58,0.58*
1,1,0.29,0.58,0.58*
1,1,0.29,0.58,-0.58*
%
%ADD168ROUNDEDRECTD168*%
G04:AMPARAMS|DCode=169|XSize=1.45mm|YSize=1.45mm|CornerRadius=0.29mm|HoleSize=0mm|Usage=FLASHONLY|Rotation=270.000|XOffset=0mm|YOffset=0mm|HoleType=Round|Shape=RoundedRectangle|*
%AMROUNDEDRECTD169*
21,1,1.45,0.87,0,0,270.0*
21,1,0.87,1.45,0,0,270.0*
1,1,0.58,-0.43,-0.43*
1,1,0.58,-0.43,0.43*
1,1,0.58,0.43,0.43*
1,1,0.58,0.43,-0.43*
%
%ADD169ROUNDEDRECTD169*%
G04:AMPARAMS|DCode=170|XSize=0.8mm|YSize=0.4mm|CornerRadius=0.04mm|HoleSize=0mm|Usage=FLASHONLY|Rotation=270.000|XOffset=0mm|YOffset=0mm|HoleType=Round|Shape=RoundedRectangle|*
%AMROUNDEDRECTD170*
21,1,0.80,0.32,0,0,270.0*
21,1,0.72,0.40,0,0,270.0*
1,1,0.08,-0.16,-0.36*
1,1,0.08,-0.16,0.36*
1,1,0.08,0.16,0.36*
1,1,0.08,0.16,-0.36*
%
%ADD170ROUNDEDRECTD170*%
G04:AMPARAMS|DCode=171|XSize=0.8mm|YSize=0.4mm|CornerRadius=0.04mm|HoleSize=0mm|Usage=FLASHONLY|Rotation=180.000|XOffset=0mm|YOffset=0mm|HoleType=Round|Shape=RoundedRectangle|*
%AMROUNDEDRECTD171*
21,1,0.80,0.32,0,0,180.0*
21,1,0.72,0.40,0,0,180.0*
1,1,0.08,-0.36,0.16*
1,1,0.08,0.36,0.16*
1,1,0.08,0.36,-0.16*
1,1,0.08,-0.36,-0.16*
%
%ADD171ROUNDEDRECTD171*%
G04:AMPARAMS|DCode=172|XSize=0.6mm|YSize=0.8mm|CornerRadius=0.06mm|HoleSize=0mm|Usage=FLASHONLY|Rotation=180.000|XOffset=0mm|YOffset=0mm|HoleType=Round|Shape=RoundedRectangle|*
%AMROUNDEDRECTD172*
21,1,0.60,0.68,0,0,180.0*
21,1,0.48,0.80,0,0,180.0*
1,1,0.12,-0.24,0.34*
1,1,0.12,0.24,0.34*
1,1,0.12,0.24,-0.34*
1,1,0.12,-0.24,-0.34*
%
%ADD172ROUNDEDRECTD172*%
G04:AMPARAMS|DCode=173|XSize=0.6mm|YSize=0.8mm|CornerRadius=0.15mm|HoleSize=0mm|Usage=FLASHONLY|Rotation=180.000|XOffset=0mm|YOffset=0mm|HoleType=Round|Shape=RoundedRectangle|*
%AMROUNDEDRECTD173*
21,1,0.60,0.50,0,0,180.0*
21,1,0.30,0.80,0,0,180.0*
1,1,0.30,-0.15,0.25*
1,1,0.30,0.15,0.25*
1,1,0.30,0.15,-0.25*
1,1,0.30,-0.15,-0.25*
%
%ADD173ROUNDEDRECTD173*%
G04:AMPARAMS|DCode=174|XSize=1.5mm|YSize=1.2mm|CornerRadius=0.12mm|HoleSize=0mm|Usage=FLASHONLY|Rotation=0.000|XOffset=0mm|YOffset=0mm|HoleType=Round|Shape=RoundedRectangle|*
%AMROUNDEDRECTD174*
21,1,1.50,0.96,0,0,0.0*
21,1,1.26,1.20,0,0,0.0*
1,1,0.24,0.63,-0.48*
1,1,0.24,-0.63,-0.48*
1,1,0.24,-0.63,0.48*
1,1,0.24,0.63,0.48*
%
%ADD174ROUNDEDRECTD174*%
G04:AMPARAMS|DCode=175|XSize=0.8mm|YSize=0.2mm|CornerRadius=0.1mm|HoleSize=0mm|Usage=FLASHONLY|Rotation=0.000|XOffset=0mm|YOffset=0mm|HoleType=Round|Shape=RoundedRectangle|*
%AMROUNDEDRECTD175*
21,1,0.80,0.00,0,0,0.0*
21,1,0.60,0.20,0,0,0.0*
1,1,0.20,0.30,0.00*
1,1,0.20,-0.30,0.00*
1,1,0.20,-0.30,0.00*
1,1,0.20,0.30,0.00*
%
%ADD175ROUNDEDRECTD175*%
G04:AMPARAMS|DCode=176|XSize=0.2mm|YSize=0.8mm|CornerRadius=0.1mm|HoleSize=0mm|Usage=FLASHONLY|Rotation=0.000|XOffset=0mm|YOffset=0mm|HoleType=Round|Shape=RoundedRectangle|*
%AMROUNDEDRECTD176*
21,1,0.20,0.60,0,0,0.0*
21,1,0.00,0.80,0,0,0.0*
1,1,0.20,0.00,-0.30*
1,1,0.20,0.00,-0.30*
1,1,0.20,0.00,0.30*
1,1,0.20,0.00,0.30*
%
%ADD176ROUNDEDRECTD176*%
G04:AMPARAMS|DCode=177|XSize=0.5mm|YSize=0.5mm|CornerRadius=0.05mm|HoleSize=0mm|Usage=FLASHONLY|Rotation=0.000|XOffset=0mm|YOffset=0mm|HoleType=Round|Shape=RoundedRectangle|*
%AMROUNDEDRECTD177*
21,1,0.50,0.40,0,0,0.0*
21,1,0.40,0.50,0,0,0.0*
1,1,0.10,0.20,-0.20*
1,1,0.10,-0.20,-0.20*
1,1,0.10,-0.20,0.20*
1,1,0.10,0.20,0.20*
%
%ADD177ROUNDEDRECTD177*%
G04:AMPARAMS|DCode=178|XSize=0.25mm|YSize=0.36mm|CornerRadius=0.03mm|HoleSize=0mm|Usage=FLASHONLY|Rotation=180.000|XOffset=0mm|YOffset=0mm|HoleType=Round|Shape=RoundedRectangle|*
%AMROUNDEDRECTD178*
21,1,0.25,0.31,0,0,180.0*
21,1,0.20,0.36,0,0,180.0*
1,1,0.05,-0.10,0.16*
1,1,0.05,0.10,0.16*
1,1,0.05,0.10,-0.16*
1,1,0.05,-0.10,-0.16*
%
%ADD178ROUNDEDRECTD178*%
G04:AMPARAMS|DCode=179|XSize=0.8mm|YSize=1.5mm|CornerRadius=0.08mm|HoleSize=0mm|Usage=FLASHONLY|Rotation=0.000|XOffset=0mm|YOffset=0mm|HoleType=Round|Shape=RoundedRectangle|*
%AMROUNDEDRECTD179*
21,1,0.80,1.34,0,0,0.0*
21,1,0.64,1.50,0,0,0.0*
1,1,0.16,0.32,-0.67*
1,1,0.16,-0.32,-0.67*
1,1,0.16,-0.32,0.67*
1,1,0.16,0.32,0.67*
%
%ADD179ROUNDEDRECTD179*%
G04:AMPARAMS|DCode=180|XSize=0.54mm|YSize=1.5mm|CornerRadius=0.05mm|HoleSize=0mm|Usage=FLASHONLY|Rotation=0.000|XOffset=0mm|YOffset=0mm|HoleType=Round|Shape=RoundedRectangle|*
%AMROUNDEDRECTD180*
21,1,0.54,1.39,0,0,0.0*
21,1,0.43,1.50,0,0,0.0*
1,1,0.11,0.22,-0.70*
1,1,0.11,-0.22,-0.70*
1,1,0.11,-0.22,0.70*
1,1,0.11,0.22,0.70*
%
%ADD180ROUNDEDRECTD180*%
G04:AMPARAMS|DCode=181|XSize=0.6mm|YSize=1.5mm|CornerRadius=0.06mm|HoleSize=0mm|Usage=FLASHONLY|Rotation=0.000|XOffset=0mm|YOffset=0mm|HoleType=Round|Shape=RoundedRectangle|*
%AMROUNDEDRECTD181*
21,1,0.60,1.38,0,0,0.0*
21,1,0.48,1.50,0,0,0.0*
1,1,0.12,0.24,-0.69*
1,1,0.12,-0.24,-0.69*
1,1,0.12,-0.24,0.69*
1,1,0.12,0.24,0.69*
%
%ADD181ROUNDEDRECTD181*%
%ADD182C,0.15*%
%ADD183C,0.30*%
%ADD184C,0.40*%
%ADD185C,0.70*%
%ADD186C,0.25*%
%ADD187C,0.60*%
%ADD188C,0.20*%
%ADD189C,0.50*%
%ADD190C,0.28*%
%ADD191R,3.35X3.35*%
%ADD192R,2.70X2.70*%
%ADD193R,1.80X1.80*%
%ADD194C,1.50*%
%ADD195O,2.10X1.10*%
%ADD196O,3.60X1.10*%
%ADD197O,3.00X1.20*%
%ADD198C,0.90*%
%ADD199C,0.35*%
%ADD200C,0.99*%
%ADD201C,0.50*%
%ADD202C,0.60*%
G36*
X1162Y4949D02*
X1175Y4930D01*
X1174Y4929D01*
Y4891D01*
X1177Y4880D01*
X1183Y4871D01*
X1193Y4864D01*
X1193Y4864D01*
X1194Y4859D01*
X1200Y4850D01*
X1210Y4840D01*
X1219Y4834D01*
X1227Y4832D01*
X1229Y4829D01*
X1243Y4820D01*
X1260Y4817D01*
X1269Y4819D01*
X1289Y4806D01*
Y4773D01*
X1252Y4735D01*
X1250Y4736D01*
X1232Y4732D01*
X1218Y4722D01*
X1208Y4708D01*
X1204Y4690D01*
X1208Y4672D01*
X1218Y4658D01*
X1209Y4639D01*
X1203Y4629D01*
X1199Y4610D01*
X1203Y4590D01*
X1213Y4575D01*
X1203Y4560D01*
X1199Y4540D01*
X1203Y4520D01*
X1214Y4504D01*
X1214Y4504D01*
X1218Y4482D01*
X1208Y4469D01*
X1207Y4467D01*
X1195Y4461D01*
X1188Y4459D01*
X1188Y4459D01*
X1180Y4460D01*
X808Y4460D01*
X554Y4714D01*
X554Y4714D01*
X548Y4719D01*
X543Y4720D01*
X543Y4720D01*
X371Y4720D01*
X326Y4674D01*
X321Y4668D01*
X320Y4660D01*
X320Y3800D01*
X320Y3800D01*
X321Y3792D01*
X326Y3786D01*
X366Y3746D01*
X372Y3741D01*
X380Y3740D01*
X420D01*
Y3740D01*
X640D01*
X650Y3730D01*
Y3440D01*
X620Y3410D01*
X485D01*
X487Y3399D01*
X487Y3395D01*
X476Y3384D01*
X476Y3384D01*
X471Y3378D01*
X470Y3370D01*
X470Y3285D01*
X450Y3274D01*
X428Y3279D01*
X425Y3279D01*
X410Y3280D01*
X410Y3280D01*
X410Y3280D01*
X410Y3280D01*
X100Y3280D01*
X90Y3280D01*
X72Y3288D01*
X58Y3302D01*
X50Y3320D01*
X50Y3330D01*
X50Y4500D01*
X50Y4529D01*
X58Y4588D01*
X73Y4645D01*
X96Y4699D01*
X125Y4751D01*
X161Y4797D01*
X203Y4839D01*
X249Y4875D01*
X301Y4904D01*
X355Y4927D01*
X412Y4942D01*
X471Y4950D01*
X500D01*
X500Y4950D01*
X790D01*
Y4950D01*
X1083D01*
D01*
X1160D01*
X1162Y4949D01*
D02*
G37*
G36*
X4140Y4920D02*
X4140Y4550D01*
X4030Y4440D01*
X3950D01*
X3930Y4460D01*
Y4640D01*
X3960Y4670D01*
X3960Y4920D01*
X3980Y4940D01*
X4120Y4940D01*
X4140Y4920D01*
D02*
G37*
G36*
X3930Y4920D02*
X3930Y4670D01*
X3900Y4640D01*
Y4460D01*
X3880Y4440D01*
X3770D01*
X3550Y4660D01*
Y4910D01*
X3580Y4940D01*
X3910Y4940D01*
X3930Y4920D01*
D02*
G37*
G36*
X4338Y4930D02*
X4338Y4930D01*
X4336Y4912D01*
X4338Y4893D01*
X4345Y4877D01*
X4356Y4862D01*
X4371Y4851D01*
X4388Y4844D01*
X4406Y4841D01*
X4424Y4844D01*
X4439Y4850D01*
X4498D01*
X4502Y4843D01*
X4516Y4833D01*
X4533Y4830D01*
X4540Y4831D01*
X4560Y4818D01*
Y4794D01*
X4561Y4784D01*
X4567Y4776D01*
X4575Y4770D01*
X4585Y4769D01*
X4606D01*
X4615Y4770D01*
X4628Y4774D01*
X4640Y4770D01*
X4649Y4769D01*
X4671D01*
X4680Y4770D01*
X4683Y4771D01*
X4688Y4769D01*
X4689Y4765D01*
X4689Y4750D01*
X4686Y4745D01*
X4679Y4741D01*
X4678Y4738D01*
X4624D01*
X4613Y4736D01*
X4604Y4730D01*
X4575Y4701D01*
X4569Y4692D01*
X4567Y4685D01*
X4567Y4684D01*
X4561Y4676D01*
X4560Y4667D01*
Y4610D01*
X4561Y4600D01*
X4567Y4592D01*
X4575Y4586D01*
X4585Y4585D01*
X4606D01*
X4615Y4586D01*
X4621Y4590D01*
X4625Y4585D01*
X4636Y4577D01*
X4649Y4574D01*
X4671D01*
X4684Y4577D01*
X4692Y4583D01*
X4701Y4577D01*
X4715Y4574D01*
X4735D01*
X4749Y4577D01*
X4760Y4585D01*
X4764Y4591D01*
X4784Y4584D01*
Y4580D01*
X4787Y4566D01*
X4795Y4555D01*
X4809Y4541D01*
X4801Y4521D01*
X4718D01*
X4707Y4518D01*
X4698Y4512D01*
X4692Y4503D01*
X4689Y4492D01*
Y4428D01*
X4692Y4417D01*
X4698Y4408D01*
X4707Y4402D01*
X4718Y4399D01*
X4754D01*
Y4345D01*
X4543Y4133D01*
X4535Y4122D01*
X4532Y4108D01*
Y4010D01*
X4531Y4009D01*
X4530Y4000D01*
Y3980D01*
X4531Y3971D01*
X4532Y3970D01*
Y3860D01*
X4526Y3858D01*
X4517Y3853D01*
X4512Y3844D01*
X4509Y3834D01*
Y3786D01*
X4512Y3776D01*
X4517Y3767D01*
X4526Y3761D01*
X4536Y3759D01*
X4604D01*
X4611Y3754D01*
Y3718D01*
X4611Y3718D01*
X4614Y3702D01*
X4623Y3689D01*
X4659Y3653D01*
Y3427D01*
X4639Y3414D01*
X4630Y3416D01*
X4612Y3412D01*
X4605Y3407D01*
X4598Y3412D01*
X4580Y3416D01*
X4579Y3416D01*
X4571Y3421D01*
X4567Y3425D01*
X4405D01*
Y3465D01*
X4560D01*
X4558Y3476D01*
X4556Y3480D01*
X4558Y3484D01*
X4560Y3495D01*
X4405D01*
Y3535D01*
X4563D01*
X4577Y3550D01*
X4591Y3559D01*
X4600Y3573D01*
X4603Y3590D01*
X4600Y3607D01*
X4591Y3621D01*
X4577Y3630D01*
X4560Y3633D01*
X4543Y3630D01*
X4529Y3621D01*
X4520Y3607D01*
X4517Y3590D01*
X4517Y3588D01*
X4501Y3568D01*
X4439D01*
X4423Y3588D01*
X4423Y3590D01*
X4420Y3607D01*
X4415Y3614D01*
X4417Y3620D01*
X4440Y3643D01*
X4456Y3672D01*
X4465Y3704D01*
X4465Y3720D01*
Y3736D01*
X4456Y3768D01*
X4440Y3797D01*
X4417Y3820D01*
X4388Y3836D01*
X4356Y3845D01*
X4324Y3845D01*
X4292Y3836D01*
X4263Y3820D01*
X4240Y3797D01*
X4224Y3768D01*
X4215Y3736D01*
X4215Y3720D01*
Y3704D01*
X4223Y3675D01*
X4221Y3672D01*
X4217Y3666D01*
X4208Y3659D01*
X4201Y3660D01*
X4149D01*
X4136Y3658D01*
X4124Y3650D01*
X4117Y3639D01*
X4114Y3626D01*
Y3554D01*
X4117Y3541D01*
X4119Y3538D01*
Y3527D01*
X4111Y3519D01*
X4102Y3506D01*
X4102Y3506D01*
X4094Y3502D01*
X4081Y3499D01*
X4071Y3505D01*
X4069Y3509D01*
X4065Y3527D01*
X4072Y3537D01*
X4076Y3554D01*
Y3570D01*
X4005D01*
X3934D01*
Y3554D01*
X3938Y3537D01*
X3947Y3523D01*
X3962Y3513D01*
X3979Y3510D01*
X3982D01*
X3991Y3490D01*
X3987Y3484D01*
X3984Y3470D01*
X4040D01*
Y3430D01*
X3984D01*
X3983Y3423D01*
X3969Y3418D01*
X3950Y3431D01*
Y3480D01*
X3950Y3480D01*
X3949Y3488D01*
X3944Y3494D01*
X3944Y3494D01*
X3904Y3534D01*
X3904Y3534D01*
X3898Y3539D01*
X3890Y3540D01*
X3769Y3540D01*
X3756Y3560D01*
X3758Y3570D01*
X3755Y3587D01*
X3746Y3601D01*
X3732Y3610D01*
X3715Y3613D01*
X3698Y3610D01*
X3677Y3620D01*
X3677Y3620D01*
X3666Y3636D01*
X3650Y3647D01*
X3630Y3651D01*
X3610Y3647D01*
X3594Y3636D01*
X3583Y3620D01*
X3579Y3600D01*
X3583Y3580D01*
X3590Y3570D01*
X3583Y3560D01*
X3579Y3540D01*
X3380D01*
X3372Y3539D01*
X3366Y3534D01*
X3346Y3514D01*
X3341Y3508D01*
X3340Y3500D01*
Y3220D01*
X3341Y3212D01*
X3346Y3206D01*
X3428Y3123D01*
X3429Y3118D01*
X3418Y3101D01*
X3360D01*
X3344Y3098D01*
X3331Y3089D01*
X3331Y3089D01*
X3300Y3058D01*
X3296Y3058D01*
X3280Y3066D01*
X3277Y3080D01*
X3269Y3092D01*
X3281Y3099D01*
X3290Y3113D01*
X3293Y3130D01*
X3290Y3147D01*
X3281Y3161D01*
X3267Y3170D01*
X3250Y3173D01*
X3233Y3170D01*
X3221Y3162D01*
X3213Y3163D01*
X3201Y3169D01*
Y3212D01*
Y3216D01*
X3200Y3218D01*
Y3249D01*
X3201D01*
Y3390D01*
X3202Y3391D01*
D01*
D01*
X3210Y3403D01*
X3213Y3420D01*
X3210Y3437D01*
X3204Y3445D01*
X3196Y3464D01*
X3207Y3480D01*
X3211Y3500D01*
X3207Y3520D01*
X3196Y3536D01*
X3180Y3547D01*
X3160Y3551D01*
X3140Y3547D01*
X3130Y3540D01*
X3120Y3547D01*
X3100Y3551D01*
X3080Y3547D01*
X3064Y3536D01*
X3053Y3520D01*
X3051Y3510D01*
X3031Y3512D01*
Y3599D01*
X3156D01*
X3173Y3603D01*
X3188Y3612D01*
X3197Y3627D01*
X3201Y3644D01*
Y3679D01*
X3280D01*
X3300Y3683D01*
X3316Y3694D01*
X3321Y3699D01*
X3431Y3809D01*
Y3833D01*
Y3861D01*
Y3952D01*
X3434Y3956D01*
X3439Y3962D01*
X3440Y3970D01*
X3440Y4370D01*
X3440Y4370D01*
X3439Y4378D01*
X3434Y4384D01*
X3434Y4384D01*
X3404Y4414D01*
X3404Y4414D01*
X3398Y4419D01*
X3390Y4420D01*
X3150Y4420D01*
X3144Y4419D01*
X3137Y4425D01*
X3129Y4434D01*
X3131Y4442D01*
Y4458D01*
X3151Y4469D01*
X3152Y4468D01*
X3170Y4464D01*
X3188Y4468D01*
X3202Y4478D01*
X3212Y4492D01*
X3216Y4510D01*
X3212Y4528D01*
X3202Y4542D01*
X3188Y4552D01*
X3170Y4556D01*
X3152Y4552D01*
X3151Y4551D01*
X3131Y4562D01*
Y4778D01*
X3128Y4789D01*
X3122Y4797D01*
X3114Y4803D01*
X3103Y4806D01*
X3047D01*
X3036Y4803D01*
X3031Y4800D01*
X2969D01*
X2964Y4803D01*
X2953Y4806D01*
X2897D01*
X2886Y4803D01*
X2881Y4800D01*
X2819D01*
X2814Y4803D01*
X2803Y4806D01*
X2747D01*
X2736Y4803D01*
X2728Y4797D01*
X2722Y4789D01*
X2719Y4778D01*
Y4613D01*
X2719Y4610D01*
Y4395D01*
X2719Y4392D01*
X2702Y4375D01*
X2700Y4376D01*
X2682Y4372D01*
X2668Y4362D01*
X2658Y4348D01*
X2654Y4330D01*
X2655Y4324D01*
X2655Y4323D01*
X2638Y4309D01*
X2626Y4311D01*
X2540D01*
Y4180D01*
X2681D01*
Y4217D01*
X2700Y4234D01*
X2718Y4238D01*
X2732Y4248D01*
X2742Y4262D01*
X2746Y4280D01*
X2742Y4298D01*
X2740Y4301D01*
X2748Y4319D01*
X2766Y4324D01*
X2890Y4200D01*
X2896Y4196D01*
X2900Y4177D01*
X2900Y4177D01*
X2897Y4160D01*
X2898Y4155D01*
X2881Y4138D01*
X2880Y4138D01*
X2863Y4135D01*
X2849Y4126D01*
X2840Y4112D01*
X2837Y4095D01*
X2840Y4078D01*
X2849Y4064D01*
X2860Y4057D01*
X2852Y4039D01*
X2840Y4041D01*
X2820Y4037D01*
X2804Y4026D01*
X2797Y4015D01*
X2789Y4009D01*
X2772Y4006D01*
X2764Y4009D01*
X2746Y4012D01*
X2728Y4009D01*
X2711Y4002D01*
X2696Y3991D01*
X2680Y4000D01*
X2664Y4016D01*
X2665Y4025D01*
X2677Y4043D01*
X2681Y4064D01*
Y4140D01*
X2520D01*
X2359D01*
Y4064D01*
X2360Y4060D01*
X2343Y4040D01*
X2322D01*
X2322Y4040D01*
X2305Y4043D01*
X2288Y4040D01*
X2288Y4040D01*
X2211D01*
X2208Y4042D01*
X2190Y4046D01*
X2172Y4042D01*
X2169Y4040D01*
X1990D01*
X1990Y4300D01*
X1989Y4308D01*
X1984Y4314D01*
X1984Y4314D01*
X1944Y4354D01*
X1944Y4354D01*
X1938Y4359D01*
X1930Y4360D01*
X1770Y4360D01*
X1753Y4380D01*
X1750Y4397D01*
X1741Y4411D01*
X1727Y4420D01*
X1710Y4423D01*
X1693Y4420D01*
X1679Y4411D01*
X1671D01*
X1657Y4420D01*
X1640Y4423D01*
X1623Y4420D01*
X1609Y4411D01*
X1608Y4409D01*
X1583Y4406D01*
X1574Y4414D01*
X1574Y4414D01*
X1568Y4419D01*
X1560Y4420D01*
X1307Y4420D01*
X1294Y4440D01*
X1296Y4450D01*
X1295Y4452D01*
X1332Y4488D01*
X1332Y4488D01*
X1338Y4498D01*
X1343Y4510D01*
X1359Y4507D01*
X1360Y4507D01*
X1377Y4510D01*
X1391Y4519D01*
X1400Y4533D01*
X1403Y4550D01*
X1400Y4567D01*
X1391Y4581D01*
X1386Y4584D01*
X1381Y4608D01*
X1544Y4771D01*
X1567Y4765D01*
X1574Y4754D01*
X1588Y4745D01*
X1599Y4730D01*
X1600Y4727D01*
X1597Y4710D01*
X1600Y4693D01*
X1609Y4679D01*
X1623Y4670D01*
X1640Y4667D01*
X1657Y4670D01*
X1671Y4679D01*
X1679D01*
X1693Y4670D01*
X1730Y4670D01*
X1750Y4690D01*
X1750Y4930D01*
X1770Y4950D01*
X1973Y4950D01*
X1973Y4950D01*
X2309D01*
X2319Y4930D01*
X2318Y4928D01*
X2314Y4910D01*
Y4830D01*
X2420D01*
X2526D01*
Y4910D01*
X2522Y4928D01*
X2521Y4930D01*
X2531Y4950D01*
X3169Y4950D01*
X3179Y4930D01*
X3178Y4928D01*
X3174Y4910D01*
Y4830D01*
X3280D01*
X3386D01*
Y4910D01*
X3382Y4928D01*
X3381Y4930D01*
X3391Y4950D01*
X3535D01*
X3543Y4932D01*
X3536Y4924D01*
X3531Y4918D01*
X3530Y4910D01*
Y4660D01*
X3530Y4660D01*
X3531Y4652D01*
X3536Y4646D01*
X3536Y4646D01*
X3756Y4426D01*
X3762Y4421D01*
X3770Y4420D01*
X3880D01*
X3888Y4421D01*
X3894Y4426D01*
X3902Y4433D01*
X3915Y4445D01*
X3928Y4433D01*
X3936Y4426D01*
X3942Y4421D01*
X3950Y4420D01*
X4030D01*
X4030Y4420D01*
X4038Y4421D01*
X4044Y4426D01*
X4154Y4536D01*
X4159Y4542D01*
X4160Y4550D01*
Y4587D01*
X4161Y4590D01*
X4160Y4593D01*
X4160Y4647D01*
X4161Y4650D01*
X4160Y4653D01*
X4160Y4920D01*
X4160Y4920D01*
X4159Y4928D01*
X4157Y4930D01*
X4163Y4945D01*
X4166Y4950D01*
X4325Y4950D01*
X4338Y4930D01*
D02*
G37*
G36*
X3420Y4370D02*
X3420Y3970D01*
X3390Y3940D01*
X3040Y3940D01*
X3020Y3960D01*
X3020Y4270D01*
X3150Y4400D01*
X3390Y4400D01*
X3420Y4370D01*
D02*
G37*
G36*
X800Y4440D02*
X1180Y4440D01*
X1220Y4400D01*
X1560Y4400D01*
X1620Y4340D01*
X1930Y4340D01*
X1970Y4300D01*
X1970Y3880D01*
X1930Y3840D01*
X1750Y3840D01*
X1490Y4100D01*
X1310Y4100D01*
X1290Y4120D01*
X1220Y4120D01*
X1180Y4080D01*
X1180Y3860D01*
X1100Y3780D01*
X850Y3780D01*
X820Y3750D01*
Y3110D01*
X790Y3080D01*
X590D01*
X560Y3110D01*
X560Y3180D01*
X490Y3250D01*
X490Y3370D01*
X510Y3390D01*
X630Y3390D01*
X670Y3430D01*
Y3740D01*
X650Y3760D01*
X380Y3760D01*
X340Y3800D01*
X340Y4660D01*
X380Y4700D01*
X540Y4700D01*
X800Y4440D01*
D02*
G37*
G36*
X4960Y4332D02*
X4960Y3164D01*
X4945Y3157D01*
X4940Y3157D01*
X4927Y3167D01*
X4910Y3174D01*
X4892Y3176D01*
X4873Y3174D01*
X4857Y3167D01*
X4842Y3156D01*
X4831Y3141D01*
X4824Y3124D01*
X4821Y3106D01*
X4824Y3088D01*
X4831Y3071D01*
X4837Y3063D01*
X4839Y3041D01*
X4830Y3027D01*
X4827Y3010D01*
X4827Y3007D01*
X4825Y3002D01*
X4810Y2991D01*
X4800Y2993D01*
X4783Y2990D01*
X4769Y2981D01*
X4760Y2967D01*
X4757Y2950D01*
X4759Y2938D01*
X4756Y2927D01*
X4735Y2916D01*
X4729Y2918D01*
X4724Y2922D01*
Y2975D01*
X4721Y2985D01*
X4715Y2995D01*
X4703Y3007D01*
X4703Y3010D01*
X4702Y3017D01*
X4705Y3032D01*
X4714Y3041D01*
X4723Y3045D01*
X4738Y3056D01*
X4749Y3071D01*
X4756Y3088D01*
X4759Y3106D01*
X4756Y3124D01*
X4749Y3141D01*
X4738Y3156D01*
X4723Y3167D01*
X4707Y3174D01*
X4700Y3175D01*
X4693Y3196D01*
X4729Y3231D01*
X4738Y3244D01*
X4741Y3260D01*
X4741Y3260D01*
Y3541D01*
X4761Y3551D01*
X4772Y3546D01*
X4790Y3544D01*
X4808Y3546D01*
X4825Y3553D01*
X4840Y3564D01*
X4851Y3579D01*
X4858Y3596D01*
X4860Y3614D01*
X4858Y3632D01*
X4854Y3642D01*
X4851Y3649D01*
X4860Y3669D01*
X4861Y3669D01*
X4870Y3683D01*
X4873Y3700D01*
X4885Y3714D01*
X4889D01*
X4900Y3717D01*
X4909Y3723D01*
X4916Y3733D01*
X4918Y3744D01*
Y3776D01*
X4916Y3787D01*
X4913Y3791D01*
X4910Y3797D01*
X4917Y3816D01*
X4917Y3816D01*
X4925Y3829D01*
X4928Y3840D01*
X4870D01*
Y3880D01*
X4928D01*
X4925Y3891D01*
X4917Y3904D01*
X4904Y3913D01*
X4889Y3916D01*
X4885D01*
X4873Y3934D01*
X4873Y3936D01*
X4884Y3943D01*
X4893Y3956D01*
X4896Y3970D01*
X4840D01*
Y4010D01*
X4896D01*
X4893Y4024D01*
X4890Y4029D01*
X4882Y4048D01*
X4888Y4057D01*
X4891Y4068D01*
Y4132D01*
X4888Y4143D01*
X4882Y4152D01*
X4873Y4158D01*
X4862Y4161D01*
X4826D01*
Y4225D01*
X4940Y4340D01*
X4960Y4332D01*
D02*
G37*
G36*
X3620Y3480D02*
X3620Y3150D01*
X3600Y3130D01*
X3450Y3130D01*
X3360Y3220D01*
Y3500D01*
X3380Y3520D01*
X3580D01*
X3620Y3480D01*
D02*
G37*
G36*
X3890Y3520D02*
X3930Y3480D01*
X3930Y3250D01*
X3810Y3130D01*
X3660Y3130D01*
X3640Y3150D01*
X3640Y3480D01*
X3680Y3520D01*
X3890Y3520D01*
D02*
G37*
G36*
X3861Y3131D02*
X3864Y3127D01*
Y3062D01*
X3844Y3042D01*
X3837Y3046D01*
X3826Y3048D01*
X3794D01*
X3783Y3046D01*
X3779Y3043D01*
X3773Y3040D01*
X3754Y3047D01*
X3754Y3047D01*
X3741Y3055D01*
X3730Y3058D01*
Y3000D01*
X3690D01*
Y3058D01*
X3679Y3055D01*
X3666Y3047D01*
X3657Y3034D01*
X3654Y3019D01*
Y2983D01*
X3651Y2979D01*
X3649Y2980D01*
X3631Y2991D01*
Y3020D01*
X3628Y3036D01*
X3619Y3049D01*
X3619Y3049D01*
X3599Y3068D01*
X3597Y3080D01*
X3590Y3090D01*
X3599Y3109D01*
X3599Y3110D01*
X3600D01*
X3600Y3110D01*
X3608Y3111D01*
X3614Y3116D01*
X3614Y3116D01*
X3630Y3131D01*
X3646Y3116D01*
X3652Y3111D01*
X3660Y3110D01*
X3810Y3110D01*
X3810Y3110D01*
X3818Y3111D01*
X3824Y3116D01*
X3824Y3116D01*
X3846Y3137D01*
X3861Y3131D01*
D02*
G37*
G36*
X3180Y3340D02*
Y3010D01*
X2940D01*
Y3340D01*
X2960Y3360D01*
X3160D01*
X3180Y3340D01*
D02*
G37*
G36*
X4945Y3055D02*
X4960Y3048D01*
X4960Y1381D01*
X4940D01*
Y1305D01*
X4900D01*
Y1381D01*
X4879D01*
X4864Y1378D01*
X4851Y1369D01*
X4847Y1368D01*
X4825Y1366D01*
X4822Y1368D01*
X4811Y1371D01*
X4759D01*
X4753Y1384D01*
X4751Y1391D01*
X4773Y1400D01*
X4790Y1397D01*
X4806Y1400D01*
X4820Y1409D01*
X4833Y1400D01*
X4850Y1397D01*
X4867Y1400D01*
X4881Y1409D01*
X4890Y1423D01*
X4893Y1440D01*
X4890Y1457D01*
X4881Y1471D01*
X4867Y1480D01*
X4850Y1483D01*
X4833Y1480D01*
X4820Y1471D01*
X4806Y1480D01*
X4790Y1483D01*
X4773Y1480D01*
X4759Y1471D01*
X4758Y1470D01*
X4737Y1460D01*
X4720Y1463D01*
X4703Y1460D01*
X4689Y1451D01*
X4680Y1437D01*
X4677Y1420D01*
X4677Y1417D01*
X4637Y1377D01*
X4410D01*
X4399Y1375D01*
X4390Y1369D01*
X4360Y1339D01*
X4354Y1330D01*
X4352Y1319D01*
Y1294D01*
X4350Y1293D01*
X4341Y1287D01*
X4339Y1285D01*
X4325Y1282D01*
X4318Y1282D01*
X4315Y1283D01*
X4304Y1290D01*
X4302Y1290D01*
X4283Y1300D01*
X4280Y1317D01*
X4271Y1331D01*
X4257Y1340D01*
X4240Y1343D01*
X4223Y1340D01*
X4220Y1338D01*
X4207Y1343D01*
X4200Y1348D01*
X4199Y1355D01*
X4193Y1363D01*
Y1377D01*
X4199Y1385D01*
X4200Y1394D01*
Y1421D01*
X4211Y1430D01*
X4220Y1433D01*
X4223Y1430D01*
X4240Y1427D01*
X4257Y1430D01*
X4267Y1437D01*
X4271Y1435D01*
X4285Y1432D01*
X4385D01*
Y1485D01*
X4405D01*
Y1505D01*
X4565D01*
X4579Y1512D01*
X4583Y1513D01*
X4597Y1523D01*
X4607Y1537D01*
X4611Y1555D01*
X4607Y1573D01*
X4597Y1587D01*
Y1593D01*
X4607Y1607D01*
X4611Y1625D01*
X4607Y1643D01*
X4597Y1657D01*
X4583Y1667D01*
X4565Y1671D01*
X4550Y1688D01*
Y1713D01*
X4549Y1723D01*
X4544Y1730D01*
X4549Y1737D01*
X4550Y1747D01*
Y1776D01*
X4570Y1785D01*
X4570Y1785D01*
X4581Y1777D01*
X4595Y1774D01*
X4607D01*
X4613Y1770D01*
X4630Y1767D01*
X4647Y1770D01*
X4661Y1779D01*
X4670Y1793D01*
X4673Y1810D01*
X4670Y1827D01*
X4661Y1841D01*
X4647Y1850D01*
X4630Y1853D01*
X4626Y1852D01*
X4606Y1867D01*
X4606Y1867D01*
Y2020D01*
X4617Y2040D01*
X4631Y2049D01*
X4640Y2063D01*
X4643Y2080D01*
X4642Y2087D01*
X4657Y2090D01*
X4671Y2099D01*
X4679D01*
X4693Y2090D01*
X4710Y2087D01*
X4727Y2090D01*
X4741Y2099D01*
X4750Y2113D01*
X4753Y2130D01*
X4750Y2147D01*
X4741Y2160D01*
X4742Y2163D01*
X4750Y2179D01*
X4760Y2177D01*
X4777Y2180D01*
X4791Y2189D01*
X4800Y2203D01*
X4803Y2220D01*
X4800Y2237D01*
X4791Y2251D01*
X4777Y2260D01*
X4760Y2263D01*
X4743Y2260D01*
X4729Y2251D01*
X4720Y2237D01*
X4717Y2220D01*
X4720Y2203D01*
X4729Y2190D01*
X4728Y2187D01*
X4720Y2171D01*
X4710Y2173D01*
X4693Y2170D01*
X4679Y2161D01*
X4671D01*
X4657Y2170D01*
X4640Y2173D01*
X4623Y2170D01*
X4609Y2161D01*
X4600Y2147D01*
X4597Y2130D01*
X4597Y2127D01*
X4578Y2119D01*
X4561Y2129D01*
Y2133D01*
X4558Y2146D01*
X4556Y2150D01*
X4558Y2154D01*
X4560Y2165D01*
X4405D01*
Y2205D01*
X4560D01*
X4558Y2216D01*
X4556Y2220D01*
X4558Y2224D01*
X4560Y2235D01*
X4405D01*
Y2275D01*
X4565D01*
X4577Y2280D01*
X4591Y2289D01*
X4600Y2303D01*
X4603Y2320D01*
X4600Y2337D01*
X4591Y2351D01*
Y2359D01*
X4600Y2373D01*
X4603Y2390D01*
X4600Y2407D01*
X4593Y2417D01*
X4594Y2424D01*
X4596Y2430D01*
X4601Y2438D01*
X4606Y2439D01*
X4615Y2445D01*
X4619Y2449D01*
X4640Y2444D01*
X4641Y2442D01*
X4649Y2429D01*
X4663Y2420D01*
X4680Y2417D01*
X4697Y2420D01*
X4711Y2429D01*
X4720Y2443D01*
X4723Y2460D01*
X4720Y2477D01*
X4711Y2491D01*
X4698Y2499D01*
X4696Y2500D01*
X4691Y2521D01*
X4700Y2530D01*
X4706Y2539D01*
X4708Y2550D01*
Y2630D01*
X4706Y2641D01*
X4700Y2650D01*
X4673Y2677D01*
X4673Y2680D01*
X4670Y2697D01*
X4661Y2711D01*
X4660Y2711D01*
X4657Y2737D01*
X4715Y2795D01*
X4721Y2805D01*
X4724Y2815D01*
Y2838D01*
X4729Y2842D01*
X4744Y2847D01*
X4753Y2840D01*
X4770Y2837D01*
X4787Y2840D01*
X4801Y2849D01*
X4810Y2863D01*
X4813Y2880D01*
X4811Y2892D01*
X4817Y2910D01*
X4831Y2919D01*
X4840Y2933D01*
X4843Y2950D01*
X4843Y2953D01*
X4845Y2958D01*
X4860Y2969D01*
X4870Y2967D01*
X4887Y2970D01*
X4901Y2979D01*
X4910Y2993D01*
X4913Y3010D01*
X4912Y3018D01*
X4911Y3028D01*
X4923Y3044D01*
X4927Y3045D01*
X4940Y3055D01*
X4945Y3055D01*
D02*
G37*
G36*
X3957Y3223D02*
X3958Y3221D01*
X3968Y3208D01*
X3982Y3198D01*
X3995Y3195D01*
X3998Y3182D01*
X4008Y3168D01*
X4022Y3158D01*
X4040Y3154D01*
X4043Y3155D01*
X4051Y3146D01*
X4056Y3137D01*
X4054Y3129D01*
Y3031D01*
X4056Y3021D01*
X4062Y3012D01*
X4071Y3007D01*
X4081Y3004D01*
X4129D01*
X4139Y3007D01*
X4148Y3012D01*
X4153Y3021D01*
X4155Y3031D01*
Y3042D01*
X4160Y3045D01*
X4160Y3130D01*
X4170Y3140D01*
X4260Y3140D01*
Y3045D01*
X4405D01*
Y3005D01*
X4260D01*
Y2975D01*
X4405D01*
Y2935D01*
X4260D01*
Y2900D01*
X4250Y2890D01*
X4223D01*
X4210Y2881D01*
X4196Y2890D01*
X4180Y2893D01*
X4168Y2891D01*
X4159Y2896D01*
X4150Y2914D01*
X4154Y2930D01*
X4150Y2947D01*
X4141Y2961D01*
X4127Y2970D01*
X4110Y2974D01*
X4094Y2970D01*
X4082Y2962D01*
X4080Y2961D01*
X4061Y2961D01*
X4058Y2962D01*
X4047Y2970D01*
X4030Y2973D01*
X4013Y2970D01*
X3999Y2961D01*
X3990Y2947D01*
X3971Y2950D01*
X3967Y2970D01*
X3956Y2986D01*
X3954Y2987D01*
X3953Y2991D01*
X3955Y3011D01*
X3958Y3012D01*
X3963Y3021D01*
X3965Y3031D01*
Y3129D01*
X3963Y3139D01*
X3958Y3148D01*
X3949Y3153D01*
X3939Y3156D01*
X3893D01*
X3889Y3159D01*
X3883Y3174D01*
X3936Y3227D01*
X3957Y3223D01*
D02*
G37*
G36*
X3544Y2902D02*
X3550Y2895D01*
X3552Y2884D01*
X3561Y2871D01*
X3621Y2811D01*
X3621Y2811D01*
X3634Y2803D01*
X3648Y2800D01*
X3650Y2799D01*
X3659Y2781D01*
X3644Y2773D01*
X3630Y2776D01*
Y2720D01*
X3590D01*
Y2776D01*
X3576Y2773D01*
X3575Y2772D01*
X3560Y2766D01*
X3545Y2772D01*
X3544Y2773D01*
X3530Y2776D01*
Y2720D01*
X3490D01*
Y2776D01*
X3476Y2773D01*
X3463Y2764D01*
X3455Y2751D01*
X3455Y2750D01*
X3440Y2753D01*
X3423Y2750D01*
X3407Y2761D01*
X3407Y2761D01*
X3413Y2776D01*
X3413Y2776D01*
X3413Y2779D01*
X3416Y2790D01*
X3360D01*
Y2830D01*
X3416D01*
X3413Y2844D01*
X3407Y2853D01*
X3406Y2854D01*
X3409Y2858D01*
X3409Y2858D01*
X3433Y2864D01*
X3444Y2862D01*
X3476D01*
X3487Y2864D01*
X3497Y2871D01*
X3503Y2880D01*
X3506Y2891D01*
Y2895D01*
X3520Y2907D01*
X3529Y2909D01*
X3544Y2902D01*
D02*
G37*
G36*
X1103Y3030D02*
X1280D01*
X1310Y3000D01*
X1310Y2795D01*
X1300Y2785D01*
X1215Y2785D01*
X1190Y2760D01*
X1033Y2760D01*
X1034Y2753D01*
X1036Y2750D01*
X1025Y2733D01*
X1022Y2732D01*
X1004Y2736D01*
X984Y2732D01*
X968Y2721D01*
X957Y2705D01*
X955Y2694D01*
X945Y2676D01*
X925Y2672D01*
X909Y2661D01*
X898Y2645D01*
X894Y2625D01*
X898Y2605D01*
X909Y2589D01*
X925Y2578D01*
X945Y2574D01*
X965Y2578D01*
X966Y2579D01*
X983D01*
X984Y2578D01*
X1004Y2574D01*
X1022Y2578D01*
X1025Y2577D01*
X1039Y2568D01*
X1044Y2547D01*
X1043Y2546D01*
X1042Y2537D01*
Y2513D01*
X1043Y2504D01*
X1046Y2500D01*
X1043Y2496D01*
X1042Y2487D01*
Y2463D01*
X1043Y2454D01*
X1044Y2453D01*
X1039Y2432D01*
X1025Y2423D01*
X1022Y2422D01*
X1004Y2426D01*
X984Y2422D01*
X983Y2421D01*
X966D01*
X965Y2422D01*
X945Y2426D01*
X925Y2422D01*
X909Y2411D01*
X898Y2395D01*
X894Y2375D01*
X898Y2355D01*
X909Y2339D01*
X925Y2328D01*
X937Y2326D01*
X953Y2315D01*
X957Y2295D01*
X968Y2279D01*
X984Y2268D01*
X1004Y2264D01*
X1022Y2268D01*
X1025Y2267D01*
X1036Y2250D01*
X1034Y2247D01*
X1033Y2240D01*
X1190Y2240D01*
X1215Y2215D01*
X1300Y2215D01*
X1350Y2165D01*
X1350Y2030D01*
X1350D01*
X1390Y1990D01*
X1520Y1990D01*
X1530Y1980D01*
X1530Y1940D01*
X1373Y1783D01*
X1373Y1783D01*
X1353Y1763D01*
X1350Y1763D01*
X1333Y1760D01*
X1319Y1751D01*
X1310Y1737D01*
X1307Y1720D01*
X1310Y1703D01*
X1319Y1689D01*
X1321Y1688D01*
X1315Y1668D01*
X1252D01*
X1239Y1666D01*
X1229Y1659D01*
X1222Y1648D01*
X1219Y1636D01*
Y1600D01*
X1197D01*
X1186Y1619D01*
X1186Y1620D01*
X1188Y1627D01*
X1191Y1629D01*
X1200Y1643D01*
X1203Y1660D01*
X1200Y1677D01*
X1191Y1691D01*
X1189Y1692D01*
X1186Y1717D01*
X1234Y1766D01*
X1239Y1772D01*
X1240Y1778D01*
X1240Y2030D01*
X1010Y2030D01*
Y2030D01*
X990D01*
X982Y2029D01*
X976Y2024D01*
X976Y2024D01*
X966Y2014D01*
X961Y2008D01*
X961Y2008D01*
X961Y2008D01*
X960Y2003D01*
Y1830D01*
X940Y1810D01*
X805D01*
X782Y1833D01*
D01*
X770Y1823D01*
X753Y1820D01*
X739Y1811D01*
X730Y1797D01*
X727Y1780D01*
X720Y1763D01*
X703Y1760D01*
X689Y1751D01*
X680Y1737D01*
X677Y1720D01*
X680Y1703D01*
X689Y1689D01*
X692Y1688D01*
Y1680D01*
X693Y1675D01*
X681Y1657D01*
X680Y1656D01*
X667Y1655D01*
X653Y1669D01*
X653Y1670D01*
X650Y1687D01*
X641Y1701D01*
X627Y1710D01*
X610Y1713D01*
X593Y1710D01*
X579Y1701D01*
X570Y1687D01*
X567Y1670D01*
X568Y1663D01*
X553Y1660D01*
X539Y1651D01*
X530Y1637D01*
X527Y1620D01*
X508Y1613D01*
X493Y1610D01*
X479Y1601D01*
X470Y1587D01*
X467Y1570D01*
X470Y1553D01*
X479Y1539D01*
X493Y1530D01*
X493D01*
X500Y1523D01*
Y1430D01*
X490Y1420D01*
X355Y1420D01*
X357Y1412D01*
X365Y1400D01*
X377Y1392D01*
X378Y1392D01*
X394Y1372D01*
X394Y1370D01*
X394Y1368D01*
X381Y1348D01*
X372Y1343D01*
X367Y1334D01*
X364Y1324D01*
Y1276D01*
X367Y1266D01*
X372Y1257D01*
X381Y1252D01*
X378Y1238D01*
X378Y1238D01*
X374Y1220D01*
X358Y1200D01*
X220Y1200D01*
X220Y1200D01*
X212Y1199D01*
X206Y1194D01*
X206Y1194D01*
X186Y1174D01*
X181Y1168D01*
X180Y1160D01*
X180Y1063D01*
X160Y1053D01*
X159Y1053D01*
X149Y1056D01*
X50D01*
X50Y1544D01*
X149D01*
X159Y1547D01*
X168Y1552D01*
X173Y1561D01*
X176Y1571D01*
Y1619D01*
X173Y1629D01*
X168Y1638D01*
X159Y1643D01*
X149Y1646D01*
X50D01*
Y1670D01*
X50Y1680D01*
X58Y1698D01*
X72Y1712D01*
X90Y1720D01*
X100Y1720D01*
X100Y1720D01*
X410Y1720D01*
X425Y1721D01*
X454Y1726D01*
X481Y1738D01*
X505Y1754D01*
X526Y1775D01*
X542Y1799D01*
X554Y1826D01*
X559Y1855D01*
X560Y1870D01*
X560Y1870D01*
Y1935D01*
X575Y1948D01*
X580Y1947D01*
X650D01*
Y2038D01*
Y2129D01*
X580D01*
X575Y2128D01*
X560Y2141D01*
X560Y2863D01*
X575Y2876D01*
X680D01*
Y2962D01*
X700D01*
Y2982D01*
X908D01*
X908Y2984D01*
X899Y3005D01*
X894Y3012D01*
X904Y3032D01*
X1103D01*
X1103Y3030D01*
D02*
G37*
G36*
X1997Y2674D02*
X1997Y2670D01*
X2000Y2653D01*
X2009Y2639D01*
X2023Y2630D01*
X2040Y2627D01*
X2047Y2628D01*
X2057Y2617D01*
X2054Y2594D01*
X2053Y2594D01*
X2045Y2581D01*
X2042Y2570D01*
X2100D01*
Y2530D01*
X2042D01*
X2044Y2520D01*
X2040Y2513D01*
X2031Y2503D01*
X2031Y2503D01*
X2014Y2499D01*
X2000Y2490D01*
X1999Y2488D01*
X1992D01*
X1992Y2488D01*
X1980Y2491D01*
X1939D01*
X1921Y2500D01*
Y2510D01*
X1880D01*
Y2550D01*
X1921D01*
Y2560D01*
X1920Y2576D01*
X1936Y2580D01*
X1937Y2580D01*
X1951Y2589D01*
X1960Y2603D01*
X1963Y2620D01*
X1960Y2637D01*
X1951Y2651D01*
X1937Y2660D01*
X1941Y2680D01*
X1955Y2677D01*
X1972Y2680D01*
X1979Y2685D01*
X1997Y2674D01*
D02*
G37*
G36*
X4031Y2341D02*
X4037Y2332D01*
X4045Y2326D01*
X4055Y2325D01*
X4089D01*
X4095Y2305D01*
X4089Y2301D01*
X4080Y2287D01*
X4077Y2270D01*
X4078Y2264D01*
X4070Y2253D01*
X4063Y2246D01*
X4063Y2246D01*
X4050D01*
Y2175D01*
Y2104D01*
X4066D01*
X4083Y2108D01*
X4084Y2109D01*
X4095Y2109D01*
X4105Y2097D01*
X4100Y2075D01*
X4091Y2069D01*
X4079Y2063D01*
X4066Y2066D01*
X3994D01*
X3981Y2063D01*
X3970Y2056D01*
X3962Y2044D01*
X3960Y2031D01*
Y1979D01*
X3962Y1966D01*
X3970Y1954D01*
X3981Y1947D01*
X3989Y1945D01*
Y1917D01*
X3973Y1901D01*
X3949D01*
X3938Y1921D01*
X3940Y1923D01*
X3943Y1940D01*
X3940Y1957D01*
X3931Y1971D01*
X3917Y1980D01*
X3918Y1994D01*
Y2026D01*
X3916Y2037D01*
X3909Y2047D01*
X3907Y2049D01*
X3906Y2050D01*
Y2070D01*
X3907Y2071D01*
X3909Y2073D01*
X3916Y2083D01*
X3918Y2094D01*
Y2126D01*
X3916Y2137D01*
X3911Y2145D01*
Y2156D01*
X3912Y2158D01*
X3922Y2172D01*
X3926Y2190D01*
X3922Y2208D01*
X3917Y2216D01*
X3925Y2229D01*
X3928Y2240D01*
X3870D01*
Y2280D01*
X3928D01*
X3925Y2291D01*
X3917Y2304D01*
X3917Y2304D01*
X3929Y2326D01*
X3939Y2325D01*
X3985D01*
X3995Y2326D01*
X4003Y2332D01*
X4009Y2341D01*
X4010Y2344D01*
X4030D01*
X4031Y2341D01*
D02*
G37*
G36*
X2311Y2144D02*
X2349D01*
X2352Y2145D01*
X2364Y2127D01*
X2362Y2116D01*
Y2084D01*
X2364Y2073D01*
X2371Y2063D01*
X2373Y2061D01*
X2374Y2060D01*
Y2040D01*
X2373Y2039D01*
X2371Y2037D01*
X2364Y2027D01*
X2362Y2016D01*
Y1984D01*
X2364Y1973D01*
X2371Y1963D01*
X2377Y1959D01*
X2379Y1947D01*
X2386Y1938D01*
X2383Y1929D01*
X2379Y1918D01*
X2232D01*
X2215Y1935D01*
X2220Y1951D01*
Y2010D01*
X2240D01*
Y2030D01*
X2298D01*
X2295Y2041D01*
X2287Y2054D01*
X2287Y2054D01*
X2280Y2073D01*
X2283Y2079D01*
X2286Y2083D01*
X2288Y2094D01*
Y2126D01*
X2287Y2131D01*
X2294Y2139D01*
X2301Y2145D01*
X2303Y2146D01*
X2311Y2144D01*
D02*
G37*
G36*
X1983Y2140D02*
X2000Y2137D01*
X2017Y2140D01*
X2030Y2149D01*
X2044Y2140D01*
X2052Y2138D01*
X2050Y2118D01*
X2034D01*
X2019Y2115D01*
X2006Y2107D01*
X1997Y2094D01*
X1994Y2080D01*
X2050D01*
Y2060D01*
X2070D01*
Y2002D01*
X2075Y2003D01*
X2088Y1987D01*
X2083Y1980D01*
X2079Y1960D01*
X2083Y1940D01*
X2090Y1930D01*
X2083Y1920D01*
X2079Y1900D01*
X2081Y1890D01*
X2067Y1870D01*
X2000Y1870D01*
X1992Y1869D01*
X1989Y1867D01*
X1986Y1864D01*
X1986Y1864D01*
X1966Y1844D01*
X1966Y1844D01*
X1961Y1838D01*
X1960Y1830D01*
X1960Y1679D01*
X1956Y1676D01*
X1940D01*
Y1630D01*
X2172D01*
X2178Y1631D01*
X2184Y1636D01*
X2200Y1651D01*
X2216Y1636D01*
X2216Y1636D01*
X2222Y1631D01*
X2222Y1631D01*
X2226Y1630D01*
X2228Y1630D01*
X2520D01*
Y1570D01*
X2338Y1570D01*
X2334Y1569D01*
X2300Y1535D01*
X2300Y1500D01*
X2290Y1490D01*
X2255Y1490D01*
X2230Y1465D01*
Y1273D01*
X2220Y1262D01*
X2200D01*
X2190Y1273D01*
Y1465D01*
X2165Y1490D01*
X2140Y1490D01*
X2120Y1510D01*
X2120Y1540D01*
X2095Y1565D01*
X2094Y1564D01*
X2088Y1569D01*
X2082Y1570D01*
X1920Y1570D01*
Y1585D01*
X1840D01*
Y1579D01*
X1843Y1562D01*
X1851Y1550D01*
X1850Y1545D01*
X1849Y1539D01*
X1844Y1529D01*
X1842Y1529D01*
X1836Y1524D01*
X1836Y1524D01*
X1806Y1494D01*
X1806Y1494D01*
X1801Y1488D01*
X1800Y1480D01*
Y1374D01*
X1780Y1366D01*
X1770Y1374D01*
X1770Y1380D01*
Y1530D01*
X1769Y1538D01*
X1764Y1544D01*
X1764Y1544D01*
X1742Y1567D01*
X1741Y1570D01*
X1741Y1590D01*
X1742Y1593D01*
X1764Y1616D01*
X1764Y1616D01*
X1769Y1622D01*
X1770Y1630D01*
X1770Y1780D01*
X1769Y1788D01*
X1764Y1794D01*
X1758Y1801D01*
X1756Y1818D01*
X1764Y1826D01*
X1772Y1833D01*
X1790Y1829D01*
X1810Y1833D01*
X1826Y1844D01*
X1831Y1852D01*
X1854Y1854D01*
X1855Y1853D01*
X1870Y1843D01*
X1890Y1839D01*
X1910Y1843D01*
X1926Y1854D01*
X1937Y1870D01*
X1941Y1890D01*
X1937Y1910D01*
X1927Y1925D01*
X1937Y1940D01*
X1941Y1960D01*
X1937Y1980D01*
X1931Y1989D01*
Y2036D01*
X1933Y2040D01*
X1936Y2051D01*
Y2089D01*
X1933Y2100D01*
X1927Y2109D01*
X1926Y2133D01*
X1930Y2137D01*
X1947Y2140D01*
X1961Y2149D01*
X1969D01*
X1983Y2140D01*
D02*
G37*
G36*
X3424Y2241D02*
X3427Y2230D01*
X3433Y2221D01*
X3439Y2216D01*
Y2210D01*
X3439Y2210D01*
X3442Y2198D01*
X3448Y2188D01*
X3455Y2182D01*
X3455Y2175D01*
X3450Y2158D01*
X3445Y2155D01*
X3430Y2140D01*
X3424Y2131D01*
X3422Y2120D01*
Y1920D01*
X3424Y1909D01*
X3430Y1900D01*
X3450Y1880D01*
X3459Y1874D01*
X3470Y1872D01*
X3500D01*
X3500Y1872D01*
X3543D01*
X3543Y1872D01*
X3560D01*
X3571Y1874D01*
X3580Y1880D01*
X3585Y1885D01*
X3604Y1882D01*
X3607Y1880D01*
X3613Y1871D01*
X3613Y1871D01*
X3613Y1871D01*
X3612Y1848D01*
X3611Y1847D01*
X3604Y1837D01*
X3602Y1826D01*
Y1794D01*
X3604Y1783D01*
X3611Y1773D01*
X3613Y1771D01*
X3614Y1770D01*
Y1750D01*
X3613Y1749D01*
X3611Y1747D01*
X3604Y1737D01*
X3602Y1726D01*
Y1713D01*
X3600Y1693D01*
X3583Y1690D01*
X3569Y1681D01*
X3552Y1690D01*
X3549Y1692D01*
X3532Y1695D01*
X3515Y1692D01*
X3501Y1683D01*
X3492Y1669D01*
X3489Y1652D01*
X3471Y1640D01*
X3454D01*
X3445Y1639D01*
X3437Y1633D01*
X3423D01*
X3415Y1639D01*
X3406Y1640D01*
X3374D01*
X3365Y1639D01*
X3357Y1633D01*
X3343D01*
X3335Y1639D01*
X3326Y1640D01*
X3294D01*
X3285Y1639D01*
X3277Y1633D01*
X3263D01*
X3255Y1639D01*
X3246Y1640D01*
X3223D01*
X3223Y1641D01*
X3221Y1660D01*
X3229Y1662D01*
X3240Y1670D01*
X3248Y1681D01*
X3251Y1695D01*
Y1745D01*
X3249Y1751D01*
X3260Y1769D01*
X3263Y1771D01*
X3274Y1774D01*
X3283Y1780D01*
X3350Y1846D01*
X3356Y1855D01*
X3358Y1866D01*
Y1938D01*
X3361Y1939D01*
X3370Y1953D01*
X3373Y1970D01*
X3370Y1987D01*
X3361Y2001D01*
X3347Y2010D01*
X3330Y2013D01*
X3313Y2010D01*
X3299Y2001D01*
X3290Y1987D01*
X3287Y1970D01*
X3279Y1961D01*
X3241D01*
X3231Y1958D01*
X3222Y1953D01*
X3217Y1944D01*
X3215Y1934D01*
Y1866D01*
X3210Y1861D01*
X3203D01*
X3186Y1879D01*
Y1934D01*
X3184Y1944D01*
X3200Y1960D01*
X3206Y1969D01*
X3207Y1974D01*
X3207Y1974D01*
X3217Y1981D01*
X3223Y1990D01*
X3224Y1993D01*
X3231Y1994D01*
X3240Y2000D01*
X3280Y2040D01*
X3286Y2049D01*
X3288Y2060D01*
Y2127D01*
X3293Y2134D01*
X3296Y2148D01*
Y2208D01*
X3312Y2224D01*
X3372D01*
X3386Y2227D01*
X3398Y2235D01*
X3404Y2245D01*
X3406Y2245D01*
X3424Y2241D01*
D02*
G37*
G36*
X2440Y1830D02*
X2440Y1670D01*
X2420Y1650D01*
X2230Y1650D01*
X2210Y1670D01*
X2210Y1830D01*
X2230Y1850D01*
X2420Y1850D01*
X2440Y1830D01*
D02*
G37*
G36*
X2170Y1850D02*
X2190Y1830D01*
X2190Y1670D01*
X2170Y1650D01*
X2000Y1650D01*
X1980Y1670D01*
X1980Y1830D01*
X2000Y1850D01*
X2170Y1850D01*
D02*
G37*
G36*
X1110Y1990D02*
X1190Y1990D01*
X1220Y1960D01*
X1220Y1780D01*
X1085Y1645D01*
X1007Y1645D01*
X1000Y1653D01*
Y1723D01*
X1020Y1743D01*
X1020Y1785D01*
X980Y1825D01*
X980Y2000D01*
X990Y2010D01*
X1090Y2010D01*
X1110Y1990D01*
D02*
G37*
G36*
X1750Y1780D02*
X1750Y1630D01*
X1720Y1600D01*
X1460Y1600D01*
X1437Y1623D01*
X1438Y1677D01*
X1560Y1800D01*
X1730D01*
X1750Y1780D01*
D02*
G37*
G36*
X4005Y1521D02*
X4014Y1520D01*
X4046D01*
X4052Y1521D01*
X4063Y1513D01*
X4066Y1510D01*
X4140D01*
Y1470D01*
X4067D01*
X4053Y1455D01*
X4050Y1456D01*
X4032Y1452D01*
X4025Y1447D01*
X4018Y1452D01*
X4000Y1456D01*
X3982Y1452D01*
X3968Y1442D01*
X3958Y1428D01*
X3954Y1410D01*
X3958Y1392D01*
X3968Y1378D01*
X3982Y1368D01*
X4000Y1364D01*
X4018Y1368D01*
X4025Y1373D01*
X4032Y1368D01*
X4050Y1364D01*
X4065Y1367D01*
X4073Y1362D01*
X4081Y1352D01*
X4080Y1346D01*
Y1314D01*
X4081Y1305D01*
X4087Y1297D01*
X4087Y1296D01*
X4078Y1278D01*
X4070D01*
X4059Y1276D01*
X4050Y1270D01*
X4049Y1269D01*
X4031Y1261D01*
X4017Y1270D01*
X4000Y1273D01*
X3983Y1270D01*
X3969Y1261D01*
X3967D01*
X3961Y1271D01*
X3947Y1280D01*
X3930Y1283D01*
X3913Y1280D01*
X3910Y1278D01*
X3895Y1272D01*
X3880Y1278D01*
X3877Y1280D01*
X3860Y1283D01*
X3851Y1291D01*
Y1345D01*
X3847Y1363D01*
X3838Y1378D01*
X3823Y1387D01*
X3806Y1391D01*
X3758D01*
X3746Y1411D01*
X3750Y1419D01*
X3757Y1420D01*
X3761Y1423D01*
X3779Y1432D01*
X3793Y1423D01*
X3810Y1420D01*
X3827Y1423D01*
X3829Y1424D01*
X3848Y1429D01*
X3859Y1423D01*
X3863Y1420D01*
X3880Y1417D01*
X3897Y1420D01*
X3911Y1429D01*
X3920Y1443D01*
X3923Y1460D01*
X3920Y1477D01*
X3911Y1491D01*
X3906Y1494D01*
X3905Y1495D01*
X3907Y1517D01*
X3911Y1519D01*
X3925Y1521D01*
X3934Y1520D01*
X3966D01*
X3975Y1521D01*
X3983Y1527D01*
X3997D01*
X4005Y1521D01*
D02*
G37*
G36*
X1720Y1560D02*
X1750Y1530D01*
Y1380D01*
X1730Y1360D01*
X1560D01*
X1438Y1482D01*
X1437Y1538D01*
X1460Y1560D01*
X1720Y1560D01*
D02*
G37*
G36*
X2730Y1268D02*
X2733Y1264D01*
X2739Y1254D01*
X2737Y1240D01*
X2740Y1223D01*
X2749Y1209D01*
X2763Y1200D01*
X2780Y1197D01*
X2797Y1200D01*
X2811Y1209D01*
X2820Y1223D01*
X2823Y1240D01*
X2820Y1257D01*
X2816Y1262D01*
X2826Y1282D01*
X2837Y1284D01*
X2847Y1291D01*
X2853Y1300D01*
X2854Y1303D01*
X2861Y1304D01*
X2870Y1310D01*
X2881Y1322D01*
X2890Y1318D01*
X2900Y1312D01*
X2901Y1305D01*
X2907Y1297D01*
Y1283D01*
X2901Y1275D01*
X2900Y1266D01*
Y1234D01*
X2901Y1225D01*
X2907Y1217D01*
Y1203D01*
X2901Y1195D01*
X2900Y1186D01*
Y1154D01*
X2901Y1145D01*
X2907Y1137D01*
Y1123D01*
X2901Y1115D01*
X2900Y1106D01*
Y1074D01*
X2901Y1065D01*
X2907Y1057D01*
Y1043D01*
X2901Y1035D01*
X2900Y1026D01*
Y994D01*
X2901Y985D01*
X2907Y977D01*
Y963D01*
X2901Y955D01*
X2900Y946D01*
Y914D01*
X2901Y905D01*
X2907Y897D01*
Y883D01*
X2901Y875D01*
X2900Y866D01*
Y834D01*
X2901Y825D01*
X2907Y817D01*
Y803D01*
X2901Y795D01*
X2900Y786D01*
Y754D01*
X2901Y745D01*
X2907Y737D01*
Y723D01*
X2901Y715D01*
X2900Y706D01*
Y674D01*
X2901Y665D01*
X2900Y650D01*
X3010Y650D01*
X3031Y671D01*
X3020Y679D01*
Y706D01*
X3019Y715D01*
X3013Y723D01*
Y737D01*
X3019Y745D01*
X3020Y754D01*
Y786D01*
X3019Y795D01*
X3013Y803D01*
Y817D01*
X3019Y825D01*
X3020Y834D01*
Y866D01*
X3019Y875D01*
X3013Y883D01*
Y897D01*
X3019Y905D01*
X3020Y914D01*
Y946D01*
X3019Y955D01*
X3013Y963D01*
X3013Y964D01*
X3022Y982D01*
X3040D01*
X3051Y984D01*
X3060Y990D01*
X3148Y1078D01*
X3162Y1072D01*
X3167Y1069D01*
X3170Y1053D01*
X3179Y1039D01*
X3193Y1030D01*
X3210Y1027D01*
X3227Y1030D01*
X3229Y1032D01*
X3232Y1032D01*
X3251Y1022D01*
X3253Y1015D01*
X3262Y1000D01*
Y983D01*
X3253Y968D01*
X3249Y951D01*
Y912D01*
X3353D01*
Y872D01*
X3249D01*
Y835D01*
X3253Y817D01*
X3262Y802D01*
X3277Y793D01*
X3278Y792D01*
X3283Y777D01*
X3283Y775D01*
X3266Y762D01*
X3260Y763D01*
X3243Y760D01*
X3229Y751D01*
X3220Y737D01*
X3217Y720D01*
X3220Y703D01*
X3228Y691D01*
X3227Y684D01*
X3221Y671D01*
X3214D01*
X3211Y670D01*
X3446D01*
X3439Y673D01*
X3430Y693D01*
X3433Y710D01*
X3430Y727D01*
X3421Y741D01*
X3407Y750D01*
X3390Y753D01*
X3387Y753D01*
X3382Y755D01*
X3371Y770D01*
X3373Y780D01*
X3381Y789D01*
X3410D01*
X3428Y793D01*
X3443Y802D01*
X3443Y802D01*
X3464Y806D01*
X3483Y793D01*
X3506Y789D01*
X3507D01*
X3521Y769D01*
X3519Y760D01*
X3523Y740D01*
X3534Y724D01*
X3550Y713D01*
X3570Y709D01*
X3590Y713D01*
X3600Y720D01*
X3610Y713D01*
X3630Y709D01*
X3650Y713D01*
X3660Y720D01*
X3670Y713D01*
X3690Y709D01*
X3710Y713D01*
X3726Y724D01*
X3737Y740D01*
X3741Y760D01*
X3739Y769D01*
X3753Y789D01*
X3791D01*
X3814Y793D01*
X3834Y806D01*
X3847Y826D01*
X3851Y849D01*
Y873D01*
X3748D01*
Y912D01*
X3851D01*
Y936D01*
X3847Y959D01*
X3834Y979D01*
X3840Y995D01*
X3842Y995D01*
X3862Y989D01*
X3868Y981D01*
X3882Y971D01*
X3900Y967D01*
X3918Y971D01*
X3932Y981D01*
X3942Y996D01*
X3946Y1013D01*
X3942Y1031D01*
X3932Y1046D01*
X3918Y1056D01*
X3900Y1059D01*
X3882Y1056D01*
X3871Y1048D01*
X3858Y1052D01*
X3851Y1057D01*
Y1070D01*
X3748D01*
Y1110D01*
X3851D01*
Y1132D01*
X3855Y1136D01*
X3869Y1144D01*
X3880Y1142D01*
X4078D01*
X4087Y1124D01*
X4087Y1123D01*
X4081Y1115D01*
X4080Y1106D01*
Y1074D01*
X4081Y1065D01*
X4087Y1057D01*
Y1043D01*
X4081Y1035D01*
X4080Y1026D01*
Y994D01*
X4081Y985D01*
X4087Y977D01*
Y963D01*
X4083Y957D01*
X4079Y955D01*
X4060Y950D01*
X4050Y957D01*
X4030Y961D01*
X4010Y957D01*
X3994Y946D01*
X3983Y930D01*
X3979Y910D01*
X3983Y890D01*
X3989Y881D01*
Y879D01*
X3983Y870D01*
X3979Y850D01*
X3983Y830D01*
X3989Y821D01*
Y819D01*
X3983Y810D01*
X3979Y790D01*
X3983Y770D01*
X3994Y754D01*
X4010Y743D01*
X4030Y739D01*
X4050Y743D01*
X4064Y734D01*
X4100Y770D01*
X4180D01*
Y570D01*
X4170Y560D01*
X2993Y560D01*
X2993Y560D01*
X2976Y561D01*
X2942Y556D01*
X2910Y544D01*
X2889Y530D01*
X2887Y528D01*
X2874Y515D01*
X2858Y491D01*
X2846Y464D01*
X2842Y439D01*
X2841Y435D01*
X2840Y420D01*
X2840Y420D01*
X2840Y420D01*
X2840Y100D01*
X2840Y90D01*
X2832Y72D01*
X2818Y58D01*
X2809Y54D01*
X2790Y50D01*
Y50D01*
X2411D01*
Y177D01*
X2408Y188D01*
X2402Y197D01*
X2393Y203D01*
X2382Y206D01*
X2318D01*
X2307Y203D01*
X2303Y201D01*
X2300Y205D01*
X2288Y213D01*
X2280Y215D01*
X2275Y230D01*
X2275Y235D01*
X2281Y239D01*
X2290Y253D01*
X2293Y270D01*
X2291Y284D01*
X2298Y291D01*
X2307Y297D01*
X2307Y297D01*
X2318Y294D01*
X2382D01*
X2393Y297D01*
X2402Y303D01*
X2408Y312D01*
X2411Y323D01*
Y342D01*
X2429Y354D01*
X2431Y354D01*
X2440Y352D01*
X2520D01*
X2531Y354D01*
X2540Y360D01*
X2560Y380D01*
X2566Y389D01*
X2568Y400D01*
Y438D01*
X2657Y527D01*
X2660Y527D01*
X2663Y527D01*
X2667Y526D01*
X2682Y511D01*
Y379D01*
X2670Y363D01*
X2653Y360D01*
X2639Y351D01*
X2630Y337D01*
X2627Y320D01*
X2630Y303D01*
X2639Y289D01*
X2653Y280D01*
X2670Y277D01*
X2687Y280D01*
X2701Y289D01*
X2710Y303D01*
X2713Y320D01*
X2713Y323D01*
X2730Y340D01*
X2736Y349D01*
X2738Y360D01*
Y508D01*
X2810Y580D01*
X2816Y589D01*
X2818Y600D01*
Y710D01*
X2816Y721D01*
X2810Y730D01*
X2798Y742D01*
X2789Y748D01*
X2779Y750D01*
X2776Y754D01*
X2769Y759D01*
X2760Y760D01*
X2740D01*
X2731Y759D01*
X2727Y756D01*
X2712Y758D01*
X2705Y761D01*
X2697Y774D01*
X2684Y783D01*
X2670Y786D01*
Y730D01*
X2630D01*
Y786D01*
X2618Y783D01*
X2617Y787D01*
X2608Y801D01*
X2594Y810D01*
X2577Y813D01*
X2571Y812D01*
X2552Y825D01*
X2551Y827D01*
Y836D01*
X2553Y840D01*
X2556Y851D01*
Y889D01*
X2553Y900D01*
X2551Y904D01*
Y988D01*
X2571Y999D01*
X2572Y998D01*
X2584Y995D01*
X2597Y981D01*
X2600Y976D01*
X2599Y970D01*
X2603Y950D01*
X2614Y934D01*
X2630Y923D01*
X2650Y919D01*
X2670Y923D01*
X2686Y934D01*
X2697Y950D01*
X2701Y970D01*
X2697Y990D01*
X2686Y1006D01*
X2670Y1017D01*
X2656Y1020D01*
X2644Y1039D01*
X2648Y1053D01*
X2650Y1053D01*
X2666Y1064D01*
X2677Y1080D01*
X2681Y1100D01*
X2677Y1120D01*
X2666Y1136D01*
X2658Y1142D01*
X2663Y1150D01*
X2666Y1161D01*
Y1199D01*
X2663Y1210D01*
X2657Y1219D01*
X2657Y1220D01*
X2658Y1242D01*
X2659Y1243D01*
X2666Y1253D01*
X2667Y1258D01*
X2672Y1266D01*
X2688Y1273D01*
X2690Y1272D01*
Y1330D01*
X2730D01*
Y1268D01*
D02*
G37*
G36*
X2290Y1470D02*
X2303Y1457D01*
X2302Y1400D01*
X2302Y1275D01*
X2292Y1265D01*
X2255Y1265D01*
X2248Y1273D01*
X2248Y1457D01*
X2260Y1470D01*
X2290Y1470D01*
D02*
G37*
G36*
X2172Y1457D02*
X2173Y1273D01*
X2165Y1265D01*
X2127Y1265D01*
X2117Y1275D01*
X2117Y1400D01*
X2117Y1457D01*
X2130Y1470D01*
X2160Y1470D01*
X2172Y1457D01*
D02*
G37*
G36*
X2450Y1510D02*
X2540D01*
X2560Y1490D01*
X2560Y1280D01*
X2540Y1260D01*
X2330Y1260D01*
X2320Y1270D01*
X2320Y1530D01*
X2340Y1550D01*
X2410D01*
X2450Y1510D01*
D02*
G37*
G36*
X2100Y1530D02*
X2100Y1220D01*
X2090Y1210D01*
X1840Y1210D01*
X1820Y1230D01*
Y1480D01*
X1850Y1510D01*
X1970Y1510D01*
X2010Y1550D01*
X2080D01*
X2100Y1530D01*
D02*
G37*
G36*
X1200Y1430D02*
X1290Y1340D01*
X1770D01*
X1800Y1310D01*
X1800Y1150D01*
X1770Y1120D01*
X1220Y1120D01*
X1200Y1140D01*
X1200Y1190D01*
X1043Y1348D01*
X1043Y1420D01*
X1053Y1430D01*
X1200Y1430D01*
D02*
G37*
G36*
X1870Y1190D02*
X1873Y1184D01*
X1875Y1170D01*
X1864Y1161D01*
X1853Y1147D01*
X1846Y1130D01*
X1844Y1112D01*
X1846Y1093D01*
X1853Y1077D01*
X1864Y1062D01*
X1879Y1051D01*
X1896Y1044D01*
X1914Y1041D01*
X1932Y1044D01*
X1943Y1038D01*
X1944Y1037D01*
X1949Y1029D01*
X1941Y1010D01*
X1940Y1009D01*
X1881D01*
X1870Y1007D01*
X1861Y1001D01*
X1814Y953D01*
X1802Y951D01*
X1787Y952D01*
X1784Y954D01*
X1784Y954D01*
X1778Y959D01*
X1770Y960D01*
X1633Y960D01*
X1628Y967D01*
X1621Y980D01*
X1623Y994D01*
X1620Y1010D01*
X1611Y1024D01*
X1597Y1034D01*
X1586Y1036D01*
X1577Y1051D01*
X1575Y1056D01*
X1579Y1073D01*
X1578Y1080D01*
X1592Y1100D01*
X1770Y1100D01*
X1778Y1101D01*
X1784Y1106D01*
X1784Y1106D01*
X1814Y1136D01*
X1814Y1136D01*
X1819Y1142D01*
X1820Y1150D01*
Y1175D01*
X1823Y1179D01*
X1838Y1189D01*
X1840Y1190D01*
X1840Y1190D01*
X1870Y1190D01*
D02*
G37*
G36*
X4699Y1331D02*
Y1269D01*
X4702Y1258D01*
X4708Y1248D01*
X4708Y1248D01*
X4688Y1227D01*
X4681Y1218D01*
X4679Y1207D01*
Y1204D01*
X4676Y1204D01*
X4667Y1198D01*
X4661Y1189D01*
X4660Y1180D01*
Y1020D01*
X4661Y1011D01*
X4667Y1002D01*
X4676Y996D01*
X4679Y996D01*
Y993D01*
X4681Y982D01*
X4688Y973D01*
X4708Y952D01*
X4708Y952D01*
X4702Y942D01*
X4699Y931D01*
Y873D01*
X4694Y869D01*
X4679Y864D01*
X4673Y868D01*
X4660Y871D01*
X4657D01*
X4644Y891D01*
X4646Y900D01*
X4642Y918D01*
X4641Y920D01*
Y930D01*
X4642Y932D01*
X4646Y950D01*
X4642Y968D01*
X4632Y982D01*
X4618Y992D01*
X4600Y996D01*
X4593Y994D01*
X4581Y1013D01*
X4585Y1019D01*
X4588Y1030D01*
X4530D01*
Y1050D01*
X4510D01*
Y1106D01*
X4496Y1103D01*
X4495Y1102D01*
X4474Y1097D01*
X4461Y1105D01*
X4446Y1108D01*
X4440D01*
X4436Y1112D01*
X4427Y1128D01*
X4428Y1134D01*
Y1166D01*
X4426Y1177D01*
X4419Y1187D01*
X4417Y1189D01*
X4416Y1190D01*
Y1210D01*
X4417Y1211D01*
X4419Y1213D01*
X4426Y1223D01*
X4428Y1234D01*
Y1266D01*
X4426Y1277D01*
X4419Y1287D01*
X4417Y1309D01*
X4427Y1321D01*
X4649D01*
X4660Y1323D01*
X4669Y1329D01*
X4679Y1340D01*
X4699Y1331D01*
D02*
G37*
G36*
X990Y1370D02*
X1025D01*
Y1335D01*
X1180Y1180D01*
X1180Y720D01*
X1130Y670D01*
X1020Y670D01*
X1010Y680D01*
Y1190D01*
X950Y1250D01*
X950Y1370D01*
X990Y1370D01*
D02*
G37*
G36*
X930Y1327D02*
Y1240D01*
X990Y1180D01*
Y670D01*
X1010Y650D01*
X1140D01*
X1200Y710D01*
X1200Y900D01*
X1240Y940D01*
X1770Y940D01*
X1800Y910D01*
Y640D01*
X1770Y610D01*
X1540Y610D01*
X1360Y430D01*
X1360Y315D01*
X1400Y275D01*
X1400Y100D01*
X1380Y80D01*
X1200Y80D01*
X1180Y100D01*
Y390D01*
X1140Y430D01*
X840Y430D01*
X790Y480D01*
Y1180D01*
X850Y1240D01*
X850Y1328D01*
X860Y1337D01*
X920Y1338D01*
X930Y1327D01*
D02*
G37*
G36*
X830Y1327D02*
X830Y1250D01*
X770Y1190D01*
X770Y660D01*
X750Y640D01*
X610Y640D01*
X550Y580D01*
X350Y580D01*
X320Y610D01*
X320Y750D01*
X530Y960D01*
X530Y1130D01*
X737Y1337D01*
X820Y1338D01*
X830Y1327D01*
D02*
G37*
G36*
X760Y620D02*
X770Y610D01*
X770Y472D01*
X771Y472D01*
X776Y466D01*
X776Y466D01*
X792Y450D01*
X791Y448D01*
X780Y433D01*
X774Y434D01*
X726D01*
X716Y432D01*
X707Y426D01*
X693D01*
X684Y432D01*
X674Y434D01*
X626D01*
X616Y432D01*
X607Y426D01*
X602Y418D01*
X599Y408D01*
Y389D01*
X579Y378D01*
X577Y380D01*
X560Y383D01*
X558Y383D01*
X538Y399D01*
Y416D01*
X536Y427D01*
X533Y431D01*
X530Y437D01*
X537Y456D01*
X537Y456D01*
X545Y469D01*
X548Y480D01*
X490D01*
Y520D01*
X548D01*
X545Y531D01*
X540Y540D01*
X545Y555D01*
X549Y560D01*
X550D01*
X558Y561D01*
X564Y566D01*
X568Y569D01*
X569Y569D01*
X620Y620D01*
X760Y620D01*
D02*
G37*
G36*
X4460Y517D02*
X4473Y499D01*
X4469Y488D01*
X4458Y482D01*
X4440Y486D01*
X4422Y482D01*
X4408Y472D01*
X4398Y458D01*
X4394Y440D01*
X4398Y422D01*
X4403Y415D01*
X4398Y408D01*
X4394Y390D01*
X4398Y372D01*
X4396Y368D01*
X4383Y360D01*
X4360Y337D01*
X4344Y308D01*
X4335Y276D01*
Y272D01*
X4323Y270D01*
X4309Y261D01*
X4300Y247D01*
X4297Y230D01*
X4300Y213D01*
X4309Y199D01*
X4323Y190D01*
X4340Y187D01*
X4356Y190D01*
X4360Y183D01*
X4383Y160D01*
X4412Y144D01*
X4444Y135D01*
X4476Y135D01*
X4508Y144D01*
X4537Y160D01*
X4560Y183D01*
X4576Y212D01*
X4585Y244D01*
X4585Y260D01*
Y276D01*
X4576Y308D01*
X4564Y329D01*
X4574Y349D01*
X4660D01*
X4673Y352D01*
X4684Y359D01*
X4703Y370D01*
X4714Y367D01*
X4723Y362D01*
X4732Y348D01*
Y324D01*
X4734Y313D01*
X4741Y303D01*
X4743Y301D01*
X4744Y300D01*
Y280D01*
X4743Y279D01*
X4741Y277D01*
X4734Y267D01*
X4732Y256D01*
Y224D01*
X4734Y213D01*
X4741Y203D01*
X4738Y182D01*
X4732Y172D01*
X4729Y160D01*
X4729Y160D01*
Y160D01*
X4724Y156D01*
X4713Y140D01*
X4709Y120D01*
X4713Y100D01*
X4722Y86D01*
X4721Y74D01*
X4718Y64D01*
X4686Y56D01*
X4642Y50D01*
X4620Y50D01*
X4620Y50D01*
X4620Y50D01*
X4378Y50D01*
X4372Y66D01*
X4371Y70D01*
X4380Y83D01*
X4383Y100D01*
X4380Y117D01*
X4371Y131D01*
X4357Y140D01*
X4340Y143D01*
X4323Y140D01*
X4309Y131D01*
X4300Y117D01*
X4297Y100D01*
X4300Y83D01*
X4298Y76D01*
X4289Y64D01*
X4281Y64D01*
X4269Y76D01*
X4260Y98D01*
X4260Y420D01*
X4259Y435D01*
X4254Y464D01*
X4242Y491D01*
X4240Y494D01*
X4242Y498D01*
X4253Y511D01*
X4258Y509D01*
X4339D01*
X4340Y509D01*
X4341Y509D01*
X4401D01*
X4412Y512D01*
X4420Y517D01*
X4421Y519D01*
X4423Y519D01*
X4447D01*
X4460Y517D01*
D02*
G37*
G36*
X510Y1165D02*
X510Y970D01*
X300Y760D01*
X300Y550D01*
X250Y500D01*
X80Y500D01*
X50Y530D01*
X50Y850D01*
X200Y1000D01*
X200Y1160D01*
X220Y1180D01*
X495Y1180D01*
X510Y1165D01*
D02*
G37*
G36*
X230Y430D02*
Y379D01*
X246Y373D01*
X245Y364D01*
Y304D01*
X246Y295D01*
X251Y287D01*
X252Y282D01*
X251Y265D01*
X244Y260D01*
X237Y249D01*
X234Y237D01*
Y226D01*
X280D01*
Y186D01*
X234D01*
Y175D01*
X237Y163D01*
X241Y157D01*
X226Y143D01*
X203Y161D01*
X161Y203D01*
X125Y249D01*
X96Y301D01*
X73Y355D01*
X64Y390D01*
X80Y405D01*
X80Y405D01*
X126Y450D01*
X210D01*
X230Y430D01*
D02*
G37*
G36*
X1472Y485D02*
X1473Y480D01*
X1484Y464D01*
X1500Y453D01*
X1520Y449D01*
X1540Y453D01*
X1550Y460D01*
X1560Y453D01*
X1580Y449D01*
X1582Y449D01*
X1594Y440D01*
X1599Y421D01*
X1590Y407D01*
X1587Y392D01*
X1570Y396D01*
X1552Y392D01*
X1538Y382D01*
X1528Y368D01*
X1524Y350D01*
X1528Y332D01*
X1538Y318D01*
X1552Y308D01*
X1570Y304D01*
X1588Y308D01*
X1602Y318D01*
X1621Y309D01*
X1680Y250D01*
X1689Y244D01*
X1700Y242D01*
X1778D01*
X1798Y222D01*
X1787Y204D01*
X1782Y206D01*
X1718D01*
X1707Y203D01*
X1698Y197D01*
X1692Y188D01*
X1689Y177D01*
Y50D01*
X1406Y50D01*
X1404Y53D01*
X1399Y70D01*
X1414Y86D01*
X1419Y92D01*
X1420Y100D01*
Y127D01*
X1421Y130D01*
X1420Y133D01*
Y187D01*
X1421Y190D01*
X1420Y193D01*
X1420Y247D01*
X1421Y250D01*
X1420Y253D01*
Y275D01*
X1419Y282D01*
X1419Y283D01*
X1427Y301D01*
X1429Y303D01*
X1430Y303D01*
X1446Y314D01*
X1457Y330D01*
X1461Y350D01*
X1457Y370D01*
X1450Y380D01*
X1457Y390D01*
X1461Y410D01*
X1457Y430D01*
X1446Y446D01*
X1438Y451D01*
X1434Y475D01*
X1450Y491D01*
X1472Y485D01*
D02*
G37*
G36*
X13746Y5968D02*
X13747Y5968D01*
X13751Y5968D01*
X13755Y5967D01*
X13759Y5965D01*
X13764Y5963D01*
X13768Y5961D01*
X13769D01*
X13769Y5960D01*
X13770Y5959D01*
X13772Y5958D01*
X13775Y5955D01*
X13778Y5952D01*
X13780Y5949D01*
X13783Y5944D01*
X13785Y5939D01*
Y5939D01*
X13786Y5939D01*
X13786Y5938D01*
X13786Y5937D01*
X13787Y5936D01*
X13787Y5934D01*
X13788Y5930D01*
X13790Y5926D01*
X13790Y5921D01*
X13791Y5915D01*
X13791Y5909D01*
Y5909D01*
Y5908D01*
Y5907D01*
Y5906D01*
X13791Y5904D01*
Y5902D01*
X13791Y5898D01*
X13790Y5893D01*
X13789Y5888D01*
X13787Y5882D01*
X13785Y5877D01*
Y5876D01*
X13785Y5876D01*
X13784Y5875D01*
X13784Y5874D01*
X13782Y5872D01*
X13780Y5869D01*
X13778Y5865D01*
X13774Y5862D01*
X13771Y5858D01*
X13766Y5855D01*
X13766D01*
X13766Y5855D01*
X13765Y5854D01*
X13764Y5854D01*
X13762Y5853D01*
X13759Y5851D01*
X13755Y5850D01*
X13750Y5849D01*
X13746Y5848D01*
X13741Y5847D01*
X13739D01*
X13737Y5848D01*
X13735Y5848D01*
X13732Y5848D01*
X13729Y5849D01*
X13726Y5850D01*
X13723Y5851D01*
X13723Y5852D01*
X13722Y5852D01*
X13720Y5853D01*
X13719Y5854D01*
X13717Y5856D01*
X13714Y5858D01*
X13712Y5860D01*
X13710Y5862D01*
Y5806D01*
X13691D01*
Y5966D01*
X13709D01*
Y5951D01*
X13709Y5951D01*
X13710Y5952D01*
X13711Y5954D01*
X13713Y5956D01*
X13715Y5958D01*
X13717Y5960D01*
X13720Y5962D01*
X13723Y5964D01*
X13723Y5964D01*
X13724Y5965D01*
X13726Y5965D01*
X13728Y5966D01*
X13731Y5967D01*
X13734Y5968D01*
X13738Y5968D01*
X13742Y5969D01*
X13745D01*
X13746Y5968D01*
D02*
G37*
G36*
X13408Y5898D02*
X13347D01*
Y5918D01*
X13408D01*
Y5898D01*
D02*
G37*
G36*
X13547Y5991D02*
X13494D01*
Y5850D01*
X13473D01*
Y5991D01*
X13420D01*
Y6010D01*
X13547D01*
Y5991D01*
D02*
G37*
G36*
X13299Y5850D02*
X13279D01*
Y5975D01*
X13279Y5975D01*
X13278Y5974D01*
X13277Y5973D01*
X13274Y5971D01*
X13272Y5969D01*
X13268Y5967D01*
X13265Y5964D01*
X13261Y5962D01*
X13260D01*
X13260Y5961D01*
X13259Y5960D01*
X13256Y5959D01*
X13254Y5958D01*
X13250Y5956D01*
X13247Y5955D01*
X13243Y5953D01*
X13240Y5952D01*
Y5971D01*
X13240D01*
X13241Y5971D01*
X13242Y5971D01*
X13243Y5972D01*
X13244Y5973D01*
X13246Y5974D01*
X13250Y5976D01*
X13254Y5978D01*
X13259Y5982D01*
X13264Y5985D01*
X13269Y5989D01*
X13269Y5990D01*
X13269Y5990D01*
X13270Y5990D01*
X13271Y5991D01*
X13273Y5993D01*
X13276Y5996D01*
X13278Y5999D01*
X13281Y6003D01*
X13284Y6007D01*
X13286Y6011D01*
X13299D01*
Y5850D01*
D02*
G37*
G36*
X13617Y5968D02*
X13619Y5968D01*
X13622Y5968D01*
X13624Y5967D01*
X13627Y5967D01*
X13633Y5965D01*
X13637Y5964D01*
X13640Y5962D01*
X13643Y5960D01*
X13646Y5958D01*
X13649Y5956D01*
X13652Y5953D01*
X13653Y5953D01*
X13653Y5952D01*
X13654Y5951D01*
X13655Y5950D01*
X13656Y5949D01*
X13657Y5946D01*
X13659Y5944D01*
X13660Y5942D01*
X13661Y5939D01*
X13663Y5935D01*
X13664Y5932D01*
X13665Y5928D01*
X13666Y5924D01*
X13667Y5919D01*
X13667Y5915D01*
X13668Y5910D01*
Y5909D01*
Y5909D01*
Y5908D01*
Y5906D01*
X13667Y5904D01*
X13667Y5902D01*
Y5900D01*
X13667Y5897D01*
X13666Y5891D01*
X13665Y5885D01*
X13663Y5880D01*
X13661Y5874D01*
Y5874D01*
X13660Y5874D01*
X13660Y5873D01*
X13660Y5872D01*
X13658Y5870D01*
X13656Y5867D01*
X13653Y5864D01*
X13650Y5861D01*
X13646Y5857D01*
X13641Y5854D01*
X13641D01*
X13641Y5854D01*
X13640Y5854D01*
X13639Y5853D01*
X13638Y5853D01*
X13636Y5852D01*
X13633Y5851D01*
X13629Y5850D01*
X13624Y5849D01*
X13619Y5848D01*
X13613Y5847D01*
X13611D01*
X13609Y5848D01*
X13607Y5848D01*
X13605Y5848D01*
X13602Y5849D01*
X13599Y5849D01*
X13593Y5851D01*
X13589Y5853D01*
X13586Y5854D01*
X13583Y5856D01*
X13580Y5858D01*
X13577Y5860D01*
X13574Y5863D01*
X13573Y5863D01*
X13573Y5864D01*
X13572Y5865D01*
X13571Y5866D01*
X13570Y5868D01*
X13569Y5869D01*
X13568Y5872D01*
X13566Y5875D01*
X13565Y5878D01*
X13563Y5881D01*
X13562Y5885D01*
X13561Y5889D01*
X13560Y5893D01*
X13560Y5898D01*
X13559Y5903D01*
X13559Y5908D01*
Y5909D01*
Y5909D01*
X13559Y5911D01*
Y5913D01*
X13559Y5916D01*
X13560Y5919D01*
X13560Y5922D01*
X13561Y5926D01*
X13562Y5930D01*
X13563Y5934D01*
X13565Y5938D01*
X13566Y5942D01*
X13568Y5946D01*
X13571Y5949D01*
X13573Y5953D01*
X13577Y5956D01*
X13577Y5956D01*
X13577Y5956D01*
X13578Y5957D01*
X13579Y5958D01*
X13581Y5959D01*
X13583Y5960D01*
X13585Y5961D01*
X13587Y5962D01*
X13589Y5963D01*
X13592Y5965D01*
X13598Y5967D01*
X13606Y5968D01*
X13609Y5968D01*
X13613Y5969D01*
X13616D01*
X13617Y5968D01*
D02*
G37*
%LPC*%
G36*
X170Y4416D02*
X145Y4413D01*
X122Y4403D01*
X102Y4388D01*
X87Y4368D01*
X77Y4345D01*
X74Y4320D01*
X77Y4295D01*
X87Y4272D01*
X102Y4252D01*
X122Y4237D01*
X137Y4231D01*
Y4209D01*
X122Y4203D01*
X102Y4188D01*
X87Y4168D01*
X77Y4145D01*
X74Y4120D01*
X77Y4095D01*
X87Y4072D01*
X102Y4052D01*
X122Y4037D01*
X137Y4031D01*
Y4009D01*
X122Y4003D01*
X102Y3988D01*
X87Y3968D01*
X77Y3945D01*
X74Y3920D01*
X77Y3895D01*
X87Y3872D01*
X102Y3852D01*
X122Y3837D01*
X137Y3831D01*
Y3809D01*
X122Y3803D01*
X102Y3788D01*
X87Y3768D01*
X77Y3745D01*
X74Y3720D01*
X77Y3695D01*
X87Y3672D01*
X102Y3652D01*
X122Y3637D01*
X137Y3631D01*
Y3609D01*
X122Y3603D01*
X102Y3588D01*
X87Y3568D01*
X77Y3545D01*
X74Y3520D01*
X77Y3495D01*
X87Y3472D01*
X102Y3452D01*
X122Y3437D01*
X145Y3427D01*
X170Y3424D01*
X195Y3427D01*
X218Y3437D01*
X238Y3452D01*
X253Y3472D01*
X263Y3495D01*
X266Y3520D01*
X263Y3545D01*
X253Y3568D01*
X238Y3588D01*
X218Y3603D01*
X203Y3609D01*
Y3631D01*
X218Y3637D01*
X238Y3652D01*
X253Y3672D01*
X263Y3695D01*
X266Y3720D01*
X263Y3745D01*
X253Y3768D01*
X238Y3788D01*
X218Y3803D01*
X203Y3809D01*
Y3831D01*
X218Y3837D01*
X238Y3852D01*
X253Y3872D01*
X263Y3895D01*
X266Y3920D01*
X263Y3945D01*
X253Y3968D01*
X238Y3988D01*
X218Y4003D01*
X203Y4009D01*
Y4031D01*
X218Y4037D01*
X238Y4052D01*
X253Y4072D01*
X263Y4095D01*
X266Y4120D01*
X263Y4145D01*
X253Y4168D01*
X238Y4188D01*
X218Y4203D01*
X203Y4209D01*
Y4231D01*
X218Y4237D01*
X238Y4252D01*
X253Y4272D01*
X263Y4295D01*
X266Y4320D01*
X263Y4345D01*
X253Y4368D01*
X238Y4388D01*
X218Y4403D01*
X195Y4413D01*
X170Y4416D01*
D02*
G37*
G36*
X4320Y4806D02*
X4302Y4802D01*
X4295Y4797D01*
X4288Y4802D01*
X4270Y4806D01*
X4252Y4802D01*
X4238Y4792D01*
X4228Y4778D01*
X4224Y4760D01*
X4228Y4742D01*
X4238Y4728D01*
X4239Y4727D01*
X4238Y4703D01*
X4234Y4701D01*
X4225Y4687D01*
X4222Y4670D01*
X4225Y4653D01*
X4234Y4639D01*
X4248Y4630D01*
X4265Y4627D01*
X4282Y4630D01*
X4296Y4639D01*
X4305Y4653D01*
X4308Y4670D01*
X4305Y4687D01*
X4303Y4689D01*
X4314Y4710D01*
X4324Y4710D01*
X4337Y4697D01*
X4338Y4690D01*
X4345Y4673D01*
X4356Y4659D01*
X4371Y4648D01*
X4388Y4641D01*
X4406Y4638D01*
X4424Y4641D01*
X4441Y4648D01*
X4456Y4659D01*
X4467Y4673D01*
X4474Y4690D01*
X4476Y4708D01*
X4474Y4727D01*
X4467Y4743D01*
X4456Y4758D01*
X4441Y4769D01*
X4424Y4776D01*
X4406Y4779D01*
X4388Y4776D01*
X4383Y4774D01*
X4364Y4777D01*
X4358Y4784D01*
X4352Y4792D01*
X4338Y4802D01*
X4320Y4806D01*
D02*
G37*
G36*
X3260Y4790D02*
X3174D01*
Y4710D01*
X3178Y4692D01*
X3188Y4678D01*
X3202Y4668D01*
X3220Y4664D01*
X3260D01*
Y4790D01*
D02*
G37*
G36*
X2526D02*
X2440D01*
Y4664D01*
X2480D01*
X2498Y4668D01*
X2512Y4678D01*
X2522Y4692D01*
X2526Y4710D01*
Y4790D01*
D02*
G37*
G36*
X2400D02*
X2314D01*
Y4710D01*
X2318Y4692D01*
X2328Y4678D01*
X2342Y4668D01*
X2360Y4664D01*
X2400D01*
Y4790D01*
D02*
G37*
G36*
X2653Y4816D02*
X2645D01*
Y4630D01*
X2691D01*
Y4778D01*
X2688Y4792D01*
X2680Y4805D01*
X2667Y4813D01*
X2653Y4816D01*
D02*
G37*
G36*
X2605D02*
X2597D01*
X2583Y4813D01*
X2570Y4805D01*
X2562Y4792D01*
X2559Y4778D01*
Y4630D01*
X2605D01*
Y4816D01*
D02*
G37*
G36*
X3386Y4790D02*
X3300D01*
Y4656D01*
X3305Y4644D01*
X3300Y4637D01*
X3297Y4620D01*
X3300Y4603D01*
X3309Y4589D01*
X3323Y4580D01*
X3340Y4577D01*
X3357Y4580D01*
X3371Y4589D01*
X3380Y4603D01*
X3383Y4620D01*
X3380Y4637D01*
X3371Y4651D01*
X3369Y4651D01*
Y4676D01*
X3372Y4678D01*
X3382Y4692D01*
X3386Y4710D01*
Y4790D01*
D02*
G37*
G36*
X2691Y4590D02*
X2645D01*
Y4404D01*
X2653D01*
X2667Y4407D01*
X2680Y4415D01*
X2688Y4428D01*
X2691Y4442D01*
Y4590D01*
D02*
G37*
G36*
X2605D02*
X2559D01*
Y4442D01*
X2562Y4428D01*
X2570Y4415D01*
X2583Y4407D01*
X2597Y4404D01*
X2605D01*
Y4590D01*
D02*
G37*
G36*
X2406Y4615D02*
X2374Y4615D01*
X2342Y4606D01*
X2313Y4590D01*
X2290Y4567D01*
X2274Y4538D01*
X2265Y4506D01*
X2265Y4490D01*
Y4474D01*
X2274Y4442D01*
X2290Y4413D01*
X2313Y4390D01*
X2342Y4374D01*
X2374Y4365D01*
X2406Y4365D01*
X2438Y4374D01*
X2467Y4390D01*
X2490Y4413D01*
X2506Y4442D01*
X2515Y4474D01*
X2515Y4490D01*
Y4506D01*
X2506Y4538D01*
X2490Y4567D01*
X2467Y4590D01*
X2438Y4606D01*
X2406Y4615D01*
D02*
G37*
G36*
X4500Y4353D02*
X4483Y4350D01*
X4469Y4341D01*
X4460Y4327D01*
X4457Y4310D01*
X4460Y4293D01*
X4469Y4279D01*
X4483Y4270D01*
X4500Y4267D01*
X4517Y4270D01*
X4531Y4279D01*
X4540Y4293D01*
X4543Y4310D01*
X4540Y4327D01*
X4531Y4341D01*
X4517Y4350D01*
X4500Y4353D01*
D02*
G37*
G36*
X2500Y4311D02*
X2414D01*
X2393Y4307D01*
X2375Y4295D01*
X2363Y4277D01*
X2359Y4256D01*
Y4180D01*
X2500D01*
Y4311D01*
D02*
G37*
G36*
X4320Y4073D02*
X4303Y4070D01*
X4289Y4061D01*
X4280Y4047D01*
X4277Y4030D01*
X4280Y4013D01*
X4289Y3999D01*
X4303Y3990D01*
X4320Y3987D01*
X4337Y3990D01*
X4351Y3999D01*
X4360Y4013D01*
X4363Y4030D01*
X4360Y4047D01*
X4351Y4061D01*
X4337Y4070D01*
X4320Y4073D01*
D02*
G37*
G36*
X4140Y4170D02*
Y3890D01*
X4143Y3892D01*
X4153Y3906D01*
X4156Y3922D01*
Y3947D01*
X4175Y3958D01*
X4195Y3954D01*
X4215Y3958D01*
X4231Y3969D01*
X4242Y3985D01*
X4246Y4005D01*
X4242Y4025D01*
X4232Y4040D01*
X4242Y4055D01*
X4246Y4075D01*
X4242Y4095D01*
X4231Y4111D01*
X4215Y4122D01*
X4195Y4126D01*
X4175Y4122D01*
X4156Y4133D01*
Y4138D01*
X4153Y4154D01*
X4143Y4168D01*
X4140Y4170D01*
D02*
G37*
G36*
X3770Y4180D02*
X3762Y4179D01*
X3756Y4174D01*
X3756Y4174D01*
X3726Y4144D01*
X3721Y4138D01*
X3720Y4130D01*
Y3930D01*
X3721Y3922D01*
X3726Y3916D01*
X3726Y3916D01*
X3756Y3886D01*
X3756Y3886D01*
X3762Y3881D01*
X3766Y3880D01*
X3764Y3860D01*
X3710Y3860D01*
X3710Y3860D01*
X3702Y3859D01*
X3696Y3854D01*
X3666Y3824D01*
X3666Y3824D01*
X3661Y3818D01*
X3660Y3810D01*
X3660Y3730D01*
X3660Y3726D01*
X3661Y3722D01*
X3661Y3722D01*
X3666Y3716D01*
X3666Y3716D01*
X3756Y3626D01*
X3756Y3626D01*
X3762Y3621D01*
X3770Y3620D01*
X3920Y3620D01*
X3920Y3620D01*
X3928Y3610D01*
X3985D01*
Y3670D01*
X3979D01*
X3970Y3689D01*
Y3717D01*
X3971Y3720D01*
X3970Y3723D01*
Y3777D01*
X3971Y3780D01*
X3970Y3783D01*
Y3810D01*
X3970Y3810D01*
X3969Y3818D01*
X3964Y3824D01*
X3964Y3824D01*
X3934Y3854D01*
X3928Y3859D01*
X3924Y3860D01*
X3926Y3880D01*
X3950D01*
X3950Y3880D01*
X3958Y3881D01*
X3964Y3886D01*
X3983Y3891D01*
X3996Y3882D01*
X4000Y3882D01*
Y4178D01*
X3996Y4178D01*
X3982Y4168D01*
X3972Y4167D01*
X3964Y4174D01*
X3958Y4179D01*
X3950Y4180D01*
X3770D01*
X3770Y4180D01*
D02*
G37*
G36*
X4031Y3670D02*
X4025D01*
Y3610D01*
X4076D01*
Y3626D01*
X4072Y3643D01*
X4063Y3657D01*
X4048Y3667D01*
X4031Y3670D01*
D02*
G37*
%LPD*%
G36*
X3980Y4130D02*
Y3930D01*
X3950Y3900D01*
X3770D01*
X3740Y3930D01*
Y4130D01*
X3770Y4160D01*
X3950D01*
X3980Y4130D01*
D02*
G37*
G36*
X3950Y3810D02*
Y3670D01*
X3920Y3640D01*
X3770Y3640D01*
X3680Y3730D01*
X3680Y3810D01*
X3710Y3840D01*
X3920Y3840D01*
X3950Y3810D01*
D02*
G37*
%LPC*%
G36*
X4855Y3536D02*
X4838Y3533D01*
X4824Y3523D01*
X4815Y3509D01*
X4812Y3492D01*
X4815Y3476D01*
X4824Y3462D01*
X4838Y3452D01*
X4855Y3449D01*
X4872Y3452D01*
X4886Y3462D01*
X4895Y3476D01*
X4898Y3492D01*
X4895Y3509D01*
X4886Y3523D01*
X4872Y3533D01*
X4855Y3536D01*
D02*
G37*
G36*
X4853Y3398D02*
X4836Y3395D01*
X4822Y3386D01*
X4812Y3372D01*
X4809Y3355D01*
X4792Y3338D01*
X4789Y3338D01*
X4776Y3329D01*
X4767Y3316D01*
X4764Y3300D01*
X4767Y3284D01*
X4776Y3271D01*
X4789Y3262D01*
X4805Y3259D01*
X4821Y3262D01*
X4834Y3271D01*
X4843Y3284D01*
X4844Y3293D01*
X4853Y3312D01*
X4869Y3315D01*
X4883Y3324D01*
X4893Y3338D01*
X4896Y3355D01*
X4893Y3372D01*
X4883Y3386D01*
X4869Y3395D01*
X4853Y3398D01*
D02*
G37*
G36*
X4650Y2286D02*
X4632Y2282D01*
X4618Y2272D01*
X4608Y2258D01*
X4604Y2240D01*
X4608Y2222D01*
X4618Y2208D01*
X4632Y2198D01*
X4650Y2194D01*
X4668Y2198D01*
X4682Y2208D01*
X4692Y2222D01*
X4696Y2240D01*
X4692Y2258D01*
X4682Y2272D01*
X4668Y2282D01*
X4650Y2286D01*
D02*
G37*
G36*
X4870Y2333D02*
X4853Y2330D01*
X4839Y2321D01*
X4830Y2307D01*
X4827Y2290D01*
X4830Y2273D01*
X4839Y2259D01*
Y2251D01*
X4830Y2237D01*
X4827Y2220D01*
X4830Y2203D01*
X4839Y2189D01*
X4853Y2180D01*
X4870Y2177D01*
X4887Y2180D01*
X4901Y2189D01*
X4910Y2203D01*
X4913Y2220D01*
X4910Y2237D01*
X4901Y2251D01*
Y2259D01*
X4910Y2273D01*
X4913Y2290D01*
X4910Y2307D01*
X4901Y2321D01*
X4887Y2330D01*
X4870Y2333D01*
D02*
G37*
G36*
X4805Y1741D02*
X4789Y1738D01*
X4776Y1729D01*
X4767Y1716D01*
X4764Y1700D01*
X4767Y1684D01*
X4776Y1671D01*
X4789Y1662D01*
X4805Y1659D01*
X4821Y1662D01*
X4834Y1671D01*
X4843Y1684D01*
X4846Y1700D01*
X4843Y1716D01*
X4834Y1729D01*
X4821Y1738D01*
X4805Y1741D01*
D02*
G37*
G36*
X4560Y1465D02*
X4425D01*
Y1432D01*
X4526D01*
X4539Y1435D01*
X4550Y1442D01*
X4558Y1454D01*
X4560Y1465D01*
D02*
G37*
G36*
X908Y2942D02*
X720D01*
Y2876D01*
X825D01*
X847Y2879D01*
X868Y2888D01*
X886Y2901D01*
X899Y2919D01*
X908Y2940D01*
X908Y2942D01*
D02*
G37*
G36*
X760Y2129D02*
X690D01*
Y2058D01*
X848D01*
X848Y2061D01*
X839Y2083D01*
X824Y2102D01*
X805Y2117D01*
X783Y2126D01*
X760Y2129D01*
D02*
G37*
G36*
X848Y2018D02*
X690D01*
Y1947D01*
X760D01*
X763Y1948D01*
X764Y1947D01*
X847D01*
X850Y1950D01*
Y1992D01*
X843Y2003D01*
X848Y2015D01*
X848Y2018D01*
D02*
G37*
G36*
X270Y1456D02*
X252Y1452D01*
X238Y1442D01*
X228Y1428D01*
X224Y1410D01*
X228Y1392D01*
X238Y1378D01*
X252Y1368D01*
X270Y1364D01*
X288Y1368D01*
X302Y1378D01*
X312Y1392D01*
X316Y1410D01*
X312Y1428D01*
X302Y1442D01*
X288Y1452D01*
X270Y1456D01*
D02*
G37*
G36*
X4010Y2246D02*
X3994D01*
X3977Y2242D01*
X3963Y2233D01*
X3953Y2218D01*
X3950Y2201D01*
Y2195D01*
X4010D01*
Y2246D01*
D02*
G37*
G36*
Y2155D02*
X3950D01*
Y2149D01*
X3953Y2132D01*
X3963Y2117D01*
X3977Y2108D01*
X3994Y2104D01*
X4010D01*
Y2155D01*
D02*
G37*
G36*
X2298Y1990D02*
X2260D01*
Y1954D01*
X2274Y1957D01*
X2287Y1966D01*
X2295Y1979D01*
X2298Y1990D01*
D02*
G37*
G36*
X2030Y2040D02*
X1994D01*
X1997Y2026D01*
X2006Y2013D01*
X2019Y2005D01*
X2030Y2002D01*
Y2040D01*
D02*
G37*
G36*
X1900Y1676D02*
X1884D01*
X1867Y1672D01*
X1853Y1663D01*
X1843Y1648D01*
X1840Y1631D01*
Y1625D01*
X1900D01*
Y1676D01*
D02*
G37*
G36*
X2750Y1083D02*
X2733Y1080D01*
X2719Y1071D01*
X2710Y1057D01*
X2707Y1040D01*
X2710Y1023D01*
X2719Y1009D01*
X2733Y1000D01*
X2750Y997D01*
X2767Y1000D01*
X2774Y1005D01*
X2782Y1009D01*
X2799Y1000D01*
X2799Y999D01*
X2813Y990D01*
X2830Y987D01*
X2847Y990D01*
X2861Y999D01*
X2870Y1013D01*
X2873Y1030D01*
X2870Y1047D01*
X2861Y1061D01*
X2847Y1070D01*
X2830Y1073D01*
X2813Y1070D01*
X2806Y1065D01*
X2798Y1061D01*
X2781Y1070D01*
X2781Y1071D01*
X2767Y1080D01*
X2750Y1083D01*
D02*
G37*
G36*
Y943D02*
X2733Y940D01*
X2719Y931D01*
X2710Y917D01*
X2707Y900D01*
X2710Y883D01*
X2719Y869D01*
X2733Y860D01*
X2750Y857D01*
X2767Y860D01*
X2770Y862D01*
X2787Y863D01*
X2795Y856D01*
X2799Y849D01*
X2813Y840D01*
X2830Y837D01*
X2847Y840D01*
X2861Y849D01*
X2870Y863D01*
X2873Y880D01*
X2870Y897D01*
X2861Y911D01*
X2847Y920D01*
X2830Y923D01*
X2813Y920D01*
X2810Y918D01*
X2793Y917D01*
X2785Y924D01*
X2781Y931D01*
X2767Y940D01*
X2750Y943D01*
D02*
G37*
G36*
X2650Y223D02*
X2633Y220D01*
X2619Y211D01*
X2610Y197D01*
X2607Y180D01*
X2610Y163D01*
X2619Y149D01*
X2633Y140D01*
X2650Y137D01*
X2667Y140D01*
X2681Y149D01*
X2690Y163D01*
X2693Y180D01*
X2690Y197D01*
X2681Y211D01*
X2667Y220D01*
X2650Y223D01*
D02*
G37*
G36*
X4550Y1106D02*
Y1070D01*
X4588D01*
X4585Y1081D01*
X4577Y1094D01*
X4564Y1103D01*
X4550Y1106D01*
D02*
G37*
G36*
X13740Y5953D02*
X13739D01*
X13738Y5953D01*
X13736Y5953D01*
X13733Y5952D01*
X13729Y5950D01*
X13726Y5948D01*
X13724Y5947D01*
X13722Y5945D01*
X13720Y5943D01*
X13718Y5941D01*
Y5941D01*
X13718Y5941D01*
X13717Y5940D01*
X13717Y5939D01*
X13716Y5938D01*
X13715Y5937D01*
X13714Y5935D01*
X13713Y5933D01*
X13713Y5931D01*
X13712Y5928D01*
X13711Y5925D01*
X13710Y5922D01*
X13709Y5919D01*
X13709Y5915D01*
X13709Y5912D01*
Y5907D01*
Y5907D01*
Y5906D01*
Y5905D01*
X13709Y5904D01*
Y5902D01*
X13709Y5900D01*
X13710Y5895D01*
X13711Y5889D01*
X13712Y5884D01*
X13715Y5879D01*
X13716Y5876D01*
X13718Y5874D01*
X13718Y5874D01*
X13719Y5873D01*
X13721Y5871D01*
X13724Y5869D01*
X13727Y5867D01*
X13731Y5865D01*
X13735Y5864D01*
X13737Y5864D01*
X13739Y5864D01*
X13741D01*
X13742Y5864D01*
X13744Y5864D01*
X13747Y5865D01*
X13751Y5866D01*
X13754Y5868D01*
X13758Y5871D01*
X13760Y5873D01*
X13762Y5875D01*
Y5875D01*
X13762Y5875D01*
X13763Y5876D01*
X13763Y5877D01*
X13764Y5878D01*
X13765Y5879D01*
X13766Y5881D01*
X13767Y5883D01*
X13767Y5885D01*
X13768Y5888D01*
X13769Y5891D01*
X13770Y5894D01*
X13770Y5897D01*
X13771Y5901D01*
X13771Y5905D01*
Y5909D01*
Y5909D01*
Y5910D01*
Y5911D01*
X13771Y5913D01*
Y5915D01*
X13771Y5917D01*
X13770Y5922D01*
X13769Y5927D01*
X13767Y5932D01*
X13765Y5937D01*
X13764Y5940D01*
X13762Y5942D01*
Y5942D01*
X13762Y5943D01*
X13760Y5944D01*
X13759Y5946D01*
X13756Y5948D01*
X13753Y5950D01*
X13749Y5952D01*
X13745Y5953D01*
X13743Y5953D01*
X13740Y5953D01*
D02*
G37*
G36*
X13613Y5953D02*
X13612D01*
X13611Y5952D01*
X13608Y5952D01*
X13605Y5951D01*
X13601Y5950D01*
X13597Y5948D01*
X13593Y5945D01*
X13591Y5943D01*
X13589Y5941D01*
Y5941D01*
X13588Y5941D01*
X13588Y5940D01*
X13587Y5939D01*
X13586Y5938D01*
X13586Y5937D01*
X13585Y5935D01*
X13584Y5933D01*
X13583Y5931D01*
X13582Y5928D01*
X13581Y5926D01*
X13581Y5923D01*
X13580Y5919D01*
X13579Y5916D01*
X13579Y5912D01*
X13579Y5908D01*
Y5908D01*
Y5907D01*
Y5906D01*
X13579Y5904D01*
Y5903D01*
X13579Y5900D01*
X13580Y5896D01*
X13581Y5890D01*
X13583Y5884D01*
X13585Y5879D01*
X13587Y5877D01*
X13589Y5875D01*
X13589D01*
X13589Y5874D01*
X13591Y5873D01*
X13593Y5871D01*
X13595Y5869D01*
X13599Y5867D01*
X13603Y5865D01*
X13608Y5864D01*
X13610Y5864D01*
X13613Y5864D01*
X13615D01*
X13616Y5864D01*
X13618Y5864D01*
X13622Y5865D01*
X13626Y5866D01*
X13630Y5868D01*
X13634Y5871D01*
X13636Y5873D01*
X13638Y5875D01*
X13638Y5875D01*
X13638Y5875D01*
X13638Y5876D01*
X13639Y5877D01*
X13640Y5878D01*
X13641Y5879D01*
X13642Y5881D01*
X13643Y5883D01*
X13644Y5885D01*
X13644Y5888D01*
X13645Y5891D01*
X13646Y5894D01*
X13647Y5897D01*
X13647Y5901D01*
X13647Y5905D01*
Y5909D01*
Y5909D01*
Y5910D01*
Y5911D01*
X13647Y5912D01*
Y5914D01*
X13647Y5916D01*
X13646Y5921D01*
X13645Y5926D01*
X13643Y5932D01*
X13641Y5937D01*
X13639Y5939D01*
X13638Y5941D01*
Y5942D01*
X13637Y5942D01*
X13636Y5943D01*
X13634Y5945D01*
X13631Y5947D01*
X13627Y5949D01*
X13623Y5951D01*
X13619Y5952D01*
X13616Y5952D01*
X13613Y5953D01*
D02*
G37*
%LPD*%
D10*
X590Y1380D02*
X625Y1415D01*
X4760Y120D02*
Y160D01*
X4780Y180D01*
Y240D02*
Y280D01*
Y240D02*
X4790Y250D01*
X4811Y180D02*
X4920Y289D01*
X4780Y180D02*
X4811D01*
X4920Y289D02*
Y353D01*
X4938Y370D01*
X4780Y280D02*
X4790Y290D01*
X4850D01*
X4870Y310D01*
X4817Y340D02*
X4894Y416D01*
X1243Y2550D02*
X1267D01*
X1243Y2512D02*
Y2550D01*
X1200Y2470D02*
X1243Y2512D01*
X980Y1745D02*
Y1770D01*
X965Y1685D02*
Y1730D01*
X980Y1745D01*
X915Y1685D02*
Y1765D01*
X3420Y2410D02*
X3440Y2390D01*
X3342Y2410D02*
X3420D01*
Y2460D02*
X3440Y2480D01*
X3342Y2460D02*
X3420D01*
X4810Y3760D02*
X4870D01*
X4765D02*
X4810D01*
X4780Y340D02*
X4817D01*
X4894Y416D02*
Y449D01*
X4903Y457D01*
X4780Y660D02*
X4820D01*
X4770D02*
X4780D01*
X4846Y588D02*
Y634D01*
X4820Y660D02*
X4846Y634D01*
X4780Y450D02*
X4840D01*
X4819Y539D02*
X4829Y530D01*
X4791Y539D02*
X4819D01*
X4780Y550D02*
X4791Y539D01*
X4829Y530D02*
X4900D01*
X280Y390D02*
Y440D01*
Y334D02*
Y390D01*
X330Y334D02*
Y380D01*
X320Y390D02*
X330Y380D01*
X280Y390D02*
X320D01*
X370Y630D02*
X460Y720D01*
X370Y450D02*
Y630D01*
Y450D02*
X380Y440D01*
Y334D02*
Y440D01*
X1267Y2550D02*
X1340D01*
X2635Y2165D02*
Y2220D01*
X2610Y2140D02*
X2635Y2165D01*
X2610Y2100D02*
Y2140D01*
X2170Y2400D02*
X2190Y2420D01*
Y2440D01*
X2200Y2450D01*
X2170Y2344D02*
Y2400D01*
X3760Y2260D02*
X3770Y2250D01*
Y2210D02*
Y2250D01*
X1795Y3325D02*
X1820Y3350D01*
X3650Y2220D02*
Y2250D01*
X3620Y2190D02*
X3650Y2220D01*
X3620Y2151D02*
Y2190D01*
X3680Y2200D02*
X3700D01*
X3670Y2190D02*
X3680Y2200D01*
X3700D02*
X3760Y2260D01*
X4140Y1725D02*
X4155Y1710D01*
X4405Y1625D02*
X4565D01*
X2410Y2100D02*
X2510D01*
X2520Y2110D01*
Y2140D01*
X2545Y2165D01*
Y2220D01*
X3450Y2620D02*
X3510D01*
X3390Y2560D02*
X3450Y2620D01*
X3342Y2560D02*
X3390D01*
X3342Y2510D02*
X3400D01*
X3420Y2530D01*
X3510D01*
X1310Y1400D02*
X1320Y1390D01*
X1350Y3950D02*
X1400D01*
X1330Y3970D02*
X1350Y3950D01*
X1480Y3150D02*
X1540D01*
X1480Y3150D02*
X1480Y3150D01*
X1733Y3325D02*
X1795D01*
X1400Y3298D02*
Y3420D01*
X1350Y3470D02*
X1400Y3420D01*
X1350Y3470D02*
Y3630D01*
X1550Y3560D02*
Y3600D01*
X1540Y3550D02*
X1550Y3560D01*
X1230Y3830D02*
X1330D01*
X1330Y3830D01*
X1340Y3840D02*
X1350Y3830D01*
X1330Y3830D02*
X1340Y3840D01*
X1240Y3230D02*
Y3280D01*
X1230Y3220D02*
X1240Y3230D01*
X1200Y3220D02*
X1230D01*
X1590Y3550D02*
X1615Y3525D01*
X1540Y3550D02*
X1590D01*
X1615Y3525D02*
X1733D01*
X1240Y3630D02*
X1280Y3590D01*
Y3590D02*
Y3590D01*
X1140Y3630D02*
X1240D01*
X1140D02*
Y3730D01*
Y3280D02*
X1240D01*
X1140D02*
Y3380D01*
X920D02*
X1040D01*
X920Y3157D02*
Y3250D01*
X950Y3280D01*
X1040D01*
X1615Y3075D02*
X1733D01*
X1590Y3050D02*
X1615Y3075D01*
X1540Y3050D02*
X1590D01*
X1615Y3125D02*
X1733D01*
X1590Y3150D02*
X1615Y3125D01*
X1540Y3150D02*
X1590D01*
X1615Y3275D02*
X1733D01*
X1590Y3250D02*
X1615Y3275D01*
X1540Y3250D02*
X1590D01*
X1615Y3325D02*
X1733D01*
X1590Y3350D02*
X1615Y3325D01*
X1540Y3350D02*
X1590D01*
X1540Y3450D02*
X1590D01*
X1615Y3475D01*
X1733D01*
X1550Y3830D02*
Y3880D01*
X1480Y3950D02*
X1550Y3880D01*
X1400Y3950D02*
X1480D01*
X1550Y3830D02*
X1650D01*
X4660Y4822D02*
Y4874D01*
X4750Y3745D02*
X4765Y3760D01*
X4820Y760D02*
X4852Y793D01*
X4770Y760D02*
X4820D01*
X4907Y793D02*
X4930Y770D01*
X4852Y793D02*
X4907D01*
X4930Y639D02*
Y770D01*
Y639D02*
X4939Y630D01*
X4900Y530D02*
X4912Y543D01*
X4770Y450D02*
X4780D01*
X4405Y1555D02*
X4565D01*
X1320Y4760D02*
Y4910D01*
X1250Y4690D02*
X1320Y4760D01*
X1470Y4790D02*
Y4910D01*
X1350Y3730D02*
Y3830D01*
Y3730D02*
X1450D01*
Y3830D02*
Y3870D01*
X1430Y3890D02*
X1450Y3870D01*
X1280Y3890D02*
X1430D01*
X1250Y3920D02*
X1280Y3890D01*
X928Y3730D02*
X1040D01*
X920Y3722D02*
X928Y3730D01*
X950Y3630D02*
X1040D01*
X920Y3600D02*
X950Y3630D01*
X920Y3499D02*
Y3600D01*
X1240Y3380D02*
X1248Y3388D01*
Y3447D01*
X2155Y2952D02*
Y3005D01*
X2120Y3040D02*
X2155Y3005D01*
X2120Y3040D02*
Y3260D01*
X2080Y3300D02*
X2120Y3260D01*
X625Y1415D02*
X695D01*
X1085Y1465D02*
X1205D01*
X1270Y1400D02*
X1310D01*
X1205Y1465D02*
X1270Y1400D01*
X1420Y2810D02*
X1430Y2800D01*
X1420Y2810D02*
Y2840D01*
X1400Y2860D02*
Y2908D01*
X1378Y2930D02*
X1400Y2908D01*
Y2860D02*
X1420Y2840D01*
X1480Y2860D02*
X1510D01*
X1530Y2840D01*
Y2800D02*
Y2840D01*
Y2800D02*
X1620D01*
X1267Y2450D02*
X1340D01*
X1097Y2525D02*
X1180D01*
X1097Y2475D02*
X1155D01*
X1160Y2470D01*
X1200D01*
X3504Y2135D02*
Y2176D01*
X3470Y2210D02*
X3504Y2176D01*
X3470Y2210D02*
Y2260D01*
X3570Y2151D02*
Y2260D01*
X3650Y2250D02*
X3660Y2260D01*
X3670Y2151D02*
Y2190D01*
X1800Y2380D02*
X1950D01*
X1880Y2460D02*
Y2530D01*
X1850Y2430D02*
X1880Y2460D01*
X1840Y2440D02*
Y2530D01*
Y2440D02*
X1850Y2430D01*
X1800Y2380D02*
Y2530D01*
Y2230D02*
Y2380D01*
X1880Y2090D02*
Y2230D01*
X1650Y1860D02*
X1720D01*
X2210Y1240D02*
X2210Y1240D01*
X2250D01*
X2260Y1230D01*
Y1190D02*
Y1230D01*
X2210Y1190D02*
Y1240D01*
Y1360D01*
X1500Y2310D02*
X1510Y2320D01*
Y2350D01*
X1540Y2380D01*
X1650D01*
X3260Y2642D02*
Y2810D01*
X2020Y750D02*
Y750D01*
X2000Y730D02*
X2020Y750D01*
Y750D02*
X2060Y790D01*
X2060D01*
X4155Y1710D02*
X4230D01*
X4245Y1695D01*
X4405D01*
X4265Y1765D02*
X4405D01*
X3770Y2210D02*
X3790Y2190D01*
X4140Y1895D02*
X4205D01*
X4240Y1790D02*
X4265Y1765D01*
X4240Y1790D02*
Y1860D01*
X4205Y1895D02*
X4240Y1860D01*
X3790Y2190D02*
X3880D01*
X3870Y2110D02*
X3880Y2120D01*
Y2190D01*
X1290Y4610D02*
X1470Y4790D01*
X1250Y4610D02*
X1290D01*
X1251Y4071D02*
X1330Y3992D01*
Y3970D02*
Y3992D01*
X1880Y2090D02*
X1890Y2080D01*
D12*
X550Y1520D02*
X605Y1465D01*
X695D01*
X2170Y590D02*
X2175Y585D01*
X2395D02*
X2410Y570D01*
X2175Y585D02*
X2395D01*
X2540Y400D02*
Y450D01*
X2420Y400D02*
Y560D01*
X2520Y380D02*
X2540Y400D01*
X2440Y380D02*
X2520D01*
X2420Y400D02*
X2440Y380D01*
X2470Y430D02*
Y470D01*
X2460Y480D02*
X2470Y470D01*
X2460Y480D02*
Y860D01*
X2450Y870D02*
X2460Y860D01*
X2410Y870D02*
X2450D01*
X2540Y450D02*
X2660Y570D01*
X2410D02*
X2420Y560D01*
X1960Y530D02*
X2000Y490D01*
X1960Y530D02*
Y670D01*
X2000Y390D02*
Y490D01*
X1920Y520D02*
X1950Y490D01*
X1920Y520D02*
Y590D01*
X1950Y110D02*
Y490D01*
X2040Y500D02*
X2050Y490D01*
X2040Y500D02*
Y670D01*
X2050Y110D02*
Y490D01*
X1630Y460D02*
X1670Y500D01*
X1830Y530D02*
Y590D01*
X1670Y500D02*
X1800D01*
X1830Y530D01*
X2080Y530D02*
X2100Y510D01*
X2080Y530D02*
Y590D01*
X4649Y1349D02*
X4720Y1420D01*
X4410Y1349D02*
X4649D01*
X4695Y2815D02*
Y2975D01*
X4660Y3010D02*
X4695Y2975D01*
X4624Y4710D02*
X4710D01*
X4595Y4681D02*
X4624Y4710D01*
X3050Y1260D02*
X3210Y1420D01*
X3050Y1110D02*
Y1260D01*
X3210Y1500D02*
X3240D01*
X3270Y1470D01*
Y1400D02*
Y1470D01*
X3160Y1290D02*
X3270Y1400D01*
X3160Y1130D02*
Y1290D01*
X490Y340D02*
X560D01*
X490D02*
Y400D01*
X420Y270D02*
X490Y340D01*
X340Y270D02*
X420D01*
X330Y260D02*
X340Y270D01*
X330Y206D02*
Y260D01*
X4070Y2690D02*
X4105Y2725D01*
X3920Y2690D02*
X4070D01*
X3900Y2670D02*
X3920Y2690D01*
X2420Y1890D02*
X2550Y1760D01*
Y1670D02*
Y1760D01*
Y1670D02*
X2580Y1640D01*
X1390Y3180D02*
X1410Y3200D01*
X1361Y3180D02*
X1390D01*
X4555Y2675D02*
X4695Y2815D01*
X4680Y2550D02*
Y2630D01*
X4630Y2680D02*
X4680Y2630D01*
X2147Y1180D02*
X2157Y1170D01*
X2130Y1180D02*
X2147D01*
X2725Y2220D02*
X2745Y2200D01*
X2770D01*
X2795Y2175D01*
Y2005D02*
Y2175D01*
Y2005D02*
X2800Y2000D01*
X2810Y2630D02*
X2910Y2730D01*
X2760Y2630D02*
X2810D01*
X2740Y2610D02*
X2760Y2630D01*
X3460Y2975D02*
X3460Y2975D01*
X3460Y2910D02*
Y2975D01*
X1220Y4870D02*
Y4910D01*
Y4870D02*
X1230Y4860D01*
X1260D01*
X1620Y1930D02*
Y1970D01*
X1540Y2050D02*
X1620Y1970D01*
X1510Y2050D02*
X1540D01*
X1500Y2060D02*
X1510Y2050D01*
X665Y1615D02*
X695D01*
X610Y1670D02*
X665Y1615D01*
X1640Y2610D02*
X1670Y2640D01*
X1690Y2700D02*
X1750Y2640D01*
X1620Y2700D02*
X1690D01*
X1520Y2610D02*
X1640D01*
X1267Y2600D02*
X1430D01*
X1267Y2600D02*
X1267Y2600D01*
X625Y1565D02*
X695D01*
X570Y1620D02*
X625Y1565D01*
X2369Y3075D02*
X2427D01*
X2340Y3150D02*
Y3151D01*
Y3150D02*
X2365Y3125D01*
X2339Y3105D02*
X2369Y3075D01*
X2315Y3105D02*
X2339D01*
X2280Y3140D02*
X2315Y3105D01*
X2320Y3060D02*
X2355Y3025D01*
X2305Y2952D02*
Y3005D01*
X2200Y3110D02*
X2305Y3005D01*
X2227Y3040D02*
X2255Y3012D01*
Y2952D02*
Y3012D01*
X2270Y2315D02*
X2310Y2355D01*
X2390Y2380D02*
Y2460D01*
X2310Y2355D02*
X2365D01*
X2390Y2380D01*
X2290Y2500D02*
X2330Y2460D01*
X2110Y2500D02*
X2290D01*
X2470Y2440D02*
X2480Y2450D01*
X2470Y2355D02*
Y2440D01*
X2455Y2340D02*
X2470Y2355D01*
X2445Y2560D02*
X2480D01*
X2400Y2605D02*
X2445Y2560D01*
X2480Y2450D02*
Y2560D01*
X2600Y2610D02*
X2740D01*
X2590Y2520D02*
X2600Y2510D01*
X2590Y2520D02*
Y2600D01*
X2600Y2610D01*
X2545Y2340D02*
Y2395D01*
X2600Y2450D01*
Y2510D01*
X2680Y2490D02*
Y2560D01*
Y2420D02*
Y2490D01*
X2650Y2390D02*
X2680Y2420D01*
X2650Y2355D02*
Y2390D01*
X2635Y2340D02*
X2650Y2355D01*
X2330Y2290D02*
X2330Y2290D01*
X2390D01*
X2220Y2280D02*
X2260D01*
X2270Y2290D02*
Y2315D01*
X2260Y2280D02*
X2270Y2290D01*
X3510Y1420D02*
Y1460D01*
X3450Y1360D02*
X3510Y1420D01*
X3450Y1210D02*
Y1360D01*
X2590Y1830D02*
X2640D01*
X2660Y1850D01*
X2690D01*
X2700Y1860D01*
X2970Y1730D02*
X3020D01*
X2580Y1530D02*
Y1640D01*
X2031Y2451D02*
Y2459D01*
X2006Y2420D02*
X2027Y2399D01*
X1950Y2420D02*
X2006D01*
X1950Y2460D02*
X2020D01*
X2030Y2450D01*
X2040Y2670D02*
X2100D01*
X2220Y2216D02*
Y2280D01*
X2020D02*
X2220D01*
X2000Y2300D02*
X2020Y2280D01*
X2100Y2490D02*
X2110Y2500D01*
X2100Y2450D02*
Y2490D01*
X4410Y2390D02*
X4560D01*
X4405Y2395D02*
X4410Y2390D01*
X4410Y2320D02*
X4560D01*
X4405Y2325D02*
X4410Y2320D01*
X2960Y1720D02*
X2970Y1730D01*
X2410Y950D02*
Y980D01*
X2300D02*
X2310Y970D01*
X3040Y1010D02*
X3160Y1130D01*
X2960Y1010D02*
X3040D01*
X2960Y1090D02*
X3030D01*
X3050Y1110D01*
X1910Y2760D02*
Y2880D01*
X1905Y2885D02*
X1910Y2880D01*
X2113Y730D02*
X2140D01*
X2200Y790D01*
X3158Y2810D02*
X3170Y2798D01*
X3210Y2770D02*
X3220Y2760D01*
X3160Y2910D02*
X3200D01*
X3210Y2900D01*
Y2770D02*
Y2900D01*
X3110Y2090D02*
Y2178D01*
X2905Y2085D02*
X3025D01*
X2890Y2070D02*
X2905Y2085D01*
X2890Y2020D02*
Y2070D01*
X3025Y2085D02*
X3060Y2120D01*
X3330Y1866D02*
Y1970D01*
X3263Y1800D02*
X3330Y1866D01*
X3220Y1800D02*
X3263D01*
X3200Y1780D02*
X3220Y1800D01*
X3200Y1720D02*
Y1780D01*
X2005Y2795D02*
X2040Y2760D01*
X1955Y2720D02*
Y2952D01*
X2030Y2450D02*
X2031Y2451D01*
X790Y1740D02*
X815Y1714D01*
X790Y1740D02*
Y1760D01*
X770Y1780D02*
X790Y1760D01*
X760Y1660D02*
X765Y1665D01*
Y1685D01*
X2157Y1170D02*
X2160Y1173D01*
X3670Y1969D02*
Y2030D01*
X3670Y1969D02*
X3670Y1969D01*
X4380Y1319D02*
X4410Y1349D01*
X4380Y1250D02*
Y1319D01*
X3470Y1190D02*
X3860D01*
X3450Y1210D02*
X3470Y1190D01*
X3860D02*
X3880Y1170D01*
X4140D01*
X3690Y1900D02*
X3720D01*
X4200Y2240D02*
X4240D01*
X4250Y2250D01*
Y2310D01*
X4265Y2325D01*
X4405D01*
X3870Y2730D02*
X3900D01*
X3820D02*
X3870D01*
X3720Y2690D02*
X3800D01*
X3820Y2670D02*
X3900D01*
X3800Y2690D02*
X3820Y2670D01*
X1490Y1860D02*
X1550D01*
X1350Y1720D02*
X1490Y1860D01*
X1570Y2240D02*
X1650Y2160D01*
X3600Y2030D02*
X3620Y2010D01*
Y1969D02*
Y2010D01*
X3250Y1830D02*
X3265Y1845D01*
X2980Y1830D02*
X3250D01*
X2960Y1850D02*
X2980Y1830D01*
X3180Y1660D02*
Y1700D01*
X3150Y1630D02*
X3180Y1660D01*
X3150Y1580D02*
Y1630D01*
X3180Y1700D02*
X3200Y1720D01*
X2960Y1960D02*
X2980Y1980D01*
X2960Y1850D02*
Y1960D01*
X3160Y2110D02*
X3180Y2090D01*
X3160Y2110D02*
Y2178D01*
X3180Y2020D02*
X3220D01*
X3260Y2060D01*
Y2178D01*
X3060Y2120D02*
Y2178D01*
X4105Y2725D02*
Y2810D01*
X3710Y2700D02*
X3720Y2690D01*
X3710Y2700D02*
Y2740D01*
X3915Y2745D02*
Y2810D01*
X3900Y2730D02*
X3915Y2745D01*
X3810Y2740D02*
X3820Y2730D01*
X3872Y2373D02*
X3962D01*
X865Y1685D02*
Y1735D01*
X840Y1760D02*
X865Y1735D01*
X815Y1685D02*
Y1714D01*
X2205Y3567D02*
Y3647D01*
X1410Y3200D02*
X1620D01*
X1341Y3160D02*
X1361Y3180D01*
X1250Y3780D02*
X1290D01*
X1250Y3780D02*
X1250Y3780D01*
X1240Y3770D02*
X1250Y3780D01*
X1240Y3730D02*
Y3770D01*
X1790Y3720D02*
X1805Y3705D01*
Y3647D02*
Y3705D01*
X1790Y3720D02*
Y3780D01*
X1610Y3630D02*
X1700D01*
X1730Y3660D01*
Y3760D01*
X1750Y3780D01*
X1790D01*
X1645Y3575D02*
X1733D01*
X1660Y3680D02*
Y3720D01*
X1650Y3730D02*
X1660Y3720D01*
X1270Y3140D02*
X1322D01*
X1341Y3160D01*
X1645Y3225D02*
X1733D01*
X1620Y3200D02*
X1645Y3225D01*
X2190Y3040D02*
X2227D01*
X2205Y2880D02*
Y2952D01*
X2170Y3110D02*
X2200D01*
X2355Y3025D02*
X2427D01*
X2365Y3125D02*
X2427D01*
X2055Y3575D02*
Y3647D01*
X2005Y3580D02*
X2005Y3580D01*
X2005Y3580D02*
Y3647D01*
X1870Y3420D02*
X1955Y3505D01*
Y3647D01*
X1870Y3495D02*
X1917Y3542D01*
Y3580D01*
X1905Y3592D02*
X1917Y3580D01*
X1905Y3592D02*
Y3647D01*
X1860Y3597D02*
X1870Y3588D01*
Y3560D02*
Y3588D01*
X1860Y3597D02*
Y3642D01*
X1855Y3647D02*
X1860Y3642D01*
X2930Y4585D02*
X2940Y4595D01*
X2930Y4400D02*
Y4585D01*
X2925Y4610D02*
X2940Y4595D01*
X3075Y4400D02*
Y4610D01*
X4595Y4638D02*
Y4681D01*
X4733Y4874D02*
X4787D01*
X4725Y4865D02*
X4733Y4874D01*
X4725Y4822D02*
Y4865D01*
X4200Y2740D02*
X4205Y2745D01*
X4405D01*
X4740Y925D02*
Y960D01*
X4708Y993D02*
X4740Y960D01*
X4708Y993D02*
Y1100D01*
X4740Y1275D02*
X4770Y1305D01*
X4740Y1240D02*
Y1275D01*
X4708Y1207D02*
X4740Y1240D01*
X4708Y1100D02*
Y1207D01*
X2355Y3647D02*
Y3697D01*
X2355Y3647D02*
X2355Y3647D01*
X2305Y3770D02*
X2342D01*
X2055Y3575D02*
X2065Y3565D01*
X2096D01*
X2205Y3505D02*
Y3532D01*
X2180Y3480D02*
X2205Y3505D01*
X2310Y3485D02*
Y3515D01*
X2305Y3520D02*
X2310Y3515D01*
X2305Y3520D02*
Y3544D01*
X2342Y3770D02*
X2355Y3758D01*
Y3733D02*
Y3758D01*
X1905Y2885D02*
Y2952D01*
X2130Y620D02*
Y660D01*
X2120Y610D02*
X2130Y620D01*
X1097Y2575D02*
X1155D01*
X1180Y2600D01*
X1097Y2425D02*
X1155D01*
X1180Y2400D01*
X3135Y1900D02*
X3150Y1915D01*
Y1950D01*
X3180Y1980D01*
Y2020D01*
X3070Y2010D02*
X3080Y2020D01*
X3070Y1980D02*
Y2010D01*
X3040Y1950D02*
X3070Y1980D01*
X3040Y1915D02*
Y1950D01*
X3025Y1900D02*
X3040Y1915D01*
X2980Y2010D02*
X2990Y2020D01*
X2980Y1980D02*
Y2010D01*
X3265Y1845D02*
Y1900D01*
X2890Y1905D02*
Y2020D01*
Y1905D02*
X2895Y1900D01*
X1950Y2340D02*
X2010D01*
X2030Y2320D01*
X2120D01*
Y2344D01*
X1950Y2300D02*
X2000D01*
X2100Y2410D02*
Y2450D01*
Y2410D02*
X2120Y2390D01*
Y2344D02*
Y2390D01*
X2220Y2170D02*
Y2216D01*
Y2170D02*
X2240Y2150D01*
Y2110D02*
Y2150D01*
X1680Y2200D02*
X1720D01*
Y2230D01*
X1620Y2260D02*
X1680Y2200D01*
X1620Y2300D02*
X1650D01*
X1760Y2180D02*
Y2230D01*
X1740Y2160D02*
X1760Y2180D01*
X1590Y2340D02*
X1650D01*
X1570Y2320D02*
X1590Y2340D01*
X1570Y2240D02*
Y2320D01*
X1650Y2160D02*
X1740D01*
X1620Y2260D02*
Y2300D01*
X1267Y2400D02*
X1360D01*
X1420Y2460D01*
X1650D01*
X1510Y2420D02*
X1650D01*
X1470Y2380D02*
X1510Y2420D01*
X2620Y1280D02*
X2620Y1280D01*
X2350Y1230D02*
X2422D01*
X2430Y1237D01*
X2617D01*
X2620Y1240D01*
Y1180D02*
Y1240D01*
Y1280D01*
X1400Y2060D02*
X1500D01*
X1400Y2060D02*
X1400Y2060D01*
X3210Y2642D02*
Y2700D01*
X3220Y2710D01*
Y2760D01*
X3170Y2730D02*
Y2798D01*
X2099Y981D02*
X2100Y980D01*
X2360Y670D02*
X2410D01*
X2330Y640D02*
X2360Y670D01*
X1870D02*
Y756D01*
X1920Y590D02*
Y763D01*
X1960Y670D02*
Y760D01*
X2080Y590D02*
Y697D01*
X2040Y670D02*
Y700D01*
X1830Y590D02*
Y930D01*
X1881Y981D01*
X2099D01*
X2080Y697D02*
X2113Y730D01*
X2040Y700D02*
X2175Y835D01*
X1920Y763D02*
X2053Y896D01*
X1870Y756D02*
X2041Y927D01*
X2340Y770D02*
X2410D01*
X2047Y847D02*
X2100D01*
X1960Y760D02*
X2047Y847D01*
X2100D02*
X2144D01*
X2163Y866D01*
X2320Y790D02*
X2340Y770D01*
X2200Y790D02*
X2320D01*
X2163Y866D02*
X2326D01*
X2338Y835D02*
X2373Y870D01*
X2410D01*
X2175Y835D02*
X2338D01*
X2310Y920D02*
Y970D01*
X2053Y896D02*
X2286D01*
X2310Y920D01*
X2326Y866D02*
X2410Y950D01*
X2237Y927D02*
X2260Y950D01*
Y1020D01*
X2200Y927D02*
Y980D01*
X2041Y927D02*
X2200D01*
X2237D01*
X2005Y2795D02*
Y2952D01*
X4200Y2530D02*
Y2585D01*
Y2640D01*
X2130Y660D02*
X2210D01*
X2230Y640D01*
X2330D01*
X4405Y2675D02*
X4555D01*
X4405Y2465D02*
X4595D01*
X4680Y2550D01*
X2040Y2670D02*
Y2760D01*
X2027Y2399D02*
X2032D01*
X2183Y1927D02*
Y1997D01*
X2160Y2100D02*
X2170Y2110D01*
X2160Y2020D02*
X2183Y1997D01*
X2170Y2110D02*
Y2216D01*
X2160Y2020D02*
Y2100D01*
X740Y1660D02*
X760D01*
X720Y1680D02*
Y1720D01*
Y1680D02*
X740Y1660D01*
X2183Y1927D02*
X2220Y1890D01*
X2420D01*
X3990Y1710D02*
Y1760D01*
X3950Y1670D02*
X3990Y1710D01*
X3950Y1580D02*
Y1670D01*
X3720Y1900D02*
X3736Y1916D01*
Y1985D01*
X4070Y1250D02*
X4140D01*
X4050Y1230D02*
X4070Y1250D01*
X4000Y1230D02*
X4050D01*
X3962Y2373D02*
Y2627D01*
X3860Y2460D02*
X3870Y2450D01*
Y2410D02*
Y2450D01*
Y2370D02*
Y2410D01*
Y2370D02*
X3872Y2373D01*
X2820Y1330D02*
X2850D01*
X2880Y1360D01*
Y1420D01*
X2810Y1430D02*
Y1470D01*
X2830Y1490D01*
X2880D01*
X2720Y1560D02*
X2730Y1550D01*
X2660Y1600D02*
X2700Y1560D01*
X2720D01*
X1480Y4050D02*
X1550Y3980D01*
X1400Y4050D02*
X1480D01*
X2660Y570D02*
Y620D01*
X2650Y630D02*
X2660Y620D01*
X2658Y638D02*
X2750D01*
X2650Y630D02*
X2658Y638D01*
X2170Y590D02*
X2170Y590D01*
X1840Y2150D02*
Y2230D01*
X1820Y2130D02*
X1840Y2150D01*
X1753Y2130D02*
X1820D01*
X1753Y2130D02*
X1753Y2130D01*
X1750Y2130D02*
X1753D01*
X1730Y2110D02*
X1750Y2130D01*
X3550Y1580D02*
Y1634D01*
X3532Y1652D02*
X3550Y1634D01*
X3600Y1650D02*
X3620Y1630D01*
Y1590D02*
Y1630D01*
Y1590D02*
X3630Y1580D01*
X3650Y1680D02*
X3670Y1660D01*
X3650Y1680D02*
Y1710D01*
X3670Y1660D02*
X3700Y1630D01*
Y1590D02*
Y1630D01*
Y1590D02*
X3710Y1580D01*
X3740Y1660D02*
Y1700D01*
X3750Y1710D01*
X3740Y1660D02*
X3770D01*
X3790Y1640D01*
Y1580D02*
Y1640D01*
X3900Y1660D02*
Y1750D01*
X3890Y1760D02*
X3900Y1750D01*
X4740Y925D02*
X4770Y895D01*
X1900Y390D02*
Y480D01*
X1870Y510D02*
X1900Y480D01*
X1870Y510D02*
Y670D01*
X2200Y390D02*
Y510D01*
X2170Y540D02*
X2200Y510D01*
X2170Y540D02*
Y590D01*
X2120Y540D02*
Y610D01*
Y540D02*
X2150Y510D01*
Y110D02*
Y510D01*
X2100Y390D02*
Y510D01*
X1630Y340D02*
Y390D01*
Y340D02*
X1700Y270D01*
X1790D01*
X1850Y210D01*
Y110D02*
Y210D01*
X1630Y390D02*
Y460D01*
D89*
X3260Y2642D02*
D03*
X3210D02*
D03*
X3160D02*
D03*
X3110D02*
D03*
X3060D02*
D03*
X3010D02*
D03*
X2960D02*
D03*
Y2178D02*
D03*
X3010D02*
D03*
X3060D02*
D03*
X3110D02*
D03*
X3160D02*
D03*
X3210D02*
D03*
X3260D02*
D03*
D99*
X4805Y1700D02*
D03*
Y3300D02*
D03*
D101*
X540Y1290D02*
D03*
X520Y1380D02*
D03*
X590D02*
D03*
X550Y1520D02*
D03*
X4533Y4874D02*
D03*
X2290Y495D02*
D03*
X2340Y540D02*
D03*
X3620Y1418D02*
D03*
X2470Y430D02*
D03*
X2250Y270D02*
D03*
X2200D02*
D03*
X3760Y2640D02*
D03*
X3680D02*
D03*
X1920Y2620D02*
D03*
X1850D02*
D03*
X980Y1770D02*
D03*
X915Y1765D02*
D03*
X1680Y1970D02*
D03*
Y2050D02*
D03*
X3440Y2390D02*
D03*
Y2480D02*
D03*
X1570Y2090D02*
D03*
X1570Y2170D02*
D03*
X4870Y3570D02*
D03*
Y2220D02*
D03*
X4680Y2460D02*
D03*
X4720Y1420D02*
D03*
X4790Y1440D02*
D03*
X4288Y1250D02*
D03*
X4240Y1300D02*
D03*
X4870Y3010D02*
D03*
X4800Y2950D02*
D03*
X4770Y2880D02*
D03*
X4710Y4710D02*
D03*
X4853Y3355D02*
D03*
X4855Y3492D02*
D03*
X4830Y3700D02*
D03*
X2650Y180D02*
D03*
X480Y240D02*
D03*
X3210Y1070D02*
D03*
X3160Y1460D02*
D03*
X3210Y1500D02*
D03*
Y1420D02*
D03*
X3320Y1470D02*
D03*
X3100Y1420D02*
D03*
X3390Y710D02*
D03*
X3330Y780D02*
D03*
X3260Y720D02*
D03*
X320Y510D02*
D03*
X420D02*
D03*
X80Y460D02*
D03*
X2880Y4095D02*
D03*
X2940Y4160D02*
D03*
X1420Y3140D02*
D03*
X1470Y3050D02*
D03*
X1890Y3360D02*
D03*
X4695Y3810D02*
D03*
X4650Y2880D02*
D03*
X4648Y2945D02*
D03*
X4560Y3590D02*
D03*
X4630Y2680D02*
D03*
X4410Y560D02*
D03*
X4460D02*
D03*
X4340Y100D02*
D03*
Y230D02*
D03*
X1990Y1160D02*
D03*
X2130Y1180D02*
D03*
X3830Y1960D02*
D03*
X1580Y994D02*
D03*
X2840Y2730D02*
D03*
X2910Y2730D02*
D03*
X2980Y2730D02*
D03*
X3460Y2975D02*
D03*
X3520Y2950D02*
D03*
X3660Y2920D02*
D03*
X4870Y2290D02*
D03*
X2650Y3800D02*
D03*
X2700Y3820D02*
D03*
X1260Y4860D02*
D03*
X1360Y4550D02*
D03*
X1620Y1930D02*
D03*
X610Y1670D02*
D03*
X1670Y2640D02*
D03*
X1430Y2600D02*
D03*
X1340Y2550D02*
D03*
X4720Y410D02*
D03*
X4750Y910D02*
D03*
X4850Y1440D02*
D03*
X2450Y3690D02*
D03*
X2510Y3580D02*
D03*
X2450Y3620D02*
D03*
X570Y1620D02*
D03*
X2450Y2960D02*
D03*
X2340Y3151D02*
D03*
X2320Y3060D02*
D03*
X2620Y2725D02*
D03*
X2685D02*
D03*
X2750Y2730D02*
D03*
X2060Y2180D02*
D03*
X2390Y2460D02*
D03*
X2390Y2290D02*
D03*
X2390Y2190D02*
D03*
X2330Y2460D02*
D03*
X3450Y1430D02*
D03*
X3510Y1460D02*
D03*
X3340Y1410D02*
D03*
X2750Y1790D02*
D03*
X2780Y1730D02*
D03*
X2620Y1760D02*
D03*
X2750Y1920D02*
D03*
X3020Y1730D02*
D03*
X2600Y1690D02*
D03*
X2840Y2090D02*
D03*
X2830Y880D02*
D03*
X2658Y1662D02*
D03*
X2170Y2400D02*
D03*
X2031Y2459D02*
D03*
X2590Y1830D02*
D03*
X2820Y3150D02*
D03*
X2830Y3080D02*
D03*
X2650Y2936D02*
D03*
X2720Y2940D02*
D03*
X3400Y2980D02*
D03*
X4560Y2390D02*
D03*
Y2320D02*
D03*
X4380Y3590D02*
D03*
X3440Y2710D02*
D03*
X3250Y3130D02*
D03*
X4030Y2930D02*
D03*
X2890Y2140D02*
D03*
X4320Y4030D02*
D03*
X4110Y2930D02*
D03*
X2590Y3840D02*
D03*
X3890Y2625D02*
D03*
X4180Y2850D02*
D03*
X2680Y2490D02*
D03*
X2730Y2430D02*
D03*
X2788Y2392D02*
D03*
X2790Y2330D02*
D03*
Y2260D02*
D03*
X4610Y590D02*
D03*
X3170Y3420D02*
D03*
X1860Y2800D02*
D03*
Y2710D02*
D03*
X1910Y2760D02*
D03*
X1530Y2950D02*
D03*
X2780Y1240D02*
D03*
X2830Y1030D02*
D03*
X2620Y1480D02*
D03*
X2580Y1530D02*
D03*
X2660Y1600D02*
D03*
X2657Y1530D02*
D03*
X2670Y3020D02*
D03*
X3110Y2090D02*
D03*
X3330Y1970D02*
D03*
X560Y340D02*
D03*
X2000Y2180D02*
D03*
X1955Y2720D02*
D03*
X1720Y2910D02*
D03*
Y2970D02*
D03*
X1820Y3070D02*
D03*
X1810Y3175D02*
D03*
X1820Y3350D02*
D03*
X770Y1780D02*
D03*
X720Y1720D02*
D03*
X2577Y770D02*
D03*
X2750Y900D02*
D03*
X2660Y570D02*
D03*
X3670Y2030D02*
D03*
X3380Y1460D02*
D03*
X3560Y1418D02*
D03*
X3880Y1460D02*
D03*
X3740Y1460D02*
D03*
X3690Y1420D02*
D03*
X4120Y2270D02*
D03*
X4240Y2850D02*
D03*
X3820Y2670D02*
D03*
X3870Y2730D02*
D03*
X2790Y2580D02*
D03*
X1350Y1720D02*
D03*
X1930Y2180D02*
D03*
Y2250D02*
D03*
X3600Y2030D02*
D03*
X3860Y1240D02*
D03*
X4220Y610D02*
D03*
Y660D02*
D03*
X3180Y2090D02*
D03*
X2280Y1290D02*
D03*
Y1340D02*
D03*
Y1390D02*
D03*
Y1440D02*
D03*
X2140D02*
D03*
Y1390D02*
D03*
Y1340D02*
D03*
Y1290D02*
D03*
X2390Y1680D02*
D03*
X2340D02*
D03*
X2290D02*
D03*
X2240D02*
D03*
X2160D02*
D03*
X2110D02*
D03*
X2060D02*
D03*
X2010D02*
D03*
X1610Y1460D02*
D03*
Y1700D02*
D03*
Y1510D02*
D03*
X1560D02*
D03*
X1510D02*
D03*
X1460D02*
D03*
X1610Y1650D02*
D03*
X1560D02*
D03*
X1510D02*
D03*
X1460D02*
D03*
X1270Y1050D02*
D03*
X1218Y972D02*
D03*
X840Y1760D02*
D03*
X1480Y3150D02*
D03*
X1310Y3280D02*
D03*
X1520Y3670D02*
D03*
X1550Y3600D02*
D03*
X1610Y3630D02*
D03*
X1290Y3780D02*
D03*
X1645Y3575D02*
D03*
X1660Y3680D02*
D03*
X1270Y3140D02*
D03*
X1480Y2860D02*
D03*
X1647Y3425D02*
D03*
X1200Y3140D02*
D03*
X1030Y3160D02*
D03*
X2190Y3040D02*
D03*
X2205Y2880D02*
D03*
X2170Y3110D02*
D03*
X2280Y3140D02*
D03*
X1870Y3420D02*
D03*
Y3495D02*
D03*
Y3560D02*
D03*
X3000Y4390D02*
D03*
X3340Y4620D02*
D03*
X2255Y3960D02*
D03*
X2305Y4000D02*
D03*
X4660Y4874D02*
D03*
X4787D02*
D03*
X4265Y4670D02*
D03*
X2340Y3380D02*
D03*
X2305Y3770D02*
D03*
X2180Y3480D02*
D03*
X2096Y3565D02*
D03*
X2250Y3480D02*
D03*
X2310Y3485D02*
D03*
X2500Y4000D02*
D03*
X3715Y3570D02*
D03*
X270Y730D02*
D03*
X350D02*
D03*
X1334Y1064D02*
D03*
X510Y1570D02*
D03*
X1160Y1660D02*
D03*
X1320Y3430D02*
D03*
Y3360D02*
D03*
X1710Y4710D02*
D03*
X1640D02*
D03*
X1340Y2450D02*
D03*
X1180Y2600D02*
D03*
Y2400D02*
D03*
Y2525D02*
D03*
X4455Y715D02*
D03*
X1620Y2260D02*
D03*
X1570Y2320D02*
D03*
X1470Y2380D02*
D03*
X1984Y1054D02*
D03*
X3170Y2730D02*
D03*
X1750Y2640D02*
D03*
X2100Y847D02*
D03*
X2200Y790D02*
D03*
X2310Y920D02*
D03*
X2260Y1020D02*
D03*
X3100Y1230D02*
D03*
X4630Y2576D02*
D03*
X4200Y2585D02*
D03*
X4570Y2520D02*
D03*
X4760Y2220D02*
D03*
X2400Y2605D02*
D03*
X2750Y2530D02*
D03*
X2230Y640D02*
D03*
X2040Y2670D02*
D03*
X1980Y2640D02*
D03*
X2032Y2399D02*
D03*
X3740Y1660D02*
D03*
X4065D02*
D03*
X3900D02*
D03*
X4660Y3010D02*
D03*
X4227Y1230D02*
D03*
X4240Y1470D02*
D03*
Y1610D02*
D03*
Y1540D02*
D03*
X3900Y1940D02*
D03*
X4190Y1810D02*
D03*
X4120D02*
D03*
X3930Y1240D02*
D03*
X4000Y1230D02*
D03*
X4630Y1810D02*
D03*
X4710Y2130D02*
D03*
X4640D02*
D03*
X4600Y2080D02*
D03*
X3376Y2730D02*
D03*
X3320Y2630D02*
D03*
X3750Y2330D02*
D03*
X3780Y2390D02*
D03*
X3800Y2480D02*
D03*
X3870Y2410D02*
D03*
X2880Y1420D02*
D03*
Y1490D02*
D03*
X2720Y1700D02*
D03*
X2384Y1143D02*
D03*
X1550Y3980D02*
D03*
X1870Y3220D02*
D03*
X1640Y4380D02*
D03*
X1710D02*
D03*
X1870Y3300D02*
D03*
X4500Y4310D02*
D03*
X2750Y1040D02*
D03*
X4815Y3875D02*
D03*
X3100Y2730D02*
D03*
X4080Y2460D02*
D03*
X2670Y320D02*
D03*
X1730Y2110D02*
D03*
X3532Y1652D02*
D03*
X3600Y1650D02*
D03*
X3670Y1660D02*
D03*
X3810Y1463D02*
D03*
X3840Y1660D02*
D03*
X1630Y390D02*
D03*
X1830Y430D02*
D03*
Y380D02*
D03*
X517Y1230D02*
D03*
D103*
X440Y1300D02*
D03*
Y1150D02*
D03*
Y1450D02*
D03*
D104*
X80Y1005D02*
D03*
Y1595D02*
D03*
D105*
X2390Y4490D02*
D03*
X4460Y260D02*
D03*
X4340Y3720D02*
D03*
X2480Y2450D02*
D03*
X2600D02*
D03*
X1470Y140D02*
D03*
X1300D02*
D03*
D106*
X280Y206D02*
D03*
X330D02*
D03*
X380D02*
D03*
Y334D02*
D03*
X330D02*
D03*
X280D02*
D03*
X2120Y2216D02*
D03*
X2170D02*
D03*
X2220D02*
D03*
Y2344D02*
D03*
X2170D02*
D03*
X2120D02*
D03*
D107*
X4903Y457D02*
D03*
Y543D02*
D03*
D108*
X4938Y630D02*
D03*
Y370D02*
D03*
D109*
X4200Y3110D02*
D03*
Y3210D02*
D03*
X490Y400D02*
D03*
Y500D02*
D03*
X1240Y3380D02*
D03*
Y3280D02*
D03*
Y3730D02*
D03*
Y3630D02*
D03*
X1350Y3730D02*
D03*
Y3630D02*
D03*
X1450Y3730D02*
D03*
Y3630D02*
D03*
X1400Y4050D02*
D03*
Y3950D02*
D03*
X1540Y3050D02*
D03*
Y3150D02*
D03*
Y3250D02*
D03*
Y3350D02*
D03*
Y3450D02*
D03*
Y3550D02*
D03*
X1550Y3830D02*
D03*
Y3730D02*
D03*
X1650Y3830D02*
D03*
Y3730D02*
D03*
X2520Y3760D02*
D03*
Y3860D02*
D03*
X4870D02*
D03*
Y3760D02*
D03*
X4200Y2740D02*
D03*
Y2640D02*
D03*
X4780Y240D02*
D03*
Y340D02*
D03*
Y450D02*
D03*
Y550D02*
D03*
Y660D02*
D03*
Y760D02*
D03*
X4530Y1050D02*
D03*
Y950D02*
D03*
X4380Y1150D02*
D03*
Y1250D02*
D03*
X3750Y1710D02*
D03*
Y1810D02*
D03*
X3650Y1710D02*
D03*
Y1810D02*
D03*
X2650Y630D02*
D03*
Y730D02*
D03*
X4200Y2530D02*
D03*
Y2430D02*
D03*
Y2240D02*
D03*
Y2340D02*
D03*
X3870Y2010D02*
D03*
Y2110D02*
D03*
X4160Y2040D02*
D03*
Y2140D02*
D03*
X3870Y2260D02*
D03*
Y2360D02*
D03*
Y2560D02*
D03*
Y2460D02*
D03*
X3710Y2840D02*
D03*
Y2740D02*
D03*
X3810Y2840D02*
D03*
Y2740D02*
D03*
X3510Y2720D02*
D03*
Y2620D02*
D03*
X3610Y2720D02*
D03*
Y2620D02*
D03*
X3610Y2430D02*
D03*
Y2530D02*
D03*
X3510Y2430D02*
D03*
Y2530D02*
D03*
X2680Y2560D02*
D03*
Y2660D02*
D03*
X2200Y2450D02*
D03*
Y2550D02*
D03*
X2100D02*
D03*
Y2450D02*
D03*
X2330Y2190D02*
D03*
Y2290D02*
D03*
X2580Y2660D02*
D03*
Y2560D02*
D03*
X2480Y2660D02*
D03*
Y2560D02*
D03*
X1520Y2510D02*
D03*
Y2610D02*
D03*
X1500Y2210D02*
D03*
Y2310D02*
D03*
X1400Y2060D02*
D03*
Y2160D02*
D03*
X1500Y2060D02*
D03*
Y1960D02*
D03*
X2420Y1080D02*
D03*
Y980D02*
D03*
X2320Y1080D02*
D03*
Y980D02*
D03*
X2200Y1080D02*
D03*
Y980D02*
D03*
X2100Y1080D02*
D03*
Y980D02*
D03*
X2620Y1280D02*
D03*
Y1380D02*
D03*
X2240Y2010D02*
D03*
Y2110D02*
D03*
X2610Y2000D02*
D03*
Y2100D02*
D03*
X2510Y2000D02*
D03*
Y2100D02*
D03*
X2410Y2000D02*
D03*
Y2100D02*
D03*
D110*
X380Y440D02*
D03*
X280D02*
D03*
X1220Y4910D02*
D03*
X1320D02*
D03*
X1470D02*
D03*
X1570D02*
D03*
X1140Y3730D02*
D03*
X1040D02*
D03*
X1140Y3280D02*
D03*
X1040D02*
D03*
X1140Y3380D02*
D03*
X1040D02*
D03*
X1140Y3630D02*
D03*
X1040D02*
D03*
X1450Y3830D02*
D03*
X1350D02*
D03*
X1890Y3780D02*
D03*
X1790D02*
D03*
X2130D02*
D03*
X2230D02*
D03*
X2130Y3880D02*
D03*
X2230D02*
D03*
X2630Y3280D02*
D03*
X2730D02*
D03*
X4140Y3450D02*
D03*
X4040D02*
D03*
X4740Y3990D02*
D03*
X4840D02*
D03*
X4920Y4640D02*
D03*
X4820D02*
D03*
X3710Y3000D02*
D03*
X3810D02*
D03*
X3360Y2810D02*
D03*
X3260D02*
D03*
X4430Y1050D02*
D03*
X4330D02*
D03*
X3660Y2260D02*
D03*
X3760D02*
D03*
X3470D02*
D03*
X3570D02*
D03*
X2910Y2910D02*
D03*
X2810D02*
D03*
X3158Y2810D02*
D03*
X3058D02*
D03*
X3360Y2910D02*
D03*
X3460D02*
D03*
X3160D02*
D03*
X3260D02*
D03*
X2360Y2810D02*
D03*
X2460D02*
D03*
X2100D02*
D03*
X2200D02*
D03*
Y2660D02*
D03*
X2100D02*
D03*
X1620Y2800D02*
D03*
X1720D02*
D03*
X1520Y2700D02*
D03*
X1620D02*
D03*
X1520Y2800D02*
D03*
X1420D02*
D03*
X1550Y1860D02*
D03*
X1650D02*
D03*
X1420Y1390D02*
D03*
X1320D02*
D03*
X2510Y570D02*
D03*
X2410D02*
D03*
X2510Y670D02*
D03*
X2410D02*
D03*
X2510Y770D02*
D03*
X2410D02*
D03*
X2510Y870D02*
D03*
X2410D02*
D03*
X2520Y1180D02*
D03*
X2620D02*
D03*
X2810Y1330D02*
D03*
X2710D02*
D03*
Y1430D02*
D03*
X2810D02*
D03*
X2730Y1550D02*
D03*
X2830D02*
D03*
X2730Y1650D02*
D03*
X2830D02*
D03*
X2060Y1520D02*
D03*
X2160D02*
D03*
X2360D02*
D03*
X2260D02*
D03*
X2150Y2060D02*
D03*
X2050D02*
D03*
X2800Y2000D02*
D03*
X2700D02*
D03*
X2800Y1860D02*
D03*
X2700D02*
D03*
X3890Y1760D02*
D03*
X3990D02*
D03*
X3080Y2020D02*
D03*
X3180D02*
D03*
X2990D02*
D03*
X2890D02*
D03*
X1790Y2070D02*
D03*
X1890D02*
D03*
D111*
X430Y4800D02*
D03*
Y4620D02*
D03*
X570Y3670D02*
D03*
Y3850D02*
D03*
Y3500D02*
D03*
Y3320D02*
D03*
X2680Y3590D02*
D03*
Y3410D02*
D03*
X690Y740D02*
D03*
Y560D02*
D03*
D112*
X950Y4050D02*
D03*
Y4750D02*
D03*
X1840Y4050D02*
D03*
Y4750D02*
D03*
D113*
X3075Y4610D02*
D03*
X2775D02*
D03*
X2625D02*
D03*
X2925D02*
D03*
D114*
X2420Y4810D02*
D03*
X3280D02*
D03*
D115*
X2520Y4160D02*
D03*
X3160D02*
D03*
D116*
X920Y3157D02*
D03*
Y3380D02*
D03*
X1420Y3521D02*
D03*
Y3298D02*
D03*
X920Y3499D02*
D03*
Y3722D02*
D03*
D117*
X1341Y3160D02*
D03*
X1118D02*
D03*
X1601Y2930D02*
D03*
X1378D02*
D03*
D118*
X1267Y2800D02*
D03*
Y2750D02*
D03*
Y2700D02*
D03*
Y2650D02*
D03*
Y2600D02*
D03*
Y2550D02*
D03*
Y2450D02*
D03*
Y2400D02*
D03*
Y2350D02*
D03*
Y2300D02*
D03*
Y2250D02*
D03*
Y2200D02*
D03*
X1097Y2275D02*
D03*
Y2325D02*
D03*
Y2375D02*
D03*
Y2425D02*
D03*
Y2475D02*
D03*
Y2525D02*
D03*
Y2575D02*
D03*
Y2625D02*
D03*
Y2675D02*
D03*
Y2725D02*
D03*
D119*
Y2195D02*
D03*
Y2805D02*
D03*
D120*
X2355Y2952D02*
D03*
X1805D02*
D03*
Y3647D02*
D03*
X2355D02*
D03*
D121*
X2305Y2952D02*
D03*
X2255D02*
D03*
X2205D02*
D03*
X2155D02*
D03*
X2105D02*
D03*
X2055D02*
D03*
X2005D02*
D03*
X1955D02*
D03*
X1905D02*
D03*
X1855D02*
D03*
Y3647D02*
D03*
X1905D02*
D03*
X1955D02*
D03*
X2005D02*
D03*
X2055D02*
D03*
X2105D02*
D03*
X2155D02*
D03*
X2205D02*
D03*
X2255D02*
D03*
X2305D02*
D03*
D122*
X1733Y3025D02*
D03*
Y3575D02*
D03*
X2427D02*
D03*
Y3025D02*
D03*
D123*
X1733Y3075D02*
D03*
Y3125D02*
D03*
Y3175D02*
D03*
Y3225D02*
D03*
Y3275D02*
D03*
Y3325D02*
D03*
Y3375D02*
D03*
Y3425D02*
D03*
Y3475D02*
D03*
Y3525D02*
D03*
X2427D02*
D03*
Y3475D02*
D03*
Y3425D02*
D03*
Y3375D02*
D03*
Y3325D02*
D03*
Y3275D02*
D03*
Y3225D02*
D03*
Y3175D02*
D03*
Y3125D02*
D03*
Y3075D02*
D03*
D124*
X2080Y3300D02*
D03*
D125*
X2355Y3697D02*
D03*
Y3733D02*
D03*
X2005Y3537D02*
D03*
Y3572D02*
D03*
X2305Y3580D02*
D03*
Y3544D02*
D03*
X2205Y3567D02*
D03*
Y3532D02*
D03*
D126*
X2554Y3760D02*
D03*
X2590D02*
D03*
D127*
X2630Y3120D02*
D03*
X1330Y1890D02*
D03*
Y1590D02*
D03*
D128*
X2630Y2820D02*
D03*
D129*
X3200Y3310D02*
D03*
X3164D02*
D03*
D130*
X3060Y3110D02*
D03*
Y3750D02*
D03*
D131*
X3842Y3692D02*
D03*
Y3467D02*
D03*
X3417D02*
D03*
Y3692D02*
D03*
X3517Y3792D02*
D03*
Y3367D02*
D03*
X3742D02*
D03*
Y3792D02*
D03*
D132*
X3720Y3210D02*
D03*
X3540D02*
D03*
X870Y1880D02*
D03*
X1050D02*
D03*
X890Y1130D02*
D03*
X1070D02*
D03*
X890Y940D02*
D03*
X1070D02*
D03*
X890Y750D02*
D03*
X1070D02*
D03*
D133*
X4062Y4030D02*
D03*
X3858D02*
D03*
Y4810D02*
D03*
X4062D02*
D03*
D134*
X4175Y3590D02*
D03*
X4005D02*
D03*
Y3330D02*
D03*
X4175D02*
D03*
D135*
X4405Y3515D02*
D03*
Y3445D02*
D03*
Y3375D02*
D03*
Y3305D02*
D03*
Y3235D02*
D03*
Y3165D02*
D03*
Y3095D02*
D03*
Y3025D02*
D03*
Y2955D02*
D03*
Y2885D02*
D03*
Y2815D02*
D03*
Y2745D02*
D03*
Y2675D02*
D03*
Y2605D02*
D03*
Y2535D02*
D03*
Y2465D02*
D03*
Y2395D02*
D03*
Y2325D02*
D03*
Y2255D02*
D03*
Y2185D02*
D03*
Y2115D02*
D03*
Y2045D02*
D03*
Y1975D02*
D03*
Y1905D02*
D03*
Y1835D02*
D03*
Y1765D02*
D03*
Y1695D02*
D03*
Y1625D02*
D03*
Y1555D02*
D03*
Y1485D02*
D03*
D136*
X4750Y3745D02*
D03*
Y3875D02*
D03*
X4570Y3810D02*
D03*
D137*
X4568Y3990D02*
D03*
X4652D02*
D03*
D138*
X4790Y4100D02*
D03*
Y4460D02*
D03*
D139*
X4725Y4822D02*
D03*
X4660D02*
D03*
X4595D02*
D03*
X4725Y4638D02*
D03*
X4660D02*
D03*
X4595D02*
D03*
D140*
X3915Y3080D02*
D03*
Y2820D02*
D03*
X4010D02*
D03*
X4105D02*
D03*
Y3080D02*
D03*
D141*
X4330Y660D02*
D03*
X4330Y560D02*
D03*
D142*
X4583Y790D02*
D03*
Y430D02*
D03*
D143*
X4920Y895D02*
D03*
Y1305D02*
D03*
X4770Y895D02*
D03*
Y1305D02*
D03*
D144*
X4708Y1100D02*
D03*
D145*
X4140Y1725D02*
D03*
Y1895D02*
D03*
X4030Y2005D02*
D03*
Y2175D02*
D03*
X2500Y1605D02*
D03*
Y1435D02*
D03*
X1920Y1605D02*
D03*
Y1435D02*
D03*
D146*
X3536Y1900D02*
D03*
X3500D02*
D03*
X3690D02*
D03*
X3654D02*
D03*
D147*
X3736Y2035D02*
D03*
Y2085D02*
D03*
Y2135D02*
D03*
Y1985D02*
D03*
X3504Y2035D02*
D03*
Y2085D02*
D03*
Y2135D02*
D03*
Y1985D02*
D03*
D148*
X3620Y1969D02*
D03*
X3670D02*
D03*
X3570D02*
D03*
X3620Y2151D02*
D03*
X3670D02*
D03*
X3570D02*
D03*
D149*
X4078Y2627D02*
D03*
Y2373D02*
D03*
X3962Y2627D02*
D03*
Y2373D02*
D03*
D150*
X3342Y2260D02*
D03*
Y2310D02*
D03*
Y2360D02*
D03*
Y2410D02*
D03*
Y2460D02*
D03*
Y2510D02*
D03*
Y2560D02*
D03*
X2878D02*
D03*
Y2510D02*
D03*
Y2460D02*
D03*
Y2410D02*
D03*
Y2360D02*
D03*
Y2310D02*
D03*
Y2260D02*
D03*
D151*
X3110Y2410D02*
D03*
D152*
X2455Y2220D02*
D03*
X2545D02*
D03*
X2635D02*
D03*
X2725D02*
D03*
X2455Y2340D02*
D03*
X2545D02*
D03*
X2635D02*
D03*
X2725D02*
D03*
D153*
X1670Y1445D02*
D03*
Y1715D02*
D03*
D154*
X1500Y1230D02*
D03*
Y830D02*
D03*
D155*
X1830Y590D02*
D03*
X1920D02*
D03*
X2000D02*
D03*
X2080D02*
D03*
X1960Y670D02*
D03*
X2040D02*
D03*
X2130D02*
D03*
X2170Y590D02*
D03*
X1870Y670D02*
D03*
D156*
X695Y1615D02*
D03*
Y1565D02*
D03*
Y1515D02*
D03*
Y1465D02*
D03*
Y1415D02*
D03*
Y1365D02*
D03*
X1085D02*
D03*
Y1415D02*
D03*
Y1465D02*
D03*
Y1515D02*
D03*
Y1565D02*
D03*
Y1615D02*
D03*
D157*
X1015Y1685D02*
D03*
X965D02*
D03*
X915D02*
D03*
X865D02*
D03*
X815D02*
D03*
X765D02*
D03*
Y1295D02*
D03*
X815D02*
D03*
X865D02*
D03*
X915D02*
D03*
X965D02*
D03*
X1015D02*
D03*
D158*
X890Y1490D02*
D03*
D159*
X460Y720D02*
D03*
X160D02*
D03*
D160*
Y415D02*
D03*
Y545D02*
D03*
D161*
X950Y336D02*
D03*
X850D02*
D03*
X750D02*
D03*
X650D02*
D03*
D162*
X520Y84D02*
D03*
X1080D02*
D03*
D163*
X2070Y1230D02*
D03*
X2350D02*
D03*
Y1280D02*
D03*
X2070Y1380D02*
D03*
Y1330D02*
D03*
Y1280D02*
D03*
X2350Y1330D02*
D03*
Y1380D02*
D03*
D164*
X2160Y1190D02*
D03*
X2210D02*
D03*
X2260D02*
D03*
D165*
X2259Y1360D02*
D03*
X2161D02*
D03*
D166*
X2210D02*
D03*
D167*
X2955Y595D02*
D03*
Y1585D02*
D03*
X4145D02*
D03*
Y595D02*
D03*
D168*
X3353Y1090D02*
D03*
Y1288D02*
D03*
X3550D02*
D03*
X3747D02*
D03*
X3353Y893D02*
D03*
D169*
X3747Y1090D02*
D03*
Y893D02*
D03*
X3550D02*
D03*
Y1090D02*
D03*
D170*
X4030Y600D02*
D03*
X3950D02*
D03*
X3870D02*
D03*
X3790D02*
D03*
X3710D02*
D03*
X3630D02*
D03*
X3550D02*
D03*
X3470D02*
D03*
X3390D02*
D03*
X3310D02*
D03*
X3230D02*
D03*
X3150D02*
D03*
X3070D02*
D03*
Y1580D02*
D03*
X3150D02*
D03*
X3230D02*
D03*
X3310D02*
D03*
X3390D02*
D03*
X3470D02*
D03*
X3550D02*
D03*
X3630D02*
D03*
X3710D02*
D03*
X3790D02*
D03*
X3870D02*
D03*
X3950D02*
D03*
X4030D02*
D03*
D171*
X2960Y690D02*
D03*
Y770D02*
D03*
Y850D02*
D03*
Y930D02*
D03*
Y1010D02*
D03*
Y1090D02*
D03*
Y1170D02*
D03*
Y1250D02*
D03*
Y1330D02*
D03*
Y1410D02*
D03*
Y1490D02*
D03*
X4140D02*
D03*
Y1410D02*
D03*
Y1330D02*
D03*
Y1250D02*
D03*
Y1170D02*
D03*
Y1090D02*
D03*
Y1010D02*
D03*
Y930D02*
D03*
Y850D02*
D03*
Y770D02*
D03*
Y690D02*
D03*
D172*
X3265Y1900D02*
D03*
X3135D02*
D03*
X3025D02*
D03*
X2895D02*
D03*
X2960Y1720D02*
D03*
D173*
X3200D02*
D03*
D174*
X2075Y1780D02*
D03*
X2345D02*
D03*
D175*
X1650Y2460D02*
D03*
Y2420D02*
D03*
Y2380D02*
D03*
Y2340D02*
D03*
Y2300D02*
D03*
X1950D02*
D03*
Y2340D02*
D03*
Y2380D02*
D03*
Y2420D02*
D03*
Y2460D02*
D03*
D176*
X1720Y2230D02*
D03*
X1760D02*
D03*
X1800D02*
D03*
X1840D02*
D03*
X1880D02*
D03*
Y2530D02*
D03*
X1840D02*
D03*
X1800D02*
D03*
X1760D02*
D03*
X1720D02*
D03*
D177*
X1800Y2380D02*
D03*
D178*
X2750Y638D02*
D03*
Y722D02*
D03*
D179*
X1750Y110D02*
D03*
Y390D02*
D03*
X2350D02*
D03*
Y110D02*
D03*
D180*
X1900Y390D02*
D03*
X2000D02*
D03*
X2100D02*
D03*
X2200D02*
D03*
D181*
X1850Y110D02*
D03*
X1950D02*
D03*
X2050D02*
D03*
X2150D02*
D03*
X2250D02*
D03*
D182*
X565Y1335D02*
X615D01*
X645Y1365D01*
X695D01*
X520Y1380D02*
X565Y1335D01*
X570Y1570D02*
X625Y1515D01*
X510Y1570D02*
X570D01*
X625Y1515D02*
X695D01*
X4587Y4874D02*
X4595Y4865D01*
X4533Y4874D02*
X4587D01*
X4810Y3720D02*
Y3760D01*
Y3720D02*
X4830Y3700D01*
X446Y206D02*
X480Y240D01*
X380Y206D02*
X446D01*
X1410Y3000D02*
X1610D01*
X1350Y3060D02*
X1410Y3000D01*
X1610D02*
X1635Y3025D01*
X890Y3060D02*
X1350D01*
X3800Y2010D02*
Y2110D01*
Y1990D02*
Y2010D01*
X3870D02*
X3870Y2010D01*
X3800Y2010D02*
X3870D01*
X3775Y2135D02*
X3800Y2110D01*
Y1990D02*
X3830Y1960D01*
X3736Y2135D02*
X3775D01*
X2510Y3550D02*
Y3580D01*
X2485Y3525D02*
X2510Y3550D01*
X2427Y3525D02*
X2485D01*
X2450Y3580D02*
Y3620D01*
X2185Y2725D02*
X2620D01*
X2150Y2760D02*
X2185Y2725D01*
X2340Y2190D02*
X2390D01*
X2710Y1700D02*
X2720Y1690D01*
X2330Y2180D02*
X2340Y2190D01*
X1805Y2765D02*
Y2952D01*
Y2765D02*
X1860Y2710D01*
Y2800D02*
Y2850D01*
X1855Y2855D02*
X1860Y2850D01*
X1855Y2855D02*
Y2952D01*
X1860Y2948D01*
X2150Y2810D02*
Y2850D01*
Y2760D02*
Y2810D01*
X2200D01*
X2130Y2870D02*
X2150Y2850D01*
X2070Y2870D02*
X2130D01*
X2055Y2885D02*
X2070Y2870D01*
X2055Y2885D02*
Y2952D01*
X1733Y3175D02*
X1810D01*
X3465Y2135D02*
X3504D01*
X3450Y2120D02*
X3465Y2135D01*
X3450Y1920D02*
Y2120D01*
Y1920D02*
X3470Y1900D01*
X3500D01*
X1490Y3400D02*
X1600D01*
X1440Y3450D02*
Y3620D01*
Y3450D02*
X1490Y3400D01*
X1520Y3670D02*
X1540Y3690D01*
Y3720D01*
X1550Y3730D01*
X1647Y3425D02*
X1733D01*
X1600Y3400D02*
X1625Y3375D01*
X1118Y3160D02*
X1138Y3140D01*
X1200D01*
X920Y3157D02*
X923Y3160D01*
X1030D01*
X1635Y3025D02*
X1733D01*
X850Y3100D02*
Y3480D01*
X869Y3499D01*
X920D01*
X1440Y3620D02*
X1450Y3630D01*
X1625Y3375D02*
X1733D01*
X4595Y4822D02*
Y4865D01*
X2340Y3340D02*
Y3380D01*
Y3340D02*
X2355Y3325D01*
X2427D01*
Y3575D02*
X2445D01*
X2450Y3580D01*
X2305D02*
Y3647D01*
X2005Y3375D02*
X2080Y3300D01*
X2005Y3375D02*
Y3537D01*
X1085Y1615D02*
X1145D01*
X1160Y1630D01*
Y1660D01*
X850Y3100D02*
X890Y3060D01*
X2000Y590D02*
Y730D01*
X3570Y1910D02*
Y1969D01*
X3543Y1900D02*
X3560D01*
X3570Y1910D01*
X2720Y1660D02*
X2730Y1650D01*
X2720Y1660D02*
Y1690D01*
Y1700D01*
X2510Y570D02*
X2560D01*
X2577Y587D02*
Y770D01*
X2560Y570D02*
X2577Y587D01*
X2750Y722D02*
X2778D01*
X2790Y710D01*
Y600D02*
Y710D01*
X2710Y520D02*
X2790Y600D01*
X2710Y360D02*
Y520D01*
X2670Y320D02*
X2710Y360D01*
X3620Y1900D02*
X3654D01*
X3570Y1850D02*
X3620Y1900D01*
D183*
X4820Y4640D02*
Y4713D01*
X4787Y4747D02*
X4820Y4713D01*
X4880Y4550D02*
X4920Y4510D01*
Y4370D02*
Y4510D01*
X4790Y4240D02*
X4920Y4370D01*
X2260Y195D02*
X2305Y240D01*
X2260Y120D02*
Y195D01*
X2250Y110D02*
X2260Y120D01*
X160Y270D02*
X224Y206D01*
X280D01*
X4200Y3110D02*
X4210D01*
X4265Y3165D01*
X4405D01*
X2830Y1550D02*
Y1650D01*
X4230Y930D02*
X4280Y980D01*
X4230Y730D02*
Y930D01*
X4850Y4550D02*
X4880D01*
X4820Y4580D02*
X4850Y4550D01*
X4820Y4580D02*
Y4640D01*
X2780Y2670D02*
X2840Y2730D01*
X2690Y2670D02*
X2780D01*
X2680Y2660D02*
X2690Y2670D01*
X4240Y3210D02*
X4265Y3235D01*
X4200Y3210D02*
X4240D01*
X4265Y3235D02*
X4405D01*
X3260Y2910D02*
X3360D01*
X4200Y2340D02*
Y2430D01*
X4140Y2390D02*
Y2435D01*
X4122Y2373D02*
X4140Y2390D01*
X4078Y2373D02*
X4122D01*
X4140Y2435D02*
Y2490D01*
Y2435D02*
X4145Y2430D01*
X4200D01*
X1360Y2260D02*
X1400Y2220D01*
Y2160D02*
Y2220D01*
X4740Y4100D02*
X4790D01*
Y4330D02*
Y4460D01*
X4568Y4108D02*
X4790Y4330D01*
X4568Y3990D02*
Y4108D01*
Y3812D02*
X4570Y3810D01*
X4568Y3812D02*
Y3990D01*
X4160Y3305D02*
X4405D01*
X4160Y2040D02*
X4165Y2045D01*
X4405D01*
X1004Y2625D02*
X1097D01*
X1004Y2375D02*
X1097D01*
X1267Y2350D02*
X1330D01*
X1360Y2320D01*
X1330Y2650D02*
X1360Y2680D01*
X1267Y2650D02*
X1330D01*
X1210D02*
X1267D01*
X1180Y2680D02*
X1210Y2650D01*
X1180Y2320D02*
X1210Y2350D01*
X1267D01*
X2500Y1380D02*
X2620D01*
X2050Y1990D02*
Y2060D01*
X4270Y1100D02*
X4320Y1150D01*
X4380D01*
X4405Y1835D02*
X4570D01*
X4595Y1810D01*
X4630D01*
X4405Y2045D02*
X4545D01*
X4570Y2020D01*
Y1835D02*
Y2020D01*
X3800Y2560D02*
X3860D01*
X2830Y1650D02*
Y1700D01*
X2850Y1720D01*
Y1770D01*
X2830Y1790D02*
X2850Y1770D01*
X2800Y1790D02*
Y1860D01*
X2750Y1790D02*
X2800D01*
X2830D01*
X4790Y4100D02*
Y4240D01*
X4078Y2552D02*
Y2627D01*
Y2552D02*
X4100Y2530D01*
X4140Y2490D01*
X3750Y1850D02*
X3790Y1890D01*
X3750Y1810D02*
Y1850D01*
X3650Y1810D02*
X3750D01*
X440Y1300D02*
Y1370D01*
D184*
X4920Y4640D02*
Y4680D01*
X4890Y4710D02*
X4920Y4680D01*
X4652Y3718D02*
X4700Y3670D01*
X4652Y3718D02*
Y3810D01*
X4700Y3260D02*
Y3670D01*
X4840Y3990D02*
X4920D01*
X3330Y1070D02*
X3530D01*
X3550Y1090D01*
X490Y500D02*
X560D01*
X3650Y2840D02*
X3710D01*
X3590Y2900D02*
X3650Y2840D01*
X3590Y2900D02*
Y3020D01*
X4200Y3110D02*
X4215Y3095D01*
X4405D01*
X4140Y690D02*
X4145Y685D01*
X4140Y690D02*
Y770D01*
X4145Y595D02*
Y685D01*
X4030Y600D02*
X4035Y595D01*
X4145D01*
X3180Y700D02*
X3230Y650D01*
Y600D02*
Y650D01*
X3065Y595D02*
X3070Y600D01*
X2955Y595D02*
X3065D01*
X2950Y1580D02*
X2955Y1585D01*
X2710Y1330D02*
Y1430D01*
X2710Y1430D01*
X2500Y1605D02*
Y1690D01*
X1330Y1790D02*
Y1860D01*
X1440Y1960D02*
X1500D01*
X1500Y1960D01*
Y2140D02*
Y2210D01*
X2630Y3620D02*
Y3690D01*
X2720Y3560D02*
X2790D01*
X2720Y3620D02*
X2790D01*
X2570Y2840D02*
Y2910D01*
X2460Y2810D02*
X2600D01*
X2460D02*
Y2880D01*
X2730Y3220D02*
Y3280D01*
X2800D01*
X2450Y3860D02*
X2520D01*
X4430Y1050D02*
Y1090D01*
X4495Y1155D01*
Y1170D01*
X4657Y3810D02*
X4695D01*
X4654Y3808D02*
X4657Y3810D01*
X4652Y3810D02*
Y3990D01*
Y3810D02*
X4654Y3808D01*
X4590Y3150D02*
X4700Y3260D01*
X4590Y3090D02*
Y3150D01*
Y3030D02*
Y3090D01*
X4410Y560D02*
X4460D01*
X4350D02*
X4450D01*
X2680Y2100D02*
X2740D01*
X3710Y2960D02*
X3730Y2940D01*
X3710Y2960D02*
Y3000D01*
X3660D02*
X3710D01*
X3550Y3060D02*
X3590Y3020D01*
X3260Y2960D02*
X3360Y3060D01*
X3460D01*
X3710Y2840D02*
Y2840D01*
Y2840D02*
X3810D01*
Y3000D01*
X3915Y3055D02*
Y3080D01*
X3860Y3000D02*
X3915Y3055D01*
X3810Y3000D02*
X3860D01*
X4200Y3070D02*
X4210Y3060D01*
Y3020D02*
Y3060D01*
X4200Y3070D02*
Y3110D01*
X2300Y2810D02*
X2360D01*
X1450Y2510D02*
X1520D01*
X1450Y2700D02*
X1520D01*
X2610Y2100D02*
X2670D01*
X2610Y1950D02*
Y2000D01*
X2040Y2550D02*
X2100D01*
X2200D01*
X2240Y1950D02*
Y2010D01*
X2740Y3120D02*
X2770Y3090D01*
Y3010D02*
Y3090D01*
Y3010D02*
X2810Y2970D01*
X2630Y3120D02*
X2740D01*
X2810Y2910D02*
Y2970D01*
X2890Y2980D02*
Y3410D01*
Y2980D02*
X2910Y2960D01*
X3260Y2910D02*
Y2960D01*
X2100Y2740D02*
Y2810D01*
X3470Y2260D02*
Y2320D01*
Y2260D02*
X3470Y2260D01*
X4030Y2175D02*
X4045Y2160D01*
X4100D01*
X4120Y2140D01*
X4160D01*
X4405Y1485D02*
X4570D01*
X4220Y610D02*
Y660D01*
X4330D01*
X4405Y3515D02*
X4570D01*
X2580Y2660D02*
X2680D01*
X2480D02*
X2580D01*
X3510Y2530D02*
X3610D01*
X3510Y2620D02*
X3610D01*
X4740Y3990D02*
Y4100D01*
X4652Y3990D02*
X4740D01*
X4405Y3445D02*
X4570D01*
X4405Y2955D02*
X4570D01*
X4405Y2885D02*
X4570D01*
X4405Y2815D02*
X4570D01*
X4405Y2605D02*
X4570D01*
X4405Y2255D02*
X4570D01*
X4405Y2185D02*
X4570D01*
X4340Y550D02*
X4350Y560D01*
X4320Y670D02*
X4330Y660D01*
X4030Y790D02*
Y850D01*
Y910D01*
Y850D02*
X4140D01*
X4600Y950D02*
X4600Y950D01*
X4360Y950D02*
X4530D01*
X4600D01*
X4330Y1050D02*
X4330Y1050D01*
Y980D02*
Y1050D01*
Y980D02*
X4360Y950D01*
X4600Y900D02*
Y950D01*
X4280Y980D02*
X4330D01*
X4270Y1050D02*
X4330D01*
X4270D02*
Y1100D01*
X4030Y2005D02*
X4045Y2020D01*
X4100D01*
X4120Y2040D01*
X4160D01*
X2569Y3479D02*
Y3481D01*
X2530Y3440D02*
X2569Y3479D01*
X2060Y3780D02*
X2130D01*
X2060Y3880D02*
X2130D01*
X1890Y3780D02*
X1960D01*
X2910Y2910D02*
Y2960D01*
X2630Y3120D02*
Y3280D01*
X3775Y3330D02*
X3790D01*
X3790Y3330D01*
Y3335D01*
X4265Y3375D02*
X4405D01*
X4190Y3450D02*
X4265Y3375D01*
X4140Y3450D02*
X4190D01*
X4140D02*
Y3490D01*
X4160Y3510D01*
Y3565D01*
X4175Y3580D01*
Y3590D02*
X4260D01*
X4310D01*
X3610Y2530D02*
Y2620D01*
X3610Y2530D02*
X3610Y2530D01*
X2455Y2165D02*
Y2220D01*
X1890Y1960D02*
X1890Y1960D01*
X2510Y2000D02*
X2510Y2000D01*
Y1950D02*
Y2000D01*
X2460Y1180D02*
X2460Y1180D01*
X2460Y1180D02*
X2520D01*
X3260Y2810D02*
Y2910D01*
X2100Y1080D02*
X2200D01*
X2510Y670D02*
Y770D01*
Y870D01*
X2200Y2660D02*
X2250D01*
X4285Y2535D02*
X4405D01*
X3790Y1890D02*
X3850D01*
X4030Y1900D02*
Y2005D01*
X3850Y1890D02*
X3880Y1860D01*
X3990D01*
X4030Y1900D01*
X4240Y1975D02*
X4405D01*
Y2115D02*
X4530D01*
X3610Y2530D02*
X3660D01*
X3700Y2490D01*
Y2450D02*
Y2490D01*
X3570Y2260D02*
Y2320D01*
X3660Y2260D02*
Y2320D01*
X3610Y2370D02*
Y2430D01*
X3510D02*
X3510Y2430D01*
Y2380D02*
Y2430D01*
X3700Y2390D02*
Y2450D01*
X3870Y2260D02*
X3930D01*
X3610Y2720D02*
Y2780D01*
X3510Y2720D02*
Y2780D01*
X3360Y2810D02*
X3420D01*
X2998D02*
X3058D01*
X2510Y870D02*
Y1080D01*
X2200D02*
X2320D01*
X2420D01*
X2510D01*
X2540Y1110D02*
X2570D01*
X2510Y1080D02*
X2540Y1110D01*
X4005Y3330D02*
X4020Y3345D01*
Y3390D01*
X4040Y3410D01*
Y3450D01*
Y3500D01*
X4020Y3520D02*
X4040Y3500D01*
X4020Y3520D02*
Y3575D01*
X4005Y3590D02*
X4020Y3575D01*
X4750Y3875D02*
X4815D01*
X4830Y3860D01*
X4870D01*
X3353Y893D02*
X3550D01*
X3747D01*
X3550Y1090D02*
X3747D01*
X1790Y2010D02*
Y2070D01*
X1890Y1960D02*
Y2070D01*
X1890Y2070D02*
X1890Y2070D01*
D185*
X2930Y4240D02*
X3080D01*
X2775Y4395D02*
X2930Y4240D01*
X3080D02*
X3160Y4160D01*
X2775Y4395D02*
Y4610D01*
D186*
X2880Y3690D02*
X2980D01*
X2990Y3680D01*
X2670Y1920D02*
X2700D01*
X2700Y1920D01*
Y2000D01*
X2610Y3760D02*
X2650Y3800D01*
X2670Y3820D02*
X2700D01*
X2650Y3800D02*
X2670Y3820D01*
X2520Y3760D02*
X2554D01*
X2520Y3720D02*
Y3760D01*
X2355Y2805D02*
Y2952D01*
X2570Y3560D02*
Y3670D01*
X2520Y3720D02*
X2570Y3670D01*
X2485Y3475D02*
X2570Y3560D01*
X2427Y3475D02*
X2485D01*
X2427Y3425D02*
X2515D01*
X2530Y3440D01*
X2220Y2360D02*
X2260D01*
X2270Y2370D02*
Y2420D01*
X2260Y2360D02*
X2270Y2370D01*
X2750Y1920D02*
X2750Y1920D01*
X2670Y1920D02*
X2670Y1920D01*
X2640Y1890D02*
X2670Y1920D01*
X2480Y1890D02*
X2640D01*
X2220Y2344D02*
Y2360D01*
X2410Y1960D02*
X2480Y1890D01*
X2410Y1960D02*
Y2000D01*
X460Y720D02*
X480Y700D01*
X1420Y1310D02*
X1500Y1230D01*
X1420Y1310D02*
Y1390D01*
X2427Y3275D02*
X2625D01*
X2630Y3280D01*
X2427Y3375D02*
X2635D01*
X2990Y3680D02*
X3060Y3750D01*
X2635Y3375D02*
X2670Y3410D01*
X2350Y2800D02*
X2355Y2805D01*
X1085Y1515D02*
X1158D01*
X1170Y1503D01*
X1247D01*
X1270Y1480D01*
X3160Y2360D02*
X3342D01*
X3110Y2410D02*
X3160Y2360D01*
X2120Y2150D02*
Y2216D01*
X2090Y2120D02*
X2120Y2150D01*
X2070Y2120D02*
X2090D01*
X2050Y2100D02*
X2070Y2120D01*
X2050Y2060D02*
Y2100D01*
X4660Y4550D02*
Y4638D01*
X4725Y4555D02*
Y4638D01*
X2700Y1920D02*
X2750D01*
D187*
X3380Y3830D02*
Y4300D01*
X2890Y3410D02*
X2980Y3500D01*
X2670Y3410D02*
X2890D01*
X2980Y3500D02*
Y3670D01*
X3060Y3750D02*
X3080Y3730D01*
X2980Y3670D02*
X3060Y3750D01*
X3080Y3730D02*
X3280D01*
X3380Y3830D01*
D188*
X2190Y3950D02*
X2220Y3920D01*
Y3890D02*
X2230Y3880D01*
X2220Y3890D02*
Y3920D01*
X2190Y3950D02*
Y4000D01*
X1710Y2800D02*
Y2840D01*
X1670Y2880D02*
X1710Y2840D01*
X1670Y2880D02*
Y2910D01*
X1660Y2920D02*
X1670Y2910D01*
X1601Y2920D02*
X1660D01*
X1530Y2950D02*
X1581D01*
X1601Y2930D01*
X2255Y3647D02*
Y3705D01*
X1310Y4580D02*
X1570Y4840D01*
Y4910D01*
X2230Y3730D02*
Y3780D01*
Y3730D02*
X2255Y3705D01*
X2230Y3780D02*
Y3880D01*
X1250Y4450D02*
X1310Y4510D01*
Y4580D01*
D189*
X950Y380D02*
X1030D01*
Y280D02*
Y330D01*
Y380D01*
X1030Y380D02*
X1030Y380D01*
X950Y336D02*
Y380D01*
X850Y120D02*
Y170D01*
Y220D01*
X850Y220D02*
X850Y220D01*
X850Y220D02*
Y336D01*
X750Y160D02*
Y220D01*
Y336D01*
X650Y220D02*
Y336D01*
Y160D02*
Y220D01*
X1004Y2625D02*
Y2685D01*
Y2315D02*
Y2375D01*
X945Y2625D02*
X1004D01*
X945Y2375D02*
X1004D01*
X1360Y2260D02*
Y2320D01*
Y2680D02*
Y2740D01*
D190*
X1305Y1565D02*
X1330Y1590D01*
X1085Y1565D02*
X1305D01*
D191*
X3110Y2410D02*
D03*
D192*
X890Y1490D02*
D03*
D193*
X1800Y2380D02*
D03*
D194*
X170Y4120D02*
D03*
X170Y3920D02*
D03*
X170Y3720D02*
D03*
Y3520D02*
D03*
Y4320D02*
D03*
D195*
X1186Y2932D02*
D03*
Y2068D02*
D03*
D196*
X700Y2962D02*
D03*
D197*
X670Y2038D02*
D03*
D198*
X4925Y1002D02*
D03*
Y1198D02*
D03*
D199*
X4870Y750D02*
D03*
D200*
X1406Y1010D02*
D03*
X1914Y908D02*
D03*
Y1112D02*
D03*
X4914Y4810D02*
D03*
X4406Y4912D02*
D03*
Y4708D02*
D03*
X4790Y3614D02*
D03*
X4688Y3106D02*
D03*
X4892D02*
D03*
X3254Y3840D02*
D03*
X2746Y3942D02*
D03*
Y3738D02*
D03*
D201*
X80Y1510D02*
D03*
X100Y1690D02*
D03*
X270D02*
D03*
X4890Y4710D02*
D03*
X4290Y470D02*
D03*
X4870Y310D02*
D03*
X1650Y90D02*
D03*
X4870Y1070D02*
D03*
X4830Y1110D02*
D03*
X4870Y1310D02*
D03*
Y900D02*
D03*
X4840Y450D02*
D03*
X4846Y588D02*
D03*
X3330Y1070D02*
D03*
X3340Y2040D02*
D03*
X3460Y680D02*
D03*
X850Y1530D02*
D03*
X1000Y1450D02*
D03*
X860D02*
D03*
X2710Y1380D02*
D03*
X2500Y1690D02*
D03*
X1330Y1790D02*
D03*
X1440Y1960D02*
D03*
X1500Y2140D02*
D03*
X2630Y3690D02*
D03*
X2790Y3560D02*
D03*
Y3620D02*
D03*
X2990Y3320D02*
D03*
Y3260D02*
D03*
X3050D02*
D03*
X3110D02*
D03*
X2880Y3690D02*
D03*
X2570Y2910D02*
D03*
X2520Y2810D02*
D03*
X2460Y2880D02*
D03*
X2730Y3220D02*
D03*
X2800Y3280D02*
D03*
X2450Y3860D02*
D03*
X3900Y1013D02*
D03*
X4440Y390D02*
D03*
Y440D02*
D03*
X1533Y1073D02*
D03*
X3730Y2940D02*
D03*
X3660Y3000D02*
D03*
X4040Y3200D02*
D03*
X4000Y3240D02*
D03*
X4100Y3200D02*
D03*
X4090Y3350D02*
D03*
X4630Y3310D02*
D03*
X4580D02*
D03*
X4630Y3370D02*
D03*
X4580D02*
D03*
X4270Y4760D02*
D03*
X1450Y2510D02*
D03*
Y2700D02*
D03*
X2270Y2420D02*
D03*
X2040Y2550D02*
D03*
X2240Y1950D02*
D03*
X2590Y1040D02*
D03*
X4650Y2240D02*
D03*
X4565Y1625D02*
D03*
X4000Y1410D02*
D03*
X4570Y1485D02*
D03*
X1030Y280D02*
D03*
Y330D02*
D03*
X1030Y380D02*
D03*
X850Y120D02*
D03*
Y170D02*
D03*
X850Y220D02*
D03*
X1150Y740D02*
D03*
Y790D02*
D03*
Y840D02*
D03*
X3590Y4450D02*
D03*
Y4250D02*
D03*
Y4530D02*
D03*
Y4350D02*
D03*
Y4160D02*
D03*
X2190Y4000D02*
D03*
X1230Y3830D02*
D03*
X1200Y3220D02*
D03*
X1280Y3590D02*
D03*
X2930Y4400D02*
D03*
X3170Y4510D02*
D03*
X3075Y4400D02*
D03*
X4320Y4760D02*
D03*
X4787Y4747D02*
D03*
X4570Y3515D02*
D03*
Y3445D02*
D03*
Y2955D02*
D03*
Y2885D02*
D03*
Y2815D02*
D03*
Y2605D02*
D03*
Y2255D02*
D03*
Y2185D02*
D03*
X4600Y950D02*
D03*
X4330Y980D02*
D03*
X4600Y900D02*
D03*
X4280Y980D02*
D03*
X4270Y1100D02*
D03*
Y1050D02*
D03*
X4565Y1555D02*
D03*
X4790Y1030D02*
D03*
X4830Y990D02*
D03*
X1250Y4690D02*
D03*
X2530Y3440D02*
D03*
X2569Y3481D02*
D03*
X2060Y3780D02*
D03*
Y3880D02*
D03*
X1960Y3780D02*
D03*
X2700Y4040D02*
D03*
Y4280D02*
D03*
Y4330D02*
D03*
X2873Y3776D02*
D03*
X2080Y3300D02*
D03*
X1980D02*
D03*
X2080Y3400D02*
D03*
X1980Y3200D02*
D03*
X2080D02*
D03*
X2180D02*
D03*
Y3300D02*
D03*
Y3400D02*
D03*
X1980D02*
D03*
X3845Y3335D02*
D03*
X3790D02*
D03*
X3900D02*
D03*
X4260Y3590D02*
D03*
X4310Y3590D02*
D03*
X1150Y890D02*
D03*
Y940D02*
D03*
Y990D02*
D03*
X1040Y840D02*
D03*
X1100D02*
D03*
X1150Y1070D02*
D03*
Y1120D02*
D03*
Y1170D02*
D03*
X1270Y1480D02*
D03*
X2455Y2165D02*
D03*
X2530Y1350D02*
D03*
X2480D02*
D03*
Y1300D02*
D03*
X2530D02*
D03*
X2610Y1950D02*
D03*
X2510D02*
D03*
X2460Y1180D02*
D03*
X2260Y720D02*
D03*
X2210D02*
D03*
X2020Y750D02*
D03*
X2060Y790D02*
D03*
X2100Y2740D02*
D03*
X2250Y2660D02*
D03*
X4285Y2535D02*
D03*
X2050Y1990D02*
D03*
X2250Y2610D02*
D03*
X4050Y1410D02*
D03*
X4240Y1975D02*
D03*
X4530Y2115D02*
D03*
X3570Y2320D02*
D03*
X3660D02*
D03*
X3610Y2370D02*
D03*
X3510Y2380D02*
D03*
X3880Y2190D02*
D03*
X3800Y2560D02*
D03*
X3930Y2260D02*
D03*
X3610Y2780D02*
D03*
X3510D02*
D03*
X3420Y2810D02*
D03*
X2998D02*
D03*
X2570Y1110D02*
D03*
X1250Y4450D02*
D03*
X1251Y4071D02*
D03*
X1787Y1073D02*
D03*
X2680Y1040D02*
D03*
X4210Y4920D02*
D03*
X4310D02*
D03*
X4660Y80D02*
D03*
X4440D02*
D03*
X4560D02*
D03*
X3990Y590D02*
D03*
X3830D02*
D03*
X3670D02*
D03*
X3510D02*
D03*
X3350D02*
D03*
X3190D02*
D03*
X170Y340D02*
D03*
X110D02*
D03*
X730Y470D02*
D03*
X650D02*
D03*
X560Y420D02*
D03*
X2210Y1490D02*
D03*
X2160Y1600D02*
D03*
X2210Y1560D02*
D03*
X2260Y1600D02*
D03*
X2090D02*
D03*
X2020D02*
D03*
X2330D02*
D03*
X2400D02*
D03*
X1790Y1580D02*
D03*
X1920Y1710D02*
D03*
X2320Y2100D02*
D03*
X1810Y1790D02*
D03*
X1230Y1700D02*
D03*
X919Y1983D02*
D03*
X770Y1910D02*
D03*
X1000Y2540D02*
D03*
Y2460D02*
D03*
X1330Y2000D02*
D03*
X610Y3580D02*
D03*
X530D02*
D03*
X467Y3695D02*
D03*
Y3631D02*
D03*
Y3520D02*
D03*
Y3452D02*
D03*
X90Y3330D02*
D03*
X430D02*
D03*
X270D02*
D03*
X90Y3620D02*
D03*
Y4020D02*
D03*
X270D02*
D03*
Y3820D02*
D03*
Y3620D02*
D03*
X90Y4220D02*
D03*
Y4430D02*
D03*
X110Y4610D02*
D03*
X190Y4770D02*
D03*
X337Y4875D02*
D03*
X500Y4910D02*
D03*
X660D02*
D03*
X800D02*
D03*
X230Y4610D02*
D03*
X1240Y4780D02*
D03*
X810Y4510D02*
D03*
X800Y4710D02*
D03*
X620D02*
D03*
X1100Y4910D02*
D03*
Y4710D02*
D03*
X950Y4510D02*
D03*
X1100D02*
D03*
X2130Y4910D02*
D03*
X1980D02*
D03*
Y4760D02*
D03*
Y4610D02*
D03*
X1840Y4500D02*
D03*
X1719Y4608D02*
D03*
X1550Y4710D02*
D03*
X1430Y4600D02*
D03*
X1380Y4460D02*
D03*
X1590D02*
D03*
X2040Y4110D02*
D03*
X2000Y4370D02*
D03*
X2780Y4250D02*
D03*
X3250Y4470D02*
D03*
X3460Y4910D02*
D03*
Y4690D02*
D03*
X4530Y4740D02*
D03*
X4725Y4555D02*
D03*
X4700Y4360D02*
D03*
X3900Y3590D02*
D03*
X3790D02*
D03*
X3980Y3450D02*
D03*
X3940Y3190D02*
D03*
X4010Y3010D02*
D03*
X4210Y2930D02*
D03*
X4800Y3422D02*
D03*
X4560Y3710D02*
D03*
X4000D02*
D03*
Y3850D02*
D03*
X4190Y3910D02*
D03*
X4470Y3600D02*
D03*
X3340Y3150D02*
D03*
X3260Y3240D02*
D03*
Y3390D02*
D03*
Y3540D02*
D03*
X4010Y2760D02*
D03*
X4860Y3230D02*
D03*
X4790Y3110D02*
D03*
X4860Y2880D02*
D03*
Y2680D02*
D03*
X4770Y2520D02*
D03*
X4750Y2360D02*
D03*
X4700Y2720D02*
D03*
X4830Y2150D02*
D03*
X4630Y2390D02*
D03*
X4870Y1600D02*
D03*
Y1860D02*
D03*
X4640Y1960D02*
D03*
X4590Y1720D02*
D03*
X4030Y2270D02*
D03*
X3940Y2060D02*
D03*
X2710Y1180D02*
D03*
X2870Y950D02*
D03*
X2600Y870D02*
D03*
X2650Y470D02*
D03*
X2870Y600D02*
D03*
X3060Y930D02*
D03*
Y690D02*
D03*
X3747Y1288D02*
D03*
X3550D02*
D03*
X3353D02*
D03*
Y893D02*
D03*
X3747D02*
D03*
X3550D02*
D03*
X3980Y1090D02*
D03*
X4040Y700D02*
D03*
X3910Y680D02*
D03*
X3750D02*
D03*
X3590D02*
D03*
X3190Y690D02*
D03*
X3210Y890D02*
D03*
X3900D02*
D03*
X3870Y1540D02*
D03*
X4100Y1490D02*
D03*
X4150Y1620D02*
D03*
X2950D02*
D03*
X3110Y2510D02*
D03*
Y2310D02*
D03*
X3010Y2410D02*
D03*
X3210D02*
D03*
X3110D02*
D03*
X800Y1400D02*
D03*
Y1490D02*
D03*
Y1580D02*
D03*
X980D02*
D03*
Y1490D02*
D03*
Y1400D02*
D03*
X890D02*
D03*
Y1580D02*
D03*
Y1490D02*
D03*
X1800Y2380D02*
D03*
X1750Y2430D02*
D03*
X1850D02*
D03*
X1750Y2330D02*
D03*
X1850D02*
D03*
X4100Y2530D02*
D03*
X1790Y2010D02*
D03*
X3570Y1850D02*
D03*
X1510Y410D02*
D03*
X1470Y140D02*
D03*
X1570Y350D02*
D03*
X560Y960D02*
D03*
X100Y1300D02*
D03*
X420Y1220D02*
D03*
X440Y1370D02*
D03*
X270Y1410D02*
D03*
X100Y1120D02*
D03*
D202*
X4640Y260D02*
D03*
X4690Y310D02*
D03*
X4590D02*
D03*
Y210D02*
D03*
X4690D02*
D03*
X4760Y120D02*
D03*
X410Y100D02*
D03*
X160Y270D02*
D03*
X2840Y3990D02*
D03*
X2880Y3520D02*
D03*
X1880Y3130D02*
D03*
X3110Y3320D02*
D03*
X3050D02*
D03*
X4230Y730D02*
D03*
X4590Y3030D02*
D03*
Y3090D02*
D03*
Y3150D02*
D03*
X1980Y1250D02*
D03*
Y1310D02*
D03*
Y1370D02*
D03*
X1920D02*
D03*
Y1310D02*
D03*
Y1250D02*
D03*
X2740Y2100D02*
D03*
X2680D02*
D03*
X3550Y3060D02*
D03*
X3460D02*
D03*
X3920Y2950D02*
D03*
X2570Y3940D02*
D03*
X1370Y130D02*
D03*
Y190D02*
D03*
X1220Y130D02*
D03*
X1370Y250D02*
D03*
X1220Y190D02*
D03*
Y250D02*
D03*
X1610Y4790D02*
D03*
X720Y3130D02*
D03*
X780D02*
D03*
X3380Y4360D02*
D03*
X3320D02*
D03*
X3380Y4300D02*
D03*
X3320D02*
D03*
X1780Y2710D02*
D03*
X1070Y1820D02*
D03*
X1870Y1280D02*
D03*
X3450Y3250D02*
D03*
Y3190D02*
D03*
X3230Y3060D02*
D03*
X2650Y970D02*
D03*
X3470Y2320D02*
D03*
X3650Y990D02*
D03*
X560Y500D02*
D03*
X1410Y350D02*
D03*
Y410D02*
D03*
X1580Y500D02*
D03*
X1520D02*
D03*
X3160Y3500D02*
D03*
X3100D02*
D03*
X3660Y4020D02*
D03*
X4120Y4210D02*
D03*
X4050D02*
D03*
X4100Y4300D02*
D03*
X3980Y4350D02*
D03*
X3760D02*
D03*
X3750Y4250D02*
D03*
X3860Y4350D02*
D03*
X3980Y4250D02*
D03*
X4190Y4210D02*
D03*
X3940Y4120D02*
D03*
Y4060D02*
D03*
Y4000D02*
D03*
X3780Y4120D02*
D03*
Y4060D02*
D03*
Y4000D02*
D03*
Y3940D02*
D03*
X3940D02*
D03*
X3380Y4120D02*
D03*
X3320D02*
D03*
X3380Y4180D02*
D03*
X3320D02*
D03*
X3380Y4240D02*
D03*
X3320D02*
D03*
X780Y3270D02*
D03*
Y3200D02*
D03*
X720D02*
D03*
X660D02*
D03*
Y3130D02*
D03*
X600D02*
D03*
Y3200D02*
D03*
X3590Y4830D02*
D03*
Y4770D02*
D03*
Y4710D02*
D03*
X3810Y4660D02*
D03*
X3870D02*
D03*
X3810Y4600D02*
D03*
X3870D02*
D03*
Y4540D02*
D03*
X3810D02*
D03*
Y4480D02*
D03*
X3870D02*
D03*
X3960D02*
D03*
Y4540D02*
D03*
X4110Y4590D02*
D03*
Y4650D02*
D03*
X4020Y4480D02*
D03*
X4050Y4590D02*
D03*
Y4650D02*
D03*
X3990D02*
D03*
X4020Y4540D02*
D03*
X3990Y4590D02*
D03*
X4030Y790D02*
D03*
Y910D02*
D03*
Y850D02*
D03*
X1248Y3447D02*
D03*
Y3510D02*
D03*
X560Y4370D02*
D03*
X800D02*
D03*
X740D02*
D03*
X680D02*
D03*
X620D02*
D03*
X1250Y3920D02*
D03*
Y3980D02*
D03*
X560Y4500D02*
D03*
X620D02*
D03*
X560Y3940D02*
D03*
X620D02*
D03*
X690Y3810D02*
D03*
X750D02*
D03*
X810D02*
D03*
X870D02*
D03*
X930D02*
D03*
X680Y4500D02*
D03*
X860Y4370D02*
D03*
X680Y3940D02*
D03*
X770D02*
D03*
X3920Y3780D02*
D03*
Y3720D02*
D03*
X4195Y4075D02*
D03*
Y4005D02*
D03*
X3630Y3540D02*
D03*
Y3600D02*
D03*
X1040Y1040D02*
D03*
X1100D02*
D03*
X750Y220D02*
D03*
Y160D02*
D03*
X650D02*
D03*
Y220D02*
D03*
X820Y710D02*
D03*
Y650D02*
D03*
X880D02*
D03*
Y590D02*
D03*
X820D02*
D03*
Y770D02*
D03*
X960Y800D02*
D03*
Y740D02*
D03*
X1190Y1880D02*
D03*
Y1940D02*
D03*
Y1820D02*
D03*
X1130D02*
D03*
Y1880D02*
D03*
Y1940D02*
D03*
X1070Y1980D02*
D03*
X1004Y2685D02*
D03*
Y2625D02*
D03*
Y2315D02*
D03*
Y2375D02*
D03*
X945Y2625D02*
D03*
Y2375D02*
D03*
X1360Y2320D02*
D03*
Y2260D02*
D03*
Y2740D02*
D03*
Y2680D02*
D03*
X1180Y2680D02*
D03*
Y2320D02*
D03*
X3690Y760D02*
D03*
X3630D02*
D03*
X3570D02*
D03*
X2130Y1960D02*
D03*
Y1900D02*
D03*
X1890Y1890D02*
D03*
X1830Y1930D02*
D03*
X1720Y1860D02*
D03*
X1790Y1880D02*
D03*
X1890Y1960D02*
D03*
X2630Y1100D02*
D03*
X2200Y4110D02*
D03*
X3230Y1230D02*
D03*
X2300Y2810D02*
D03*
X3790Y1890D02*
D03*
X3850D02*
D03*
X3700Y2450D02*
D03*
Y2390D02*
D03*
X1250Y4610D02*
D03*
X1250Y4540D02*
D03*
X1710Y4030D02*
D03*
X1650D02*
D03*
X1710Y4090D02*
D03*
Y4150D02*
D03*
X1650Y4090D02*
D03*
Y4150D02*
D03*
Y4210D02*
D03*
X1590D02*
D03*
Y4150D02*
D03*
Y4270D02*
D03*
X1710Y3970D02*
D03*
X600Y2840D02*
D03*
Y2590D02*
D03*
Y2340D02*
D03*
Y2180D02*
D03*
X590Y1910D02*
D03*
X2790Y100D02*
D03*
Y250D02*
D03*
X2620Y90D02*
D03*
X2570Y4910D02*
D03*
X3130D02*
D03*
X2850D02*
D03*
X2280D02*
D03*
X2500Y4420D02*
D03*
X2280Y4630D02*
D03*
X3340Y3660D02*
D03*
X3590Y3780D02*
D03*
X4080Y3590D02*
D03*
X4490Y3970D02*
D03*
Y4090D02*
D03*
X4860Y4200D02*
D03*
X4233Y2130D02*
D03*
X4495Y1280D02*
D03*
Y1170D02*
D03*
X4605Y1280D02*
D03*
Y1170D02*
D03*
X4240Y4440D02*
D03*
X4190Y4490D02*
D03*
Y4390D02*
D03*
X4290Y4490D02*
D03*
Y4390D02*
D03*
X4210Y3020D02*
D03*
M02*
