M48
;Layer_Color=9474304
;FILE_FORMAT=4:2
METRIC,LZ
;TYPE=PLATED
T1F00S00C0.20
T2F00S00C0.25
;TYPE=NON_PLATED
%
T01
X004815Y003875
T02
X00085Y00012
Y00017
X00085Y00022
X00103Y00028
Y00033
X00103Y00038
X00073Y00047
X00065
X00056Y00042
X00104Y00084
X0011
X00115
Y00089
Y00094
Y00099
Y00107
Y00112
Y00117
Y00079
Y00074
X00098Y0014
Y00149
Y00158
X00089
X0008
Y00149
Y0014
X00089
Y00149
X000919Y001983
X00077Y00191
X00133Y002
X00144Y00196
X00133Y00179
X00123Y0017
X001Y00246
Y00254
X00145Y00251
Y0027
X00043Y00333
X000467Y003452
X00027Y00333
X00009
X00147Y00014
X00165Y00009
X00151Y00041
X00202Y00075
X00206Y00079
X0026Y00087
X00287Y00095
X00306Y00093
X00321Y00089
X003353Y000893
X00355
X003747
X0039Y00089
X00391Y00068
X00404Y0007
X00375Y00068
X00359
X00346
X00319Y00069
X00306
X00287Y0006
X00265Y00047
X00271Y00118
Y00138
X00246Y00118
X0024Y0016
X00233
X00226
X00221Y00156
Y00149
X00216Y0016
X00209
X00202
X00192Y00171
X00181Y00179
X00179Y00158
Y00201
X00205Y00199
X00224Y00195
X00232Y0021
X002455Y002165
X00251Y00195
X00261
X0025Y00169
X00295Y00162
X003353Y001288
X00355
X003747
X00387Y00154
X0041Y00149
X00415Y00162
X00424Y001975
X00394Y00206
X00393Y00226
X00403Y00227
X00366Y00232
X00357
X00361Y00237
X00351Y00238
X00321Y00241
X00311
Y00251
Y00231
X00301Y00241
X002998Y00281
X00342
X00351Y00278
X00361
X00366Y003
X00373Y00294
X00401Y00301
X00394Y00319
X00398Y00345
X00457Y003445
X0048Y003422
X00486Y00323
X00479Y00311
X00486Y00288
Y00268
X0047Y00272
X00457Y002815
Y002885
Y002955
Y002605
X00463Y00239
X00475Y00236
X00477Y00252
X00483Y00215
X00457Y002185
Y002255
X00453Y002115
X00464Y00196
X00459Y00172
X00457Y001485
X00487Y0016
Y00186
Y00131
Y0009
X00429Y00047
X00398Y00109
X00357Y00185
X0038Y00256
X00401Y00276
X00421Y00293
X004285Y002535
X00334Y00315
X00326Y00324
Y00339
X00311Y00326
X00305
X00299
Y00332
X0028Y00328
X00273Y00322
X00257Y00291
X00246Y00288
X00252Y00281
X0021Y00274
X00204Y00255
X00185Y00243
X0018Y00238
X00175Y00243
Y00233
X00185
X00227Y00242
X00218Y0032
X00208
X00198
Y0033
X00208
Y0034
X00198
X00218
Y0033
X0015Y00214
X00196Y00378
X00206
Y00388
X00204Y00411
X002Y00437
X00198Y00461
Y00476
Y00491
X00213
X00184Y0045
X001719Y004608
X00155Y00471
X00159Y00446
X00278Y00425
X00279Y00362
Y00356
X00263Y00369
X00245Y00386
X00326Y00354
X00379Y00359
X0039
X004Y00371
Y00385
X00419Y00391
X00456Y00371
X00447Y0036
X00457Y003515
X0047Y00436
X004725Y004555
X00453Y00474
X00346Y00469
Y00491
X00325Y00447
X00138Y00446
X00143Y0046
X00124Y00478
X0011Y00471
Y00451
X00095
X00081
X0008Y00471
X00062
X0011Y00491
X00027Y00402
X00009
X00027Y00382
Y00362
X00009
X000467Y003631
Y003695
Y00352
X00053Y00358
X00061
M30
