G04*
G04 #@! TF.GenerationSoftware,Altium Limited,Altium Designer,20.0.13 (296)*
G04*
G04 Layer_Color=32896*
%FSLAX42Y42*%
%MOMM*%
G71*
G01*
G75*
%ADD10C,0.20*%
G36*
X13674Y3488D02*
X13654D01*
Y3510D01*
X13674D01*
Y3488D01*
D02*
G37*
G36*
X13762Y3468D02*
X13765Y3468D01*
X13768Y3468D01*
X13771Y3467D01*
X13775Y3466D01*
X13778Y3465D01*
X13778Y3465D01*
X13779Y3464D01*
X13781Y3463D01*
X13783Y3462D01*
X13785Y3461D01*
X13787Y3459D01*
X13789Y3457D01*
X13791Y3455D01*
X13791Y3455D01*
X13792Y3454D01*
X13792Y3453D01*
X13793Y3451D01*
X13794Y3449D01*
X13795Y3446D01*
X13797Y3443D01*
X13797Y3440D01*
Y3440D01*
X13797Y3439D01*
X13798Y3438D01*
X13798Y3436D01*
Y3433D01*
X13798Y3430D01*
X13798Y3426D01*
Y3421D01*
Y3350D01*
X13779D01*
Y3420D01*
Y3421D01*
Y3421D01*
Y3422D01*
Y3425D01*
X13778Y3427D01*
X13778Y3430D01*
X13778Y3433D01*
X13777Y3436D01*
X13776Y3438D01*
Y3439D01*
X13776Y3439D01*
X13775Y3440D01*
X13775Y3442D01*
X13773Y3443D01*
X13772Y3445D01*
X13770Y3446D01*
X13768Y3448D01*
X13768Y3448D01*
X13767Y3449D01*
X13766Y3449D01*
X13764Y3450D01*
X13762Y3450D01*
X13760Y3451D01*
X13757Y3451D01*
X13754Y3452D01*
X13753D01*
X13752Y3451D01*
X13750Y3451D01*
X13747Y3451D01*
X13744Y3449D01*
X13740Y3448D01*
X13736Y3446D01*
X13733Y3443D01*
X13732Y3443D01*
X13731Y3442D01*
X13731Y3441D01*
X13730Y3440D01*
X13729Y3438D01*
X13728Y3437D01*
X13728Y3435D01*
X13727Y3433D01*
X13726Y3430D01*
X13725Y3427D01*
X13725Y3424D01*
X13724Y3421D01*
X13724Y3417D01*
Y3413D01*
Y3350D01*
X13704D01*
Y3466D01*
X13722D01*
Y3449D01*
X13722Y3450D01*
X13722Y3450D01*
X13723Y3451D01*
X13724Y3453D01*
X13725Y3454D01*
X13727Y3456D01*
X13729Y3457D01*
X13731Y3459D01*
X13734Y3461D01*
X13736Y3463D01*
X13739Y3464D01*
X13743Y3466D01*
X13746Y3467D01*
X13750Y3468D01*
X13754Y3468D01*
X13759Y3469D01*
X13760D01*
X13762Y3468D01*
D02*
G37*
G36*
X13512Y3350D02*
X13494D01*
Y3367D01*
X13494Y3367D01*
X13493Y3366D01*
X13493Y3365D01*
X13492Y3364D01*
X13490Y3362D01*
X13489Y3361D01*
X13487Y3359D01*
X13484Y3357D01*
X13482Y3355D01*
X13479Y3354D01*
X13476Y3352D01*
X13473Y3350D01*
X13469Y3349D01*
X13465Y3348D01*
X13461Y3348D01*
X13457Y3347D01*
X13455D01*
X13453Y3348D01*
X13451Y3348D01*
X13448Y3348D01*
X13445Y3349D01*
X13441Y3350D01*
X13438Y3351D01*
X13437Y3352D01*
X13436Y3352D01*
X13435Y3353D01*
X13433Y3354D01*
X13431Y3356D01*
X13429Y3357D01*
X13427Y3359D01*
X13425Y3361D01*
X13424Y3361D01*
X13424Y3362D01*
X13423Y3363D01*
X13422Y3365D01*
X13421Y3367D01*
X13420Y3370D01*
X13419Y3373D01*
X13419Y3376D01*
Y3376D01*
X13418Y3377D01*
X13418Y3378D01*
Y3380D01*
X13418Y3383D01*
X13418Y3386D01*
X13417Y3390D01*
Y3394D01*
Y3466D01*
X13437D01*
Y3402D01*
Y3401D01*
Y3401D01*
Y3400D01*
Y3399D01*
Y3397D01*
X13437Y3393D01*
Y3390D01*
X13438Y3386D01*
X13438Y3383D01*
X13438Y3381D01*
Y3381D01*
X13439Y3380D01*
X13439Y3378D01*
X13440Y3376D01*
X13441Y3375D01*
X13442Y3372D01*
X13444Y3371D01*
X13446Y3369D01*
X13446Y3369D01*
X13447Y3368D01*
X13448Y3367D01*
X13450Y3367D01*
X13452Y3366D01*
X13455Y3365D01*
X13458Y3365D01*
X13461Y3364D01*
X13463D01*
X13464Y3365D01*
X13466Y3365D01*
X13469Y3366D01*
X13472Y3366D01*
X13475Y3367D01*
X13478Y3369D01*
X13478Y3369D01*
X13479Y3370D01*
X13480Y3371D01*
X13482Y3372D01*
X13484Y3374D01*
X13486Y3376D01*
X13487Y3378D01*
X13489Y3381D01*
X13489Y3381D01*
X13489Y3382D01*
X13490Y3384D01*
X13490Y3387D01*
X13491Y3390D01*
X13492Y3394D01*
X13492Y3399D01*
X13492Y3404D01*
Y3466D01*
X13512D01*
Y3350D01*
D02*
G37*
G36*
X13674D02*
X13654D01*
Y3466D01*
X13674D01*
Y3350D01*
D02*
G37*
G36*
X13624D02*
X13604D01*
Y3510D01*
X13624D01*
Y3350D01*
D02*
G37*
G36*
X13565Y3466D02*
X13585D01*
Y3451D01*
X13565D01*
Y3383D01*
Y3382D01*
Y3381D01*
Y3380D01*
X13566Y3378D01*
X13566Y3375D01*
X13566Y3373D01*
X13566Y3372D01*
X13566Y3371D01*
X13567Y3370D01*
X13568Y3369D01*
X13570Y3368D01*
X13570Y3368D01*
X13571Y3367D01*
X13573Y3367D01*
X13576Y3367D01*
X13579D01*
X13580Y3367D01*
X13582D01*
X13583Y3367D01*
X13585Y3367D01*
X13588Y3350D01*
X13587D01*
X13586Y3350D01*
X13585Y3350D01*
X13583Y3349D01*
X13580Y3349D01*
X13578Y3349D01*
X13573Y3348D01*
X13571D01*
X13569Y3349D01*
X13567Y3349D01*
X13564Y3349D01*
X13561Y3350D01*
X13559Y3350D01*
X13556Y3352D01*
X13556Y3352D01*
X13555Y3352D01*
X13554Y3353D01*
X13553Y3354D01*
X13552Y3355D01*
X13550Y3357D01*
X13549Y3359D01*
X13548Y3361D01*
Y3361D01*
X13548Y3362D01*
X13547Y3363D01*
X13547Y3366D01*
X13546Y3369D01*
X13546Y3371D01*
Y3373D01*
X13546Y3375D01*
X13546Y3378D01*
Y3381D01*
Y3384D01*
Y3451D01*
X13531D01*
Y3466D01*
X13546D01*
Y3495D01*
X13565Y3507D01*
Y3466D01*
D02*
G37*
G36*
X13880Y3468D02*
X13882Y3468D01*
X13884Y3468D01*
X13887Y3467D01*
X13890Y3467D01*
X13893Y3466D01*
X13896Y3465D01*
X13899Y3464D01*
X13902Y3462D01*
X13905Y3460D01*
X13908Y3458D01*
X13912Y3456D01*
X13914Y3453D01*
X13915Y3453D01*
X13915Y3452D01*
X13916Y3451D01*
X13917Y3450D01*
X13918Y3448D01*
X13919Y3446D01*
X13920Y3444D01*
X13922Y3441D01*
X13923Y3438D01*
X13924Y3435D01*
X13926Y3431D01*
X13927Y3427D01*
X13928Y3423D01*
X13928Y3418D01*
X13929Y3413D01*
X13929Y3408D01*
Y3408D01*
Y3407D01*
Y3405D01*
X13929Y3403D01*
X13842D01*
Y3403D01*
Y3402D01*
X13842Y3401D01*
Y3400D01*
X13843Y3398D01*
X13843Y3396D01*
X13844Y3392D01*
X13845Y3387D01*
X13847Y3382D01*
X13849Y3378D01*
X13853Y3374D01*
X13853D01*
X13853Y3373D01*
X13855Y3372D01*
X13857Y3370D01*
X13859Y3369D01*
X13863Y3367D01*
X13867Y3365D01*
X13872Y3364D01*
X13874Y3364D01*
X13877Y3364D01*
X13879D01*
X13881Y3364D01*
X13884Y3364D01*
X13887Y3365D01*
X13890Y3366D01*
X13893Y3367D01*
X13896Y3369D01*
X13896Y3369D01*
X13897Y3370D01*
X13899Y3372D01*
X13900Y3374D01*
X13902Y3376D01*
X13904Y3379D01*
X13906Y3383D01*
X13908Y3387D01*
X13928Y3385D01*
Y3385D01*
X13928Y3384D01*
X13928Y3383D01*
X13927Y3382D01*
X13927Y3381D01*
X13926Y3379D01*
X13924Y3375D01*
X13922Y3370D01*
X13919Y3366D01*
X13915Y3361D01*
X13910Y3357D01*
X13910D01*
X13910Y3357D01*
X13909Y3356D01*
X13908Y3356D01*
X13907Y3355D01*
X13905Y3354D01*
X13903Y3353D01*
X13901Y3352D01*
X13899Y3351D01*
X13897Y3350D01*
X13891Y3349D01*
X13884Y3348D01*
X13877Y3347D01*
X13875D01*
X13873Y3348D01*
X13871Y3348D01*
X13868Y3348D01*
X13866Y3349D01*
X13863Y3349D01*
X13856Y3351D01*
X13853Y3353D01*
X13849Y3354D01*
X13846Y3356D01*
X13843Y3358D01*
X13840Y3360D01*
X13837Y3363D01*
X13837Y3363D01*
X13836Y3364D01*
X13835Y3365D01*
X13834Y3366D01*
X13833Y3368D01*
X13832Y3369D01*
X13831Y3372D01*
X13829Y3374D01*
X13828Y3377D01*
X13827Y3381D01*
X13825Y3384D01*
X13824Y3388D01*
X13823Y3392D01*
X13823Y3397D01*
X13822Y3402D01*
X13822Y3407D01*
Y3407D01*
Y3408D01*
Y3410D01*
X13822Y3412D01*
X13822Y3414D01*
X13823Y3417D01*
X13823Y3420D01*
X13824Y3424D01*
X13826Y3431D01*
X13827Y3435D01*
X13828Y3439D01*
X13830Y3442D01*
X13832Y3446D01*
X13834Y3449D01*
X13837Y3453D01*
X13837Y3453D01*
X13838Y3453D01*
X13839Y3454D01*
X13840Y3455D01*
X13841Y3456D01*
X13843Y3458D01*
X13845Y3459D01*
X13848Y3461D01*
X13850Y3462D01*
X13853Y3464D01*
X13856Y3465D01*
X13860Y3466D01*
X13864Y3467D01*
X13868Y3468D01*
X13872Y3468D01*
X13876Y3469D01*
X13878D01*
X13880Y3468D01*
D02*
G37*
G36*
X13320Y3513D02*
X13322D01*
X13324Y3512D01*
X13327Y3512D01*
X13330Y3512D01*
X13336Y3510D01*
X13343Y3509D01*
X13350Y3506D01*
X13353Y3504D01*
X13357Y3502D01*
X13357Y3502D01*
X13357Y3502D01*
X13358Y3501D01*
X13360Y3500D01*
X13361Y3499D01*
X13363Y3498D01*
X13367Y3495D01*
X13371Y3490D01*
X13376Y3485D01*
X13380Y3479D01*
X13384Y3473D01*
Y3472D01*
X13384Y3472D01*
X13385Y3471D01*
X13385Y3469D01*
X13386Y3468D01*
X13387Y3465D01*
X13388Y3463D01*
X13389Y3460D01*
X13389Y3457D01*
X13390Y3454D01*
X13391Y3450D01*
X13392Y3446D01*
X13393Y3438D01*
X13393Y3430D01*
Y3429D01*
Y3428D01*
Y3427D01*
X13393Y3425D01*
Y3423D01*
X13393Y3421D01*
X13392Y3418D01*
X13392Y3415D01*
X13391Y3408D01*
X13389Y3401D01*
X13386Y3394D01*
X13385Y3390D01*
X13383Y3386D01*
Y3386D01*
X13383Y3385D01*
X13382Y3384D01*
X13381Y3383D01*
X13380Y3381D01*
X13379Y3380D01*
X13376Y3375D01*
X13372Y3371D01*
X13367Y3366D01*
X13362Y3361D01*
X13355Y3357D01*
X13355D01*
X13355Y3356D01*
X13354Y3356D01*
X13352Y3355D01*
X13351Y3355D01*
X13349Y3354D01*
X13346Y3353D01*
X13344Y3352D01*
X13341Y3351D01*
X13338Y3350D01*
X13331Y3349D01*
X13324Y3348D01*
X13317Y3347D01*
X13314D01*
X13313Y3347D01*
X13311D01*
X13308Y3348D01*
X13306Y3348D01*
X13303Y3349D01*
X13297Y3350D01*
X13290Y3352D01*
X13283Y3355D01*
X13280Y3356D01*
X13276Y3358D01*
X13276Y3358D01*
X13275Y3359D01*
X13274Y3359D01*
X13273Y3360D01*
X13272Y3361D01*
X13270Y3362D01*
X13266Y3366D01*
X13262Y3370D01*
X13257Y3375D01*
X13253Y3381D01*
X13249Y3388D01*
Y3388D01*
X13249Y3389D01*
X13248Y3390D01*
X13248Y3391D01*
X13247Y3393D01*
X13246Y3395D01*
X13245Y3397D01*
X13245Y3400D01*
X13244Y3403D01*
X13243Y3406D01*
X13241Y3413D01*
X13240Y3420D01*
X13240Y3428D01*
Y3428D01*
Y3428D01*
Y3430D01*
X13240Y3432D01*
Y3434D01*
X13241Y3438D01*
X13241Y3442D01*
X13242Y3446D01*
X13243Y3451D01*
X13244Y3456D01*
X13245Y3461D01*
X13247Y3466D01*
X13249Y3471D01*
X13251Y3476D01*
X13254Y3481D01*
X13258Y3486D01*
X13261Y3490D01*
X13262Y3490D01*
X13262Y3491D01*
X13264Y3492D01*
X13265Y3494D01*
X13267Y3496D01*
X13270Y3497D01*
X13273Y3499D01*
X13276Y3502D01*
X13280Y3504D01*
X13284Y3506D01*
X13289Y3508D01*
X13294Y3509D01*
X13299Y3511D01*
X13305Y3512D01*
X13310Y3513D01*
X13317Y3513D01*
X13319D01*
X13320Y3513D01*
D02*
G37*
%LPC*%
G36*
X13876Y3453D02*
X13875D01*
X13874Y3452D01*
X13871Y3452D01*
X13868Y3451D01*
X13865Y3450D01*
X13861Y3449D01*
X13857Y3446D01*
X13853Y3443D01*
X13853Y3443D01*
X13852Y3442D01*
X13850Y3440D01*
X13849Y3437D01*
X13847Y3434D01*
X13845Y3429D01*
X13844Y3425D01*
X13843Y3419D01*
X13908D01*
Y3419D01*
Y3420D01*
X13908Y3421D01*
Y3422D01*
X13908Y3424D01*
X13907Y3427D01*
X13906Y3431D01*
X13905Y3434D01*
X13903Y3438D01*
X13901Y3441D01*
Y3441D01*
X13900Y3441D01*
X13899Y3443D01*
X13897Y3445D01*
X13894Y3447D01*
X13891Y3449D01*
X13887Y3451D01*
X13882Y3452D01*
X13879Y3452D01*
X13876Y3453D01*
D02*
G37*
G36*
X13317Y3495D02*
X13315D01*
X13313Y3494D01*
X13311Y3494D01*
X13309Y3494D01*
X13306Y3493D01*
X13303Y3493D01*
X13297Y3491D01*
X13294Y3490D01*
X13291Y3488D01*
X13287Y3486D01*
X13284Y3484D01*
X13281Y3482D01*
X13278Y3479D01*
X13278Y3479D01*
X13277Y3478D01*
X13277Y3477D01*
X13275Y3476D01*
X13274Y3474D01*
X13273Y3472D01*
X13271Y3470D01*
X13270Y3467D01*
X13268Y3464D01*
X13267Y3460D01*
X13265Y3456D01*
X13264Y3451D01*
X13263Y3446D01*
X13262Y3440D01*
X13262Y3434D01*
X13262Y3428D01*
Y3427D01*
Y3426D01*
Y3425D01*
X13262Y3423D01*
X13262Y3420D01*
X13263Y3418D01*
X13263Y3414D01*
X13264Y3411D01*
X13265Y3404D01*
X13267Y3400D01*
X13268Y3396D01*
X13270Y3392D01*
X13272Y3389D01*
X13274Y3385D01*
X13277Y3382D01*
X13277Y3382D01*
X13278Y3381D01*
X13279Y3380D01*
X13280Y3379D01*
X13282Y3378D01*
X13284Y3377D01*
X13286Y3375D01*
X13288Y3374D01*
X13291Y3372D01*
X13294Y3371D01*
X13297Y3369D01*
X13300Y3368D01*
X13304Y3367D01*
X13308Y3366D01*
X13312Y3366D01*
X13316Y3365D01*
X13318D01*
X13319Y3366D01*
X13320D01*
X13322Y3366D01*
X13325Y3366D01*
X13327Y3367D01*
X13330Y3367D01*
X13333Y3368D01*
X13336Y3369D01*
X13340Y3371D01*
X13343Y3372D01*
X13346Y3374D01*
X13350Y3376D01*
X13353Y3379D01*
X13356Y3382D01*
X13356Y3382D01*
X13357Y3383D01*
X13357Y3384D01*
X13358Y3385D01*
X13360Y3387D01*
X13361Y3389D01*
X13362Y3391D01*
X13364Y3394D01*
X13365Y3397D01*
X13367Y3401D01*
X13368Y3405D01*
X13369Y3409D01*
X13370Y3414D01*
X13371Y3419D01*
X13371Y3424D01*
X13371Y3430D01*
Y3430D01*
Y3431D01*
Y3432D01*
Y3433D01*
X13371Y3435D01*
Y3437D01*
X13371Y3439D01*
X13371Y3441D01*
X13370Y3447D01*
X13369Y3452D01*
X13367Y3458D01*
X13365Y3464D01*
Y3464D01*
X13364Y3465D01*
X13364Y3465D01*
X13364Y3466D01*
X13362Y3469D01*
X13360Y3472D01*
X13357Y3476D01*
X13354Y3480D01*
X13350Y3483D01*
X13345Y3487D01*
X13345D01*
X13345Y3487D01*
X13344Y3487D01*
X13343Y3488D01*
X13342Y3488D01*
X13340Y3489D01*
X13337Y3491D01*
X13333Y3492D01*
X13328Y3493D01*
X13322Y3494D01*
X13317Y3495D01*
D02*
G37*
%LPD*%
D10*
X4210Y100D02*
G03*
X4310Y0I100J-0D01*
G01*
X4210Y420D02*
G03*
X4110Y520I-100J0D01*
G01*
X2990Y520D02*
G03*
X2890Y420I-0J-100D01*
G01*
X2790Y-0D02*
G03*
X2890Y100I0J100D01*
G01*
X0Y500D02*
G03*
X500Y0I500J0D01*
G01*
Y5000D02*
G03*
X0Y4500I0J-500D01*
G01*
X5000Y4600D02*
G03*
X4600Y5000I-400J0D01*
G01*
X4600Y0D02*
G03*
X5000Y400I0J400D01*
G01*
X510Y3125D02*
G03*
X410Y3225I-100J0D01*
G01*
Y1775D02*
G03*
X510Y1875I0J100D01*
G01*
X100Y1775D02*
G03*
X0Y1675I0J-100D01*
G01*
Y3325D02*
G03*
X100Y3225I100J0D01*
G01*
X4210Y100D02*
Y420D01*
X4210D01*
X4110Y520D02*
Y520D01*
X2990D02*
X4110D01*
X2890Y100D02*
Y420D01*
X2890D01*
X4310Y0D02*
X4600Y0D01*
X500Y-0D02*
X2790Y0D01*
X500Y5000D02*
X4600D01*
X5000Y400D02*
X5000Y4600D01*
X510Y1875D02*
Y3125D01*
X0Y500D02*
Y1675D01*
X100Y1775D02*
X410D01*
X100Y3225D02*
X410D01*
X0Y3325D02*
Y4500D01*
M02*
